<svg id="bleu" xmlns="http://www.w3.org/2000/svg" xmlns:xlink="http://www.w3.org/1999/xlink" width="178.58" height="249.45" viewBox="0 0 178.58 249.45">
  <defs>
    <clipPath id="clip-path">
      <rect id="Rectangle_6" data-name="Rectangle 6" width="178.58" height="249.45" fill="none"/>
    </clipPath>
  </defs>
  <g id="Group_12" data-name="Group 12" clip-path="url(#clip-path)">
    <path id="Path_165" data-name="Path 165" d="M8.5,0H170.08a8.5,8.5,0,0,1,8.5,8.5V240.95a8.5,8.5,0,0,1-8.5,8.5H8.5a8.5,8.5,0,0,1-8.5-8.5V8.5A8.5,8.5,0,0,1,8.5,0" fill="#fff"/>
    <path id="Path_166" data-name="Path 166" d="M171.5,58.26V10.09a3.013,3.013,0,0,0-3.01-3.01H10.09a3,3,0,0,0-3,3.01V239.35a3,3,0,0,0,3,3.01h158.4a3.013,3.013,0,0,0,3.01-3.01V91.4m0-.01V58.29M29.01,44.95a.076.076,0,0,1,.02-.04.142.142,0,0,0-.02.06" fill="#fceef4"/>
    <path id="Path_167" data-name="Path 167" d="M101.29,176.49a16.03,16.03,0,0,1-3.108-.338c-4.17-.834-6.947-2.339-8.252-4.474a6.458,6.458,0,0,1-.541-5.187,6.339,6.339,0,0,0-.745-5.293,4.529,4.529,0,0,0-3.776-2.307c-2.976,0-5.925,3.143-7.509,4.832-.219.234-.407.434-.557.585a6.153,6.153,0,0,1-3.96,1.64c-1.449,0-3.281-.731-3.779-4.22a33.44,33.44,0,0,0-2.156-7.882,6.42,6.42,0,0,0-5.819-4.055,5.885,5.885,0,0,0-1.183.121,5.4,5.4,0,0,0-4.1,3.728,18.68,18.68,0,0,1-.81,2.113c-.915,1.938-3.446,6.517-7.178,7.192a5.753,5.753,0,0,1-1.024.09c-3.421,0-7.018-2.772-8.948-6.9-1.6-4.883-1.623-8.174-.061-9.747a3.6,3.6,0,0,1,1.909-.89,22.283,22.283,0,0,0,3.721-1.3c2.4-1.064,4.473-1.983,6.081-4.087,3.348-4.378,1.759-7.237-.163-8.864-.857-.726-1.814-1.144-5.223-1.7-1.884-.309-3.052-.425-3.9-.51a6.174,6.174,0,0,1-2.5-.576,6.444,6.444,0,0,1-3.514-3.495,5.667,5.667,0,0,1,.868-5.214c.853-1.067,2.361-1.6,5.365-2.655.616-.216,1.169-.395,1.666-.555,1.917-.62,3.074-.994,3.654-2.212a3.705,3.705,0,0,0,.242-2.161,6.359,6.359,0,0,0-3.716-4.676,4.681,4.681,0,0,0-1.841-.382,7.526,7.526,0,0,0-1.629.22,5.925,5.925,0,0,1-1.206.176,2.121,2.121,0,0,1-.823-.158c-1.651-.676-3.07-3.579-3.452-7.059-.49-4.447.805-8.205,3.461-10.054A7.58,7.58,0,0,1,40,88.994a8.981,8.981,0,0,1,1.333-.1,9.679,9.679,0,0,1,6.08,2.213c2.038,1.662,5.005,3.644,7.568,3.644,3.258,0,4.91-3.074,4.91-9.136,0-6.877,2.569-10.364,7.634-10.364a18.28,18.28,0,0,1,6.858,1.625,7.788,7.788,0,0,0,3.047.644,6.574,6.574,0,0,0,2.362-.428,4.456,4.456,0,0,0,2.721-2.578c.983-2.545-.28-5.989-1.512-8.429a6.239,6.239,0,0,1,.176-6.112C82.422,58,84.6,57,87.644,57a19.274,19.274,0,0,1,3.991.469c3.715.8,6.051,2.124,6.942,3.947a5.215,5.215,0,0,1-.287,4.529,12.262,12.262,0,0,0-1.148,7.635A14.369,14.369,0,0,0,107.223,85a10.587,10.587,0,0,0,2.566.31c2.475,0,7.262-.89,11.521-6.852a4.811,4.811,0,0,1,4.071-1.9c3.513,0,7.174,2.5,8.157,5.566.943,2.945-.618,6.053-4.4,8.752-4.157,2.969-6.111,5.894-5.808,8.7.448,4.148,5.644,6.42,5.865,6.515,5.558,1.591,6.872,3.266,7,4.394.21,1.814-2.417,3.3-2.443,3.315s-9.383,2.89-7.487,9.527c.931,3.258,4.164,5.052,9.1,5.052a19.542,19.542,0,0,0,3.177-.247c-.009.008,6.421.459,8.71,4.436,1.3,2.261,1.038,5.252-.781,8.889-1.853,3.705-3.873,5.506-6.176,5.506-2.7,0-5.336-2.549-7.264-4.41a9.722,9.722,0,0,0-2.706-2.167,2.393,2.393,0,0,0-.761-.119,4.219,4.219,0,0,0-1.774.462,6.393,6.393,0,0,0-3.313,3.738,6.987,6.987,0,0,0,.357,5.371l.534,1.068c1.157,2.314,1.515,4.089,1.064,5.275a2.461,2.461,0,0,1-1.478,1.415,3.715,3.715,0,0,1-1.387.265,4.128,4.128,0,0,1-3.323-1.711,8.79,8.79,0,0,0-7.131-3.942,9,9,0,0,0-1.278.093,4.547,4.547,0,0,0-3.266,2.009c-2.329,3.465-.727,10.019-.658,10.3.016.062,1.507,6.206-1.157,9.617a6.543,6.543,0,0,1-5.471,2.275" fill="#b1d8ef"/>
    <path id="Path_168" data-name="Path 168" d="M87.643,57.308a19.015,19.015,0,0,1,3.927.462c3.618.776,5.883,2.048,6.731,3.782a4.752,4.752,0,0,1-.288,4.262,12.566,12.566,0,0,0-1.172,7.825,14.681,14.681,0,0,0,10.307,11.653,10.908,10.908,0,0,0,2.641.32c2.533,0,7.431-.907,11.769-6.981a4.516,4.516,0,0,1,3.822-1.77c3.391,0,6.92,2.4,7.866,5.354.9,2.806-.623,5.792-4.284,8.408-4.253,3.037-6.249,6.058-5.934,8.978.468,4.324,5.821,6.666,6.048,6.763l.036.015.037.011c5.641,1.612,6.648,3.274,6.747,4.121.151,1.3-1.512,2.562-2.234,2.982-3.385,1.037-9.258,4.407-7.686,9.91.972,3.4,4.309,5.274,9.4,5.274a20.429,20.429,0,0,0,3.15-.238c.683.058,6.382.647,8.469,4.273,1.248,2.166.983,5.06-.788,8.6s-3.756,5.337-5.9,5.337c-2.571,0-5.16-2.5-7.05-4.325a9.8,9.8,0,0,0-2.821-2.237,2.721,2.721,0,0,0-.859-.134,4.509,4.509,0,0,0-1.905.492,6.692,6.692,0,0,0-3.47,3.913,7.294,7.294,0,0,0,.371,5.609l.534,1.068c1.1,2.2,1.466,3.943,1.052,5.03a2.143,2.143,0,0,1-1.305,1.239,3.42,3.42,0,0,1-1.274.243,3.879,3.879,0,0,1-3.076-1.585,9.079,9.079,0,0,0-7.377-4.068,9.321,9.321,0,0,0-1.322.1,4.841,4.841,0,0,0-3.476,2.141c-2.4,3.577-.773,10.259-.7,10.541.015.061,1.47,6.066-1.1,9.355a6.251,6.251,0,0,1-5.229,2.157,15.728,15.728,0,0,1-3.048-.332c-4.082-.817-6.791-2.275-8.05-4.334a6.16,6.16,0,0,1-.509-4.944,6.637,6.637,0,0,0-.786-5.547,4.812,4.812,0,0,0-4.028-2.442c-3.11,0-6.117,3.206-7.733,4.929-.217.231-.4.429-.55.577a5.816,5.816,0,0,1-3.744,1.551c-1.9,0-3.105-1.368-3.475-3.957a33.731,33.731,0,0,0-2.176-7.954,6.728,6.728,0,0,0-6.1-4.246,6.129,6.129,0,0,0-1.244.128,5.682,5.682,0,0,0-4.333,3.931,18.5,18.5,0,0,1-.8,2.078c-.7,1.479-3.262,6.354-6.955,7.022a5.537,5.537,0,0,1-.97.085c-3.3,0-6.771-2.686-8.656-6.689-1.562-4.78-1.608-7.955-.136-9.435a3.334,3.334,0,0,1,1.77-.81,22.568,22.568,0,0,0,3.767-1.312c2.438-1.082,4.544-2.016,6.2-4.181,3.677-4.811,1.447-7.882-.209-9.284-.9-.763-1.892-1.2-5.371-1.77-1.894-.31-3.067-.426-3.924-.512a5.859,5.859,0,0,1-2.4-.547,6.07,6.07,0,0,1-3.358-3.32,5.342,5.342,0,0,1,.817-4.922c.8-1,2.28-1.519,5.23-2.558.612-.215,1.163-.393,1.658-.553,1.926-.622,3.2-1.034,3.835-2.37a4.015,4.015,0,0,0,.269-2.332c-.44-3.43-3.76-4.86-3.9-4.919a4.981,4.981,0,0,0-1.959-.406,7.894,7.894,0,0,0-1.693.226,5.687,5.687,0,0,1-1.143.169,1.8,1.8,0,0,1-.707-.134c-1.526-.626-2.9-3.49-3.264-6.81-.476-4.333.77-7.985,3.333-9.769a7.264,7.264,0,0,1,3.1-1.194,8.632,8.632,0,0,1,1.287-.1,9.372,9.372,0,0,1,5.886,2.144c2.076,1.694,5.109,3.713,7.762,3.713,3.461,0,5.216-3.177,5.216-9.442,0-6.674,2.465-10.058,7.328-10.058a17.966,17.966,0,0,1,6.736,1.6,8.1,8.1,0,0,0,3.168.669,6.878,6.878,0,0,0,2.473-.449,4.753,4.753,0,0,0,2.9-2.752c1.023-2.651-.264-6.182-1.524-8.678a5.931,5.931,0,0,1,.161-5.811c1.185-1.876,3.274-2.828,6.208-2.828m0-.612c-3.707,0-5.68,1.457-6.726,3.114a6.542,6.542,0,0,0-.19,6.413c1.48,2.93,3.689,8.767-1.044,10.583a6.288,6.288,0,0,1-2.254.408,7.439,7.439,0,0,1-2.926-.62,18.7,18.7,0,0,0-6.978-1.649c-4.021,0-7.941,2.177-7.941,10.67,0,6.76-2.069,8.83-4.6,8.83s-5.516-2.058-7.375-3.575a9.992,9.992,0,0,0-6.273-2.282,9.146,9.146,0,0,0-1.379.1,7.881,7.881,0,0,0-3.357,1.3c-5.98,4.163-3.747,16.092.049,17.649a2.429,2.429,0,0,0,.939.18c.881,0,1.754-.4,2.836-.4a4.373,4.373,0,0,1,1.722.358,6.044,6.044,0,0,1,3.531,4.433,3.415,3.415,0,0,1-.215,1.991c-.662,1.391-2.215,1.579-5.143,2.609-3.064,1.078-4.6,1.617-5.505,2.753a5.948,5.948,0,0,0-.918,5.5,6.7,6.7,0,0,0,3.67,3.67c1.53.741,1.95.369,6.492,1.113,3.318.543,4.247.932,5.074,1.632,1.879,1.59,3.287,4.3.118,8.445-1.546,2.023-3.522,2.911-5.962,3.994-3.644,1.616-4.623,1.144-5.722,2.249-1.2,1.212-2.057,3.819,0,10.093,2.045,4.37,5.83,7.075,9.226,7.075a6.055,6.055,0,0,0,1.079-.1c3.859-.7,6.469-5.392,7.4-7.363a19.012,19.012,0,0,0,.825-2.147,5.1,5.1,0,0,1,3.875-3.524,5.5,5.5,0,0,1,1.12-.115,6.1,6.1,0,0,1,5.536,3.865,33.424,33.424,0,0,1,2.137,7.81c.485,3.394,2.252,4.482,4.081,4.482a6.42,6.42,0,0,0,4.177-1.73c1.17-1.17,4.581-5.327,7.85-5.327a4.2,4.2,0,0,1,3.521,2.173,6.031,6.031,0,0,1,.7,5.037c-.8,2.836-.8,8.079,9.028,10.045a16.226,16.226,0,0,0,3.168.344c9.994,0,6.925-12.272,6.925-12.272s-2.752-11.01,3.67-11.928a8.757,8.757,0,0,1,1.236-.09A8.536,8.536,0,0,1,120,156.322a4.465,4.465,0,0,0,3.571,1.837,4.026,4.026,0,0,0,1.5-.287c1.72-.688,2.867-2.523.573-7.111l-.533-1.068A6.43,6.43,0,0,1,127.927,141a3.934,3.934,0,0,1,1.643-.433,2.075,2.075,0,0,1,.665.1c1.846.615,5.755,6.593,10.065,6.593,2.119,0,4.334-1.442,6.451-5.675,6.423-12.846-8.258-13.763-8.258-13.763a19.389,19.389,0,0,1-3.121.242c-3.127,0-7.639-.743-8.807-4.83-1.835-6.423,7.34-9.176,7.34-9.176s8.258-4.587-4.587-8.258c0,0-12.846-5.505,0-14.68,10.019-7.157,2.175-14.872-3.938-14.873a5.091,5.091,0,0,0-4.32,2.027C117.423,83.367,113.208,85,109.789,85a10.287,10.287,0,0,1-2.492-.3,14.083,14.083,0,0,1-9.855-11.174,12.01,12.01,0,0,1,1.123-7.444c1.272-2.638,1.85-7.04-6.867-8.908a19.408,19.408,0,0,0-4.055-.476"/>
    <path id="Path_169" data-name="Path 169" d="M57.3,69.977a10.363,10.363,0,0,1-2.234-.257c-1.815-.45-5.255-2.118-5.272-5.21a5.01,5.01,0,0,1,1.56-3.534,5.36,5.36,0,0,1,3.576-1.664c2.165.037,3.912,2.06,4.843,3.94,1.1,2.224,1.3,4.555.48,5.666A3.666,3.666,0,0,1,57.3,69.977" fill="#b1d8ef"/>
    <path id="Path_170" data-name="Path 170" d="M54.934,59.006v.612h.052c1.971.033,3.625,1.969,4.516,3.769,1.035,2.092,1.248,4.341.507,5.349a3.39,3.39,0,0,1-2.706.934,10.227,10.227,0,0,1-2.159-.248c-1.736-.43-5.024-2.011-5.04-4.915a4.712,4.712,0,0,1,1.471-3.317,5.046,5.046,0,0,1,3.359-1.573Zm0,0a5.851,5.851,0,0,0-5.442,5.506c.018,3.26,3.512,5.012,5.505,5.5a10.722,10.722,0,0,0,2.306.266A3.883,3.883,0,0,0,60.5,69.1c1.9-2.586-1.279-10.021-5.5-10.093h-.063"/>
    <path id="Path_171" data-name="Path 171" d="M150,111.456c-3.007,0-6.1-1.476-6.612-3.157-.531-1.728,1.587-3.935,2.447-4.639a8.293,8.293,0,0,1,4.825-1.923,4.14,4.14,0,0,1,2.5.795,5.022,5.022,0,0,1,1.914,3.413,5.3,5.3,0,0,1-.839,3.856A5.176,5.176,0,0,1,150,111.456" fill="#b1d8ef"/>
    <path id="Path_172" data-name="Path 172" d="M150.66,102.043h0a3.837,3.837,0,0,1,2.321.736,4.725,4.725,0,0,1,1.793,3.209,5,5,0,0,1-.779,3.626A4.885,4.885,0,0,1,150,111.151c-2.887,0-5.84-1.375-6.32-2.941s1.534-3.643,2.35-4.315a7.987,7.987,0,0,1,4.63-1.852m0-.612a8.59,8.59,0,0,0-5.02,1.991c-.134.111-3.233,2.722-2.545,4.967.588,1.92,3.886,3.374,6.9,3.374a5.508,5.508,0,0,0,4.48-1.776,5.843,5.843,0,0,0-1.137-7.7,4.437,4.437,0,0,0-2.683-.854"/>
    <path id="Path_173" data-name="Path 173" d="M68.176,183.934a6.111,6.111,0,0,1-5.373-3.246c-.64-1.5-.253-3.5,1.061-5.488,1.516-2.3,3.86-3.964,5.573-3.964a2.308,2.308,0,0,1,.493.051c2.282.495,3.069,4.7,3.077,4.747.356,1.981.231,6.094-2.8,7.473a4.862,4.862,0,0,1-2.027.427" fill="#b1d8ef"/>
    <path id="Path_174" data-name="Path 174" d="M69.436,171.543h0a2.028,2.028,0,0,1,.428.044c1.731.375,2.637,3.376,2.841,4.5.342,1.9.234,5.839-2.629,7.141a4.574,4.574,0,0,1-1.9.4,5.784,5.784,0,0,1-5.091-3.062c-.6-1.4-.221-3.3,1.035-5.2,1.439-2.18,3.725-3.825,5.317-3.825m0-.613c-3.415,0-8.6,5.929-6.915,9.879a6.394,6.394,0,0,0,5.654,3.432,5.161,5.161,0,0,0,2.154-.455c3.186-1.447,3.369-5.64,2.978-7.807-.033-.184-.851-4.457-3.314-4.99a2.612,2.612,0,0,0-.557-.059"/>
    <path id="Path_175" data-name="Path 175" d="M50.409,86.227A1.529,1.529,0,1,1,51.938,84.7a1.531,1.531,0,0,1-1.529,1.529" fill="#b1d8ef"/>
    <path id="Path_176" data-name="Path 176" d="M50.409,83.475A1.223,1.223,0,1,1,49.186,84.7a1.225,1.225,0,0,1,1.223-1.223m0-.612A1.835,1.835,0,1,0,52.244,84.7a1.836,1.836,0,0,0-1.835-1.835"/>
    <path id="Path_177" data-name="Path 177" d="M116.472,165.136A1.529,1.529,0,1,1,118,163.607a1.531,1.531,0,0,1-1.529,1.529" fill="#b1d8ef"/>
    <path id="Path_178" data-name="Path 178" d="M116.472,162.384a1.223,1.223,0,1,1-1.223,1.223,1.225,1.225,0,0,1,1.223-1.223m0-.612a1.835,1.835,0,1,0,1.835,1.835,1.836,1.836,0,0,0-1.835-1.835"/>
    <path id="Path_179" data-name="Path 179" d="M31.14,138.527A1.529,1.529,0,1,1,32.67,137a1.531,1.531,0,0,1-1.53,1.529" fill="#b1d8ef"/>
    <path id="Path_180" data-name="Path 180" d="M31.141,135.775A1.223,1.223,0,1,1,29.918,137a1.225,1.225,0,0,1,1.223-1.223m0-.612A1.835,1.835,0,1,0,32.976,137a1.835,1.835,0,0,0-1.835-1.835"/>
    <path id="Path_181" data-name="Path 181" d="M110.05,76.134a1.529,1.529,0,1,1,1.529-1.529,1.531,1.531,0,0,1-1.529,1.529" fill="#b1d8ef"/>
    <path id="Path_182" data-name="Path 182" d="M110.05,73.382a1.223,1.223,0,1,1-1.223,1.223,1.225,1.225,0,0,1,1.223-1.223m0-.612a1.835,1.835,0,1,0,1.835,1.835,1.836,1.836,0,0,0-1.835-1.835"/>
  </g>
</svg>
