<svg id="jaune" xmlns="http://www.w3.org/2000/svg" xmlns:xlink="http://www.w3.org/1999/xlink" width="178.58" height="249.45" viewBox="0 0 178.58 249.45">
  <defs>
    <clipPath id="clip-path">
      <rect id="Rectangle_4" data-name="Rectangle 4" width="178.58" height="249.45" fill="none"/>
    </clipPath>
  </defs>
  <g id="Group_8" data-name="Group 8" clip-path="url(#clip-path)">
    <path id="Path_129" data-name="Path 129" d="M8.5,0H170.08a8.5,8.5,0,0,1,8.5,8.5V240.95a8.5,8.5,0,0,1-8.5,8.5H8.5a8.5,8.5,0,0,1-8.5-8.5V8.5A8.5,8.5,0,0,1,8.5,0" fill="#fff"/>
    <path id="Path_130" data-name="Path 130" d="M171.5,58.26V10.09a3.013,3.013,0,0,0-3.01-3.01H10.09a3,3,0,0,0-3,3.01V239.35a3,3,0,0,0,3,3.01h158.4a3.013,3.013,0,0,0,3.01-3.01V91.4m0-.01V58.29M29.01,44.95a.076.076,0,0,1,.02-.04.142.142,0,0,0-.02.06" fill="#fceef4"/>
    <path id="Path_131" data-name="Path 131" d="M105.383,180.1a15.976,15.976,0,0,1-3.1-.337c-4.161-.832-6.929-2.333-8.23-4.46a6.426,6.426,0,0,1-.538-5.161,6.362,6.362,0,0,0-.75-5.319,4.556,4.556,0,0,0-3.8-2.323c-2.991,0-5.945,3.151-7.532,4.844-.22.234-.407.433-.557.583a6.113,6.113,0,0,1-3.937,1.631c-2.059,0-3.354-1.449-3.745-4.191a33.994,33.994,0,0,0-2.16-7.89,6.449,6.449,0,0,0-5.848-4.076,5.883,5.883,0,0,0-1.19.122,5.422,5.422,0,0,0-4.129,3.749,18.4,18.4,0,0,1-.808,2.11c-.912,1.933-3.437,6.5-7.153,7.174a5.8,5.8,0,0,1-1.019.089c-3.41,0-6.994-2.765-8.919-6.879-1.594-4.868-1.621-8.148-.066-9.711a3.56,3.56,0,0,1,1.893-.881,22.386,22.386,0,0,0,3.726-1.3c2.4-1.067,4.481-1.987,6.094-4.1,3.363-4.4,1.764-7.273-.169-8.909-.862-.729-1.823-1.149-5.238-1.708-1.885-.309-3.053-.425-3.907-.51a6.145,6.145,0,0,1-2.492-.573,6.318,6.318,0,0,1-3.5-3.476,5.627,5.627,0,0,1,.861-5.183c.849-1.06,2.355-1.59,5.354-2.645.614-.216,1.167-.395,1.664-.555,1.925-.622,3.087-1,3.672-2.228a3.72,3.72,0,0,0,.245-2.18,6.412,6.412,0,0,0-3.735-4.7,4.711,4.711,0,0,0-1.854-.385,7.68,7.68,0,0,0-1.636.22,5.821,5.821,0,0,1-1.2.176,2.1,2.1,0,0,1-.811-.155c-1.639-.673-3.05-3.564-3.431-7.032-.489-4.435.8-8.183,3.447-10.025a7.554,7.554,0,0,1,3.215-1.24,8.9,8.9,0,0,1,1.327-.1,9.647,9.647,0,0,1,6.06,2.205c2.042,1.666,5.016,3.651,7.588,3.651,3.28,0,4.943-3.084,4.943-9.168,0-6.856,2.557-10.332,7.6-10.332a18.225,18.225,0,0,1,6.845,1.623,7.832,7.832,0,0,0,3.06.647A6.6,6.6,0,0,0,83.9,80.77a4.487,4.487,0,0,0,2.739-2.6c.987-2.557-.277-6.01-1.513-8.456a6.2,6.2,0,0,1,.173-6.079c1.239-1.962,3.406-2.956,6.44-2.956a19.2,19.2,0,0,1,3.984.468c3.7.794,6.032,2.116,6.92,3.929a5.179,5.179,0,0,1-.288,4.5,12.3,12.3,0,0,0-1.15,7.656,14.4,14.4,0,0,0,10.106,11.438,10.6,10.6,0,0,0,2.574.312c2.48,0,7.279-.892,11.546-6.866a4.779,4.779,0,0,1,4.045-1.885c3.5,0,7.146,2.487,8.126,5.543.938,2.93-.619,6.024-4.386,8.715-4.166,2.976-6.125,5.912-5.82,8.726.45,4.167,5.662,6.447,5.884,6.542,5.544,1.587,6.854,3.249,6.983,4.367.208,1.792-2.4,3.268-2.427,3.283s-9.406,2.9-7.5,9.565c.936,3.274,4.179,5.076,9.133,5.076a19.545,19.545,0,0,0,3.182-.248c-.018.009,6.4.459,8.675,4.421,1.295,2.251,1.032,5.231-.781,8.857-1.846,3.693-3.857,5.488-6.147,5.488-2.682,0-5.317-2.544-7.241-4.4a9.694,9.694,0,0,0-2.717-2.174,2.445,2.445,0,0,0-.773-.121,4.253,4.253,0,0,0-1.788.465,6.428,6.428,0,0,0-3.329,3.756,7.027,7.027,0,0,0,.357,5.4l.535,1.068c1.152,2.3,1.51,4.071,1.063,5.248a2.434,2.434,0,0,1-1.46,1.4,3.7,3.7,0,0,1-1.374.262,4.156,4.156,0,0,1-3.3-1.7,8.813,8.813,0,0,0-7.156-3.956,9.066,9.066,0,0,0-1.283.093,4.575,4.575,0,0,0-3.288,2.023c-2.338,3.478-.734,10.045-.664,10.323.015.061,1.5,6.191-1.151,9.588a6.507,6.507,0,0,1-5.445,2.263" fill="#edea80"/>
    <path id="Path_132" data-name="Path 132" d="M91.737,61.022h0a18.946,18.946,0,0,1,3.913.46c3.6.771,5.847,2.032,6.687,3.747a4.691,4.691,0,0,1-.289,4.2A12.631,12.631,0,0,0,100.87,77.3,14.745,14.745,0,0,0,111.226,89a10.94,10.94,0,0,0,2.657.322c2.546,0,7.467-.91,11.822-7.008a4.456,4.456,0,0,1,3.769-1.743c3.365,0,6.866,2.382,7.8,5.309.9,2.817-.57,5.7-4.259,8.334-4.274,3.053-6.279,6.094-5.961,9.039.472,4.362,5.858,6.718,6.087,6.816l.04.017.041.012c5.6,1.6,6.6,3.234,6.7,4.065.147,1.263-1.482,2.5-2.2,2.915-3.407,1.046-9.307,4.44-7.722,9.988.981,3.432,4.34,5.322,9.459,5.322a20.5,20.5,0,0,0,3.152-.238c.711.061,6.347.655,8.411,4.239,1.235,2.146.969,5.019-.79,8.539s-3.725,5.3-5.845,5.3c-2.544,0-5.122-2.49-7-4.307a9.8,9.8,0,0,0-2.846-2.252,2.785,2.785,0,0,0-.879-.138,4.59,4.59,0,0,0-1.933.5,6.763,6.763,0,0,0-3.5,3.952,7.359,7.359,0,0,0,.374,5.66l.534,1.067c1.093,2.187,1.456,3.908,1.05,4.977a2.079,2.079,0,0,1-1.269,1.2,3.347,3.347,0,0,1-1.249.238,3.809,3.809,0,0,1-3.023-1.558,9.142,9.142,0,0,0-7.43-4.094,9.473,9.473,0,0,0-1.332.1,4.9,4.9,0,0,0-3.52,2.169c-2.422,3.6-.782,10.311-.712,10.594.015.06,1.462,6.035-1.09,9.3a6.189,6.189,0,0,1-5.177,2.131,15.669,15.669,0,0,1-3.035-.33c-4.064-.813-6.758-2.261-8.007-4.3a6.1,6.1,0,0,1-.5-4.892,6.7,6.7,0,0,0-.795-5.6,4.873,4.873,0,0,0-4.082-2.471c-3.139,0-6.158,3.22-7.781,4.95-.216.231-.4.428-.549.576a5.744,5.744,0,0,1-3.7,1.532c-1.893,0-3.041-1.313-3.41-3.9a33.817,33.817,0,0,0-2.18-7.97,6.8,6.8,0,0,0-6.164-4.287,6.25,6.25,0,0,0-1.257.129,5.749,5.749,0,0,0-4.382,3.975,18.121,18.121,0,0,1-.794,2.071c-.694,1.471-3.246,6.324-6.907,6.985a5.393,5.393,0,0,1-.958.085c-3.271,0-6.72-2.67-8.594-6.648-1.553-4.753-1.6-7.9-.151-9.365a3.241,3.241,0,0,1,1.739-.793,22.551,22.551,0,0,0,3.777-1.315c2.447-1.085,4.56-2.023,6.226-4.2,3.71-4.854,1.455-7.956-.219-9.373-.912-.772-1.908-1.212-5.4-1.784-1.9-.311-3.07-.428-3.927-.513a5.805,5.805,0,0,1-2.378-.541,6.016,6.016,0,0,1-3.326-3.282,5.28,5.28,0,0,1,.807-4.86c.788-.984,2.263-1.5,5.2-2.537.611-.215,1.161-.392,1.656-.552,1.942-.628,3.226-1.043,3.874-2.4a4.076,4.076,0,0,0,.275-2.369c-.444-3.466-3.8-4.911-3.941-4.971a5.05,5.05,0,0,0-1.984-.411,7.926,7.926,0,0,0-1.707.228,5.667,5.667,0,0,1-1.129.168,1.727,1.727,0,0,1-.682-.13c-1.506-.617-2.861-3.459-3.224-6.757-.473-4.308.763-7.938,3.305-9.708A7.225,7.225,0,0,1,44.15,93.01a8.487,8.487,0,0,1,1.277-.1,9.3,9.3,0,0,1,5.844,2.129c2.085,1.7,5.131,3.728,7.8,3.728,3.5,0,5.281-3.2,5.281-9.508,0-3.708.768-6.42,2.283-8.061a6.467,6.467,0,0,1,4.98-1.932,17.928,17.928,0,0,1,6.71,1.6,8.157,8.157,0,0,0,3.194.675,6.936,6.936,0,0,0,2.5-.454,4.809,4.809,0,0,0,2.934-2.79c1.032-2.673-.261-6.223-1.527-8.731a5.864,5.864,0,0,1,.158-5.745c1.173-1.857,3.243-2.8,6.153-2.8m0-.678c-3.707,0-5.68,1.457-6.726,3.114a6.54,6.54,0,0,0-.19,6.413c1.48,2.93,3.689,8.767-1.045,10.583a6.282,6.282,0,0,1-2.253.408,7.439,7.439,0,0,1-2.926-.62,18.7,18.7,0,0,0-6.978-1.649c-4.021,0-7.941,2.176-7.941,10.67,0,6.76-2.069,8.83-4.6,8.83s-5.516-2.058-7.376-3.575a9.987,9.987,0,0,0-6.272-2.282,9.146,9.146,0,0,0-1.379.1,7.881,7.881,0,0,0-3.357,1.3c-5.98,4.163-3.747,16.092.049,17.649a2.429,2.429,0,0,0,.939.18c.881,0,1.754-.4,2.836-.4a4.373,4.373,0,0,1,1.722.358,6.044,6.044,0,0,1,3.531,4.433,3.415,3.415,0,0,1-.215,1.991c-.662,1.391-2.216,1.579-5.143,2.609-3.064,1.078-4.6,1.617-5.506,2.753a5.951,5.951,0,0,0-.917,5.505,6.7,6.7,0,0,0,3.67,3.67c1.53.741,1.95.369,6.492,1.113,3.318.543,4.247.932,5.074,1.632,1.879,1.59,3.287,4.3.118,8.445-1.546,2.023-3.522,2.911-5.962,3.994-3.644,1.616-4.623,1.144-5.722,2.249-1.2,1.212-2.057,3.819,0,10.093,2.044,4.37,5.83,7.075,9.226,7.075a6.055,6.055,0,0,0,1.079-.1c3.859-.7,6.469-5.392,7.4-7.363a19.014,19.014,0,0,0,.825-2.147,5.1,5.1,0,0,1,3.875-3.524,5.5,5.5,0,0,1,1.12-.115,6.1,6.1,0,0,1,5.536,3.865,33.423,33.423,0,0,1,2.137,7.81c.485,3.394,2.252,4.482,4.081,4.482a6.42,6.42,0,0,0,4.177-1.73c1.17-1.17,4.581-5.327,7.85-5.327a4.2,4.2,0,0,1,3.521,2.173,6.03,6.03,0,0,1,.7,5.037c-.8,2.836-.8,8.079,9.028,10.045a16.211,16.211,0,0,0,3.168.344c9.994,0,6.925-12.272,6.925-12.272s-2.753-11.01,3.67-11.928a8.755,8.755,0,0,1,1.236-.09,8.536,8.536,0,0,1,6.882,3.816,4.465,4.465,0,0,0,3.571,1.837,4.026,4.026,0,0,0,1.5-.287c1.72-.688,2.867-2.523.573-7.111l-.534-1.068a6.432,6.432,0,0,1,2.814-8.7,3.934,3.934,0,0,1,1.643-.433,2.079,2.079,0,0,1,.665.1c1.846.615,5.754,6.593,10.065,6.593,2.119,0,4.334-1.442,6.451-5.675,6.423-12.846-8.258-13.763-8.258-13.763a19.389,19.389,0,0,1-3.121.242c-3.127,0-7.639-.743-8.807-4.83-1.835-6.423,7.34-9.176,7.34-9.176s8.258-4.587-4.587-8.258c0,0-12.846-5.5,0-14.68,10.019-7.157,2.175-14.872-3.938-14.873a5.091,5.091,0,0,0-4.32,2.027c-3.637,5.092-7.852,6.724-11.271,6.724a10.287,10.287,0,0,1-2.492-.3,14.083,14.083,0,0,1-9.855-11.174,12,12,0,0,1,1.123-7.444c1.272-2.638,1.85-7.04-6.867-8.908a19.408,19.408,0,0,0-4.055-.476"/>
    <path id="Path_133" data-name="Path 133" d="M61.4,73.592a10.488,10.488,0,0,1-2.226-.256c-1.807-.448-5.23-2.106-5.248-5.178a4.984,4.984,0,0,1,1.551-3.511,5.326,5.326,0,0,1,3.554-1.654c2.15.036,3.886,2.05,4.812,3.922,1.1,2.214,1.294,4.53.483,5.632A3.634,3.634,0,0,1,61.4,73.592" fill="#edea80"/>
    <path id="Path_134" data-name="Path 134" d="M59.028,62.654v.678h.051c1.941.034,3.576,1.95,4.458,3.733,1.025,2.071,1.241,4.292.513,5.281a3.332,3.332,0,0,1-2.653.907,10.129,10.129,0,0,1-2.143-.246c-1.719-.426-4.975-1.987-4.991-4.851a4.651,4.651,0,0,1,1.453-3.271,4.976,4.976,0,0,1,3.312-1.553Zm0,0a5.851,5.851,0,0,0-5.442,5.506c.018,3.26,3.512,5.011,5.505,5.5a10.722,10.722,0,0,0,2.306.266,3.885,3.885,0,0,0,3.2-1.183c1.9-2.586-1.279-10.021-5.505-10.093h-.063"/>
    <path id="Path_135" data-name="Path 135" d="M154.094,115.072c-2.994,0-6.069-1.465-6.581-3.134-.628-2.049,2.406-4.581,2.437-4.606a8.275,8.275,0,0,1,4.8-1.914,4.1,4.1,0,0,1,2.483.789,4.986,4.986,0,0,1,1.9,3.39,5.273,5.273,0,0,1-.833,3.832,5.14,5.14,0,0,1-4.211,1.643" fill="#edea80"/>
    <path id="Path_136" data-name="Path 136" d="M154.754,105.757h0a3.766,3.766,0,0,1,2.281.723,4.655,4.655,0,0,1,1.768,3.165,4.929,4.929,0,0,1-.766,3.577,4.823,4.823,0,0,1-3.943,1.511c-2.811,0-5.793-1.38-6.257-2.894s1.522-3.581,2.328-4.245a7.92,7.92,0,0,1,4.589-1.837m0-.678a8.59,8.59,0,0,0-5.02,1.991c-.134.111-3.233,2.722-2.545,4.967.588,1.92,3.886,3.374,6.9,3.374a5.508,5.508,0,0,0,4.48-1.776,5.843,5.843,0,0,0-1.137-7.7,4.437,4.437,0,0,0-2.683-.854"/>
    <path id="Path_137" data-name="Path 137" d="M72.269,187.55a6.073,6.073,0,0,1-5.342-3.227c-.636-1.487-.25-3.476,1.058-5.458,1.51-2.287,3.842-3.947,5.545-3.947a2.293,2.293,0,0,1,.485.049c2.262.491,3.045,4.678,3.053,4.72.355,1.973.23,6.069-2.785,7.439a4.832,4.832,0,0,1-2.014.424" fill="#edea80"/>
    <path id="Path_138" data-name="Path 138" d="M73.53,175.256h0a1.956,1.956,0,0,1,.414.042c1.7.369,2.59,3.336,2.79,4.448.34,1.884.235,5.786-2.591,7.071a4.5,4.5,0,0,1-1.874.393,5.714,5.714,0,0,1-5.03-3.02c-.59-1.381-.215-3.254,1.029-5.138,1.428-2.164,3.69-3.8,5.262-3.8m0-.678c-3.415,0-8.6,5.929-6.915,9.878a6.392,6.392,0,0,0,5.654,3.432,5.175,5.175,0,0,0,2.154-.454c3.186-1.448,3.369-5.639,2.978-7.808-.033-.183-.851-4.456-3.314-4.99a2.612,2.612,0,0,0-.557-.058"/>
    <path id="Path_139" data-name="Path 139" d="M54.5,89.842a1.5,1.5,0,1,1,1.5-1.5,1.5,1.5,0,0,1-1.5,1.5" fill="#edea80"/>
    <path id="Path_140" data-name="Path 140" d="M54.5,87.189a1.157,1.157,0,1,1-1.157,1.157A1.158,1.158,0,0,1,54.5,87.189m0-.678a1.835,1.835,0,1,0,1.835,1.835A1.836,1.836,0,0,0,54.5,86.511"/>
    <path id="Path_141" data-name="Path 141" d="M120.566,168.751a1.5,1.5,0,1,1,1.5-1.5,1.5,1.5,0,0,1-1.5,1.5" fill="#edea80"/>
    <path id="Path_142" data-name="Path 142" d="M120.566,166.1a1.157,1.157,0,1,1-1.157,1.157,1.158,1.158,0,0,1,1.157-1.157m0-.678a1.835,1.835,0,1,0,1.835,1.835,1.835,1.835,0,0,0-1.835-1.835"/>
    <path id="Path_143" data-name="Path 143" d="M35.235,142.142a1.5,1.5,0,1,1,1.5-1.5,1.5,1.5,0,0,1-1.5,1.5" fill="#edea80"/>
    <path id="Path_144" data-name="Path 144" d="M35.235,139.489a1.157,1.157,0,1,1-1.157,1.157,1.158,1.158,0,0,1,1.157-1.157m0-.678a1.835,1.835,0,1,0,1.835,1.835,1.836,1.836,0,0,0-1.835-1.835"/>
    <path id="Path_145" data-name="Path 145" d="M114.143,79.749a1.5,1.5,0,1,1,1.5-1.5,1.5,1.5,0,0,1-1.5,1.5" fill="#edea80"/>
    <path id="Path_146" data-name="Path 146" d="M114.144,77.1a1.157,1.157,0,1,1-1.158,1.157,1.158,1.158,0,0,1,1.158-1.157m0-.678a1.835,1.835,0,1,0,1.835,1.835,1.835,1.835,0,0,0-1.835-1.835"/>
  </g>
</svg>
