<svg id="mauve" xmlns="http://www.w3.org/2000/svg" xmlns:xlink="http://www.w3.org/1999/xlink" width="178.58" height="249.45" viewBox="0 0 178.58 249.45">
  <defs>
    <clipPath id="clip-path">
      <rect id="Rectangle_7" data-name="Rectangle 7" width="178.58" height="249.45" fill="none"/>
    </clipPath>
  </defs>
  <g id="Group_14" data-name="Group 14" clip-path="url(#clip-path)">
    <path id="Path_183" data-name="Path 183" d="M8.5,0H170.08a8.5,8.5,0,0,1,8.5,8.5V240.95a8.5,8.5,0,0,1-8.5,8.5H8.5a8.5,8.5,0,0,1-8.5-8.5V8.5A8.5,8.5,0,0,1,8.5,0" fill="#fff"/>
    <path id="Path_184" data-name="Path 184" d="M171.5,58.26V10.09a3.013,3.013,0,0,0-3.01-3.01H10.09a3,3,0,0,0-3,3.01V239.35a3,3,0,0,0,3,3.01h158.4a3.013,3.013,0,0,0,3.01-3.01V91.4m0-.01V58.29M29.01,44.95a.076.076,0,0,1,.02-.04.142.142,0,0,0-.02.06" fill="#fceef4"/>
    <path id="Path_185" data-name="Path 185" d="M96.456,177.457a15.976,15.976,0,0,1-3.1-.337c-4.161-.832-6.929-2.333-8.23-4.46a6.427,6.427,0,0,1-.538-5.161,6.362,6.362,0,0,0-.75-5.319,4.556,4.556,0,0,0-3.8-2.323c-2.991,0-5.945,3.151-7.532,4.844-.22.234-.407.433-.557.583a6.116,6.116,0,0,1-3.937,1.631c-2.059,0-3.355-1.449-3.745-4.191a33.486,33.486,0,0,0-2.16-7.89,6.452,6.452,0,0,0-5.849-4.076,5.882,5.882,0,0,0-1.19.122,5.423,5.423,0,0,0-4.128,3.749,18.659,18.659,0,0,1-.809,2.109c-.912,1.934-3.437,6.5-7.153,7.175a5.8,5.8,0,0,1-1.019.089c-3.409,0-6.993-2.765-8.919-6.879-1.593-4.868-1.62-8.147-.066-9.711a3.564,3.564,0,0,1,1.893-.881,22.39,22.39,0,0,0,3.727-1.3c2.4-1.066,4.479-1.987,6.094-4.1,3.362-4.4,1.764-7.273-.169-8.91-.862-.729-1.823-1.149-5.239-1.708-1.885-.309-3.053-.425-3.907-.51a6.153,6.153,0,0,1-2.492-.573,6.315,6.315,0,0,1-3.5-3.476,5.626,5.626,0,0,1,.862-5.183c.848-1.06,2.353-1.589,5.35-2.644.615-.217,1.168-.4,1.665-.556,1.926-.622,3.088-1,3.674-2.228a3.738,3.738,0,0,0,.245-2.179,6.394,6.394,0,0,0-3.737-4.7,4.7,4.7,0,0,0-1.853-.385,7.688,7.688,0,0,0-1.636.22,5.8,5.8,0,0,1-1.2.176,2.1,2.1,0,0,1-.811-.155c-1.639-.673-3.05-3.565-3.432-7.033-.488-4.435.8-8.182,3.448-10.024a7.565,7.565,0,0,1,3.214-1.24,8.9,8.9,0,0,1,1.328-.1,9.652,9.652,0,0,1,6.06,2.205c2.042,1.666,5.016,3.651,7.588,3.651,3.28,0,4.943-3.084,4.943-9.168,0-6.856,2.557-10.332,7.6-10.332a18.225,18.225,0,0,1,6.845,1.623,7.832,7.832,0,0,0,3.06.647,6.6,6.6,0,0,0,2.374-.431,4.488,4.488,0,0,0,2.739-2.6c.987-2.557-.277-6.01-1.513-8.456a6.206,6.206,0,0,1,.174-6.079c1.239-1.962,3.4-2.956,6.44-2.956a19.2,19.2,0,0,1,3.984.468c3.7.794,6.032,2.116,6.92,3.929a5.179,5.179,0,0,1-.288,4.5,12.3,12.3,0,0,0-1.151,7.655,14.4,14.4,0,0,0,10.106,11.439,10.61,10.61,0,0,0,2.574.312c2.481,0,7.28-.892,11.547-6.866a4.779,4.779,0,0,1,4.045-1.885c3.5,0,7.146,2.487,8.126,5.543.938,2.93-.619,6.024-4.386,8.715-4.166,2.976-6.125,5.912-5.82,8.726.45,4.167,5.662,6.447,5.884,6.542,5.544,1.587,6.854,3.249,6.983,4.367.208,1.792-2.4,3.268-2.427,3.283s-9.406,2.9-7.5,9.565c.936,3.274,4.179,5.076,9.133,5.076a19.55,19.55,0,0,0,3.183-.248c-.018.009,6.4.459,8.675,4.421,1.294,2.25,1.032,5.23-.781,8.857-1.846,3.693-3.857,5.488-6.147,5.488-2.683,0-5.318-2.544-7.241-4.4a9.72,9.72,0,0,0-2.718-2.173,2.438,2.438,0,0,0-.772-.121,4.253,4.253,0,0,0-1.788.465,6.432,6.432,0,0,0-3.33,3.757,7.025,7.025,0,0,0,.358,5.4l.535,1.068c1.152,2.305,1.51,4.071,1.062,5.248a2.432,2.432,0,0,1-1.46,1.4,3.7,3.7,0,0,1-1.374.262,4.1,4.1,0,0,1-3.3-1.7,8.818,8.818,0,0,0-7.157-3.956,9.068,9.068,0,0,0-1.283.093,4.573,4.573,0,0,0-3.287,2.023c-2.339,3.478-.734,10.045-.664,10.323.015.061,1.5,6.191-1.151,9.588a6.508,6.508,0,0,1-5.445,2.263" fill="#af98e2"/>
    <path id="Path_186" data-name="Path 186" d="M82.81,58.374a18.946,18.946,0,0,1,3.913.46c3.6.771,5.847,2.032,6.687,3.747a4.691,4.691,0,0,1-.289,4.2,12.638,12.638,0,0,0-1.178,7.866,14.745,14.745,0,0,0,10.356,11.7,10.94,10.94,0,0,0,2.657.322c2.546,0,7.467-.91,11.822-7.008a4.456,4.456,0,0,1,3.769-1.743c3.365,0,6.866,2.382,7.8,5.309.9,2.817-.57,5.7-4.259,8.334-4.274,3.053-6.279,6.094-5.961,9.039.472,4.362,5.858,6.718,6.087,6.816l.04.017.041.012c5.6,1.6,6.6,3.234,6.7,4.065.147,1.263-1.482,2.5-2.2,2.915-3.407,1.046-9.307,4.44-7.721,9.988.98,3.432,4.339,5.322,9.458,5.322a20.5,20.5,0,0,0,3.152-.238c.711.061,6.347.655,8.411,4.239,1.235,2.146.969,5.019-.79,8.539s-3.725,5.3-5.845,5.3c-2.544,0-5.122-2.49-7-4.307a9.807,9.807,0,0,0-2.845-2.252,2.8,2.8,0,0,0-.88-.138,4.59,4.59,0,0,0-1.933.5,6.763,6.763,0,0,0-3.5,3.952,7.356,7.356,0,0,0,.375,5.659l.533,1.068c1.093,2.187,1.456,3.908,1.05,4.977a2.079,2.079,0,0,1-1.269,1.2,3.346,3.346,0,0,1-1.249.238,3.809,3.809,0,0,1-3.023-1.558,9.142,9.142,0,0,0-7.43-4.094,9.471,9.471,0,0,0-1.332.1,4.9,4.9,0,0,0-3.52,2.169c-2.422,3.6-.782,10.311-.712,10.594.015.06,1.462,6.035-1.09,9.3a6.189,6.189,0,0,1-5.177,2.131,15.668,15.668,0,0,1-3.035-.33c-4.064-.813-6.758-2.261-8.007-4.3a6.1,6.1,0,0,1-.5-4.892,6.7,6.7,0,0,0-.8-5.6,4.873,4.873,0,0,0-4.082-2.471c-3.138,0-6.158,3.22-7.78,4.95-.217.231-.4.428-.549.576a5.749,5.749,0,0,1-3.7,1.532c-1.893,0-3.041-1.313-3.41-3.9a33.817,33.817,0,0,0-2.18-7.97,6.8,6.8,0,0,0-6.164-4.287,6.25,6.25,0,0,0-1.257.129,5.749,5.749,0,0,0-4.382,3.975,18.119,18.119,0,0,1-.794,2.071c-.694,1.471-3.245,6.323-6.907,6.985a5.393,5.393,0,0,1-.958.085c-3.271,0-6.72-2.67-8.594-6.648-1.553-4.753-1.6-7.9-.151-9.365a3.241,3.241,0,0,1,1.74-.793,22.551,22.551,0,0,0,3.776-1.315c2.447-1.085,4.56-2.023,6.226-4.2,3.71-4.854,1.455-7.956-.219-9.373-.912-.772-1.908-1.212-5.4-1.784-1.9-.311-3.07-.428-3.927-.513a5.805,5.805,0,0,1-2.378-.541,6.016,6.016,0,0,1-3.326-3.282,5.28,5.28,0,0,1,.807-4.86c.788-.984,2.262-1.5,5.2-2.537.611-.215,1.161-.392,1.656-.552,1.942-.628,3.226-1.043,3.874-2.4a4.076,4.076,0,0,0,.275-2.369c-.444-3.466-3.8-4.911-3.941-4.971a5.05,5.05,0,0,0-1.984-.411,7.926,7.926,0,0,0-1.707.228,5.6,5.6,0,0,1-1.129.168,1.744,1.744,0,0,1-.682-.129c-1.506-.618-2.861-3.46-3.224-6.757-.473-4.309.763-7.939,3.305-9.709a7.225,7.225,0,0,1,3.072-1.182,8.488,8.488,0,0,1,1.277-.1,9.3,9.3,0,0,1,5.844,2.129c2.085,1.7,5.132,3.728,7.8,3.728,3.505,0,5.281-3.2,5.281-9.508,0-6.63,2.444-9.993,7.263-9.993a17.923,17.923,0,0,1,6.711,1.6,8.152,8.152,0,0,0,3.193.675,6.937,6.937,0,0,0,2.5-.454,4.807,4.807,0,0,0,2.934-2.79c1.032-2.673-.26-6.223-1.527-8.731a5.866,5.866,0,0,1,.158-5.745c1.173-1.857,3.243-2.8,6.153-2.8m0-.678c-3.707,0-5.68,1.457-6.726,3.114a6.542,6.542,0,0,0-.19,6.413c1.48,2.93,3.689,8.767-1.044,10.583a6.288,6.288,0,0,1-2.254.408,7.439,7.439,0,0,1-2.926-.62,18.7,18.7,0,0,0-6.978-1.649c-4.021,0-7.941,2.177-7.941,10.67,0,6.76-2.069,8.83-4.6,8.83s-5.516-2.058-7.375-3.575A9.992,9.992,0,0,0,36.5,89.588a9.146,9.146,0,0,0-1.379.1,7.881,7.881,0,0,0-3.357,1.3c-5.98,4.163-3.747,16.092.049,17.649a2.429,2.429,0,0,0,.939.18c.881,0,1.754-.4,2.836-.4a4.373,4.373,0,0,1,1.722.358,6.044,6.044,0,0,1,3.531,4.433,3.415,3.415,0,0,1-.215,1.991c-.662,1.391-2.215,1.579-5.143,2.609-3.064,1.078-4.6,1.617-5.505,2.753a5.948,5.948,0,0,0-.918,5.5,6.7,6.7,0,0,0,3.67,3.67c1.53.741,1.95.369,6.492,1.113,3.318.543,4.247.932,5.074,1.632,1.879,1.59,3.287,4.3.118,8.445-1.546,2.023-3.522,2.911-5.962,3.994-3.644,1.616-4.623,1.144-5.722,2.249-1.2,1.212-2.057,3.819,0,10.093,2.045,4.37,5.83,7.075,9.226,7.075a6.055,6.055,0,0,0,1.079-.1c3.859-.7,6.469-5.392,7.4-7.363a19.012,19.012,0,0,0,.825-2.147,5.1,5.1,0,0,1,3.875-3.524,5.5,5.5,0,0,1,1.12-.115,6.1,6.1,0,0,1,5.536,3.865,33.423,33.423,0,0,1,2.137,7.81c.485,3.394,2.252,4.482,4.081,4.482a6.42,6.42,0,0,0,4.177-1.73c1.17-1.17,4.581-5.327,7.85-5.327a4.2,4.2,0,0,1,3.521,2.173,6.031,6.031,0,0,1,.7,5.037c-.8,2.836-.8,8.079,9.028,10.045a16.226,16.226,0,0,0,3.168.344c9.994,0,6.925-12.272,6.925-12.272s-2.752-11.01,3.67-11.928a8.757,8.757,0,0,1,1.236-.09,8.536,8.536,0,0,1,6.882,3.816,4.465,4.465,0,0,0,3.571,1.837,4.026,4.026,0,0,0,1.5-.287c1.72-.688,2.867-2.523.573-7.111l-.533-1.068A6.43,6.43,0,0,1,123.094,142a3.934,3.934,0,0,1,1.643-.433,2.075,2.075,0,0,1,.665.1c1.846.615,5.755,6.593,10.065,6.593,2.119,0,4.334-1.442,6.451-5.675,6.423-12.846-8.258-13.763-8.258-13.763a19.389,19.389,0,0,1-3.121.242c-3.127,0-7.639-.743-8.807-4.83-1.835-6.423,7.34-9.176,7.34-9.176s8.258-4.587-4.587-8.258c0,0-12.846-5.505,0-14.68,10.019-7.157,2.175-14.872-3.938-14.873a5.091,5.091,0,0,0-4.32,2.027C112.59,84.367,108.375,86,104.956,86a10.287,10.287,0,0,1-2.492-.3,14.083,14.083,0,0,1-9.855-11.174,12.01,12.01,0,0,1,1.123-7.444c1.272-2.638,1.85-7.04-6.867-8.908A19.408,19.408,0,0,0,82.81,57.7"/>
    <path id="Path_187" data-name="Path 187" d="M52.47,70.944a10.4,10.4,0,0,1-2.226-.256C48.438,70.24,45.015,68.582,45,65.51A4.988,4.988,0,0,1,46.548,62,5.322,5.322,0,0,1,50.1,60.345c2.15.036,3.886,2.049,4.812,3.921,1.1,2.214,1.294,4.53.483,5.633a3.632,3.632,0,0,1-2.926,1.045" fill="#af98e2"/>
    <path id="Path_188" data-name="Path 188" d="M50.1,60.006v.678h.051c1.941.034,3.576,1.95,4.458,3.733,1.025,2.071,1.241,4.292.513,5.281a3.332,3.332,0,0,1-2.653.907,10.129,10.129,0,0,1-2.143-.246c-1.719-.426-4.975-1.987-4.991-4.851a4.651,4.651,0,0,1,1.453-3.271A4.976,4.976,0,0,1,50.1,60.684Zm0,0a5.851,5.851,0,0,0-5.442,5.506c.018,3.26,3.512,5.012,5.505,5.5a10.722,10.722,0,0,0,2.306.266,3.883,3.883,0,0,0,3.2-1.183c1.9-2.586-1.279-10.021-5.5-10.093H50.1"/>
    <path id="Path_189" data-name="Path 189" d="M145.167,112.424c-2.994,0-6.069-1.465-6.581-3.134-.525-1.712,1.581-3.9,2.436-4.605a8.275,8.275,0,0,1,4.8-1.915,4.1,4.1,0,0,1,2.483.789,4.986,4.986,0,0,1,1.9,3.39,5.273,5.273,0,0,1-.833,3.832,5.141,5.141,0,0,1-4.211,1.643" fill="#af98e2"/>
    <path id="Path_190" data-name="Path 190" d="M145.827,103.109h0a3.769,3.769,0,0,1,2.282.723A4.658,4.658,0,0,1,149.876,107a4.929,4.929,0,0,1-.766,3.577,4.822,4.822,0,0,1-3.943,1.511c-2.81,0-5.793-1.38-6.257-2.894s1.522-3.581,2.328-4.245a7.92,7.92,0,0,1,4.589-1.837m0-.678a8.59,8.59,0,0,0-5.02,1.991c-.134.111-3.233,2.722-2.545,4.967.588,1.92,3.886,3.374,6.905,3.374a5.508,5.508,0,0,0,4.48-1.776,5.843,5.843,0,0,0-1.137-7.7,4.437,4.437,0,0,0-2.683-.854"/>
    <path id="Path_191" data-name="Path 191" d="M63.342,184.9A6.075,6.075,0,0,1,58,181.675c-.636-1.487-.249-3.476,1.059-5.458,1.51-2.287,3.842-3.947,5.545-3.947a2.291,2.291,0,0,1,.485.049c2.262.491,3.045,4.678,3.053,4.72.355,1.973.23,6.069-2.785,7.439a4.831,4.831,0,0,1-2.014.424" fill="#af98e2"/>
    <path id="Path_192" data-name="Path 192" d="M64.6,172.608h0a1.956,1.956,0,0,1,.414.042c1.7.369,2.589,3.337,2.79,4.449.34,1.883.235,5.785-2.591,7.071a4.511,4.511,0,0,1-1.874.393,5.716,5.716,0,0,1-5.03-3.02c-.59-1.382-.215-3.255,1.029-5.138,1.428-2.164,3.69-3.8,5.262-3.8m0-.678c-3.415,0-8.6,5.929-6.915,9.879a6.394,6.394,0,0,0,5.654,3.432,5.161,5.161,0,0,0,2.154-.455c3.186-1.447,3.369-5.64,2.978-7.807-.033-.184-.851-4.457-3.314-4.99a2.612,2.612,0,0,0-.557-.059"/>
    <path id="Path_193" data-name="Path 193" d="M45.576,87.194a1.5,1.5,0,1,1,1.5-1.5,1.5,1.5,0,0,1-1.5,1.5" fill="#af98e2"/>
    <path id="Path_194" data-name="Path 194" d="M45.576,84.541A1.157,1.157,0,1,1,44.419,85.7a1.158,1.158,0,0,1,1.157-1.157m0-.678A1.835,1.835,0,1,0,47.411,85.7a1.836,1.836,0,0,0-1.835-1.835"/>
    <path id="Path_195" data-name="Path 195" d="M111.639,166.1a1.5,1.5,0,1,1,1.5-1.5,1.5,1.5,0,0,1-1.5,1.5" fill="#af98e2"/>
    <path id="Path_196" data-name="Path 196" d="M111.639,163.45a1.157,1.157,0,1,1-1.157,1.157,1.158,1.158,0,0,1,1.157-1.157m0-.678a1.835,1.835,0,1,0,1.835,1.835,1.836,1.836,0,0,0-1.835-1.835"/>
    <path id="Path_197" data-name="Path 197" d="M26.307,139.494a1.5,1.5,0,1,1,1.5-1.5,1.5,1.5,0,0,1-1.5,1.5" fill="#af98e2"/>
    <path id="Path_198" data-name="Path 198" d="M26.308,136.841A1.157,1.157,0,1,1,25.151,138a1.158,1.158,0,0,1,1.157-1.157m0-.678A1.835,1.835,0,1,0,28.143,138a1.836,1.836,0,0,0-1.835-1.835"/>
    <path id="Path_199" data-name="Path 199" d="M105.216,77.1a1.5,1.5,0,1,1,1.5-1.5,1.5,1.5,0,0,1-1.5,1.5" fill="#af98e2"/>
    <path id="Path_200" data-name="Path 200" d="M105.216,74.448a1.157,1.157,0,1,1-1.157,1.157,1.158,1.158,0,0,1,1.157-1.157m0-.678a1.835,1.835,0,1,0,1.835,1.835,1.836,1.836,0,0,0-1.835-1.835"/>
  </g>
</svg>
