<svg id="rouge" xmlns="http://www.w3.org/2000/svg" xmlns:xlink="http://www.w3.org/1999/xlink" width="178.58" height="249.45" viewBox="0 0 178.58 249.45">
  <defs>
    <clipPath id="clip-path">
      <rect id="Rectangle_3" data-name="Rectangle 3" width="178.58" height="249.45" fill="none"/>
    </clipPath>
  </defs>
  <g id="Group_6" data-name="Group 6" clip-path="url(#clip-path)">
    <path id="Path_111" data-name="Path 111" d="M8.5,0H170.08a8.5,8.5,0,0,1,8.5,8.5V240.95a8.5,8.5,0,0,1-8.5,8.5H8.5a8.5,8.5,0,0,1-8.5-8.5V8.5A8.5,8.5,0,0,1,8.5,0" fill="#fff"/>
    <path id="Path_112" data-name="Path 112" d="M171.5,58.26V10.09a3.013,3.013,0,0,0-3.01-3.01H10.09a3,3,0,0,0-3,3.01V239.35a3,3,0,0,0,3,3.01h158.4a3.013,3.013,0,0,0,3.01-3.01V91.4m0-.01V58.29M29.01,44.95a.076.076,0,0,1,.02-.04.142.142,0,0,0-.02.06" fill="#fceef4"/>
    <path id="Path_113" data-name="Path 113" d="M101.192,179.713a15.976,15.976,0,0,1-3.1-.337c-4.16-.832-6.928-2.332-8.229-4.459a6.426,6.426,0,0,1-.539-5.162,6.365,6.365,0,0,0-.749-5.32,4.557,4.557,0,0,0-3.8-2.322c-2.991,0-5.945,3.15-7.532,4.843-.221.234-.408.434-.558.584a6.113,6.113,0,0,1-3.937,1.631c-2.059,0-3.354-1.45-3.745-4.192a33.487,33.487,0,0,0-2.159-7.89,6.451,6.451,0,0,0-5.849-4.075,5.882,5.882,0,0,0-1.19.122,5.422,5.422,0,0,0-4.129,3.749,18.389,18.389,0,0,1-.808,2.109c-.913,1.933-3.437,6.5-7.153,7.174a5.705,5.705,0,0,1-1.019.09c-3.41,0-6.994-2.765-8.919-6.879-1.593-4.868-1.62-8.148-.066-9.711a3.572,3.572,0,0,1,1.893-.882,22.262,22.262,0,0,0,3.726-1.3c2.4-1.067,4.48-1.987,6.094-4.1,3.363-4.4,1.764-7.273-.169-8.909-.862-.729-1.823-1.149-5.238-1.708-1.885-.309-3.053-.425-3.906-.51a6.133,6.133,0,0,1-2.493-.573,6.325,6.325,0,0,1-3.5-3.477,5.63,5.63,0,0,1,.861-5.182c.85-1.06,2.355-1.59,5.354-2.645.614-.216,1.167-.4,1.664-.555,1.925-.622,3.087-1,3.673-2.228a3.725,3.725,0,0,0,.244-2.18c-.417-3.26-3.6-4.644-3.735-4.7a4.689,4.689,0,0,0-1.853-.385,7.68,7.68,0,0,0-1.637.22,5.8,5.8,0,0,1-1.2.176,2.1,2.1,0,0,1-.811-.155c-1.639-.673-3.051-3.566-3.432-7.035-.487-4.434.8-8.18,3.448-10.022a7.555,7.555,0,0,1,3.214-1.24,8.914,8.914,0,0,1,1.328-.1,9.645,9.645,0,0,1,6.059,2.205c2.042,1.666,5.016,3.651,7.588,3.651h0c3.28,0,4.943-3.085,4.943-9.168,0-6.856,2.557-10.332,7.6-10.332a18.249,18.249,0,0,1,6.845,1.622,7.816,7.816,0,0,0,3.06.648,6.6,6.6,0,0,0,2.375-.431,4.49,4.49,0,0,0,2.739-2.6c.987-2.557-.277-6.01-1.513-8.456a6.208,6.208,0,0,1,.174-6.08c1.238-1.961,3.4-2.955,6.439-2.955a19.213,19.213,0,0,1,3.984.468c3.7.793,6.032,2.115,6.92,3.928a5.184,5.184,0,0,1-.287,4.5,12.3,12.3,0,0,0-1.151,7.654,14.4,14.4,0,0,0,10.106,11.439,10.6,10.6,0,0,0,2.574.312c2.48,0,7.28-.892,11.547-6.866a4.778,4.778,0,0,1,4.044-1.885c3.5,0,7.147,2.487,8.127,5.543.938,2.93-.619,6.024-4.386,8.714-4.166,2.977-6.125,5.913-5.82,8.727.45,4.167,5.662,6.446,5.884,6.541,5.544,1.587,6.854,3.25,6.983,4.368.207,1.792-2.4,3.268-2.428,3.283s-9.405,2.9-7.5,9.565c.936,3.273,4.179,5.076,9.133,5.076a19.545,19.545,0,0,0,3.182-.248c-.018.009,6.4.459,8.675,4.421,1.295,2.251,1.032,5.231-.781,8.857-1.846,3.693-3.857,5.488-6.147,5.488-2.682,0-5.317-2.544-7.241-4.4a9.732,9.732,0,0,0-2.717-2.174,2.444,2.444,0,0,0-.773-.12,4.249,4.249,0,0,0-1.788.465,6.433,6.433,0,0,0-3.329,3.757,7.018,7.018,0,0,0,.358,5.4l.534,1.068c1.153,2.307,1.51,4.073,1.063,5.25a2.431,2.431,0,0,1-1.46,1.4,3.686,3.686,0,0,1-1.375.262,4.1,4.1,0,0,1-3.3-1.7,8.813,8.813,0,0,0-7.156-3.956,9.066,9.066,0,0,0-1.283.093,4.573,4.573,0,0,0-3.287,2.023c-2.339,3.477-.734,10.045-.664,10.323.015.061,1.5,6.191-1.151,9.588a6.51,6.51,0,0,1-5.446,2.263" fill="#ed5f5f"/>
    <path id="Path_114" data-name="Path 114" d="M87.546,60.63a18.938,18.938,0,0,1,3.913.46c3.6.771,5.847,2.032,6.687,3.747a4.691,4.691,0,0,1-.289,4.2,12.638,12.638,0,0,0-1.178,7.866,14.745,14.745,0,0,0,10.356,11.7,10.934,10.934,0,0,0,2.657.322c2.546,0,7.467-.91,11.822-7.008a4.456,4.456,0,0,1,3.769-1.743c3.365,0,6.866,2.382,7.8,5.309.9,2.817-.57,5.7-4.259,8.334-4.274,3.053-6.279,6.094-5.961,9.039.472,4.362,5.858,6.718,6.087,6.816l.04.017.041.012c5.6,1.6,6.6,3.234,6.7,4.065.147,1.263-1.482,2.5-2.2,2.915-3.407,1.046-9.307,4.44-7.721,9.988.98,3.432,4.339,5.322,9.458,5.322a20.5,20.5,0,0,0,3.152-.238c.711.061,6.347.655,8.411,4.239,1.235,2.146.969,5.019-.79,8.539s-3.725,5.3-5.845,5.3c-2.544,0-5.122-2.49-7.005-4.307a9.806,9.806,0,0,0-2.845-2.252,2.767,2.767,0,0,0-.88-.138,4.59,4.59,0,0,0-1.933.5,6.763,6.763,0,0,0-3.5,3.952,7.356,7.356,0,0,0,.375,5.659l.533,1.068c1.093,2.187,1.456,3.908,1.05,4.977a2.079,2.079,0,0,1-1.269,1.2,3.346,3.346,0,0,1-1.249.238,3.809,3.809,0,0,1-3.023-1.558,9.142,9.142,0,0,0-7.43-4.094,9.473,9.473,0,0,0-1.332.1,4.9,4.9,0,0,0-3.52,2.169c-2.422,3.6-.782,10.311-.712,10.594.015.06,1.462,6.035-1.09,9.3a6.189,6.189,0,0,1-5.177,2.131,15.669,15.669,0,0,1-3.035-.33c-4.064-.813-6.758-2.261-8.007-4.3a6.1,6.1,0,0,1-.5-4.892,6.7,6.7,0,0,0-.8-5.6,4.873,4.873,0,0,0-4.082-2.471c-3.139,0-6.158,3.22-7.781,4.95-.216.231-.4.428-.549.576a5.744,5.744,0,0,1-3.7,1.532c-1.893,0-3.041-1.313-3.41-3.9a33.817,33.817,0,0,0-2.18-7.97,6.8,6.8,0,0,0-6.164-4.287,6.25,6.25,0,0,0-1.257.129,5.749,5.749,0,0,0-4.382,3.975,18.122,18.122,0,0,1-.794,2.071c-.694,1.471-3.245,6.323-6.907,6.985a5.393,5.393,0,0,1-.958.084c-3.271,0-6.72-2.669-8.6-6.647-1.552-4.753-1.6-7.9-.15-9.365a3.241,3.241,0,0,1,1.739-.793,22.52,22.52,0,0,0,3.777-1.315c2.447-1.085,4.56-2.023,6.226-4.2,3.71-4.854,1.455-7.956-.219-9.373-.912-.772-1.908-1.212-5.4-1.784-1.9-.311-3.07-.428-3.927-.513a5.814,5.814,0,0,1-2.379-.541,6.017,6.017,0,0,1-3.324-3.282,5.277,5.277,0,0,1,.806-4.86c.788-.984,2.262-1.5,5.2-2.537.611-.215,1.161-.392,1.655-.552,1.943-.628,3.227-1.043,3.875-2.4a4.076,4.076,0,0,0,.275-2.369c-.444-3.466-3.8-4.911-3.941-4.971A5.05,5.05,0,0,0,40.324,110a7.926,7.926,0,0,0-1.707.228,5.666,5.666,0,0,1-1.129.168,1.727,1.727,0,0,1-.682-.13c-1.506-.617-2.861-3.459-3.224-6.757-.473-4.308.763-7.938,3.305-9.708a7.225,7.225,0,0,1,3.072-1.182,8.489,8.489,0,0,1,1.277-.1,9.3,9.3,0,0,1,5.844,2.129c2.085,1.7,5.132,3.727,7.8,3.727,3.505,0,5.281-3.2,5.281-9.507,0-3.708.768-6.42,2.283-8.061a6.467,6.467,0,0,1,4.98-1.932,17.938,17.938,0,0,1,6.711,1.6,8.17,8.17,0,0,0,3.193.675,6.936,6.936,0,0,0,2.5-.454,4.807,4.807,0,0,0,2.934-2.79c1.032-2.673-.26-6.223-1.527-8.731a5.866,5.866,0,0,1,.158-5.746c1.173-1.856,3.243-2.8,6.153-2.8m0-.678c-3.707,0-5.68,1.457-6.726,3.114a6.54,6.54,0,0,0-.19,6.413c1.48,2.93,3.689,8.767-1.044,10.583a6.288,6.288,0,0,1-2.254.408,7.439,7.439,0,0,1-2.926-.62A18.7,18.7,0,0,0,67.428,78.2c-4.021,0-7.941,2.176-7.941,10.67,0,6.76-2.069,8.83-4.6,8.83s-5.516-2.058-7.375-3.575a9.992,9.992,0,0,0-6.273-2.282,9.146,9.146,0,0,0-1.379.1,7.881,7.881,0,0,0-3.357,1.3c-5.98,4.163-3.747,16.092.049,17.649a2.429,2.429,0,0,0,.939.18c.881,0,1.754-.4,2.836-.4a4.373,4.373,0,0,1,1.722.358,6.044,6.044,0,0,1,3.531,4.433,3.411,3.411,0,0,1-.215,1.99c-.662,1.392-2.215,1.58-5.143,2.61-3.064,1.078-4.6,1.617-5.506,2.753a5.951,5.951,0,0,0-.917,5.505,6.7,6.7,0,0,0,3.67,3.67c1.53.741,1.95.369,6.492,1.113,3.318.543,4.247.932,5.074,1.632,1.879,1.59,3.287,4.3.118,8.445-1.546,2.023-3.522,2.911-5.962,3.994-3.644,1.616-4.623,1.144-5.722,2.249-1.2,1.212-2.057,3.819,0,10.093,2.044,4.37,5.83,7.075,9.226,7.075a6.055,6.055,0,0,0,1.079-.1c3.859-.7,6.469-5.392,7.4-7.363a19.013,19.013,0,0,0,.825-2.147,5.1,5.1,0,0,1,3.875-3.524,5.5,5.5,0,0,1,1.12-.115,6.1,6.1,0,0,1,5.536,3.865,33.424,33.424,0,0,1,2.137,7.81c.485,3.394,2.252,4.482,4.081,4.482a6.42,6.42,0,0,0,4.177-1.73c1.17-1.17,4.581-5.327,7.85-5.327a4.2,4.2,0,0,1,3.521,2.173,6.03,6.03,0,0,1,.7,5.037c-.8,2.836-.8,8.079,9.028,10.045a16.21,16.21,0,0,0,3.168.344c9.994,0,6.925-12.272,6.925-12.272s-2.752-11.01,3.67-11.928a8.755,8.755,0,0,1,1.236-.09,8.536,8.536,0,0,1,6.882,3.816,4.465,4.465,0,0,0,3.571,1.837,4.026,4.026,0,0,0,1.5-.287c1.72-.688,2.867-2.523.573-7.111l-.533-1.068a6.43,6.43,0,0,1,2.813-8.7,3.934,3.934,0,0,1,1.643-.433,2.075,2.075,0,0,1,.665.1c1.846.615,5.755,6.593,10.065,6.593,2.119,0,4.334-1.442,6.451-5.675,6.423-12.846-8.258-13.764-8.258-13.764a19.312,19.312,0,0,1-3.121.243c-3.127,0-7.639-.743-8.807-4.83-1.835-6.423,7.34-9.176,7.34-9.176s8.258-4.587-4.587-8.258c0,0-12.846-5.5,0-14.68C139.24,87.22,131.4,79.5,125.283,79.5a5.091,5.091,0,0,0-4.32,2.027c-3.637,5.092-7.852,6.724-11.271,6.724a10.288,10.288,0,0,1-2.492-.3A14.083,14.083,0,0,1,97.345,76.78a12.01,12.01,0,0,1,1.123-7.444c1.272-2.638,1.85-7.04-6.867-8.908a19.408,19.408,0,0,0-4.055-.476"/>
    <path id="Path_115" data-name="Path 115" d="M57.207,73.2a10.39,10.39,0,0,1-2.225-.256c-1.808-.448-5.231-2.105-5.249-5.178a4.985,4.985,0,0,1,1.552-3.512A5.324,5.324,0,0,1,54.838,62.6c2.15.036,3.886,2.05,4.812,3.922,1.1,2.214,1.294,4.529.483,5.631A3.635,3.635,0,0,1,57.207,73.2" fill="#ed5f5f"/>
    <path id="Path_116" data-name="Path 116" d="M54.837,62.262v.678h.051c1.941.034,3.576,1.95,4.458,3.733,1.025,2.071,1.241,4.292.513,5.281a3.332,3.332,0,0,1-2.653.907,10.053,10.053,0,0,1-2.143-.246c-1.719-.426-4.975-1.987-4.991-4.851a4.651,4.651,0,0,1,1.453-3.271,4.976,4.976,0,0,1,3.312-1.553Zm0,0A5.851,5.851,0,0,0,49.4,67.768c.018,3.26,3.512,5.012,5.505,5.505a10.722,10.722,0,0,0,2.306.266,3.885,3.885,0,0,0,3.2-1.183c1.9-2.586-1.279-10.021-5.5-10.093h-.063"/>
    <path id="Path_117" data-name="Path 117" d="M149.9,114.679c-2.994,0-6.069-1.464-6.581-3.134-.628-2.049,2.406-4.581,2.437-4.606a8.284,8.284,0,0,1,4.8-1.914,4.1,4.1,0,0,1,2.482.788,4.993,4.993,0,0,1,1.9,3.393,5.268,5.268,0,0,1-.833,3.83,5.144,5.144,0,0,1-4.212,1.643" fill="#ed5f5f"/>
    <path id="Path_118" data-name="Path 118" d="M150.564,105.364h0a3.765,3.765,0,0,1,2.28.723,4.656,4.656,0,0,1,1.769,3.165,4.924,4.924,0,0,1-.767,3.577,4.82,4.82,0,0,1-3.942,1.511c-2.81,0-5.793-1.379-6.258-2.894s1.523-3.581,2.329-4.245a7.914,7.914,0,0,1,4.589-1.837m0-.678a8.585,8.585,0,0,0-5.02,1.991c-.134.111-3.233,2.722-2.545,4.967.588,1.92,3.886,3.374,6.905,3.374a5.51,5.51,0,0,0,4.479-1.775,5.843,5.843,0,0,0-1.136-7.7,4.437,4.437,0,0,0-2.683-.854"/>
    <path id="Path_119" data-name="Path 119" d="M68.078,187.157a6.075,6.075,0,0,1-5.342-3.226c-.636-1.487-.25-3.477,1.058-5.459,1.51-2.287,3.842-3.947,5.545-3.947a2.359,2.359,0,0,1,.485.049c2.264.491,3.046,4.678,3.054,4.721.355,1.973.23,6.068-2.786,7.438a4.831,4.831,0,0,1-2.014.424" fill="#ed5f5f"/>
    <path id="Path_120" data-name="Path 120" d="M69.339,174.864h0a1.956,1.956,0,0,1,.414.042c1.695.368,2.589,3.336,2.79,4.448.34,1.884.235,5.786-2.591,7.071a4.5,4.5,0,0,1-1.874.393,5.714,5.714,0,0,1-5.03-3.02c-.59-1.381-.215-3.254,1.029-5.138,1.428-2.164,3.69-3.8,5.262-3.8m0-.678c-3.415,0-8.6,5.929-6.915,9.878a6.392,6.392,0,0,0,5.654,3.432,5.175,5.175,0,0,0,2.154-.454c3.186-1.448,3.369-5.639,2.978-7.808-.033-.183-.851-4.456-3.314-4.99a2.612,2.612,0,0,0-.557-.058"/>
    <path id="Path_121" data-name="Path 121" d="M50.312,89.45a1.5,1.5,0,1,1,1.5-1.5,1.5,1.5,0,0,1-1.5,1.5" fill="#ed5f5f"/>
    <path id="Path_122" data-name="Path 122" d="M50.312,86.8a1.157,1.157,0,1,1-1.157,1.157A1.158,1.158,0,0,1,50.312,86.8m0-.678a1.835,1.835,0,1,0,1.835,1.835,1.836,1.836,0,0,0-1.835-1.835"/>
    <path id="Path_123" data-name="Path 123" d="M116.376,168.359a1.5,1.5,0,1,1,1.5-1.5,1.5,1.5,0,0,1-1.5,1.5" fill="#ed5f5f"/>
    <path id="Path_124" data-name="Path 124" d="M116.376,165.705a1.157,1.157,0,1,1-1.158,1.157,1.159,1.159,0,0,1,1.158-1.157m0-.678a1.835,1.835,0,1,0,1.835,1.835,1.836,1.836,0,0,0-1.835-1.835"/>
    <path id="Path_125" data-name="Path 125" d="M31.044,141.75a1.5,1.5,0,1,1,1.5-1.5,1.5,1.5,0,0,1-1.5,1.5" fill="#ed5f5f"/>
    <path id="Path_126" data-name="Path 126" d="M31.044,139.1a1.157,1.157,0,1,1-1.157,1.157,1.158,1.158,0,0,1,1.157-1.157m0-.678a1.835,1.835,0,1,0,1.835,1.835,1.835,1.835,0,0,0-1.835-1.835"/>
    <path id="Path_127" data-name="Path 127" d="M109.953,79.357a1.5,1.5,0,1,1,1.5-1.5,1.5,1.5,0,0,1-1.5,1.5" fill="#ed5f5f"/>
    <path id="Path_128" data-name="Path 128" d="M109.953,76.7a1.157,1.157,0,1,1-1.157,1.157,1.158,1.158,0,0,1,1.157-1.157m0-.678a1.835,1.835,0,1,0,1.835,1.835,1.835,1.835,0,0,0-1.835-1.835"/>
  </g>
</svg>
