<?xml version="1.0" encoding="UTF-8"?><svg id="Layer_2" xmlns="http://www.w3.org/2000/svg" width="339.28" height="493.3" viewBox="0 0 339.28 493.3"><defs><style>.cls-1{fill:none;}.cls-2{fill:#ef9f5e;}.cls-3{fill:#9bb58c;}.cls-4{fill:#b1d8ef;}</style></defs><g id="Layer_1-2"><g><rect class="cls-1" width="339.28" height="493.3"/><g><path class="cls-2" d="M59.08,202.67c-18.32,0-28.11-5.21-29.11-15.49-1.65-17.04,10.19-19.33,19.7-21.17,5.04-.97,9.8-1.89,11.42-4.8,4.44-7.94,8.73-39.21,2.88-53.93-1.59-3.99-3.77-6.45-6.49-7.3-3.36-1.06-7.12-1.71-10.77-2.34-8.3-1.44-16.11-2.79-19.39-8.62-2.23-3.98-1.92-9.47,.96-16.78l.12-.29,.21-.23c12.51-13.85,38.7-37.3,57.48-37.3,4.85,0,8.86,1.61,11.91,4.78,5.2,5.4,7.46,14.93,6.91,29.13-.47,12.32,.83,29.02,2.1,45.17,1.16,14.76,2.25,28.67,2.12,39.74-.15,12.82,4.83,13.08,11.72,13.44,7.29,.38,16.36,.85,16.36,19.41,0,15.27-21.6,15.27-30.82,15.27-3.79,0-7.62-.12-11.33-.24h-.12c-3.36-.11-6.88-.21-9.88-.21-1.77,0-3.22,.03-4.45,.1-.57,.03-1.49,.14-2.76,.29l-.34,.04c-4.17,.5-11.12,1.33-18.45,1.33Z"/><path d="M86.11,35.28c4.61,0,8.41,1.52,11.29,4.51,5.03,5.22,7.21,14.54,6.67,28.5-.48,12.37,.83,29.1,2.1,45.27,1.15,14.72,2.24,28.62,2.12,39.66-.16,13.65,5.73,13.96,12.55,14.31,7.28,.38,15.54,.8,15.54,18.54,0,6.15-3.61,10.23-11.05,12.46-6.49,1.94-14.26,1.94-18.9,1.94-3.79,0-7.62-.12-11.33-.24h-.09c-3.37-.11-6.9-.21-9.91-.21-1.78,0-3.26,.03-4.5,.1-.6,.03-1.53,.15-2.82,.3l-.34,.04c-4.14,.5-11.06,1.33-18.34,1.33-17.79,0-27.3-4.95-28.24-14.71-1.58-16.25,9.36-18.37,19-20.23,5.24-1.01,10.19-1.97,12.01-5.23,4.62-8.27,8.98-39.46,2.93-54.68-1.69-4.25-4.05-6.87-7.03-7.81-3.41-1.07-7.2-1.73-10.9-2.37-8.07-1.4-15.69-2.72-18.76-8.19-2.1-3.74-1.77-8.98,1.01-16.03l.06-.15,.11-.12c7.68-8.5,17.53-17.39,26.36-23.79,11.95-8.65,22.49-13.23,30.47-13.23m0-1.74c-19.09,0-45.52,23.63-58.13,37.59l-.32,.35-.17,.44c-2.99,7.57-3.28,13.3-.91,17.52,3.48,6.19,11.49,7.58,19.98,9.05,3.62,.63,7.37,1.28,10.67,2.32,2.46,.77,4.45,3.06,5.94,6.8,5.77,14.52,1.54,45.35-2.83,53.19-1.42,2.55-5.99,3.43-10.83,4.37-9.34,1.81-22.13,4.28-20.4,22.11,1.05,10.8,11.13,16.27,29.97,16.27,7.38,0,14.37-.84,18.55-1.34,1.4-.17,2.45-.3,3.05-.33,1.28-.07,2.77-.1,4.41-.1,2.93,0,6.34,.09,9.85,.2,3.75,.12,7.63,.24,11.48,.24,9.48,0,31.69,0,31.69-16.14,0-19.39-9.93-19.9-17.19-20.28-6.88-.36-11.04-.57-10.9-12.56,.13-11.11-.96-25.05-2.12-39.81-1.26-16.13-2.57-32.8-2.1-45.07,.56-14.45-1.78-24.19-7.15-29.77-3.22-3.35-7.44-5.05-12.54-5.05h0Z"/></g><g><path class="cls-3" d="M261.2,319.76c-17.11,0-33.53-1.81-43.18-3.5-8.12-1.42-12.96-4.58-14.37-9.39-3.53-12.04,14.68-30.07,35.29-49.06,5.41-4.98,10.08-9.28,11.62-11.45,.64-.91,1.3-1.82,1.96-2.73,5.99-8.31,12.19-16.91,11.15-25.97-.93-8.05-9.73-9.25-14.9-9.25-7.16,0-14.27,2.31-17.02,4.55-4.23,3.45-9.72,5.35-15.46,5.35-6.76,0-13.03-2.59-16.76-6.93-2.88-3.35-4.04-7.47-3.37-11.91,3.91-25.74,29.78-37.26,53.68-37.26,16.83,0,32.83,5.25,43.89,14.39,21.04,17.4,18.71,51.14,3.33,71.72-1.78,2.38-18.58,20.88-27.72,30.05-.99,1-.99,2.26-.65,3.12,.33,.86,1.19,1.8,2.61,1.86,.65,.03,1.32,.04,2.01,.04,3.33,0,6.99-.29,10.52-.57,3.17-.25,6.47-.49,9.13-.49,1.68,0,2.97,.09,3.97,.27,6.89,1.27,11.53,8.92,12.55,15.81,.99,6.67-1.32,12.15-6.18,14.66-10.71,5.53-28.8,6.69-42.1,6.69Z"/><path d="M249.84,162.99c16.65,0,32.47,5.18,43.39,14.21,20.7,17.12,18.37,50.36,3.2,70.66-1.77,2.37-18.53,20.82-27.64,29.96-1.25,1.26-1.25,2.87-.83,3.95,.42,1.09,1.51,2.28,3.3,2.36,.64,.03,1.32,.04,2.04,.04,3.36,0,7.02-.29,10.6-.58,3.14-.25,6.42-.48,9.06-.48,1.61,0,2.89,.09,3.83,.26,6.53,1.21,10.94,8.54,11.92,15.16,.94,6.33-1.22,11.5-5.77,13.85-10.57,5.45-28.53,6.6-41.74,6.6-17.06,0-33.42-1.8-43.05-3.49-7.81-1.37-12.43-4.34-13.75-8.84-3.4-11.6,15.46-30.2,35.08-48.28,5.66-5.21,10.12-9.32,11.71-11.55,.64-.91,1.3-1.81,1.95-2.72,6.08-8.43,12.37-17.15,11.29-26.51-.73-6.32-6.44-9.94-15.67-9.94-7.61,0-14.7,2.43-17.51,4.73-4.09,3.33-9.41,5.17-14.97,5.17-6.54,0-12.58-2.49-16.17-6.66-2.73-3.17-3.83-7.07-3.19-11.29,3.84-25.28,29.34-36.6,52.9-36.6m0-1.56c-24.23,0-50.47,11.73-54.45,37.92-.71,4.68,.52,9.01,3.55,12.54,3.88,4.51,10.36,7.2,17.35,7.2h0c5.92,0,11.58-1.96,15.95-5.52,2.64-2.15,9.54-4.37,16.52-4.37,4.91,0,13.27,1.11,14.12,8.56,1.01,8.76-5.1,17.23-11.01,25.42-.66,.91-1.31,1.82-1.96,2.73-1.49,2.1-6.13,6.37-11.51,11.32-20.8,19.16-39.17,37.38-35.51,49.85,1.5,5.11,6.54,8.46,14.98,9.94,9.69,1.7,26.15,3.51,43.31,3.51,13.38,0,31.61-1.18,42.45-6.77,5.17-2.67,7.64-8.45,6.6-15.47-1.06-7.17-5.93-15.12-13.18-16.46-1.1-.2-2.5-.29-4.11-.29-2.64,0-5.83,.22-9.18,.49-3.53,.28-7.17,.57-10.48,.57-.67,0-1.33-.01-1.97-.04-1.3-.05-1.79-1.06-1.91-1.36-.12-.3-.43-1.36,.48-2.28,9.14-9.18,26-27.74,27.79-30.13,15.59-20.88,17.93-55.11-3.46-72.79-11.2-9.26-27.37-14.57-44.39-14.57h0Z"/></g><g><path class="cls-4" d="M92.6,450.79c-28.21,0-53.36-11.24-58.49-26.15-2.06-5.99-1.81-15.24,11.06-25.28,3.23-2.52,6.78-3.8,10.54-3.8,7.86,0,15.52,5.4,22.93,10.62,6.62,4.67,12.87,9.07,18.42,9.07,2.68,0,6.73-.86,10.95-8.25,1.61-2.82,2.06-5.06,1.35-6.65-1.46-3.26-7.68-4.57-14.26-5.95-9.24-1.95-19.72-4.15-20.25-13.17-1.01-17.3,9.81-19.46,19.35-21.36,5.91-1.18,11.02-2.2,12.79-6.54,1.87-4.58,1.19-10.72-1.64-14.93-1.49-2.22-4.19-4.86-8.59-4.86-3.53,0-7.42,1.7-11.55,5.06-10.78,8.75-19.88,13.19-27.04,13.19-4.4,0-8-1.69-10.7-5.02-7.65-9.46-6.33-17.57-3.88-22.7,6.9-14.45,31.43-24.52,49.14-24.52,.97,0,1.93,.03,2.84,.1,14.63,1.03,24.69,7.56,34.54,14.75,8.28,6.04,12.7,14.68,12.45,24.33-.28,10.8-6.41,21.66-15.62,27.67-1.13,.74-1.78,1.94-1.79,3.32-.01,1.44,.69,2.77,1.88,3.58,19.45,13.15,29.75,28.72,28.27,42.73-.87,8.22-6.22,19.76-26.77,28.06-10.86,4.39-23.29,6.71-35.93,6.71h0Z"/><path d="M92.75,300.29c.96,0,1.9,.03,2.78,.09,14.44,1.01,24.39,7.49,34.15,14.61,8.07,5.89,12.39,14.31,12.14,23.71-.27,10.56-6.27,21.18-15.28,27.07-1.34,.87-2.12,2.31-2.13,3.93-.01,1.69,.81,3.26,2.21,4.2,19.21,12.99,29.4,28.31,27.95,42.04-.85,8.02-6.1,19.29-26.3,27.45-10.77,4.35-23.1,6.65-35.66,6.65-27.91,0-52.75-11.03-57.78-25.65-3.59-10.44,3.9-19.06,10.81-24.45,3.1-2.42,6.49-3.64,10.09-3.64,7.62,0,15.19,5.33,22.51,10.49,6.71,4.73,13.06,9.2,18.84,9.2,2.87,0,7.19-.89,11.6-8.63,1.76-3.08,2.21-5.48,1.38-7.32-1.62-3.6-8.02-4.95-14.79-6.38-9.42-1.98-19.16-4.04-19.66-12.49-.98-16.65,9.51-18.74,18.75-20.58,5.87-1.17,11.41-2.27,13.34-6.99,1.95-4.79,1.25-11.22-1.71-15.62-1.59-2.37-4.48-5.19-9.21-5.19-3.7,0-7.75,1.76-12.02,5.22-10.65,8.64-19.59,13.02-26.57,13.02-4.17,0-7.57-1.6-10.12-4.75-4.09-5.05-8.06-12.96-3.79-21.91,3.1-6.49,10.24-12.63,20.1-17.28,9.06-4.27,19.66-6.82,28.36-6.82m0-1.49c-17.93,0-42.79,10.24-49.81,24.94-2.54,5.33-3.92,13.73,3.97,23.49,2.84,3.52,6.64,5.3,11.28,5.3,7.33,0,16.59-4.49,27.51-13.36,4-3.24,7.72-4.89,11.08-4.89,4.07,0,6.58,2.46,7.97,4.53,2.7,4.02,3.34,9.87,1.57,14.23-1.62,3.97-6.55,4.95-12.25,6.09-9.36,1.86-21,4.18-19.95,22.13,.56,9.59,11.33,11.86,20.84,13.86,6.11,1.29,12.43,2.62,13.74,5.53,.61,1.36,.17,3.37-1.32,5.97-4.03,7.06-7.81,7.88-10.31,7.88-5.31,0-11.47-4.34-17.99-8.94-7.5-5.29-15.26-10.76-23.36-10.76-3.93,0-7.64,1.33-11,3.96-13.22,10.31-13.44,19.89-11.3,26.11,5.23,15.2,30.67,26.66,59.19,26.66h0c12.74,0,25.26-2.34,36.21-6.76,20.89-8.44,26.34-20.25,27.23-28.67,1.51-14.29-8.91-30.12-28.59-43.43-.98-.66-1.56-1.77-1.55-2.95,0-1.12,.54-2.1,1.45-2.7,9.41-6.14,15.67-17.24,15.96-28.28,.26-9.91-4.27-18.77-12.75-24.96-9.94-7.25-20.09-13.85-34.92-14.89-.93-.07-1.9-.1-2.89-.1h0Z"/></g></g></g></svg>