<?xml version="1.0" encoding="UTF-8"?><svg id="Layer_2" xmlns="http://www.w3.org/2000/svg" width="339.28" height="493.3" viewBox="0 0 339.28 493.3"><defs><style>.cls-1{fill:none;}.cls-2{fill:#b1d8ef;}.cls-3{fill:#231f20;}</style></defs><g id="Layer_1-2"><g><rect class="cls-1" width="339.28" height="493.3"/><g><path class="cls-2" d="M280.17,290.93c-.45,.17-.84,.47-1.08,.89-.25,.43-.49,.86-.74,1.29-1.15,2,1.8,4.51,3.32,2.56,.08-.11,.17-.18,.25-.28,4.16,4.17,8.77,7.91,6.27,14.97-1.72,4.86-10.23,7.02-14.48,7.83-1.84,.36-3.58,.55-5.29,.67-10.93-1.21-21.55-4.68-30.68-11.08-11.27-7.89-16.52-21.92-20.3-34.93l.78,.21c.69,.67,1.51,.88,2.26,.75,.67,.6,1.41,1.19,2.28,1.8,.24,.17,.49,.27,.74,.35,1.63,1.82,3.43,3.49,5.35,5.04,18.7,20.42,53.61,9.19,67.54-12.86,10.1-15.98,6.71-41.67-6.22-56.71-1.36-2.2-3.58-4.1-5.55-5.3-4.23-3.28-9.15-5.53-14.67-6.36-1.85-.46-3.66-.68-5.34-.54-5.24,.44-10.45,2.66-13.74,6.87-2.98,3.8-2.99,6.83-2.48,10.28-.14,.07-.25,.18-.28,.37-.42,2.69,.04,4.12,1.41,6.56,.89,1.58,3.16,.78,3.26-.88,.2-3.37-.51-5.93,.48-8.93,.94-.41,1.79-.99,2.92-1.6,5.77-3.1,11.39-1.4,15.62,3.4,.98,1.11,1.76,2.31,2.48,3.56,1.23,13.01-.93,27.63-8.51,37.92-4.47,6.07-12.09,13.93-19.9,14.6-4.16,.36-9.83-2.92-14.69-5.81-.08-.45-.26-.9-.57-1.34-10.67-14.84-9.38-29.12-4.35-45.82,2.39-7.94,5.63-16.2,6.31-24.53,4.7-12.83,6.1-26.87,3.53-39.75-5.01-25.16-23.83-43.79-46.95-48.84-5.73-3.63-15.1-4.54-22.16-3.14-30.13-4.83-61.13,22.46-66.29,52.3-3.52,20.35,3.06,38.02,10.89,56.45,1.92,4.53,3.77,9.1,5.62,13.66-.15,.28-.21,.62-.14,.99,3.47,17.85,10.94,35.18-3.61,50.56-9.02,9.53-21.32,12.15-32.69,9.25-4.06-2.38-8.22-4.66-12.27-7-2.14-2.92-4.17-5.7-5.54-8.91-.17-2.03-.46-4.01-.49-5.48-.06-4.26,.2-8.48,.67-12.69,2.89-7.59,8.96-14.05,17.28-8.92-.08,.9,.02,1.63,.24,4.16,.1,1.12,1.42,1.82,2.29,.95,4.65-4.62,3.96-12.31-.66-16.92-6.12-6.11-15.97-5.01-23.21-2.03-15.63,6.44-20.07,22.6-17,37.68,1.68,29,32.92,52.85,60.95,41.08,10.05-4.22,17.99-10.35,24.28-18.2-1.63,9.14-3.23,18.19-7.25,26.82-1.35,1.88-2.53,4.03-3.54,6.36-1.7,2.52-3.79,5.04-6.11,7.37-2.05,1.6-4.08,3.38-6.03,5.19-10.87,7.93-23.76,9.99-27.99-7.28,.89-.11,1.71-.69,2.2-1.41,.24-.36,.48-.72,.73-1.07,.77-1.14,.24-2.93-.94-3.57l-1.16-.63c-.93-.51-2.08-.37-2.84,.37l-.27,.25c-1.77,.13-4.55,.67-6.06,2.44-1.12,1.32-1.89,2.85-2.41,4.49-.04,.1-.1,.2-.13,.31-.78,2.47-1.11,4.63-1.05,6.72-.4,10.36,5.04,19.67,14.91,24.83,14.04,7.34,31.06,3.73,44.5-3.12,10.48-5.34,19.17-13.42,24.57-23.69,.68,5.71,1.84,11.35,3.48,16.85,1.32,6.59,4.02,12.74,7.36,18.71,1.38,3.24,2.97,6.42,4.85,9.54,.87,1.45,2.37,2.03,3.85,1.98,9.72,9.87,24.62,14.46,37.93,8.3,13.92-6.43,22.02-27.24,15.91-41.46-2.96-6.89-8.9-10.48-14.51-10.19-4.89-.73-10.47,1.35-12.95,5.37-1.07,1.74-.19,3.8,1.37,4.7-.07,1.99,3.17,2.63,4.01,.45,.15-.15,.29-.25,.43-.39,2.83-.1,5.08,1.41,7.62,2.76,.37,.2,.74,.31,1.1,.35,.08,1.61,.01,3.24-.02,4.1-.29,7.18-5.29,12.06-12.54,11.76-7.97-.33-13.51-6.27-17.66-13.02-5.42-14.47-1.61-33.89-2.57-49.78,1.82-7.6,3.31-15.25,4.72-22.95,1.5-.91,3.04-1.78,4.59-2.26,.27-.08,.48-.09,.71-.14,1.51,1.22,3.13,2.27,4.42,3.83,.57,1.87,1.24,3.7,1.95,5.51,2.47,9.58,5.78,19.39,11.36,27.16,6.24,8.68,15.41,16.38,24.3,22.26,10.86,7.18,22.64,8.91,33.99,6.67,.6,.13,1.27,.15,2-.02,4.67-1.09,8.91-2.69,12.89-4.79,1.16-.53,2.29-1.11,3.4-1.71,13.2-4.72,22.33-21.85,21.6-34.96-.73-12.93-12.93-20.39-21.82-11.2Z"/><g><path class="cls-3" d="M301.13,291.61c-3.48-5.45-10.46-9.33-16.96-7.31-6.02,1.87-9.54,8.07-8.17,14.11,.26,1.16,1.87,1.56,2.67,.7,2.37-2.53,5.66-2.26,8,.08,2.63,2.64,2.18,6.6,.34,9.6-2.48,4.03-7.32,5.8-11.74,6.65-8.83,1.7-18.23,.39-26.46-3.09-15.33-6.48-24.94-20.23-27.86-36.09,7.89,11.7,24.75,17.64,38.12,16.65,16.07-1.2,30.93-11.13,38.63-25.22,8.46-15.47,8.15-35.57-.71-50.81-7.37-12.67-22.42-23.32-37.62-18.78-6.76,2.02-13.08,7.31-13.89,14.68-.74,6.79,2.87,13.31,9.38,15.55,.79,.27,1.37-.12,1.66-.69,1.35-.34,2.11-2.4,.55-3.3-4.72-2.74-2.96-10.43,1.8-12.21,8.04-3.02,14.21,6.57,14.89,13.19,1.1,10.69-3.81,24.49-10.45,32.78-7.19,8.98-21.11,14.06-30.46,5.11-7.43-7.1-8.87-18.16-7.64-27.87,1.42-11.24,5.77-21.89,8.59-32.81,2.5-9.67,4.34-19.56,4.87-29.54,.96-18.16-3.03-36.8-15.28-50.76-25.56-29.11-74.81-28.9-104.3-5.82-14.96,11.71-22.03,30.34-22.09,49-.08,22.81,10.22,41.96,18.57,62.47,4.76,11.67,7.76,24.48,2.77,36.6-4.49,10.9-14.46,19.33-26.48,20.06-12.01,.72-23.82-5.77-27.72-17.49-1.7-5.12-1.77-10.91-.1-16.04,1.02-3.14,2.74-6.28,5.12-8.6,6.91-6.74,15.8,3.23,7.98,8.34-.38,.14-.77,.27-1.16,.38-.47,.14-.38,.86,.12,.86,.13,0,.26-.03,.39-.03,.15,.52,.71,.93,1.32,.58,.48-.27,.91-.59,1.31-.93,4.85-1.17,8.6-5.14,9.32-10.39,.96-6.99-3.55-12.78-9.78-15.37-14.92-6.18-31.29,4.19-37.02,18.06-12.58,30.44,13.38,68.74,46.06,68.96,14.36,.09,29.22-6.94,37.22-18.98-2.18,11.2-6.3,21.81-13.32,31.08-4.42,5.83-9.99,11.67-17.3,13.58-3.42,.9-7.27,.62-10.46-.95-1.54-.75-3.05-1.82-4.19-3.11-1.36-1.55-4.03-9.25,.35-8.24,1.33,.3,2.21-1.01,1.67-2.17-2-4.32-6.97-6.01-11.45-4.55-5.26,1.72-7.72,7.31-8.25,12.42-1.36,13.2,7.7,26.43,19.74,31.33,14,5.7,33.4,2.06,46.36-4.88,8.88-4.76,16.59-12.71,20.24-22.17,.41,26.07,14.37,56.31,42.95,57.57,13.54,.6,26.6-6.63,31.37-19.62,4.49-12.23,3.66-31.87-9.79-38.25-5.47-2.59-12.44-2.33-16.57,2.5-3.84,4.5-4.04,10.97-.16,15.4,.93,1.06,2.63,.17,2.66-1.1,3.12-5.26,6.19-5.78,9.2-1.56,1.15,1.86,1.44,3.89,.87,6.07-.64,2.57-2.71,5.01-4.9,6.41-4.68,2.98-10.4,1.87-14.72-1.16-8.37-5.86-10.24-16.8-11.23-26.25-1.96-18.53-.96-37.38,5.89-54.87,.17-.44,.12-.81-.06-1.1,1.79-1.28,3.54-.56,5.27,2.2,.62,.86,.99,2.18,1.33,3.18,.63,1.84,1.08,3.74,1.66,5.59,1.3,4.08,2.84,8.09,4.65,11.98,3.44,7.37,7.84,14.31,13.2,20.43,10.65,12.16,25.47,20.72,41.67,22.45,15.27,1.63,30.68-3.59,41.28-14.84,9.22-9.78,16.27-27.11,8.27-39.65Zm-10.57,37.35c-13.3,14.15-33.58,17.34-51.56,11.16-18.9-6.5-32.67-22.02-40.79-39.84-2.16-4.75-3.68-9.6-5.36-14.52-.84-2.44-1.79-5.23-4.01-6.79-3.05-2.14-7.55-1.36-8.52,2.49-.07,.3,.06,.48,.23,.6-5.8,15.07-7.27,31.22-6.24,47.28,.84,13.13,2.26,30.05,15.41,36.92,8.88,4.64,23.09-.05,22.17-11.84-.66-8.43-11.65-11.85-15.17-5.72-.91-3.21,.2-6.92,2.84-9.15,3.72-3.15,9.16-2.48,13.1-.2,7.46,4.32,9.37,13.83,9.2,21.8-.35,16.18-11.18,28.56-27.56,29.48-14.46,.81-27.02-8.58-34.3-20.45-8.12-13.22-8.64-27.86-9.63-42.77,.13-1.36,.2-2.73,.14-4.12-.08-1.89-2.83-1.88-2.93,0-1.32,25.95-25.88,38.61-49.37,39.35-11.92,.38-22.87-3.54-29.27-14.09-2.71-4.46-4.34-9.72-4.16-14.97,.11-3.2,.97-7,3.32-9.34,2.58-2.56,6.81-2.94,9.42-.71-3.77,1.6-3.21,8.7-.85,11.99,4.96,6.9,14.58,7.82,21.9,4.63,9.55-4.18,16.57-13.91,21.35-22.83,4.81-8.98,7.74-18.96,8.08-29.14,.09-.2,.19-.39,.28-.6,.21-.52,.06-.97-.25-1.31,0-.44,.03-.88,.02-1.33-.02-1.17-1.67-1.12-1.79,0-.03,.29-.08,.57-.11,.86-.27,.11-.52,.29-.67,.6-7.2,14.05-21.06,23.03-37.02,23.25-16.38,.22-31.14-9.92-39.4-23.64-8.7-14.46-11.23-35.74,.56-49.35,5.46-6.3,14.09-10.33,22.5-9.51,5.69,.55,12.17,3.5,13.8,9.47,1.35,4.95-.81,9.09-4.41,11.8,1.78-4.06,.31-9.15-4.89-10.75-8.6-2.65-14.63,8.9-16,15.6-4.22,20.6,14.46,36.96,34.34,33.94,22.12-3.36,32.4-26.91,27.88-47.06-3.07-13.71-10.62-25.91-15.52-38.97-5.13-13.67-8.32-28.37-6.8-43.01,1.42-13.7,7.02-27.07,17.26-36.5,9.94-9.16,23.23-14.43,36.34-17.06,27.14-5.43,57.98,3.06,72.71,27.97,13.92,23.53,8.55,53.11,1.11,77.83-3.62,12.03-8.22,24.64-6.26,37.39,1.39,9.03,6.21,18.41,14.98,22.16,25.38,10.85,44.27-26.63,40.44-47.09-1.63-8.73-11.2-18.51-20.69-13.59-4.81,2.5-6.78,8.68-5.06,13.45-5.53-5.61-2.12-16.11,4.87-20.01,8.08-4.51,18-2.68,25.49,2.13,15.74,10.1,21.87,30.97,18.12,48.68-3.68,17.35-17.22,31.52-34.55,35.63-8.44,2-17.34,1.22-25.39-1.97-8.08-3.2-13.65-8.68-19.49-14.76-.04-.32-.09-.64-.12-.97-.18-1.84-2.97-1.92-2.93,0,.66,26.13,22.91,47.21,48.78,47.76,9.52,.21,23.77-2.33,25.3-13.94,.94-7.19-6.42-13.33-12.53-10.25,.36-6.36,7.92-9.63,13.74-6.88,6.07,2.87,8.51,9.52,8.57,15.85,.09,9.26-4.39,18.33-10.63,24.97Z"/><path class="cls-3" d="M141.06,155.94c.16-.52,.21-1.07,.07-1.6-.09-.34-.22-.6-.38-.82-.56-1.77-2.06-3.57-3.92-3.36-.95,.11-1.62,.57-2.07,1.2-.81,.17-1.58,.55-2.16,1.18-1.54,1.67-1.1,4.68,.78,5.92,.17,.11,.34,.18,.52,.25,.23,.23,.48,.44,.75,.61,.79,.86,2.07,1.27,3.36,.91,1.27-.34,2.1-1.28,2.46-2.39,.36-.58,.58-1.23,.6-1.92Z"/><path class="cls-3" d="M207.03,156.07c-.07-1.6-.9-3.15-2.36-3.87-.83-.63-1.85-.99-2.75-.58-.38,.17-.66,.46-.89,.8-1.22,.57-2.16,1.74-2.17,3.4,0,.47,.1,.9,.27,1.29,.08,.6,.36,1.09,.72,1.52,.67,1.3,1.85,2.53,3.16,2.27,.56-.11,1.05-.4,1.48-.78,.2-.07,.4-.16,.61-.28,.55-.3,.94-.74,1.25-1.22,.67-.78,.85-1.68,.67-2.56Z"/><path class="cls-3" d="M180.42,156.74c-.56-1.02-2.27-.58-2.22,.6,.11,2.53,.61,4.76-.25,7.24-1.02,2.94-3.45,5.22-6.6,5.57-2.57,.28-5.44-.7-6.95-2.88-1.54-2.24-.78-5.02-2.05-7.29-.13-.23-.44-.2-.57,0-2.05,2.86-.67,7.74,1.7,10.09,2.24,2.22,5.64,3.14,8.72,2.67,6.72-1.03,11.59-9.83,8.23-16Z"/><path class="cls-3" d="M55.78,270.96c-1.68-.78-4.07-.59-4.99,1.31-1.1,2.27-1.2,4.57-.44,6.71,.14,1.04,.51,2.06,1.09,2.89,.75,1.09,2.31,2.06,3.7,1.5,2.66-1.07,4.22-3.27,4.26-6.17,.03-2.49-1.3-5.16-3.62-6.24Z"/><path class="cls-3" d="M71.77,289.65c-1.85-2.93-6.19-3.99-8.16-.51-1.56,2.76-1.05,5.88,.92,8.25,.7,.84,2,1.18,3.18,1.02,1.44,.17,2.89-.46,3.82-1.67,1.55-2.01,1.59-4.95,.24-7.09Z"/><path class="cls-3" d="M87.3,294.9c-2.63-2.03-6.7-1.16-8.27,1.78-1.08,2.02-.33,4,1.39,5.31,.43,.33,.88,.55,1.35,.73,.63,.57,1.37,1.05,2.28,1.4,.25,.09,.5,.12,.75,.13,1.01,.28,2.26,0,2.93-.75,.47-.53,.77-1.1,.95-1.68,1.23-2.23,.67-5.34-1.37-6.91Z"/><path class="cls-3" d="M113.73,293.34c-.43-2.33-2.6-4.19-4.96-4.14-.71,.01-1.37,.23-1.95,.55-.67-.03-1.36,.12-2.02,.54-.92,.59-1.48,1.38-1.74,2.26-.12,.06-.25,.1-.37,.16-1.45,.73-1.96,2.88-1.11,4.22,1.37,2.14,4.14,2.92,6.43,1.88,1.28,.11,2.62-.12,3.77-.67,1.79-.86,2.28-3.05,1.95-4.8Z"/><path class="cls-3" d="M76.72,343.64c-.06,.03-.12,.05-.17,.08-2.6,1.23-2.13,4.93,0,6.28,.06,.04,.12,.07,.17,.11,2.43,1.54,5.64-.48,5.64-3.24,0-3.03-3.14-4.42-5.64-3.24Z"/><path class="cls-3" d="M95.29,350.8c-2.11-1.28-5.24-.95-6.61,1.25-1.77,.75-2.23,3.76-.29,4.62,.11,.08,.24,.15,.36,.23,.3,.41,.69,.76,1.18,1.02,.64,.34,1.3,.49,1.94,.5,.37,.14,.73,.28,1.07,.41,1.56,.62,3.23-.44,4.08-1.66,1.53-2.17,.35-5.1-1.74-6.37Z"/><path class="cls-3" d="M116.54,346.63c-.81-1.25-2.62-2.29-4.15-1.69-.03,.01-.04,.02-.07,.03-.2,.03-.41,.04-.6,.1-1.93-.08-3.47,.99-4.38,2.69-.9,.94-1.22,2.23-1.01,3.46-.02,.41,0,.82,.14,1.28,.42,1.53,1.87,2.6,3.44,2.62,.7,.01,1.35-.11,1.95-.32,.73-.07,1.45-.24,2.13-.6,.61-.33,1.13-.81,1.55-1.37,.06-.06,.13-.1,.19-.16,1.61-1.6,2.07-4.08,.81-6.03Z"/><path class="cls-3" d="M137.86,333.56c.13-2.1-1.71-3.9-3.68-4.16-1.59-.21-2.86,.42-3.75,1.51-2.11,1.05-3.43,3.26-3.49,5.66,0,.39,.07,.77,.19,1.14-.07,.36-.09,.71-.04,1.05,.19,1.54,.8,2.8,2.32,3.44,1.46,.62,2.94,.23,4.12-.78,1-.85,1.75-1.98,2.3-3.19,1.16-1.23,1.93-2.79,2.04-4.67Z"/><g><path class="cls-3" d="M163.41,351.55s-.05,.08-.08,.12c.14-.17,.14-.18,.08-.12Z"/><path class="cls-3" d="M164.68,347.58c-.26-1.97-1.95-3.53-3.95-3.59-1.9-.05-3.38,1.18-3.93,2.95-.04,.14-.03,.3-.05,.45-.66,.99-1.04,2.21-.9,3.35,.32,2.66,2.59,4.03,5.07,2.91,.57-.26,1.07-.61,1.54-1.03,.12-.11,.79-.9,.96-1.08,.97-1.23,1.48-2.36,1.27-3.97Z"/></g><path class="cls-3" d="M172.77,368.01c-.22-.81-.58-1.44-1.13-2.09-.1-.12-.29-.43-.34-.49-.18-.51-.4-.99-.68-1.43-.84-1.28-2.2-2-3.75-1.79-1.35,.18-2.88,1.25-3.13,2.69-.2,1.2-.17,2.21,.09,3.25-.05,.81,.05,1.63,.27,2.41,.38,1.36,1.55,2.34,2.93,2.53,.48,.06,.91,0,1.32-.1,.15,.02,.3,.08,.46,.08,.4,0,.79-.11,1.17-.27,1.98-.55,3.42-2.52,2.8-4.79Z"/><path class="cls-3" d="M187.51,375.62c-.59-.32-1.21-.46-1.85-.52-.45-.2-.92-.38-1.38-.56-2.96-1.2-5.77,2.27-5,5,.74,2.59,3.52,4.46,6.1,4.2,.92,.15,1.92-.05,2.53-.74,.35-.4,.57-.8,.74-1.2,1.35-1.98,1.18-4.92-1.14-6.18Z"/><path class="cls-3" d="M209.81,373.7c-1.17-.22-2.19-.21-3.36-.05-.71,.1-1.18,.51-1.88,.63,.05-.05,.1-.1,.15-.15-.27,.05-.55,.09-.82,.14-1.46,.24-2.67,2-2.61,3.43,.07,1.45,1.04,3.17,2.61,3.43,0,0,.7,.05,.8,.03,.6,.15,1.11,.49,1.74,.58,1.18,.16,2.16,.18,3.36-.05,3.94-.75,3.95-7.23,0-7.97Z"/><path class="cls-3" d="M230.08,320.76c-1.19,.25-2,1.05-2.49,2.04-.33,.13-.65,.27-.97,.44-.84,.45-1.05,1.56-.62,2.36,.26,.49,.61,.9,.98,1.3,.4,.74,.89,1.32,1.51,1.79,.1,.09,.21,.17,.32,.25,.06,.04,.12,.09,.18,.13,.1,.07,.19,.15,.3,.21l.02-.05c.29,.15,.57,.31,.92,.45,1.54,.61,3.7-.39,4.44-1.81,.02-.04,.03-.08,.05-.11,.6-.63,1.01-1.44,1.13-2.29,.45-3.38-2.78-5.31-5.77-4.69Z"/><path class="cls-3" d="M257.09,331.49c.54,1.22-.03-.31-.28-.72-.55-.91-1.3-1.42-2.24-1.82-1.2-.51-2.53-.57-3.78-.19-2.68,.82-3.8,3.73-2.51,6.18,.9,1.71,3,3.03,4.97,2.8,2.08-.23,4.09-1.62,4.21-3.85,.09-.77,0-1.6-.37-2.41Z"/><path class="cls-3" d="M276.77,327.94c-.89-1.47-2.78-2.26-4.43-1.79-.19-.03-.37-.04-.56-.03-1.73,.08-3.21,1.15-3.72,2.83-.14,.41-.22,.84-.22,1.28,0,.15,.02,.22,.02,.24-.19,1.51,.78,3.3,2.45,3.37,.79,.4,1.68,.61,2.55,.57,3.2-.15,5.77-3.4,3.92-6.46Z"/><path class="cls-3" d="M294.38,318.67c-.49-2.59-3.72-3.5-5.79-2.36-.96,.53-1.66,1.3-2.12,2.2-.63,.35-1.16,.99-1.45,1.64-.67,1.51-.73,3.38,.59,4.6,1.33,1.22,3,1.33,4.6,.59,.45-.21,.86-.48,1.26-.77,2.36-.89,3.39-3.41,2.92-5.89Z"/><path class="cls-3" d="M272.84,271.01c-1.99-.32-3.75-.32-5.4,.96-1.27,.98-1.95,2.64-1.83,4.23-1.63,1.59-.95,4.73,1.83,4.81,1.26,.04,2.38-.25,3.43-.74,.11-.02,.22,0,.33-.02,.95-.22,1.72-.79,2.28-1.53,.72-.52,1.33-1.16,1.71-1.94,.99-2.03,.34-5.34-2.35-5.77Z"/><path class="cls-3" d="M288.92,259.65c-1.02-1.02-2.53-1.42-3.92-1.04-.35,.1-.66,.24-.94,.4-3.09,.71-5.1,4.45-3.18,7.32,.28,.43,.63,.76,1,1.03,.54,.72,1.33,1.25,2.28,1.38,1.55,.21,3.53-.78,3.81-2.49,.02-.11,.03-.21,.05-.32,2.15-1.34,2.92-4.28,.91-6.3Z"/><path class="cls-3" d="M296.11,243.34c-1.11-1.54-2.88-2.33-4.73-1.55-1.06,.45-1.83,1.34-2.15,2.4-.79,.75-1.24,1.79-1.06,3.14,0,.06,.04,.12,.05,.18-.17,.71-.19,1.45,.05,2.23,.69,2.27,3.98,3.56,5.7,1.5,.05-.06,.09-.13,.14-.19,2.68-1.1,3.88-5.11,2-7.71Z"/><g><path class="cls-3" d="M292.96,225.14c-.03-.23-.3-1.06-.36-1.29-.27-.63-.56-1.16-1.06-1.66-1.12-1.13-2.96-1.69-4.47-1.11-1.67,.64-3.08,2.05-3.02,3.97,.03,.94,.39,1.9,.99,2.64-.04,.48,.04,.99,.28,1.52,.31,.68,.67,1.37,1.23,2.08,1.36,1.72,4.32,1.03,5.29-.68,.59-1.04,.84-2.14,.83-3.24,.28-.69,.41-1.46,.31-2.23Z"/><path class="cls-3" d="M292.59,223.85c.04,.09,.09,.17,.12,.26-.14-.35-.15-.38-.12-.26Z"/></g></g></g></g></g></svg>