<?xml version="1.0" encoding="UTF-8"?><svg id="Layer_2" xmlns="http://www.w3.org/2000/svg" width="339.28" height="493.3" viewBox="0 0 339.28 493.3"><defs><style>.cls-1{fill:none;}.cls-2{fill:#ef9f5e;}.cls-3{fill:#ed5f5f;}.cls-4{fill:#9bb58c;}</style></defs><g id="Layer_1-2"><g><rect class="cls-1" width="339.28" height="493.3"/><g><g><path class="cls-4" d="M235.88,446.74c-1.52,0-3.21-.18-5.03-.55-6.74-1.35-11.22-3.77-13.31-7.19-1.81-2.96-1.47-6.13-.86-8.28,.89-3.14,.43-6.37-1.25-8.85-1.74-2.57-3.88-3.88-6.37-3.88-4.97,0-9.83,5.19-12.45,7.97-.36,.38-.66,.71-.91,.95-1.29,1.3-3.87,2.61-6.29,2.61-3.25,0-5.3-2.31-5.93-6.68-.77-5.42-2.35-10.02-3.54-12.93-1.65-4.05-5.57-6.78-9.74-6.78-.66,0-1.33,.07-1.98,.2-4.5,.94-6.25,4.32-6.89,6.25-.37,1.11-.78,2.3-1.31,3.42-1.48,3.13-5.56,10.53-11.54,11.61-.53,.1-1.07,.14-1.63,.14h0c-5.5,0-11.28-4.47-14.39-11.13-2.57-7.85-2.63-13.14-.15-15.64,.8-.81,1.54-1,3-1.39,1.37-.36,3.25-.86,6.11-2.13,3.95-1.75,7.36-3.27,10.03-6.75,5.88-7.69,2.33-12.59-.3-14.82-1.44-1.21-3.03-1.91-8.65-2.83-3.09-.5-5-.7-6.39-.83-1.93-.19-2.66-.27-4-.92-1.33-.64-4.43-2.14-5.61-5.57-.95-2.74-.4-6.07,1.38-8.28,1.35-1.69,3.79-2.55,8.65-4.26,1.01-.35,1.91-.65,2.72-.91,3.19-1.03,5.12-1.66,6.12-3.74,.7-1.47,.52-2.9,.42-3.67-.7-5.46-5.99-7.74-6.22-7.83-1.03-.43-2.05-.64-3.1-.64s-1.91,.19-2.71,.36c-.68,.14-1.32,.28-1.92,.28-.46,0-.85-.08-1.25-.24-2.57-1.06-4.88-5.82-5.49-11.33-.79-7.17,1.29-13.22,5.55-16.19,1.47-1.02,3.21-1.7,5.17-1.99,.7-.11,1.42-.16,2.14-.16,3.49,0,6.96,1.26,9.77,3.56,3.36,2.74,8.26,6.01,12.52,6.01h0c5.49,0,8.27-5.11,8.27-15.17,0-11.07,4.11-16.68,12.22-16.68,4.11,0,8.31,1.43,11.1,2.63,1.63,.7,3.39,1.07,5.07,1.07,1.38,0,2.71-.24,3.95-.72,2.26-.87,3.81-2.33,4.59-4.35,1.64-4.24-.45-9.94-2.48-13.97-1.61-3.19-1.5-6.92,.28-9.74,1.98-3.14,5.47-4.74,10.35-4.74,1.94,0,4.11,.26,6.47,.76,5.99,1.28,9.75,3.41,11.17,6.31,1.25,2.55,.43,5.31-.47,7.18-2.02,4.18-2.67,8.54-1.89,12.62,2.31,12.16,11.55,17.56,16.65,18.84,1.37,.34,2.8,.51,4.25,.51,4.09,0,12-1.47,19.02-11.3,1.77-2.48,4.48-3,6.45-3,5.64,0,11.51,4,13.09,8.92,1.5,4.7-1.01,9.67-7.09,14.02-6.87,4.9-10.09,9.76-9.59,14.43,.75,6.92,9.36,10.69,9.73,10.84,8.98,2.57,11.09,5.21,11.29,6.98,.3,2.61-3.29,4.83-3.81,5.13-1.27,.41-15.44,5.25-12.41,15.88,1.55,5.44,6.92,8.43,15.1,8.43,2.64,0,4.67-.31,5.13-.39,.99,.08,10.57,1.04,14.07,7.11,2.08,3.62,1.65,8.42-1.28,14.28-2.94,5.88-6.26,8.86-9.87,8.86-4.3,0-8.57-4.12-11.69-7.14-1.85-1.78-3.31-3.19-4.51-3.6-.41-.14-.86-.21-1.32-.21-.9,0-1.91,.26-3,.78-2.61,1.23-4.57,3.45-5.54,6.25-1.01,2.92-.79,6.19,.59,8.97l.87,1.74c1.86,3.72,2.44,6.55,1.73,8.42-.38,1-1.12,1.71-2.27,2.17-.69,.28-1.42,.42-2.17,.42-2.02,0-4.02-1.03-5.23-2.69-2.17-2.98-5.98-6.54-11.84-6.54-.69,0-1.41,.05-2.12,.15-2.37,.34-4.22,1.48-5.5,3.39-3.87,5.75-1.23,16.56-1.11,17.02,.02,.1,2.43,10.02-1.84,15.49-1.88,2.4-4.82,3.62-8.74,3.62Z"/><path d="M213.59,252.81c1.88,0,4.01,.25,6.31,.74,5.75,1.23,9.34,3.22,10.65,5.91,.89,1.83,.74,4.02-.47,6.53-2.09,4.32-2.76,8.85-1.96,13.09,2.38,12.53,11.94,18.11,17.2,19.42,1.42,.36,2.92,.54,4.43,.54,9.86,0,16.53-7.27,19.63-11.61,1.58-2.22,4.05-2.68,5.84-2.68,4.68,0,10.77,3.38,12.38,8.4,1.42,4.43-.94,8.98-6.81,13.18-7.1,5.07-10.43,10.16-9.9,15.12,.79,7.35,9.79,11.29,10.18,11.45l.09,.04,.09,.03c9.27,2.65,10.54,5.29,10.66,6.31,.21,1.82-2.3,3.73-3.36,4.36-5.7,1.76-15.49,7.45-12.83,16.78,1.65,5.79,7.27,8.97,15.82,8.97,2.54,0,4.54-.29,5.16-.39,1.3,.12,10.17,1.13,13.39,6.73,1.94,3.38,1.5,7.95-1.31,13.57-2.8,5.6-5.9,8.44-9.2,8.44-4,0-8.14-4-11.17-6.93-1.92-1.85-3.43-3.31-4.8-3.77-.49-.16-1.01-.25-1.56-.25-1.01,0-2.13,.29-3.32,.85-2.79,1.32-4.89,3.69-5.92,6.68-1.07,3.11-.84,6.59,.63,9.55l.87,1.74c2.19,4.39,2.13,6.67,1.7,7.82-.3,.79-.91,1.36-1.85,1.74-.6,.24-1.24,.36-1.9,.36-1.78,0-3.55-.91-4.62-2.38-2.27-3.12-6.28-6.85-12.45-6.85-.73,0-1.48,.05-2.23,.16-2.59,.37-4.61,1.62-6.02,3.71-4.05,6.02-1.33,17.15-1.22,17.61,.02,.1,2.34,9.68-1.71,14.86-1.73,2.21-4.47,3.33-8.15,3.33-1.47,0-3.11-.18-4.88-.53-6.53-1.31-10.84-3.61-12.82-6.85-1.67-2.73-1.34-5.68-.78-7.68,.95-3.35,.46-6.8-1.35-9.47-1.89-2.79-4.24-4.21-6.99-4.21-5.29,0-10.3,5.34-12.99,8.21-.35,.37-.65,.69-.89,.93-1.19,1.19-3.55,2.39-5.76,2.39-2.87,0-4.61-2.03-5.18-6.04-.63-4.41-1.84-8.82-3.59-13.11-1.77-4.33-5.96-7.24-10.43-7.24-.71,0-1.43,.07-2.13,.22-5.05,1.05-6.89,5.07-7.45,6.75-.36,1.09-.77,2.25-1.28,3.34-1.11,2.36-5.2,10.14-11,11.19-.48,.09-.99,.13-1.5,.13-5.11,0-10.72-4.36-13.68-10.61-2.44-7.49-2.56-12.64-.33-14.88,.63-.63,1.14-.79,2.66-1.19,1.39-.37,3.3-.87,6.23-2.17,4.05-1.79,7.54-3.34,10.32-6.98,6.26-8.18,2.43-13.44-.42-15.84-1.73-1.47-3.76-2.14-9.01-3-3.11-.51-5.03-.7-6.44-.84-1.89-.19-2.53-.25-3.75-.85-1.24-.6-4.15-2.01-5.23-5.14-.87-2.51-.36-5.55,1.25-7.57,1.22-1.52,3.59-2.36,8.32-4.02,.99-.35,1.9-.64,2.69-.9,3.27-1.06,5.43-1.75,6.56-4.13,.79-1.67,.59-3.24,.48-4.09-.75-5.88-6.43-8.33-6.67-8.43-1.13-.47-2.23-.7-3.39-.7-1.09,0-2.03,.2-2.87,.38-.66,.14-1.24,.27-1.76,.27-.36,0-.66-.06-.97-.18-2.3-.94-4.46-5.55-5.03-10.72-.76-6.89,1.2-12.69,5.23-15.5,1.38-.96,3.01-1.59,4.85-1.87,.67-.1,1.35-.15,2.03-.15,3.32,0,6.62,1.2,9.3,3.39,3.45,2.82,8.51,6.18,12.99,6.18,7.45,0,9.01-8.66,9.01-15.92,0-5.96,1.22-10.3,3.63-12.9,1.86-2.01,4.5-3.03,7.85-3.03,3.99,0,8.08,1.4,10.81,2.57,1.73,.74,3.58,1.13,5.37,1.13,1.47,0,2.89-.26,4.22-.77,2.47-.95,4.16-2.56,5.02-4.78,1.74-4.5-.41-10.41-2.51-14.58-1.49-2.96-1.4-6.4,.24-9,1.84-2.91,5.11-4.39,9.72-4.39m0-1.5c-6.05,0-9.28,2.38-10.99,5.09-1.98,3.14-1.99,7.16-.31,10.48,2.42,4.79,6.03,14.32-1.71,17.29-1.19,.45-2.43,.67-3.68,.67-1.63,0-3.26-.36-4.78-1.01-2.69-1.15-7.08-2.69-11.4-2.69-6.57,0-12.97,3.56-12.97,17.43,0,11.04-3.38,14.42-7.52,14.42s-9.01-3.36-12.05-5.84c-2.91-2.37-6.54-3.73-10.25-3.73-.75,0-1.5,.06-2.25,.17-1.86,.28-3.76,.91-5.48,2.12-9.77,6.8-6.12,26.28,.08,28.83,.52,.21,1.03,.29,1.53,.29,1.44,0,2.86-.65,4.63-.65,.85,0,1.77,.15,2.81,.59,.26,.11,5.12,2.23,5.77,7.24,.1,.79,.24,2-.35,3.25-1.08,2.27-3.62,2.58-8.4,4.26-5,1.76-7.51,2.64-8.99,4.5-1.9,2.37-2.56,5.94-1.5,8.99,1.29,3.72,4.67,5.35,5.99,5.99,2.5,1.21,3.18,.6,10.6,1.82,5.42,.89,6.94,1.52,8.29,2.67,3.07,2.6,5.37,7.02,.19,13.79-2.53,3.3-5.75,4.76-9.74,6.52-5.95,2.64-7.55,1.87-9.35,3.67-1.97,1.98-3.36,6.24,0,16.49,3.34,7.14,9.52,11.56,15.07,11.56,.6,0,1.19-.05,1.76-.16,6.3-1.14,10.57-8.81,12.09-12.03,.53-1.13,.95-2.32,1.35-3.51,.57-1.72,2.17-4.89,6.33-5.76,.61-.13,1.22-.19,1.83-.19,3.91,0,7.51,2.56,9.04,6.31,1.29,3.17,2.75,7.6,3.49,12.76,.79,5.55,3.68,7.32,6.67,7.32,2.66,0,5.41-1.41,6.82-2.83,1.91-1.91,7.48-8.7,12.82-8.7,2.02,0,4.01,.97,5.75,3.55,1.63,2.41,1.94,5.43,1.15,8.23-1.31,4.63-1.31,13.2,14.75,16.41,1.93,.39,3.64,.56,5.17,.56,16.32,0,11.31-20.04,11.31-20.04,0,0-4.5-17.98,5.99-19.48,.7-.1,1.37-.15,2.02-.15,5.65,0,9.3,3.56,11.24,6.23,1.37,1.89,3.58,3,5.83,3,.83,0,1.66-.15,2.45-.47,2.81-1.12,4.68-4.12,.94-11.61l-.87-1.74c-2.6-5.2-.65-11.72,4.6-14.2,.92-.44,1.84-.71,2.68-.71,.38,0,.74,.05,1.09,.17,3.01,1,9.4,10.77,16.44,10.77,3.46,0,7.08-2.36,10.54-9.27,10.49-20.98-13.49-22.48-13.49-22.48,0,0-2.18,.4-5.1,.4-5.11,0-12.48-1.21-14.38-7.89-3-10.49,11.99-14.99,11.99-14.99,0,0,13.49-7.49-7.49-13.49,0,0-20.98-8.99,0-23.98,16.37-11.69,3.55-24.29-6.43-24.29-2.82,0-5.41,1-7.06,3.31-5.94,8.32-12.83,10.98-18.41,10.98-1.46,0-2.83-.18-4.07-.49-4.91-1.23-13.86-6.49-16.1-18.25-.79-4.13,0-8.37,1.83-12.16,2.08-4.31,3.02-11.5-11.22-14.55-2.52-.54-4.71-.78-6.62-.78h0Z"/></g><g><path class="cls-4" d="M164.03,272.76c-1.9,0-3.57-.41-3.59-.41-2.9-.72-8.4-3.37-8.42-8.27-.01-1.99,.87-3.98,2.48-5.6,1.62-1.63,3.79-2.64,5.66-2.64,3.42,.06,6.2,3.29,7.69,6.3,1.76,3.55,2.09,7.25,.8,9-.99,1.35-3.06,1.63-4.62,1.63Z"/><path d="M160.16,256.59h.08c3,.05,5.55,3.07,6.94,5.88,1.61,3.26,1.98,6.72,.87,8.22-.81,1.09-2.63,1.32-4.02,1.32-1.81,0-3.39-.39-3.41-.39-2.71-.67-7.83-3.11-7.86-7.55-.01-1.79,.79-3.59,2.26-5.07,1.49-1.49,3.45-2.42,5.13-2.42m0-1.5c-4.04,0-8.92,4.05-8.89,8.99,.03,5.33,5.74,8.19,8.99,8.99,.14,.03,1.83,.43,3.77,.43s4.09-.39,5.22-1.93c3.11-4.22-2.09-16.37-8.99-16.49-.03,0-.07,0-.1,0h0Z"/></g><g><path class="cls-4" d="M315.44,340.51c-4.81,0-9.75-2.33-10.56-4.98-.82-2.67,2.55-6.19,3.92-7.32,1.72-1.42,4.78-3.08,7.72-3.08,1.48,0,2.81,.42,3.94,1.25,1.63,1.2,2.7,3.12,3.03,5.41,.32,2.29-.18,4.63-1.32,6.11-1.29,1.68-3.68,2.61-6.72,2.61Z"/><path d="M316.52,325.88h0c1.32,0,2.5,.37,3.5,1.11,1.46,1.08,2.43,2.82,2.73,4.91,.3,2.1-.15,4.22-1.17,5.55-1.55,2.02-4.51,2.32-6.13,2.32-4.44,0-9.13-2.12-9.85-4.45-.7-2.27,2.5-5.55,3.68-6.52,1.63-1.34,4.51-2.91,7.25-2.91m0-1.5c-3.22,0-6.43,1.8-8.2,3.25-.22,.18-5.28,4.45-4.16,8.11,.96,3.14,6.35,5.51,11.28,5.51,2.95,0,5.74-.85,7.32-2.9,2.47-3.21,2.16-9.63-1.86-12.58-1.37-1-2.88-1.4-4.38-1.4h0Z"/></g><g><path class="cls-4" d="M181.79,458.9c-3.56,0-7.31-2.26-8.55-5.15-1.01-2.37-.39-5.55,1.71-8.73,2.43-3.69,6.17-6.36,8.9-6.36,.26,0,.52,.03,.75,.08,2.97,.64,4.5,5.67,4.83,7.55,.57,3.17,.38,9.75-4.44,11.94-.98,.45-2.06,.67-3.21,.67Z"/><path d="M183.85,439.4h0c.21,0,.41,.02,.59,.06,2.55,.55,3.96,5.33,4.26,6.95,.54,2.97,.39,9.13-4.01,11.13-.89,.4-1.86,.61-2.9,.61-3.28,0-6.73-2.06-7.86-4.7-.91-2.13-.31-5.06,1.65-8.03,2.27-3.43,5.82-6.03,8.27-6.03m0-1.5c-5.58,0-14.05,9.68-11.29,16.13,1.31,3.08,5.26,5.61,9.23,5.61,1.19,0,2.39-.23,3.52-.74,5.2-2.37,5.5-9.21,4.86-12.75-.05-.3-1.39-7.28-5.41-8.15-.29-.06-.6-.09-.91-.09h0Z"/></g><g><path class="cls-4" d="M152.77,299.3c-1.24,0-2.25-1.01-2.25-2.25s1.01-2.25,2.25-2.25,2.25,1.01,2.25,2.25-1.01,2.25-2.25,2.25Z"/><path d="M152.77,295.55c.83,0,1.5,.67,1.5,1.5s-.67,1.5-1.5,1.5-1.5-.67-1.5-1.5,.67-1.5,1.5-1.5m0-1.5c-1.66,0-3,1.34-3,3s1.34,3,3,3,3-1.34,3-3-1.34-3-3-3h0Z"/></g><g><path class="cls-4" d="M260.68,428.19c-1.24,0-2.25-1.01-2.25-2.25s1.01-2.25,2.25-2.25,2.25,1.01,2.25,2.25-1.01,2.25-2.25,2.25Z"/><path d="M260.68,424.44c.83,0,1.5,.67,1.5,1.5s-.67,1.5-1.5,1.5-1.5-.67-1.5-1.5,.67-1.5,1.5-1.5m0-1.5c-1.66,0-3,1.34-3,3s1.34,3,3,3,3-1.34,3-3-1.34-3-3-3h0Z"/></g><g><path class="cls-4" d="M121.3,384.73c-1.24,0-2.25-1.01-2.25-2.25s1.01-2.25,2.25-2.25,2.25,1.01,2.25,2.25-1.01,2.25-2.25,2.25Z"/><path d="M121.3,380.98c.83,0,1.5,.67,1.5,1.5s-.67,1.5-1.5,1.5-1.5-.67-1.5-1.5,.67-1.5,1.5-1.5m0-1.5c-1.66,0-3,1.34-3,3s1.34,3,3,3,3-1.34,3-3-1.34-3-3-3h0Z"/></g><g><path class="cls-4" d="M250.18,282.82c-1.24,0-2.25-1.01-2.25-2.25s1.01-2.25,2.25-2.25,2.25,1.01,2.25,2.25-1.01,2.25-2.25,2.25Z"/><path d="M250.18,279.07c.83,0,1.5,.67,1.5,1.5s-.67,1.5-1.5,1.5-1.5-.67-1.5-1.5,.67-1.5,1.5-1.5m0-1.5c-1.66,0-3,1.34-3,3s1.34,3,3,3,3-1.34,3-3-1.34-3-3-3h0Z"/></g></g><g><g><path class="cls-3" d="M71.6,191.83c-3.07,0-5.92-2.58-6.42-4.9-.32-1.52,.27-3.31,1.67-5.04,1.95-2.41,5.1-4.23,7.32-4.23,.42,0,.8,.07,1.11,.2,1.93,.83,2.3,4.59,2.28,5.97-.04,2.34-1.07,6.99-4.75,7.86-.39,.09-.8,.14-1.22,.14Z"/><path d="M74.18,178.55h0c.3,0,.56,.04,.76,.13,1.23,.53,1.76,3.38,1.74,5.14-.03,2.1-.92,6.26-4.06,7-.33,.08-.67,.12-1.01,.12-2.62,0-5.13-2.25-5.55-4.19-.36-1.68,.78-3.42,1.5-4.3,1.77-2.19,4.68-3.9,6.63-3.9m0-1.78c-4.23,0-10.9,5.51-9.87,10.36,.6,2.82,3.85,5.6,7.29,5.6,.47,0,.95-.05,1.42-.17,4.18-.99,5.39-6.01,5.44-8.71,0-.23,.03-5.58-2.82-6.8-.44-.19-.93-.28-1.46-.28h0Z"/></g><g><path class="cls-3" d="M275.99,146.99c-2.11,0-4.35-1.85-5.63-3.68-1.06-1.52-1.54-3.09-1.2-4.01,.55-1.51,3.59-1.99,4.61-2.04,.11,0,.22,0,.34,0,.52,0,5.14,.09,6.13,3.38,.35,1.17,.17,2.5-.51,3.74-.69,1.24-1.79,2.2-2.88,2.51-.27,.07-.56,.11-.85,.11Z"/><path d="M274.1,138.14c1.65,0,4.62,.58,5.27,2.74,.38,1.27-.11,2.46-.44,3.05-.57,1.03-1.48,1.84-2.33,2.08-.19,.05-.4,.08-.61,.08-1.52,0-3.54-1.36-4.9-3.3-.98-1.39-1.29-2.66-1.09-3.2,.29-.8,2.41-1.39,3.81-1.45,.1,0,.2,0,.3,0m0-1.78c-.13,0-.26,0-.38,0-.19,0-4.54,.25-5.4,2.63-1.08,2.99,3.52,8.89,7.67,8.89,.37,0,.73-.05,1.09-.15,2.58-.71,4.95-4.22,4.01-7.37-.96-3.18-4.71-4.01-6.98-4.01h0Z"/></g><g><path class="cls-3" d="M58.36,77.23c-1.48,0-3-.55-3.02-.56-1.75-.65-4.97-2.65-4.65-5.62,.27-2.56,2.93-4.47,5.13-4.47,.14,0,.28,0,.42,.03,2,.26,3.48,2.46,4.19,4.42,.83,2.29,.81,4.62-.05,5.55-.4,.43-1.08,.65-2.02,.65Z"/><path d="M55.82,67.48h0c.11,0,.21,0,.31,.02,1.32,.17,2.68,1.68,3.47,3.84,.77,2.12,.67,4.06,.13,4.64-.21,.23-.71,.36-1.37,.36-1.32,0-2.69-.5-2.71-.5-1.22-.45-4.34-2.18-4.08-4.69,.22-2.03,2.5-3.67,4.24-3.67m0-1.78c-2.57,0-5.69,2.21-6.01,5.26-.37,3.49,3.16,5.78,5.23,6.55,.11,.04,1.71,.61,3.33,.61,1.01,0,2.02-.22,2.68-.94,2.35-2.54-.17-10.88-4.68-11.46-.18-.02-.35-.03-.54-.03h0Z"/></g><g><path class="cls-3" d="M198.88,44.93c-.48,0-.9-.09-1.25-.27-2.16-1.09-2.76-5.73-2.81-7.43-.08-2.83,.78-8.45,4.61-9.41,.37-.09,.75-.14,1.14-.14,3.32,0,6.54,3.26,7.21,6.18,.49,2.14-.27,4.67-2.09,6.95-1.93,2.43-4.73,4.12-6.8,4.12Z"/><path d="M200.57,28.57c2.86,0,5.76,2.95,6.34,5.49,.43,1.87-.27,4.13-1.92,6.2-1.75,2.19-4.32,3.79-6.1,3.79-.34,0-.62-.06-.85-.17-1.47-.74-2.26-4.41-2.32-6.66-.09-3.01,.89-7.76,3.93-8.52,.3-.07,.61-.11,.93-.11m0-1.78c-.45,0-.91,.05-1.36,.17-4.35,1.09-5.38,7.06-5.28,10.3,0,.27,.25,6.67,3.3,8.2,.5,.25,1.05,.36,1.65,.36,4.45,0,11.08-6.39,9.76-12.16-.78-3.42-4.42-6.87-8.08-6.87h0Z"/></g><g><path class="cls-3" d="M215.59,202.91c-1.5,0-2.93-.35-4.03-.99-2.99-1.74-4.03-5.95-3.73-9.33,.24-2.78,1.34-4.92,2.78-5.46,.28-.1,.59-.15,.94-.15,2.31,0,5.41,2.3,6.41,3.18,2.12,1.88,5.63,6.34,3.72,9.8-1.21,2.18-3.94,2.96-6.08,2.96Z"/><path d="M211.55,187.86c2.02,0,4.95,2.19,5.82,2.96,2.25,1.99,5.05,5.95,3.53,8.7-1.02,1.84-3.41,2.5-5.3,2.5-1.35,0-2.62-.31-3.58-.87-2.65-1.55-3.57-5.38-3.29-8.49,.21-2.36,1.11-4.29,2.2-4.7,.18-.07,.39-.1,.63-.1m0-1.78c-.43,0-.85,.06-1.25,.21-4.38,1.61-5,13.01,.81,16.4,1.26,.74,2.86,1.11,4.48,1.11,2.76,0,5.58-1.1,6.87-3.42,2.18-3.92-1.48-8.75-3.91-10.9-.18-.16-3.92-3.41-7-3.41h0Z"/></g><g><path class="cls-3" d="M177,195.94c-4.84,0-9.15-1.71-10.74-4.25-1.28-2.06-1.08-4.26-1.08-4.28,.12-1.13,.52-1.7,1.12-2.56,.38-.54,.8-1.14,1.21-1.98,1.98-4.03,1.95-10.29-1.52-13.81-.87-.88-1.95-1.53-3.23-1.96-.9-.3-1.85-.45-2.81-.45-3.12,0-6.18,1.65-7.98,4.31-1.6,2.36-4.35,5.28-8.37,5.79-.21,.03-.79,.09-1.56,.09-1.59,0-4.5-.29-6.12-2.2-.75-.88-.87-1.69-1.01-2.63-.16-1.05-.34-2.23-1.43-3.44-1.43-1.6-3.86-2.59-6.35-2.59-1.62,0-3.17,.42-4.47,1.21-3.29,2.01-4.53,6.23-4.05,9.37,.15,.97,.44,1.67,.7,2.28,.32,.75,.57,1.35,.5,2.37-.13,2.04-1.41,3.56-1.89,4.13-2.69,3.19-6.93,3.53-8.63,3.53-.35,0-.57-.01-.62-.02-3.79-.32-7.31-2.51-8.97-5.59-.54-1-1.35-2.51-1.11-4.3,.16-1.22,.73-1.94,1.45-2.84,.8-1,1.7-2.13,2.23-4.12,.26-.99,.88-3.3-.12-5.62-1.59-3.66-5.96-4.58-6.82-4.73-.53-.09-1.08-.14-1.64-.14-2.94,0-5.63,1.29-7.24,2.05-.27,.13-.52,.25-.73,.34-.87,.39-1.63,.78-2.33,1.21-.73,.44-2.18,1.19-3.68,1.19-2.33,0-3.93-1.87-4.78-5.56-.87-3.8-3.92-6.61-7.58-6.99-.32-.03-.65-.05-.98-.05-3.07,0-7,1.61-8.28,9.25-1.27,7.61-4.31,11.81-8.56,11.81-2.79,0-6.01-1.74-9.3-5.03-3.93-3.93-5.61-8.32-4.51-11.75,.81-2.5,3.05-4.17,6.31-4.7,2.93-.48,5.62-1.33,8.02-2.55,5.56-2.82,8.5-5.7,8.75-8.56,.16-1.87-.82-3.62-2.93-5.21l-.13-.1-.15-.05c-.97-.29-1.92-.43-2.81-.43s-1.79,.15-2.59,.45c-1.55,.57-2.36,1.5-3,2.25-.57,.66-.98,1.13-1.78,1.36-.29,.08-.61,.13-.94,.13-2.15,0-4.65-1.68-5.83-3.9-.3-.57-1.23-2.59-.6-4.81,.65-2.29,2.82-4.21,5.68-5,3.22-.89,5.67-3.29,6.41-6.25,.51-2.06,.35-3.78-.49-5.12-.82-1.31-2.27-2.2-4.3-2.62-.71-.15-1.46-.23-2.23-.23-.9,0-1.84,.11-2.78,.32-1.81,.4-3.49,.61-5,.61-2.7,0-4.72-.66-5.99-1.95-2.24-2.28-2.58-7.15-.86-12.41,1.64-5.02,5.34-10.42,9.87-11.16,.35-.06,.71-.09,1.07-.09,.83,0,1.7,.15,2.59,.44,1.46,.48,2.83,1.38,3.95,2.59,1.64,1.76,5.01,4.72,9.23,4.72,2.1,0,4.15-.74,6.08-2.2,2.47-1.86,3.98-4.85,4.25-8.41,.25-3.15,2.94-4.75,8.01-4.75,.72,0,1.5,.03,2.3,.1,.71,.06,1.47,.09,2.26,.09,5.56,0,14.46-1.62,16.16-6.09,.62-1.62,.34-3.72-.69-5.1-.87-1.17-1.97-1.44-2.94-1.68-.72-.18-1.41-.35-2.03-.89-1.68-1.45-2.13-4.85-.98-7.43,1.55-3.48,5.41-4.18,6.55-4.32,.32-.04,.65-.06,.98-.06,2.78,0,5.58,1.38,7.67,3.78,.62,.71,1.13,1.58,1.56,2.67l.3,.75c1.21,2.93,4.81,6.04,8.72,6.18h.26c3.29,0,5.59-2.1,7.82-4.14,2.22-2.03,3.25-3.79,4.08-5.2,.84-1.44,1.35-2.31,2.7-2.81,.6-.22,1.27-.34,1.98-.34,2.12,0,4.33,1,5.78,2.61,.3,.33,.57,.7,.81,1.09,2.11,3.51,5.61,5.6,9.37,5.6,0,0,.23,0,.35,0,9.73-.33,11.91-4.2,12.01-7.39,.07-1.94-.67-3.87-2.07-5.44-1.57-1.76-5.08-6.27-3.82-10.16,.96-2.98,4.52-5.17,10.58-6.52,1.77-.39,3.37-.59,4.75-.59,2.8,0,4.79,.81,5.93,2.41,2.48,3.48,.76,10.08-.49,13.7-1.5,4.35-.96,9.05,1.44,12.56,1.74,2.54,3.94,3.83,6.55,3.83,1.35,0,2.8-.36,4.31-1.06,1.64-.76,3.16-1.9,4.52-3.39,2.71-2.97,5.27-4.67,7-4.67,1.61,0,2.71,1.63,3.25,4.84,.95,5.59,5.15,9.94,10.46,10.84,.66,.11,1.3,.17,1.92,.17,3.52,0,6.22-1.75,8.03-5.21,.58-1.11,1.01-2.35,1.31-3.8,.68-3.31,3.48-14.09,11.18-14.09,2.64,0,5.66,1.24,9,3.69,4.53,3.32,6.75,6.64,6.61,9.87-.2,4.5-5.01,8.07-7.87,9.8-3.88,2.35-6.03,6.68-5.48,11.02,.39,3.07,2.22,7.07,8.75,8.68,1.28,.32,2.66,.48,4.08,.48,2.99,0,5.42-.69,6.33-.96,.62-.18,1.15-.36,1.63-.52,1.15-.39,1.98-.68,3.29-.68h.12c2.25,.03,3.96,.85,4.43,1.11,2.68,1.43,4.98,5.44,5.46,9.53,.37,3.1-.36,5.71-2.01,7.17-1.17,1.04-2.82,1.57-4.92,1.57-.24,0-.48,0-.71-.02-.15,0-.3-.01-.46-.01-2.71,0-5.25,1.37-6.79,3.65-1.54,2.28-1.86,5.14-.85,7.65,.37,.92,.86,1.87,1.46,2.83,2.34,3.74,3.02,6.58,2.02,8.43-1.16,2.16-4.77,3.34-10.72,3.5-1.49,.04-2.79,.21-3.97,.53-3.12,.83-7.15,2.58-8.58,6.17-1.05,2.63-.48,5.75,1.68,9.28,1.09,1.77,2.47,3.38,4.1,4.78,1.72,1.48,4.55,4.46,4.13,7.82-.35,2.83-2.93,5.47-7.68,7.85-2.17,1.08-4.08,1.63-5.67,1.64h0c-1.55,0-2.8-.51-3.8-1.55-2.77-2.87-2.97-9.07-2.84-12.51,.07-1.86-.63-3.69-1.92-5.02-1.22-1.27-2.83-1.96-4.52-1.96-.21,0-.42,.01-.63,.03-1.81,.18-3.35,1.12-4.58,2.77-1.22,1.63-1.88,3.69-1.91,5.96-.07,4.48-1.23,7.87-3.28,9.53-.98,.79-2.39,1.27-3.77,1.27-.53,0-1.04-.07-1.51-.21-1.84-.54-2.67-2.01-3.62-3.71-1.03-1.83-2.2-3.91-4.84-4.95-1-.39-2.08-.59-3.19-.59-1.69,0-3.34,.47-4.65,1.32-1.14,.74-2.06,1.82-2.74,3.21-1.38,2.84-.57,5.61,.38,8.83,.23,.79,.48,1.62,.71,2.51,1.65,6.33,2.56,9.82,1.21,11.92-1.2,1.88-4.39,3.05-8.33,3.05Z"/><path d="M168.03,35.98c2.53,0,4.23,.67,5.21,2.04,1.64,2.3,1.42,7-.61,12.89-1.59,4.62-1.01,9.61,1.54,13.36,1.88,2.76,4.41,4.22,7.29,4.22,1.48,0,3.05-.38,4.69-1.14,1.75-.81,3.36-2.02,4.8-3.6,2.47-2.7,4.9-4.38,6.35-4.38s2.05,2.23,2.37,4.1c1.01,5.96,5.51,10.61,11.19,11.57,.71,.12,1.4,.18,2.07,.18,3.82,0,6.87-1.97,8.83-5.69,.62-1.18,1.07-2.51,1.39-4.04,.64-3.14,3.28-13.38,10.3-13.38,2.44,0,5.29,1.18,8.47,3.51,4.27,3.13,6.37,6.2,6.25,9.11-.18,4.08-4.74,7.44-7.44,9.07-4.18,2.53-6.49,7.2-5.9,11.9,.42,3.35,2.4,7.71,9.42,9.44,1.35,.33,2.8,.5,4.29,.5,3.11,0,5.63-.72,6.57-.99,.64-.18,1.19-.37,1.68-.54,1.11-.38,1.84-.63,3-.63h.1c2.04,.03,3.6,.77,4.02,1,2.44,1.3,4.55,5.03,5,8.85,.33,2.8-.29,5.14-1.71,6.4-1,.89-2.45,1.34-4.33,1.34-.22,0-.44,0-.66-.02-.17,0-.34-.01-.5-.01-3,0-5.82,1.51-7.53,4.05-1.71,2.52-2.06,5.69-.94,8.48,.39,.96,.9,1.96,1.53,2.97,1.48,2.37,3.03,5.6,1.99,7.54-.69,1.28-2.97,2.84-9.96,3.03-1.56,.04-2.93,.22-4.18,.56-3.32,.89-7.61,2.77-9.18,6.71-1.16,2.91-.57,6.3,1.75,10.08,1.14,1.85,2.58,3.53,4.28,4.99,1.59,1.36,4.19,4.08,3.83,7.03-.31,2.48-2.79,4.96-7.19,7.16-2.04,1.02-3.82,1.54-5.28,1.54-1.3,0-2.33-.42-3.16-1.28-1.88-1.95-2.8-6.16-2.59-11.85,.08-2.1-.71-4.16-2.17-5.67-1.39-1.44-3.23-2.24-5.17-2.24-.24,0-.48,.01-.72,.04-2.04,.21-3.84,1.29-5.21,3.13-1.33,1.78-2.05,4.02-2.09,6.48-.06,4.15-1.14,7.38-2.95,8.85-.81,.66-2.04,1.07-3.21,1.07-.45,0-.87-.06-1.26-.17-1.42-.41-2.07-1.47-3.09-3.29-1.05-1.87-2.35-4.19-5.29-5.34-1.11-.43-2.29-.65-3.52-.65-1.86,0-3.69,.52-5.14,1.46-1.28,.83-2.3,2.03-3.05,3.57-1.54,3.15-.67,6.08,.33,9.47,.23,.79,.47,1.61,.7,2.48,1.53,5.89,2.46,9.44,1.33,11.22-1.02,1.6-3.99,2.63-7.58,2.63-4.47,0-8.58-1.57-9.98-3.83-1.11-1.78-.95-3.7-.95-3.71,.1-.9,.41-1.34,.97-2.15,.37-.53,.84-1.2,1.28-2.1,2.12-4.31,2.06-11.03-1.69-14.83-.96-.98-2.17-1.71-3.58-2.18-1-.33-2.04-.5-3.09-.5-3.41,0-6.75,1.8-8.72,4.7-1.49,2.21-4.05,4.93-7.74,5.4-.2,.03-.73,.08-1.45,.08-1.44,0-4.06-.24-5.44-1.88-.58-.69-.67-1.29-.81-2.19-.17-1.11-.38-2.49-1.64-3.9-1.59-1.78-4.28-2.88-7.01-2.88-1.79,0-3.49,.46-4.93,1.34-3.79,2.31-4.97,6.94-4.47,10.27,.17,1.08,.49,1.87,.76,2.49,.3,.72,.49,1.16,.43,1.96-.11,1.75-1.21,3.05-1.68,3.61-2.45,2.9-6.37,3.22-7.95,3.22-.3,0-.5-.01-.55-.02-3.5-.29-6.74-2.3-8.26-5.12-.51-.95-1.21-2.25-1.01-3.76,.13-.98,.58-1.54,1.27-2.4,.81-1.01,1.82-2.27,2.4-4.45,.29-1.08,.96-3.6-.16-6.2-1.77-4.08-6.55-5.1-7.49-5.26-.58-.1-1.18-.15-1.79-.15-3.14,0-5.95,1.34-7.62,2.14-.26,.13-.5,.24-.71,.33-.9,.4-1.7,.82-2.43,1.26-.52,.32-1.88,1.06-3.22,1.06-.69,0-2.8,0-3.91-4.86-.96-4.18-4.31-7.26-8.36-7.68-.36-.04-.72-.06-1.07-.06-6.52,0-8.54,6.27-9.16,10-.69,4.13-2.6,11.06-7.68,11.06-2.51,0-5.59-1.69-8.66-4.77-3.63-3.63-5.27-7.79-4.29-10.85,.7-2.16,2.69-3.62,5.6-4.09,3.02-.49,5.8-1.38,8.28-2.63,5.85-2.97,8.96-6.09,9.24-9.28,.19-2.2-.91-4.22-3.28-6l-.26-.19-.31-.09c-1.06-.31-2.09-.47-3.06-.47-1.02,0-2,.17-2.9,.51-1.77,.65-2.69,1.72-3.37,2.5-.56,.65-.83,.94-1.35,1.09-.21,.06-.45,.09-.7,.09-1.81,0-4.02-1.51-5.04-3.43-.26-.49-1.07-2.25-.53-4.15,.56-1.99,2.5-3.67,5.06-4.38,3.53-.98,6.22-3.62,7.04-6.89,.57-2.3,.37-4.26-.6-5.81-.96-1.53-2.6-2.54-4.87-3.02-.77-.16-1.59-.25-2.41-.25-.97,0-1.97,.11-2.97,.34-1.74,.39-3.36,.59-4.81,.59-2.45,0-4.25-.57-5.35-1.68-2.01-2.05-2.27-6.56-.65-11.5,1.88-5.73,5.56-9.97,9.17-10.56,.31-.05,.61-.07,.93-.07,.73,0,1.51,.13,2.31,.4,1.32,.44,2.56,1.25,3.58,2.35,1.74,1.87,5.33,5,9.88,5,2.3,0,4.53-.8,6.62-2.38,2.67-2.02,4.31-5.23,4.6-9.05,.2-2.61,2.6-3.93,7.12-3.93,.7,0,1.45,.03,2.23,.1,.73,.06,1.52,.09,2.34,.09,5,0,14.98-1.39,17-6.67,.72-1.89,.39-4.34-.81-5.95-1.06-1.43-2.44-1.76-3.44-2.01-.67-.17-1.2-.3-1.67-.7-1.38-1.19-1.73-4.18-.75-6.39,1.36-3.04,4.81-3.68,5.84-3.8,.29-.03,.58-.05,.87-.05,2.52,0,5.08,1.27,7,3.47,.55,.63,1.01,1.42,1.41,2.42l.24,.6,.07,.17c1.32,3.19,5.24,6.57,9.51,6.72,.1,0,.2,0,.29,0,3.63,0,6.18-2.33,8.43-4.38,2.32-2.12,3.43-4.02,4.24-5.41,.85-1.45,1.23-2.05,2.24-2.43,.5-.19,1.07-.28,1.67-.28,1.88,0,3.83,.89,5.11,2.31,.26,.29,.5,.62,.71,.96,2.27,3.78,6.06,6.03,10.13,6.03,.13,0,.25,0,.38,0,10.42-.36,12.75-4.68,12.88-8.25,.07-2.17-.74-4.32-2.29-6.06-1.47-1.64-4.75-5.84-3.64-9.29,.85-2.62,4.28-4.67,9.92-5.92,1.7-.38,3.24-.57,4.56-.57m0-1.78c-1.41,0-3.05,.19-4.95,.61-17.94,3.99-10.44,14.54-7.23,18.14,1.18,1.32,1.9,3.04,1.84,4.81-.17,5.04-6.02,6.35-11.15,6.52-.11,0-.21,0-.32,0-3.58,0-6.75-2.08-8.6-5.17-.25-.41-.55-.83-.91-1.23-1.66-1.85-4.14-2.9-6.44-2.9-.8,0-1.58,.13-2.29,.39-3.16,1.17-2.62,4.13-7.07,8.19-2.13,1.95-4.28,3.92-7.22,3.92-.08,0-.15,0-.23,0-3.44-.12-6.79-2.89-7.92-5.62-.05-.12,0,0-.3-.75-.42-1.06-.97-2.07-1.72-2.93-2.24-2.57-5.28-4.08-8.35-4.08-.36,0-.72,.02-1.08,.06-.82,.1-5.44,.75-7.26,4.84-1.29,2.89-.83,6.71,1.21,8.47,1.7,1.46,3.58,.72,4.84,2.42,.85,1.15,1.07,2.95,.57,4.25-1.44,3.77-9.35,5.52-15.33,5.52-.77,0-1.5-.03-2.19-.09-.85-.07-1.65-.1-2.38-.1-7.06,0-8.7,3.1-8.9,5.58-.24,3.02-1.48,5.94-3.9,7.76-1.94,1.46-3.81,2.02-5.54,2.02-3.89,0-7.06-2.8-8.57-4.43-1.19-1.28-2.67-2.28-4.32-2.83-1.12-.37-2.09-.49-2.87-.49-.47,0-.88,.04-1.22,.1-8.98,1.46-15.25,19.22-9.5,25.07,1.67,1.7,4.18,2.22,6.62,2.22,1.92,0,3.8-.32,5.2-.63,.85-.19,1.72-.3,2.58-.3,.68,0,1.37,.07,2.04,.21,4.38,.92,4.79,3.91,4.11,6.65-.69,2.8-3,4.83-5.78,5.6-3.16,.88-5.56,2.99-6.3,5.61-.75,2.67,.43,5.02,.67,5.47,1.34,2.54,4.17,4.38,6.62,4.38,.41,0,.81-.05,1.19-.16,2.15-.62,2.23-2.67,4.84-3.63,.78-.29,1.55-.4,2.29-.4,.96,0,1.85,.19,2.56,.4,6.36,4.77-.34,9.55-5.69,12.26-2.43,1.24-5.06,2.02-7.76,2.46-8.67,1.41-10.05,10.19-2.29,17.96,3.44,3.44,6.89,5.29,9.93,5.29,4.43,0,8-3.93,9.44-12.55,1.12-6.7,4.3-8.51,7.4-8.51,.3,0,.59,.02,.89,.05,3.39,.35,6.04,2.98,6.8,6.31,1.13,4.94,3.48,6.25,5.65,6.25,1.72,0,3.34-.83,4.15-1.32,.72-.44,1.47-.82,2.23-1.16,1.5-.67,4.39-2.32,7.61-2.32,.49,0,.99,.04,1.49,.12,.52,.09,4.71,.87,6.16,4.21,.88,2.03,.34,4.06,.08,5.03-.97,3.64-3.31,4.14-3.71,7.07-.28,2.08,.64,3.77,1.21,4.84,1.92,3.55,5.83,5.73,9.68,6.05,.06,0,.31,.02,.7,.02,1.75,0,6.36-.36,9.31-3.85,.54-.64,1.95-2.31,2.1-4.64,.14-2.13-.9-2.79-1.21-4.84-.4-2.6,.5-6.56,3.63-8.47,1.23-.75,2.62-1.08,4-1.08,2.24,0,4.42,.88,5.68,2.29,1.81,2.03,.6,3.89,2.42,6.05,1.81,2.15,4.88,2.52,6.8,2.52,.85,0,1.48-.07,1.67-.1,4.34-.55,7.27-3.63,9-6.17,1.65-2.44,4.4-3.92,7.24-3.92,.84,0,1.7,.13,2.53,.41,1.05,.35,2.05,.9,2.88,1.74,3.04,3.07,3.3,8.84,1.36,12.78-1.03,2.1-2.19,2.69-2.42,4.84,0,0-.26,2.48,1.21,4.84,1.92,3.08,6.86,4.67,11.49,4.67,3.91,0,7.6-1.13,9.08-3.46,1.55-2.43,.61-6.04-1.1-12.63-1.17-4.5-2.69-7.56-1.15-10.72,.64-1.32,1.48-2.24,2.42-2.85,1.17-.76,2.65-1.17,4.16-1.17,.97,0,1.95,.17,2.87,.53,4.7,1.84,4.16,7.41,8.54,8.69,.57,.17,1.16,.24,1.76,.24,1.59,0,3.21-.55,4.33-1.47,2.42-1.96,3.55-5.82,3.61-10.21,.03-1.94,.57-3.88,1.73-5.44,1.2-1.61,2.59-2.28,3.96-2.42,.18-.02,.36-.03,.54-.03,3.15,0,5.67,2.83,5.55,6.06-.2,5.44,.45,14.98,7.54,14.98,1.65,0,3.65-.52,6.07-1.73,13.65-6.83,6.88-14.44,3.73-17.14-1.53-1.31-2.86-2.85-3.92-4.57-5.85-9.52,2.16-13,6.36-14.13,1.23-.33,2.49-.46,3.76-.5,11.02-.29,15.23-4.01,9.43-13.3-.6-.95-1.05-1.85-1.39-2.69-1.92-4.8,1.73-10.08,6.82-10.08,.13,0,.27,0,.41,.01,.25,.01,.5,.02,.76,.02,1.85,0,3.94-.39,5.51-1.79,4.81-4.28,1.76-15.28-3.63-18.16-.8-.43-2.6-1.18-4.84-1.21-.04,0-.09,0-.13,0-2.06,0-3.09,.64-5.17,1.24-.91,.26-3.25,.92-6.08,.92-1.22,0-2.53-.12-3.86-.45-5.7-1.41-7.67-4.68-8.08-7.93-.51-4.06,1.56-8.03,5.06-10.15,5.64-3.42,14.77-11.29,1.32-21.15-3.77-2.76-6.91-3.86-9.53-3.86-8.34,0-11.3,11.14-12.05,14.81-.25,1.24-.63,2.45-1.22,3.57-1.86,3.55-4.52,4.74-7.24,4.74-.59,0-1.18-.06-1.77-.15-5.07-.85-8.87-5.05-9.73-10.11-.71-4.17-2.3-5.58-4.13-5.58-2.72,0-5.98,3.12-7.66,4.96-1.2,1.31-2.62,2.43-4.24,3.18-1.47,.68-2.78,.98-3.94,.98-2.63,0-4.5-1.52-5.81-3.44-2.34-3.43-2.68-7.84-1.33-11.77,2.11-6.12,4.48-17.3-6.29-17.3h0Z"/></g><g><circle class="cls-3" cx="114.67" cy="54.18" r="1.53"/><path d="M114.67,53.54c.35,0,.64,.29,.64,.64s-.29,.64-.64,.64-.64-.29-.64-.64,.29-.64,.64-.64m0-1.78c-1.34,0-2.42,1.08-2.42,2.42s1.08,2.42,2.42,2.42,2.42-1.08,2.42-2.42-1.08-2.42-2.42-2.42h0Z"/></g><g><circle class="cls-3" cx="141.3" cy="189.74" r="1.53"/><path d="M141.3,189.11c.35,0,.64,.29,.64,.64s-.29,.64-.64,.64-.64-.29-.64-.64,.29-.64,.64-.64m0-1.78c-1.34,0-2.42,1.08-2.42,2.42s1.08,2.42,2.42,2.42,2.42-1.08,2.42-2.42-1.08-2.42-2.42-2.42h0Z"/></g><g><path class="cls-3" d="M252.66,83.55c-.84,0-1.53-.69-1.53-1.53s.68-1.53,1.53-1.53,1.53,.69,1.53,1.53-.69,1.53-1.53,1.53Z"/><path d="M252.66,81.38c.35,0,.64,.29,.64,.64s-.29,.64-.64,.64-.64-.29-.64-.64,.29-.64,.64-.64m0-1.78c-1.34,0-2.42,1.08-2.42,2.42s1.08,2.42,2.42,2.42,2.42-1.08,2.42-2.42-1.08-2.42-2.42-2.42h0Z"/></g></g><g><g><path class="cls-2" d="M63.03,315.6c-3.34,0-7.77-2.43-11.03-6.04-2.65-2.93-4.02-6.07-3.76-8.6,.12-1.2,.61-2.12,1.09-3,.62-1.16,1.21-2.25,.74-3.67-.68-2.05-2.89-2.51-5.22-2.99-2.22-.46-4.51-.93-5.95-2.71-2.27-2.79-1.8-7.88-.32-11.68,1.23-3.18,3.12-5.39,4.81-5.65,.11-.02,.22-.02,.32-.02,.88,0,1.54,.61,2.31,1.32,.98,.9,2.08,1.91,3.92,2.04,.12,0,.25,.01,.37,.01,3.2,0,5.4-3,7.53-5.9,2.13-2.89,4.33-5.89,7.5-6.11,.13,0,.27-.01,.4-.01,3.19,0,6.25,2.54,7.91,4.72,1.49,1.96,2.2,4,1.83,5.33-.26,.94-1.05,1.54-1.81,2.11-.8,.6-1.62,1.23-1.48,2.22,.2,1.37,1.99,1.84,4.47,2.49,1.15,.3,2.45,.64,3.8,1.12,5.32,1.89,11.03,5.07,11.14,8.35,.04,1.17-.63,2.53-1.87,3.81-2.15,2.22-5.44,3.71-8.2,3.71-.51,0-1-.05-1.46-.15-1.26-.28-2.14-.9-2.92-1.45-.74-.52-1.37-.97-2.12-.97-.22,0-.45,.04-.66,.12-1.44,.54-1.64,2.36-1.91,4.87-.17,1.6-.39,3.6-.97,5.79-.67,2.48-2.43,9.08-6.36,10.6-.63,.24-1.33,.36-2.09,.37h0Z"/><path d="M65.74,263.08c2.47,0,5.42,1.78,7.52,4.52,1.4,1.84,2.07,3.71,1.75,4.89-.21,.78-.93,1.32-1.62,1.85-.83,.63-1.86,1.41-1.67,2.69,.25,1.7,2.17,2.2,4.84,2.9,1.14,.3,2.43,.64,3.76,1.11,4.92,1.74,10.71,4.86,10.8,7.89,.03,1.04-.58,2.26-1.73,3.44-2.03,2.09-5.25,3.55-7.84,3.55-.48,0-.93-.05-1.35-.14-1.16-.26-2-.85-2.74-1.37-.77-.54-1.5-1.06-2.41-1.06-.28,0-.57,.05-.84,.16-1.73,.65-1.95,2.7-2.23,5.28-.17,1.59-.38,3.56-.96,5.71-.65,2.42-2.37,8.84-6.06,10.27-.57,.22-1.21,.33-1.91,.33-3.2,0-7.49-2.36-10.66-5.87-2.55-2.83-3.88-5.82-3.63-8.21,.11-1.11,.58-1.98,1.03-2.82,.64-1.2,1.31-2.44,.77-4.07-.77-2.33-3.22-2.84-5.6-3.32-2.13-.44-4.33-.89-5.67-2.54-2.14-2.64-1.67-7.52-.24-11.18,1.15-2.97,2.93-5.11,4.42-5.33,.09-.01,.17-.02,.25-.02,.65,0,1.17,.45,1.98,1.19,.98,.9,2.21,2.03,4.23,2.17,.14,0,.27,.01,.4,.01,3.45,0,5.73-3.1,7.94-6.1,2.06-2.8,4.19-5.7,7.13-5.91,.12,0,.24-.01,.37-.01m0-1c-.15,0-.29,0-.44,.02-6.71,.48-9.02,12.01-15,12.01-.11,0-.22,0-.33-.01-3.14-.22-3.99-3.36-6.27-3.36-.13,0-.26,0-.4,.03-4.66,.7-8.94,13.04-4.8,18.14,3.14,3.87,9.92,2.01,11.09,5.55,.73,2.21-1.55,3.56-1.85,6.47-.67,6.51,8.64,15.19,15.29,15.19,.8,0,1.57-.13,2.27-.4,4.17-1.61,5.94-8.23,6.67-10.94,1.46-5.47,.63-9.58,2.58-10.32,.17-.06,.33-.09,.49-.09,1.28,0,2.41,1.85,4.94,2.41,.51,.11,1.03,.16,1.57,.16,4.86,0,10.68-4.31,10.57-8.03-.15-4.8-10.18-8.35-11.47-8.8-4.1-1.45-7.71-1.65-7.94-3.21-.21-1.42,2.68-1.96,3.27-4.12,1-3.65-4.81-10.68-10.23-10.68h0Z"/></g><g><path class="cls-2" d="M49.87,266.24c-1.57,0-2.97-1.34-3.34-3.19-.2-1.02-.06-2.04,.4-2.88,.45-.81,1.14-1.34,1.95-1.5,.17-.03,.35-.05,.52-.05,1.57,0,2.97,1.34,3.34,3.19,.41,2.07-.64,4.04-2.35,4.38-.17,.03-.35,.05-.52,.05Z"/><path d="M49.4,259.12c1.31,0,2.53,1.2,2.85,2.79,.18,.9,.06,1.8-.35,2.54-.37,.68-.95,1.12-1.61,1.26-.14,.03-.28,.04-.42,.04-1.31,0-2.53-1.2-2.85-2.79-.36-1.8,.52-3.5,1.96-3.79,.14-.03,.28-.04,.42-.04m0-1c-.2,0-.41,.02-.61,.06-1.99,.4-3.22,2.62-2.75,4.97,.42,2.1,2.06,3.59,3.83,3.59,.2,0,.41-.02,.61-.06,1.99-.4,3.22-2.62,2.75-4.97-.42-2.1-2.06-3.59-3.83-3.59h0Z"/></g></g></g></g></svg>