<?xml version="1.0" encoding="UTF-8"?><svg id="Layer_2" xmlns="http://www.w3.org/2000/svg" width="735.05" height="484.91" viewBox="0 0 735.05 484.91"><defs><style>.cls-1{fill:#fff;}.cls-2{fill:#9bb58c;}.cls-3{fill:#cfcfcf;}</style></defs><g id="Layer_1-2"><g><g><path class="cls-2" d="M451.02,483.91c-12.34,0-24.71-3.37-38.94-10.59-15.88-8.06-29.28-20.39-39.83-36.65-7.33-11.3-14.5-22.99-21.42-34.29-3.19-5.21-6.38-10.41-9.6-15.6-.35-.56-.75-1.1-1.18-1.68-.21-.28-.42-.57-.65-.88l-.29-.41-1.54,1.1c-.66,.47-1.29,.92-1.92,1.38-17.4,12.85-36.26,19.69-56.07,20.31-.93,.03-1.86,.04-2.79,.04-6.31,0-12.77-.66-19.01-1.3-2.59-.26-5.17-.53-7.76-.75-32.81-2.78-65.28-5.62-89.9-7.78-3.18-.28-6.35-.54-9.53-.8-9.33-.76-18.98-1.55-28.41-2.82-21.58-2.9-37.25-14.84-46.59-35.49-8.74-19.34-17.8-38.92-26.57-57.85-5.41-11.69-11.01-23.79-16.48-35.7-1.68-3.66-3.36-7.31-5.05-10.96-6.5-14.08-13.21-28.63-19.27-43.17-2.31-5.55-3.77-11.58-5.19-17.41-.64-2.65-1.31-5.39-2.04-8.06v-12.31c.06-.15,.12-.29,.19-.44,.18-.4,.36-.8,.43-1.26,1.52-11,6.31-21.28,14.24-30.55,5-5.84,9.99-11.68,14.98-17.52,26.72-31.24,54.34-63.54,81.96-94.91,13.84-15.71,32.56-24.31,54.12-24.87,22.62-.59,45.63-.71,67.89-.82,10.92-.05,22.2-.11,33.3-.22,6.26-.06,12.63-.25,18.78-.43,2.89-.08,5.78-.17,8.67-.24h24.9c.92,.19,1.85,.37,2.78,.55,2.01,.39,4.08,.79,6.08,1.31,11.5,2.99,21.69,9.67,31.16,20.44,7.18,8.16,13.41,18.02,19.06,30.14,3.97,8.52,7.91,17.05,11.79,25.45l4.7,10.16,.43-.15c2.03-.71,4.05-1.46,6.01-2.19,4.32-1.61,8.41-3.13,12.68-4.22,4.46-1.14,9.2-1.68,14.93-1.68,4.53,0,9.15,.34,13.62,.67,2.57,.19,5.23,.38,7.85,.51,23.03,1.14,46.45,2.43,69.09,3.68,7.25,.4,14.51,.8,21.76,1.19,3.53,.19,7.07,.35,10.61,.52,8.54,.39,17.36,.8,25.99,1.61,21.86,2.07,39.67,11.52,52.94,28.1,20.4,25.5,40.89,51.63,60.7,76.91,9.79,12.49,19.58,24.99,29.4,37.46,11.85,15.05,14.95,33.13,9.2,53.74-2.88,10.35-6.9,20.61-11.97,30.5-9.73,18.96-19.79,38.15-29.53,56.7-11.87,22.61-24.14,46-35.89,69.16-9.67,19.08-24.63,29.84-45.74,32.92-10.68,1.55-21.7,2.17-32.35,2.76l-4.12,.23c-42.09,2.4-80.44,4.48-117.23,6.34-1.11,.06-2.24,.09-3.36,.09h0Zm-20-31.54c-1.04,4.11-.42,7.96,1.83,11.47,4.4,6.85,14.02,10.77,21.56,12.15,1.32,.24,5.84,1.02,8.53,1.02,.21,0,.4,0,.59-.01,12.05-.62,24.18-1.37,35.9-2.1,10.49-.65,21.33-1.33,32.1-1.9l78.02-7c14.8-1.94,32.26-13.9,38.94-26.67l14.98-28.65c17.58-33.61,35.75-68.35,53.54-102.57,1.73-3.34,3.05-7.19,3.82-11.16,1.14-5.97,0-11.64-3.21-15.94-3.27-4.37-8.48-7.12-14.68-7.73-1.76-.17-3.81-.37-5.87-.49l-25.21-1.48c-33.01-1.94-67.15-3.94-100.73-5.86-1.97-.11-3.94-.17-5.86-.17-9.07,0-17.46,1.23-24.94,3.66-.4,.12-.82,.26-1.21,.4-.06,.02-.13,.04-.19,.07-.4,.13-.81,.29-1.23,.45-.44,.16-.85,.32-1.27,.5-9.43,3.82-17.49,10.38-23.95,19.51l-.06,.04-.06,.13c-1.57,2.22-3.05,4.61-4.52,7.3-18.3,33.82-36.3,68.54-53.71,102.12-6.13,11.82-12.26,23.65-18.41,35.46-1.72,3.28-2.99,6.52-3.77,9.62-.66,2.62-.95,5.2-.87,7.65l-.04,.17Zm-37.45-337.64c-3.47,0-6.64,1.49-9.43,4.43-1.15,1.21-2.22,1.61-3.26,2-1.32,.49-2.68,1-3.82,3.1-2.47,4.56-5.26,9.44-8.22,14.62-3.75,6.57-7.64,13.37-10.78,19.39-14.23,19.85-27.03,45.55-39.41,70.4-5.37,10.78-10.45,20.97-15.58,30.6-8.28,15.52-7.43,38.44,2.01,54.49,.45,.75,.88,1.71,1.34,2.73,.53,1.17,1.08,2.38,1.67,3.29,4.88,7.61,9.22,14.86,13.41,21.86,4.25,7.09,8.63,14.42,13.59,22.14,7.64,11.9,15.8,25.04,23.69,37.74,8.43,13.57,17.14,27.59,25.31,40.26,3.56,5.51,9.45,8.55,16.6,8.55,6.35,0,13.04-2.42,18.37-6.65,.26-.2,.48-.38,.7-.56,.23-.19,.45-.38,.68-.59,.88-.78,1.68-1.58,2.38-2.38,2.24-2.52,4.31-5.63,6.35-9.51,11.48-21.88,22.93-43.77,34.38-65.67,12.21-23.35,24.42-46.69,36.66-70.03,4.57-8.72,6.79-18.16,6.98-29.68-.02-12.9-3.61-22.96-12-33.63-6.8-8.65-13.6-17.31-20.4-25.96-5.43-6.92-10.86-13.83-16.3-20.75-4.11-5.23-8.21-10.47-12.31-15.7-10.5-13.4-21.35-27.25-32.14-40.78-4.98-6.25-12.57-13.71-20.44-13.71ZM42.17,183.54c-9.47,.36-18.18,4.08-22.73,9.69-3.08,3.8-4.27,8.42-3.43,13.35,.1,.57,.2,1.18,.3,1.83,.6,3.68,1.34,8.26,2.74,11.3,11.06,24.06,22.17,48.57,32.92,72.27,9.18,20.24,18.67,41.17,28.08,61.73,6.91,15.08,21.77,31.22,39.4,33.29,4.35,.51,9.19,1.11,14.24,1.73,12.56,1.55,26.79,3.3,37.77,4.27,17.16,1.51,34.54,2.98,51.34,4.4,10.2,.86,20.42,1.72,30.66,2.6,3.2,.28,7.06,.78,11.13,1.31,5.6,.73,11.4,1.49,15.89,1.69,.25,.01,.49,.02,.73,.02,3.99,0,7.4-1.53,10.11-4.55,5.97-6.63,7.06-18.68,6.19-26.99-.04-.44-.09-.87-.15-1.31-.5-3.72-1.69-7.64-3.52-11.64-20.81-45.33-42.98-93.56-65.13-141-2.79-5.95-6.52-11.54-10.8-16.17-11.74-12.73-24.65-18.97-39.46-19.06-7.73-.05-16.02-.07-26.09-.07-6.7,0-13.4,0-20.09,.02-6.36,0-12.73,.02-19.09,.02l.2-.27h-1c-12,0-24.32,.39-36.24,.76-10.75,.33-21.86,.68-32.68,.75-.41,0-.81,.01-1.21,.03h-.06ZM355.24,33.49c-8.45,0-18.12,9.87-25.6,18.47l-14.93,17.16c-23.83,27.4-48.48,55.72-72.57,83.71-3.36,3.91-6.17,8.61-7.91,13.25-6.09,16.25-5.58,32.32,1.51,47.78,8.84,19.27,17.88,38.83,26.63,57.76,3.97,8.58,7.94,17.17,11.9,25.76,4.96,10.73,9.91,21.46,14.86,32.2,3.95,8.56,7.9,17.13,11.85,25.69,3.67,7.93,7.88,12.78,13.65,15.72,2.77,1.41,5.48,2.1,8.26,2.1,2.45,0,4.98-.56,7.51-1.67l.49-.21-.25-.48c-.16-.3-.3-.58-.43-.84-.3-.6-.56-1.11-.88-1.61-4.8-7.47-23.97-37.28-28.75-44.72-13.78-21.46-14.92-42.38-3.48-63.97,10.74-20.25,21.52-40.92,31.94-60.9,11.8-22.62,24-46.02,36.21-68.92,4.14-7.78,9.36-15.19,14.4-22.34,1.56-2.21,3.11-4.42,4.64-6.64,.07-.1,6.7-10.26,5.66-12.49-2.63-5.64-5.48-11.89-8.23-17.93-2.94-6.43-5.97-13.09-8.77-19.07-1-2.14-5.08-7.89-7.26-10.97l-.78-1.1c-2.67-3.8-5.92-5.73-9.67-5.73Zm67.91,52.51c-6.01,0-10.75,3.46-14.1,10.28-2.54,5.15,1.52,14.47,4.32,19.16,.11,.18,.21,.36,.32,.54,.17,.32,.38,.65,.64,.99,.09,.13,.19,.29,.29,.43,.09,.14,.19,.29,.33,.44,.17,.24,.37,.51,.56,.75,8.42,10.55,16.83,21.12,25.24,31.68,22.12,27.79,45,56.53,67.7,84.63,10.03,12.42,23.93,20.06,40.2,22.08,10.18,1.27,20.63,1.79,30.72,2.29,4.21,.21,8.56,.43,12.84,.69,25.62,1.59,51.24,3.16,76.86,4.74l1.86,.11c2.58,.16,5.15,.33,7.73,.51,6.47,.44,13.16,.89,19.75,1.05,.2,0,.4,0,.61,0,.61,.01,1.26,.02,1.93,.02,10.52,0,16.74-2.19,19-6.7,3.07-6.15,2.06-17.31-2.05-22.53-5.83-7.42-11.77-14.98-17.77-22.62-25.3-32.21-51.46-65.52-76.23-96.39-10.62-13.24-30.86-22.96-50.36-24.19l-73.99-6c-7.38-.4-15.11-.74-22.58-1.06-6.76-.29-13.76-.59-20.43-.94-2.66-.14-5.57-.21-8.9-.21s-6.61,.07-9.84,.13c-3.21,.06-6.54,.13-9.77,.13-1.5,0-3-.01-4.5-.05h-.36ZM315.16,6.27c-14.55,.14-29.1,.25-43.65,.36-33.91,.26-68.98,.53-103.47,1.12-19.49,.33-37.32,8.14-48.92,21.42-13.83,15.85-28.75,33.63-43.17,50.82-11.64,13.87-23.67,28.22-34.83,41.18-7.17,8.32-13.76,16.27-20.73,24.67l-.28,.33c-5.62,6.77-.48,18.89,1.22,22.45,3.25,6.75,9.42,7.66,15.04,7.66,.31,0,.63,0,.94,0,16.72-.32,33.72-.6,53.4-.93,9.09-.15,18.85-.31,29.59-.49,3.82-.06,8.32-.11,13.33-.17,14.38-.17,32.27-.37,50.41-.88,19.19-.54,35.28-8.02,47.84-22.23,15.84-17.91,31.8-36.24,47.24-53.97,6.22-7.14,12.44-14.28,18.67-21.42,2.76-3.16,5.52-6.31,8.29-9.46,7.11-8.11,14.46-16.5,21.58-24.85l.22-.26c.11-.13,.23-.27,.33-.4,4.65-5.6,7.36-11.04,8.76-17.61,.64-2.99-.12-5.84-2.25-8.47-4.45-5.49-14.34-8.87-19.48-8.87h-.1Z"/><path d="M320.41,1.5c.91,.19,1.82,.37,2.73,.54,2,.39,4.06,.79,6.05,1.3,11.4,2.96,21.51,9.59,30.91,20.28,7.14,8.12,13.35,17.94,18.98,30.02,4,8.58,8,17.24,11.87,25.62,1.48,3.21,2.96,6.41,4.43,9.57l.38,.82,.86-.3c2.04-.71,4.06-1.46,6.02-2.19,4.31-1.6,8.38-3.12,12.63-4.21,4.41-1.13,9.12-1.66,14.8-1.66,4.51,0,9.12,.34,13.58,.67,2.58,.19,5.24,.39,7.86,.51,22.99,1.14,46.36,2.42,68.96,3.67,7.3,.4,14.59,.8,21.89,1.2,3.54,.19,7.14,.36,10.62,.52,8.53,.39,17.34,.8,25.96,1.61,21.72,2.05,39.41,11.45,52.59,27.92,20.4,25.49,40.88,51.62,60.68,76.89,9.63,12.29,19.59,25,29.41,37.47,11.75,14.92,14.81,32.85,9.11,53.29-2.87,10.32-6.88,20.55-11.94,30.4-9.72,18.95-19.79,38.13-29.52,56.68-11.87,22.62-24.15,46.01-35.9,69.18-9.6,18.92-24.43,29.6-45.36,32.65-10.66,1.55-21.67,2.16-32.32,2.76-1.37,.08-2.75,.15-4.12,.23-42.1,2.4-80.45,4.48-117.22,6.34-1.11,.06-2.23,.09-3.34,.09-12.26,0-24.56-3.35-38.72-10.54-15.8-8.02-29.14-20.29-39.63-36.47-7.34-11.31-14.5-23-21.43-34.3-3.13-5.11-6.37-10.4-9.59-15.58-.36-.58-.77-1.14-1.21-1.72-.2-.27-.42-.56-.64-.87l-.58-.81-.81,.58c-.39,.28-.77,.55-1.14,.81-.66,.47-1.29,.92-1.91,1.38-17.32,12.79-36.08,19.59-55.79,20.21-.9,.03-1.83,.04-2.77,.04-6.29,0-12.73-.66-18.95-1.29-2.55-.26-5.18-.53-7.78-.75-32.66-2.77-65.2-5.61-89.9-7.78-3.17-.28-6.35-.54-9.53-.8-9.33-.76-18.98-1.55-28.39-2.82-10.82-1.46-20.2-5.19-27.89-11.11-7.55-5.81-13.71-13.92-18.31-24.09-8.74-19.34-17.8-38.93-26.57-57.87-5.41-11.69-11.01-23.78-16.47-35.69-1.68-3.65-3.36-7.31-5.05-10.96-6.5-14.07-13.21-28.63-19.27-43.16-2.3-5.51-3.75-11.52-5.16-17.33-.64-2.63-1.3-5.35-2.03-8.01v-12.14c.05-.11,.1-.22,.14-.33,.18-.41,.39-.87,.47-1.4,1.5-10.9,6.26-21.09,14.13-30.3,5-5.84,10-11.69,15-17.53,26.71-31.23,54.33-63.52,81.94-94.89,13.75-15.6,32.34-24.14,53.76-24.7,22.61-.59,45.62-.71,67.87-.82,10.92-.05,22.21-.11,33.31-.22,6.27-.06,12.63-.25,18.79-.43,2.89-.08,5.78-.17,8.64-.24h24.86M36.38,176.79c.32,0,.63,0,.95,0,16.73-.32,33.75-.6,53.46-.93,9.07-.15,18.82-.31,29.53-.49,3.82-.06,8.34-.11,13.35-.17,14.37-.17,32.26-.37,50.4-.88,19.33-.54,35.55-8.08,48.2-22.4,15.85-17.93,31.83-36.28,47.29-54.02,6.21-7.13,12.41-14.25,18.63-21.37,2.75-3.15,5.51-6.3,8.28-9.45,7.12-8.12,14.47-16.51,21.61-24.88,.07-.08,.13-.16,.2-.24,.12-.14,.24-.28,.33-.4,4.72-5.68,7.46-11.18,8.88-17.84,.67-3.14-.12-6.13-2.35-8.89-4.72-5.83-14.74-9.05-19.87-9.05h-.11c-14.55,.14-29.34,.25-43.65,.36-33.91,.26-68.98,.53-103.47,1.12-19.63,.33-37.59,8.2-49.29,21.59-13.84,15.85-28.75,33.63-43.18,50.83-11.64,13.87-23.67,28.22-34.83,41.17-7.17,8.32-13.75,16.26-20.72,24.66l-.29,.35c-5.82,7-.58,19.36,1.16,22.98,3.39,7.04,10.06,7.95,15.49,7.95m286.51,196.79c2.52,0,5.11-.57,7.71-1.71l.99-.43-.5-.95c-.16-.3-.29-.57-.43-.83-.31-.61-.58-1.14-.91-1.66-4.79-7.46-9.58-14.91-14.38-22.36-4.79-7.45-9.58-14.9-14.37-22.36-13.68-21.29-14.81-42.05-3.46-63.46,10.74-20.25,21.52-40.92,31.95-60.9,11.8-22.62,24-46.02,36.2-68.92,4.13-7.76,9.33-15.15,14.37-22.29,1.53-2.17,3.11-4.42,4.64-6.64,.07-.1,6.91-10.4,5.7-12.99-2.63-5.64-5.48-11.89-8.23-17.93-2.93-6.43-5.97-13.08-8.77-19.07-1.02-2.18-5.11-7.95-7.31-11.05-.31-.44-.58-.82-.78-1.1-2.77-3.94-6.16-5.94-10.08-5.94-8.6,0-17.96,9.42-25.98,18.64l-14.85,17.07c-23.86,27.43-48.53,55.78-72.65,83.8-3.4,3.95-6.24,8.71-8,13.4-6.14,16.38-5.63,32.58,1.53,48.17,8.84,19.26,17.88,38.83,26.63,57.75,3.97,8.59,7.94,17.17,11.9,25.77,4.92,10.64,9.82,21.29,14.73,31.93,3.99,8.65,7.98,17.3,11.98,25.96,3.72,8.04,8,12.96,13.87,15.95,2.81,1.43,5.66,2.15,8.49,2.15M428.01,85.55c-1.61,0-3.08-.02-4.49-.05-.13,0-.25,0-.37,0-6.22,0-11.11,3.55-14.55,10.56-2.63,5.34,1.49,14.86,4.33,19.62,.11,.19,.22,.37,.33,.55,.18,.34,.39,.67,.65,1.02,.1,.15,.2,.3,.28,.41,.09,.14,.2,.3,.35,.48,.23,.33,.42,.57,.58,.77,8.42,10.56,16.83,21.12,25.24,31.69,22.13,27.79,45,56.53,67.7,84.64,10.11,12.53,24.12,20.23,40.52,22.26,10.2,1.27,20.66,1.79,30.77,2.29,4.21,.21,8.56,.43,12.83,.69,26.24,1.63,52.48,3.24,78.72,4.85,2.58,.16,5.15,.33,7.73,.51,6.47,.44,13.17,.9,19.74,1.05,.2,0,.39,.01,.57,.01h.06c.62,.01,1.27,.02,1.95,.02,10.73,0,17.09-2.28,19.45-6.97,3.2-6.41,2.18-17.62-2.11-23.07-5.86-7.45-11.81-15.03-17.84-22.7-25.28-32.18-51.42-65.46-76.17-96.31-10.71-13.34-31.09-23.14-50.7-24.37l-74.03-6c-7.37-.4-15.11-.74-22.59-1.06-6.76-.29-13.75-.59-20.41-.94-2.67-.14-5.59-.21-8.93-.21s-6.62,.07-9.85,.13c-3.21,.06-6.53,.13-9.76,.13m-70.36,72.43c-14.28,19.93-27.07,45.62-39.45,70.47-5.37,10.78-10.44,20.96-15.58,30.59-8.35,15.66-7.5,38.78,2.02,54.98,.43,.73,.86,1.68,1.32,2.68,.54,1.19,1.1,2.41,1.7,3.35,4.88,7.61,9.21,14.85,13.4,21.85,4.25,7.1,8.64,14.43,13.6,22.15,7.64,11.9,15.8,25.03,23.69,37.74,8.43,13.57,17.14,27.6,25.31,40.27,3.65,5.66,9.7,8.78,17.02,8.78,6.46,0,13.27-2.46,18.67-6.75,.24-.19,.49-.38,.7-.57,.24-.2,.47-.4,.7-.6,.89-.79,1.71-1.61,2.42-2.42,2.26-2.55,4.36-5.7,6.42-9.61,11.5-21.93,23.17-44.23,34.45-65.81,11.98-22.91,24.37-46.6,36.59-69.88,4.61-8.8,6.84-18.3,7.03-29.93-.02-13.02-3.64-23.16-12.1-33.93-6.88-8.74-13.75-17.49-20.62-26.24-5.36-6.82-10.72-13.65-16.08-20.47-4.11-5.23-8.21-10.46-12.31-15.7-10.5-13.4-21.36-27.25-32.14-40.79-5.05-6.34-12.76-13.9-20.83-13.9-3.61,0-6.91,1.54-9.79,4.58-1.07,1.13-2.04,1.49-3.07,1.88-1.4,.53-2.85,1.07-4.08,3.33-2.47,4.55-5.26,9.44-8.21,14.61-3.74,6.55-7.61,13.33-10.76,19.34M42.23,183.04h-.08c-9.6,.37-18.46,4.15-23.1,9.88-3.18,3.92-4.4,8.67-3.53,13.75,.1,.57,.2,1.18,.3,1.82,.6,3.71,1.35,8.32,2.78,11.43,11.06,24.06,22.17,48.57,32.92,72.27,9.18,20.24,18.67,41.17,28.08,61.73,6.97,15.21,21.97,31.49,39.79,33.58,4.34,.51,9.14,1.1,14.22,1.73,12.57,1.55,26.81,3.31,37.8,4.27,17.12,1.51,34.46,2.97,51.22,4.39,10.24,.87,20.49,1.73,30.78,2.61,3.19,.27,7.04,.78,11.11,1.31,5.61,.73,11.42,1.49,15.93,1.69,.25,.01,.5,.02,.75,.02,4.14,0,7.67-1.59,10.49-4.71,6.08-6.75,7.2-18.97,6.31-27.36-.04-.46-.09-.89-.15-1.33-.51-3.77-1.71-7.74-3.56-11.78-20.82-45.36-43-93.6-65.13-141.01-2.81-6-6.57-11.63-10.88-16.29-11.84-12.84-24.87-19.13-39.83-19.22-7.74-.05-16.04-.07-26.12-.07-6.69,0-13.39,0-20.08,.02-6.03,0-12.05,.02-18.08,.02l.2-.27h-2c-12.01,0-24.34,.39-36.26,.76-10.74,.34-21.85,.68-32.66,.75-.41,0-.82,.01-1.22,.03m496.53,85.9c-.44,.15-.87,.31-1.28,.46-.4,.15-.84,.31-1.24,.49-9.54,3.86-17.67,10.48-24.19,19.69-.06,.07-.11,.14-.16,.22-1.57,2.22-3.05,4.61-4.52,7.31-18.3,33.82-36.3,68.54-53.7,102.11-6.03,11.63-12.27,23.66-18.42,35.47-1.74,3.32-3.02,6.59-3.81,9.73-.67,2.65-.97,5.26-.88,7.73l-.03,.1c-1.07,4.24-.43,8.23,1.9,11.85,4.49,6.99,14.25,10.97,21.89,12.38,1.71,.31,5.96,1.03,8.62,1.03,.22,0,.42,0,.61-.01,12.06-.62,24.19-1.37,35.91-2.1,10.48-.65,21.32-1.32,32.13-1.9l78.04-7c14.92-1.96,32.55-14.04,39.3-26.93,5.08-9.72,10.16-19.43,15.24-29.15,17.49-33.44,35.57-68.02,53.28-102.07,1.75-3.38,3.09-7.28,3.86-11.29,1.17-6.11,0-11.91-3.31-16.33-3.35-4.49-8.69-7.3-15.03-7.93-1.77-.17-3.83-.37-5.89-.49l-25.19-1.48c-33.02-1.94-67.17-3.94-100.75-5.86-1.97-.11-3.95-.17-5.89-.17-9.12,0-17.57,1.24-25.08,3.68-.37,.11-.78,.25-1.23,.41-.07,.02-.13,.04-.19,.07M320.51,.5h-24.96c-9.15,.23-18.29,.58-27.44,.67-33.74,.34-67.48,.16-101.2,1.04-21.42,.56-40.3,8.95-54.48,25.04C79.73,64.39,47.66,102.09,15.48,139.68c-7.58,8.86-12.74,19.06-14.36,30.81-.08,.57-.41,1.11-.62,1.67v12.47c2.37,8.56,3.88,17.46,7.27,25.59,7.61,18.26,16.08,36.16,24.33,54.15,14.31,31.2,28.91,62.27,43.04,93.55,9.29,20.54,24.68,32.78,46.98,35.78,12.59,1.69,25.3,2.51,37.96,3.62,29.96,2.63,59.93,5.24,89.9,7.78,8.93,.76,17.9,2.04,26.81,2.04,.94,0,1.87-.01,2.81-.04,20.86-.66,39.59-8.03,56.35-20.41,.96-.71,1.94-1.39,3.04-2.18,.7,.97,1.31,1.72,1.81,2.53,10.32,16.64,20.37,33.47,31.03,49.9,10.13,15.62,23.21,28.29,40.02,36.82,12.39,6.29,25.29,10.65,39.17,10.65,1.12,0,2.25-.03,3.39-.09,39.09-1.98,78.16-4.11,117.23-6.34,12.2-.7,24.46-1.25,36.52-3,20.91-3.05,36.25-13.75,46.11-33.19,21.39-42.17,43.84-83.79,65.42-125.86,4.98-9.71,9.09-20.08,12.01-30.59,5.37-19.26,3.63-37.77-9.29-54.18-30.03-38.13-59.78-76.48-90.1-114.37-13.5-16.87-31.7-26.25-53.28-28.29-12.16-1.14-24.41-1.47-36.62-2.13-30.28-1.65-60.56-3.37-90.85-4.87-7.15-.35-14.33-1.18-21.49-1.18-5.04,0-10.06,.41-15.05,1.69-6.3,1.61-12.34,4.2-18.73,6.42-5.32-11.5-10.78-23.36-16.3-35.2-5.08-10.9-11.16-21.19-19.14-30.26-8.57-9.74-18.63-17.27-31.41-20.59-2.94-.76-5.95-1.26-8.93-1.88h0ZM36.38,175.79c-6.1,0-11.63-1.22-14.59-7.38-3.26-6.78-5.77-16.52-1.29-21.91,7.1-8.56,13.74-16.57,21-25,24.89-28.9,52.92-63.27,78-92,12.18-13.95,30.12-20.94,48.55-21.25,49.03-.83,98.07-1.02,147.11-1.48h.1c6.69,0,23.49,6.17,21.24,16.73-1.47,6.89-4.34,12.2-8.67,17.41-.17,.22-.36,.43-.54,.65-9.83,11.54-19.89,22.89-29.86,34.31-21.95,25.14-43.8,50.37-65.91,75.38-12.53,14.18-28.63,21.53-47.48,22.06-24.57,.69-49.15,.83-63.74,1.05-34.32,.58-58.66,.95-82.99,1.42-.31,0-.62,0-.93,0h0Zm286.52,196.79c-2.72,0-5.38-.7-8.03-2.04-6.56-3.34-10.44-9.04-13.42-15.48-8.91-19.3-17.8-38.6-26.71-57.89-12.85-27.84-25.75-55.65-38.53-83.51-7.14-15.55-7.46-31.51-1.5-47.4,1.76-4.7,4.54-9.29,7.82-13.1,29.04-33.73,58.29-67.28,87.5-100.87,7.65-8.79,17.04-18.29,25.22-18.29,3.36,0,6.51,1.6,9.26,5.51,1.54,2.19,6.87,9.58,8,12,5.43,11.62,11.58,25.37,17,37,.78,1.68-4.41,10.24-5.62,12-6.56,9.54-13.65,18.85-19.07,29.03-22.98,43.13-45.25,86.64-68.15,129.82-11.88,22.41-9.88,43.64,3.5,64.47,9.58,14.91,19.17,29.81,28.75,44.72,.44,.69,.78,1.44,1.29,2.41-2.5,1.09-4.93,1.62-7.31,1.62h0ZM428.01,86.55c6.5,0,13.09-.26,19.62-.26,2.98,0,5.94,.05,8.88,.21,14.04,.74,28.96,1.23,43,2l74,6c17.97,1.13,38.83,10.08,50,24,30.68,38.23,63.7,80.47,94,119,4.02,5.11,5.02,15.96,2,22-2.82,5.62-11.81,6.42-18.55,6.42-.67,0-1.31,0-1.93-.02-.2,0-.4,0-.6-.01-9.16-.22-18.31-1-27.46-1.56-26.24-1.61-52.48-3.22-78.72-4.85-14.52-.91-29.12-1.19-43.53-2.98-15.93-1.98-29.74-9.35-39.87-21.9-31.18-38.61-61.99-77.52-92.94-116.32-.19-.23-.38-.49-.57-.76-.12-.14-.21-.27-.3-.41-.1-.14-.2-.29-.3-.44-.23-.31-.43-.62-.6-.94-.11-.18-.22-.36-.33-.55-3.28-5.5-6.55-14.11-4.3-18.68,2.96-6.05,7.36-10,13.65-10,.12,0,.23,0,.35,0,1.5,.03,3,.05,4.51,.05h0Zm-27.33,363.27c-6.42,0-12.45-2.54-16.18-8.32-15.83-24.55-33.22-53.42-49-78-9.84-15.32-17.17-28.67-27-44-1.05-1.64-2.01-4.32-3-6-9.07-15.42-10.48-38.1-2-54,17.14-32.12,34.65-72.61,55-101,5.55-10.61,13.29-23.48,19-34,1.91-3.51,4.27-2.12,7-5,2.85-3.01,5.93-4.27,9.07-4.27,6.99,0,14.28,6.27,20.05,13.52,14.93,18.73,29.65,37.64,44.45,56.48,12.24,15.57,24.46,31.15,36.7,46.71,8.35,10.62,11.87,20.7,11.89,33.31-.18,10.94-2.21,20.47-6.92,29.46-23.73,45.21-47.32,90.48-71.04,135.69-1.75,3.33-3.8,6.61-6.28,9.41-.73,.83-1.52,1.61-2.34,2.34-.22,.2-.44,.39-.67,.58-.22,.19-.45,.37-.68,.55-5.23,4.15-11.83,6.54-18.05,6.54h0ZM112.37,182.5c-.06,.08-.14,.19-.2,.27,13.39,0,26.77-.04,40.16-.04,8.7,0,17.4,.02,26.11,.07,15.96,.1,28.66,7.58,39.1,18.9,4.32,4.67,8.01,10.27,10.71,16.04,21.9,46.91,43.53,93.95,65.13,141,1.66,3.62,2.95,7.57,3.48,11.5,.06,.43,.11,.85,.15,1.29,1.43,13.61-2.62,30.99-15.8,30.99-.23,0-.47,0-.71-.02-7.69-.35-19.33-2.34-27-3-27.41-2.35-54.6-4.59-82-7-15.34-1.35-36.71-4.2-52-6-17.04-2-31.81-17.31-39-33-20.44-44.64-40.5-89.39-61-134-1.61-3.51-2.35-9.2-3-13-2.35-13.79,11.61-21.92,25.69-22.46h.07c.39-.02,.79-.03,1.19-.03,22.82-.14,46.1-1.5,68.92-1.51h0ZM462.94,476.51c-2.4,0-6.35-.63-8.44-1.01-12.1-2.22-26.24-10.18-23-23,.02-.08,.04-.16,.06-.25h0c-.09-2.39,.18-4.93,.85-7.58,.83-3.28,2.16-6.51,3.73-9.51,23.93-45.92,47.48-92.04,72.12-137.57,1.4-2.57,2.89-5,4.51-7.28,.01-.03,.02-.05,.05-.07,6.31-8.95,14.26-15.56,23.8-19.42,.4-.18,.8-.33,1.21-.48,.42-.16,.84-.32,1.27-.46,.05-.02,.11-.04,.17-.06,.39-.14,.8-.28,1.2-.4,7.7-2.5,16.14-3.64,24.79-3.64,1.94,0,3.88,.06,5.83,.17,41.98,2.4,83.96,4.88,125.94,7.34,1.96,.12,3.9,.3,5.85,.49,12.36,1.22,19.79,10.86,17.45,23.08-.73,3.78-2,7.61-3.77,11.02-22.76,43.78-45.66,87.49-68.52,131.22-6.87,13.13-24.58,24.57-38.54,26.4l-78,7c-22.83,1.22-45.17,2.83-68,4-.18,0-.36,.01-.56,.01h0Z"/></g><path class="cls-1" d="M295.55,.5c-9.15,.23-18.29,.58-27.44,.67-33.73,.34-67.48,.15-101.2,1.04-21.42,.56-40.3,8.95-54.48,25.04C79.73,64.39,47.66,102.09,15.48,139.68c-7.58,8.86-12.74,19.06-14.36,30.81-.08,.57-.41,1.11-.62,1.67,0-57.17,0-114.35,0-171.66,98.35,0,196.7,0,295.05,0Z"/><g><path class="cls-2" d="M400.68,449.32c-6.79,0-12.39-2.87-15.76-8.09-8.16-12.66-16.87-26.68-25.3-40.24-7.89-12.71-16.06-25.85-23.7-37.76-4.94-7.7-9.33-15.02-13.57-22.11-4.2-7.01-8.54-14.26-13.43-21.89-.54-.85-1.08-2.03-1.6-3.16-.45-.99-.92-2.02-1.39-2.82-9.28-15.77-10.11-38.28-1.99-53.51,5.15-9.64,10.22-19.83,15.6-30.62,12.36-24.82,25.15-50.48,39.37-70.32,3.18-6.06,7.05-12.85,10.8-19.42,2.96-5.18,5.75-10.07,8.23-14.64,.96-1.77,1.99-2.15,3.29-2.64,1.09-.41,2.33-.87,3.63-2.25,2.59-2.73,5.52-4.12,8.71-4.12,5.83,0,12.81,4.74,19.66,13.33,10.79,13.53,21.64,27.38,32.14,40.78,4.1,5.23,8.2,10.47,12.31,15.7,5.42,6.9,10.84,13.8,16.26,20.7,6.81,8.67,13.62,17.34,20.44,26.01,8.24,10.48,11.76,20.35,11.78,33-.19,11.36-2.37,20.65-6.86,29.23-12.25,23.33-24.46,46.69-36.67,70.04-11.45,21.89-22.89,43.78-34.37,65.66-2,3.8-4.03,6.85-6.21,9.31-.68,.77-1.45,1.54-2.3,2.3-.22,.2-.43,.38-.66,.57-.21,.18-.42,.35-.64,.51-5.19,4.12-11.65,6.46-17.78,6.46h0Zm-22.79-168.64l-.46,.15,.13,.47c.48,1.7,.9,3.47,1.31,5.19,.9,3.77,1.82,7.67,3.5,11.17,3.29,6.89,8.91,11,15.02,11,5.39,0,10.47-3.06,14.29-8.61,8.6-12.49,9.64-26.23,3-39.72-3.31-6.72-8.68-10.58-14.74-10.58-5.26,0-10.34,2.9-14.3,8.17-4.69,6.24-7.02,13.63-7.13,22.58l-.62,.19Z"/><path d="M393.57,116.23c5.68,0,12.52,4.67,19.27,13.15,10.79,13.53,21.64,27.38,32.14,40.78,4.1,5.23,8.2,10.46,12.31,15.69,5.36,6.82,10.72,13.65,16.08,20.47,6.87,8.75,13.74,17.5,20.62,26.24,8.16,10.38,11.66,20.16,11.68,32.68-.19,11.29-2.35,20.5-6.81,29.01-12.22,23.28-24.61,46.97-36.59,69.88-11.28,21.58-22.95,43.89-34.45,65.81-1.98,3.77-3.99,6.78-6.15,9.21-.66,.76-1.42,1.51-2.26,2.26-.21,.19-.42,.37-.65,.56-.21,.18-.43,.35-.65,.52-5.06,4.02-11.42,6.32-17.43,6.32-6.62,0-12.06-2.79-15.33-7.86-8.16-12.65-16.87-26.68-25.29-40.24-7.9-12.71-16.06-25.85-23.71-37.76-4.94-7.69-9.33-15.02-13.57-22.1-4.2-7.01-8.54-14.27-13.43-21.9-.53-.82-1.05-1.98-1.57-3.1-.46-1-.93-2.04-1.42-2.86-9.2-15.63-10.03-37.93-1.98-53.02,5.15-9.65,10.23-19.84,15.6-30.63,12.35-24.8,25.13-50.44,39.33-70.25l.04-.06,.03-.06c3.14-6,7.01-12.78,10.76-19.34,2.96-5.18,5.76-10.08,8.23-14.64,.87-1.61,1.78-1.95,3.03-2.41,1.09-.41,2.44-.91,3.82-2.38,2.49-2.63,5.3-3.96,8.34-3.96m-15.56,163.89c-.09,.03-.19,.06-.28,.08l-.93,.29,.27,.94c.48,1.69,.9,3.46,1.31,5.16,.9,3.8,1.83,7.72,3.53,11.27,3.38,7.07,9.16,11.29,15.48,11.29,5.56,0,10.78-3.13,14.7-8.82,8.71-12.65,9.76-26.56,3.03-40.23-3.4-6.9-8.93-10.85-15.19-10.85-5.42,0-10.64,2.97-14.7,8.37-4.69,6.24-7.06,13.61-7.22,22.5m15.56-164.89c-3.14,0-6.22,1.26-9.07,4.27-2.73,2.88-5.09,1.49-7,5-5.71,10.52-13.45,23.39-19,34-20.35,28.39-37.86,68.88-55,101-8.48,15.9-7.07,38.58,2,54,.99,1.68,1.95,4.36,3,6,9.83,15.33,17.16,28.68,27,44,15.78,24.58,33.17,53.45,49,78,3.73,5.78,9.76,8.32,16.18,8.32s12.83-2.39,18.05-6.54c.23-.18,.46-.36,.68-.55,.23-.19,.45-.38,.67-.58,.82-.73,1.61-1.51,2.34-2.34,2.48-2.8,4.53-6.08,6.28-9.41,23.72-45.21,47.31-90.48,71.04-135.69,4.71-8.99,6.74-18.52,6.92-29.46-.02-12.61-3.54-22.69-11.89-33.31-12.24-15.56-24.46-31.14-36.7-46.71-14.8-18.84-29.52-37.75-44.45-56.48-5.77-7.25-13.06-13.52-20.05-13.52h0Zm3.81,192.93c-5.67,0-11.18-3.63-14.57-10.72-2.41-5.04-3.23-10.83-4.78-16.28,.32-.1,.65-.19,.97-.29,.04-8.26,2-15.96,7.03-22.65,4-5.33,9.03-7.97,13.9-7.97,5.57,0,10.93,3.45,14.29,10.3,6.62,13.46,5.5,26.93-2.96,39.22-3.88,5.63-8.94,8.39-13.88,8.39h0Z"/></g><path class="cls-3" d="M112.04,182.77c0,.14,.06,.1,.13,0h-.13Zm.33-.27h.13c0-.14-.06-.1-.13,0Z"/><g><path class="cls-2" d="M281.21,402.02c-.22,0-.45,0-.68-.02-4.45-.2-10.22-.96-15.8-1.68-4.09-.53-7.95-1.04-11.18-1.31-10.24-.88-20.45-1.74-30.65-2.6-16.81-1.42-34.18-2.89-51.35-4.4-10.97-.96-25.19-2.72-37.74-4.27-5.05-.62-9.9-1.22-14.25-1.73-17.24-2.02-31.81-17.89-38.6-32.71-9.41-20.56-18.9-41.49-28.08-61.73-10.75-23.7-21.86-48.21-32.92-72.27-1.34-2.92-2.07-7.42-2.66-11.04-.1-.65-.21-1.26-.3-1.83-.8-4.71,.28-8.93,3.22-12.55,4.38-5.4,12.81-8.97,22-9.32,.46-.02,.85-.03,1.24-.03,10.84-.07,21.96-.41,32.71-.75,11.58-.36,23.54-.73,35.21-.76l-.2,.27h.37l.53,.09c.12,0,.22-.04,.3-.09,6.63,0,13.26,0,19.89-.02,6.7,0,13.39-.02,20.09-.02,10.06,0,18.35,.02,26.08,.07,14.52,.09,27.19,6.22,38.74,18.74,4.21,4.55,7.88,10.05,10.62,15.91,22.15,47.45,44.32,95.67,65.13,141,1.79,3.91,2.95,7.73,3.44,11.36,.06,.42,.11,.84,.15,1.27,.85,8.11-.19,19.84-5.93,26.22-2.52,2.8-5.67,4.22-9.37,4.22h0Zm-42.93-73.03c-5.29,0-9.62,1.76-12.51,5.09-3.07,3.55-4.25,8.54-3.41,14.44,2.17,15.21,19.38,30.22,34.74,30.31h.13c5.39,0,9.81-1.78,12.76-5.14,2.98-3.39,4.18-8.05,3.48-13.48-1.88-14.65-16.85-29.15-32.04-31.02-1.08-.13-2.15-.2-3.17-.2Zm-88.56-65.44c-5.16,0-9.62,1.95-12.56,5.49-3.07,3.7-4.19,8.79-3.16,14.31,2.74,14.58,17.46,28.34,32.15,30.03,.95,.11,1.89,.16,2.8,.16,9.9,0,16.38-6.32,16.52-16.09-.1-.65-.18-1.21-.25-1.78-.17-1.23-.35-2.5-.65-3.74-3.43-13.99-17.54-26.38-32.12-28.22-.92-.12-1.84-.17-2.73-.17Zm-88.84-63.27c-9.75,0-16.3,6.39-16.3,15.9,0,7.65,4.21,16.32,11.28,23.18,7.04,6.84,15.88,10.92,23.65,10.92,.41,0,.82-.01,1.23-.03,5.08-.28,9.4-2.31,12.17-5.71,2.75-3.39,3.85-8,3.09-12.98-2.31-15.2-17.17-29.45-32.45-31.12-.9-.1-1.79-.15-2.66-.15Z"/><path d="M111.29,183.5c.2,.24,.5,.36,.78,.36,.12,0,.27-.02,.42-.09,6.58,0,13.17,0,19.75-.02,6.69,0,13.38-.02,20.08-.02,10.07,0,18.37,.02,26.11,.07,14.37,.09,26.92,6.17,38.37,18.58,4.17,4.51,7.82,9.97,10.54,15.78,22.13,47.4,44.31,95.64,65.13,140.99,1.77,3.86,2.92,7.64,3.4,11.22,.06,.41,.11,.82,.15,1.26,.84,8-.17,19.57-5.81,25.83-2.42,2.69-5.45,4.05-9,4.05-.22,0-.44,0-.66-.02-4.42-.2-10.19-.95-15.76-1.68-4.1-.53-7.96-1.04-11.2-1.32-10.29-.88-20.54-1.75-30.79-2.61-16.76-1.42-34.09-2.88-51.2-4.39-10.96-.96-25.19-2.72-37.74-4.27-5.08-.63-9.89-1.22-14.24-1.73-17.05-2-31.47-17.73-38.21-32.42-9.41-20.56-18.9-41.48-28.08-61.72-10.75-23.7-21.86-48.21-32.92-72.28-1.31-2.86-2.04-7.32-2.62-10.91-.11-.65-.21-1.27-.3-1.84-.78-4.56,.27-8.65,3.12-12.16,4.29-5.29,12.58-8.79,21.59-9.14h.12c.37-.02,.76-.03,1.14-.03,10.84-.07,21.96-.41,32.72-.75,11.55-.36,23.48-.73,35.12-.76m-31.78,67.26c.42,0,.84-.01,1.25-.03,5.22-.29,9.67-2.38,12.53-5.9,2.84-3.5,3.98-8.25,3.2-13.37-2.34-15.41-17.41-29.85-32.89-31.54-.92-.1-1.83-.15-2.71-.15-10.05,0-16.8,6.59-16.8,16.39,0,7.9,4.16,16.48,11.43,23.54,7.13,6.93,16.1,11.06,23.99,11.06m89.45,63.28c10.04,0,16.88-6.67,17.02-16.59v-.17c-.1-.56-.18-1.12-.26-1.68-.17-1.24-.35-2.52-.66-3.78-3.47-14.17-17.77-26.73-32.55-28.59-.94-.12-1.88-.18-2.79-.18-5.31,0-9.91,2.01-12.94,5.67-3.17,3.82-4.33,9.05-3.26,14.72,2.77,14.78,17.7,28.72,32.59,30.44,.97,.11,1.93,.17,2.85,.17m88.28,65.28c5.54,0,10.08-1.84,13.14-5.31,3.08-3.5,4.32-8.3,3.6-13.87-.92-7.15-4.98-14.67-11.15-20.64-6.16-5.96-13.93-9.9-21.32-10.81-1.1-.14-2.19-.21-3.23-.21-5.44,0-9.9,1.82-12.88,5.26-3.17,3.66-4.39,8.79-3.53,14.84,2.2,15.42,19.65,30.65,35.23,30.74h.14M112.37,182.5c-22.82,.01-46.1,1.37-68.92,1.51-.4,0-.8,0-1.19,.03h-.07c-14.08,.54-28.04,8.67-25.69,22.46,.65,3.8,1.39,9.49,3,13,20.5,44.61,40.56,89.36,61,134,7.19,15.69,21.96,31,39,33,15.29,1.8,36.66,4.65,52,6,27.4,2.41,54.59,4.65,82,7,7.67,.66,19.31,2.65,27,3,.24,.01,.47,.02,.71,.02,13.19,0,17.24-17.38,15.8-30.99-.04-.44-.09-.86-.15-1.29-.53-3.93-1.82-7.88-3.48-11.5-21.6-47.05-43.23-94.09-65.13-141-2.7-5.77-6.39-11.37-10.71-16.04-10.44-11.32-23.14-18.8-39.1-18.9-8.71-.05-17.41-.07-26.12-.07-13.39,0-26.77,.04-40.15,.04-.04,.05-.07,.09-.1,.09-.02,0-.03-.03-.03-.09h.13c.06-.08,.14-.19,.2-.27h0Zm-32.86,67.26c-16.22,0-34.43-17.54-34.42-33.6,0-9.38,6.33-15.4,15.8-15.4,.84,0,1.71,.05,2.6,.15,15,1.64,29.74,15.78,32.01,30.7,1.53,10.04-4.61,17.56-14.79,18.12-.4,.02-.8,.03-1.2,.03h0Zm89.45,63.28c-.89,0-1.8-.05-2.74-.16-14.55-1.68-29.01-15.19-31.72-29.63-2.06-10.98,4.74-19.21,15.22-19.21,.87,0,1.76,.06,2.67,.17,14.45,1.82,28.3,13.96,31.7,27.84,.43,1.77,.6,3.59,.89,5.39-.14,9.5-6.52,15.6-16.02,15.6h0Zm88.28,65.28h-.13c-15.08-.09-32.12-14.95-34.25-29.88-1.64-11.45,4.68-18.96,15.42-18.96,1,0,2.04,.06,3.11,.2,15.07,1.86,29.73,16.05,31.6,30.59,1.38,10.73-5.02,18.05-15.75,18.05h0Z"/></g><path class="cls-3" d="M512.82,290.24c6.31-8.95,14.26-15.56,23.8-19.42-9.79,3.88-18.13,10.19-23.8,19.42Z"/><g><path class="cls-2" d="M462.94,476.01c-2.61,0-7.05-.77-8.35-1.01-7.33-1.34-16.67-5.13-20.9-11.71-2.1-3.27-2.67-6.86-1.71-10.68l.08-.32,.26-1.03c1.06-4.19,3.26-12.91,4.62-15.54,5.75-11.03,11.65-22.39,17.62-33.92,19-36.62,38.65-74.49,57.37-109.08,.43-.79,.84-1.49,1.24-2.14l.05-.07c6.35-9.01,14.28-15.48,23.58-19.25,.41-.18,.8-.33,1.19-.47,.42-.16,.84-.31,1.26-.46l.16-.06c.4-.14,.79-.27,1.19-.4,7.39-2.4,15.67-3.62,24.64-3.62,1.91,0,3.86,.06,5.8,.17,33.57,1.92,67.69,3.92,100.7,5.86l25.24,1.48c2.03,.12,4.08,.32,5.83,.49,5.91,.58,10.88,3.19,13.97,7.33,3.05,4.08,4.12,9.46,3.03,15.16-.75,3.87-2.04,7.63-3.72,10.88-17.79,34.22-35.96,68.97-53.54,102.57l-14.98,28.65c-6.55,12.51-23.67,24.24-38.16,26.14l-77.98,7c-10.76,.58-21.61,1.25-32.09,1.9-11.72,.73-23.84,1.48-35.89,2.1-.17,0-.35,.01-.54,.01Zm25.14-68.2c-15.34,.07-32,13.9-34.95,29.01-1.03,5.28-.12,9.95,2.64,13.5,2.75,3.55,7.26,5.68,12.69,5.99,.44,.03,.87,.04,1.31,.04,15.24,0,32.82-15.05,34.83-29.82,.75-5.51-.41-10.2-3.36-13.57-2.95-3.38-7.45-5.16-13.02-5.16h-.14Zm97.16-58.69c-14.77,.03-31.3,13.15-34.7,27.52-1.42,6.01-.51,11.45,2.55,15.32,2.94,3.71,7.72,5.76,13.46,5.76,15.03-.03,31.99-13.97,34.93-28.68,1.13-5.65,.12-10.75-2.84-14.36-2.94-3.58-7.67-5.55-13.35-5.55h-.07Zm89.88-60.59c-15.17,.3-31.36,13.63-34.65,28.51-1.23,5.56-.28,10.64,2.66,14.31,2.95,3.68,7.72,5.71,13.44,5.72,15.17,0,31.82-13.38,34.98-28.06,1.25-5.81,.25-11.09-2.79-14.86-2.93-3.63-7.6-5.62-13.15-5.62-.16,0-.33,0-.49,0Z"/><path d="M565.26,266.78c1.9,0,3.84,.06,5.77,.17,33.61,1.92,67.78,3.93,100.83,5.87l25.11,1.47c2.02,.12,4.06,.32,5.81,.49,5.77,.57,10.61,3.1,13.62,7.14,2.96,3.96,4.01,9.21,2.94,14.76-.74,3.82-2.01,7.54-3.68,10.75-17.71,34.06-35.8,68.66-53.3,102.11-5.07,9.7-10.15,19.4-15.22,29.11-6.48,12.38-23.43,23.99-37.74,25.87l-77.96,7c-10.78,.58-21.62,1.25-32.11,1.9-11.72,.73-23.84,1.48-35.89,2.1-.16,0-.33,.01-.51,.01-2.56,0-6.97-.76-8.26-1-7.23-1.33-16.43-5.04-20.57-11.49-2.02-3.14-2.57-6.6-1.64-10.29,.02-.09,.04-.18,.07-.27v-.04l.27-1.03c.97-3.85,3.24-12.86,4.58-15.43,5.75-11.03,11.64-22.38,17.61-33.89,19.01-36.63,38.66-74.51,57.38-109.09,.42-.77,.82-1.46,1.22-2.11l.04-.05c6.3-8.93,14.15-15.35,23.39-19.08,.38-.17,.77-.32,1.16-.46,.41-.16,.82-.3,1.29-.47,.03-.01,.07-.03,.14-.05,.38-.14,.77-.26,1.17-.39,7.33-2.38,15.57-3.59,24.48-3.59m91.36,70.79h0c15.34,0,32.22-13.57,35.42-28.46,1.28-5.96,.25-11.39-2.89-15.28-3.03-3.75-7.83-5.81-13.53-5.81-.17,0-.33,0-.5,0-15.38,.31-31.79,13.81-35.13,28.9-1.26,5.71-.28,10.94,2.76,14.73,3.05,3.8,7.96,5.9,13.82,5.91h.05m-90.06,60.65h.04c15.2-.03,32.39-14.16,35.38-29.08,1.16-5.8,.12-11.05-2.94-14.78-3.03-3.7-7.91-5.74-13.73-5.74h-.07c-14.97,.03-31.74,13.33-35.18,27.91-1.45,6.16-.51,11.75,2.65,15.74,3.04,3.84,7.96,5.95,13.86,5.95m-96.8,58.64c7.39,0,15.65-3.43,22.68-9.42,7.06-6.01,11.67-13.61,12.65-20.84,.77-5.65-.44-10.48-3.48-13.96-3.05-3.49-7.68-5.33-13.4-5.33h-.14c-15.56,.07-32.45,14.09-35.44,29.42-1.05,5.35-.08,10.29,2.73,13.9,2.84,3.67,7.48,5.86,13.05,6.19,.44,.03,.89,.04,1.34,.04m95.5-191.08c-8.65,0-17.09,1.14-24.79,3.64-.41,.13-.81,.26-1.2,.4-.06,.02-.12,.04-.17,.06-.43,.15-.85,.3-1.27,.46-.41,.15-.81,.3-1.21,.48-9.54,3.86-17.49,10.47-23.8,19.42-.03,.02-.04,.04-.05,.07-.44,.71-.86,1.44-1.27,2.19-24.64,45.53-51.07,97.08-75,143-1.53,2.94-4.04,13.2-4.94,16.74h0c-.02,.1-.04,.18-.06,.26-3.24,12.82,10.9,20.78,23,23,2.09,.38,6.04,1.01,8.44,1.01,.2,0,.39,0,.56-.01,22.83-1.17,45.17-2.78,68-4l78-7c13.96-1.83,31.67-13.27,38.54-26.4,22.86-43.73,45.76-87.44,68.52-131.22,1.77-3.41,3.04-7.24,3.77-11.02,2.34-12.22-5.09-21.86-17.45-23.08-1.95-.19-3.89-.37-5.85-.49-41.98-2.46-83.96-4.94-125.94-7.34-1.95-.11-3.9-.17-5.83-.17h0Zm91.36,70.79h-.05c-11.48-.02-18.08-8.23-15.61-19.42,3.24-14.66,19.21-27.82,34.17-28.12,.16,0,.32,0,.48,0,11.35,0,17.91,8.38,15.45,19.88-3.09,14.36-19.66,27.67-34.44,27.67h0Zm-90.06,60.65c-11.79,0-18.33-8.59-15.53-20.46,3.31-14.03,19.79-27.11,34.21-27.14h.06c11.46,0,17.96,8,15.7,19.32-2.91,14.55-19.57,28.25-34.4,28.28h-.04Zm-96.8,58.64c-.43,0-.86-.01-1.28-.04-10.84-.63-16.92-8.36-14.86-18.9,2.9-14.86,19.38-28.54,34.46-28.61h.14c11.04,0,17.37,7.22,15.88,18.16-2,14.71-19.38,29.39-34.34,29.39h0Z"/></g><g><path class="cls-2" d="M36.38,175.29c-5.3,0-11.13-.84-14.14-7.1-3.39-7.05-5.52-16.36-1.36-21.37l.27-.33c6.97-8.41,13.56-16.34,20.72-24.66,11.17-12.97,23.2-27.31,34.84-41.19,14.42-17.19,29.33-34.97,43.16-50.81,11.41-13.07,28.98-20.76,48.18-21.08,34.48-.58,69.55-.86,103.46-1.12,14.55-.11,29.1-.23,43.64-.36,5.03,0,14.54,3.23,18.8,8.5,1.93,2.38,2.62,4.95,2.05,7.63-1.37,6.41-4.01,11.71-8.57,17.19-.11,.14-.21,.26-.32,.38l-.23,.27c-7.1,8.34-14.45,16.72-21.56,24.83-2.76,3.15-5.53,6.31-8.29,9.46-6.23,7.14-12.46,14.28-18.68,21.43-15.44,17.72-31.4,36.04-47.23,53.95-12.37,13.99-28.22,21.36-47.12,21.89-18.13,.51-36.02,.72-50.4,.88-5.01,.06-9.52,.11-13.34,.17-10.74,.18-20.5,.34-29.58,.49-19.69,.32-36.69,.6-53.41,.93-.31,0-.62,0-.92,0Zm41.54-53.59c-13.14,0-26.06,6.78-31.42,16.48-2.71,4.91-3.14,9.91-1.21,14.07,1.88,4.05,5.82,6.86,11.1,7.92,2.4,.48,4.79,.73,7.1,.73,9.3,0,17.79-3.89,25.24-11.56,6.03-6.24,7.66-12.29,4.96-18.51-3.33-7.68-10.57-8.89-15.73-9.13h-.05Zm125.87-12.38c-13.13,0-27.12,7.6-33.25,18.08-3.22,5.49-3.83,11.13-1.72,15.88,2.11,4.75,6.69,8.09,12.92,9.39,1.51,.31,3.05,.45,4.18,.55,.41,.04,.77,.07,1.06,.1h.19c14.1,0,28.62-7.81,34.54-18.59,2.95-5.38,3.44-10.87,1.38-15.46-2.04-4.56-6.43-7.83-12.35-9.2-2.2-.51-4.54-.76-6.95-.76ZM283.42,25.82c-9.2,0-17.62,3.79-25.02,11.27-6.25,6.31-7.99,12.44-5.31,18.74,3.08,7.23,9.47,8.93,18.12,9.25,13.15-.83,22.88-6.38,28.98-16.49,2.84-4.72,3.36-9.64,1.47-13.87-1.89-4.22-6.09-7.22-11.52-8.25-2.27-.43-4.52-.65-6.71-.65Zm-122.17-.39c-11.86,.79-20.76,5.7-26.46,14.59-2.93,4.57-3.56,9.33-1.78,13.39,1.76,4.01,5.8,6.83,11.07,7.75,1.95,.34,3.89,.51,5.76,.51,8.59,0,16.42-3.53,23.26-10.48,5.52-5.62,7.11-11.39,4.72-17.15-3.06-7.38-10.13-8.31-16.52-8.61h-.06Z"/><path d="M315.26,7.77c4.84,0,14.15,3.16,18.32,8.31,1.83,2.26,2.49,4.69,1.95,7.21-1.35,6.33-3.96,11.56-8.48,17.01-.09,.12-.19,.24-.29,.36-.08,.09-.15,.18-.22,.26-7.11,8.35-14.46,16.74-21.58,24.85-2.76,3.15-5.52,6.3-8.28,9.45-6.22,7.12-12.42,14.25-18.63,21.37-15.45,17.74-31.43,36.08-47.27,54-12.27,13.89-28,21.2-46.76,21.72-18.12,.51-36,.72-50.37,.88-5.02,.06-9.53,.11-13.36,.17-10.72,.18-20.46,.34-29.54,.49-19.7,.32-36.72,.61-53.45,.93-.31,0-.61,0-.91,0-5.41,0-10.81-.83-13.69-6.81-3.32-6.91-5.44-16.01-1.42-20.84l.29-.35c6.96-8.4,13.54-16.33,20.7-24.63,11.17-12.97,23.2-27.32,34.84-41.19,14.42-17.19,29.33-34.97,43.15-50.8,11.32-12.97,28.75-20.59,47.81-20.91,34.48-.58,69.55-.86,103.46-1.12,14.31-.11,29.1-.23,43.65-.36h.09M149.86,62.17c8.73,0,16.68-3.58,23.62-10.63,5.68-5.78,7.3-11.73,4.82-17.69-3.17-7.65-10.42-8.61-16.96-8.92h-.11c-12.03,.8-21.06,5.79-26.85,14.82-2.98,4.65-3.64,9.71-1.81,13.87,1.83,4.16,6,7.09,11.45,8.04,1.97,.34,3.94,.52,5.85,.52m121.38,3.41h.05c13.27-.85,23.14-6.48,29.32-16.74,2.93-4.86,3.46-9.95,1.49-14.33-1.96-4.37-6.29-7.48-11.89-8.54-2.3-.43-4.59-.65-6.8-.65-9.34,0-17.88,3.84-25.37,11.41-6.41,6.47-8.18,12.78-5.42,19.29,1.99,4.68,5.62,9.07,18.56,9.56h.05m-84.07,88.25c14.27,0,28.98-7.93,34.97-18.85,3.03-5.52,3.52-11.17,1.4-15.9-2.11-4.71-6.62-8.08-12.69-9.48-2.24-.52-4.61-.78-7.06-.78-13.3,0-27.46,7.71-33.68,18.33-3.3,5.63-3.92,11.43-1.75,16.34,2.17,4.9,6.89,8.34,13.28,9.68,1.54,.32,3.1,.46,4.23,.56,.41,.04,.76,.07,1.05,.1h.25m-123.67,7.57c9.44,0,18.05-3.94,25.6-11.71,6.19-6.4,7.85-12.63,5.06-19.05-3.44-7.93-10.87-9.18-16.16-9.43h-.08c-13.32,0-26.42,6.88-31.86,16.74-2.79,5.06-3.22,10.21-1.22,14.52,1.95,4.2,6.02,7.11,11.46,8.2,2.43,.49,4.86,.74,7.2,.74M315.26,6.77h-.1c-49.04,.46-98.08,.65-147.11,1.48-18.43,.31-36.37,7.3-48.55,21.25-25.08,28.73-53.11,63.1-78,92-7.26,8.43-13.9,16.44-21,25-4.48,5.39-1.97,15.13,1.29,21.91,2.96,6.16,8.48,7.38,14.59,7.38,.31,0,.62,0,.93,0,24.33-.47,48.67-.84,82.99-1.42,14.59-.22,39.17-.36,63.74-1.05,18.85-.53,34.95-7.88,47.48-22.06,22.11-25.01,43.96-50.24,65.91-75.38,9.97-11.42,20.03-22.77,29.86-34.31,.18-.22,.37-.43,.54-.65,4.33-5.21,7.2-10.52,8.67-17.41,2.25-10.56-14.56-16.73-21.24-16.73h0ZM149.86,61.17c-1.84,0-3.73-.16-5.68-.5-10.7-1.86-14.84-11.21-8.96-20.38,6.15-9.6,15.54-13.66,26.07-14.36,7.08,.33,13.28,1.55,16.08,8.3,2.7,6.49-.13,12.05-4.61,16.61-6.47,6.58-14.11,10.33-22.9,10.33h0Zm121.37,3.41c-8-.3-14.61-1.74-17.68-8.95-3.06-7.21,.3-13.23,5.21-18.19,6.99-7.07,15.22-11.12,24.66-11.12,2.14,0,4.35,.21,6.62,.64,10.96,2.07,15.46,11.83,9.72,21.37-6.61,10.96-17.05,15.52-28.53,16.25h0Zm-84.06,88.25h-.13c-1.08-.13-3.17-.23-5.2-.65-12.55-2.63-17.34-13.49-10.87-24.53,6.23-10.63,20.09-17.83,32.82-17.83,2.34,0,4.63,.24,6.84,.75,11.95,2.76,16.56,13.13,10.64,23.93-5.73,10.45-19.99,18.33-34.1,18.33h0Zm-123.67,7.57c-2.26,0-4.6-.23-7-.72-10.82-2.17-14.88-11.61-9.56-21.26,5.14-9.3,17.71-16.22,30.98-16.22h.03c5.53,.26,12.17,1.63,15.29,8.83,3.05,7.03-.09,13.03-4.86,17.96-7.03,7.24-15.33,11.41-24.88,11.41h0Z"/></g><g><path class="cls-2" d="M700.95,265.42c-.66,0-1.31,0-1.92-.02-.2,0-.39,0-.58,0-6.58-.16-13.26-.61-19.72-1.05-2.58-.18-5.16-.35-7.74-.51l-1.54-.09c-25.73-1.58-51.46-3.16-77.18-4.76-4.28-.27-8.64-.49-12.85-.7-10.08-.5-20.5-1.02-30.65-2.28-16.01-1.99-29.68-9.5-39.54-21.72-22.69-28.1-45.57-56.83-67.69-84.62-8.41-10.57-16.83-21.14-25.25-31.7-.19-.23-.37-.48-.55-.74-.11-.14-.21-.28-.3-.41-.1-.14-.19-.28-.29-.43-.2-.29-.39-.6-.59-.92-.12-.19-.22-.36-.33-.54-3.5-5.86-6.33-14.06-4.28-18.21,3.16-6.45,7.6-9.72,13.2-9.72h.34c1.5,.04,3.01,.05,4.52,.05,3.25,0,6.58-.07,9.79-.13,3.22-.06,6.56-.13,9.82-.13s6.2,.07,8.85,.21c6.68,.35,13.67,.65,20.44,.94,7.47,.32,15.2,.65,22.56,1.06l73.99,6c19.24,1.21,39.19,10.78,49.65,23.81,24.77,30.86,50.93,64.17,76.22,96.38,6,7.64,11.94,15.2,17.77,22.62,3.91,4.97,4.88,15.61,1.95,21.47-2.07,4.13-8,6.14-18.1,6.14h0Zm-45-56.41c-6.57,.01-11.81,2.63-14.38,7.17-2.57,4.54-2.1,10.37,1.27,16.01,6.14,10.27,15.81,16.01,28.74,17.05,.78-.06,1.43-.1,2.05-.14,1.28-.08,2.48-.15,3.63-.4,5.18-1.16,9.03-4.01,10.86-8.04,1.82-4.03,1.41-8.83-1.16-13.52-6.5-11.86-17.17-18.13-30.88-18.13h-.14Zm-116.84-14.4c-1.86,0-3.67,.17-5.38,.49-5.12,.98-9.18,3.63-11.43,7.45-2.22,3.78-2.56,8.53-.97,13.39,.73,2.24,1.74,4.32,2.91,6.03,7.4,10.75,17.94,16.87,30.49,17.7,7.36-.06,14.7-1.1,18.76-8.23,4.15-7.31,.96-14.25-1.81-18.84-6.29-10.43-19.99-18.01-32.58-18.01Zm24.03-43.23c-5.07,0-9.47,1.62-12.39,4.57-2.29,2.32-3.48,5.28-3.44,8.57,.05,3.83,1.3,8.02,3.35,11.21,6.09,9.52,15.67,15.07,27.69,16.05,6.36-.22,12.67-1.27,16.18-7.4,3.02-5.27,2.45-10.85-1.73-17.08-6.77-10.06-16.43-15.42-28.72-15.91-.32-.01-.63-.02-.94-.02Zm21.4-37.63c-6.2,0-11.13,2.46-13.52,6.74-2.39,4.29-1.89,9.8,1.39,15.11,5.56,8.99,14.34,14.4,24.73,15.23h.39c6.87,0,12.03-1.91,14.93-5.52,2.23-2.78,2.92-6.4,2.02-10.49-.55-2.43-1.61-4.85-3-6.82-6.69-9.4-15.71-14.19-26.82-14.24h-.11Zm-129.8-9.95c-6.66,0-11.44,2.5-14.21,7.43-2.9,5.16-2.35,10.64,1.67,16.75,6.47,9.84,15.9,15.16,28.85,16.25h.12c.54-.08,1.11-.15,1.69-.22,1.4-.17,2.84-.35,4.27-.71,4.27-1.07,7.49-3.38,9.32-6.66,1.82-3.27,2.09-7.2,.76-11.36-.71-2.22-1.62-4.15-2.72-5.72-6.99-10.05-16.68-15.34-28.8-15.73-.31-.01-.63-.02-.94-.02Z"/><path d="M447.62,87.29c3.3,0,6.19,.07,8.82,.21,6.68,.35,13.67,.65,20.43,.94,7.47,.32,15.2,.65,22.54,1.06l74.02,6c19.1,1.2,38.91,10.7,49.28,23.63,24.75,30.84,50.89,64.12,76.16,96.3,6.02,7.67,11.98,15.25,17.83,22.7,3.81,4.85,4.75,15.22,1.89,20.93-1.98,3.95-7.76,5.87-17.66,5.87-.66,0-1.3,0-1.93-.02h-.04c-.17,0-.34,0-.53,0-6.56-.16-13.23-.61-19.68-1.05-2.58-.18-5.16-.35-7.74-.51-26.24-1.61-52.48-3.22-78.72-4.85-4.28-.27-8.64-.49-12.85-.7-10.07-.5-20.49-1.02-30.62-2.28-15.88-1.97-29.44-9.42-39.22-21.54-22.7-28.1-45.57-56.84-67.7-84.63-8.41-10.56-16.82-21.13-25.25-31.69-.15-.18-.31-.39-.55-.73-.09-.12-.19-.25-.28-.38-.09-.13-.19-.27-.28-.41-.19-.29-.38-.59-.58-.91-.11-.17-.21-.34-.32-.54-3.43-5.75-6.22-13.74-4.26-17.73,3.07-6.27,7.36-9.44,12.75-9.44,.11,0,.22,0,.33,0,1.42,.03,2.91,.05,4.53,.05,3.25,0,6.58-.07,9.8-.13,3.22-.06,6.55-.13,9.81-.13m23.5,57.46l.12-.02c.54-.08,1.09-.15,1.67-.22,1.41-.17,2.88-.35,4.33-.72,4.41-1.11,7.74-3.49,9.64-6.9,1.89-3.4,2.17-7.46,.8-11.76-.72-2.27-1.66-4.24-2.78-5.86-7.08-10.18-16.9-15.55-29.2-15.95-.32-.01-.64-.02-.96-.02-6.85,0-11.78,2.59-14.64,7.69-3,5.34-2.44,10.98,1.69,17.27,6.56,9.98,16.12,15.37,29.22,16.48h.12m126.4,6.59c7.03,0,12.32-1.97,15.32-5.71,2.33-2.9,3.06-6.67,2.11-10.91-.56-2.49-1.65-4.98-3.08-7-6.78-9.54-15.94-14.4-27.22-14.45h-.11c-6.39,0-11.47,2.55-13.95,6.99-2.48,4.46-1.97,10.15,1.4,15.61,5.64,9.13,14.56,14.62,25.11,15.46h.43m-19.16,40.97h.06c6.44-.23,12.91-1.31,16.54-7.65,3.08-5.37,2.49-11.3-1.75-17.61-6.86-10.2-16.66-15.63-29.12-16.13-.32-.01-.64-.02-.96-.02-5.21,0-9.73,1.68-12.74,4.72-2.39,2.41-3.63,5.5-3.59,8.93,.05,3.91,1.33,8.2,3.43,11.48,6.18,9.66,15.89,15.29,28.07,16.28h.06m-23.63,47.9h.04c7.48-.06,14.97-1.13,19.15-8.49,4.28-7.54,1.02-14.65-1.81-19.34-6.38-10.57-20.26-18.25-33.01-18.25-1.89,0-3.73,.17-5.47,.5-5.26,1.01-9.44,3.74-11.76,7.69-2.3,3.9-2.65,8.81-1.01,13.8,.74,2.29,1.77,4.42,2.98,6.16,7.49,10.88,18.16,17.08,30.87,17.92h.04m116.88,9.56h.08c.69-.07,1.34-.11,1.95-.14,1.3-.08,2.53-.15,3.72-.42,5.33-1.19,9.31-4.14,11.2-8.32,1.89-4.17,1.47-9.13-1.17-13.97-6.59-12.03-17.42-18.39-31.32-18.39h-.14c-6.76,.02-12.16,2.72-14.81,7.42-2.66,4.7-2.19,10.72,1.28,16.51,6.23,10.42,16.03,16.24,29.13,17.29h.08M447.62,86.29c-6.53,0-13.12,.26-19.62,.26-1.51,0-3.01-.01-4.51-.05-.12,0-.24,0-.35,0-6.29,0-10.68,3.96-13.65,10-2.25,4.57,1.02,13.18,4.3,18.68,.11,.19,.22,.37,.33,.55,.2,.33,.4,.64,.6,.94,.1,.15,.2,.3,.3,.44,.1,.14,.2,.28,.3,.41,.19,.27,.38,.53,.57,.76,30.95,38.8,61.76,77.71,92.94,116.32,10.13,12.55,23.94,19.92,39.87,21.9,14.41,1.79,29.01,2.07,43.53,2.98,26.24,1.63,52.48,3.24,78.72,4.85,9.15,.56,18.3,1.34,27.46,1.56,.2,0,.4,0,.6,0,.62,.01,1.26,.02,1.93,.02,6.74,0,15.73-.8,18.55-6.42,3.02-6.04,2.02-16.89-2-22-30.3-38.53-63.32-80.77-94-119-11.17-13.92-32.03-22.87-50-24l-74-6c-14.04-.77-28.96-1.26-43-2-2.94-.16-5.9-.21-8.88-.21h0Zm23.47,57.45c-12.15-1.03-21.85-5.96-28.47-16.03-3.28-4.99-4.85-10.53-1.65-16.23,3.03-5.39,8.15-7.18,13.77-7.18,.31,0,.61,0,.92,.02,11.99,.39,21.54,5.64,28.41,15.52,1.16,1.67,2.03,3.64,2.65,5.59,2.62,8.23-1.33,15.28-9.73,17.39-1.99,.51-4.08,.65-5.9,.92h0Zm126.44,6.58c-.12,0-.23,0-.35,0-9.28-.74-18.38-5.35-24.34-14.99-6.67-10.8-.92-21.08,11.7-21.08h.11c11.15,.05,19.98,4.99,26.41,14.03,1.37,1.94,2.4,4.32,2.92,6.64,2.01,9.05-4.14,15.4-16.45,15.4h0Zm-19.14,40.97c-10.95-.89-20.81-5.66-27.31-15.82-1.99-3.11-3.22-7.26-3.27-10.95-.09-7.44,6.4-12.64,15.33-12.64,.3,0,.61,0,.92,.02,11.96,.48,21.61,5.7,28.33,15.69,3.42,5.09,5.03,10.76,1.71,16.55-3.22,5.62-8.79,6.91-15.71,7.15h0Zm-23.62,47.9c-11.72-.78-22.46-6.38-30.11-17.49-1.23-1.78-2.18-3.84-2.85-5.9-3.24-9.85,1.81-18.24,12.01-20.2,1.71-.33,3.48-.49,5.29-.49,12.2,0,25.8,7.23,32.15,17.77,3.49,5.79,5.42,11.96,1.8,18.33-3.61,6.35-9.84,7.91-18.29,7.98h0Zm116.85,9.55c-11.9-.96-21.92-6.06-28.35-16.81-6.88-11.49-.72-22.39,12.68-22.42h.13c13.48,0,23.96,6.02,30.45,17.87,5.21,9.52,.89,18.54-9.37,20.83-1.65,.37-3.39,.34-5.54,.53h0Z"/></g><g><path class="cls-2" d="M322.89,372.07c-2.62,0-5.18-.65-7.81-1.99-5.55-2.83-9.62-7.53-13.19-15.25-3.95-8.56-7.9-17.12-11.85-25.68-4.95-10.74-9.9-21.47-14.86-32.21-3.96-8.58-7.93-17.17-11.9-25.75-8.75-18.92-17.79-38.49-26.63-57.76-6.98-15.21-7.48-31.03-1.49-47.02,1.7-4.53,4.44-9.13,7.73-12.95,24.09-27.98,48.74-56.31,72.57-83.71l14.93-17.16c7.34-8.44,16.8-18.12,24.84-18.12,3.45,0,6.35,1.73,8.85,5.3l.78,1.11c2.02,2.84,6.21,8.76,7.17,10.82,2.8,5.98,5.83,12.63,8.76,19.06,2.76,6.04,5.61,12.29,8.24,17.94,.57,1.22-3.7,8.77-5.58,11.51-1.52,2.22-3.08,4.42-4.63,6.63-5.06,7.18-10.29,14.61-14.47,22.45-12.2,22.9-24.41,46.3-36.21,68.93-10.42,19.98-21.2,40.64-31.94,60.89-11.63,21.93-10.47,43.19,3.52,64.98,4.79,7.46,23.96,37.27,28.75,44.72,.29,.45,.54,.95,.83,1.52l.19,.37c-2.24,.91-4.46,1.37-6.61,1.37Zm21.42-304.81c-5.27,0-10.22,2.95-13.92,8.3-8.27,11.97-7.58,32.41,1.48,43.75,3.76,4.71,8.53,7.3,13.42,7.3,5.22,0,10.11-2.9,13.78-8.16,3.94-5.65,5.84-12.33,5.98-21.02-.21-9.33-2.58-16.75-7.24-22.72-3.76-4.81-8.55-7.46-13.5-7.46Z"/><path d="M355.24,34.99c3.28,0,6.04,1.66,8.44,5.09,.2,.29,.47,.67,.79,1.11,2.01,2.83,6.18,8.72,7.13,10.74,2.79,5.98,5.83,12.63,8.76,19.06,2.75,6.03,5.6,12.28,8.23,17.91,.22,1.33-3.51,8.11-5.52,11.04-1.52,2.21-3.1,4.46-4.63,6.62-5.07,7.19-10.31,14.63-14.5,22.5-12.2,22.91-24.41,46.3-36.21,68.93-10.42,19.98-21.2,40.64-31.94,60.89-11.72,22.11-10.56,43.52,3.54,65.48,4.78,7.43,9.56,14.87,14.34,22.3,4.81,7.47,9.61,14.95,14.41,22.42,.26,.4,.49,.85,.75,1.36-2.02,.76-3.96,1.14-5.92,1.14-2.54,0-5.02-.63-7.58-1.94-5.45-2.77-9.45-7.4-12.97-15.01-3.99-8.65-7.98-17.29-11.97-25.94-4.91-10.65-9.82-21.3-14.74-31.95-3.97-8.59-7.94-17.19-11.91-25.78-8.74-18.91-17.78-38.47-26.62-57.73-6.93-15.08-7.42-30.77-1.47-46.63,1.68-4.48,4.39-9.02,7.64-12.8,24.12-28.01,48.79-56.37,72.64-83.79l14.85-17.08c7.27-8.36,16.63-17.95,24.47-17.95m-9.95,92.13c5.39,0,10.43-2.97,14.19-8.37,4-5.73,5.93-12.5,6.07-21.34-.21-9.42-2.61-16.94-7.34-22.99-3.85-4.93-8.79-7.65-13.9-7.65-5.44,0-10.53,3.02-14.33,8.52-4.03,5.83-6.18,14-5.89,22.41,.28,8.41,2.98,16.41,7.39,21.93,3.86,4.83,8.76,7.49,13.81,7.49m9.95-93.13c-8.18,0-17.57,9.5-25.22,18.29-29.21,33.59-58.46,67.14-87.5,100.87-3.28,3.81-6.06,8.4-7.82,13.1-5.96,15.89-5.64,31.85,1.5,47.4,12.78,27.86,25.68,55.67,38.53,83.51,8.91,19.29,17.8,38.59,26.71,57.89,2.98,6.44,6.86,12.14,13.42,15.48,2.65,1.35,5.31,2.04,8.03,2.04,2.38,0,4.81-.53,7.31-1.62-.51-.97-.85-1.72-1.29-2.41-9.58-14.91-19.17-29.81-28.75-44.72-13.38-20.83-15.38-42.06-3.5-64.47,22.9-43.18,45.17-86.69,68.15-129.82,5.42-10.18,12.51-19.49,19.07-29.03,1.21-1.76,6.4-10.32,5.62-12-5.42-11.63-11.57-25.38-17-37-1.13-2.42-6.46-9.81-8-12-2.74-3.91-5.9-5.51-9.26-5.51h0Zm-9.95,92.13c-4.6,0-9.24-2.36-13.03-7.11-8.99-11.25-9.66-31.28-1.46-43.15,3.72-5.37,8.59-8.09,13.51-8.09,4.64,0,9.32,2.41,13.11,7.27,5.19,6.64,6.95,14.42,7.13,22.4-.12,7.63-1.61,14.61-5.89,20.74-3.68,5.29-8.5,7.94-13.37,7.94h0Z"/></g><path d="M411.26,299.77c-8.33,12.1-22.11,10.93-28.45-2.33-2.41-5.04-3.23-10.83-4.78-16.28,.32-.1,.65-.19,.97-.29,.04-8.26,2-15.96,7.03-22.65,8.58-11.42,21.88-10.49,28.19,2.33,6.62,13.46,5.5,26.93-2.96,39.22Z"/><path d="M184.98,297.44c-.15,10.39-7.77,16.71-18.76,15.44-14.55-1.68-29.01-15.19-31.72-29.63-2.23-11.89,5.92-20.55,17.89-19.04,14.45,1.82,28.3,13.96,31.7,27.84,.43,1.77,.6,3.59,.89,5.39Z"/><path d="M80.71,249.73c-16.51,.9-35.63-17.11-35.62-33.57,0-10.22,7.51-16.44,18.4-15.25,15,1.64,29.74,15.78,32.01,30.7,1.53,10.04-4.61,17.56-14.79,18.12Z"/><path d="M257.11,378.32c-15.08-.09-32.12-14.95-34.25-29.88-1.79-12.52,5.92-20.32,18.53-18.76,15.07,1.86,29.73,16.05,31.6,30.59,1.39,10.77-5.07,18.11-15.88,18.05Z"/><path d="M691.06,308.9c-3.09,14.38-19.7,27.7-34.49,27.67-11.48-.02-18.08-8.23-15.61-19.42,3.24-14.66,19.21-27.82,34.17-28.12,11.65-.24,18.43,8.21,15.93,19.87Z"/><path d="M601,368.94c-2.91,14.55-19.57,28.25-34.4,28.28-11.82,.02-18.37-8.58-15.57-20.46,3.31-14.03,19.79-27.11,34.21-27.14,11.5-.03,18.03,7.98,15.76,19.32Z"/><path d="M504.1,426.47c-2.06,15.13-20.39,30.23-35.62,29.35-10.84-.63-16.92-8.36-14.86-18.9,2.9-14.86,19.38-28.54,34.46-28.61,11.12-.06,17.51,7.18,16.02,18.16Z"/><path d="M221.27,134.5c-5.75,10.48-20.08,18.38-34.23,18.33-1.08-.13-3.17-.23-5.2-.65-12.55-2.63-17.34-13.49-10.87-24.53,7.37-12.58,25.44-20.36,39.66-17.08,11.95,2.76,16.56,13.13,10.64,23.93Z"/><path d="M88.38,148.99c-8.7,8.96-19.34,13.21-31.88,10.69-10.82-2.17-14.88-11.61-9.56-21.26,5.14-9.31,17.73-16.23,31.01-16.22,5.53,.26,12.17,1.63,15.29,8.83,3.05,7.03-.09,13.03-4.86,17.96Z"/><path d="M299.76,48.33c-6.61,10.96-17.05,15.52-28.53,16.25-8-.3-14.61-1.74-17.68-8.95-3.06-7.21,.3-13.23,5.21-18.19,8.58-8.67,19.01-12.8,31.28-10.48,10.96,2.07,15.46,11.83,9.72,21.37Z"/><path d="M172.76,50.84c-7.83,7.96-17.36,11.78-28.58,9.83-10.7-1.86-14.84-11.21-8.96-20.38,6.15-9.6,15.54-13.66,26.07-14.36,7.08,.33,13.28,1.55,16.08,8.3,2.7,6.49-.13,12.05-4.61,16.61Z"/><path d="M573.06,231.21c-3.61,6.35-9.84,7.91-18.29,7.98-11.72-.78-22.46-6.38-30.11-17.49-1.23-1.78-2.18-3.84-2.85-5.9-3.24-9.85,1.81-18.24,12.01-20.2,13.31-2.55,30.15,5.19,37.44,17.28,3.49,5.79,5.42,11.96,1.8,18.33Z"/><path d="M476.99,142.82c-1.99,.51-4.08,.65-5.9,.92-12.15-1.03-21.85-5.96-28.47-16.03-3.28-4.99-4.85-10.53-1.65-16.23,3.19-5.68,8.72-7.36,14.69-7.16,11.99,.39,21.54,5.64,28.41,15.52,1.16,1.67,2.03,3.64,2.65,5.59,2.62,8.23-1.33,15.28-9.73,17.39Z"/><path d="M594.1,184.14c-3.22,5.62-8.79,6.91-15.71,7.15-10.95-.89-20.81-5.66-27.31-15.82-1.99-3.11-3.22-7.26-3.27-10.95-.09-7.69,6.85-12.99,16.25-12.62,11.96,.48,21.61,5.7,28.33,15.69,3.42,5.09,5.03,10.76,1.71,16.55Z"/><path d="M677.16,248.21c-1.65,.37-3.39,.34-5.54,.53-11.9-.96-21.92-6.06-28.35-16.81-6.88-11.49-.72-22.39,12.68-22.42,13.54-.04,24.07,5.98,30.58,17.87,5.21,9.52,.89,18.54-9.37,20.83Z"/><path d="M597.18,150.32c-9.28-.74-18.38-5.35-24.34-14.99-6.69-10.83-.89-21.14,11.81-21.08,11.15,.05,19.98,4.99,26.41,14.03,1.37,1.94,2.4,4.32,2.92,6.64,2.03,9.13-4.25,15.52-16.8,15.4Z"/><path d="M364.55,97.43c-.12,7.63-1.61,14.61-5.89,20.74-7.16,10.28-18.59,10.61-26.4,.83-8.99-11.25-9.66-31.28-1.46-43.15,7.22-10.44,18.8-10.83,26.62-.82,5.19,6.64,6.95,14.42,7.13,22.4Z"/></g></g></svg>