<svg xmlns="http://www.w3.org/2000/svg" width="119.723" height="120.775" viewBox="0 0 119.723 120.775">
  <g id="fr-chat" transform="translate(-635 -170)">
    <g id="Groupe_308" data-name="Groupe 308" transform="translate(14 60)">
      <path id="Tracé_391" data-name="Tracé 391" d="M739.062,154.451c-.543-7.005-.248-13.957-.366-20.968a50.118,50.118,0,0,0-1.3-12.143,76.151,76.151,0,0,0-.568-10.331c-.073-.5-.841-.432-.96,0-.07.255-.122.513-.184.769a.969.969,0,0,0-.575.386c-1.594,2.3-3.768,4.116-5.628,6.2a11.571,11.571,0,0,0-1.515,1.982,134.976,134.976,0,0,1-16.192,1.588,177.853,177.853,0,0,1-17.809-1.1,101.666,101.666,0,0,0-17.29-.155c-5.489.475-10.245,1.389-15.713.653a35.82,35.82,0,0,0-7.709-6.138c-.5-.72-1.028-1.433-1.619-2.125-.208-.243-.558.025-.5.287.086.411.183.82.278,1.229a.684.684,0,0,0-.155.531c.708,4.772,2.263,9.3,2.55,14.143.266,4.48-.082,9-.224,13.479q-.215,6.789-.371,13.58a57.932,57.932,0,0,0-.044,5.88,98.72,98.72,0,0,0-.473,18.365c-.037,2.169-.041,4.336-.038,6.489.006,4.212-.009,8.425.037,12.637.03,2.81-.064,5.078,1.765,7.308.01.013.025.018.036.03.014.32.034.635.061.949a60.6,60.6,0,0,1-15.121-8.948c-1.83-3.306-4.372-6.208-5.718-9.815-1.618-4.337-.985-8.316-.8-12.533a1.206,1.206,0,0,0,.56-.53,10.345,10.345,0,0,0,1.076-3.315,1.984,1.984,0,0,0,.225-.78,7.453,7.453,0,0,0-1.556-5.457,1.84,1.84,0,0,0-2.381-.633c-1.5-.421-3.3.074-5.158,1.819-4.726,4.434-4.852,10.857-2.457,16.5,5.212,12.278,16.7,23.037,29.52,28.115a6.949,6.949,0,0,0,3.992,1.7l.017,0c1.933,6.139,7.95,11.173,14.562,11.209,5.729.032,8.642-3.577,7.722-7.973a6.9,6.9,0,0,0,1.467-.766,23.072,23.072,0,0,0,7.592,8.972c3.825,2.594,9.032,3.54,12.786.078a4.92,4.92,0,0,0,1.578-4.691,25.722,25.722,0,0,0-1.185-3.666c-.057-.184-.1-.365-.155-.547a11.973,11.973,0,0,0,6.752,1.842,5.577,5.577,0,0,0-.137,1.02c-.18,6.655,9.872,5.8,13.937,4.191,7.56-2.99,11.806-9.925,14.029-17.289.53-1.756,1-3.557,1.415-5.387a41.272,41.272,0,0,0,2.239-14.253C742.2,176.548,739.857,164.715,739.062,154.451ZM701.7,158.512a12.041,12.041,0,0,1-10.9-.618c-3.263-2.018-3.839-6.172-3.725-9.66.1-3.139,1.243-7.346,4.587-8.588a5.109,5.109,0,0,1,1.488-.3c.106-.059.211-.121.322-.171,3.489-1.574,7.675,1.064,10.006,3.488C708.16,147.53,708.682,155.472,701.7,158.512Z" fill="#c8cacc"/>
      <path id="Tracé_392" data-name="Tracé 392" d="M678.126,201.879c.355-2.363,1.116-4.726.377-7.09-.209-.671.862-.958,1.071-.289.836,2.673-.084,5.291-.41,7.973-.5,4.1.793,8.244,2.006,12.128,1.889,6.05,5.719,13.1,13.313,12.68.093-.005.185-.023.278-.032q-.033-.606-.038-1.216a.556.556,0,0,1,1.11,0c0,.348.011.694.027,1.04a12.126,12.126,0,0,0,2.265-.757c-.258-.481-.5-.971-.759-1.436a.553.553,0,0,1,.959-.549c.266.481.509,1,.778,1.506.394-.209.778-.427,1.142-.654a7.411,7.411,0,0,0,.826-.6,9.986,9.986,0,0,1-1.206-1.882c-.312-.626.645-1.178.958-.549a9.907,9.907,0,0,0,.978,1.594,3.232,3.232,0,0,0,.02-2.6c-1.053-3.6-3.088-6.914-4.41-10.431a18.859,18.859,0,0,1-1.445-9.183c.424-3.183,1.819-6.171,2.8-9.211.214-.664,1.287-.38,1.07.289-1.4,4.33-3.481,8.537-2.7,13.2.729,4.37,3.027,8.339,4.725,12.39.8,1.9,2.244,4.561.813,6.48a3.9,3.9,0,0,0,1.288.758c.674.222.385,1.273-.295,1.048a5.18,5.18,0,0,1-1.752-1.022,10.463,10.463,0,0,1-2.17,1.406,3.632,3.632,0,0,0,1.435,1.2c.65.289.086,1.226-.56.939a4.5,4.5,0,0,1-1.887-1.683,15.1,15.1,0,0,1-2.786.833,12.612,12.612,0,0,0,.353,1.934.555.555,0,0,1-1.071.289,13.861,13.861,0,0,1-.379-2.06c-.121.011-.249.033-.366.039-6.431.357-10.968-4.668-13.163-10.015a47.109,47.109,0,0,1-3.178-11.449A17.808,17.808,0,0,1,678.126,201.879Z" fill="#231f20"/>
      <path id="Tracé_393" data-name="Tracé 393" d="M633.11,179.557a17.3,17.3,0,0,0,.924,8.363c3.118,9.466,10.85,14.19,19.176,18.509q.294.765.572,1.535c-6.9-3.465-14.1-7.164-18.164-13.852a24.888,24.888,0,0,1-3.768-12.1c-.057-3.242,1.359-5.718,2.383-8.71.811-2.37,1-5.287-1.77-6.569a6.324,6.324,0,0,0-5.4.525c-4.2,2.256-5.381,7.5-4.784,11.808,1.184,8.545,7.237,16.741,13.687,22.33a81.341,81.341,0,0,0,19.93,12.591q.261.714.538,1.42a85.56,85.56,0,0,1-12.982-7.3,61.785,61.785,0,0,1-12.125-9.736c-5.4-5.938-10.932-14.426-10.269-22.734.418-5.228,6.128-13.5,12.451-9.586,2.662,1.649,2.738,4.658,1.878,7.316C634.71,175.454,633.519,177.4,633.11,179.557Z" fill="#231f20"/>
      <path id="Tracé_394" data-name="Tracé 394" d="M739.97,152.351c-.274-6.972-.115-14-.616-20.955-.486-6.738-1.62-13.41-1.466-20.183a.484.484,0,0,0-.085-.288,1.518,1.518,0,0,0-.086-.526.566.566,0,0,0-.535-.4,1.492,1.492,0,0,0-.277.057.8.8,0,0,0-.872.407.542.542,0,0,0-.29.2,21.858,21.858,0,0,1-3.649,3.271,20.184,20.184,0,0,0-2.785,3.187c-1.426,1.885-2.4,3.473-4.914,3.8a34.756,34.756,0,0,1-4.905.066c-9.007-.115-17.979-.13-26.985-.5-8.93-.369-18.269-.872-27.046,1.051-2.664.583-4.015-.532-5.782-2.277-.866-.855-1.709-1.694-2.636-2.486a32.923,32.923,0,0,1-4.719-4.195s0-.01-.008-.016c-.383-.526-.8-1.41-1.629-1.135a.915.915,0,0,0-.579,1.018l-.013.019c-.039,2.641,1.03,5.8,1.454,7.8,1.352,6.381,1.178,13.091,1.155,19.578-.045,13.094-1.257,26.152-1.238,39.235.006,4.417.1,8.864.3,13.295a.507.507,0,0,0-.2.026c0,.025.015.042.015.068.007.455.025.91.046,1.364.064-.065.126-.135.19-.2.066,1.4.138,2.79.224,4.18.043.69.089,1.384.142,2.082l-.062.075c.05.52.1,1.04.141,1.561l.051-.062a37.774,37.774,0,0,0,2.58,11.6c3.207,7.418,10.7,13.442,19.3,12.214a6.131,6.131,0,0,0,1.858,2.5c.574.419,1.127-.525.561-.939a4.534,4.534,0,0,1-1.323-1.779,6.989,6.989,0,0,0,2.981-1.578,4.193,4.193,0,0,0,1.878.769c.71.081.7-1.007,0-1.087a2.89,2.89,0,0,1-1.192-.462,4.728,4.728,0,0,0,.881-2.151,4.413,4.413,0,0,0,1.214.167.544.544,0,0,0,0-1.087,4.328,4.328,0,0,1-1.185-.162c-.007-.1-.008-.2-.021-.3-.59-4.688-5.878-6.539-7.212-10.823-.208-.668-1.279-.381-1.07.289,1.232,3.959,6.685,6.4,7.16,10.529a4.123,4.123,0,0,0-1.143-.142.544.544,0,0,0,0,1.087,4.142,4.142,0,0,1,1.159.148c0,.033,0,.064,0,.1a4.312,4.312,0,0,1-.6,1.766,7.7,7.7,0,0,0-1.249-.851c-.637-.314-1.2.625-.56.939a8.229,8.229,0,0,1,1.16.728,5.353,5.353,0,0,1-2.567,1.222c-.132-.372-.246-.737-.346-1.07-.2-.671-1.271-.383-1.07.289.092.311.2.632.312.954a19.11,19.11,0,0,1-9.194-1.851c-9.012-4.682-10.85-15.159-11.445-24.189a267.452,267.452,0,0,1-.171-32.219c.617-11.215,1.025-22.427.747-33.662a67.888,67.888,0,0,0-1.139-12.441c-.367-1.732-1.338-4.527-1.448-6.9a.617.617,0,0,0,.081-.109l.1.145a.554.554,0,0,0,.284.2,26.138,26.138,0,0,0,2.04,2c2.078,1.907,4.157,3.84,6.257,5.72,1.774,1.587,3.074,2.167,5.456,1.64a67.708,67.708,0,0,1,13.09-1.338c9.2-.213,18.385.582,27.581.722,4.088.062,8.171.049,12.258.01,2.475-.024,5.279.424,7.679-.334,2.38-.751,3.7-3.406,5.15-5.216,1.564-1.944,3.918-3.169,5.418-5.14a.6.6,0,0,0,.21.257c-.1,6.628,1,13.16,1.465,19.758.495,6.956.342,13.983.617,20.955.48,12.188,1.028,24.59.066,36.767-.71,8.989-2.683,18.67-7.72,26.384-2.317,3.548-5.485,6.716-9.61,8.162a20.29,20.29,0,0,1-4.876.965c.141-.434.267-.875.4-1.3.205-.673-.867-.958-1.07-.29-.16.524-.3,1.1-.494,1.646a12.331,12.331,0,0,1-3.347-.366,10.013,10.013,0,0,1,.952-1.226c.482-.515-.3-1.286-.785-.769a12.083,12.083,0,0,0-1.232,1.617,4.127,4.127,0,0,1-1.9-1.634c.461-.318.931-.625,1.35-.981.541-.459-.248-1.225-.785-.768-.312.264-.639.5-.968.738a4.538,4.538,0,0,1-.131-1.051c-.012-2.9,2.4-5.363,4.053-7.586a27.624,27.624,0,0,0,3.594-5.877c1.968-4.78.631-8.847-.415-13.636-.15-.685-1.22-.394-1.071.289.875,4.005,2.193,7.6.9,11.707-1.055,3.363-3.336,6.069-5.412,8.868-1.662,2.241-3.371,5.495-2.559,8.063a6.028,6.028,0,0,0-1.066,1.041c-.429.56.535,1.1.959.548a4.44,4.44,0,0,1,.572-.6,5.078,5.078,0,0,0,2.034,1.735c.07.035.15.058.222.091-.279.435-.562.868-.872,1.282-.424.565.54,1.107.958.549.345-.46.652-.946.959-1.431a12.813,12.813,0,0,0,3.471.507,2.986,2.986,0,0,1-.956.995.547.547,0,0,0,.561.939,4.353,4.353,0,0,0,1.638-1.949,20.949,20.949,0,0,0,5.3-.962,19.431,19.431,0,0,0,9.16-6.763c5.438-6.982,7.8-16.238,8.88-24.8C741.313,179.8,740.5,165.853,739.97,152.351Z" fill="#231f20"/>
      <path id="Tracé_395" data-name="Tracé 395" d="M717.435,138.129a1.958,1.958,0,0,1,.18-.14,2.465,2.465,0,0,1,.793-.746.465.465,0,0,1,.143-.043,2.627,2.627,0,0,1,.328-.285.567.567,0,0,1,.673.085,3.077,3.077,0,0,1,.314.366c.066.01.14,0,.2.02a1.013,1.013,0,0,1,.779.645,1.336,1.336,0,0,1,.127.2,1.731,1.731,0,0,1-.926,2.429c-.032.008-.067,0-.1.008-.012.008-.022.018-.034.026a.565.565,0,0,1-.489.019c-.036,0-.07-.018-.105-.022a.579.579,0,0,1-.216.06c-.039.012-.065.034-.1.045a.574.574,0,0,1-.627-.25c-.018-.03-.025-.06-.042-.09a1.414,1.414,0,0,1-.532-.323,1.08,1.08,0,0,1-.067-.1C717.134,139.528,716.774,138.847,717.435,138.129Z" fill="#231f20"/>
      <path id="Tracé_396" data-name="Tracé 396" d="M672.738,138.4a.5.5,0,0,1,.43-.515,1.131,1.131,0,0,1,.467-.9c.7-.467,1.661.067,2.062.677a1.73,1.73,0,0,1,.145.275.59.59,0,0,1,.21.415.534.534,0,0,1-.02.1,1.243,1.243,0,0,1,.03.243,1.544,1.544,0,0,1-.386,1.029c0,.029.01.055.011.085a.576.576,0,0,1-.292.474.6.6,0,0,1-.275.444c-.028.018-.056.028-.084.045-.013.049-.011.091-.027.141a.566.566,0,0,1-1.014.13c-.047-.085-.069-.155-.106-.233a.55.55,0,0,1-.611-.38,3.117,3.117,0,0,1-.231-.953A3.072,3.072,0,0,1,672.738,138.4Z" fill="#231f20"/>
      <path id="Tracé_397" data-name="Tracé 397" d="M695.694,146.031l-.141-.068a.441.441,0,0,1-.233-.252c-.071-.041-.137-.084-.2-.126-.013-.008-.026-.014-.037-.022a2.321,2.321,0,0,1-.867-.885l-.115-.078a.56.56,0,0,1-.2-.248.539.539,0,0,1,.076-1.071l1.681,0a3.752,3.752,0,0,1,2.674-.188.484.484,0,0,1,.312.231l.085,0a.564.564,0,0,1,.555.543c.009.1,0,.193.008.289a.53.53,0,0,1,.154.85,2.82,2.82,0,0,1-1.539.915,1.9,1.9,0,0,1-.586.23.417.417,0,0,1-.247.076.952.952,0,0,1-.26.093v5.187a.609.609,0,0,1,.237.471,9.326,9.326,0,0,1,1.866,2.4.553.553,0,0,1-.627.8c-.485-.1-.576-.407-.845-.751a.418.418,0,0,1-.08-.423,6.124,6.124,0,0,0-1-1.159,8.243,8.243,0,0,0-1.57,2.4c-.306.632-1.264.081-.959-.549a8.738,8.738,0,0,1,1.93-2.767.473.473,0,0,1-.063-.22Z" fill="#231f20"/>
      <path id="Tracé_398" data-name="Tracé 398" d="M686.058,150.765c.546,6,4.833,9.714,10.949,9.646,6.157-.069,11.9-4.26,10.919-10.781a14.1,14.1,0,0,0-5.662-8.969c-2.7-1.947-5.8-2.242-9.068-2.272a.558.558,0,0,0-.111.021c-.013,0-.023,0-.037,0C687.472,139.25,685.627,146.028,686.058,150.765Zm7.193-11.288c2.978.03,5.8.258,8.285,2.03a13.175,13.175,0,0,1,5.169,7.618c1.44,6.415-4.428,10.437-10.386,10.19-5.574-.231-9.022-3.948-9.2-9.363C686.992,145.879,688.523,140.263,693.251,139.477Z" fill="#231f20"/>
      <path id="Tracé_399" data-name="Tracé 399" d="M725.008,163.912a1.919,1.919,0,0,1,1.224-.782.744.744,0,0,1,.339.065,11.848,11.848,0,0,1,3.834-.277c.394-.065.79-.141,1.185-.245a28.144,28.144,0,0,0,4.47-1.661,18.381,18.381,0,0,1,3.1-1.525c.591-.222.972.7.427.993-.14.075-.284.142-.425.216a.526.526,0,0,1,.118.285c.024.317.058.633.089.949a.5.5,0,0,1,.458.51v4.823a.541.541,0,0,1-.783.474.574.574,0,0,1-.836-.284c-2.311.783-4.7.173-7.046-.438-1.7.439-3.646-.241-5.335-.786-.068-.022-.1-.073-.148-.11a1.141,1.141,0,0,1-1.2-.726A1.721,1.721,0,0,1,725.008,163.912Z" fill="#231f20"/>
      <path id="Tracé_400" data-name="Tracé 400" d="M723.13,180.755a.543.543,0,0,0,.716.2.516.516,0,0,0,.354.351,45.02,45.02,0,0,0,5.014,1.324c2.589,1.381,6,3.052,8.905,2.34.312.364,1.068.306,1-.286l-.005-.051a.5.5,0,0,0,.3-.461c0-.157,0-.312,0-.469a.524.524,0,0,0,.558-.525c0-.292-.007-.581-.011-.871a.587.587,0,0,0,.411-.638c-.165-1.131-.294-2.223-.559-3.335a.483.483,0,0,0-.165-.265c-.016-.1-.036-.2-.048-.3-.013-.073-.019-.147-.033-.221a.426.426,0,0,0-.2-.294.541.541,0,0,0-.519-.909,21.84,21.84,0,0,1-2.636.432.616.616,0,0,0-.465.054l-.185.021a.588.588,0,0,0-.983.123,15.9,15.9,0,0,0-2.259.443,25.809,25.809,0,0,1-2.659.816.639.639,0,0,0-.627.071,20.884,20.884,0,0,1-3.568-.439.535.535,0,0,0-.631-.323C722.885,177.991,721.986,178.935,723.13,180.755Z" fill="#231f20"/>
      <path id="Tracé_401" data-name="Tracé 401" d="M652.4,168.178c1.856,1.3,4.882.482,6.559-.764.013-.01.015-.025.027-.036a8.8,8.8,0,0,0,4.429-.483.561.561,0,0,0,.131-.074c.8-.091,1.617-.206,2.482-.263,1.27-.084,2.061.185,2.67-1.02a.553.553,0,0,0-.627-.8l-.2.066c-.225-1.5-2.075-1.942-3.667-2.246-2.365-.452-5.055-2.208-7.522-1.834-.971-.315-1.916-.684-2.877-1.039a.558.558,0,0,0-.7.525c-.012.325-.016.508-.008.671a.457.457,0,0,0-.312.231,7.306,7.306,0,0,0-.192,5.555,1.713,1.713,0,0,1-.393.765A.544.544,0,0,0,652.4,168.178Z" fill="#231f20"/>
      <path id="Tracé_402" data-name="Tracé 402" d="M652.319,182.229c.029.1.057.192.085.287a4.466,4.466,0,0,0,0,1.219.56.56,0,0,0,.7.524c.059-.015.109-.038.167-.054a.564.564,0,0,0,.617.308c.016.005.027.014.044.019,1.569.482,3.253-1.189,4.4-1.932a.569.569,0,0,0,.216-.258c.3-.036.595-.077.891-.12a18.434,18.434,0,0,0,7.917-2.065c.036-.021.05-.06.079-.087.212,0,.425.011.638,0a.53.53,0,0,0,.431-.241.612.612,0,0,0,.254-.3c.683-2.044-2.4-2.5-3.793-2.705-4.075-.593-8.012-.655-12-1.923a.556.556,0,0,0-.7.524,2.725,2.725,0,0,0,.175.734.464.464,0,0,0-.19.411c.065,1.7.213,3.391.263,5.089A.47.47,0,0,0,652.319,182.229Z" fill="#231f20"/>
    </g>
  </g>
</svg>
