<svg xmlns="http://www.w3.org/2000/svg" width="99" height="126" viewBox="0 0 99 126">
  <g id="fr-chouette" transform="translate(-1177 -788)">
    <g id="Groupe_296" data-name="Groupe 296" transform="translate(7 75)">
      <path id="Tracé_263" data-name="Tracé 263" d="M1222.463,757.4c-.009-.011-.021-.015-.031-.025a3.545,3.545,0,0,0,.043-.583.333.333,0,0,0-.609-.158,8.137,8.137,0,0,1-.455.728.847.847,0,0,0-.286.419c-.186.25-.376.5-.582.748a6.292,6.292,0,0,0-1.28,1.66,1.187,1.187,0,0,0,.339,1.218,25.082,25.082,0,0,1,1.59,2.107.849.849,0,0,0,1.413,0c.564-.9,1.885-2.268,1.83-3.376C1224.384,759.128,1223.092,758.12,1222.463,757.4Z" fill="#f4bd8c"/>
      <path id="Tracé_264" data-name="Tracé 264" d="M1182.6,759.525c-.251.481-.485.971-.715,1.462a38.735,38.735,0,0,0-9.81,17.676c-2.143,8.083-.417,15.348-.47,23.47-.01,1.554,2.511,1.937,2.89.372-.007-.137-.007-.25-.009-.372h.062c-.007-.368,0-.733.007-1.1q.188-.751.835.18c.359,3.151,5.1,3.314,5.3.068a1.084,1.084,0,0,0,1.154-1.019c-.278-4.389-.468-8.778-.635-13.17.556-9.039.354-18.313,2.619-27.077C1184,759.34,1182.952,758.853,1182.6,759.525Z" fill="#7f6a54"/>
      <path id="Tracé_265" data-name="Tracé 265" d="M1265.991,771.515c-.06-.288-.107-.576-.173-.864a33.823,33.823,0,0,0-3.7-9.14c-.964-1.737-1.668-4.393-3.7-5.206a1.032,1.032,0,0,0-1.313.952l.023.209a1.069,1.069,0,0,0,.446.753,10.849,10.849,0,0,1,.6.992l0,.012c-.18,5.57.175,11.2.135,16.782-.04,5.495-1.572,11.469-.836,16.861a2.8,2.8,0,0,0,.433,1.166c-.691,2.822-1.2,5.629-1.81,8.553a.5.5,0,0,0,.971.255c.386-.952.774-1.885,1.158-2.812a4.932,4.932,0,0,1,.358,1.73c.116,1.806,3.052,2.419,3.493.45.147-.658.282-1.319.424-1.978.03.118.052.236.083.355.424,1.588,3.323,1.79,3.594,0C1267.458,792.115,1270.645,779.65,1265.991,771.515Z" fill="#7f6a54"/>
      <path id="Tracé_266" data-name="Tracé 266" d="M1238.9,732.773a2.42,2.42,0,0,0-1.208-1.228,2.765,2.765,0,0,0-.815-.275,14.979,14.979,0,0,0-4.295-1.73,18.884,18.884,0,0,0-3.288-.63,5.467,5.467,0,0,0-1.8-.227,25.874,25.874,0,0,0-6.184-.686,4.362,4.362,0,0,0-3.145.174,17.679,17.679,0,0,0-2.742.6c-1.532.064-2.708-.235-4.237.8a2.7,2.7,0,0,0-.811.852,20.771,20.771,0,0,0-6.572,2.608.539.539,0,0,0,.286,1c2.178-.031,4.458-.614,6.67-.638a2.437,2.437,0,0,0,1.887.659c2.166,1.24,4.916,2.545,6.589,4.154l.088.1a1.942,1.942,0,0,0,.147.141,4.211,4.211,0,0,1,1.24,2.267c.169,1.2,2.254,1.14,2.481,0,.71-3.578,3.931-5.914,7.345-7.177a2.672,2.672,0,0,0,.461-.227c.207-.005.414-.012.618-.011,1.287.008,2.574-.078,3.861-.014.337.017.633.047.912.064a3.272,3.272,0,0,0,.818.659C1238.007,734.41,1239.3,733.732,1238.9,732.773Z" fill="#aa9277"/>
      <path id="Tracé_267" data-name="Tracé 267" d="M1257.939,779.832c.162-3.677.238-7.367.251-11.078.023-6.6.105-13.97-3.848-19.441-1.689-4.74-3.8-10.376-8.511-12.339-.378-.158-.875.1-.74.541.674,2.19,2.124,3.828,3.287,5.8.3.516.582,1.028.855,1.542-.109,2.066.3,4.113-.087,6.229a18.819,18.819,0,0,1-3.181,7.414,12.612,12.612,0,0,1-7.857,5.092c-3.872-.189-6.888.2-10.574-1.759-.052-.028-.1-.041-.154-.066a1.662,1.662,0,0,0-2.481-.273,7.616,7.616,0,0,0-1.618,1.921,1.59,1.59,0,0,0-.85.354c-.33.2-.649.421-.963.651-.447-.761-.9-1.513-1.36-2.247-.842-1.352-3.22-1.526-4.013,0a3.623,3.623,0,0,1-.342.49c-1.033-.557-2.455-.055-3.523.148-1.442.275-3.008.225-4.308.925a24.436,24.436,0,0,1-6.9-3c-4.253-2.993-5.669-6.85-7.864-11.026a14.81,14.81,0,0,0-.216-2.26c.339-1.006.7-2.007,1.087-3,.2-.471.389-.944.569-1.423a.69.69,0,0,0-.293-.866c.092-.289.184-.579.281-.867s-.34-.447-.5-.2c-.194.3-.4.6-.6.9a.776.776,0,0,0-.395.2c-2.323,2.315-3.658,5.156-5.045,8.06a2.072,2.072,0,0,0-.113.309c-.014.028-.03.055-.043.082a2.793,2.793,0,0,0-1.814,2.173q-.365,1.941-.683,3.892a62.93,62.93,0,0,0-2.357,9.068c-.818,4.443-2.212,10.4-1.131,15.322a37.461,37.461,0,0,0,.121,12.267c-1.026,4.317.686,9.076,3.228,13.182a8.8,8.8,0,0,0,2.97,4.127c.495.6.993,1.171,1.486,1.7,4,4.309,11.433,9.243,18.072,9.379,10.922,3.767,24.574,1.948,34.621-2.331,7.747-3.3,11.07-8.69,13.413-16.2C1258.079,795.959,1260.067,787.374,1257.939,779.832Z" fill="#aa9277"/>
      <g id="Groupe_295" data-name="Groupe 295">
        <path id="Tracé_268" data-name="Tracé 268" d="M1268.611,779.25a47.839,47.839,0,0,0-3.212-12.068c-1.533-3.7-3.513-7.956-6.554-10.774a.154.154,0,0,0-.244.179c1.879,3.691,4.314,6.964,5.869,10.839a46.985,46.985,0,0,1,3.127,22.5c-.354,3.307-.78,8.571-3.35,11.216a10.45,10.45,0,0,1-1.014-2.815c-.138-.667-1.088-.431-1.154.148a10.611,10.611,0,0,1-1.542,4.434q-.72-1.577-1.443-3.154c-.207-.451-.932-.288-1.054.132a15.007,15.007,0,0,1-1.529,3.51,38.856,38.856,0,0,0,1.314-4.947c1.371-7.049,1.207-14.265,1.217-21.4q.008-6.093-.006-12.186c0-3.49.134-6.98-1.24-10.276a.583.583,0,0,0-.36-.333,34.986,34.986,0,0,0-12.983-19.564c2.219-1.457,4.1-2.962,6.9-3.764,3.951-1.131,7.929-.823,11.962-1.232a.716.716,0,1,0,0-1.431,33.217,33.217,0,0,0-13.513,1.585c-2.224.813-4.91,2.136-6.276,4.152a36.064,36.064,0,0,0-3.212-2.038c.492-.652.923-1.37,1.445-1.975a26.607,26.607,0,0,1,4.427-4.081,25.882,25.882,0,0,1,4.934-2.852c1.776-.776,3.768-1.054,5.479-1.913.6-.3.281-1.122-.328-1.154-3.748-.2-8.269,2.565-11.092,4.676-1.8,1.343-5.047,4.008-6.226,6.579-.956-.484-1.928-.94-2.932-1.338a15.773,15.773,0,0,1,.62-1.683,25.7,25.7,0,0,1,4.029-6.274,26.775,26.775,0,0,1,5.157-4.568c1.894-1.28,4.059-2.006,6-3.171.683-.411.221-1.312-.527-1.191-4.646.752-9.238,4.847-12.031,8.24a26.99,26.99,0,0,0-4.761,8.082c-.865-.3-1.741-.571-2.635-.8a38.467,38.467,0,0,0-27.87,3.509c-.583-3.186-4.745-6.275-6.79-8.1a35.452,35.452,0,0,0-6.11-4.521c-2.509-1.42-5.171-2.476-7.556-4.077a.553.553,0,0,0-.208-.227l-.642-.368c-.764-.437-1.668.617-.972,1.2,3.639,3.042,8.49,4.332,12.291,7.224,3.409,2.595,7.268,5.574,8.963,9.466-1.066.624-2.09,1.317-3.091,2.041-.7-2.918-4.215-4.8-6.94-5.774a113.006,113.006,0,0,0-16.244-4.088c-1.062-.207-1.518,1.338-.45,1.553,4.354,1.27,8.846,2.138,13.248,3.246a23.059,23.059,0,0,1,5.952,2.118,15.665,15.665,0,0,1,3.789,3.434c-.832.63-1.634,1.3-2.414,1.994-2.882-2.3-7.5-2.743-11.134-3.026a94.684,94.684,0,0,0-14.455.351.835.835,0,1,0,0,1.669,7.024,7.024,0,0,0,1.141-.09,107.074,107.074,0,0,1,11.878-.47,47.246,47.246,0,0,1,6.9.67c1.822.328,3.6.93,5.448,1.086a33.864,33.864,0,0,0-2.926,2.978,46.716,46.716,0,0,0-9.751,19.189.3.3,0,0,0-.382.234,124.467,124.467,0,0,0-2.507,19.752,96.572,96.572,0,0,0,.424,19.315c.086.571.2,1.129.315,1.683a5.731,5.731,0,0,1-1.532-1.328.636.636,0,0,0-1.039.261l-.341,2.019c-.183,1.083.306,2.322-1.087,1.505-1.442-.845-1.554-3.449-1.725-4.89-.056-.474-.8-.827-1.073-.277a14.619,14.619,0,0,0-1.432,5.1c-1.285-1.136-1.442-4.006-1.68-5.428a42.171,42.171,0,0,1-.558-6.11,43.952,43.952,0,0,1,1.239-11.193c1.867-7.712,5.716-14.192,10.878-20.309a.365.365,0,0,0-.528-.5c-6.457,6.072-10.56,14.776-12.128,23.205a44.369,44.369,0,0,0-.542,12.734c.277,2.631.3,8.44,3.7,9.179a.639.639,0,0,0,.805-.583,12.525,12.525,0,0,1,.441-3.339c.307,2.058.966,4.45,2.644,4.8,2.028.42,2.336-2.495,2.475-4.375a5.791,5.791,0,0,0,1.466.9.665.665,0,0,0,.365.045c2.473,9.132,9.488,15.829,18.948,19.239,1.206.435,2.436.793,3.678,1.111-.948,3.132,1.793,5.84,3.739,8.035.977,1.1,1.864,1.776,1.767,3.27a11.107,11.107,0,0,0-.2,1.949,5.206,5.206,0,0,0,1.687,3.291.7.7,0,0,0,1.167-.647l-.228-.861a.419.419,0,0,0-.575-.253,4.222,4.222,0,0,1-.44-3.107,4.371,4.371,0,0,1,.166-.518c.439.5.9.987,1.292,1.518a15.053,15.053,0,0,1,.884,1.337c.27.459.358.8.871,1.03.228.1.573.037.629-.244.19-.969-.81-1.924-1.406-2.642a12.6,12.6,0,0,0-1.3-1.362,8.305,8.305,0,0,1,2.439.724,21.43,21.43,0,0,1,2.871,2.339.594.594,0,0,0,.875-.641c-.866-2.257-4.845-3.9-7.3-3.24l-.006,0a6.221,6.221,0,0,0-.806-1.317c-.832-1.121-1.9-2.072-2.814-3.131a13.358,13.358,0,0,1-2.8-5.389,59.186,59.186,0,0,0,14.423,1.477,87.4,87.4,0,0,0,15.626-1.252l0,.093a.106.106,0,0,0,.206.026,33.1,33.1,0,0,1-2.859,6.536,6.85,6.85,0,0,0-2.424.242c-1.025.248-2.5.649-3.021,1.589a.424.424,0,0,0,.38.632c1.041-.124,1.927-.882,2.939-1.19a11.15,11.15,0,0,1,1.566-.3,36.871,36.871,0,0,1-2.918,4.148c-.462.569.354,1.383.848.808a19.645,19.645,0,0,0,3.345-4.185,4.652,4.652,0,0,1,.635,1.409,4.463,4.463,0,0,1,.085,1.616,4.233,4.233,0,0,1-.16.745,2.221,2.221,0,0,1-.148.3c-.008.008-.02.011-.027.02a.65.65,0,0,0-.185.708.632.632,0,0,0,.6.436c1.428-.174,1.344-2.281,1.171-3.3a5.275,5.275,0,0,0-1.448-2.885,20.09,20.09,0,0,0,2.288-7.137.45.45,0,0,0-.237-.393l-.052-.034c.976-.2,1.944-.421,2.889-.686,8.44-2.364,13.984-8.949,16.991-16.476a.611.611,0,0,0,.857-.116,16.4,16.4,0,0,0,2.018-3.661q.635,1.41,1.272,2.817c.192.421.792.3,1.015,0a11.8,11.8,0,0,0,1.813-3.64,12.021,12.021,0,0,0,.817,1.585.614.614,0,0,0,.921.112c2.96-2.324,3.449-6.957,3.967-10.334A45.669,45.669,0,0,0,1268.611,779.25ZM1235.6,731.209c1.005.416,1.978.888,2.936,1.389a3.356,3.356,0,0,0-.019.362,13.987,13.987,0,0,0-1.451-.348,13.452,13.452,0,0,0-1.922-.178C1235.312,732.038,1235.46,731.627,1235.6,731.209Zm1.1,2.665a14.506,14.506,0,0,1,11.8,11.753c.909,5.654-1.777,13.362-7.36,16.217-4.62,2.364-11.7,1.4-15.588-2.107a.414.414,0,0,0-.207-.174,8.037,8.037,0,0,1-2.48-4.508,17.639,17.639,0,0,0,1.084-5.611,15.666,15.666,0,0,0-1.289-6.53.56.56,0,0,0,.127-.242C1224.225,736.878,1230.486,732.861,1236.7,733.874ZM1224.38,760.32c-.3.477-.537.994-.848,1.461a15.553,15.553,0,0,1-1.572,1.944c-.472-.569-.941-1.138-1.417-1.7a9.947,9.947,0,0,0-1.16-1.316,15.229,15.229,0,0,0,2.774-3.98A6.274,6.274,0,0,0,1224.38,760.32Zm-20.342-27.179a36.524,36.524,0,0,1,15.8-4.6,35.833,35.833,0,0,1,14.326,2.128,7.838,7.838,0,0,0-.143,1.779c-5.469.3-10.5,3.839-12.14,8.892a18.687,18.687,0,0,0-10.247-8.381.574.574,0,0,0-.784.464,14.216,14.216,0,0,0-6.894.222A3.546,3.546,0,0,0,1204.038,733.141Zm7.7,1.218c7.274,2.724,11.892,9.826,10.633,17.3-.631,3.748-2.737,7.817-6.19,9.9-3.427,2.071-8.2,1.591-11.833.249-7.734-2.859-12.139-10.874-9.524-18.508C1197.223,736.3,1204.585,733.292,1211.74,734.359Zm30.95,84.462c-5.5,2.884-12.309,3.189-18.447,3.541a63.61,63.61,0,0,1-18.8-1.3c-10.567-2.6-19.676-9.465-22.155-19.908-1.509-6.36-1.362-13.186-1.172-19.67a185.907,185.907,0,0,1,2.058-21.133c2.233-7.155,5.495-14.1,10.62-19.787a15.374,15.374,0,0,0,.379,15.428,18.512,18.512,0,0,0,17.806,8.075,10.935,10.935,0,0,0,5.746-2.734,11.6,11.6,0,0,0,.989,1.3c.577.733,1.164,1.458,1.746,2.186a.58.58,0,0,0,.869.107,12.807,12.807,0,0,0,2.976-3.892,20.885,20.885,0,0,0,12.422,2.93c8-.881,12.423-9.931,12.059-16.863a15.736,15.736,0,0,0-3.708-9.23,34.209,34.209,0,0,1,10.36,17.633.527.527,0,0,0,.566.426c1.531,5.342.638,11.627.617,17.057-.024,6.048.136,12.124-.3,18.162C1256.561,801.6,1253.035,813.4,1242.69,818.821Z" fill="#231f20"/>
        <path id="Tracé_269" data-name="Tracé 269" d="M1236.614,746.163a1.249,1.249,0,0,0-1.3-.956,1.85,1.85,0,0,0-1.031-.067,1.712,1.712,0,0,0-.4.15.968.968,0,0,0-.857.515,1.89,1.89,0,0,0-.163,1.375,1.8,1.8,0,0,0,.381.73,1.78,1.78,0,0,0,1.876,1.126,3.038,3.038,0,0,0,1.5-2.873Z" fill="#231f20"/>
        <path id="Tracé_270" data-name="Tracé 270" d="M1208.375,746.576c.159-1.056-1.111-1.511-1.906-1.046a1.484,1.484,0,0,0-.314.07c-.034-.006-.066-.02-.1-.023a.806.806,0,0,0-.683.289,1.774,1.774,0,0,1,.161-.208.094.094,0,0,0-.117-.144,1.483,1.483,0,0,0-.576,2.463,1.592,1.592,0,0,0,1.144.384,1.711,1.711,0,0,0,.314.111,1.59,1.59,0,0,0,2-1.678A1.129,1.129,0,0,0,1208.375,746.576Z" fill="#231f20"/>
      </g>
    </g>
  </g>
</svg>
