<svg xmlns="http://www.w3.org/2000/svg" width="125.478" height="117.088" viewBox="0 0 125.478 117.088">
  <g id="fr-escargot" transform="translate(-1164.347 -484.392)">
    <g id="Groupe_294" data-name="Groupe 294" transform="translate(3.347 59.392)">
      <path id="Tracé_256" data-name="Tracé 256" d="M1279.087,529.292a18.156,18.156,0,0,1-1.929-.5c-2.184-1.759-3.923-3.776-6.184-5.67-.969-.812-2.961-.287-2.839,1.031.005.054.017.106.023.16-5,1.286-9.139,3.4-14.787,3.491a41.273,41.273,0,0,1-14.631-2.725,45.955,45.955,0,0,0-3.726-3.01c-3.232-2.212-7.843-1.48-11.8-.437a16.9,16.9,0,0,1-5.476-1.619c-2.26-1.2-3.914-3.018-5.792-4.613-.122-.318-.239-.639-.349-.97-.562-1.7-1.281-2.9-2.578-3.5a12.042,12.042,0,0,0-1.355-1.272,27.018,27.018,0,0,1-4.061-11.476,55.742,55.742,0,0,0,0-7.4,2.939,2.939,0,0,0,.1-.467c.519-4.222.936-7.56.133-10.556a3.27,3.27,0,0,0,.035-.628c-.459-9.249-13.213-11.91-20.766-6.533-3.119,2.22-4.207,5.572-4.111,9.268a10.028,10.028,0,0,0-.873,5.223c1.032,10.785,10.608,20.894,18.31,29.127a17.353,17.353,0,0,1,1.912,7.4c.007,3.163-1.685,5.477-2.482,8.39-1.053,3.851,1.1,6.713,5.29,8.162,5.882,2.034,13.844,1.1,19.967.82,5.527-.252,11.026-.78,16.495-1.5,5.724.546,11.811.29,17.165.323a244.669,244.669,0,0,0,27.149-1.069c1.61-.171,3.113-1.23,3-2.705a3.973,3.973,0,0,0,.2-.781C1285.565,531.939,1282.327,529.917,1279.087,529.292Z" fill="#c4c9b2"/>
      <path id="Tracé_257" data-name="Tracé 257" d="M1174.387,435.545a8.914,8.914,0,0,0-1.182-.2,3.291,3.291,0,0,0-1.032-.494c-3.417-.915-7.261,1.547-9.081,3.889-4.2,5.406,3.74,15.675,11.125,12.542C1180.459,448.636,1182.3,437.462,1174.387,435.545Z" fill="#c4c9b2"/>
      <path id="Tracé_258" data-name="Tracé 258" d="M1211.924,435.207a8.869,8.869,0,0,0-4.193-1.814c-.1-.055-.192-.117-.3-.168-2.967-1.46-5.727-.419-7.809,1.715-1.878,1.926-3.075,4.214-2.186,6.765a8.517,8.517,0,0,0,.751,1.56c.381,5.162,8.854,7.613,13.8,5.188C1217.817,445.6,1216.241,438.531,1211.924,435.207Z" fill="#c4c9b2"/>
      <path id="Tracé_259" data-name="Tracé 259" d="M1264.739,465.718a35.776,35.776,0,0,0-28,2.7c-3.892.09-6.726,2.667-9.085,5.311-6.714,3.3-11.433,12.692-13.517,18.223-2.639,7-5.636,19.214,1.051,25.127,3.7,3.275,13.806,5.918,18.6,2.572,2.4,3.661,7.189,5.093,12.732,6.261,7.945,1.673,16.394,1.48,22.95-3.281,6.654-4.831,10.631-12.8,12.859-19.931C1286.832,488.3,1282.095,471.268,1264.739,465.718Z" fill="#8e937a"/>
      <g id="Groupe_293" data-name="Groupe 293">
        <path id="Tracé_260" data-name="Tracé 260" d="M1283.152,529.689a42.049,42.049,0,0,0-4.918-2.051,15.933,15.933,0,0,1-7.328-5.808l-.008-.007a30.668,30.668,0,0,0,2.266-2.337,57.684,57.684,0,0,0,10.479-17.067c4.109-11.393-.061-26.168-11.052-33.535-10.276-6.889-24.25-7.489-35.735-2.656A42.981,42.981,0,0,0,1211.5,497.7a50.6,50.6,0,0,0-.991,11.933c.015.371.037.738.066,1.1a17.217,17.217,0,0,1-5.719-10.1c-.733-4.748.493-9.513.779-14.247.361-5.986-.985-13.161-7.514-16.233.571-3.966,1.1-7.936,1.952-11.867.632-2.918,2.442-6.4,2.222-9.386a11.566,11.566,0,0,0,7.576.656c5.427-1.421,7.931-6.227,5.983-10.853a9.945,9.945,0,0,0-4.575-4.87c1.038-.766,1.768-1.918,2.788-2.721a15.189,15.189,0,0,1,4.578-2.36c.688-.23.25-1.2-.446-1.051a11.47,11.47,0,0,0-4.934,2.369c-1,.818-2.368,2.164-2.524,3.467a12.451,12.451,0,0,0-4.428-1.127c.453-.84.555-1.86.962-2.719a13.03,13.03,0,0,1,2.414-3.253c.406-.429-.322-1.112-.844-.8a7.087,7.087,0,0,0-3.037,3.429,4.374,4.374,0,0,0-.34,3.321,12.966,12.966,0,0,0-3.829.559,23.184,23.184,0,0,1-.729-2.953,11.841,11.841,0,0,1,.756-4.348c.176-.556-.654-.9-1.035-.429-1.566,1.942-2.294,6.53.038,8.408a.71.71,0,0,0,0,.123c-3.588,1.591-4.867,6.844-3.644,9.942a9.7,9.7,0,0,0,4.768,4.972c-2.479,2.485-2.888,7.148-3.537,10.26-.731,3.507-1.273,7.047-1.744,10.59a15.755,15.755,0,0,0-12.159,1.068c-1.563-2.972-3.744-5.758-5.384-8.706a50.162,50.162,0,0,1-3.983-9.7c.133-.04.272-.071.4-.118,2.966-1.079,4.307-3.9,5-6.479,1.033-3.843-.126-8.262-3.8-10.206.674-.856.941-2.042,1.632-2.908a12.384,12.384,0,0,1,3.98-2.942c.5-.272.234-.937-.36-.847a7.406,7.406,0,0,0-4.568,2.8c-.683.856-1.6,2.374-1.41,3.556a9.19,9.19,0,0,0-2.781-.644.762.762,0,0,0-.129.013,7.14,7.14,0,0,0-.781-.232,14.431,14.431,0,0,1,.691-2.921,12.245,12.245,0,0,1,2.8-3.845.407.407,0,0,0-.506-.628c-2.417,1.394-4.479,4.529-3.934,7.209a8.616,8.616,0,0,0-3.076.157c-.754-.911-1.636-1.58-1.864-2.869-.3-1.7.379-3.375.626-5.042.067-.453-.76-.7-.995-.277-1.08,1.924-1.744,4.235-.919,6.333a4.8,4.8,0,0,0,1.822,2.275,9.319,9.319,0,0,0-4.959,4.254c-2.216,4.454.03,10.829,5.228,12.882a13.231,13.231,0,0,0,6.965.707c-.637,2.867,1.431,6.178,2.688,8.682,1.729,3.44,3.6,7.324,6.254,10.35a11.5,11.5,0,0,0-2.273,2.142c-4.773,5.98-2.782,14.343-.308,20.723a50.447,50.447,0,0,0,5.966,11.065c2.727,3.822,6.346,7.137,8.825,11.093a13.71,13.71,0,0,1,2.4,7.339c-.04,2.5-1.377,4.539-2.193,6.861-1,2.853-.689,5.658,1.963,7.727,2.623,2.046,6.247,2.719,9.615,3.15a90.023,90.023,0,0,0,16.343.338c11.385-.623,22.509-1.483,33.938-1.133,6.225.19,12.486.463,18.709.1,3.777-.217,8.045-.948,9.889-4.223C1287.41,533.87,1285.876,531.237,1283.152,529.689Zm-83.777-84.753c-2.884-3.774-1.306-8.83,3.124-10.806,4.256-.965,8.771.065,11.15,3.64,2.613,3.926,1.027,9.051-4.147,10.41A9.737,9.737,0,0,1,1199.375,444.936Zm-25.847,6.152a11.029,11.029,0,0,1-7.057-1.266,8.522,8.522,0,0,1-3.182-10.508c1.581-3.314,5.306-4.482,9-4.081a.738.738,0,0,0,.714.57c5.877.448,6.933,6.2,5.554,10.285C1177.8,448.352,1176.427,450.617,1173.528,451.088Zm39.054,51.636a42.791,42.791,0,0,1,12.509-26.769,40.047,40.047,0,0,1,26.479-11.294c9.5-.184,19.3,3.475,25.051,10.222,7.528,8.831,8.194,22.057,2.7,31.722-4.216,7.423-9.659,17.185-19.729,19.226-9.04,1.832-22.824-.261-27.3-8.282s-1.813-20.649,5.418-26.831c8.46-7.233,25.742-5.678,26.243,6.676.222,5.457-4.374,10.526-10.453,11.651-3.55.657-7.441-.211-9.611-2.856a4.888,4.888,0,0,1-.9-5.221,5,5,0,0,1,1.279-1.758,3.756,3.756,0,0,1,2.33-1.079q1.776-.866,2.565,1.207a.9.9,0,1,0,.929,1.54c1.3-.743,1.947-2.015,1.081-3.309-1.127-1.687-3.919-1.671-5.749-1.087a6.686,6.686,0,0,0-3.2,10.879c3.442,4.207,10.175,4.6,15.16,2.45,4.948-2.129,8.413-6.633,8.628-11.481.512-11.493-13.543-16.646-24.242-12.251-11.6,4.765-15.425,18.38-12.79,28.6a14.309,14.309,0,0,0,2.806,5.527c-5.694.607-12.11.683-16.418-3.081C1211.264,513.534,1212.11,507.38,1212.582,502.724Zm57.773,36.513c-4.773.041-9.543-.139-14.313-.269a278.011,278.011,0,0,0-28.21.948c-8.31.614-18.662,1.727-26.528-1.321-2.051-.794-4.011-2.012-4.523-4.062-.534-2.142.866-4.266,1.636-6.19a11.966,11.966,0,0,0,.223-8.905c-2.485-6.867-9.253-11.96-13.045-18.259-3.756-6.24-7.066-14.162-5.835-21.339,1.191-6.943,9.116-11.628,16.508-8.878l.045.339c.092.676.953.682,1.4.3.114.059.229.1.343.163,8.595,4.731,5.771,15.493,5.228,22.77-.515,6.909,1.3,13.353,7.482,17.79a9.511,9.511,0,0,0,2.033,4.629c4.63,5.575,12.948,5.609,19.93,4.258,5.869,6.022,16.76,7.851,25.653,6.722a21.67,21.67,0,0,0,11.095-4.871,16.7,16.7,0,0,0,6.246,5.461c2.782,1.389,8.793,2.329,8.724,5.925C1284.343,539.8,1274.206,539.2,1270.355,539.237Z" fill="#231f20"/>
        <path id="Tracé_261" data-name="Tracé 261" d="M1171.8,441.166a2.474,2.474,0,0,0-.3-.05,2.379,2.379,0,0,0-1.121.038,2.149,2.149,0,0,0-1.621,2.908.618.618,0,0,0,.7.269,1.95,1.95,0,0,0,.79.558,2.552,2.552,0,0,0,2.918-.822,1.5,1.5,0,0,0,.15-.314,1.616,1.616,0,0,0,.162-.363C1173.76,442.377,1172.874,441.432,1171.8,441.166Z" fill="#231f20"/>
        <path id="Tracé_262" data-name="Tracé 262" d="M1208.533,439.069a2.7,2.7,0,0,0-2.776.819,1.809,1.809,0,0,0,.536,2.6,2.212,2.212,0,0,0,1.406.363c.043,0,.083.013.128.014A1.945,1.945,0,0,0,1208.533,439.069Z" fill="#231f20"/>
      </g>
    </g>
  </g>
</svg>
