<svg xmlns="http://www.w3.org/2000/svg" width="65.115" height="97.869" viewBox="0 0 65.115 97.869">
  <g id="fr1" transform="translate(-280.135 -102)">
    <g id="_1" data-name="1" transform="translate(114.786 76.323)" fill="#ef9f5e" stroke-miterlimit="10">
      <path d="M 184.9669952392578 123.2070922851562 C 179.6260070800781 123.2070922851562 175.4851989746094 122.4292068481445 172.6595764160156 120.8950424194336 C 171.2719573974609 120.1416320800781 170.1808624267578 119.1920318603516 169.4165802001953 118.072624206543 C 168.6532897949219 116.9546203613281 168.1929321289062 115.6329345703125 168.0483093261719 114.1442337036133 C 167.6199645996094 109.7264862060547 168.7150268554688 106.6138305664062 171.3960266113281 104.6284942626953 C 173.7228088378906 102.9054718017578 176.8027801513672 102.3096313476562 179.5201873779297 101.7839431762695 C 182.38427734375 101.2304840087891 185.0884552001953 100.7079238891602 185.9859161376953 99.10018157958984 C 187.3031463623047 96.74234771728516 188.5281219482422 91.11507415771484 189.0340881347656 85.09751892089844 C 189.3811645507812 80.96958160400391 189.6611633300781 73.28392028808594 187.6369476318359 68.18985748291016 C 186.7438659667969 65.94046020507812 185.5218658447266 64.55725860595703 184.0049285888672 64.07879638671875 C 182.0822143554688 63.47358322143555 179.9172973632812 63.09874725341797 177.8236541748047 62.73625946044922 L 177.8168182373047 62.73506927490234 C 173.0133514404297 61.90318298339844 168.4765319824219 61.11749649047852 166.552490234375 57.69204711914062 C 165.2404174804688 55.35531997680664 165.4189300537109 52.15081024169922 167.0982513427734 47.8953971862793 L 167.1757049560547 47.69941711425781 L 167.3167724609375 47.5428581237793 C 171.7671051025391 42.61554718017578 177.4794311523438 37.46189498901367 182.5969848632812 33.75714492797852 C 185.8688354492188 31.38854598999023 188.9736480712891 29.5311336517334 191.8251647949219 28.23648262023926 C 195.0705413818359 26.76300811767578 197.9989318847656 26.01590919494629 200.5290069580078 26.01590919494629 C 203.3691558837891 26.01590919494629 205.7157897949219 26.95863342285156 207.5037231445312 28.81789588928223 C 210.5282440185547 31.95980834960938 211.8446655273438 37.48455810546875 211.5283660888672 45.70798492431641 C 211.2553100585938 52.79909515380859 212.0086212158203 62.40493392944336 212.7371368408203 71.69449615478516 C 213.4024963378906 80.18425750732422 214.0309448242188 88.20319366455078 213.9571380615234 94.58506774902344 C 213.9181518554688 97.94844818115234 214.455078125 99.91868591308594 215.6981201171875 100.9734115600586 C 216.8689270019531 101.9668426513672 218.4949035644531 102.0509567260742 220.5534820556641 102.1574325561523 C 222.6421203613281 102.2660064697266 225.0092315673828 102.389045715332 226.8770141601562 103.8213958740234 C 229.0626525878906 105.4974822998047 230.1251068115234 108.6610870361328 230.1251068115234 113.4929962158203 C 230.1251068115234 115.5581741333008 229.4570007324219 117.2850952148438 228.1393280029297 118.6258087158203 C 227.0124664306641 119.7723922729492 225.3815155029297 120.6710052490234 223.2917938232422 121.2967224121094 C 219.4597778320312 122.4440994262695 214.9271392822266 122.4440994262695 212.218994140625 122.4440994262695 C 210.03125 122.4440994262695 207.8211517333984 122.3745422363281 205.6838226318359 122.3072814941406 L 205.6196594238281 122.3052673339844 C 203.6902465820312 122.2441101074219 201.6666870117188 122.1875228881836 199.9396514892578 122.1875228881836 C 198.9236145019531 122.1875228881836 198.08642578125 122.2065200805664 197.3802642822266 122.2456207275391 C 197.0648498535156 122.2631988525391 196.5582427978516 122.3237228393555 195.8571014404297 122.4075088500977 L 195.6059112548828 122.4374923706055 C 193.2113037109375 122.7253570556641 189.2040863037109 123.2070922851562 184.9669952392578 123.2070922851562 Z" stroke="none"/>
      <path d="M 184.9669952392578 122.8682098388672 C 189.1837921142578 122.8682098388672 193.1783905029297 122.3879852294922 195.5658416748047 122.1009826660156 L 195.8170013427734 122.0709991455078 C 196.5242767333984 121.9864807128906 197.0353088378906 121.925407409668 197.3615570068359 121.9072418212891 C 198.0741271972656 121.8677978515625 198.9174041748047 121.8486251831055 199.9396209716797 121.8486251831055 C 201.6712646484375 121.8486251831055 203.6981201171875 121.9052963256836 205.6303100585938 121.9665374755859 L 205.6944732666016 121.9685516357422 C 207.8291931152344 122.0357360839844 210.0365753173828 122.1052093505859 212.218994140625 122.1052093505859 C 214.9085845947266 122.1052093505859 219.4101257324219 122.1052093505859 223.194580078125 120.9720687866211 C 225.2289428710938 120.3629379272461 226.8112640380859 119.4936218261719 227.8976440429688 118.3882522583008 C 229.16845703125 117.0952072143555 229.7862243652344 115.4939498901367 229.7862243652344 113.4929962158203 C 229.7862243652344 108.7735824584961 228.7671508789062 105.6979370117188 226.6707916259766 104.0903244018555 C 224.8865203857422 102.7220230102539 222.5752716064453 102.6018829345703 220.5359802246094 102.4958801269531 C 218.4975128173828 102.3904418945312 216.7370147705078 102.2993698120117 215.4788665771484 101.2318115234375 C 214.1518249511719 100.1058120727539 213.5779876708984 98.05466461181641 213.6182708740234 94.58115386962891 C 213.69189453125 88.21450805664062 213.0640258789062 80.20292663574219 212.3992767333984 71.72098541259766 C 211.6699981689453 62.42172622680664 210.9158935546875 52.80585479736328 211.1897277832031 45.69493865966797 C 211.5022888183594 37.56851196289062 210.2167663574219 32.12490844726562 207.2594451904297 29.05279541015625 C 205.5378723144531 27.26253890991211 203.2734222412109 26.35479545593262 200.5290069580078 26.35479545593262 C 198.0475921630859 26.35479545593262 195.1663360595703 27.09171104431152 191.9652709960938 28.54505348205566 C 189.1343231201172 29.83036804199219 186.0492553710938 31.67632484436035 182.7957153320312 34.03165435791016 C 177.6962585449219 37.72330856323242 172.0036468505859 42.8592529296875 167.5685424804688 47.76971054077148 L 167.4683990478516 47.88084411621094 L 167.4134826660156 48.01979446411133 C 165.7739715576172 52.17436599731445 165.5889892578125 55.2839241027832 166.8479614257812 57.52606582641602 C 168.693115234375 60.81105422973633 173.1528015136719 61.58339691162109 177.8746337890625 62.40113830566406 L 177.8815002441406 62.40232467651367 C 179.9860992431641 62.7667236328125 182.162353515625 63.14352416992188 184.1068878173828 63.75559616088867 C 185.7257537841797 64.26622772216797 187.0194244384766 65.716064453125 187.9518890380859 68.064697265625 C 190.0017242431641 73.22323608398438 189.7213592529297 80.96830749511719 189.3717803955078 85.12592315673828 C 188.8621673583984 91.18711090087891 187.620361328125 96.86939239501953 186.2818450927734 99.26536560058594 C 185.3075561523438 101.0107269287109 182.5281677246094 101.5478363037109 179.5845336914062 102.1166839599609 C 176.9025268554688 102.6355209350586 173.8626708984375 103.2235946655273 171.5977020263672 104.9008407592773 C 169.0204162597656 106.8093795776367 167.9697418212891 109.8222351074219 168.3856048583984 114.1114654541016 C 168.5246734619141 115.5427398681641 168.9657135009766 116.8111801147461 169.6964874267578 117.8815231323242 C 170.4300994873047 118.9560546875 171.4814300537109 119.8697357177734 172.8212738037109 120.5972137451172 C 175.5967102050781 122.1041412353516 179.68310546875 122.8682098388672 184.9669952392578 122.8682098388672 M 184.9669952392578 123.5459976196289 C 174.1199951171875 123.5459976196289 168.3150024414062 120.3939971923828 167.7109985351562 114.1770095825195 C 166.7160034179688 103.9149932861328 174.0809936523438 102.4909973144531 179.4570007324219 101.4509963989258 C 182.2409973144531 100.9129943847656 184.8699951171875 100.4039993286133 185.6900024414062 98.93499755859375 C 188.2089996337891 94.42601013183594 190.6439971923828 76.67501068115234 187.3220062255859 68.31499481201172 C 186.4680023193359 66.16399383544922 185.3170013427734 64.84799957275391 183.9029998779297 64.40199279785156 C 182 63.80299758911133 179.843994140625 63.42999649047852 177.7590026855469 63.06899642944336 C 172.8739929199219 62.22299575805664 168.2599945068359 61.42399597167969 166.2570037841797 57.85799407958984 C 164.8919982910156 55.42699432373047 165.0639953613281 52.12699508666992 166.7830047607422 47.77099609375 L 166.8829956054688 47.51799774169922 L 167.0650024414062 47.31599426269531 C 174.3240051269531 39.27899551391602 189.5399932861328 25.67700958251953 200.5290069580078 25.67700958251953 C 203.4640045166016 25.67700958251953 205.8930053710938 26.65399551391602 207.7480010986328 28.5829963684082 C 210.8399963378906 31.79499626159668 212.1869964599609 37.40199661254883 211.8670043945312 45.72099685668945 C 211.5950012207031 52.78499603271484 212.3470001220703 62.38499450683594 213.0749969482422 71.66799926757812 C 213.7409973144531 80.16599273681641 214.3699951171875 88.19199371337891 214.2960052490234 94.58899688720703 C 214.2160034179688 101.4899978637695 216.6080017089844 101.6139984130859 220.5709991455078 101.8189926147461 C 224.7460021972656 102.0360107421875 230.4640045166016 102.3329925537109 230.4640045166016 113.4929962158203 C 230.4640045166016 122.7819976806641 217.6790008544922 122.7829971313477 212.218994140625 122.7829971313477 C 210.0039978027344 122.7829971313477 207.7700042724609 122.7119979858398 205.6089935302734 122.6439971923828 C 202.4539642333984 122.5439987182617 199.4580230712891 122.4700088500977 197.3990020751953 122.5839996337891 C 197.0579986572266 122.6029968261719 196.4519958496094 122.6780090332031 195.64599609375 122.7740097045898 C 193.2420043945312 123.0630111694336 189.2169952392578 123.5459976196289 184.9669952392578 123.5459976196289 Z" stroke="none" fill="#231f20"/>
    </g>
  </g>
</svg>
