<svg xmlns="http://www.w3.org/2000/svg" width="141.257" height="80.466" viewBox="0 0 141.257 80.466">
  <g id="fr50" transform="translate(-1833.033 -1874.993)">
    <g id="nb2" transform="translate(1852.34 1854.177)" fill="#ef9f5e" stroke-miterlimit="10">
      <path d="M 85.14514923095703 100.9435348510742 L 85.14359283447266 100.9435348510742 C 77.87617492675781 100.9427795410156 71.60736083984375 97.87825012207031 66.51132202148438 91.83507537841797 C 58.10166168212891 81.86393737792969 55.33237075805664 66.56318664550781 56.56658172607422 59.35149765014648 C 58.41886138916016 48.52780914306641 62.70991134643555 39.48819732666016 68.975830078125 33.20991897583008 C 74.80556488037109 27.36940765380859 82.219482421875 24.15289688110352 89.85182952880859 24.15289688110352 C 98.58998107910156 24.15289688110352 107.1719589233398 28.30895805358887 114.0168914794922 35.85548782348633 C 116.0008087158203 38.04248809814453 117.6502227783203 40.85980606079102 118.9192886352539 44.22920608520508 C 120.1489944458008 47.49404907226562 120.9701690673828 51.13315963745117 121.3600387573242 55.04544830322266 C 121.7502746582031 58.96140670776367 121.6882934570312 62.94988632202148 121.1758117675781 66.90008544921875 C 120.645393371582 70.98861694335938 119.653450012207 74.853759765625 118.2275543212891 78.38813018798828 C 112.7761535644531 91.90248870849609 101.6499786376953 99.89180755615234 86.89859008789062 100.8843765258789 C 86.30982971191406 100.9236297607422 85.71982574462891 100.9435348510742 85.14514923095703 100.9435348510742 Z M 96.82897186279297 58.08989715576172 C 94.18531036376953 58.08989715576172 90.73451995849609 59.85465621948242 87.59812164306641 62.81063842773438 C 84.47726440429688 65.75196075439453 82.15192413330078 69.41169738769531 81.37784576416016 72.60044860839844 C 80.52531433105469 76.11000823974609 80.82170104980469 79.66904449462891 82.21240997314453 82.62189483642578 C 83.57462310791016 85.51371002197266 85.82752990722656 87.470947265625 88.55612945556641 88.13308715820312 C 89.00585174560547 88.24221038818359 89.48839569091797 88.29753875732422 89.99037933349609 88.29753875732422 C 92.67557525634766 88.29753875732422 95.92095184326172 86.74534606933594 98.89437866210938 84.03895568847656 C 101.8550720214844 81.34416961669922 103.9852294921875 78.01824951171875 104.738655090332 74.91401672363281 C 105.6056900024414 71.34119415283203 105.3885345458984 67.46025085449219 104.1428527832031 64.26626586914062 C 102.8757705688477 61.01688766479492 100.7238235473633 58.87435913085938 98.08344268798828 58.23334884643555 C 97.69187927246094 58.13816833496094 97.26979064941406 58.08989715576172 96.82897186279297 58.08989715576172 Z" stroke="none"/>
      <path d="M 89.85182952880859 24.49178314208984 C 82.31012725830078 24.49178314208984 74.98139953613281 27.6729736328125 69.21570587158203 33.44931030273438 C 62.99951934814453 39.67776489257812 58.74104309082031 48.65436553955078 56.90061950683594 59.40866088867188 C 56.59503936767578 61.19422912597656 56.54510498046875 63.47808456420898 56.75621795654297 66.01332092285156 C 56.97988891601562 68.69924163818359 57.49706268310547 71.62001037597656 58.25185394287109 74.45986175537109 C 59.08974456787109 77.61241149902344 60.19810485839844 80.62835693359375 61.54615020751953 83.4239501953125 C 63.03919982910156 86.52024078369141 64.796875 89.27664184570312 66.77039337158203 91.61659240722656 C 71.79904937744141 97.57987213134766 77.98070526123047 100.6038970947266 85.14514923095703 100.6046524047852 C 85.71229553222656 100.6046524047852 86.29473114013672 100.5849838256836 86.87583923339844 100.5462417602539 C 94.15702056884766 100.0563201904297 100.5426712036133 97.87345886230469 105.8554534912109 94.05831909179688 C 111.1666717529297 90.24429321289062 115.2235107421875 84.92942810058594 117.9132690429688 78.26132965087891 C 119.3284072875977 74.75363922119141 120.3130187988281 70.91649627685547 120.839729309082 66.85648345947266 C 121.3488922119141 62.93186187744141 121.4104843139648 58.9693603515625 121.022819519043 55.07904815673828 C 120.6358795166016 51.19612121582031 119.8214416503906 47.58589935302734 118.6021423339844 44.34866333007812 C 117.3481750488281 41.01936340332031 115.7210235595703 38.23846435546875 113.7658615112305 36.08317565917969 C 106.9860000610352 28.60835266113281 98.49314880371094 24.49178314208984 89.85182952880859 24.49178314208984 M 89.99037170410156 88.63642883300781 C 89.46153259277344 88.63642883300781 88.95211029052734 88.57789611816406 88.47621154785156 88.46243286132812 C 85.64601135253906 87.77561950683594 83.31259918212891 85.75270843505859 81.90580749511719 82.76628112792969 C 80.48223876953125 79.74366760253906 80.17778778076172 76.10492706298828 81.04850769042969 72.5205078125 C 81.83745574951172 69.27056884765625 84.19900512695312 65.54852294921875 87.36568450927734 62.56401824951172 C 90.61112213134766 59.50528717041016 94.06034851074219 57.75101470947266 96.82897186279297 57.75101470947266 C 97.29677581787109 57.75101470947266 97.74581146240234 57.80250549316406 98.16339874267578 57.90401458740234 C 100.9144515991211 58.57188415527344 103.1501312255859 60.78765869140625 104.4585876464844 64.14312744140625 C 105.7288970947266 67.4002685546875 105.9510192871094 71.35523986816406 105.067985534668 74.99395751953125 C 104.2990112304688 78.16227722167969 102.131965637207 81.55039978027344 99.12249755859375 84.28958129882812 C 96.08743286132812 87.05206298828125 92.7589111328125 88.63642883300781 89.99037170410156 88.63642883300781 M 89.85182952880859 23.81399536132812 C 98.68611145019531 23.81399536132812 107.3577041625977 28.00930786132812 114.2679061889648 35.6278076171875 C 122.5028686523438 44.70570373535156 124.4199295043945 63.94497299194336 118.5418243408203 78.51492309570312 C 113.0388946533203 92.15705871582031 101.8088531494141 100.2207717895508 86.92134094238281 101.2225036621094 C 86.32590484619141 101.26220703125 85.72812652587891 101.2824401855469 85.14514923095703 101.2824401855469 L 85.14360046386719 101.2824401855469 C 77.77182769775391 101.2816619873047 71.41581726074219 98.17681884765625 66.25224304199219 92.05354309082031 C 57.77601623535156 82.00347900390625 54.9871826171875 66.57112884521484 56.2325439453125 59.29432678222656 C 58.09669494628906 48.40130615234375 62.42043304443359 39.29850769042969 68.7359619140625 32.97050476074219 C 74.629638671875 27.06594848632812 82.12826538085938 23.81399536132812 89.85182952880859 23.81399536132812 Z M 89.99037170410156 87.95864105224609 C 95.44895172119141 87.95864105224609 102.8611831665039 81.21267700195312 104.4093170166016 74.83409118652344 C 105.2600631713867 71.32840728759766 105.0483551025391 67.52072143554688 103.8271179199219 64.389404296875 C 102.6012191772461 61.24565124511719 100.5331268310547 59.17679595947266 98.00349426269531 58.56267547607422 C 97.63845062255859 58.47393798828125 97.24304962158203 58.42881011962891 96.82897186279297 58.42881011962891 C 91.37895965576172 58.42881011962891 83.32382202148438 66.02082824707031 81.70717620849609 72.68039703369141 C 80.87278747558594 76.11524963378906 81.16155242919922 79.59526062011719 82.51899719238281 82.47749328613281 C 83.83673858642578 85.27488708496094 86.00911712646484 87.16627502441406 88.63605499267578 87.80375671386719 C 89.05947113037109 87.90647888183594 89.51480865478516 87.95864105224609 89.99037170410156 87.95864105224609 Z" stroke="none" fill="#231f20"/>
    </g>
    <g id="Tracé_145" data-name="Tracé 145" transform="translate(1778.769 1727.162)" fill="#ef9f5e" stroke-miterlimit="10">
      <path d="M 83.49214172363281 226.6755676269531 L 83.49054718017578 226.6755676269531 C 78.96736907958984 226.6755676269531 63.71615219116211 226.1387329101562 57.37120056152344 219.2310485839844 C 55.30218887329102 216.9787292480469 54.38576126098633 214.278076171875 54.6473388671875 211.2041168212891 C 54.95917129516602 207.5389251708984 55.88835144042969 204.7785034179688 57.40906143188477 202.9995574951172 C 58.93066024780273 201.2195739746094 61.03750991821289 200.3543090820312 63.85000991821289 200.3543090820312 C 67.48812866210938 200.3543090820312 71.82350921630859 201.8707885742188 76.01614379882812 203.3373565673828 L 76.02703857421875 203.3411560058594 C 80.05506134033203 204.7483520507812 84.22020721435547 206.2034454345703 87.51322174072266 206.2034454345703 C 90.07208251953125 206.2025909423828 91.81768798828125 205.3560943603516 93.00846099853516 203.5394592285156 C 94.88813018798828 200.6716003417969 95.42101287841797 198.2309875488281 94.63754272460938 196.078125 C 92.76576232910156 190.93505859375 83.53677368164062 188.1558227539062 76.12113952636719 185.9226837158203 C 71.33682250976562 184.4819793701172 67.20493316650391 183.2377471923828 65.44567108154297 181.5472869873047 C 60.24174118041992 176.5454559326172 59.89276885986328 166.8906707763672 62.2376708984375 159.9386291503906 C 64.36882781982422 153.6187133789062 68.46984100341797 149.661376953125 73.48917388916016 149.0813140869141 C 76.43698120117188 148.7409362792969 82.33868408203125 148.1699066162109 88.74388885498047 148.1699066162109 C 101.4598770141602 148.1699066162109 109.5684280395508 150.3152923583984 112.8443069458008 154.5464630126953 C 114.4339904785156 156.6011657714844 114.8600921630859 159.1121368408203 114.1106872558594 162.0095520019531 C 113.6078643798828 163.954345703125 112.2826919555664 165.2732849121094 110.059440612793 166.041748046875 C 107.8724136352539 166.7977142333984 105.1635971069336 166.8946533203125 103.0480270385742 166.8946533203125 C 101.3531799316406 166.8946533203125 99.54837799072266 166.8153381347656 97.80299377441406 166.7386322021484 L 97.762451171875 166.7368621826172 L 97.71691131591797 166.73486328125 C 95.99742126464844 166.6595153808594 94.21939086914062 166.5815887451172 92.57328796386719 166.5815887451172 C 89.37049102783203 166.5815887451172 85.49649810791016 166.8343048095703 83.95514678955078 168.8049011230469 C 83.11077880859375 169.8838043212891 82.96064758300781 171.4579010009766 83.49623870849609 173.6170806884766 C 83.81674194335938 174.9101867675781 87.05877685546875 176.0389251708984 91.96826171875 177.6133117675781 C 97.11985015869141 179.2662963867188 103.5283584594727 181.3226013183594 108.5937194824219 184.9960784912109 C 111.3246536254883 186.9765930175781 113.4164199829102 189.2716369628906 114.8109512329102 191.8174896240234 C 116.4216918945312 194.758056640625 117.1764297485352 198.1609191894531 117.0541915893555 201.9315338134766 C 116.8746795654297 207.4832458496094 113.7850494384766 213.1448364257812 108.3544540405273 217.8734130859375 C 105.9022903442383 220.0085906982422 103.0091094970703 221.8971710205078 99.98769378662109 223.3349761962891 C 96.97263336181641 224.769775390625 93.810791015625 225.7649688720703 90.84397888183594 226.2129821777344 C 88.87139892578125 226.5112915039062 86.26049041748047 226.6755676269531 83.49214172363281 226.6755676269531 Z" stroke="none"/>
      <path d="M 88.74388122558594 148.5088043212891 C 82.3555908203125 148.5088043212891 76.46858978271484 149.0784301757812 73.52806854248047 149.4179534912109 C 68.64444732666016 149.9823455810547 64.64630889892578 153.8564453125 62.55879974365234 160.0469360351562 C 61.36531829833984 163.5852813720703 60.92670440673828 167.7474365234375 61.35541534423828 171.4662017822266 C 61.69132232666016 174.3800811767578 62.71436309814453 178.4520111083984 65.68048095703125 181.3029327392578 C 67.38087463378906 182.9368133544922 71.47650909423828 184.1701202392578 76.2188720703125 185.5981750488281 C 83.70695495605469 187.8531341552734 93.02613067626953 190.6595306396484 94.95600128173828 195.9622192382812 C 95.77855682373047 198.2224884033203 95.23422241210938 200.7617950439453 93.29189300537109 203.7252349853516 C 92.04993438720703 205.6199951171875 90.16029357910156 206.5414581298828 87.51322174072266 206.5423278808594 C 84.1627197265625 206.5423278808594 79.97000122070312 205.0776062011719 75.91532135009766 203.6611022949219 L 75.90425109863281 203.6572418212891 C 71.73831939697266 202.2000274658203 67.43056488037109 200.6932067871094 63.84999847412109 200.6932067871094 C 61.14256286621094 200.6932067871094 59.11997985839844 201.5196533203125 57.66666412353516 203.2197723388672 C 56.19293975830078 204.9437255859375 55.29071044921875 207.6397247314453 54.98501586914062 211.2328643798828 C 54.73180389404297 214.2083892822266 55.61859130859375 216.8222198486328 57.62078857421875 219.0017852783203 C 59.04456329345703 220.5518493652344 61.05094146728516 221.8885650634766 63.58419036865234 222.9748382568359 C 65.73109436035156 223.8954467773438 68.27339935302734 224.644287109375 71.14045715332031 225.2005615234375 C 76.23527526855469 226.1890716552734 81.06504058837891 226.336669921875 83.49214172363281 226.336669921875 C 86.24406433105469 226.336669921875 88.83697509765625 226.1737365722656 90.79336547851562 225.8778991699219 C 93.72769927978516 225.4347839355469 96.85668182373047 224.4496307373047 99.84207153320312 223.0289611816406 C 102.8360595703125 221.6042022705078 105.7026519775391 219.7330627441406 108.1319122314453 217.6178283691406 C 113.4906768798828 212.9517822265625 116.5390319824219 207.3770751953125 116.7154693603516 201.9205474853516 C 116.8357086181641 198.2113494873047 116.0949325561523 194.8669586181641 114.5137023925781 191.9803009033203 C 113.1241760253906 189.4435577392578 111.1226501464844 187.2487335205078 108.3947601318359 185.2704162597656 C 103.3732376098633 181.6287231445312 96.99331665039062 179.5816192626953 91.86477661132812 177.9360046386719 C 89.96133422851562 177.3256072998047 87.99308776855469 176.6944274902344 86.40634155273438 176.0441131591797 C 84.33282470703125 175.1942749023438 83.36414337158203 174.4928131103516 83.16730499267578 173.6986694335938 C 82.60495758056641 171.4315948486328 82.775390625 169.7624664306641 83.68822479248047 168.5960998535156 C 84.45033264160156 167.6217498779297 85.74352264404297 166.9707183837891 87.64170837402344 166.6057739257812 C 89.33451080322266 166.2803344726562 91.2669677734375 166.2426910400391 92.57328033447266 166.2426910400391 C 94.22681427001953 166.2426910400391 96.00862884521484 166.3207702636719 97.73178100585938 166.3963012695312 L 97.81727600097656 166.4000396728516 C 99.55918884277344 166.4765930175781 101.3604278564453 166.5557708740234 103.0480346679688 166.5557708740234 C 105.137092590332 166.5557708740234 107.8093643188477 166.4609222412109 109.9487152099609 165.7214508056641 C 112.0563201904297 164.9929351806641 113.3103790283203 163.7510223388672 113.7825927734375 161.9246826171875 C 114.5043792724609 159.1340026855469 114.0984954833984 156.7213592529297 112.5763397216797 154.7539367675781 C 111.0052337646484 152.7246551513672 108.2236938476562 151.1656646728516 104.3089752197266 150.1202392578125 C 100.3049545288086 149.0509643554688 95.06810760498047 148.5088043212891 88.74388122558594 148.5088043212891 M 88.74388122558594 147.8310089111328 C 101.5697784423828 147.8310089111328 109.7684478759766 150.0200500488281 113.1122894287109 154.3389892578125 C 114.7694244384766 156.4808959960938 115.2158660888672 159.0899963378906 114.4387893676758 162.0944061279297 C 113.2680053710938 166.6226043701172 108.0234603881836 167.2335510253906 103.0480346679688 167.2335510253906 C 101.3325881958008 167.2335510253906 99.51011657714844 167.1528778076172 97.74758148193359 167.0754241943359 C 96.01615142822266 166.9995574951172 94.2264404296875 166.9204864501953 92.57328033447266 166.9204864501953 C 89.44748687744141 166.9204864501953 85.67318725585938 167.1584777832031 84.22209930419922 169.0136871337891 C 83.44582366943359 170.0055694580078 83.31645202636719 171.484619140625 83.82516479492188 173.5354919433594 C 84.12386322021484 174.7406158447266 88.34617614746094 176.0958709716797 92.07175445556641 177.2906036376953 C 102.3660125732422 180.5937194824219 117.9231872558594 185.5843200683594 117.3929061889648 201.9425201416016 C 116.9983825683594 214.1438751220703 103.1111221313477 224.7032623291016 90.89457702636719 226.5480804443359 C 88.90361022949219 226.8491668701172 86.27455139160156 227.0144653320312 83.49214172363281 227.0144653320312 L 83.49053955078125 227.0144653320312 C 78.93280029296875 227.0144653320312 63.56010437011719 226.4698181152344 57.12161254882812 219.4602966308594 C 54.98528289794922 217.1347045898438 54.03971862792969 214.3475036621094 54.30966186523438 211.1753845214844 C 54.94855499267578 203.6659240722656 58.06876373291016 200.0154113769531 63.84999847412109 200.0154113769531 C 67.54204559326172 200.0154113769531 71.90651702880859 201.5408020019531 76.12803649902344 203.0174560546875 C 80.13313293457031 204.4166412353516 84.27478790283203 205.8645477294922 87.51322174072266 205.8645477294922 L 87.51481628417969 205.8645477294922 C 89.94661712646484 205.8637390136719 91.60216522216797 205.0667114257812 92.72502899169922 203.3536682128906 C 94.54189300537109 200.5816497802734 95.06339263916016 198.2392883300781 94.31906890869141 196.1940155029297 C 92.50541687011719 191.2106170654297 83.36675262451172 188.4585571289062 76.02342224121094 186.2471771240234 C 71.19654083251953 184.7936706542969 67.02853393554688 183.5382385253906 65.21086120605469 181.7916564941406 C 59.90561676025391 176.6924438476562 59.53744506835938 166.8837585449219 61.91655731201172 159.830322265625 C 64.0911865234375 153.3814392089844 68.29514312744141 149.3404083251953 73.45026397705078 148.7446441650391 C 76.403564453125 148.4036407470703 82.3189697265625 147.8310089111328 88.74388122558594 147.8310089111328 Z" stroke="none" fill="#231f20"/>
    </g>
  </g>
</svg>
