<svg xmlns="http://www.w3.org/2000/svg" width="133.619" height="86.627" viewBox="0 0 133.619 86.627">
  <g id="fr89" transform="translate(-1438.669 -2948.985)">
    <g id="Tracé_35" data-name="Tracé 35" transform="translate(1074.833 2803.622)" fill="#ef9f5e" stroke-miterlimit="10">
      <path d="M 396.2722473144531 231.6517333984375 C 382.8390197753906 231.6517333984375 371.4454956054688 225.16845703125 366.5379028320312 214.7319488525391 C 363.4192810058594 208.1000518798828 363.3847351074219 202.1474609375 366.4351806640625 197.0395660400391 C 367.5575866699219 195.1601104736328 369.095703125 193.4092254638672 371.0067749023438 191.8355407714844 C 372.3981323242188 190.6898193359375 373.951416015625 189.6628723144531 375.62353515625 188.7831726074219 C 377.5814819335938 187.7532196044922 378.3638916015625 185.3939666748047 377.4047546386719 183.4121246337891 C 374.1158142089844 176.6110382080078 369.4136352539062 163.8826293945312 374.8746643066406 155.0506744384766 C 378.6143798828125 148.9999237060547 386.4421691894531 145.8554382324219 398.140625 145.7044830322266 L 398.4224548339844 145.7028961181641 C 405.7501220703125 145.7029113769531 414.2540893554688 149.5274963378906 420.0853881835938 155.4464721679688 C 424.3020629882812 159.7268829345703 426.5872192382812 164.5563659667969 426.5198669433594 169.0452880859375 C 426.4147033691406 176.0083618164062 423.3363037109375 181.2420196533203 416.8320007324219 185.515869140625 C 416.3760070800781 185.8153991699219 416.1221313476562 186.2992095947266 416.1354675292969 186.8432159423828 C 416.1487426757812 187.3887329101562 416.4268188476562 187.8614501953125 416.8983764648438 188.1401062011719 C 425.2152099609375 193.0575561523438 429.1214294433594 200.12939453125 427.8973999023438 208.0528869628906 C 426.3343200683594 218.1587219238281 416.5831298828125 228.0471343994141 405.6979370117188 230.5647583007812 C 402.5750732421875 231.2860107421875 399.4037780761719 231.6517333984375 396.2722473144531 231.6517333984375 Z M 397.7496948242188 197.2103271484375 C 396.3997497558594 197.2103271484375 395.1021118164062 197.4125823974609 393.9970703125 197.7951965332031 C 387.7993774414062 199.9421234130859 384.7766418457031 205.1103363037109 384.5908813476562 209.0036926269531 C 384.5145874023438 210.6059265136719 385.2344665527344 212.2958526611328 386.6179504394531 213.7622375488281 C 388.7680969238281 216.0422668457031 392.1632385253906 217.427001953125 395.6998901367188 217.4663543701172 L 395.9199829101562 217.4679718017578 C 400.0267028808594 217.4679718017578 403.4246215820312 216.2138214111328 405.7488403320312 213.8410949707031 C 407.8331298828125 211.7122497558594 408.8982849121094 208.8579254150391 408.8292236328125 205.5865936279297 C 408.7144470214844 200.1460113525391 403.0351257324219 197.2103271484375 397.7496948242188 197.2103271484375 Z M 398.6018371582031 164.1329650878906 C 397.291259765625 164.1329650878906 395.9991149902344 164.3407592773438 394.8651123046875 164.7338714599609 C 390.3346557617188 166.3028259277344 388.9341430664062 170.2031860351562 389.8922424316406 173.2451171875 C 390.2864685058594 174.49658203125 391.4920349121094 175.6482391357422 393.2868347167969 176.4879455566406 C 395.0385437011719 177.3074951171875 397.1938781738281 177.7588500976562 399.3557434082031 177.7588500976562 C 399.8556213378906 177.7588500976562 400.3556213378906 177.7349395751953 400.8419189453125 177.6877746582031 C 403.3514099121094 177.4417266845703 405.5206909179688 176.2740631103516 406.7939453125 174.4841766357422 C 407.6774291992188 173.2418518066406 408.0152893066406 171.8288269042969 407.720947265625 170.6073608398438 C 406.2742004394531 164.5998687744141 400.3753051757812 164.1329650878906 398.6018371582031 164.1329650878906 Z" stroke="none"/>
      <path d="M 398.4220275878906 146.0417938232422 L 398.14501953125 146.0433502197266 C 386.5700073242188 146.1927185058594 378.8377685546875 149.2831420898438 375.1629028320312 155.2288970947266 C 369.7870178222656 163.9232025146484 374.451171875 176.5260620117188 377.7098083496094 183.2644805908203 C 378.7489929199219 185.4117431640625 377.9018859863281 187.9675903320312 375.7813110351562 189.0831146240234 C 374.129638671875 189.9520416259766 372.5957336425781 190.9661102294922 371.2221984863281 192.0971527099609 C 369.3412170410156 193.6460418701172 367.8285217285156 195.3673706054688 366.7261047363281 197.2133331298828 C 363.7370300292969 202.218505859375 363.7768859863281 208.0641021728516 366.8446044921875 214.5877380371094 C 371.6957092285156 224.9041595458984 382.9717102050781 231.3128509521484 396.2722473144531 231.3128509521484 C 399.3781127929688 231.3128509521484 402.5237426757812 230.9500427246094 405.6215515136719 230.2345581054688 C 410.8234252929688 229.0314331054688 415.9497680664062 226.0738372802734 420.0562438964844 221.9065704345703 C 424.1527404785156 217.7494201660156 426.8185424804688 212.8110046386719 427.5624694824219 208.0011596679688 C 428.1595153808594 204.1364440917969 427.5302429199219 200.4854888916016 425.6921691894531 197.1497039794922 C 423.8393859863281 193.7872467041016 420.8226928710938 190.8541259765625 416.7259826660156 188.431884765625 C 416.1600341796875 188.0974273681641 415.8126220703125 187.5066070556641 415.7966613769531 186.8515167236328 C 415.7803955078125 186.1879272460938 416.0899353027344 185.5978546142578 416.6459045410156 185.2326354980469 C 419.8912963867188 183.1001434326172 422.2286682128906 180.7704467773438 423.79150390625 178.1104125976562 C 425.3471984863281 175.4625549316406 426.1288146972656 172.4956512451172 426.1810302734375 169.0402069091797 C 426.2469787597656 164.6427459716797 423.9964294433594 159.8995361328125 419.843994140625 155.684326171875 C 414.0735168457031 149.8270721435547 405.6651611328125 146.0422668457031 398.4220275878906 146.0417938232422 M 399.3557434082031 178.0977325439453 C 397.145263671875 178.0977325439453 394.93896484375 177.6350402832031 393.1432189941406 176.7949066162109 C 391.2614440917969 175.9145050048828 389.9920959472656 174.6900024414062 389.5690002441406 173.3469390869141 C 388.5617065429688 170.1488494873047 390.0193786621094 166.0533752441406 394.7541198730469 164.4136657714844 C 395.9234008789062 164.0083160400391 397.2539367675781 163.7940673828125 398.6018371582031 163.7940673828125 C 400.4379272460938 163.7940673828125 406.545654296875 164.2796783447266 408.0504150390625 170.5279541015625 C 408.3677368164062 171.8447570800781 408.0104370117188 173.3583068847656 407.0700988769531 174.6806182861328 C 405.739990234375 176.5504455566406 403.4820861816406 177.7694396972656 400.8746337890625 178.0250854492188 C 400.3775329589844 178.0733032226562 399.8665161132812 178.0977325439453 399.3557434082031 178.0977325439453 M 395.9224548339844 217.8068542480469 L 395.6961059570312 217.8052215576172 C 392.0693054199219 217.7648620605469 388.5834045410156 216.3403625488281 386.3714294433594 213.9947967529297 C 384.9242248535156 212.4608459472656 384.1716613769531 210.6826019287109 384.2523498535156 208.987548828125 C 384.4433898925781 204.9838562011719 387.5396118164062 199.6734619140625 393.8861999511719 197.4749603271484 C 395.0264587402344 197.0801391601562 396.3624267578125 196.8714294433594 397.7496948242188 196.8714294433594 C 403.1959533691406 196.8714294433594 409.0487060546875 199.9233856201172 409.1680297851562 205.5794525146484 C 409.2390441894531 208.9439544677734 408.1404724121094 211.8827514648438 405.9909362792969 214.0782470703125 C 403.6015014648438 216.5175323486328 400.119873046875 217.8068542480469 395.9224548339844 217.8068542480469 M 398.4205322265625 145.364013671875 C 405.8365783691406 145.364013671875 414.4353332519531 149.2285614013672 420.3268127441406 155.2086334228516 C 424.6082153320312 159.5547485351562 426.9274291992188 164.4702606201172 426.8587341308594 169.0503692626953 C 426.751708984375 176.1357574462891 423.6250915527344 181.4577789306641 417.0180969238281 185.7990875244141 C 416.6618957519531 186.0330810546875 416.4638366699219 186.4100341796875 416.4742431640625 186.8349151611328 C 416.484619140625 187.2605590820312 416.7018432617188 187.6303253173828 417.07080078125 187.8483581542969 C 425.5154113769531 192.8413543701172 429.47900390625 200.0345458984375 428.2323303222656 208.1046295166016 C 426.6494750976562 218.3381805419922 416.7856750488281 228.3481292724609 405.7742919921875 230.8949279785156 C 402.627685546875 231.6216735839844 399.4308166503906 231.9906311035156 396.2722473144531 231.9906311035156 C 382.7068176269531 231.9906311035156 371.1954650878906 225.4331512451172 366.2312316894531 214.8761596679688 C 358.9039001464844 199.2942199707031 370.2483215332031 191.2281188964844 375.4657287597656 188.4832611083984 C 377.2602233886719 187.5392913818359 377.97900390625 185.3766174316406 377.0997009277344 183.5597534179688 C 373.7806396484375 176.6963806152344 369.0399780273438 163.8425445556641 374.58642578125 154.8724365234375 C 378.3910827636719 148.7166442871094 386.3150024414062 145.5181579589844 398.1362609863281 145.3656158447266 L 398.4205322265625 145.364013671875 Z M 399.3557434082031 177.4199523925781 C 399.8428955078125 177.4199523925781 400.3316650390625 177.3967742919922 400.8092041015625 177.3504638671875 C 403.2202758789062 177.1140594482422 405.3014831542969 175.9975891113281 406.5177917480469 174.2877349853516 C 407.3435668945312 173.1265411376953 407.6630249023438 171.8135986328125 407.3914794921875 170.6867523193359 C 406.002685546875 164.9198913574219 400.3125 164.4718627929688 398.6018371582031 164.4718627929688 C 397.3288269042969 164.4718627929688 396.0750122070312 164.6731262207031 394.9761047363281 165.0540618896484 C 390.6499633789062 166.5522766113281 389.3066711425781 170.2578887939453 390.2154846191406 173.143310546875 C 390.9709777832031 175.5415802001953 394.9864807128906 177.4199523925781 399.3557434082031 177.4199523925781 Z M 395.9224548339844 217.1290740966797 C 399.9347229003906 217.1290740966797 403.2482299804688 215.9095764160156 405.5067443847656 213.6039428710938 C 407.525634765625 211.5419006347656 408.5574951171875 208.7722778320312 408.4903869628906 205.59375 C 408.3801574707031 200.3683776855469 402.8744506835938 197.5492248535156 397.7496948242188 197.5492248535156 C 396.4375610351562 197.5492248535156 395.1781311035156 197.7448883056641 394.1079711914062 198.1154479980469 C 388.0584106445312 200.2110443115234 385.1098937988281 205.2367706298828 384.9293823242188 209.0198516845703 C 384.8575134277344 210.5292510986328 385.5451354980469 212.1312866210938 386.8644409179688 213.5296783447266 C 388.952880859375 215.7442474365234 392.257568359375 217.0891265869141 395.7036437988281 217.1274719238281 L 395.9224548339844 217.1290740966797 Z" stroke="none" fill="#231f20"/>
    </g>
    <g id="Tracé_142" data-name="Tracé 142" transform="translate(1030.857 2809.082)" fill="#ef9f5e" stroke-miterlimit="10">
      <path d="M 500.9170837402344 225.4365997314453 C 496.2771911621094 225.4365997314453 492.4551391601562 224.9937744140625 489.5570983886719 224.1204223632812 C 485.8357543945312 222.9989471435547 483.7298278808594 221.1807250976562 483.2978210449219 218.7162628173828 C 482.8504638671875 216.1626586914062 484.9032592773438 213.8765411376953 489.5735473632812 211.7273254394531 C 493.69140625 209.8323059082031 498.9871826171875 208.4247283935547 503.6595764160156 207.1828460693359 C 506.4024047851562 206.4535522460938 508.7711486816406 205.82373046875 509.7695617675781 205.3475494384766 C 512.8128051757812 203.8972625732422 513.74609375 202.7115631103516 513.6046752929688 202.0855560302734 C 513.3397216796875 200.9075927734375 509.8823852539062 199.7936248779297 506.4906616210938 199.7936248779297 L 506.2064819335938 199.7968444824219 C 505.5975341796875 199.8084869384766 505.0007934570312 199.8143768310547 504.43017578125 199.8143768310547 C 497.3859558105469 199.8143768310547 488.7638854980469 198.9202728271484 484.5811462402344 191.9479827880859 C 483.1207275390625 189.5136566162109 482.3851623535156 186.4190673828125 482.3948059082031 182.7501525878906 C 482.4036560058594 179.3898315429688 483.0616455078125 175.6412353515625 484.2975769042969 171.9096221923828 C 486.7946472167969 164.3705139160156 491.2854309082031 157.8382415771484 496.0174560546875 154.8619537353516 C 501.0068054199219 151.7235565185547 508.2171325683594 149.8498992919922 515.3050537109375 149.8498992919922 C 524.1849975585938 149.8498992919922 531.3240356445312 152.6976470947266 535.4071044921875 157.8685760498047 C 543.2581176757812 167.809814453125 542.9761962890625 185.0262908935547 534.5918579101562 207.6568145751953 C 530.8439331054688 217.7738800048828 519.875732421875 224.3703308105469 505.2520141601562 225.3023376464844 C 504.2908935546875 225.3635864257812 502.7586364746094 225.4365997314453 500.9170837402344 225.4365997314453 Z M 509.3178100585938 161.42138671875 C 507.3138122558594 161.42138671875 504.92138671875 162.4216766357422 502.7539978027344 164.1657562255859 C 500.5965881347656 165.9017944335938 498.9364624023438 168.1526336669922 498.1992492675781 170.3411254882812 C 497.4021606445312 172.7062225341797 497.7046813964844 174.984375 499.0740966796875 176.9292755126953 C 500.2500915527344 178.5994415283203 502.1660461425781 179.9464416503906 504.4690246582031 180.7221221923828 C 505.1357421875 180.9468994140625 505.8347473144531 181.0608825683594 506.5465698242188 181.0608825683594 C 510.2369079589844 181.0608825683594 513.8267211914062 178.0556945800781 515.2763671875 173.7527923583984 C 516.1283569335938 171.2255096435547 516.14892578125 168.5800018310547 515.3342895507812 166.3036651611328 C 514.5095825195312 163.9991607666016 512.9314575195312 162.3512725830078 510.8906860351562 161.6635589599609 C 510.4119567871094 161.5028228759766 509.8828735351562 161.42138671875 509.3178100585938 161.42138671875 Z" stroke="none"/>
      <path d="M 515.3050537109375 150.1887969970703 C 508.2783203125 150.1887969970703 501.135498046875 152.0429992675781 496.1978759765625 155.1488342285156 C 491.5294189453125 158.0851440429688 487.0927734375 164.5483245849609 484.6193237304688 172.0161895751953 C 483.3944702148438 175.7141265869141 482.7424926757812 179.4261779785156 482.7337036132812 182.7510375976562 C 482.7242431640625 186.3573608398438 483.4435424804688 189.3930053710938 484.8717651367188 191.7736358642578 C 488.967041015625 198.6000671386719 497.475341796875 199.4754791259766 504.43017578125 199.4754791259766 C 504.9989624023438 199.4754791259766 505.593505859375 199.4696197509766 506.1973266601562 199.4580535888672 L 506.20263671875 199.4579772949219 L 506.4906616210938 199.4547424316406 C 508.22314453125 199.4547424316406 509.9680786132812 199.7184600830078 511.4040832519531 200.1973114013672 C 512.4512329101562 200.5465087890625 513.7403564453125 201.1446990966797 513.935302734375 202.0108947753906 C 514.1590576171875 203.001708984375 512.6937866210938 204.3293914794922 509.9154357910156 205.6534271240234 C 508.888671875 206.1431732177734 506.5057983398438 206.7767333984375 503.7466430664062 207.5103759765625 C 499.0874633789062 208.7487487792969 493.8065795898438 210.15234375 489.7152099609375 212.0351867675781 C 487.5560913085938 213.0287933349609 485.946533203125 214.0691680908203 484.9312744140625 215.1273803710938 C 483.83984375 216.2650299072266 483.4147338867188 217.4198455810547 483.631591796875 218.6577453613281 C 484.0396728515625 220.9857177734375 486.0662231445312 222.7144470214844 489.6549072265625 223.7959442138672 C 492.521240234375 224.6597290039062 496.3103637695312 225.0977020263672 500.9171142578125 225.0977020263672 C 502.7496948242188 225.0977020263672 504.2742309570312 225.0250549316406 505.23046875 224.9641265869141 C 519.7166137695312 224.0408935546875 530.5740356445312 217.52685546875 534.2740478515625 207.5390777587891 C 538.4415283203125 196.2906799316406 540.6193237304688 186.3321990966797 540.7470703125 177.9402465820312 C 540.8736572265625 169.6314086914062 538.987548828125 162.9490051269531 535.14111328125 158.0785980224609 C 531.1236572265625 152.9907836914062 524.0791015625 150.1887969970703 515.3050537109375 150.1887969970703 M 506.5465698242188 181.3997650146484 C 505.7978515625 181.3997650146484 505.0623779296875 181.2798156738281 504.36083984375 181.0432891845703 C 501.9901123046875 180.2447662353516 500.01416015625 178.8530120849609 498.7969970703125 177.1243743896484 C 497.3628540039062 175.0875701904297 497.0451049804688 172.7045135498047 497.8780517578125 170.2329254150391 C 498.6353759765625 167.9848327636719 500.3350830078125 165.6772003173828 502.54150390625 163.9017333984375 C 504.76806640625 162.1100616455078 507.2379150390625 161.0824890136719 509.3178100585938 161.0824890136719 C 509.9196166992188 161.0824890136719 510.4849853515625 161.1698608398438 510.9989013671875 161.3424072265625 C 513.1400146484375 162.0639190673828 514.79296875 163.7853088378906 515.6533813476562 166.1894683837891 C 516.4935913085938 168.5373077392578 516.4737548828125 171.2618103027344 515.5975341796875 173.8609924316406 C 514.1021118164062 178.2997131347656 510.3802490234375 181.3997650146484 506.5465698242188 181.3997650146484 M 515.3050537109375 149.5110015869141 C 524.2903442382812 149.5110015869141 531.5242919921875 152.4044189453125 535.673095703125 157.6585540771484 C 543.60107421875 167.6972503662109 543.3375244140625 185.0265655517578 534.90966796875 207.7745513916016 C 531.1138305664062 218.0208740234375 520.0352783203125 224.6997528076172 505.2735595703125 225.6405487060547 C 504.308837890625 225.7020263671875 502.76904296875 225.7754974365234 500.9171142578125 225.7754974365234 C 493.2862548828125 225.7754974365234 483.978271484375 224.5608062744141 482.9639892578125 218.7747802734375 C 481.8858642578125 212.6205902099609 494.4202880859375 209.2879180908203 503.572509765625 206.8553314208984 C 506.2998046875 206.1301727294922 508.6541748046875 205.5040588378906 509.6236572265625 205.0416564941406 C 512.8093872070312 203.5234832763672 513.3388671875 202.4469299316406 513.2741088867188 202.1602172851562 C 513.0905151367188 201.3440246582031 510.1603393554688 200.1325225830078 506.4906616210938 200.1325225830078 L 506.2103271484375 200.1357116699219 C 505.6273803710938 200.1468811035156 505.0339965820312 200.1532745361328 504.43017578125 200.1532745361328 C 497.2969360351562 200.1532745361328 488.560791015625 199.2404479980469 484.29052734375 192.1223297119141 C 478.0477294921875 181.7162780761719 485.845458984375 160.8594360351562 495.8370361328125 154.5750885009766 C 500.8787841796875 151.4037475585938 508.1565551757812 149.5110015869141 515.3050537109375 149.5110015869141 Z M 506.5465698242188 180.7219848632812 C 510.09326171875 180.7219848632812 513.55126953125 177.8118133544922 514.9552001953125 173.6445922851562 C 516.6666870117188 168.5677490234375 514.794677734375 163.3367614746094 510.782470703125 161.9847106933594 C 510.3400268554688 161.8361663818359 509.8464965820312 161.7602844238281 509.3178100585938 161.7602844238281 C 505.2727661132812 161.7602844238281 500.0250244140625 165.9826049804688 498.5203857421875 170.4493103027344 C 496.866455078125 175.3568267822266 500.370849609375 178.9841766357422 504.5772094726562 180.4009552001953 C 505.2096557617188 180.6141815185547 505.87255859375 180.7219848632812 506.5465698242188 180.7219848632812 Z" stroke="none" fill="#231f20"/>
    </g>
  </g>
</svg>
