<?xml version="1.0" encoding="UTF-8"?><svg id="Layer_2" xmlns="http://www.w3.org/2000/svg" width="206.03" height="208.33" viewBox="0 0 206.03 208.33"><defs><style>.cls-1{fill:#9bb58c;}</style></defs><g id="Layer_1-2"><g><g><path class="cls-1" d="M117.58,195.42c-1.52,0-3.21-.18-5.03-.55-6.74-1.35-11.22-3.77-13.31-7.2-1.81-2.96-1.47-6.13-.86-8.27,.89-3.14,.43-6.37-1.25-8.85-1.74-2.57-3.88-3.88-6.37-3.88-4.97,0-9.83,5.18-12.45,7.97-.36,.38-.66,.71-.91,.95-1.3,1.3-3.87,2.61-6.29,2.61-3.25,0-5.3-2.31-5.92-6.68-.61-4.29-1.84-8.76-3.54-12.93-1.65-4.05-5.57-6.78-9.74-6.78-.66,0-1.33,.07-1.98,.2-4.5,.94-6.25,4.32-6.89,6.25-.37,1.11-.78,2.3-1.31,3.42-1.48,3.13-5.56,10.53-11.54,11.61-.53,.1-1.07,.14-1.63,.14h0c-5.5,0-11.28-4.47-14.39-11.13-2.57-7.85-2.63-13.14-.15-15.64,.8-.81,1.54-1,3-1.39,1.37-.36,3.25-.86,6.11-2.13,3.95-1.75,7.36-3.27,10.03-6.75,5.88-7.69,2.33-12.59-.3-14.82-1.44-1.21-3.03-1.91-8.65-2.83-3.08-.5-5-.7-6.39-.83-1.94-.19-2.66-.27-4.01-.92-1.33-.64-4.43-2.14-5.61-5.57-.95-2.74-.4-6.07,1.38-8.28,1.35-1.69,3.79-2.55,8.65-4.26,1-.35,1.91-.64,2.72-.91,3.19-1.03,5.12-1.66,6.12-3.74,.7-1.47,.52-2.9,.42-3.67-.7-5.45-5.99-7.74-6.22-7.83-1.03-.43-2.05-.64-3.1-.64s-1.91,.19-2.71,.36c-.68,.14-1.32,.28-1.92,.28-.46,0-.85-.08-1.25-.24-2.57-1.06-4.88-5.82-5.49-11.33-.79-7.17,1.29-13.22,5.55-16.19,1.47-1.02,3.21-1.7,5.17-1.99,.7-.11,1.42-.16,2.14-.16,3.49,0,6.96,1.26,9.77,3.56,3.36,2.74,8.26,6.01,12.52,6.01h0c5.49,0,8.27-5.11,8.27-15.17,0-11.07,4.11-16.68,12.22-16.68,4.11,0,8.31,1.43,11.1,2.63,1.63,.7,3.39,1.07,5.07,1.07,1.38,0,2.71-.24,3.95-.72,2.26-.87,3.81-2.33,4.59-4.35,1.64-4.24-.44-9.94-2.48-13.97-1.61-3.19-1.5-6.92,.28-9.74,1.99-3.14,5.47-4.74,10.35-4.74,1.94,0,4.11,.26,6.47,.76,5.99,1.28,9.75,3.41,11.17,6.31,1.25,2.55,.43,5.31-.47,7.18-2.02,4.18-2.67,8.54-1.89,12.62,2.31,12.16,11.55,17.56,16.65,18.84,1.37,.34,2.8,.51,4.25,.51,4.09,0,12-1.47,19.02-11.3,1.77-2.48,4.48-3,6.45-3,5.64,0,11.51,4,13.09,8.92,1.51,4.7-1.01,9.67-7.09,14.02-6.87,4.9-10.09,9.76-9.59,14.43,.75,6.92,9.36,10.69,9.73,10.84,8.98,2.57,11.09,5.21,11.29,6.98,.3,2.61-3.29,4.83-3.81,5.14-1.27,.41-15.44,5.25-12.4,15.88,1.55,5.44,6.92,8.43,15.1,8.43,2.64,0,4.67-.31,5.13-.39,.99,.08,10.57,1.03,14.07,7.11,2.08,3.62,1.65,8.42-1.28,14.28s-6.26,8.86-9.87,8.86c-4.3,0-8.57-4.12-11.69-7.14-1.85-1.78-3.31-3.19-4.51-3.6-.41-.14-.86-.21-1.32-.21-.9,0-1.91,.26-3,.78-2.61,1.24-4.57,3.45-5.54,6.25-1.01,2.92-.79,6.19,.59,8.97l.87,1.74c1.86,3.72,2.44,6.55,1.73,8.42-.38,1-1.12,1.71-2.27,2.17-.69,.28-1.42,.42-2.17,.42-2.02,0-4.02-1.03-5.23-2.69-2.17-2.98-5.99-6.54-11.85-6.54-.69,0-1.41,.05-2.12,.15-2.37,.34-4.22,1.48-5.5,3.39-3.87,5.75-1.23,16.56-1.11,17.02,.02,.1,2.43,10.02-1.85,15.5-1.88,2.4-4.82,3.62-8.74,3.62Z"/><path d="M95.29,1.5c1.88,0,4.01,.25,6.31,.74,5.75,1.23,9.34,3.22,10.65,5.91,.89,1.83,.74,4.02-.47,6.53-2.09,4.32-2.76,8.85-1.96,13.09,2.38,12.53,11.94,18.11,17.2,19.42,1.42,.36,2.92,.54,4.43,.54,9.86,0,16.53-7.27,19.63-11.61,1.58-2.22,4.05-2.68,5.84-2.68,4.68,0,10.77,3.38,12.38,8.4,1.42,4.43-.94,8.98-6.81,13.18-7.1,5.07-10.43,10.16-9.9,15.12,.79,7.35,9.79,11.29,10.18,11.45l.09,.04,.09,.03c9.27,2.65,10.54,5.29,10.66,6.31,.21,1.82-2.3,3.73-3.36,4.36-5.7,1.76-15.49,7.45-12.83,16.78,1.65,5.79,7.27,8.97,15.82,8.97,2.54,0,4.54-.29,5.16-.39,1.3,.12,10.17,1.13,13.39,6.73,1.94,3.38,1.5,7.95-1.31,13.57-2.8,5.6-5.9,8.44-9.2,8.44-4,0-8.14-4-11.17-6.93-1.92-1.85-3.43-3.31-4.8-3.77-.49-.16-1.01-.25-1.56-.25-1.01,0-2.13,.29-3.32,.85-2.79,1.32-4.89,3.69-5.92,6.68-1.07,3.11-.84,6.59,.63,9.55l.87,1.74c2.19,4.39,2.13,6.67,1.7,7.82-.3,.79-.91,1.36-1.85,1.74-.6,.24-1.24,.36-1.9,.36-1.78,0-3.55-.91-4.62-2.38-2.27-3.12-6.28-6.85-12.45-6.85-.73,0-1.48,.05-2.23,.16-2.59,.37-4.61,1.62-6.02,3.71-4.05,6.02-1.33,17.15-1.22,17.61,.02,.1,2.34,9.68-1.71,14.86-1.73,2.21-4.47,3.33-8.15,3.33-1.47,0-3.11-.18-4.88-.53-6.53-1.31-10.84-3.61-12.82-6.85-1.67-2.73-1.34-5.68-.78-7.68,.95-3.35,.46-6.8-1.35-9.47-1.89-2.79-4.24-4.21-6.99-4.21-5.29,0-10.3,5.34-12.99,8.21-.35,.37-.65,.69-.89,.93-1.19,1.19-3.55,2.39-5.76,2.39-2.87,0-4.61-2.03-5.18-6.04-.63-4.41-1.84-8.82-3.59-13.11-1.77-4.33-5.96-7.24-10.43-7.24-.71,0-1.43,.07-2.13,.22-5.05,1.05-6.89,5.07-7.45,6.75-.36,1.09-.77,2.25-1.28,3.34-1.11,2.36-5.2,10.14-11,11.19-.48,.09-.99,.13-1.5,.13-5.11,0-10.72-4.36-13.68-10.61-2.44-7.49-2.56-12.64-.33-14.88,.63-.63,1.14-.79,2.66-1.19,1.39-.37,3.3-.87,6.23-2.17,4.05-1.79,7.54-3.34,10.32-6.98,6.26-8.18,2.43-13.44-.42-15.84-1.73-1.47-3.76-2.14-9.01-3-3.11-.51-5.03-.7-6.44-.84-1.89-.19-2.53-.25-3.75-.85-1.24-.6-4.15-2.01-5.23-5.14-.87-2.51-.36-5.55,1.25-7.57,1.22-1.52,3.59-2.36,8.32-4.02,.99-.35,1.9-.64,2.69-.9,3.27-1.06,5.43-1.75,6.56-4.13,.79-1.67,.59-3.24,.48-4.09-.75-5.88-6.43-8.33-6.67-8.43-1.13-.47-2.23-.7-3.39-.7-1.09,0-2.03,.2-2.87,.38-.66,.14-1.24,.27-1.76,.27-.36,0-.66-.06-.97-.18-2.3-.94-4.46-5.55-5.03-10.72-.76-6.89,1.2-12.69,5.23-15.5,1.38-.96,3.01-1.59,4.85-1.87,.67-.1,1.35-.15,2.03-.15,3.32,0,6.62,1.2,9.3,3.39,3.45,2.82,8.51,6.18,12.99,6.18,7.45,0,9.01-8.66,9.01-15.92,0-5.96,1.22-10.3,3.63-12.9,1.86-2.01,4.5-3.03,7.85-3.03,3.99,0,8.08,1.4,10.81,2.57,1.73,.74,3.58,1.13,5.37,1.13,1.47,0,2.89-.26,4.22-.77,2.47-.95,4.16-2.56,5.02-4.78,1.74-4.5-.41-10.41-2.51-14.58-1.49-2.96-1.4-6.4,.24-9,1.84-2.91,5.11-4.39,9.72-4.39M95.29,0c-6.05,0-9.28,2.38-10.99,5.09-1.98,3.14-1.99,7.16-.31,10.48,2.42,4.79,6.03,14.32-1.71,17.29-1.19,.45-2.43,.67-3.68,.67-1.63,0-3.26-.36-4.78-1.01-2.69-1.15-7.08-2.69-11.4-2.69-6.57,0-12.97,3.56-12.97,17.43,0,11.04-3.38,14.42-7.52,14.42s-9.01-3.36-12.05-5.84c-2.91-2.37-6.54-3.73-10.25-3.73-.75,0-1.5,.06-2.25,.17-1.86,.28-3.76,.91-5.48,2.12-9.77,6.8-6.12,26.28,.08,28.83,.52,.21,1.03,.29,1.53,.29,1.44,0,2.86-.65,4.63-.65,.85,0,1.77,.15,2.81,.59,.26,.11,5.13,2.23,5.77,7.24,.1,.79,.24,2-.35,3.25-1.08,2.27-3.62,2.58-8.4,4.26-5,1.76-7.51,2.64-8.99,4.5-1.9,2.37-2.56,5.94-1.5,8.99,1.29,3.72,4.67,5.35,5.99,5.99,2.5,1.21,3.18,.6,10.6,1.82,5.42,.89,6.94,1.52,8.29,2.67,3.07,2.6,5.37,7.02,.19,13.79-2.53,3.3-5.75,4.76-9.74,6.52-5.95,2.64-7.55,1.87-9.35,3.67-1.97,1.98-3.36,6.24,0,16.49,3.34,7.14,9.52,11.56,15.07,11.56,.6,0,1.19-.05,1.76-.16,6.3-1.14,10.57-8.81,12.09-12.03,.53-1.13,.95-2.32,1.35-3.51,.57-1.72,2.17-4.89,6.33-5.76,.61-.13,1.22-.19,1.83-.19,3.91,0,7.51,2.56,9.04,6.31,1.29,3.17,2.75,7.6,3.49,12.76,.79,5.55,3.68,7.32,6.67,7.32,2.66,0,5.41-1.41,6.82-2.83,1.91-1.91,7.48-8.7,12.82-8.7,2.02,0,4.01,.97,5.75,3.55,1.63,2.41,1.94,5.43,1.15,8.23-1.31,4.63-1.31,13.2,14.75,16.41,1.93,.39,3.64,.56,5.17,.56,16.32,0,11.31-20.04,11.31-20.04,0,0-4.5-17.98,5.99-19.48,.7-.1,1.37-.15,2.02-.15,5.65,0,9.3,3.56,11.24,6.23,1.37,1.89,3.58,3,5.83,3,.83,0,1.66-.15,2.45-.47,2.81-1.12,4.68-4.12,.94-11.61l-.87-1.74c-2.6-5.2-.65-11.72,4.6-14.2,.92-.44,1.84-.71,2.68-.71,.38,0,.74,.05,1.09,.17,3.01,1,9.4,10.77,16.44,10.77,3.46,0,7.08-2.36,10.54-9.27,10.49-20.98-13.49-22.48-13.49-22.48,0,0-2.18,.4-5.1,.4-5.11,0-12.48-1.21-14.38-7.89-3-10.49,11.99-14.99,11.99-14.99,0,0,13.49-7.49-7.49-13.49,0,0-20.98-8.99,0-23.98,16.37-11.69,3.55-24.29-6.43-24.29-2.82,0-5.41,1-7.06,3.31-5.94,8.32-12.83,10.98-18.41,10.98-1.46,0-2.83-.18-4.07-.49-4.91-1.23-13.86-6.49-16.1-18.25-.79-4.13,0-8.37,1.83-12.16,2.08-4.31,3.02-11.5-11.22-14.55C99.39,.24,97.2,0,95.29,0h0Z"/></g><g><path class="cls-1" d="M45.73,21.45c-1.9,0-3.57-.41-3.59-.41-2.9-.72-8.4-3.37-8.42-8.27-.01-1.99,.87-3.98,2.48-5.6,1.62-1.63,3.79-2.64,5.67-2.64,3.42,.06,6.2,3.29,7.69,6.3,1.76,3.55,2.09,7.25,.81,9-.99,1.35-3.06,1.63-4.62,1.63Z"/><path d="M41.86,5.27h.08c3,.05,5.55,3.07,6.94,5.88,1.61,3.26,1.98,6.72,.87,8.22-.81,1.09-2.63,1.32-4.02,1.32-1.81,0-3.39-.39-3.41-.39-2.71-.67-7.83-3.11-7.86-7.55-.01-1.79,.79-3.59,2.26-5.07,1.49-1.49,3.45-2.42,5.13-2.42m0-1.5c-4.04,0-8.92,4.05-8.89,8.99,.03,5.33,5.74,8.19,8.99,8.99,.14,.03,1.83,.43,3.77,.43s4.09-.39,5.22-1.93c3.11-4.22-2.09-16.37-8.99-16.49-.03,0-.07,0-.1,0h0Z"/></g><g><path class="cls-1" d="M197.14,89.2c-4.81,0-9.75-2.33-10.56-4.98-.82-2.69,2.55-6.19,3.92-7.32,1.73-1.42,4.78-3.08,7.72-3.08,1.48,0,2.81,.42,3.94,1.25,1.63,1.2,2.7,3.12,3.03,5.41,.32,2.29-.18,4.63-1.32,6.11-1.29,1.68-3.68,2.61-6.72,2.61Z"/><path d="M198.22,74.56h0c1.32,0,2.5,.37,3.5,1.11,1.46,1.08,2.43,2.82,2.73,4.91,.3,2.1-.15,4.22-1.17,5.55-1.55,2.02-4.51,2.32-6.13,2.32-4.44,0-9.13-2.12-9.85-4.45-.7-2.27,2.5-5.55,3.68-6.52,1.63-1.34,4.51-2.91,7.25-2.91m0-1.5c-3.22,0-6.43,1.8-8.2,3.25-.22,.18-5.28,4.45-4.16,8.11,.96,3.14,6.35,5.51,11.28,5.51,2.95,0,5.74-.85,7.32-2.9,2.47-3.21,2.16-9.63-1.86-12.58-1.37-1-2.88-1.4-4.38-1.4h0Z"/></g><g><path class="cls-1" d="M63.49,207.58c-3.56,0-7.31-2.26-8.55-5.15-1.01-2.37-.39-5.55,1.71-8.73,2.43-3.69,6.17-6.36,8.9-6.36,.26,0,.52,.03,.75,.08,3.57,.77,4.82,7.49,4.83,7.55,.57,3.17,.38,9.75-4.44,11.94-.98,.45-2.06,.67-3.21,.67Z"/><path d="M65.55,188.08h0c.21,0,.41,.02,.59,.06,2.55,.55,3.96,5.33,4.26,6.95,.54,2.97,.39,9.13-4.01,11.13-.89,.4-1.86,.61-2.9,.61-3.28,0-6.73-2.06-7.86-4.7-.91-2.13-.31-5.06,1.65-8.03,2.27-3.43,5.82-6.03,8.27-6.03m0-1.5c-5.58,0-14.05,9.68-11.29,16.13,1.31,3.08,5.26,5.61,9.23,5.61,1.19,0,2.39-.23,3.52-.74,5.2-2.37,5.5-9.21,4.86-12.75-.05-.3-1.39-7.28-5.41-8.15-.29-.06-.6-.09-.91-.09h0Z"/></g><g><path class="cls-1" d="M34.47,47.99c-1.24,0-2.25-1.01-2.25-2.25s1.01-2.25,2.25-2.25,2.25,1.01,2.25,2.25-1.01,2.25-2.25,2.25Z"/><path d="M34.47,44.24c.83,0,1.5,.67,1.5,1.5s-.67,1.5-1.5,1.5-1.5-.67-1.5-1.5,.67-1.5,1.5-1.5m0-1.5c-1.66,0-3,1.34-3,3s1.34,3,3,3,3-1.34,3-3-1.34-3-3-3h0Z"/></g><g><path class="cls-1" d="M142.38,176.88c-1.24,0-2.25-1.01-2.25-2.25s1.01-2.25,2.25-2.25,2.25,1.01,2.25,2.25-1.01,2.25-2.25,2.25Z"/><path d="M142.38,173.12c.83,0,1.5,.67,1.5,1.5s-.67,1.5-1.5,1.5-1.5-.67-1.5-1.5,.67-1.5,1.5-1.5m0-1.5c-1.66,0-3,1.34-3,3s1.34,3,3,3,3-1.34,3-3-1.34-3-3-3h0Z"/></g><g><path class="cls-1" d="M3,133.41c-1.24,0-2.25-1.01-2.25-2.25s1.01-2.25,2.25-2.25,2.25,1.01,2.25,2.25-1.01,2.25-2.25,2.25Z"/><path d="M3,129.66c.83,0,1.5,.67,1.5,1.5s-.67,1.5-1.5,1.5-1.5-.67-1.5-1.5,.67-1.5,1.5-1.5m0-1.5c-1.66,0-3,1.34-3,3s1.34,3,3,3,3-1.34,3-3-1.34-3-3-3h0Z"/></g><g><path class="cls-1" d="M131.88,31.5c-1.24,0-2.25-1.01-2.25-2.25s1.01-2.25,2.25-2.25,2.25,1.01,2.25,2.25-1.01,2.25-2.25,2.25Z"/><path d="M131.89,27.75c.83,0,1.5,.67,1.5,1.5s-.67,1.5-1.5,1.5-1.5-.67-1.5-1.5,.67-1.5,1.5-1.5m0-1.5c-1.66,0-3,1.34-3,3s1.34,3,3,3,3-1.34,3-3-1.34-3-3-3h0Z"/></g></g></g></svg>