<?xml version="1.0" encoding="UTF-8"?><svg id="Layer_2" xmlns="http://www.w3.org/2000/svg" width="618.58" height="695.71" viewBox="0 0 618.58 695.71"><defs><style>.cls-1{fill:#fff;}.cls-2{fill:#fcf6ca;}</style></defs><g id="Layer_1-2"><g><path d="M57.33,18.79c5.27,2.08,6.84-1.58,8.6-4.63,2.9-5.03,6.91-7.98,12.92-8.14,5.66-.15,10.82,3.06,12.78,8.4,.35,.94,.65,1.91,1.05,3.08,2.71-.15,5.41-.12,8.02-.55,.96-.16,1.9-1.28,2.57-2.18,1.97-2.64,3.59-5.56,5.71-8.06,3.1-3.67,7.32-3.99,11.61-2.69,4.26,1.3,5.98,4.91,7.07,8.87,.2,.71,.17,1.49,.27,2.49,1.94,0,3.86,.21,5.7-.08,1.02-.16,2.08-1,2.82-1.81,1.54-1.69,2.72-3.71,4.33-5.32,4.91-4.92,9.65-4.21,12.99,1.84,.67,1.22,1.2,2.51,1.82,3.82,1.35,0,2.63-.11,3.89,.02,3.18,.32,4.97-.59,6.75-3.78,4.95-8.9,17.71-9.5,23.42-1.21,2.18,3.16,4.27,4.58,8.03,3.81,1.72-.35,3.58-.16,5.36-.06,1.93,.11,2.67-.83,3.64-2.47,1.29-2.18,3.21-4.28,5.37-5.59,3.32-2.02,6.54-.8,8.44,2.56,.94,1.66,1.74,3.39,2.63,5.15,1.95,0,3.87-.11,5.77,.02,4.35,.3,7.66,.17,9.5-5.35,1.42-4.26,5.93-7.15,11.04-6.9,5.41,.27,8.94,4.08,11.07,8.38,1.66,3.35,3.57,4.02,6.75,3.73,2.29-.21,4.6-.16,6.9-.09,3.48,.11,6.53,.22,8.21-4.1,.64-1.66,3.9-3.11,5.98-3.12,1.26-.01,2.99,2.73,3.69,4.54,.72,1.86,1.42,2.73,3.46,2.65,3.06-.13,6.16-.25,9.21,.05,5.28,.52,9.85,.61,11.88-5.94,.55-1.77,4.38-4.18,5.79-3.69,2.7,.94,4.87,3.64,6.98,5.87,.77,.81,.75,2.38,1.14,3.77h20.19c.9-2.12,1.53-4.36,2.72-6.25,2.27-3.63,5.69-3.77,8.45-.57,.75,.87,1.82,1.75,2.01,2.76,.85,4.55,4.03,4.82,7.67,4.64,1.65-.08,3.35-.03,4.98,.23,5.25,.84,9.06-.2,12.02-5.47,3.12-5.55,10.66-4.68,13.02,1.36,1.48,3.78,3.57,4.54,7.11,4.36,3.95-.21,7.93-.04,11.9,.14,2.05,.09,3.08-.41,3.88-2.55,1.85-4.96,5.06-6.87,9.31-6.15,3.41,.58,5.55,2.64,6.21,5.96,.44,2.22,1.51,2.93,3.68,2.81,2.68-.15,5.37-.08,8.06-.02,2.96,.06,5.33-.2,7.54-3.04,3.44-4.42,7.88-3.14,9.63,2.3,4.63,14.43,5.16,28.85-.04,43.28-1.35,3.76-2.12,4.16-5.54,2.48,.78,2.51,2.65,3.33,4.86,1.68,1.46-1.09,2.73-2.74,3.48-4.42,4.24-9.51,4.63-19.56,3.72-29.73-.26-2.93-.7-5.84-1.12-8.75-.68-4.78-2.87-8.82-7.72-9.98-4.46-1.06-8.11,1.26-10.81,4.92-.18,.24-.65,.27-2.1,.81,.98-1.99,1.26-3.61,2.21-4.3,6.16-4.41,13.01-5.3,17.83,2.27,2.94,4.62,7.12,1.85,10.66,2.51,.91,.17,2.7-1.77,3.33-3.1,2.22-4.71,6.09-6.21,10.88-6.42,4.79-.2,7.27,3.1,9,6.62,1.29,2.62,2.6,3.74,5.45,3.31,1.5-.23,3.07-.1,4.6-.02,3.61,.18,6.49,.1,8.16-4.39,1.56-4.2,8.82-4.32,11.6-.15,2.35,3.52,5.06,4.14,8.7,3.63,1.26-.18,2.55-.18,3.83-.21,4.18-.1,7.8-.12,11.29-3.97,5.05-5.58,9.1-4.54,13.95,1.47,.86,1.06,2.63,1.93,3.99,1.94,9.98,.1,19.96-.04,29.94-.11,2.49-.02,4.93-.12,2.4,3.48-.42,.59,.23,1.89,.29,2.87,.2,3.03,.51,6.06,.42,9.08-.02,.66-1.48,1.27-2.27,1.91l-1.21-.48c.45,4.41,.95,8.81,1.33,13.23,.44,5.09,.87,10.17,1.15,15.27,3.09,56.36,1.24,112.79,2.73,169.18,.41,15.47,.56,30.95,.79,46.43,.03,2.02-.23,4.1,3.23,3.78-3.54,.06-3.23,2.23-3.21,4.37,.27,27.89,.55,55.78,.7,83.68,.04,7.03-.8,14.09-.43,21.09,.27,5.08-.56,10.05-.36,15.09,.21,5.37,.09,10.75,0,16.12-.1,5.37-.41,10.74-.5,16.11-.43,25.84-.88,51.67-1.2,77.51-.39,31.63-1.13,63.26-.81,94.89,.22,22.23,1.94,44.44,2.97,66.19,1.4,1.09,2.48,1.93,3.57,2.78-.88,1.07-2.02,2.03-2.57,3.25-.63,1.38-1.18,3.05-1,4.5,1.16,9.37,1.23,9.26-8.04,9.67-25.43,1.13-50.84,2.7-76.28,3.43-18.66,.53-37.36,.25-56.03-.1-38.5-.7-76.98-2.05-115.48-2.44-28.9-.3-57.82,.46-86.73,.78-39.4,.44-78.81,1.09-118.21,1.3-40.81,.21-81.62-.03-122.43,.02-6.51,0-13.03,.63-19.54,.75-4.91,.09-5.31-.16-4.63-4.9,.65-4.51-.75-8.1-2.94-10.87,.42-2.28,1.04-3.95,.99-5.61-1.19-42.58-2.59-85.16-3.64-127.74-.51-20.84-.45-41.7-.56-62.55-.16-30.7-.6-61.4-.29-92.1,.43-41.31,1.73-82.62,2.15-123.93,.26-25.83-.67-51.68-.62-77.52,.04-17.9,1.45-35.82,1.13-53.71-.36-20.44-2.18-40.85-2.95-61.28-.41-10.86,.16-21.75,.08-32.62-.04-5.46-.44-10.94-.92-16.38-.26-2.93,.51-4.16,3.67-4.2,4.85-.07,9.7-.49,14.52-1.03,1.13-.13,2.42-1.11,3.17-2.07,3.93-4.98,8.44-9.1,14.2-12.01,8.74-4.41,19.58-.58,21.4,10.34,.08,.48,.24,.95,.32,1.27Zm449.23,28.92c.4-.56,1.02-1.08,1.17-1.7,2.05-9.11,1.44-18.31,.63-27.48-.38-4.24-1.45-8.29-4.75-11.43-3.12-2.96-6.67-2.21-10.04-1.07-3.67,1.23-5.33,3.85-5.3,7.1,3.55-5.63,6.3-7.15,11.42-4.75,2.45,1.15,4.91,3.89,5.8,6.46,3.74,10.76,2.56,21.85,1.08,32.88-.82,5.55-2.1,10.8-8.33,12.69,2.25,1.35,4.9,1.48,5.83-1.08,1.34-3.69,1.71-7.73,2.5-11.62ZM210.54,7.59c-.97,1.22-2.52,2.33-2.79,3.69-.88,4.48-1.72,9.05-1.82,13.6-.28,12.91-.37,25.86,5.03,38.03,.59,1.34,1.5,2.54,2.26,3.8-.37-3.53-2.22-6.5-2.54-9.64-1.31-12.8-2.44-25.63-2.98-38.48-.15-3.54,1.97-7.18,3.05-10.78,5.15-2.87,6.78,2.9,10.56,5.03-3.05-8.45-6.25-9.79-10.77-5.26Zm-61.57,58.87c-.61,1.34-.89,3.26-1.92,3.82-.83,.45-3.03-.35-3.79-1.28-1.81-2.2-3.13-4.81-4.64-7.26-1.47,3.72-.38,9.82,2.06,11.57,1.52,1.09,8.17-.87,10.36-3.02,2.59-2.54,.44-4.56-.54-6.88l-1.59,3.15c0-2.71,1.21-5.87-3.1-7.54v6.72c-.34-.19-.66-.25-.76-.43-6.59-12.89-9.99-26.49-8.5-41.02,.34-3.37,1.25-6.85,2.7-9.9,2.91-6.12,8.79-6.43,12.27-.98,.19,.29,.73,.35,1.11,.52l.97-1.01c-1.94-2.1-3.55-5.07-5.95-5.98-1.56-.59-4.72,1.38-6.33,3.02-1.96,2-3.43,4.71-4.44,7.37-3.2,8.4-2.02,17.13-1.35,25.79,.6,7.78,3.44,14.88,6.68,21.84,1.3,2.79,3.01,4.65,5.82,1.31,.09-.11,.61,.13,.94,.19Zm139.42-1.03c.63-1.98,1.27-3.95,1.86-5.82,.74,5.36,.13,7.78-2.55,8-5.94,.49-5.82-4.91-7.55-8.53-2.41,3.72-2.89,9.8-1.03,12.01,1.56,1.85,7.68,3.06,10.48,1.56,2.14-1.15,5.36-1.54,5.22-5.27-.25-6.48-1.64-8.72-6.99-10.42-1.22,2.97-1.48,5.83,.63,8.53-.71-.45-1.8-.74-2.07-1.38-1.34-3.16-3.2-6.34-3.52-9.64-.81-8.24-.98-16.55-1.24-24.84-.16-5.09-.03-10.2-.03-15.29-.54,1.03-.98,2.11-1,3.21-.25,9.71-.73,19.43-.51,29.13,.12,4.92,1.27,9.88,2.51,14.68,.64,2.5,1.8,5.68,5.79,4.07Zm-256.76-.26c2.27,.3,4.53,.61,6.8,.91l.41-1.61c-1.46-.45-2.93-.86-4.37-1.36-.99-.34-2.32-.51-2.85-1.23-7.94-10.83-11.61-22.62-7.45-35.95,1.25-4.01,2.87-7.9,4.61-12.65-5.36,4.11-8.51,8.65-9.3,14.46-1.09,8.01,.23,15.81,3.53,23.12,2.03,4.48,4.8,8.63,7.24,12.93-.77,.59-2.29,1.39-2.19,1.75,.52,1.91,1.2,3.87,2.29,5.5,1.13,1.69,2.88,2.34,4.99,1.18,1.95-1.07,3.65-2.15,3.47-3.59-2.95-1.42-5.07-2.43-7.18-3.45Zm75.95-.71c1.25-.29,2.76-.25,3.68-.97,.66-.52,.54-2.04,.82-3.36l-3.99-1.01,1.54,2.98-.84,.59c-.89-1.3-2.42-2.53-2.56-3.91-.77-7.44-1.34-14.91-1.72-22.39-.58-11.63,1.66-22.38,10.74-30.92-1.65,.28-3.41,.54-4.19,1.56-2.57,3.39-5.89,6.75-6.95,10.65-3.97,14.62-2.99,29.3,1.32,43.78-1.6-1.33-2.43-.51-2.3,1.12,.28,3.72,.83,7.42,1.25,10.97,5.97,.45,9.88-2.13,11.76-6.88,1.56-3.95,.2-6.5-3.2-8.61-2.03-1.26-3.8-1.7-6.4-.43,2.96,1.14,5.29,2.05,7.67,2.97-3.02,6.22-3.33,6.37-6.62,3.87ZM11.31,551.98c3.19,.24,6.37,.49,9.56,.72,15.54,1.13,31.09,3.19,46.63,3.14,21.72-.07,43.42-1.9,65.14-2.63,22.76-.77,45.53-1.31,68.29-1.61,32.5-.44,65-.57,97.5-.86,3.96-.04,7.93-.17,11.89-.39,15.84-.86,31.66-2.05,47.51-2.59,13.81-.47,27.65,0,41.46-.38,30.81-.86,61.61-1.39,92.4-3.44,33.81-2.25,67.75-2.34,101.64-3.33,4.79-.14,9.59-.02,15.08-.02v-50.61c-.87-.05-2.11-.18-3.36-.17-6.91,.08-13.83,.43-20.73,.25-26.85-.71-53.71-2.23-80.56-2.25-30.82-.03-61.65,1.15-92.48,1.92-30.19,.75-60.37,1.77-90.56,2.45-26.6,.6-53.2,1.08-79.8,1.22-12.91,.07-25.82-1.1-38.73-1.06-14.45,.04-28.89,.91-43.34,1.24-29.42,.67-58.84,1.32-88.27,1.78-15.47,.24-30.95,.08-46.42,.09-6.09,0-12.18,0-18.02,0v54.9c2.16,.7,3.72,1.21,5.29,1.73H6.57c.57,19.34,1.13,38.44,1.71,57.78,1.78,0,3.05-.01,4.31,0,20.72,.2,41.45,.24,62.17,.63,36.32,.68,72.64,1.61,108.96,2.34,11.13,.22,22.27,.36,33.4,.17,19.56-.33,39.12-.96,58.68-1.44,14.45-.36,28.91-.42,43.34-1.12,11.74-.57,23.43-2.23,35.17-2.84,29.89-1.54,59.8-2.68,89.69-4.15,35.77-1.75,71.54-3.67,107.31-5.54,17.12-.89,34.24-1.8,51.36-2.76,4.69-.26,5.16-.88,5.16-5.51,0-13.18-.02-26.35-.03-39.53,0-2.89,0-5.77,0-8.9-1.7,0-2.83-.03-3.97,0-31.2,.91-62.4,1.82-93.6,2.75-8.05,.24-16.12,.33-24.16,.81-12,.72-23.96,2.16-35.96,2.51-43.73,1.3-87.5,.27-131.2,3.2-17.09,1.14-34.26,1.19-51.4,1.46-31.22,.5-62.44,.76-93.65,1.17-13.43,.18-26.88,.22-40.3,.77-18.01,.74-36,2.31-54.02,2.8-20.47,.56-40.89-.71-61.2-3.47-2.36-.32-4.69-.82-7.04-1.24Zm-2.34-354.2c-2.99-1.3-2.49,1.01-2.5,2.53-.03,11.26,.14,22.52-.06,33.78-.07,3.84,1.52,4.6,4.96,4.72,10.47,.37,20.92,1.04,31.38,1.7,6.38,.4,12.74,1.22,19.12,1.47,15.85,.62,31.71,1.08,47.57,1.5,20.84,.54,41.74,.23,62.53,1.61,42.91,2.85,85.69,1.31,128.41-2.64,31.63-2.92,63.26-4.53,95.03-4.48,38.77,.07,77.54-.35,116.31-1.05,30.7-.55,61.38-1.84,92.07-2.79,2.24-.07,4.48,0,5.98,0v-84.98c-6.12,.3-11.33,.49-16.53,.82-18.12,1.16-36.24,3.25-54.37,3.35-24.16,.13-48.33-1.69-72.5-1.93-34.67-.35-69.35,.04-104.02-.01-29.43-.05-58.86-.28-88.29-.44-30.58-.17-61.17-.92-91.74-.38-26.2,.47-52.37,2.59-78.57,3.63-20.7,.82-41.42,1.19-62.13,1.58-10.23,.19-20.48,.09-30.71-.08-2.8-.05-3.78,.72-3.8,3.63-.08,10.87-.39,21.74-.66,32.61-.06,2.39-.26,4.75,2.48,5.93l.06-.05Zm.86-45.07c13.67-.3,27.36-.31,41.02-.96,18.52-.88,37.01-2.44,55.53-3.35,30.14-1.47,60.34-.87,90.5-2.86,20.73-1.37,41.66,.43,62.5,.42,33.78-.02,67.55-.53,101.33-.51,15.72,0,31.44,.99,47.17,1.12,17.78,.14,35.56-.32,53.34-.29,42.1,.08,84.2,.35,126.3,.39,7.23,0,14.45-.78,21.79-1.2,.49-39.55-.55-78.56-4.08-117.95-8.76,.6-17.17,1.11-25.55,1.86-.72,.06-1.7,1.59-1.89,2.57-.97,4.88-1.81,9.78-2.48,14.71-.18,1.31,0,3.08,.78,4.03,3.83,4.73,3.85,9.93,2.03,15.24-1.87,5.47-10.92,8.9-15.03,5.96-4.19-3-7.62-11.95-6.13-16.87,.52-1.71,1.68-3.69,3.14-4.56,3.11-1.86,6.61-3.07,10.99-5.01,.49-4.2,1.13-9.68,1.85-15.85-10.58,.6-20.31,1.15-29.34,1.66-1.27,6.54-2.49,12.26-3.41,18.02-.24,1.51,.32,3.23,.8,4.77,.92,2.94,3.17,5.94,2.87,8.7-.92,8.43-10.45,11.96-18.2,7.2-5.25-3.23-6.49-6.94-4.35-13.06,2-5.72,4.99-7.54,10.96-6.98,.97,.09,2.85-.68,2.92-1.22,.63-5.41,.98-10.84,1.37-15.83h-25.15c-1.23,7.38-2.35,13.92-3.4,20.48-.16,.98-.28,2.07,0,2.99,2.3,7.44-.28,12.49-7.67,14.82-4.22,1.33-11.29-1.12-13.73-4.76-2.17-3.22-1.45-8.67,1.58-12.06,5.29-5.91,8.77-6.59,16.91-2.81,.42-6.17,.83-12.06,1.22-17.7h-28.14c-1.35,6.92-2.59,13.15-3.74,19.4-.14,.78,.31,1.66,.36,2.5,.18,3.13,.95,6.39,.33,9.36-1.16,5.51-5.8,8.06-11.75,7.28-3.91-.52-6.86-3.94-7.16-8.3-.35-5.13,3.04-10.07,7.42-11.33,1.71-.49,4.16-1.37,4.64-2.67,1.9-5.12,2.7-10.53,1.95-15.98h-26.94c-.87,5.84-1.52,11.4-2.59,16.88-.45,2.33-.61,4.18,.61,6.46,3.03,5.69,1.31,12.63-3.71,13.97-3.66,.98-7.89,.96-11.61,.16-1.89-.4-4.2-3.28-4.63-5.38-1.72-8.45,3.28-13.91,11.91-14.01,1.05-.01,2.95-1.38,2.99-2.2,.27-5.2,.14-10.42,.14-16h-31.99c-.41,5.22-.66,10.31-1.25,15.37-.38,3.21-1.83,6.42,1.63,8.93,.5,.36,.74,1.4,.7,2.11-.21,4.27-.61,8.53-4.75,11.1-3.91,2.43-8.36,3.59-12.36,1.19-4.05-2.43-5.59-6.74-5.28-11.63,.21-3.29,1.79-5.19,4.86-6.05,2.53-.7,5.06-1.43,7.5-2.13,.69-6.38,1.37-12.56,2.09-19.23h-28.84c-.79,7.22-1.63,14.56-2.35,21.91-.06,.59,.65,1.31,1.09,1.89,3.38,4.4,2.84,8.99-1.05,12.97-3.92,4.01-8.44,3.37-13.22,2.64-4.16-.64-6.27-2.64-6.64-6.91-.47-5.52,1.4-9.05,5.48-10.07,2.94-.73,5.92-1.3,9.25-2.02,.43-6.92,.85-13.75,1.29-20.93h-31.91c0,2.83-.04,5.5,.01,8.16,.05,2.68,0,5.39,.34,8.04,.25,2,.65,4.16,1.65,5.87,3.18,5.42,2.65,13.24-1.42,16.44-8,6.28-17.7,2.7-20.46-7.51-.93-3.46,.03-6.18,3.14-7.8,3.53-1.83,7.25-3.3,11.52-5.2,.53-5.39,1.14-11.67,1.76-18h-43.51c0,5.33,.1,10.31-.04,15.28-.08,2.79,.74,4.02,3.79,4.27,5.71,.47,11.51,6.49,11.99,12.1,.11,1.3-.2,2.97-.97,3.95-5,6.28-13.02,8.96-20.4,4.65-3.41-1.99-5.82-5.21-4.85-9.22,.88-3.63,2.98-6.96,4.56-10.41,.35-.76,1.14-1.49,1.12-2.22-.24-6.1-.63-12.19-.96-17.95h-35.58c1.03,6.95,1.94,13.16,2.74,18.58,3.66,0,6.92-.9,9.26,.2,4.23,1.98,7.52,5.59,7.62,10.68,.09,4.64-3.31,7.39-6.89,9.46-6.47,3.74-13.63,1.99-15.68-4.15-.91-2.75,.07-6.15,.34-9.25,.11-1.22,1.01-2.46,.86-3.6-.86-6.46-1.87-12.9-2.99-19.32-.15-.87-1.22-2.24-1.88-2.25-8.66-.15-17.32-.1-26.43-.1,.37,6.44,.7,12.33,1.05,18.54,6.86-.92,11.48,1.41,14.16,7.04,1.94,4.1,2.91,8.75-.02,12.39-2.85,3.54-6.92,5.85-12.1,5-8.18-1.34-11.72-6.52-9.43-14.58,.83-2.9,3.18-5.67,3.12-8.46-.15-6.57-1.33-13.11-2.09-19.59h-32.7c.61,4.98,1.14,9.66,1.79,14.33,.44,3.15,.63,6.77,5.55,4.44,.4-.19,1.04-.05,1.51,.11,4.49,1.45,7.34,4.74,8.8,8.99,1.32,3.87-.08,7.94-3.1,10.02-3.18,2.18-7.37,3.13-11.26,3.94-4.18,.88-7.03-1.79-8.18-5.42-1.46-4.62-.97-9.27,2.1-13.39,.69-.92,1.59-2.23,1.41-3.18-1.22-6.63-2.7-13.21-4.1-19.81h-28.11c1.01,6.15,1.96,11.92,2.83,17.28,6.17,.34,9.84,3.82,12.69,8.01,4.21,6.19,2.2,11.99-4.68,14.84-.71,.29-1.44,.52-2.15,.82-6.18,2.65-12.56-.52-14.02-7.08-1.04-4.7-.49-9.12,2.77-12.96,.36-.43,.72-1.11,.66-1.61-.88-6.3-1.83-12.58-2.74-18.71h-26.42v17.93c8.44,1.68,12.85,5.58,12.66,10.97-.22,6.29-5.08,11.67-11.4,12.63-6.56,1-11.97-2.33-14.31-8.81-1.89-5.2,.63-9.51,7.92-13.65-.55-6.27-1.09-12.49-1.62-18.6H62.33c1.04,6.73,1.97,12.79,2.92,18.97,2.18-.29,3.3-.51,4.42-.58,4.87-.29,11.15,4.67,11.42,8.99,.47,7.48-4.21,13.8-11.56,14.71-7.61,.94-16.46-3.53-13.91-12.68,.82-2.95,2.91-5.54,4.4-8.31,.38-.7,1.02-1.51,.91-2.18-.98-6.13-2.09-12.24-3.12-18.07H24.71c-.41,6.37,.81,11.75,3.91,16.61,.51,.79,2.08,1.4,3.09,1.3,7.42-.7,12.81,5.65,10.58,12.66-2.2,6.94-5.88,9.22-14.08,8.73-6.79-.4-11.57-9.24-7.3-14.47,3.09-3.79,2.85-6.43,.51-10.26-1.61-2.63-2.06-5.98-2.89-9.05-.45-1.68-.61-3.43-.89-5.09-4.7-.44-8.98-.83-13.39-1.24-.13,.73-.3,1.21-.3,1.69,0,12.92-.34,25.85,.12,38.75,.89,24.66,2.21,49.3,3.5,73.95,.06,1.07,1.55,2.06,2.39,3.1-.84,.46-1.69,.92-2.53,1.38,.81,.41,1.57,.97,2.43,1.17,.85,.2,1.78,.06,2.68,.04,19.56-.36,39.12-.68,58.68-1.1,10.49-.22,20.98-.46,31.46-.94,29.13-1.34,58.25-3.71,87.39-4.01,41.96-.44,83.93,.76,125.9,.92,39.66,.15,79.33-.32,119-.18,22.9,.08,45.79,.96,68.69,1.25,17.64,.23,35.3,.58,52.93,0,16.85-.56,33.67-2.25,50.49-3.46,.64-.05,1.26-.33,1.89-.51-1.92-.59-3.77-.67-5.62-.58-7.78,.36-15.56,1.06-23.34,1.09-48.61,.18-97.23,.41-145.84,.18-19.68-.09-39.36-1.72-59.05-1.86-18.29-.13-36.58,1.24-54.87,1.14-28.01-.16-56.02-1.1-84.04-1.54-20.09-.32-40.12,.33-60.19,1.89-17.19,1.34-34.51,.78-51.77,1.26-16.11,.45-32.21,1.07-48.31,1.77-20.31,.88-40.61,1.94-60.91,2.84-1.72,.08-3.46-.54-5.2-.84Zm600.9,82.37c-1.62,0-2.86-.03-4.11,0-23.79,.67-47.57,1.54-71.36,1.97-43.49,.79-86.99,1.65-130.49,1.85-32.01,.14-63.96,.86-95.85,3.7-19.62,1.74-39.25,3.53-58.92,4.46-15.44,.73-30.96,.54-46.42,.13-38.36-1.03-76.7-2.63-115.07-3.56-20.48-.5-40.89-1.22-61.25-3.79-6.63-.84-13.45-.13-20.2-.13-.12,.76-.27,1.26-.27,1.76,.07,30.71,.16,61.42,.18,92.12,0,2.24,.93,2.89,2.97,2.88,11.13-.08,22.28,.16,33.4-.22,21.08-.73,42.15-1.79,63.22-2.74,14.82-.67,29.63-1.57,44.45-2.03,13.92-.43,27.87-.78,41.79-.45,11.62,.28,23.21,2.23,34.83,2.32,20.72,.14,41.45-.47,62.17-.94,25.96-.59,51.92-1.58,77.89-1.98,24.04-.37,48.09-.19,72.14-.22,20.85-.03,41.7-.34,62.54,.08,15.98,.32,31.93,1.77,47.9,2.33,13.79,.48,27.6,.53,41.4,.56,5.56,.01,11.13-.55,16.69-.85,.01,.41,.03,.81,.04,1.22-12.74,.39-25.48,1.08-38.22,1.06-10.73-.01-21.47-.76-32.2-1.33-17.37-.92-34.73-2.55-52.11-2.79-19.18-.26-38.37,.96-57.55,1.07-21.36,.13-42.73-.65-64.08-.33-33.01,.5-66,1.78-99.01,2.39-16.99,.31-33.99,.12-50.98-.27-13.28-.3-26.56-1.9-39.83-1.76-15.71,.16-31.4,1.85-47.12,2.39-35.02,1.21-70.06,2.14-105.09,3.14-4.96,.14-9.93,.02-15.39,.02-.44,17.48-.88,34.76-1.33,52.63,4.48,0,8.44,.27,12.36-.06,8.4-.7,16.77-2.24,25.17-2.49,18.28-.54,36.58-.81,54.86-.62,31.09,.32,62.18,1.02,93.26,1.7,11.25,.25,22.56,.33,33.73,1.49,28.72,2.97,57.45,3.29,86.25,1.62,24.51-1.42,48.96-3.02,73.6-2.43,40.93,.98,81.9,.59,122.85,.65,32.76,.05,65.53-.1,98.29-.17,1.72,0,3.44,0,5.24,0v-112.28c-2.08,0-3.48-.04-4.87,0-15.59,.51-31.19,.88-46.78,1.58-29.91,1.33-59.8,2.35-89.78,1.79-28.5-.54-57.05,.53-85.56,1.49-19.42,.66-38.8,2.73-58.22,3.49-27.61,1.08-55.25,1.53-82.88,2.26-12.15,.32-24.3,.7-36.45,.95-13.42,.27-26.86,.77-40.27,.53-19.94-.35-39.88-1.78-59.82-1.83-29.42-.07-58.85,.67-88.27,1.05-1.23,.02-2.46-.11-3.7-.17,24-.92,47.91-1.86,71.82-1.69,28.39,.2,56.77,1.65,85.16,1.96,15.2,.17,30.41-.95,45.62-1.41,41.94-1.26,83.89-2.35,125.83-3.76,18.66-.62,37.29-2.07,55.95-2.71,20.83-.71,41.68-1.05,62.53-1.3,21.75-.25,43.51,.13,65.25-.35,26.85-.59,53.68-1.79,80.52-2.73,1.12-.04,2.25-.16,3.52-.25v-41.01ZM10.81,439.01l.02-.52c12.5,.4,25.13-.15,37.48,1.42,23.02,2.92,46.12,4.2,69.24,4.61,19.29,.35,38.6-1.04,57.9-1.23,23.41-.23,46.82,.25,70.22-.09,21.23-.3,42.45-1.22,63.67-1.98,28.12-1.01,56.23-2.8,84.35-3.05,33.63-.3,67.26,.15,100.92,1.45,31.15,1.2,62.42-.46,93.63-.96,7.25-.12,14.5-.65,21.95-1,.14-2.36,.33-4.39,.37-6.41,.23-11.9,.37-23.8,.66-35.69,.13-5.34,.25-5.33-4.94-5.31-26.49,.13-52.98,.41-79.48,.37-45.56-.07-91.12-.39-136.68-.51-16.88-.05-33.76-.19-50.63,.33-18.92,.58-37.81,2.67-56.72,2.63-20.43-.04-40.86-1.95-61.3-2.75-19.3-.75-38.62-1.34-57.94-1.59-38.13-.5-76.27-.74-114.4-1.03-3.06-.02-6.13,.32-9.18,.58-9.16,.78-18.32,1.67-27.49,2.35-2.32,.17-4.7-.29-7.1-.47v105.13c10.71,0,20.79,.13,30.86-.02,28.15-.42,56.29-1.13,84.44-1.4,32.48-.3,64.88-2.91,97.43-1.72,26.7,.98,53.48,.02,80.21-.44,28.27-.49,56.53-1.38,84.8-2.15,14.97-.41,29.93-1.09,44.89-1.34,28.53-.47,57.06-1.09,85.58-.94,30.69,.16,61.38,1.13,92.08,1.73,1.11,.02,2.23-.21,3.89-.39v-50.21c-8.01,.44-16.03,1.13-24.06,1.29-23.15,.46-46.31,1.04-69.47,.94-18.92-.08-37.84-1.52-56.76-1.54-50.66-.07-101.32-.84-151.94,2.94-23.84,1.78-47.81,1.72-71.72,2.41-28.89,.84-57.75-1.23-86.7,.59-20.86,1.31-41.93-.56-62.9-1.06-3.96-.09-7.92-.29-11.87-.6-13.36-1.05-26.71-2.27-40.08-3.24-7.74-.56-15.5-.77-23.25-1.14Zm-.74,238.96c9.2,0,18.02-.45,26.77,.09,20.27,1.26,40.49,3.47,60.78,4.37,14.53,.65,29.13,.03,43.69-.46,8.04-.27,16.03-1.87,24.06-2.12,38.86-1.19,77.73-2.5,116.61-3.03,28-.38,56.02,.42,84.04,.64,14.83,.12,29.68,.64,44.49,.09,26.45-.98,52.86-3.32,79.32-3.81,36.83-.68,73.69-.18,110.54-.18,3.4,0,6.81,0,10.6,0-1.22-26.45-2.41-52.33-3.59-78.02-8.59,.6-17.24,1.36-25.91,1.8-32.7,1.67-65.4,3.22-98.11,4.85-15.59,.78-31.17,1.67-46.76,2.45-24.52,1.23-49.05,2.42-73.58,3.59-4.34,.21-8.71,.08-13.04,.42-14.28,1.11-28.52,2.67-42.81,3.47-10.21,.57-20.47-.08-30.7,.28-21.59,.75-43.13,2.07-64.8,1.49-30.94-.83-61.88-.82-92.84-2.16-34.49-1.49-69.07-.89-103.62-1.2-2.14-.02-4.28,0-6.78,0,.54,22.44,1.07,44.37,1.62,67.45Zm601.33,4.78c.31-4.73,.11-4.94-5.15-4.98-14.2-.11-28.4-.33-42.6-.32-37.47,.03-74.95-.33-112.4,1.88-20.29,1.2-40.62,2.26-60.93,2.28-35.56,.04-71.12-1.19-106.68-1.07-26.47,.09-52.93,1.46-79.39,2.26-16.23,.5-32.47,.82-48.68,1.6-7.38,.35-14.71,2.28-22.07,2.36-31.99,.38-63.87-1.45-95.69-5.04-9.05-1.02-18.32-.16-27.81-.16-.17,2.48-.34,5.02-.47,6.94,8.96,0,17.23-.15,25.5,.03,17.77,.39,35.54,1.54,53.29,1.28,19.55-.29,39.05-1.69,58.66-.49,10.77,.66,21.66-1.06,32.51-1.25,27.59-.49,55.07-3.05,82.8-1.03,29.42,2.14,59.03,1.88,88.57,2.21,12.38,.14,24.78-1.12,37.17-1.32,20.47-.34,40.94-.25,61.41-.5,22.89-.28,45.79-.43,68.67-1.18,25.3-.84,50.58-2.34,75.88-3.44,5.68-.25,11.38-.04,17.4-.04Zm-207.24,7.92c68.94,2.62,137.84,2.56,206.78-3.08-2.66-1.08-5.44-2.22-8.19-2.15-17.26,.41-34.52,.93-51.76,1.71-21.32,.97-42.62,2.46-63.95,3.27-13.67,.52-27.37,.22-41.06,.25-13.94,.03-27.88,0-41.82,0ZM325.4,15.35h-41.02v9.8h41.76c-.27-3.56-.49-6.56-.74-9.8Zm-47.73,10.72c.55-3.92,1.02-7.23,1.49-10.61h-35.61v10.61h34.12Zm75.48-.11c2.72-.55,6.59-.23,7.92-1.91,1.38-1.74,.31-5.43,.31-8.52h-30.83c.32,3.4,.61,6.52,.95,10.15,10.1,.59,20.09,1.16,30.09,1.74l.06-1.46h-8.5Zm15.76,.91c6.8,0,13.41,.07,20.01-.02,9.54-.13,9.65-.31,8.18-9.77-.03-.22-.25-.4-.57-.91h-29.93c.81,3.75,1.55,7.21,2.3,10.69Zm-163.87-10.63c-10.37,0-20.43,0-30.5,0-1.97,0-4.09-.18-3.58,2.89,.42,2.54-.73,5.91,3.88,5.94,6.51,.05,13.03,.26,19.52,.7,8.96,.61,8.95,.72,10.36-7.98,.08-.49,.2-.97,.32-1.56Zm229.92,.32h-31.04c.41,2.97,.65,5.62,1.21,8.21,.16,.73,1.22,1.82,1.86,1.82,9.38-.02,18.76-.2,28.51-.34-.2-3.64-.35-6.39-.53-9.69Zm-225.59-1.07c0,2.97-.15,5.5,.08,7.99,.08,.88,1.11,2.39,1.73,2.4,8.08,.16,16.16,.11,24.48,.11V15.48h-26.29Zm37.96,47.2c-.6-1.02-1.96-2.54-2.49-4.31-4-13.53-5.6-27.34-3.02-41.29,.68-3.7,2.7-7.52,5.1-10.46,3.46-4.24,8-3.24,10.43,1.66,.62,1.26,1.16,2.55,1.74,3.83,.21-4.56-2.59-8.24-6.04-8.96-6.17-1.28-11.74,.65-13.56,5.2-1.01,2.54-1.71,5.49-1.51,8.18,.78,10.43,1.73,20.86,3.12,31.23,.71,5.25,2.41,10.37,3.86,15.5,.26,.91,1.87,2.34,2.17,2.18,1.28-.65,2.44-1.69,3.35-2.83,.45-.57,.25-1.65,.38-2.88,1.5,4.84-1.52,6.22-4.82,7.36,3.55,5.87,4.95,5.28,8.7,3.18,3.84-2.15,1.71-5.64,1.31-8.6-.35-2.6-2.19-3.97-4.67-3.08-1.33,.48-2.23,2.17-4.05,4.08ZM182.61,4.93c-11.83-.9-17.88,5.01-17.04,15.69,1.13,14.29,3.56,28.35,8.48,41.85,.67,1.84,2.86,3.13,4.35,4.68,.81-1.69,1.64-3.38,2.4-5.09,.19-.42,.12-.95,.18-1.44l-3.57-1.68,.37-1.02c1.87,.56,3.96,.76,5.54,1.78,1.57,1.02,2.62,2.84,4.07,4.52-1.6-7.3-5.35-9.63-12.43-7.64,1.4,2.76,2.77,5.45,4.14,8.14l-.97,.51c-1.16-1.91-2.71-3.69-3.4-5.76-4.62-13.9-5.75-28.28-4.86-42.77,.52-8.51,3.26-10.69,12.75-11.76Zm-11.72,687.38l95.37-1.17c-31.87-5.29-63.6-.61-95.37,1.17ZM468.98,24.07c-.19-1.99-.13-3.55-.55-4.97-.27-.92-1.25-2.31-1.93-2.33-8-.16-16-.1-24.36-.1,.65,3.1,1.19,5.67,1.79,8.52,8.37-.37,16.48-.74,25.05-1.12ZM28.41,21.4c8.13-.52,16.18-1.03,24.32-1.56-2.26-6.89-7.51-11.07-12.81-10.46-5.44,.62-10.79,6.03-11.52,12.02ZM396.4,61.61c3.42-2.38,4.36-6.14,4.63-9.68,.77-9.8,1.28-19.64,1.31-29.47,.01-4.12-1.16-8.31-2.3-12.33-.9-3.16-3.34-4.85-6.83-3.92-3.34,.88-4.63,3.33-4.72,6.56,.55-.17,.78-.6,1.13-.89,1.3-1.09,2.82-3.15,3.92-2.95,1.52,.28,2.89,2.13,4.02,3.56,.66,.84,.86,2.12,1.06,3.24,2.73,15.39-1.14,30.4-2.21,45.87Zm79.9-44.63c.37,2.56-.58,6.34,3.03,6.4,7.64,.13,15.3-.57,22.93-1.17,.8-.06,2.09-1.77,2.05-2.66-.04-.89-1.46-2.43-2.3-2.45-8.41-.18-16.82-.11-25.7-.11Zm-119.97-10.16l1.13,.73c-.55,1.47-1.09,2.95-1.72,4.65h4.73c-.74-1.64-1.37-3.03-2.01-4.43l.96-.44c.88,1.99,2.08,3.9,2.57,5.98,3.27,13.92,2.6,27.93,.6,41.94-.23,1.62-.74,3.28-1.5,4.72-.93,1.76-2.2,3.02-3.93,.46-.46-.68-1.63-.89-3.08-1.63,2.08,5.35,5.29,6.09,8.19,2.51,1-1.23,1.86-2.9,2-4.43,.9-9.79,2.35-19.61,2.08-29.38-.18-6.59-2.7-13.16-4.62-19.61-.5-1.69-1.84-4.31-4.85-2.95-2.3,1.04-4.01,4.85-3.22,7.57,.93-1.99,1.79-3.84,2.65-5.69ZM139.46,24.4c7.2,0,14.45,.09,21.7-.11,.9-.02,2.25-1.39,2.54-2.39,.43-1.48,.11-3.18,.11-5.23-6.86,.41-13.43,1.02-20,1.1-3.91,.05-5.28,1.55-4.35,6.62Zm-79.19-.7c-.39-.17-.74-.46-1.07-.44-10.17,.54-20.35,1.04-30.51,1.76-.93,.07-1.76,1.51-2.64,2.32,1.93,1.16,3.4,1.52,4.86,1.5,8.27-.1,16.54-.45,24.81-.38,3.6,.03,4.7-1.53,4.54-4.76ZM577.07,15.45c1.71,1.99,2.66,4.15,3.84,4.29,6.94,.82,13.92,1.41,20.9,1.6,5.77,.15,6-.45,4.47-5.89h-29.21Zm-151.26-2.85l1.44,1.06c.75-.99,1.66-1.9,2.2-2.99,1.33-2.67,2.78-2.98,4.3-.43,1.29,2.15,2.55,4.57,2.87,7,.88,6.56,1.57,13.18,1.76,19.8,.18,6.44-.36,12.91-.6,19.59,3.82-8,3.84-16.55,3.59-24.82-.22-7.15-2.05-14.31-3.69-21.34-.98-4.21-6.18-5.36-9.14-2.3-1.18,1.22-1.84,2.94-2.74,4.44ZM75.33,65.26c-1.94-.33-4.53-.04-5.13-1-5.81-9.19-10.33-18.93-8.68-30.24,1.06-7.26,2.94-14.31,8.4-19.74,4.63-4.62,11.13-5.54,15.64-2.02,1.73,1.35,2.93,3.36,4.37,5.07,.18-1.24-.03-2.41-.6-3.37-5.33-9.07-16.48-7.22-20.75-.9-8.18,12.11-10.67,25.11-6.31,38.98,1.52,4.83,4.64,9.26,7.55,13.51,2.01,2.93,4.65,2.44,5.52-.28Zm451.85-8.51c0,2.96-.61,6.11,.21,8.82,.58,1.91,3.12,4.51,4.77,4.5,2.43-.02,6.43-1.62,6.95-3.37,1.06-3.58,.9-7.82-1.01-11.75-5.61,5.33-6.57,5.48-10.92,1.8ZM100.49,20.2c-10.86,.78-21.53,1.46-32.18,2.45-1.05,.1-1.93,2.04-3.31,3.6,11.5-.69,21.79-1.38,32.09-1.87,2.46-.12,3.99-.56,3.4-4.18Zm436.47,32.67c3.09-6.5,4.7-13.27,4.32-20.35-.42-7.63-.65-15.34-5.09-22.12-1.91-2.92-4.5-2.9-7.03-1.85-1.38,.57-2.24,2.4-3.33,3.67l1.03,.85c.34-.5,.65-1.02,1.01-1.49,2.59-3.38,5.99-2.97,7.62,.95,.43,1.05,.64,2.2,.86,3.32,2.45,12.32,1.58,24.66,.61,37.02Zm33.48-36.75h-28.6c.11,3.59,1.58,4.82,4.66,4.43,1.89-.24,3.83-.03,5.74-.11,6.19-.23,12.39-.5,18.82-.77-.26-1.53-.45-2.63-.61-3.56ZM100.34,26.88c-4.53,.23-8.96,.4-13.37,.7-6.74,.47-13.47,.99-20.2,1.63-1.06,.1-2.05,.93-3.07,1.42l.38,.75h36.27v-4.5Zm118.05,30.3c0,2.59,.54,4.78-.15,6.48-.71,1.75-2.4,3.45-4.09,4.29-.64,.32-2.6-1.75-3.77-2.91-.67-.67-.95-1.71-1.41-2.59-.26,3.26,0,6.4,.85,9.37,.79,2.74,3.57,3.93,5.82,3.01,2.73-1.12,6.29-3.07,7.07-5.45,1.35-4.13-.39-8.42-4.33-12.2Zm353.7-1.55c-2.58,4.56-5.58,2.93-9.55,.55,.54,4.32,.69,7.68,1.46,10.9,.63,2.66,2.24,4.46,5.59,3.25,2.88-1.04,5.25-2.2,4.45-5.89-.63-2.94-1.3-5.87-1.95-8.81Zm-37.11-33.69v-4.99h-24.69l-.72,1.3c1.24,1.23,2.42,3.46,3.72,3.53,7.08,.35,14.19,.17,21.69,.17Zm-426.72-2.02c-.8,3.22,.5,3.87,2.91,3.83,5.85-.1,11.71-.24,17.55,.06,3.9,.21,5.5-1.32,5.58-5.28-8.75,.46-17.36,.92-26.05,1.38Zm221.2,40.98c-2.07,1.28-3.85,3.26-5.65,3.27-1.8,.01-3.61-1.94-5.41-3.03-2.41,4.59-2.27,8.18,.5,10.23,2.03,1.5,7.93,.94,10.15-.97,2.77-2.38,2.87-5.21,.41-9.49ZM477.72,26.41l-.96,.93c.77,.95,1.53,2.7,2.32,2.72,8.77,.2,17.55,.12,26.39,.12v-5.05c-9.45,.44-18.6,.86-27.75,1.28Zm58.6,2.28c-.13-2.07-.2-3.36-.26-4.23h-25.25v4.23h25.51Zm35.7-2.66c.29-.36,.59-.71,.88-1.07-.85-.63-1.71-1.82-2.56-1.81-8.78,.01-17.55,.21-26.33,.39-.45,0-.9,.31-1.51,.54,.15,1.23,.28,2.31,.45,3.69,9.85-.59,19.46-1.16,29.07-1.73ZM106.43,30.87h26.76c-.08-1.77-.14-2.94-.19-3.96h-26.01l-.56,3.96Zm465.31,19.87l.53,.3c.56-1.52,1.44-2.99,1.63-4.55,.92-7.57,2.15-15.16,2.24-22.75,.05-4.12-1.18-8.69-3.19-12.31-3.28-5.9-9.15-5.3-12.71,.81,.55,.06,1.05,.15,1.54,.15,.37,0,.78-.05,1.11-.2,5.7-2.59,7.99-2.02,9.55,4.17,1.38,5.46,1.79,11.32,1.64,16.98-.16,5.82-1.51,11.6-2.34,17.4Zm-206.83,11.69c-2.4,1.03-4.77,2.98-6.73,2.63-2.21-.4-4.04-2.87-6.76-5.02v10.41c13.28,1.68,16.06-.08,13.49-8.02Zm61.79-2.29c-1.83,3.92-1.45,7.47,.87,9.21,2.03,1.53,8.95,1.05,10.77-.98,2.53-2.82,.95-5.56-.46-8.54-3.71,2.99-7.31,3.11-11.18,.31ZM164.65,30.4l.63-.9c-.89-.77-1.76-2.17-2.68-2.21-7.91-.31-15.83-.37-23.74-.49-.21,0-.43,.23-.77,.43v3.17h26.56Zm297.06,29.55c-2.11,4.11-1.84,7.45,.56,9.33,1.95,1.52,6.34,1.12,8.51-.96,2.58-2.48,2.11-5.29,.89-8.32-5.45,3.32-7.13,3.32-9.96-.05Zm-71.98,.95c-.87,4.34-.1,8.1,3.29,9.83,1.64,.83,5.71-.23,6.72-1.74,1.37-2.07,.87-5.38,1.17-8.16l-1.07-.32c-3.09,3.91-6.42,3.05-10.11,.38Zm-206.46,1.26c-1.38,2.3-2.16,5.41-4.02,6.32-4,1.95-4.54-3.05-6.77-4.81-2.74,3.71,.17,7.34,3.1,9.84,1.47,1.25,7.98-.84,9.48-3.19,2.3-3.6-.24-6.07-1.79-8.16Zm20.88-32.18l-.04-1.11c-10.88-.47-21.76-.94-32.65-1.41-.18,.49-.35,.97-.53,1.46,.98,.55,1.96,1.55,2.95,1.57,9.42,.12,18.85,.08,28.28,.04,.66,0,1.32-.36,1.98-.55Zm290.02,29.27c-2.91,3.08-3.07,4.96-.86,7.8,2.05,2.63,4.83,2.84,8.86,.68,3.15-1.69,3.75-3.03,2.72-6.06-4.64,2.89-4.68,2.88-10.72-2.42ZM86.81,17.63c-1.91-3.91-3.92-5.37-7.42-5.55-4.86-.25-7.87,2.58-11.13,6.74l18.55-1.2Zm-20.93,46.29c-2.04,3.45-1.95,6.56,.09,9.71,1.72,2.64,3.89,1,5.8,.55,3.27-.76,5.07-2.91,5.29-6.81-5.29,3.57-7.79-1.05-11.18-3.45ZM469.97,29.98c.43-2.24-.16-3.12-2.49-2.97-7.13,.46-14.27,.73-21.41,1.14-.97,.05-1.93,.43-2.9,.66l.14,1.17h26.64ZM187.4,12.97c-2.3-5.08-4.69-6.78-8.58-5.88-3.1,.72-6.52,1.5-6.78,5.88h15.36ZM118.05,6.8l-1.32-.29c-2.38,3.04-4.77,6.09-7.39,9.43h11.68c-1.12-3.42-2.05-6.29-2.98-9.15Zm166.14,21.41v.62h42.37l-.02-.62h-42.36ZM10.38,690.99l.02,1.77c6.01-.27,12.02-.65,18.04-.78,6.09-.14,12.19-.03,18.28-.03v-.96H10.38ZM256.71,12.02c-.87-2.93-1.4-5.85-4.73-6.42-2.49-.43-5.47,2.75-6.44,6.42h11.17Zm71.64,10.86l.72,.04c-.35-4.19-.42-8.42-1.11-12.56-.84-5.03-5.88-7.95-8.52-5.14-1.64,1.74-2.53,4.19-3.71,6.23,2.14-1.69,4.11-4.5,5.99-4.44,3.59,.11,4.18,3.9,4.85,6.89,.67,2.98,1.2,5.99,1.79,8.99Zm.45,14.11c-2.54,8.19-.84,16.39-3.48,24.06-2.07-1.05-3.33-1.7-4.59-2.34,1.77,4.94,3.95,5.15,6.36,1.32,.86-1.36,1.58-3.06,1.63-4.63,.19-5.91,.08-11.82,.08-18.42ZM24.92,31.26v1c4.5,1.51,31.94,.42,33.53-1H24.92ZM2.78,25.99c.97,2.34,4.4,3.07,12.53,2.14,1.23-.14,2.32-1.63,3.47-2.5l-.68-1.12c-5.03,.49-10.06,.97-15.31,1.48Zm323.12,28.43c-5.4,.03-8.88,1.68-10.88,5.13-1.56,2.69-1.95,5.95,.42,9.12,.8-8.32,.83-8.32,8.6-11.55,.64-.26,.94-1.32,1.86-2.7Zm-116.56-25.15l.04,.78h26.87v-.78h-26.91Zm34.01-.36l-.09,.57h34.24l-.02-.57h-34.13ZM490.29,12.42l.59,1.06h11.77c-1.88-3.5-4.77-4.04-7.7-3.57-1.65,.26-3.12,1.64-4.67,2.51ZM119.25,6.06c1.07,3.39,2.06,6.51,3.33,10.54,1.18-1.01,2.67-1.66,2.91-2.62,.75-3.07-2.59-7.2-6.24-7.92ZM498.47,54.07c-6.24-.13-9.19,1.35-10.18,4.74-1.13,3.87-.6,5.7,2.2,7.54-1.87-4.92,.6-9.02,7.97-12.28Zm-429.75,5.72c3.29,1.73,6.34,3.33,9.4,4.94l.92-.52c-1.13-1.86-1.86-4.25-3.48-5.44-2.1-1.53-4.69-.94-6.84,1.01ZM578.62,22.9c.71,3.06,5.87,3.22,19.61,1.16-6.78-.4-13-.77-19.61-1.16Zm-47.83,28.9c-6.95,1.05-6,6.65-6.72,11.4-.12-1.5-.24-3.01-.36-4.6-1.98,3.62-1.21,6.42,2.23,8.45-.81-6.69-1.65-10.41,4.86-15.25ZM104.97,691.41l-.12,.33h30.12v-.33h-30ZM4.47,31.41l-.07,.51c4.24,.36,8.48,.72,12.73,1.08l.13-1.59H4.47Zm50.11-11.94c.37-7.51-5.48-13.04-12.61-12.06,6.54,1.67,11.55,4.78,12.61,12.06Zm412.14-6.33l.53-1.14c-1.2-.84-2.51-2.48-3.57-2.32-1.76,.25-3.35,1.65-5.02,2.57l.53,.89h7.52Zm-252.05,52.69l1.12,.05c2.29-3.66,2.23-7.18-.55-10.14-.2,3.65-.39,6.87-.57,10.09ZM148.95,14.48l.61-.96c-.87-.86-1.99-2.59-2.58-2.43-1.98,.54-3.77,1.76-5.63,2.72l.45,1.06,7.15-.39Zm273.03,15.01c7.15,1.38,12.2,1.27,14.92-.7-5.16,.24-9.53,.44-14.92,.7ZM216.16,12.25l.75-.98c-1.03-.86-2.17-2.52-3.08-2.4-1.36,.18-2.56,1.6-3.83,2.5l.53,.87h5.63Zm102.22-1.19l.72,.93h6.29c-1.74-1.79-2.71-3.59-3.84-3.71-.95-.1-2.1,1.78-3.16,2.78ZM62.78,60.04c-3.26,3.07-3.56,7.1-1.08,10.62,.33-3.23,.7-6.92,1.08-10.62Zm512.93,4.82l1.05-.32c-.74-3.5-1.48-6.99-2.22-10.49l-1.34,.3,2.51,10.51Zm-406.25-5.3c-1.96,3.44-1.25,8.29,1.5,11.4-.48-3.63-.98-7.44-1.5-11.4ZM291.45,11.23c-1.08-1.66-1.84-4.1-3.35-4.72-1.27-.52-3.41,1.09-5.16,1.76q4.28-1.25,8.52,2.96ZM142.11,56.34l.56,.92c3.26-.69,3.45-.6,9.21,4.29-2.16-3.73-4.51-5.74-7.88-6.35-.55-.1-1.26,.73-1.9,1.14Zm247.53,.39c-3.92,3.43-3.32,10.5,1.08,14.38-2.75-4.83-3.86-9.17-1.08-14.38Z"/><path class="cls-2" d="M610.74,235.08v41.01c-1.28,.09-2.4,.21-3.52,.25-26.84,.94-53.67,2.13-80.52,2.73-21.74,.48-43.5,.1-65.25,.35-20.85,.24-41.7,.59-62.53,1.3-18.66,.63-37.29,2.08-55.95,2.71-41.94,1.4-83.88,2.5-125.83,3.76-15.21,.46-30.42,1.58-45.62,1.41-28.39-.32-56.77-1.76-85.16-1.96-23.91-.17-47.82,.77-71.82,1.69,1.23,.06,2.46,.19,3.7,.17,29.42-.38,58.85-1.12,88.27-1.05,19.94,.05,39.87,1.47,59.82,1.83,13.42,.24,26.85-.26,40.27-.53,12.15-.24,24.3-.63,36.45-.95,27.63-.72,55.26-1.18,82.88-2.26,19.42-.76,38.8-2.83,58.22-3.49,28.51-.96,57.06-2.03,85.56-1.49,29.98,.57,59.86-.46,89.78-1.79,15.59-.69,31.19-1.07,46.78-1.58,1.39-.05,2.79,0,4.87,0v112.28c-1.8,0-3.52,0-5.24,0-32.76,.06-65.53,.21-98.29,.17-40.95-.06-81.92,.33-122.85-.65-24.64-.59-49.09,1.02-73.6,2.43-28.8,1.66-57.52,1.35-86.25-1.62-11.18-1.16-22.48-1.24-33.73-1.49-31.09-.68-62.17-1.38-93.26-1.7-18.28-.19-36.58,.08-54.86,.62-8.41,.25-16.77,1.79-25.17,2.49-3.91,.33-7.88,.06-12.36,.06,.45-17.88,.89-35.15,1.33-52.63,5.45,0,10.43,.12,15.39-.02,35.03-1,70.07-1.93,105.09-3.14,15.72-.54,31.41-2.23,47.12-2.39,13.27-.14,26.54,1.46,39.83,1.76,16.99,.39,33.99,.58,50.98,.27,33.01-.61,66-1.89,99.01-2.39,21.35-.33,42.72,.46,64.08,.33,19.19-.12,38.38-1.34,57.55-1.07,17.38,.24,34.74,1.87,52.11,2.79,10.73,.57,21.47,1.32,32.2,1.33,12.74,.01,25.48-.68,38.22-1.06-.01-.41-.03-.81-.04-1.22-5.56,.3-11.13,.86-16.69,.85-13.8-.03-27.61-.07-41.4-.56-15.98-.56-31.93-2.01-47.9-2.33-20.84-.41-41.69-.1-62.54-.08-24.05,.03-48.1-.15-72.14,.22-25.97,.39-51.92,1.39-77.89,1.98-20.72,.47-41.45,1.09-62.17,.94-11.61-.08-23.21-2.04-34.83-2.32-13.92-.33-27.86,.02-41.79,.45-14.82,.45-29.63,1.36-44.45,2.03-21.07,.95-42.14,2.01-63.22,2.74-11.12,.38-22.27,.14-33.4,.22-2.04,.02-2.97-.64-2.97-2.88-.02-30.71-.12-61.42-.18-92.12,0-.5,.15-1,.27-1.76,6.76,0,13.58-.7,20.2,.13,20.35,2.57,40.77,3.29,61.25,3.79,38.36,.93,76.71,2.54,115.07,3.56,15.47,.41,30.98,.6,46.42-.13,19.67-.93,39.3-2.71,58.92-4.46,31.9-2.83,63.84-3.55,95.85-3.7,43.5-.19,86.99-1.06,130.49-1.85,23.79-.43,47.58-1.31,71.36-1.97,1.24-.03,2.49,0,4.11,0Z"/><path class="cls-2" d="M10.81,439.01c7.75,.37,15.52,.58,23.25,1.14,13.37,.97,26.72,2.19,40.08,3.24,3.95,.31,7.91,.5,11.87,.6,20.97,.49,42.04,2.37,62.9,1.06,28.95-1.82,57.81,.25,86.7-.59,23.91-.7,47.89-.64,71.72-2.41,50.62-3.77,101.28-3.01,151.94-2.94,18.92,.03,37.84,1.46,56.76,1.54,23.15,.09,46.31-.48,69.47-.94,8.03-.16,16.05-.84,24.06-1.29v50.21c-1.66,.17-2.78,.41-3.89,.39-30.69-.59-61.38-1.57-92.08-1.73-28.53-.15-57.06,.47-85.58,.94-14.97,.25-29.93,.93-44.89,1.34-28.27,.76-56.53,1.66-84.8,2.15-26.74,.46-53.52,1.41-80.21,.44-32.55-1.19-64.96,1.41-97.43,1.72-28.15,.26-56.29,.98-84.44,1.4-10.07,.15-20.15,.02-30.86,.02v-105.13c2.41,.18,4.78,.64,7.1,.47,9.17-.68,18.32-1.57,27.49-2.35,3.06-.26,6.12-.6,9.18-.58,38.13,.29,76.27,.53,114.4,1.03,19.32,.25,38.63,.84,57.94,1.59,20.44,.79,40.86,2.7,61.3,2.75,18.9,.04,37.8-2.05,56.72-2.63,16.86-.52,33.75-.38,50.63-.33,45.56,.13,91.12,.44,136.68,.51,26.49,.04,52.98-.23,79.48-.37,5.19-.03,5.07-.03,4.94,5.31-.28,11.9-.43,23.8-.66,35.69-.04,2.03-.23,4.05-.37,6.41-7.45,.35-14.7,.88-21.95,1-31.21,.5-62.48,2.16-93.63,.96-33.65-1.3-67.28-1.75-100.92-1.45-28.12,.25-56.23,2.04-84.35,3.05-21.22,.77-42.44,1.68-63.67,1.98-23.4,.33-46.82-.15-70.22,.09-19.3,.19-38.61,1.58-57.9,1.23-23.12-.41-46.22-1.69-69.24-4.61-12.36-1.57-24.98-1.01-37.48-1.42l-.02,.52Z"/><g><path class="cls-2" d="M605.23,27.51c3.53,39.39,4.58,78.41,4.08,117.95-7.34,.43-14.56,1.22-21.79,1.21-42.1-.03-84.2-.31-126.3-.39-17.78-.03-35.57,.44-53.34,.3-15.73-.13-31.45-1.11-47.17-1.12-33.78-.02-67.55,.49-101.33,.51-20.84,.02-41.76-1.79-62.49-.42-30.17,1.99-60.36,1.39-90.51,2.86-18.52,.91-37.01,2.47-55.53,3.35-13.65,.64-27.31,.66-40.98,.95-.83-1-2.24-1.97-2.29-3-1.29-24.65-2.61-49.29-3.5-73.95-.47-12.9-.12-25.84-.12-38.76,0-.48,.16-.96,.3-1.68,4.41,.41,8.69,.8,13.39,1.24,.28,1.66,.44,3.41,.89,5.09,.83,3.07,1.29,6.42,2.89,9.05,2.34,3.82,2.58,6.46-.51,10.25-4.27,5.23,.51,14.07,7.3,14.47,8.2,.49,11.88-1.79,14.08-8.72,2.22-7.01-3.17-13.37-10.59-12.66-1,.09-2.58-.51-3.09-1.3-3.1-4.87-4.32-10.25-3.91-16.62H57.81c1.03,5.83,2.14,11.94,3.12,18.07,.11,.66-.53,1.48-.91,2.18-1.48,2.77-3.57,5.36-4.4,8.31-2.55,9.16,6.29,13.63,13.91,12.68,7.35-.91,12.03-7.22,11.56-14.71-.27-4.32-6.55-9.28-11.42-8.99-1.12,.07-2.24,.29-4.42,.58-.95-6.18-1.88-12.24-2.92-18.98h37.56c.53,6.11,1.08,12.33,1.63,18.6-7.29,4.14-9.81,8.44-7.92,13.65,2.34,6.48,7.75,9.8,14.31,8.81,6.31-.96,11.17-6.35,11.4-12.63,.19-5.39-4.22-9.29-12.66-10.97v-17.93h26.41c.92,6.13,1.87,12.41,2.75,18.71,.07,.5-.29,1.18-.66,1.61-3.26,3.83-3.81,8.25-2.77,12.95,1.46,6.57,7.84,9.74,14.02,7.09,.71-.31,1.44-.53,2.15-.83,6.88-2.85,8.89-8.65,4.68-14.84-2.85-4.19-6.52-7.67-12.69-8.01-.88-5.36-1.83-11.12-2.83-17.27h28.1c1.4,6.59,2.88,13.17,4.1,19.8,.17,.95-.72,2.25-1.41,3.18-3.07,4.12-3.57,8.77-2.1,13.39,1.15,3.63,4,6.29,8.18,5.42,3.89-.82,8.08-1.77,11.26-3.95,3.02-2.07,4.42-6.15,3.1-10.02-1.45-4.25-4.3-7.53-8.8-8.98-.47-.16-1.1-.3-1.5-.11-4.93,2.32-5.12-1.29-5.56-4.44-.64-4.67-1.17-9.36-1.78-14.34h32.69c.76,6.49,1.95,13.03,2.09,19.6,.06,2.79-2.29,5.56-3.12,8.46-2.3,8.07,1.24,13.25,9.43,14.59,5.18,.84,9.26-1.46,12.1-5,2.93-3.65,1.97-8.3,.03-12.4-2.68-5.63-7.31-7.96-14.16-7.04-.35-6.21-.69-12.1-1.05-18.54,9.11,0,17.77-.05,26.43,.1,.66,0,1.73,1.38,1.88,2.25,1.12,6.42,2.13,12.86,2.99,19.32,.15,1.14-.75,2.38-.86,3.59-.27,3.1-1.25,6.51-.34,9.25,2.04,6.15,9.21,7.9,15.68,4.16,3.58-2.07,6.98-4.82,6.89-9.46-.1-5.09-3.4-8.7-7.62-10.68-2.34-1.09-5.6-.19-9.26-.19-.8-5.42-1.72-11.63-2.74-18.59h35.58c.33,5.77,.71,11.86,.96,17.96,.02,.72-.77,1.45-1.12,2.21-1.58,3.46-3.68,6.79-4.56,10.41-.97,4.02,1.44,7.23,4.85,9.22,7.38,4.32,15.4,1.64,20.41-4.64,.77-.98,1.08-2.65,.97-3.95-.48-5.61-6.29-11.63-11.99-12.1-3.05-.25-3.87-1.48-3.8-4.27,.14-4.97,.04-9.94,.04-15.28h43.51c-.62,6.33-1.23,12.61-1.76,18-4.27,1.9-7.99,3.37-11.52,5.2-3.11,1.61-4.08,4.33-3.14,7.8,2.75,10.2,12.45,13.79,20.45,7.51,4.08-3.2,4.61-11.02,1.43-16.45-1-1.7-1.4-3.86-1.66-5.86-.33-2.65-.29-5.36-.34-8.04-.05-2.66-.01-5.33-.01-8.16h31.91c-.44,7.18-.86,14.01-1.29,20.93-3.33,.72-6.31,1.28-9.25,2.02-4.08,1.02-5.95,4.55-5.48,10.07,.37,4.27,2.48,6.27,6.64,6.91,4.78,.73,9.3,1.36,13.22-2.65,3.89-3.97,4.43-8.57,1.05-12.97-.45-.58-1.15-1.3-1.1-1.89,.72-7.35,1.56-14.69,2.36-21.91h28.84c-.73,6.67-1.4,12.85-2.1,19.23-2.44,.69-4.96,1.42-7.49,2.13-3.08,.85-4.66,2.75-4.87,6.04-.3,4.9,1.23,9.2,5.29,11.64,4,2.39,8.44,1.24,12.35-1.19,4.15-2.58,4.54-6.84,4.76-11.11,.03-.7-.21-1.75-.7-2.11-3.46-2.5-2.01-5.71-1.64-8.92,.59-5.06,.85-10.15,1.25-15.37h31.99c0,5.59,.13,10.81-.14,16-.05,.82-1.94,2.19-2.99,2.2-8.64,.1-13.63,5.56-11.91,14.01,.43,2.1,2.73,4.98,4.62,5.38,3.72,.79,7.95,.82,11.61-.16,5.03-1.35,6.74-8.29,3.71-13.98-1.21-2.28-1.05-4.13-.6-6.46,1.06-5.48,1.72-11.04,2.58-16.88h26.94c.75,5.45-.05,10.86-1.95,15.98-.48,1.3-2.93,2.18-4.64,2.67-4.38,1.26-7.77,6.2-7.42,11.33,.3,4.36,3.26,7.78,7.16,8.3,5.95,.78,10.59-1.77,11.75-7.28,.62-2.97-.15-6.23-.33-9.36-.05-.84-.5-1.72-.36-2.5,1.15-6.26,2.4-12.49,3.74-19.41h28.14c-.39,5.65-.79,11.54-1.22,17.71-8.14-3.78-11.61-3.1-16.9,2.81-3.04,3.39-3.75,8.84-1.58,12.06,2.44,3.64,9.51,6.09,13.73,4.76,7.39-2.33,9.97-7.39,7.67-14.83-.28-.91-.16-2.01,0-2.98,1.05-6.56,2.16-13.11,3.4-20.48h25.15c-.39,4.98-.73,10.42-1.37,15.83-.06,.53-1.95,1.31-2.91,1.22-5.97-.57-8.96,1.25-10.96,6.97-2.14,6.12-.9,9.83,4.35,13.06,7.74,4.76,17.27,1.23,18.19-7.2,.3-2.76-1.95-5.76-2.87-8.7-.48-1.53-1.04-3.25-.8-4.77,.92-5.76,2.14-11.48,3.41-18.02,9.03-.51,18.77-1.06,29.34-1.66-.72,6.17-1.36,11.65-1.85,15.85-4.38,1.94-7.87,3.15-10.99,5.01-1.45,.87-2.61,2.85-3.13,4.56-1.5,4.91,1.93,13.86,6.13,16.86,4.1,2.95,13.15-.49,15.02-5.96,1.82-5.31,1.8-10.51-2.03-15.24-.77-.95-.95-2.72-.78-4.03,.67-4.93,1.51-9.83,2.48-14.71,.2-.98,1.17-2.51,1.89-2.57,8.39-.75,16.79-1.26,25.55-1.86Z"/><path class="cls-2" d="M9.87,152.71s.06,.06,.08,.09l-.12-.09h.04Z"/></g><path class="cls-2" d="M8.91,197.84c-2.74-1.18-2.54-3.54-2.48-5.93,.27-10.87,.59-21.74,.66-32.61,.02-2.91,1-3.68,3.8-3.63,10.23,.17,20.48,.28,30.71,.08,20.71-.39,41.43-.76,62.13-1.58,26.2-1.04,52.37-3.16,78.57-3.63,30.57-.54,61.16,.2,91.74,.38,29.43,.17,58.86,.4,88.29,.44,34.67,.06,69.35-.33,104.02,.01,24.17,.24,48.34,2.06,72.5,1.93,18.13-.1,36.24-2.19,54.37-3.35,5.2-.33,10.42-.52,16.53-.82v84.98c-1.5,0-3.74-.06-5.98,0-30.69,.95-61.37,2.23-92.07,2.79-38.76,.7-77.54,1.12-116.31,1.05-31.77-.06-63.41,1.56-95.03,4.48-42.72,3.95-85.49,5.49-128.41,2.64-20.79-1.38-41.68-1.07-62.53-1.61-15.86-.41-31.72-.88-47.57-1.5-6.38-.25-12.74-1.07-19.12-1.47-10.45-.66-20.91-1.33-31.38-1.7-3.44-.12-5.03-.87-4.96-4.72,.2-11.26,.03-22.52,.06-33.78,0-1.52-.5-3.83,2.52-2.54,1.8,.09,3.59,.26,5.37,.3,18.52,.48,37.09,.23,55.55,1.58,28.14,2.07,56.25,1.82,84.38,.76,20.84-.78,41.65-2.07,62.49-2.89,17-.67,34.03-.74,51.03-1.5,23.13-1.04,46.23-3.36,69.36-3.57,44.39-.4,88.82-.57,133.18,.78,42.74,1.3,85.44,1.89,128.15,.04,2.67-.12,5.33-.73,7.99-1.11l-.17-1.12c-2.41,.33-4.82,.85-7.24,.96-40.03,1.88-80.05,2.12-120.09,.31-16.1-.73-32.24-.61-48.36-.64-35.3-.05-70.61-.32-105.9,.24-20.45,.33-40.87,2.28-61.32,3.2-28.75,1.29-57.53,1.99-86.27,3.49-42.73,2.23-85.41,1.78-128.09-.88-2.68-.17-5.36-.65-8.03-.61-10.7,.16-21.4,.47-32.1,.72Z"/><path class="cls-2" d="M10.07,677.97c-.56-23.07-1.08-45.01-1.62-67.45,2.5,0,4.64-.02,6.78,0,34.54,.31,69.12-.29,103.62,1.2,30.95,1.34,61.9,1.33,92.84,2.16,21.67,.58,43.21-.73,64.8-1.49,10.22-.36,20.49,.29,30.7-.28,14.29-.8,28.54-2.36,42.81-3.47,4.33-.34,8.69-.21,13.04-.42,24.53-1.17,49.05-2.36,73.58-3.59,15.59-.78,31.17-1.68,46.76-2.45,32.7-1.63,65.41-3.18,98.11-4.85,8.67-.44,17.32-1.19,25.91-1.8,1.18,25.69,2.37,51.58,3.59,78.02-3.8,0-7.2,0-10.6,0-36.85,0-73.7-.5-110.54,.18-26.45,.49-52.87,2.84-79.32,3.81-14.81,.55-29.66,.03-44.49-.09-28.01-.23-56.03-1.03-84.04-.64-38.88,.53-77.74,1.84-116.61,3.03-8.04,.25-16.03,1.85-24.06,2.12-14.55,.49-29.16,1.11-43.69,.46-20.28-.9-40.5-3.12-60.78-4.37-8.75-.54-17.57-.09-26.77-.09Z"/><path class="cls-2" d="M11.43,552.06c-1.56-.51-3.11-1.01-5.27-1.72v-54.9c5.84,0,11.93,0,18.02,0,15.47-.01,30.95,.15,46.42-.09,29.42-.46,58.85-1.11,88.27-1.78,14.45-.33,28.9-1.2,43.34-1.24,12.91-.04,25.82,1.13,38.73,1.06,26.6-.15,53.2-.63,79.8-1.22,30.19-.68,60.37-1.69,90.56-2.45,30.82-.77,61.65-1.95,92.48-1.92,26.85,.02,53.7,1.53,80.56,2.25,6.9,.18,13.82-.17,20.73-.25,1.24-.01,2.49,.12,3.36,.17v50.61c-5.49,0-10.29-.12-15.08,.02-33.89,.99-67.84,1.09-101.64,3.33-30.8,2.05-61.59,2.58-92.4,3.44-13.81,.39-27.65-.1-41.46,.38-15.85,.54-31.67,1.73-47.51,2.59-3.96,.22-7.92,.35-11.89,.39-32.5,.29-65,.42-97.5,.86-22.77,.31-45.54,.85-68.29,1.61-21.72,.73-43.43,2.57-65.14,2.63-15.54,.05-31.09-2.02-46.63-3.14-3.19-.23-6.38-.48-9.56-.72l.12,.08Z"/><path class="cls-2" d="M11.31,551.98c2.35,.42,4.68,.92,7.04,1.24,20.31,2.75,40.74,4.02,61.2,3.47,18.02-.49,36-2.06,54.02-2.8,13.42-.55,26.86-.59,40.3-.77,31.22-.41,62.44-.68,93.65-1.17,17.14-.27,34.31-.32,51.4-1.46,43.7-2.92,87.48-1.9,131.2-3.2,12-.36,23.97-1.8,35.96-2.51,8.04-.48,16.11-.57,24.16-.81,31.2-.92,62.4-1.84,93.6-2.75,1.14-.03,2.27,0,3.97,0,0,3.12,0,6.01,0,8.9,0,13.18,.02,26.35,.03,39.53,0,4.63-.47,5.25-5.16,5.51-17.12,.96-34.24,1.87-51.36,2.76-35.77,1.87-71.53,3.79-107.31,5.54-29.89,1.47-59.8,2.6-89.69,4.15-11.74,.61-23.43,2.27-35.17,2.84-14.43,.7-28.89,.76-43.34,1.12-19.56,.48-39.12,1.11-58.68,1.44-11.13,.19-22.27,.06-33.4-.17-36.32-.73-72.64-1.66-108.96-2.34-20.72-.39-41.45-.43-62.17-.63-1.27-.01-2.54,0-4.31,0-.57-19.35-1.13-38.45-1.71-57.78,1.69,0,3.28,0,4.87,0-.01,0-.13-.09-.13-.09Z"/><path class="cls-2" d="M611.4,682.75c-6.02,0-11.72-.21-17.4,.04-25.3,1.1-50.58,2.61-75.88,3.44-22.88,.76-45.78,.9-68.67,1.18-20.47,.25-40.94,.16-61.41,.5-12.4,.21-24.79,1.46-37.17,1.32-29.53-.33-59.15-.07-88.57-2.21-27.74-2.02-55.21,.54-82.8,1.03-10.85,.19-21.74,1.92-32.51,1.25-19.61-1.21-39.11,.2-58.66,.49-17.75,.26-35.53-.89-53.29-1.28-8.27-.18-16.55-.03-25.5-.03,.13-1.91,.3-4.46,.47-6.94,9.49,0,18.76-.87,27.81,.16,31.81,3.6,63.69,5.42,95.69,5.04,7.37-.09,14.69-2.01,22.07-2.36,16.22-.78,32.45-1.1,48.68-1.6,26.46-.81,52.93-2.18,79.39-2.26,35.56-.12,71.12,1.11,106.68,1.07,20.31-.02,40.64-1.09,60.93-2.28,37.45-2.21,74.92-1.85,112.4-1.88,14.2-.01,28.4,.21,42.6,.32,5.26,.04,5.45,.25,5.15,4.98Z"/><path class="cls-2" d="M9.84,152.71c1.73,.3,3.48,.91,5.2,.84,20.31-.89,40.61-1.96,60.91-2.84,16.1-.7,32.2-1.32,48.31-1.77,17.26-.48,34.59,.08,51.77-1.26,20.06-1.56,40.1-2.21,60.19-1.89,28.01,.45,56.02,1.39,84.04,1.54,18.29,.1,36.58-1.27,54.87-1.14,19.69,.14,39.36,1.77,59.05,1.86,48.61,.23,97.23,0,145.84-.18,7.78-.03,15.56-.74,23.34-1.09,1.85-.08,3.7-.01,5.62,.58-.63,.18-1.25,.46-1.89,.51-16.83,1.21-33.64,2.9-50.49,3.46-17.62,.58-35.29,.23-52.93,0-22.9-.29-45.79-1.17-68.69-1.25-39.66-.14-79.33,.33-119,.18-41.97-.16-83.94-1.36-125.9-.92-29.14,.31-58.26,2.68-87.39,4.01-10.48,.48-20.97,.72-31.46,.94-19.56,.41-39.12,.74-58.68,1.1-.9,.02-1.83,.16-2.68-.04-.85-.2-1.62-.77-2.43-1.17,.84-.46,1.69-.92,2.52-1.39,0,0-.13-.08-.13-.08Z"/><path class="cls-2" d="M404.16,690.67c13.94,0,27.88,.02,41.82,0,13.69-.03,27.39,.27,41.06-.25,21.33-.81,42.63-2.3,63.95-3.27,17.25-.78,34.5-1.3,51.76-1.71,2.75-.06,5.52,1.07,8.19,2.15-68.93,5.64-137.84,5.7-206.78,3.08Z"/><path class="cls-1" d="M325.4,15.35c.24,3.24,.47,6.24,.74,9.8h-41.76V15.35h41.02Z"/><path class="cls-1" d="M277.67,26.07h-34.12V15.46h35.61c-.48,3.38-.94,6.69-1.49,10.61Z"/><path class="cls-1" d="M353.14,25.96h8.5l-.06,1.46c-9.99-.58-19.98-1.16-30.09-1.74-.34-3.64-.63-6.76-.95-10.15h30.83c0,3.1,1.07,6.79-.31,8.52-1.34,1.68-5.2,1.36-7.92,1.91Z"/><path class="cls-1" d="M368.9,26.87c-.75-3.49-1.49-6.94-2.3-10.69h29.93c.33,.5,.54,.69,.57,.91,1.46,9.46,1.36,9.64-8.18,9.77-6.61,.09-13.22,.02-20.01,.02Z"/><path class="cls-1" d="M205.03,16.24c-.12,.59-.24,1.07-.32,1.56-1.41,8.7-1.4,8.58-10.36,7.98-6.5-.44-13.01-.66-19.52-.7-4.6-.03-3.46-3.41-3.88-5.94-.51-3.07,1.61-2.89,3.58-2.89,10.06,0,20.12,0,30.5,0Z"/><path class="cls-1" d="M434.95,16.56c.18,3.29,.33,6.05,.53,9.69-9.74,.15-19.13,.32-28.51,.34-.64,0-1.7-1.08-1.86-1.82-.55-2.59-.8-5.24-1.21-8.21h31.04Z"/><path class="cls-1" d="M209.36,15.48h26.29v10.5c-8.32,0-16.4,.05-24.48-.11-.62-.01-1.65-1.52-1.73-2.4-.24-2.49-.08-5.02-.08-7.99Z"/><path class="cls-1" d="M247.32,62.69c1.83-1.91,2.72-3.6,4.05-4.08,2.47-.89,4.31,.48,4.67,3.08,.4,2.96,2.52,6.46-1.31,8.6-3.75,2.1-5.14,2.69-8.7-3.18,3.3-1.15,6.32-2.53,4.82-7.36-.13,1.23,.07,2.31-.38,2.88-.9,1.14-2.07,2.18-3.35,2.83-.3,.15-1.92-1.27-2.17-2.18-1.45-5.13-3.16-10.25-3.86-15.5-1.39-10.36-2.34-20.8-3.12-31.23-.2-2.69,.49-5.64,1.51-8.18,1.82-4.56,7.39-6.48,13.56-5.2,3.45,.72,6.25,4.4,6.04,8.96-.58-1.28-1.12-2.58-1.74-3.83-2.43-4.9-6.97-5.91-10.43-1.66-2.4,2.95-4.42,6.76-5.1,10.46-2.58,13.95-.98,27.76,3.02,41.29,.52,1.77,1.88,3.29,2.49,4.31Z"/><path class="cls-1" d="M182.61,4.93c-9.49,1.07-12.23,3.25-12.75,11.76-.89,14.49,.24,28.87,4.86,42.77,.69,2.07,2.25,3.85,3.4,5.76l.97-.51c-1.37-2.69-2.74-5.38-4.14-8.14,7.08-1.99,10.82,.34,12.43,7.64-1.45-1.67-2.49-3.5-4.07-4.52-1.57-1.02-3.67-1.22-5.54-1.78l-.37,1.02,3.57,1.68c-.05,.49,0,1.02-.18,1.44-.76,1.72-1.59,3.4-2.4,5.09-1.49-1.55-3.68-2.83-4.35-4.68-4.92-13.5-7.35-27.57-8.48-41.85-.84-10.68,5.21-16.58,17.04-15.69Z"/><path class="cls-1" d="M170.89,692.31c31.77-1.78,63.5-6.46,95.37-1.17l-95.37,1.17Z"/><path class="cls-1" d="M468.98,24.07c-8.57,.38-16.68,.75-25.05,1.12-.6-2.85-1.14-5.42-1.79-8.52,8.36,0,16.36-.06,24.36,.1,.68,.01,1.65,1.41,1.93,2.33,.42,1.42,.36,2.99,.55,4.97Z"/><path class="cls-1" d="M28.41,21.4c.73-5.99,6.08-11.4,11.52-12.02,5.3-.6,10.54,3.57,12.81,10.46-8.15,.52-16.2,1.04-24.32,1.56Z"/><path class="cls-1" d="M396.4,61.61c1.07-15.47,4.94-30.49,2.21-45.87-.2-1.12-.39-2.41-1.06-3.24-1.13-1.42-2.5-3.28-4.02-3.56-1.1-.2-2.62,1.86-3.92,2.95-.35,.29-.58,.72-1.13,.89,.1-3.23,1.38-5.68,4.72-6.56,3.5-.92,5.94,.76,6.83,3.92,1.14,4.02,2.32,8.21,2.3,12.33-.03,9.83-.54,19.67-1.31,29.47-.28,3.54-1.22,7.3-4.63,9.68Z"/><path class="cls-1" d="M476.3,16.98c8.88,0,17.29-.07,25.7,.11,.84,.02,2.26,1.56,2.3,2.45,.04,.89-1.24,2.6-2.05,2.66-7.63,.6-15.29,1.3-22.93,1.17-3.6-.06-2.66-3.83-3.03-6.4Z"/><path class="cls-1" d="M105.42,61.46c-4.3-14.48-5.28-29.16-1.32-43.78,1.06-3.91,4.38-7.27,6.95-10.65,.77-1.02,2.54-1.28,4.19-1.56-9.07,8.54-11.31,19.29-10.74,30.92,.37,7.48,.94,14.95,1.72,22.39,.14,1.38,1.67,2.61,2.56,3.91l.84-.59-1.54-2.98,3.99,1.01c-.28,1.32-.15,2.84-.82,3.36-.92,.72-2.42,.68-3.68,.97-.72-1-1.44-2-2.16-3Z"/><path class="cls-1" d="M356.34,6.82c-.86,1.85-1.72,3.7-2.65,5.69-.79-2.72,.92-6.54,3.22-7.57,3.01-1.35,4.35,1.27,4.85,2.95,1.92,6.45,4.43,13.02,4.62,19.61,.27,9.77-1.17,19.6-2.08,29.38-.14,1.54-1.01,3.21-2,4.43-2.9,3.58-6.11,2.84-8.19-2.51,1.46,.74,2.62,.95,3.08,1.63,1.73,2.55,3,1.29,3.93-.46,.76-1.44,1.27-3.1,1.5-4.72,2-14.01,2.67-28.02-.6-41.94-.49-2.08-1.7-3.99-2.57-5.98l-.96,.44c.63,1.39,1.26,2.79,2.01,4.43h-4.73c.63-1.7,1.18-3.17,1.72-4.65l-1.13-.73Z"/><path class="cls-1" d="M139.46,24.4c-.94-5.07,.44-6.57,4.35-6.62,6.58-.09,13.14-.7,20-1.1,0,2.06,.32,3.76-.11,5.23-.29,.99-1.64,2.36-2.54,2.39-7.24,.19-14.49,.11-21.7,.11Z"/><path class="cls-1" d="M60.27,23.7c.16,3.23-.95,4.79-4.54,4.76-8.27-.07-16.54,.28-24.81,.38-1.46,.02-2.93-.34-4.86-1.5,.88-.81,1.71-2.25,2.64-2.32,10.16-.72,20.33-1.23,30.51-1.76,.33-.02,.68,.27,1.07,.44Z"/><path class="cls-1" d="M30.24,63.8c-2.44-4.3-5.21-8.44-7.24-12.93-3.31-7.31-4.62-15.12-3.53-23.12,.79-5.81,3.94-10.35,9.3-14.46-1.74,4.75-3.36,8.64-4.61,12.65-4.16,13.33-.49,25.12,7.45,35.95,.53,.72,1.86,.89,2.85,1.23,1.44,.49,2.91,.91,4.37,1.36l-.41,1.61c-2.27-.3-4.53-.61-6.8-.91l-1.38-1.38Z"/><path class="cls-1" d="M577.07,15.45h29.21c1.53,5.44,1.3,6.05-4.47,5.89-6.98-.19-13.97-.78-20.9-1.6-1.18-.14-2.12-2.3-3.84-4.29Z"/><path class="cls-1" d="M288.48,65.51c-2.13-2.72-1.87-5.57-.65-8.54,5.35,1.7,6.74,3.95,6.99,10.42,.14,3.73-3.08,4.12-5.22,5.27-2.8,1.51-8.92,.29-10.48-1.56-1.86-2.22-1.38-8.29,1.03-12.01,1.73,3.61,1.6,9.02,7.55,8.53,2.68-.22,3.29-2.64,2.55-8-.6,1.86-1.23,3.84-1.86,5.82l.09,.08Z"/><path class="cls-1" d="M425.81,12.6c.9-1.49,1.56-3.22,2.74-4.44,2.96-3.06,8.16-1.91,9.14,2.3,1.64,7.03,3.47,14.19,3.69,21.34,.25,8.27,.23,16.81-3.59,24.82,.23-6.68,.78-13.14,.6-19.59-.18-6.61-.87-13.23-1.76-19.8-.33-2.43-1.59-4.85-2.87-7-1.53-2.55-2.97-2.25-4.3,.43-.55,1.09-1.46,2-2.2,2.99l-1.44-1.06Z"/><path class="cls-1" d="M148.95,66.48c-.32-.08-.84-.32-.93-.21-2.8,3.34-4.52,1.48-5.82-1.31-3.24-6.96-6.08-14.06-6.68-21.84-.66-8.66-1.84-17.38,1.35-25.79,1.01-2.66,2.48-5.37,4.44-7.37,1.61-1.64,4.77-3.61,6.33-3.02,2.39,.9,4,3.88,5.95,5.98l-.97,1.01c-.38-.17-.93-.23-1.11-.52-3.48-5.45-9.36-5.15-12.27,.98-1.45,3.05-2.35,6.53-2.7,9.9-1.49,14.53,1.91,28.13,8.5,41.02,.09,.18,.42,.25,.76,.43v-6.72c4.31,1.68,3.1,4.83,3.1,7.54l.05-.09Z"/><path class="cls-1" d="M75.33,65.26c-.87,2.72-3.51,3.21-5.52,.28-2.91-4.25-6.04-8.68-7.55-13.51-4.36-13.87-1.87-26.87,6.31-38.98,4.27-6.32,15.43-8.17,20.75,.9,.57,.97,.78,2.14,.6,3.37-1.44-1.71-2.64-3.73-4.37-5.07-4.51-3.52-11.01-2.59-15.64,2.02-5.45,5.43-7.34,12.48-8.4,19.74-1.65,11.31,2.87,21.05,8.68,30.24,.61,.96,3.2,.67,5.13,1Z"/><path class="cls-1" d="M527.17,56.75c4.35,3.68,5.31,3.53,10.92-1.8,1.91,3.94,2.06,8.17,1.01,11.75-.52,1.76-4.51,3.36-6.95,3.37-1.65,.01-4.19-2.59-4.77-4.5-.82-2.71-.21-5.86-.21-8.82Z"/><path class="cls-1" d="M100.49,20.2c.59,3.62-.95,4.07-3.4,4.18-10.3,.49-20.59,1.18-32.09,1.87,1.38-1.57,2.26-3.51,3.31-3.6,10.65-.98,21.33-1.67,32.18-2.45Z"/><path class="cls-1" d="M536.97,52.87c.97-12.35,1.85-24.7-.61-37.02-.22-1.12-.43-2.28-.86-3.32-1.63-3.92-5.03-4.33-7.62-.95-.36,.48-.68,.99-1.01,1.49l-1.03-.85c1.09-1.26,1.95-3.1,3.33-3.67,2.53-1.05,5.11-1.07,7.03,1.85,4.44,6.78,4.67,14.49,5.09,22.12,.39,7.08-1.22,13.86-4.32,20.35Z"/><path class="cls-1" d="M570.45,16.11c.16,.93,.35,2.03,.61,3.56-6.43,.27-12.62,.53-18.82,.77-1.91,.07-3.85-.13-5.74,.11-3.08,.39-4.55-.84-4.66-4.43h28.6Z"/><path class="cls-1" d="M100.34,26.88v4.5h-36.27l-.38-.75c1.02-.49,2.01-1.32,3.07-1.42,6.72-.64,13.46-1.16,20.2-1.63,4.42-.31,8.84-.47,13.37-.7Z"/><path class="cls-1" d="M218.39,57.18c3.93,3.77,5.67,8.07,4.33,12.2-.78,2.38-4.34,4.33-7.07,5.45-2.25,.92-5.03-.27-5.82-3.01-.86-2.97-1.12-6.11-.85-9.37,.46,.88,.74,1.92,1.41,2.59,1.17,1.17,3.13,3.23,3.77,2.91,1.7-.84,3.38-2.53,4.09-4.29,.69-1.7,.15-3.89,.15-6.48Z"/><path class="cls-1" d="M105.42,61.46c.72,1,1.44,2,2.16,3,3.29,2.5,3.6,2.35,6.62-3.87-2.38-.92-4.71-1.82-7.67-2.97,2.6-1.27,4.38-.83,6.4,.43,3.4,2.11,4.76,4.66,3.2,8.61-1.88,4.75-5.79,7.33-11.76,6.88-.42-3.56-.97-7.26-1.25-10.97-.12-1.62,.71-2.45,2.3-1.12Z"/><path class="cls-1" d="M572.08,55.63c.65,2.94,1.31,5.87,1.95,8.81,.79,3.68-1.57,4.84-4.45,5.89-3.35,1.21-4.95-.59-5.59-3.25-.76-3.22-.91-6.58-1.46-10.9,3.97,2.38,6.97,4.02,9.55-.55Z"/><path class="cls-1" d="M534.98,21.94c-7.5,0-14.61,.18-21.69-.17-1.29-.06-2.48-2.29-3.72-3.53l.72-1.3h24.69v4.99Z"/><path class="cls-1" d="M108.26,19.92c8.69-.46,17.29-.91,26.05-1.38-.08,3.95-1.69,5.48-5.58,5.28-5.84-.31-11.7-.16-17.55-.06-2.41,.04-3.71-.61-2.91-3.83Z"/><path class="cls-1" d="M329.46,60.9c2.46,4.28,2.36,7.12-.41,9.49-2.22,1.91-8.12,2.47-10.15,.97-2.77-2.05-2.91-5.63-.5-10.23,1.8,1.09,3.61,3.04,5.41,3.03,1.8-.01,3.58-1.98,5.65-3.27Z"/><path class="cls-1" d="M477.72,26.41c9.15-.42,18.3-.85,27.75-1.28v5.05c-8.84,0-17.62,.07-26.39-.12-.79-.02-1.55-1.77-2.32-2.72l.96-.93Z"/><path class="cls-1" d="M536.32,28.7h-25.51v-4.23h25.25c.05,.87,.13,2.16,.26,4.23Z"/><path class="cls-1" d="M572.02,26.04c-9.61,.57-19.22,1.15-29.07,1.73-.17-1.38-.3-2.46-.45-3.69,.61-.23,1.05-.53,1.51-.54,8.77-.18,17.55-.37,26.33-.39,.85,0,1.71,1.18,2.56,1.81-.29,.36-.59,.71-.88,1.07Z"/><path class="cls-1" d="M106.43,30.87l.56-3.96h26.01c.05,1.01,.1,2.18,.19,3.96h-26.76Z"/><path class="cls-1" d="M571.74,50.74c.83-5.8,2.19-11.58,2.34-17.4,.15-5.66-.26-11.51-1.64-16.98-1.56-6.19-3.85-6.76-9.55-4.17-.33,.15-.74,.2-1.11,.2-.5,0-1-.09-1.54-.15,3.56-6.12,9.43-6.72,12.71-.81,2.01,3.62,3.24,8.19,3.19,12.31-.09,7.59-1.32,15.18-2.24,22.75-.19,1.56-1.07,3.04-1.63,4.55l-.53-.3Z"/><path class="cls-1" d="M364.91,62.44c2.57,7.94-.21,9.7-13.49,8.02v-10.41c2.72,2.14,4.55,4.62,6.76,5.02,1.96,.35,4.33-1.61,6.73-2.63Z"/><path class="cls-1" d="M426.7,60.15c3.87,2.8,7.47,2.69,11.18-.31,1.41,2.98,2.99,5.72,.46,8.54-1.82,2.03-8.75,2.51-10.77,.98-2.31-1.74-2.7-5.29-.87-9.21Z"/><path class="cls-1" d="M164.65,30.4h-26.56v-3.17c.34-.19,.55-.43,.77-.43,7.92,.12,15.83,.18,23.74,.49,.92,.04,1.79,1.44,2.68,2.21l-.63,.9Z"/><path class="cls-1" d="M210.75,7.82c-1.08,3.6-3.2,7.23-3.05,10.78,.54,12.85,1.67,25.68,2.98,38.48,.32,3.14,2.17,6.11,2.54,9.64-.76-1.26-1.67-2.46-2.26-3.8-5.4-12.17-5.31-25.12-5.03-38.03,.1-4.55,.93-9.12,1.82-13.6,.27-1.36,1.83-2.47,2.79-3.69l.21,.23Z"/><path class="cls-1" d="M288.39,65.43c-3.99,1.61-5.15-1.57-5.79-4.07-1.24-4.8-2.39-9.76-2.51-14.68-.23-9.7,.25-19.42,.51-29.13,.03-1.1,.46-2.18,1-3.21,0,5.1-.13,10.2,.03,15.29,.26,8.29,.43,16.6,1.24,24.84,.33,3.3,2.18,6.48,3.52,9.64,.27,.64,1.36,.93,2.08,1.39,0,0-.09-.07-.09-.07Z"/><path class="cls-1" d="M461.72,59.94c2.83,3.37,4.5,3.37,9.96,.05,1.22,3.03,1.7,5.84-.89,8.32-2.17,2.08-6.55,2.48-8.51,.96-2.4-1.88-2.68-5.22-.56-9.33Z"/><path class="cls-1" d="M506.56,47.72c1.48-11.03,2.66-22.11-1.08-32.87-.89-2.57-3.35-5.31-5.8-6.46-5.12-2.39-7.87-.88-11.42,4.75-.03-3.26,1.63-5.87,5.3-7.1,3.37-1.13,6.92-1.89,10.04,1.07,3.3,3.13,4.38,7.19,4.75,11.43,.81,9.17,1.42,18.37-.63,27.48-.14,.62-.77,1.14-1.17,1.7h0Z"/><path class="cls-1" d="M389.73,60.89c3.68,2.67,7.02,3.53,10.11-.38l1.07,.32c-.3,2.78,.2,6.09-1.17,8.16-1,1.51-5.08,2.57-6.72,1.74-3.4-1.73-4.16-5.5-3.29-9.83Z"/><path class="cls-1" d="M183.28,62.15c1.55,2.09,4.09,4.55,1.79,8.16-1.5,2.35-8.01,4.44-9.48,3.19-2.93-2.5-5.84-6.13-3.1-9.84,2.22,1.76,2.77,6.76,6.77,4.81,1.86-.91,2.64-4.02,4.02-6.32Z"/><path class="cls-1" d="M204.16,29.97c-.66,.19-1.32,.55-1.98,.55-9.43,.04-18.85,.07-28.28-.04-.99-.01-1.97-1.02-2.95-1.57,.18-.49,.35-.97,.53-1.46,10.88,.47,21.76,.94,32.65,1.41l.04,1.11Z"/><path class="cls-1" d="M494.18,59.25c6.04,5.3,6.08,5.31,10.72,2.42,1.03,3.03,.44,4.37-2.72,6.06-4.03,2.16-6.81,1.95-8.86-.68-2.21-2.84-2.05-4.73,.86-7.8Z"/><path class="cls-1" d="M86.81,17.63l-18.55,1.2c3.27-4.16,6.27-6.99,11.13-6.74,3.49,.18,5.5,1.63,7.42,5.55Z"/><path class="cls-1" d="M65.88,63.92c3.39,2.39,5.89,7.02,11.18,3.45-.21,3.9-2.02,6.05-5.29,6.81-1.91,.45-4.08,2.09-5.8-.55-2.05-3.14-2.13-6.25-.09-9.71Z"/><path class="cls-1" d="M469.97,29.98h-26.64l-.14-1.17c.96-.23,1.92-.61,2.9-.66,7.13-.4,14.28-.68,21.41-1.14,2.32-.15,2.91,.73,2.49,2.97Z"/><path class="cls-1" d="M187.4,12.97h-15.36c.26-4.39,3.68-5.16,6.78-5.88,3.89-.9,6.27,.8,8.58,5.88Z"/><path class="cls-1" d="M148.91,66.57l1.59-3.15c.99,2.31,3.13,4.34,.54,6.88-2.19,2.15-8.84,4.11-10.36,3.02-2.44-1.74-3.53-7.85-2.06-11.57,1.52,2.44,2.83,5.05,4.64,7.26,.76,.93,2.96,1.74,3.79,1.28,1.03-.56,1.31-2.49,1.91-3.82,0,0-.05,.1-.05,.1Z"/><path class="cls-1" d="M118.05,6.8c.93,2.86,1.87,5.72,2.98,9.15h-11.68c2.62-3.35,5-6.39,7.39-9.43l1.32,.29Z"/><path class="cls-1" d="M284.19,28.21h42.36l.02,.62h-42.36v-.62Z"/><path class="cls-1" d="M10.38,690.99H46.72v.96c-6.09,0-12.19-.11-18.28,.03-6.02,.13-12.03,.51-18.04,.78l-.02-1.77Z"/><path class="cls-1" d="M256.71,12.02h-11.17c.97-3.67,3.95-6.85,6.44-6.42,3.33,.57,3.87,3.49,4.73,6.42Z"/><path class="cls-1" d="M30.24,63.8l1.38,1.38c2.11,1.01,4.23,2.03,7.18,3.45,.19,1.45-1.52,2.52-3.47,3.59-2.11,1.16-3.86,.51-4.99-1.18-1.09-1.63-1.77-3.59-2.29-5.5-.1-.36,1.42-1.15,2.19-1.75Z"/><path class="cls-1" d="M328.35,22.88c-.59-3-1.12-6.01-1.79-8.99-.67-2.99-1.26-6.78-4.85-6.89-1.88-.06-3.85,2.76-5.99,4.44,1.18-2.04,2.07-4.48,3.71-6.23,2.64-2.81,7.69,.12,8.52,5.14,.69,4.13,.76,8.37,1.11,12.56l-.72-.04Z"/><path class="cls-1" d="M328.81,36.99c0,6.6,.11,12.51-.08,18.42-.05,1.57-.77,3.27-1.63,4.63-2.41,3.83-4.59,3.62-6.36-1.32,1.26,.64,2.52,1.28,4.59,2.34,2.64-7.67,.94-15.87,3.48-24.06Z"/><path class="cls-1" d="M24.92,31.26H58.44c-1.59,1.41-29.03,2.5-33.53,1v-1Z"/><path class="cls-1" d="M2.78,25.99c5.25-.51,10.28-1,15.31-1.48l.68,1.12c-1.15,.87-2.23,2.36-3.47,2.5-8.12,.93-11.55,.2-12.53-2.14Z"/><path class="cls-1" d="M325.9,54.42c-.92,1.38-1.22,2.44-1.86,2.7-7.76,3.24-7.8,3.23-8.6,11.55-2.37-3.17-1.98-6.43-.42-9.12,2-3.46,5.48-5.11,10.88-5.13Z"/><path class="cls-1" d="M209.34,29.27h26.9v.78h-26.86l-.04-.78Z"/><path class="cls-1" d="M243.35,28.92h34.13l.02,.57h-34.24l.09-.57Z"/><path class="cls-1" d="M490.29,12.42c1.55-.87,3.02-2.25,4.67-2.51,2.93-.47,5.82,.07,7.7,3.57h-11.77l-.59-1.06Z"/><path class="cls-1" d="M119.25,6.06c3.64,.72,6.99,4.85,6.24,7.92-.23,.96-1.73,1.61-2.91,2.62-1.27-4.03-2.26-7.15-3.33-10.54Z"/><path class="cls-1" d="M498.47,54.07c-7.37,3.26-9.84,7.37-7.97,12.28-2.8-1.84-3.33-3.67-2.2-7.54,.99-3.39,3.94-4.87,10.18-4.74Z"/><path class="cls-1" d="M68.72,59.79c2.15-1.96,4.74-2.55,6.84-1.01,1.62,1.18,2.36,3.58,3.48,5.44l-.92,.52c-3.06-1.61-6.12-3.21-9.4-4.94Z"/><path class="cls-1" d="M578.62,22.9c6.61,.39,12.84,.76,19.61,1.16-13.74,2.06-18.91,1.9-19.61-1.16Z"/><path class="cls-1" d="M530.79,51.8c-6.5,4.84-5.66,8.56-4.86,15.25-3.44-2.03-4.21-4.84-2.23-8.45,.13,1.6,.24,3.1,.36,4.6,.73-4.75-.23-10.35,6.72-11.4Z"/><path class="cls-1" d="M104.97,691.41h30v.33h-30.12l.12-.33Z"/><path class="cls-1" d="M4.47,31.41h12.78l-.13,1.59c-4.24-.36-8.48-.72-12.73-1.08l.07-.51Z"/><path class="cls-1" d="M506.56,47.71c-.78,3.89-1.16,7.93-2.5,11.62-.93,2.56-3.58,2.43-5.83,1.08,6.24-1.89,7.52-7.14,8.33-12.7h0Z"/><path class="cls-1" d="M54.58,19.47c-1.06-7.29-6.07-10.39-12.61-12.06,7.13-.98,12.98,4.55,12.61,12.06Z"/><path class="cls-1" d="M210.54,7.59c4.51-4.53,7.72-3.18,10.77,5.26-3.78-2.13-5.41-7.9-10.56-5.03l-.21-.23Z"/><path class="cls-1" d="M466.73,13.14h-7.52l-.53-.89c1.66-.92,3.26-2.32,5.02-2.57,1.06-.15,2.37,1.49,3.57,2.32l-.53,1.14Z"/><path class="cls-1" d="M214.68,65.83c.18-3.22,.36-6.44,.57-10.09,2.78,2.96,2.84,6.48,.55,10.14l-1.12-.05Z"/><path class="cls-1" d="M148.95,14.48l-7.15,.39-.45-1.06c1.86-.96,3.65-2.18,5.63-2.72,.59-.16,1.7,1.57,2.58,2.43l-.61,.96Z"/><path class="cls-1" d="M421.98,29.49c5.39-.25,9.76-.45,14.92-.7-2.71,1.96-7.77,2.08-14.92,.7Z"/><path class="cls-1" d="M216.16,12.25h-5.63l-.53-.87c1.27-.9,2.46-2.32,3.83-2.5,.9-.12,2.04,1.54,3.08,2.4l-.75,.98Z"/><path class="cls-1" d="M318.38,11.07c1.06-1,2.21-2.88,3.16-2.78,1.14,.11,2.1,1.92,3.84,3.71h-6.29l-.72-.93Z"/><path class="cls-1" d="M62.78,60.04c-.38,3.69-.75,7.39-1.08,10.62-2.48-3.52-2.18-7.54,1.08-10.62Z"/><path class="cls-1" d="M575.71,64.86l-2.51-10.51,1.34-.3c.74,3.5,1.48,6.99,2.22,10.49l-1.05,.32Z"/><path class="cls-1" d="M169.46,59.56c.52,3.96,1.02,7.76,1.5,11.4-2.75-3.11-3.46-7.96-1.5-11.4Z"/><path class="cls-1" d="M291.45,11.23q-4.23-4.21-8.52-2.96c1.75-.67,3.9-2.28,5.16-1.76,1.51,.62,2.27,3.07,3.35,4.72Z"/><path class="cls-1" d="M142.11,56.34c.64-.4,1.35-1.23,1.9-1.14,3.36,.61,5.72,2.62,7.88,6.35-5.75-4.89-5.95-4.98-9.21-4.29l-.56-.92Z"/><path class="cls-1" d="M389.65,56.73c-2.78,5.21-1.67,9.55,1.08,14.38-4.4-3.88-5-10.95-1.08-14.38Z"/><path d="M8.91,197.84c10.7-.25,21.4-.56,32.1-.72,2.67-.04,5.35,.45,8.03,.61,42.68,2.66,85.37,3.11,128.09,.88,28.74-1.5,57.52-2.2,86.27-3.49,20.45-.92,40.87-2.87,61.32-3.2,35.29-.57,70.6-.29,105.9-.24,16.12,.02,32.26-.1,48.36,.64,40.05,1.82,80.07,1.58,120.09-.31,2.42-.11,4.83-.63,7.24-.96l.17,1.12c-2.66,.38-5.32,1-7.99,1.11-42.72,1.85-85.41,1.26-128.15-.04-44.36-1.35-88.79-1.18-133.18-.78-23.13,.21-46.23,2.53-69.36,3.57-17,.76-34.03,.83-51.03,1.5-20.83,.82-41.65,2.1-62.49,2.89-28.13,1.06-56.24,1.31-84.38-.76-18.45-1.36-37.03-1.1-55.55-1.58-1.79-.05-3.57-.21-5.37-.3-.02,.02-.08,.07-.08,.07Z"/></g></g></svg>