<?xml version="1.0" encoding="UTF-8"?><svg id="Layer_2" xmlns="http://www.w3.org/2000/svg" width="206.03" height="208.33" xmlns:xlink="http://www.w3.org/1999/xlink" viewBox="0 0 206.03 208.33"><defs><style>.cls-1{fill:url(#linear-gradient);}.cls-2{fill:url(#linear-gradient-8);}.cls-3{fill:url(#linear-gradient-3);}.cls-4{fill:url(#linear-gradient-4);}.cls-5{fill:url(#linear-gradient-2);}.cls-6{fill:url(#linear-gradient-6);}.cls-7{fill:url(#linear-gradient-7);}.cls-8{fill:url(#linear-gradient-5);}</style><linearGradient id="linear-gradient" x1="6.38" y1="98.08" x2="193.99" y2="98.08" gradientTransform="matrix(1, 0, 0, 1, 0, 0)" gradientUnits="userSpaceOnUse"><stop offset="0" stop-color="#ed5f5f"/><stop offset=".07" stop-color="#ed605e"/><stop offset=".1" stop-color="#ed675e"/><stop offset=".11" stop-color="#ed735e"/><stop offset=".13" stop-color="#ee845e"/><stop offset=".14" stop-color="#ee9a5e"/><stop offset=".14" stop-color="#ef9f5e"/><stop offset=".21" stop-color="#eea05e"/><stop offset=".24" stop-color="#eea761"/><stop offset=".25" stop-color="#eeb367"/><stop offset=".27" stop-color="#eec46e"/><stop offset=".28" stop-color="#edda78"/><stop offset=".29" stop-color="#edea80"/><stop offset=".35" stop-color="#ebe880"/><stop offset=".38" stop-color="#e4e481"/><stop offset=".39" stop-color="#d8dc82"/><stop offset=".41" stop-color="#c7d185"/><stop offset=".42" stop-color="#b1c388"/><stop offset=".43" stop-color="#9bb58c"/><stop offset=".49" stop-color="#9bb58d"/><stop offset=".52" stop-color="#9cb894"/><stop offset=".53" stop-color="#9fbca0"/><stop offset=".55" stop-color="#a3c2b1"/><stop offset=".56" stop-color="#a8c9c7"/><stop offset=".57" stop-color="#aed3e1"/><stop offset=".57" stop-color="#b1d8ef"/><stop offset=".64" stop-color="#b0d6ee"/><stop offset=".67" stop-color="#b0cfed"/><stop offset=".69" stop-color="#b0c3ea"/><stop offset=".7" stop-color="#afb2e7"/><stop offset=".71" stop-color="#af9ce3"/><stop offset=".71" stop-color="#af98e2"/><stop offset=".78" stop-color="#b099e2"/><stop offset=".81" stop-color="#b79fe2"/><stop offset=".82" stop-color="#c3a9e2"/><stop offset=".84" stop-color="#d4b8e2"/><stop offset=".85" stop-color="#eacbe2"/><stop offset=".86" stop-color="#f9d9e2"/><stop offset=".98" stop-color="#f9d9e2"/><stop offset="1" stop-color="#f9d9e2"/></linearGradient><linearGradient id="linear-gradient-2" x1="33.47" y1="12.98" x2="51.37" y2="12.98" xlink:href="#linear-gradient"/><linearGradient id="linear-gradient-3" x1="186.2" y1="81.51" x2="205.53" y2="81.51" xlink:href="#linear-gradient"/><linearGradient id="linear-gradient-4" x1="54.22" y1="197.46" x2="71.61" y2="197.46" xlink:href="#linear-gradient"/><linearGradient id="linear-gradient-5" x1="31.97" y1="45.74" x2="36.97" y2="45.74" xlink:href="#linear-gradient"/><linearGradient id="linear-gradient-6" x1="139.88" y1="174.63" x2="144.87" y2="174.63" xlink:href="#linear-gradient"/><linearGradient id="linear-gradient-7" x1=".5" y1="131.16" x2="5.49" y2="131.16" xlink:href="#linear-gradient"/><linearGradient id="linear-gradient-8" x1="129.39" y1="29.25" x2="134.38" y2="29.25" xlink:href="#linear-gradient"/></defs><g id="Layer_1-2"><g><g><path class="cls-1" d="M117.58,195.67c-1.54,0-3.25-.19-5.08-.55-6.81-1.36-11.35-3.82-13.48-7.31-1.85-3.03-1.51-6.28-.89-8.47,.87-3.07,.42-6.22-1.22-8.64-1.69-2.5-3.77-3.77-6.17-3.77-4.86,0-9.68,5.13-12.26,7.89-.36,.38-.67,.71-.91,.96-1.33,1.33-3.98,2.68-6.47,2.68s-5.36-1.2-6.17-6.89c-.77-5.39-2.34-9.98-3.52-12.87-1.62-3.96-5.44-6.62-9.51-6.62-.65,0-1.3,.07-1.93,.2-4.38,.91-6.08,4.21-6.7,6.09-.37,1.12-.79,2.32-1.32,3.45-1.49,3.17-5.63,10.65-11.72,11.75-.54,.1-1.1,.15-1.67,.15h0c-5.59,0-11.46-4.53-14.62-11.27-2.61-7.98-2.65-13.35-.1-15.92,.85-.86,1.66-1.07,3.12-1.45,1.36-.36,3.23-.85,6.08-2.12,3.92-1.74,7.31-3.24,9.93-6.68,5.47-7.15,2.87-11.82-.27-14.48-1.4-1.18-2.96-1.87-8.53-2.78-3.08-.5-4.98-.69-6.38-.83-1.91-.19-2.7-.27-4.09-.94-1.24-.6-4.52-2.19-5.74-5.71-.98-2.82-.41-6.24,1.42-8.52,1.4-1.74,3.86-2.61,8.77-4.34,1.01-.35,1.91-.65,2.72-.91,3.13-1.01,5.02-1.62,5.97-3.61,.67-1.4,.5-2.73,.4-3.53-.68-5.31-5.85-7.54-6.07-7.64-1-.42-1.98-.62-3.01-.62s-1.84,.18-2.66,.36c-.69,.15-1.34,.29-1.97,.29-.48,0-.92-.08-1.34-.26-2.7-1.11-5.01-5.85-5.64-11.53-.8-7.26,1.32-13.4,5.66-16.42,1.5-1.05,3.28-1.73,5.27-2.03,.71-.11,1.45-.16,2.18-.16,3.55,0,7.07,1.28,9.93,3.62,3.33,2.71,8.18,5.95,12.36,5.95h0c5.32,0,8.02-5.02,8.02-14.92,0-11.23,4.2-16.93,12.47-16.93,4.16,0,8.38,1.44,11.2,2.65,1.6,.69,3.32,1.05,4.98,1.05,1.35,0,2.65-.24,3.86-.7,2.2-.84,3.69-2.26,4.44-4.21,1.61-4.16-.46-9.78-2.47-13.77-1.65-3.27-1.54-7.09,.29-9.98,2.03-3.22,5.59-4.85,10.56-4.85,1.95,0,4.15,.26,6.52,.77,6.07,1.3,9.88,3.47,11.34,6.45,1.29,2.64,.46,5.48-.47,7.4-1.99,4.13-2.64,8.44-1.87,12.47,2.29,12.04,11.43,17.38,16.47,18.64,1.35,.34,2.76,.51,4.19,.51,4.04,0,11.86-1.45,18.82-11.19,1.83-2.56,4.63-3.1,6.65-3.1,5.74,0,11.72,4.08,13.32,9.09,1.54,4.81-1.01,9.88-7.18,14.29-6.79,4.85-9.98,9.63-9.48,14.21,.73,6.78,9.22,10.49,9.58,10.64,9.08,2.6,11.23,5.33,11.44,7.18,.32,2.81-3.51,5.13-3.95,5.39-1.03,.33-15.27,5.08-12.27,15.58,1.52,5.32,6.8,8.25,14.87,8.25,2.69,0,4.73-.33,5.12-.39,.84,.07,10.7,.99,14.29,7.24,2.12,3.69,1.7,8.58-1.27,14.52-3.03,6.05-6.33,8.99-10.09,8.99-4.4,0-8.71-4.16-11.86-7.21-1.83-1.76-3.27-3.16-4.42-3.54-.39-.13-.81-.19-1.24-.19-.86,0-1.84,.25-2.9,.75-2.55,1.21-4.47,3.38-5.41,6.11-.99,2.86-.78,6.06,.58,8.77l.87,1.74c1.89,3.78,2.48,6.68,1.74,8.62-.4,1.05-1.21,1.83-2.41,2.31-.72,.29-1.48,.43-2.27,.43-2.13,0-4.16-1.04-5.43-2.79-2.14-2.94-5.89-6.44-11.65-6.44-.68,0-1.39,.05-2.09,.15-2.29,.33-4.09,1.43-5.33,3.28-3.81,5.66-1.19,16.37-1.08,16.82,.02,.1,2.46,10.14-1.89,15.71-1.93,2.47-4.93,3.72-8.94,3.72Z"/><path d="M95.29,1h0c1.92,0,4.08,.25,6.41,.75,5.91,1.27,9.61,3.34,10.99,6.18,.96,1.97,.81,4.31-.47,6.96-2.04,4.23-2.7,8.65-1.92,12.78,2.34,12.29,11.68,17.75,16.84,19.03,1.39,.35,2.84,.52,4.31,.52,9.64,0,16.18-7.14,19.22-11.4,1.71-2.39,4.34-2.89,6.24-2.89,5.54,0,11.3,3.92,12.85,8.74,1.47,4.58-1.02,9.46-7,13.73-6.95,4.96-10.21,9.9-9.69,14.67,.76,7.06,9.51,10.89,9.88,11.05l.06,.02,.06,.02c9.21,2.63,10.86,5.35,11.02,6.73,.25,2.13-2.47,4.19-3.65,4.87-5.53,1.69-15.12,7.2-12.55,16.19,1.59,5.56,7.04,8.62,15.35,8.62,2.6,0,4.62-.3,5.14-.39,1.12,.1,10.44,1.07,13.84,6.98,2.03,3.54,1.6,8.26-1.29,14.04-2.89,5.78-6.14,8.72-9.64,8.72-4.2,0-8.43-4.08-11.52-7.06-1.87-1.81-3.35-3.23-4.61-3.65-.44-.15-.91-.22-1.4-.22-.94,0-1.99,.27-3.11,.8-2.67,1.26-4.68,3.53-5.67,6.39-1.03,2.99-.81,6.33,.61,9.16l.87,1.74c1.8,3.6,2.39,6.44,1.72,8.22-.35,.93-1.05,1.59-2.13,2.02-.66,.26-1.36,.4-2.08,.4-1.94,0-3.86-.99-5.02-2.59-2.2-3.03-6.08-6.64-12.05-6.64-.71,0-1.43,.05-2.16,.16-2.44,.35-4.35,1.53-5.68,3.5-3.93,5.84-1.26,16.76-1.15,17.22,.02,.1,2.4,9.91-1.8,15.28-1.83,2.34-4.7,3.52-8.54,3.52-1.5,0-3.18-.18-4.98-.54-6.67-1.33-11.09-3.72-13.15-7.08-1.76-2.88-1.42-5.98-.83-8.07,.91-3.21,.44-6.51-1.28-9.06-1.79-2.65-4-3.99-6.58-3.99-5.08,0-9.99,5.24-12.63,8.05-.35,.38-.66,.7-.9,.94-1.26,1.26-3.76,2.53-6.12,2.53-3.11,0-5.07-2.24-5.68-6.46-.62-4.37-1.82-8.74-3.55-12.99-1.69-4.15-5.7-6.94-9.97-6.94-.68,0-1.36,.07-2.03,.21-4.63,.96-6.42,4.44-7.08,6.42-.37,1.11-.78,2.28-1.3,3.39-1.14,2.41-5.33,10.38-11.36,11.47-.51,.09-1.05,.14-1.58,.14-5.38,0-11.06-4.39-14.14-10.93-2.55-7.81-2.63-12.99-.22-15.41,.76-.76,1.47-.95,2.89-1.32,1.38-.36,3.27-.86,6.15-2.14,3.98-1.77,7.42-3.29,10.13-6.83,6.01-7.86,2.36-12.87-.34-15.16-1.47-1.25-3.09-1.96-8.77-2.89-3.09-.51-5.01-.7-6.41-.84-1.9-.19-2.61-.26-3.92-.89-1.3-.63-4.33-2.1-5.49-5.42-.92-2.66-.39-5.89,1.33-8.04,1.31-1.63,3.72-2.48,8.54-4.18,1-.35,1.9-.64,2.71-.9,3.15-1.02,5.23-1.69,6.27-3.87,.73-1.54,.54-3.01,.44-3.81-.72-5.6-6.14-7.94-6.37-8.03-1.06-.45-2.11-.66-3.2-.66s-1.95,.2-2.77,.37c-.66,.14-1.29,.28-1.87,.28-.42,0-.79-.07-1.15-.22-2.49-1.02-4.74-5.7-5.33-11.12-.78-7.08,1.26-13.04,5.44-15.96,1.44-1,3.14-1.66,5.06-1.95,.69-.1,1.4-.16,2.1-.16,3.43,0,6.84,1.24,9.61,3.5,3.39,2.77,8.34,6.06,12.68,6.06,5.65,0,8.52-5.19,8.52-15.42,0-6.08,1.26-10.54,3.76-13.24,1.95-2.12,4.72-3.19,8.21-3.19,4.07,0,8.23,1.42,11,2.61,1.66,.72,3.45,1.09,5.17,1.09,1.41,0,2.77-.25,4.04-.73,2.33-.89,3.92-2.41,4.73-4.5,1.67-4.33-.43-10.1-2.49-14.17-1.57-3.11-1.47-6.75,.26-9.49,1.94-3.07,5.35-4.62,10.14-4.62M95.29,0c-6.05,0-9.28,2.38-10.99,5.09-1.98,3.14-1.99,7.16-.31,10.48,2.42,4.79,6.03,14.32-1.71,17.29-1.19,.45-2.43,.67-3.68,.67-1.63,0-3.26-.36-4.78-1.01-2.69-1.15-7.08-2.69-11.4-2.69-6.57,0-12.97,3.56-12.97,17.43,0,11.04-3.38,14.42-7.52,14.42s-9.01-3.36-12.05-5.84c-2.91-2.37-6.54-3.73-10.25-3.73-.75,0-1.5,.06-2.25,.17-1.86,.28-3.76,.91-5.48,2.12-9.77,6.8-6.12,26.28,.08,28.83,.52,.21,1.03,.29,1.53,.29,1.44,0,2.86-.65,4.63-.65,.85,0,1.77,.15,2.81,.59,.26,.11,5.12,2.23,5.77,7.24,.1,.79,.24,2-.35,3.25-1.08,2.27-3.62,2.58-8.4,4.26-5,1.76-7.51,2.64-8.99,4.5-1.9,2.37-2.56,5.94-1.5,8.99,1.29,3.72,4.67,5.35,5.99,5.99,2.5,1.21,3.18,.6,10.6,1.82,5.42,.89,6.94,1.52,8.29,2.67,3.07,2.6,5.37,7.02,.19,13.79-2.53,3.3-5.75,4.76-9.74,6.52-5.95,2.64-7.55,1.87-9.35,3.67-1.97,1.98-3.36,6.24,0,16.49,3.34,7.14,9.52,11.56,15.07,11.56,.6,0,1.19-.05,1.76-.16,6.3-1.14,10.57-8.81,12.09-12.03,.53-1.13,.95-2.32,1.35-3.51,.57-1.72,2.17-4.89,6.33-5.76,.61-.13,1.22-.19,1.83-.19,3.91,0,7.51,2.56,9.04,6.31,1.29,3.17,2.75,7.6,3.49,12.76,.79,5.55,3.68,7.32,6.67,7.32,2.66,0,5.41-1.41,6.82-2.83,1.91-1.91,7.48-8.7,12.82-8.7,2.02,0,4.01,.97,5.75,3.55,1.63,2.41,1.94,5.43,1.15,8.23-1.31,4.63-1.31,13.2,14.75,16.41,1.93,.39,3.64,.56,5.17,.56,16.32,0,11.31-20.04,11.31-20.04,0,0-4.5-17.98,5.99-19.48,.7-.1,1.37-.15,2.02-.15,5.65,0,9.3,3.56,11.24,6.23,1.37,1.89,3.58,3,5.83,3,.83,0,1.66-.15,2.45-.47,2.81-1.12,4.68-4.12,.94-11.61l-.87-1.74c-2.6-5.2-.65-11.72,4.6-14.2,.92-.44,1.84-.71,2.68-.71,.38,0,.74,.05,1.09,.17,3.01,1,9.4,10.77,16.44,10.77,3.46,0,7.08-2.36,10.54-9.27,10.49-20.98-13.49-22.48-13.49-22.48,0,0-2.18,.4-5.1,.4-5.11,0-12.48-1.21-14.38-7.89-3-10.49,11.99-14.99,11.99-14.99,0,0,13.49-7.49-7.49-13.49,0,0-20.98-8.99,0-23.98,16.37-11.69,3.55-24.29-6.43-24.29-2.82,0-5.41,1-7.06,3.31-5.94,8.32-12.83,10.98-18.41,10.98-1.46,0-2.83-.18-4.07-.49-4.91-1.23-13.86-6.49-16.1-18.25-.79-4.13,0-8.37,1.83-12.16,2.08-4.31,3.02-11.5-11.22-14.55C99.39,.24,97.2,0,95.29,0h0Z"/></g><g><path class="cls-5" d="M45.73,21.69c-1.93,0-3.63-.42-3.65-.42-2.97-.74-8.58-3.46-8.61-8.51-.01-2.06,.89-4.11,2.55-5.77,1.67-1.67,3.9-2.72,5.84-2.72,3.54,.06,6.39,3.36,7.91,6.44,1.8,3.63,2.12,7.44,.78,9.25-1.05,1.43-3.2,1.73-4.82,1.73Z"/><path d="M41.86,3.77v1h.09c3.22,.06,5.92,3.22,7.38,6.16,1.69,3.42,2.04,7.09,.83,8.74-.93,1.26-2.92,1.53-4.42,1.53-1.87,0-3.51-.4-3.53-.4-2.84-.7-8.21-3.28-8.23-8.03-.01-1.92,.84-3.85,2.4-5.42,1.58-1.58,3.68-2.57,5.49-2.57v-1m0,0c-4.04,0-8.92,4.05-8.89,8.99,.03,5.33,5.74,8.19,8.99,8.99,.14,.03,1.83,.43,3.77,.43s4.09-.39,5.22-1.93c3.11-4.22-2.09-16.37-8.99-16.49-.03,0-.07,0-.1,0h0Z"/></g><g><path class="cls-3" d="M197.14,89.44c-4.91,0-9.96-2.41-10.8-5.16-.86-2.82,2.59-6.43,4-7.58,1.76-1.45,4.88-3.14,7.88-3.14,1.54,0,2.91,.44,4.09,1.3,1.68,1.23,2.79,3.21,3.13,5.57,.33,2.35-.19,4.77-1.37,6.3-1.34,1.74-3.8,2.7-6.92,2.7Z"/><path d="M198.22,74.07h0c1.43,0,2.7,.4,3.79,1.2,1.57,1.15,2.61,3.02,2.93,5.24,.32,2.22-.17,4.49-1.27,5.92-1.25,1.62-3.56,2.51-6.52,2.51-4.71,0-9.54-2.24-10.32-4.8-.78-2.55,2.51-5.95,3.84-7.05,1.69-1.4,4.69-3.02,7.56-3.02m0-1c-3.22,0-6.43,1.8-8.2,3.25-.22,.18-5.28,4.45-4.16,8.11,.96,3.14,6.35,5.51,11.28,5.51,2.95,0,5.74-.85,7.32-2.9,2.47-3.21,2.16-9.63-1.86-12.58-1.37-1-2.88-1.4-4.38-1.4h0Z"/></g><g><path class="cls-4" d="M63.49,207.83c-3.65,0-7.5-2.33-8.77-5.3-1.05-2.45-.41-5.71,1.73-8.97,2.48-3.75,6.3-6.47,9.1-6.47,.28,0,.55,.03,.8,.08,3.73,.81,5.01,7.68,5.03,7.75,.58,3.24,.38,9.96-4.58,12.21-1.02,.46-2.13,.7-3.31,.7Z"/><path d="M65.55,187.59h0c.25,0,.48,.02,.7,.07,2.83,.61,4.31,5.51,4.64,7.35,.56,3.11,.38,9.54-4.29,11.67-.95,.43-2,.65-3.11,.65-3.46,0-7.12-2.2-8.31-5-.98-2.29-.36-5.38,1.69-8.49,2.35-3.56,6.08-6.25,8.69-6.25m0-1c-5.58,0-14.05,9.68-11.29,16.13,1.31,3.08,5.26,5.61,9.23,5.61,1.19,0,2.39-.23,3.52-.74,5.2-2.37,5.5-9.21,4.86-12.75-.05-.3-1.39-7.28-5.41-8.15-.29-.06-.6-.09-.91-.09h0Z"/></g><g><path class="cls-8" d="M34.47,48.24c-1.38,0-2.5-1.12-2.5-2.5s1.12-2.5,2.5-2.5,2.5,1.12,2.5,2.5-1.12,2.5-2.5,2.5Z"/><path d="M34.47,43.74c1.1,0,2,.9,2,2s-.9,2-2,2-2-.9-2-2,.9-2,2-2m0-1c-1.66,0-3,1.34-3,3s1.34,3,3,3,3-1.34,3-3-1.34-3-3-3h0Z"/></g><g><path class="cls-6" d="M142.38,177.12c-1.38,0-2.5-1.12-2.5-2.5s1.12-2.5,2.5-2.5,2.5,1.12,2.5,2.5-1.12,2.5-2.5,2.5Z"/><path d="M142.38,172.63c1.1,0,2,.9,2,2s-.9,2-2,2-2-.9-2-2,.9-2,2-2m0-1c-1.66,0-3,1.34-3,3s1.34,3,3,3,3-1.34,3-3-1.34-3-3-3h0Z"/></g><g><path class="cls-7" d="M3,133.66c-1.38,0-2.5-1.12-2.5-2.5s1.12-2.5,2.5-2.5,2.5,1.12,2.5,2.5-1.12,2.5-2.5,2.5Z"/><path d="M3,129.17c1.1,0,2,.9,2,2s-.9,2-2,2-2-.9-2-2,.9-2,2-2m0-1c-1.66,0-3,1.34-3,3s1.34,3,3,3,3-1.34,3-3-1.34-3-3-3h0Z"/></g><g><path class="cls-2" d="M131.88,31.75c-1.38,0-2.5-1.12-2.5-2.5s1.12-2.5,2.5-2.5,2.5,1.12,2.5,2.5-1.12,2.5-2.5,2.5Z"/><path d="M131.89,27.25c1.1,0,2,.9,2,2s-.9,2-2,2-2-.9-2-2,.9-2,2-2m0-1c-1.66,0-3,1.34-3,3s1.34,3,3,3,3-1.34,3-3-1.34-3-3-3h0Z"/></g></g></g></svg>