<svg xmlns="http://www.w3.org/2000/svg" width="187.632" height="195.18" viewBox="0 0 187.632 195.18">
  <path id="rouge" d="M117.58,195.67a26.64,26.64,0,0,1-5.08-.55c-6.81-1.36-11.35-3.82-13.48-7.31a10.565,10.565,0,0,1-.89-8.47,10.329,10.329,0,0,0-1.22-8.64c-1.69-2.5-3.77-3.77-6.17-3.77-4.86,0-9.68,5.13-12.26,7.89-.36.38-.67.71-.91.96a10.054,10.054,0,0,1-6.47,2.68c-2.49,0-5.36-1.2-6.17-6.89a55.51,55.51,0,0,0-3.52-12.87,10.5,10.5,0,0,0-9.51-6.62,9.578,9.578,0,0,0-1.93.2,8.8,8.8,0,0,0-6.7,6.09,31.2,31.2,0,0,1-1.32,3.45c-1.49,3.17-5.63,10.65-11.72,11.75a9.18,9.18,0,0,1-1.67.15h0c-5.59,0-11.46-4.53-14.62-11.27-2.61-7.98-2.65-13.35-.1-15.92a5.8,5.8,0,0,1,3.12-1.45,36.079,36.079,0,0,0,6.08-2.12c3.92-1.74,7.31-3.24,9.93-6.68,5.47-7.15,2.87-11.82-.27-14.48-1.4-1.18-2.96-1.87-8.53-2.78-3.08-.5-4.98-.69-6.38-.83a10.107,10.107,0,0,1-4.09-.94c-1.24-.6-4.52-2.19-5.74-5.71a9.23,9.23,0,0,1,1.42-8.52c1.4-1.74,3.86-2.61,8.77-4.34,1.01-.35,1.91-.65,2.72-.91,3.13-1.01,5.02-1.62,5.97-3.61a6.042,6.042,0,0,0,.4-3.53c-.68-5.31-5.85-7.54-6.07-7.64a7.619,7.619,0,0,0-3.01-.62,11.637,11.637,0,0,0-2.66.36,9.481,9.481,0,0,1-1.97.29,3.336,3.336,0,0,1-1.34-.26c-2.7-1.11-5.01-5.85-5.64-11.53-.8-7.26,1.32-13.4,5.66-16.42a12.293,12.293,0,0,1,5.27-2.03,14.347,14.347,0,0,1,2.18-.16,15.748,15.748,0,0,1,9.93,3.62c3.33,2.71,8.18,5.95,12.36,5.95h0c5.32,0,8.02-5.02,8.02-14.92,0-11.23,4.2-16.93,12.47-16.93a29.861,29.861,0,0,1,11.2,2.65,12.685,12.685,0,0,0,4.98,1.05,10.829,10.829,0,0,0,3.86-.7,7.251,7.251,0,0,0,4.44-4.21c1.61-4.16-.46-9.78-2.47-13.77a10.173,10.173,0,0,1,.29-9.98C86.77,2.16,90.33.53,95.3.53a31.417,31.417,0,0,1,6.52.77c6.07,1.3,9.88,3.47,11.34,6.45,1.29,2.64.46,5.48-.47,7.4a20.016,20.016,0,0,0-1.87,12.47,23.465,23.465,0,0,0,16.47,18.64,17.17,17.17,0,0,0,4.19.51c4.04,0,11.86-1.45,18.82-11.19a7.868,7.868,0,0,1,6.65-3.1c5.74,0,11.72,4.08,13.32,9.09,1.54,4.81-1.01,9.88-7.18,14.29-6.79,4.85-9.98,9.63-9.48,14.21.73,6.78,9.22,10.49,9.58,10.64,9.08,2.6,11.23,5.33,11.44,7.18.32,2.81-3.51,5.13-3.95,5.39-1.03.33-15.27,5.08-12.27,15.58,1.52,5.32,6.8,8.25,14.87,8.25a33.343,33.343,0,0,0,5.12-.39c.84.07,10.7.99,14.29,7.24,2.12,3.69,1.7,8.58-1.27,14.52-3.03,6.05-6.33,8.99-10.09,8.99-4.4,0-8.71-4.16-11.86-7.21-1.83-1.76-3.27-3.16-4.42-3.54a3.923,3.923,0,0,0-1.24-.19,6.93,6.93,0,0,0-2.9.75,10.446,10.446,0,0,0-5.41,6.11,11.377,11.377,0,0,0,.58,8.77l.87,1.74c1.89,3.78,2.48,6.68,1.74,8.62a4.024,4.024,0,0,1-2.41,2.31,6.027,6.027,0,0,1-2.27.43,6.738,6.738,0,0,1-5.43-2.79c-2.14-2.94-5.89-6.44-11.65-6.44a14.905,14.905,0,0,0-2.09.15,7.422,7.422,0,0,0-5.33,3.28c-3.81,5.66-1.19,16.37-1.08,16.82.02.1,2.46,10.14-1.89,15.71-1.93,2.47-4.93,3.72-8.94,3.72Z" transform="translate(-6.384 -0.53)" fill="#ed5f5f"/>
</svg>
