<?xml version="1.0" encoding="UTF-8"?><svg id="Layer_2" xmlns="http://www.w3.org/2000/svg" width="91.93" height="138.05" viewBox="0 0 91.93 138.05"><defs><style>.cls-1{fill:#f2f2f2;}.cls-2{fill:#b1d8ef;}.cls-3{fill:#231f20;}</style></defs><g id="tigre"><g><g><circle class="cls-1" cx="55.98" cy="37.51" r="9"/><path class="cls-2" d="M90.81,108.22c0-.61,.08-1.22,.18-1.82,.12-2.75,.07-5.63-.25-8.38,.01-.09,.02-.18,.02-.27h.06c.02-.42,.04-.84,.06-1.27,.24-1.79,.29-3.62,.32-5.44,0-.12,0-.24,0-.36,.41-7.96,.71-16.11-.48-23.83-.36-2.32-.98-4.53-1.52-6.81-.5-2.09-.46-4.19-.86-6.28-.11-.58-.4-1.48-.83-2.37,.07-1.76,.04-3.53,.13-5.2,.19-3.85,.33-7.67-.12-11.5-.43-3.69-1.2-7.32-1.72-10.99-.38-2.69-.81-4.8-2.15-6.61-.02-.32-.04-.64-.05-.97-.01-.56-.03-1.09-.07-1.59,2.3-2.38,3.92-5.21,3.47-8.89-.49-3.95-3.78-6.22-7.22-4.33-2.64,1.45-4.44,5.07-4.58,8.31-.45-.28-.98-.47-1.59-.51-1.77-.59-3.8-1.1-5.97-1.45-4.26-.69-8.16-.67-10.81-.07-.63-.07-1.27-.14-1.91-.21v.03c-.96-.01-1.74,.36-2.31,.94-.47,.06-.94,.11-1.41,.18-.09,0-.19,0-.29,.01-1.97,.18-3.9,.4-5.79,1.04-.68,.23-1.17,.63-1.52,1.11-.67,.27-1.33,.57-1.96,.93-.3-.95-.81-1.76-1.4-2.59-.16-.22-.4-.41-.67-.57-1.54-2.5-4.64-4.21-7.25-3.28-3.96,1.4-3.87,6.37-2.65,9.86,.54,1.54,1.48,3.07,2.68,4.12-1.97,7-3.46,15.1-2.8,22.32,.26,2.85,.54,6.09,1.17,9.23-.28,2.39-.03,5.03-.14,7.14-.17,3.16-.94,6.85-.16,9.94-.82,1.92-1.3,4.08-1.74,5.94-1.05,4.45-1.84,9.01-2.7,13.5-1.2,6.26-2.39,13.07-.98,19.35-.59,1.62-.64,3.55-.44,5.46-.74-.39-1.5-.75-2.25-1.11-1.08-.51-2.36-1.12-3.64-1.45-1.31-1.18-1.99-2.76-3.5-4.03-3.25-2.74-5.06-7.17-5.75-11.6-.69-4.42,.52-9.05,3.17-12.49,3.05-3.95,7.97-5.65,11.9-8.33,.56-.38,.92-.86,1.12-1.38,.27-.31,.53-.63,.76-.97,.15-.17,.29-.34,.43-.51,.64-.81,.89-1.7,.86-2.54,.42-2.07-.03-4.26-1.74-6.05-3.82-3.99-9.45-2.32-13.7-.33-4.67,2.19-8.03,5.58-9.8,10.83-1.38,4.1-2.43,9.67-1.65,14.13-.55,4.01,.65,8.84,1.78,12.18,1.14,3.33,3.5,10.01,7.1,11.64,2.45,3.08,5.46,5.64,8.87,7.5,1.38,1.38,3.1,2.5,4.64,3.37,1.46,.83,2.98,1.63,4.49,1.83,.1,.21,.19,.43,.29,.64,.38,1.51,1.03,2.99,1.62,4.14,1.5,2.89,3.91,5.24,6.88,6.2,3.32,1.09,6.77,.32,7.68-3.79,.4-1.76,.27-3.86-.28-5.76,.65,.04,1.29-.14,1.86-.48,2.59,5.26,7.39,11.43,13.28,8.95,1.15-.49,2.01-1.13,2.65-1.89,.99-.57,1.75-1.5,2.2-2.65,.59-1.52,.71-3.48,.16-5.12,.59,.3,1.22,.56,1.91,.77,.89,.27,1.87,.43,2.87,.47-.22,2.67,.62,5.2,3.44,6.84,4.39,2.56,10.18,.48,13.02-3.66,2.53-3.69,4.2-8.83,5.02-13.57,0-.16,0-.32,0-.49,.04-.76,.13-1.54,.39-2.26,.09-.83,.16-1.7,.23-2.58-.03-.09-.06-.18-.06-.27ZM63.87,41.74c-.05,.08-.11,.14-.16,.22-1.6,2.74-5.95,5.1-8.88,5-2.69-.1-5.21-2.1-6.53-4.59-1.47-3.84-1.88-8.16,1.09-11.37,.14-.15,.26-.32,.37-.48,1.67-1.49,3.49-2.24,5.9-2.28,.31-.01,.61,.01,.9,.02,1.9,1.61,4.16,2.65,5.76,4.72,1.41,1.82,2.3,5.97,1.55,8.76Z"/><path class="cls-3" d="M27.02,122.13c.17,.45,.36,.88,.58,1.29-.31-.14-.61-.29-.92-.44-9.4-4.5-18.65-10.47-23.46-20.54C.71,97.2-.18,91.26,.03,85.4c.19-5.61,.89-12.13,3.83-16.91,4.32-7.06,17.43-15.23,23.43-5.91,2.6,4.04,.71,8.54-2.65,11.19-2.39,1.88-5.29,2.8-7.8,4.45-2.3,1.52-4.18,3.69-5.43,6.27-2.76,5.65-1.94,12.3,1.28,17.52,2.76,4.47,7.02,7.47,11.63,9.31,.11,.05,.23,.1,.34,.14-.09,.08-.13,.21-.07,.34,.05,.13,.11,.25,.17,.38,.05,.12,.1,.24,.16,.35l.06,.12s0,.01,.01,.02c.01,.03,.03,.06,.05,.1-.2-.07-.41-.15-.61-.23-.35-.13-.69-.27-1.04-.41,.29,.39-1.7-.69-1.7-.77-1.55-.77-3.01-1.69-4.39-2.75,.01,.07-2.1-1.34-1.7-1.44-.9-.84-1.75-1.75-2.53-2.76-3.34-4.35-5.16-10.26-4.08-15.89,.85-4.39,3.32-8.4,6.79-10.87,3.92-2.78,11.9-4.49,11.76-11.01-.06-2.71-1.95-5.04-4.12-6.18-2.5-1.29-5.41-.98-7.95-.02-4.77,1.78-9.57,5.65-11.76,10.66-1.2,2.75-1.72,5.87-2.13,8.86-.16,1.13-.27,2.27-.35,3.41,.32-.3,.01,2.75-.13,2.52-.02,1.07-.02,2.15,.03,3.22,.29,5.91,1.9,11.59,5.09,16.44,4.56,6.95,11.09,11.4,18,15.12-.4-.3,.76,.33,.97,.51-.01,0-.03,0-.04-.01,.36,.19,.73,.38,1.09,.56,.26,.14,.52,.27,.78,.4Z"/><path class="cls-3" d="M25.04,112.77c-.2-.07-.41-.15-.61-.23-.04-.41-.08-.81-.11-1.22,.11,.05,.23,.1,.34,.14-.09,.08-.13,.21-.07,.34,.05,.13,.11,.25,.17,.38,.05,.12,.1,.24,.16,.35l.06,.12s0,.01,.01,.02c.01,.03,.03,.06,.05,.1Z"/><path class="cls-3" d="M27.6,123.42c-.31-.14-.61-.29-.92-.44-.16-.41-.31-.83-.44-1.25,.26,.14,.52,.27,.78,.4,.17,.45,.36,.88,.58,1.29Z"/><path class="cls-3" d="M91.86,85.88c-.05,7.82-.03,15.7-.69,23.49-.65,7.76-2.63,15.45-7.86,21.09-.08,.08-.16,.11-.24,.12-1.88,1.54-4.4,2.34-6.83,2.24-.24,.55-.53,1.07-.88,1.56-.67,.91-2.36,2.53-3.27,1.02-.18-.29,.15-.74,.45-.53,1.11,.76,2.32-1.24,2.79-2.13-.91-.13-1.78-.39-2.59-.78-.21,.37-.44,.72-.66,1.04-.4,.59-1.6,1.89-2.05,.63-.1-.27,.2-.49,.41-.38,.47,.23,1.22-.94,1.64-1.65-1.01-.62-1.77-1.41-2.33-2.31-.03,.03-.05,.07-.08,.11-.62,.84-1.25,1.8-2.07,2.42-.27,.21-.69-.17-.5-.49,.53-.86,1.3-1.56,1.94-2.33,.11-.13,.22-.27,.33-.41-.63-1.29-.89-2.76-.85-4.27-.57-.09-1.15-.21-1.72-.35-1.17-.27-2.3-.58-3.38-.93,.01,.01,.02,.03,.02,.04,.67,1.91,.86,3.83,.29,5.55,.02,.02,.04,.05,.07,.07,.37,.34,.76,.64,1.18,.91,.37,.23,.79,.37,1.08,.73,.16,.21,.1,.59-.2,.59-.85,.03-1.83-.88-2.45-1.52-.3,.62-.73,1.21-1.28,1.75-.12,.11-.24,.22-.36,.32,.58,.7,1.24,1.67,2.11,1.87,.18,.04,.29,.27,.2,.45-.57,1.11-1.93-.27-3-1.78-.75,.52-1.54,.85-2.36,1.05,.08,.37,.17,.73,.26,1.08,.3,1.14,.76,2.27,.85,3.45,.04,.42-.53,.62-.72,.26-.58-1.11-.78-2.44-1.05-3.66-.07-.32-.14-.64-.21-.97-3.82,.47-7.95-1.99-10.33-5.2-4.22-5.67-5.63-13.77-6.01-20.85-.49-9.27,1.04-18.52,3.08-27.49,.14-.64,1.08-.42,.93,.23-3.15,13.99-5.59,30.51,.7,43.97,1.42,3.03,3.47,5.81,6.35,7.3,1.55,.8,3.36,1.21,5.08,1.03-.1-.6-.17-1.2-.17-1.79,.01-.29,.35-.35,.46-.09,.22,.55,.39,1.14,.54,1.74,.73-.17,1.43-.45,2.07-.87-.49-.78-.84-1.49-.91-1.77-.04-.2,.15-.33,.3-.21,.49,.39,.88,.96,1.26,1.5,.2-.17,.39-.35,.57-.55,.45-.48,.75-.99,.98-1.5-.48-.58-.92-1.27-1-1.99-.01-.1,.1-.13,.16-.08,.42,.34,.76,.79,1.12,1.23,.63-2.68-.9-5.66-1.85-8.27-1.17-3.2-2.15-6.5-2.83-9.87-1.41-7.01-1.61-14.61,1.27-21.23,.08-.17,.36-.07,.3,.12-2.41,7.77-2.15,15.79-.15,23.62,.85,3.33,2.09,6.44,3.23,9.63,1.26,.44,2.61,.84,4.02,1.16,.53,.12,1.05,.23,1.57,.32,.1-1.02,.33-2.05,.66-3.03,.81-2.44,2.05-4.66,2.98-7.04,1.01-2.56,1.73-5.25,2.17-8,.92-5.74,.52-11.5-.93-17.09-.14-.55,.62-.82,.78-.27,2.48,8.65,1.84,18.31-1.61,26.55-.24,.57-.5,1.16-.78,1.77,.43-.36-.7,1.67-.7,1.56-1.47,3.31-2.79,6.98-1.28,10.17,.4-.5,.79-.99,1.22-1.45,.14-.14,.37,.02,.28,.22-.3,.67-.71,1.29-1.13,1.89,.12,.2,.25,.4,.4,.6,.52,.68,1.16,1.22,1.85,1.64,.32-.6,.59-1.25,.97-1.8,.08-.12,.29-.04,.28,.11-.05,.69-.28,1.38-.6,2.04,.8,.38,1.67,.63,2.54,.72,.14-.38,.27-.76,.36-1.16,.1-.43,.08-.72,.44-.95,.06-.04,.12-.03,.17,.01,.49,.5,.13,1.43-.06,2.03-.01,.04-.02,.08-.04,.12h.02c2.19,0,4.04-.94,6.01-1.71-.03-.13-.01-.27,.11-.39,4.94-5.01,6.8-12.36,7.51-19.44,.4-3.99,.76-21.72,.77-23.53,0-.04-.07-13.58,0-13.41-.12-3.35-2.79-15.8-2.18-15.21-.47-1.85-.92-3.71-1.17-5.62-.48-3.82-.05-7.67,0-11.51,.02-1.18-.02-2.37-.08-3.56-.19,.35-.59-3.22-.21-2.72-.19-1.95-.46-3.88-.81-5.8-.12,.68-.85-3.68-.68-3.35-.47-2.01-3.33-10.17-3.16-10.41,.09-.14,.98-.88,1.26-1.27-.2,.1,.47-1.09,.47-.79,0,.05-.01,.09-.02,.14,.87-1.22,1.69-2.45,2.16-3.97,.73-2.34,.51-4.96-1.02-6.87-.36-.44-.75-.79-1.16-1.04,.2,.21-2.38-.47-1.9-.57-1.26-.04-2.57,.5-3.64,1.46-1.98,1.76-2.87,4.49-3.7,7.02-.07,.22-.26,.42-.51,.34-.2-.06-.4-.11-.6-.17-.09-.13-.21-.26-.41-.34-1.74-.74-3.63-1.26-5.52-1.49-1.17-.14-2.34-.06-3.51-.12-1.14-.05-2.26-.21-3.41-.21-2.34,0-4.68,.04-7.01,.37-1.7,.24-3.44,1.09-5.17,1.05-.18-.05-.36-.07-.56-.04-1.15,.19-2.24,.58-3.34,.95-.6,.21-1.15,.5-1.7,.8-.53,.29-.88,.49-1.44,.62-.18,.04-.31,.15-.43,.27-.22,.02-.36,.03-.37,.03-.49,.21-.77-.52-.44-.85-.82-1.93-1.89-3.59-3.72-4.59-1.83-.99-4.19-1.16-5.95,.13-2.04,1.5-2.05,4.75-1.55,7.1,.52,2.43,1.71,4.63,3.77,5.83,.33,.19,.12,.68-.22,.64-.08-.01-.16-.04-.24-.05-1.09,2.81-1.76,5.69-2.17,8.62,.22-.41-.53,10.15-.45,12.15,.25-.25,.54,8.89,.64,10.27,.14,2.11,.26,4.21,.3,6.31,.18-.32,.04,4.77-.02,4.66-.05,1.63-.16,3.26-.34,4.9-.06,.52-.13,1.04-.2,1.57,.27-.53-1.36,7.82-1.76,9.7,.55-.65-.6,3.33-.67,3.13-.08,.36-.16,.72-.24,1.08-.53,2.47-1.01,4.94-1.41,7.42,.31-.29-.5,4.47-.61,4.11-.23,1.76-.41,3.53-.55,5.3,.05,.15,.04,.32-.03,.46-.34,4.83-.3,9.69,.3,14.58,.01,.07,.02,.14,.03,.2,.06-.17,.55,2.94,.43,2.76,.77,4.05,2.14,7.97,4.55,11.23,2.22,2.99,7.43,7.63,11.18,4.97-.19-.46-.33-.93-.37-1.41-.03-.24,.31-.37,.42-.15,.18,.35,.33,.71,.5,1.06,.41-.45,.7-1,.9-1.6-.27-.26-.53-.53-.75-.83-.12-.17,.08-.35,.23-.28,.24,.11,.48,.24,.71,.39,.15-.78,.19-1.62,.13-2.45-.2-.18-.39-.38-.55-.6-.08-.12,.04-.31,.17-.27,.11,.04,.2,.09,.3,.14-.12-.89-.32-1.73-.58-2.42-.84-2.31-2.44-4.05-4.12-5.67-2.58-2.48-5.66-4.92-6.23-8.84-.07-.48,.65-.61,.77-.15,1.13,4.29,4.68,6.58,7.45,9.55,2.02,2.18,3.56,5.07,3.77,8.13,.26,.17,.52,.33,.78,.48,.69,.4,1.58,.68,2.16,1.25,.25,.23,.01,.58-.26,.55-.82-.07-1.67-.73-2.36-1.19-.09-.06-.19-.13-.29-.19-.01,.76-.11,1.52-.31,2.29,.28,.22,.56,.45,.83,.66,.74,.58,1.67,1.12,2.23,1.9,.23,.32-.16,.65-.45,.53-.84-.37-1.58-1.21-2.29-1.82-.19-.16-.38-.31-.57-.47-.28,.74-.68,1.33-1.16,1.79,.36,.51,.77,.97,1.18,1.42,.24,.27-.04,.8-.37,.57-.53-.37-1.02-.89-1.41-1.5-1.72,1.15-4.13,1.01-6.15,.12-3.89-1.72-6.89-5.43-8.72-9.43-.25-.55-.49-1.11-.7-1.68,.31,.15,.61,.3,.92,.44-.22-.41-.41-.84-.58-1.29-.26-.13-.52-.26-.78-.4-.98-2.95-1.51-6.06-1.81-9.19,.2,.08,.41,.16,.61,.23-.02-.04-.04-.07-.05-.1-.01-.01-.01-.02-.01-.02l-.06-.12c-.06-.11-.11-.23-.16-.35-.06-.13-.12-.25-.17-.38-.06-.13-.02-.26,.07-.34-.11-.04-.23-.09-.34-.14-.06-.71-.1-1.42-.14-2.13-.15-2.92-.15-5.86-.01-8.79-.02,.02-.04,.04-.06,.05,.01-.04,.02-.08,.03-.13,0-.04,0-.07-.02-.1,.01-.18,.03-.35,.04-.52,.02-.24,.05-.47,.09-.7,.01-.03,0-.06,0-.1h.01c.15-2.26,.38-4.5,.71-6.74,.29-2.06,.67-4.1,1.08-6.14,.07-.03,.12-.1,.14-.2,.11-.48,.2-.96,.24-1.46,0-.04-.01-.07-.01-.11,.65-3.12,1.37-6.24,2-9.37,1.22-6.04,1.94-12.07,1.77-18.27-.32-12.31-3.01-25.5,2.17-37.07-2.15-.88-3.38-4.37-3.75-6.51-.42-2.44-.29-5.65,1.68-7.29,3.65-3.05,9.97-.09,10.76,4.71,.24-.1,.48-.19,.72-.28,.45-.77,1.36-1.18,2.18-.91,.06,.02,.13,.03,.19,.04,8.64-2.91,17.86-3.4,26.73-1.46,.05-.01,.09-.02,.14-.02,.36-.05,.68,.06,.93,.26,.85,.21,1.69,.43,2.52,.68,.92-2.76,1.97-5.66,4.24-7.42,2.01-1.56,4.72-1.93,6.73-.17,4.28,3.75,2.1,10.89-1.68,14.09,1.45,3.67,2.3,7.82,3.09,11.72,.78,3.8,1.36,7.66,1.51,11.55,.15,3.96-.31,7.91-.1,11.86,.21,4.05,1.53,7.8,2.35,11.71,1.63,7.79,1.33,15.86,1.26,23.78Z"/><path class="cls-3" d="M69.63,23.63c.44-.28,.96-.14,1.26,.26h.02s.06-.01,.09-.02c.12-.02,.24,.07,.31,.17,0,0,0,.02,.01,.02,.01,0,.02,.02,.04,.03,.57,.24,.82,.96,.62,1.59-.15,.46-.5,.74-.9,.82-.01,.01-.03,.02-.04,.04-.02,.03-.03,.06-.06,.09-.51,.69-1.19,.22-1.46-.44-.02-.06-.04-.12-.06-.18-.56-.69-.66-1.85,.16-2.39Z"/><path class="cls-3" d="M42.73,24.28c.24-.33,.6-.43,.92-.3,.1-.03,.21-.04,.32-.04,.18,0,.36,.06,.52,.14,.58,.1,1.09,.53,1.11,1.29,.02,.66-.36,1.27-.87,1.52-.04,.06-.08,.11-.13,.15-.76,.71-2.16,.11-2.13-1.02,0-.08,.03-.14,.04-.21-.16-.5-.07-1.14,.22-1.53Z"/><path class="cls-3" d="M52.22,40.16c.01-.11,.14-.22,.24-.22h.09c.6-.33,1.16-1.85,1.37-2.43,.27-.75,.4-1.51,.5-2.29-.09-.05-.17-.11-.24-.18-.42-.13-.78-.41-1.03-.87-.49-.92,.45-1.27,1.13-1.36,.64-.08,1.26,.02,1.83,.27,.53,.03,1.05,.26,1.47,.66,.13,.13,.12,.33,.02,.46,.01,.73-1.06,1.24-1.61,1.32-.18,.02-.42,.03-.66,0,.05,.51,.11,1.02,.25,1.53,.25,.94,.83,1.75,1.03,2.68,.05,.24-.18,.41-.36,.26-.84-.7-1.31-2.13-1.46-3.54-.09,.59-.26,1.18-.47,1.73-.27,.68-.97,2.47-1.79,2.5-.21,0-.33-.19-.31-.4v-.1Z"/><path class="cls-3" d="M52.28,46.62c3.43,1.4,8.21,.35,10.49-2.84,4.57-6.39-.51-14.61-6.98-15.6-.04-.03-.08-.04-.14-.05-.29-.04-.57-.05-.86-.05-.7-.02-1.42,.04-2.14,.2-.1,.02-.1,.12-.06,.19-3.08,1.08-5.46,4.28-5.77,7.82-.34,3.85,1.97,8.9,5.45,10.31Zm-2.73-14.98c1.6-1.87,3.64-2.52,5.9-2.72,3.56,.75,6.73,2.72,7.91,6.88,1.38,4.82-1.49,9.66-6.09,10.31-2.3,.33-4.73,.22-6.51-1.58-1.56-1.58-2.85-4.07-3.1-6.37-.26-2.32,.41-4.8,1.89-6.53Z"/></g><path class="cls-3" d="M15.95,78.79c.25-.23,.49-.46,.73-.7,.46-.46,.91-.92,1.41-1.33,.36-.3,.74-.57,1.13-.79-5.9-.06-11.67-1.52-16.87-4.28-.06,.31-.13,.62-.21,.92-.19,.67-.44,1.33-.73,1.96,4.52,2.33,9.47,3.78,14.53,4.24h.02Z"/><path class="cls-3" d="M10.43,86.65h0c.02-.07,.04-.13,.06-.19,.08-.27,.12-.54,.17-.81,.1-.55,.2-1.14,.5-1.62,.06-.09,.13-.18,.19-.27-3.62,.47-7.36-.25-10.89-1.41,.02,.35,.05,.7,.05,1.05,0,.69-.04,1.37-.16,2.03,3.28,.99,6.65,1.56,10,1.35,.02-.05,.05-.09,.08-.14Z"/><path class="cls-3" d="M9.42,94.9c-2.67,.8-5.65,.61-8.5,.17,.09,.35,.2,.69,.31,1.03,.22,.68,.4,1.36,.52,2.07,2.89,.33,5.8,.34,8.5-.45-.39-.9-.69-1.85-.83-2.82Z"/><path class="cls-3" d="M12.02,101.8c-1.94,1.86-4.16,3.45-6.63,4.17,.05,.08,.1,.17,.15,.25,.04,.06,.08,.11,.12,.16l.04,.05c.36,.43,.79,.79,1.23,1.15,.27,.22,.54,.44,.81,.67,2.2-.92,4.22-2.34,6.03-4.01-.74-.69-1.37-1.51-1.74-2.44Z"/><path class="cls-3" d="M17.32,107.62c-.77,2.06-1.99,4.02-3.44,5.69-.29,.33-.6,.65-.9,.97,.48,.2,.93,.49,1.35,.82,.38,.3,.72,.64,1.07,.98,.12-.13,.24-.24,.36-.37,1.64-1.84,2.99-3.89,3.98-6.13-.97-.39-1.74-1.14-2.41-1.97Z"/><path class="cls-3" d="M42.49,38.44h0c-.83-1.18-6.17-1.22-8.41-1.34-1.66-.09-3.26-.22-4.86-.35-.09,1.67-.09,3.35,.08,5.01,.54-.11,1.08-.23,1.63-.34,3.93-.79,8.14-1.23,11.77-2.38,.64-.2,.34-.55-.2-.6Z"/><path class="cls-3" d="M41.04,36.62h0c-.68-1.48-7.86-3.95-10.85-5.1-.19-.07-.37-.15-.56-.22-.1,1.27-.22,2.55-.31,3.82,4.01,.85,8.02,1.73,11.77,2.15,.94,.1,.67-.36-.05-.65Z"/><path class="cls-3" d="M87.99,34.86c-1.39,.09-2.79,.18-4.23,.24-2.69,.13-9.07,.16-10.07,1.34h0c-.66,.05-1.01,.4-.24,.6,4.34,1.14,9.38,1.59,14.08,2.38,.31,.05,.61,.11,.91,.16-.07-1.58-.21-3.16-.45-4.72Z"/><path class="cls-3" d="M87.21,29.9c-4,1.25-11.06,3.39-11.8,4.72h0c-.86,.3-1.18,.76-.06,.66,3.96-.37,8.16-1.09,12.39-1.85-.22-1.17-.45-2.35-.53-3.53Z"/><path class="cls-3" d="M91.12,105.73c.06-.23,.19-.4,.36-.53,.03-.36,.07-.73,.14-1.09-3.89,1.01-8.43,2.29-9.08,3.25h0c-.88,.25-1.23,.67-.1,.61,2.71-.14,5.56-.45,8.44-.8,.05-.49,.12-.98,.24-1.45Z"/><path class="cls-3" d="M90.26,113.33c.03-.61,.11-1.23,.26-1.82-3.77,.14-7.81,.41-8.58,1.14h0c-.91,.05-1.34,.38-.23,.57,2.72,.46,5.6,.8,8.54,1.1,0-.33,0-.66,.02-.99Z"/><path class="cls-3" d="M52.79,105.38h0c-.77-1.15-7.15-2.77-11.29-3.82v.02c.04,1.08,.09,2.17-.03,3.24,3.91,.51,7.78,.98,11.42,1.17,1.12,.06,.77-.36-.1-.61Z"/><path class="cls-3" d="M53.39,110.66h0c-1-.95-7.49-1.13-11.76-1.24,0,.03,.01,.06,.02,.09,.26,1.04,.58,2.06,.96,3.06,3.79-.35,7.54-.74,11.01-1.34,1.11-.19,.68-.52-.23-.57Z"/><path class="cls-3" d="M36.79,94.08h0c-.88-.82-6.14-1.87-11.59-2.8-.04,.92-.11,1.84-.19,2.76,4.08,.3,8.1,.55,11.95,.67,1.87,.06,1.29-.37-.17-.63Z"/><path class="cls-3" d="M37.79,99.58h0c-1.21-.72-7.25-1.01-13.19-1.16,.07,.65,.16,1.31,.21,1.96,.02,.28,.04,.58,.05,.88,4.59-.29,9.08-.63,13.33-1.09,1.85-.2,1.13-.54-.39-.59Z"/><path class="cls-3" d="M55.66,7.02c-.25,.02-.5,.04-.74,.06,0,.22,.02,.43,.02,.65,.14,4.41,.19,14.93,1.39,16.32h0c.05,1.07,.41,1.58,.61,.28,.86-5.51,1.32-11.58,1.83-17.6-1.04,.11-2.07,.22-3.11,.29Z"/><path class="cls-3" d="M50.12,7.56c-.57,.26-1.13,.48-1.71,.62,.68,3.81,1.56,8.01,2.47,8.69h0c.18,.89,.59,1.27,.64,.15,.13-3.05,.06-6.27-.05-9.54-.45,.05-.9,.09-1.35,.08Z"/><path class="cls-3" d="M64.35,6.84c-.49-.05-.99-.12-1.48-.19-.13,3.55-.22,7.06-.08,10.36,.05,1.13,.46,.75,.64-.15h0c1.01-.75,1.98-5.82,2.68-9.89-.59-.02-1.18-.07-1.76-.13Z"/><path class="cls-3" d="M46.31,124.11c-.28-.23-.4-.59-.36-.94-1.08,.35-2.14,.63-3.19,.87,.26,.24,.36,.62,.3,.97,1.06-.25,2.15-.54,3.24-.9Z"/></g></g></svg>