<?xml version="1.0" encoding="UTF-8"?><svg id="Layer_2" xmlns="http://www.w3.org/2000/svg" width="342.24" height="514" viewBox="0 0 342.24 514"><defs><style>.cls-1{fill:#f2f2f2;}.cls-2{fill:#b1d8ef;}.cls-3{fill:#231f20;}</style></defs><g id="tigre"><g><g><circle class="cls-1" cx="208.55" cy="139.38" r="33.5"/><path class="cls-2" d="M338.08,402.54c0-2.23,.37-4.47,.74-6.7,.37-10.42,.37-20.84-.74-31.27v-1.12h.37c0-1.49,0-2.98,.37-4.84,.74-6.7,1.12-13.4,1.12-20.1v-1.49c1.49-29.78,2.61-59.93-1.86-88.59-1.49-8.56-3.72-16.75-5.58-25.31-1.86-7.82-1.86-15.63-3.35-23.45-.37-2.23-1.49-5.58-2.98-8.93,.37-6.7,0-13.03,.37-19.36,.74-14.14,1.12-28.66-.37-42.81-1.49-13.77-4.47-27.17-6.33-40.94-1.49-10.05-2.98-17.87-8.19-24.57,0-1.12,0-2.23-.37-3.72,0-2.23,0-4.09-.37-5.96,8.56-8.93,14.52-19.36,13.03-33.13-1.86-14.89-14.14-23.08-26.8-16.01-9.68,5.58-16.38,18.98-17.12,30.89-1.49-1.12-3.72-1.86-5.96-1.86-6.7-2.23-14.14-4.09-22.33-5.21-15.63-2.23-30.15-2.23-40.2,0-2.23-.37-4.84-.37-7.07-.74h0c-3.72,0-6.33,1.49-8.56,3.35-1.86,.37-3.35,.37-5.21,.74h-1.12c-7.44,.74-14.52,1.49-21.59,3.72-2.61,.74-4.47,2.23-5.58,4.09-2.61,1.12-4.84,2.23-7.44,3.35-1.12-3.35-2.98-6.7-5.21-9.68-.74-.74-1.49-1.49-2.61-2.23-5.58-8.56-17.12-14.89-26.8-11.54-14.89,5.21-14.52,23.82-9.68,36.85,1.86,5.58,5.58,11.54,10.05,15.26-7.44,26.06-13.03,56.21-10.42,83.01,1.12,10.42,1.86,22.71,4.47,34.24-1.12,8.93,0,18.61-.37,26.43-.74,11.91-3.35,25.31-.74,36.85-2.98,7.07-4.84,15.26-6.33,21.96-3.72,16.38-6.7,33.5-10.05,50.25-4.47,23.45-8.93,48.76-3.72,71.84-2.23,5.96-2.23,13.4-1.49,20.47-2.61-1.49-5.58-2.98-8.19-4.09-4.09-1.86-8.93-4.09-13.4-5.21-4.84-4.47-7.44-10.42-13.03-14.89-11.91-10.05-18.98-26.8-21.59-43.18s1.86-33.87,11.91-46.53c11.54-14.52,29.78-21.22,44.29-30.89,2.23-1.49,3.35-3.35,4.09-5.21,1.12-1.12,1.86-2.23,2.98-3.72,.37-.74,1.12-1.12,1.49-1.86,2.23-2.98,3.35-6.33,3.35-9.31,1.49-7.82,0-16.01-6.33-22.33-14.14-14.89-35.36-8.56-50.99-1.12-17.49,8.19-29.78,20.84-36.48,40.2-6.33,15.26-10.05,36.11-7.07,52.48-2.23,14.89,2.23,32.76,6.7,45.41,4.09,12.28,13.03,37.22,26.43,43.18,8.93,11.54,20.47,20.84,33.13,27.92,5.21,5.21,11.54,9.31,17.12,12.66,5.58,2.98,11.17,5.96,16.75,6.7l1.12,2.23c1.49,5.58,3.72,11.17,5.96,15.26,5.58,10.79,14.52,19.36,25.68,23.08,12.28,4.09,25.31,1.12,28.66-14.14,1.49-6.7,1.12-14.52-1.12-21.59,2.61,0,4.84-.37,7.07-1.86,9.68,19.73,27.54,42.43,49.51,33.13,4.47-1.86,7.44-4.09,10.05-7.07,3.72-2.23,6.7-5.58,8.19-9.68,2.23-5.58,2.61-13.03,.74-18.98,2.23,1.12,4.47,2.23,7.07,2.98,3.35,1.12,7.07,1.49,10.79,1.86-.74,10.05,2.23,19.36,12.66,25.31,16.38,9.68,37.97,1.86,48.39-13.77,9.31-13.77,15.63-32.76,18.61-50.62v-1.86c0-2.98,.37-5.58,1.49-8.56,.37-2.98,.74-6.33,.74-9.68-.74,.74-.74,.37-.74,0h0Zm-100.13-247.53c0,.37-.37,.37-.74,.74-5.96,10.05-22.33,18.98-33.13,18.61-10.05-.37-19.36-7.82-24.19-17.12-5.58-14.14-7.07-30.52,4.09-42.43,.37-.37,1.12-1.12,1.49-1.86,6.33-5.58,13.03-8.19,21.96-8.56h3.35c7.07,5.96,15.63,9.68,21.59,17.49,4.84,7.44,8.19,23.08,5.58,33.13Z"/><path class="cls-3" d="M100.6,454.28c.74,1.49,1.49,3.35,2.23,4.84-1.12-.37-2.23-1.12-3.35-1.49-34.99-16.75-69.23-39.08-87.47-76.31C2.71,361.97-.64,339.63,.1,318.04c.74-20.84,3.35-45.04,14.14-62.91,16.01-26.43,64.77-56.58,87.1-21.96,9.68,14.89,2.61,31.64-9.68,41.69-8.93,7.07-19.73,10.42-29.03,16.38-8.56,5.58-15.63,13.77-20.1,23.45-10.42,21.22-7.07,45.78,4.84,65.14,10.42,16.75,26.06,27.92,43.18,34.62,.37,.37,.74,.37,1.12,.37-.37,.37-.37,.74-.37,1.12s.37,.74,.74,1.49c0,.37,.37,.74,.74,1.12l.37,.37h0v.37c-.74-.37-1.49-.74-2.23-.74-1.49-.37-2.61-1.12-3.72-1.49,1.12,1.49-6.33-2.61-6.33-2.98-5.58-2.98-11.17-6.33-16.38-10.42,0,.37-7.82-4.84-6.33-5.21-3.35-2.98-6.7-6.7-9.31-10.42-12.66-15.63-19.36-37.97-15.26-58.81,3.35-16.38,12.28-31.27,25.31-40.57,14.52-10.42,44.29-16.75,43.92-40.94-.37-10.05-7.44-18.61-15.26-23.08-9.31-4.84-20.1-3.72-29.41,0-17.87,6.7-35.73,20.84-43.92,39.83-4.84,10.05-6.7,21.96-8.19,33.13-.74,4.09-1.12,8.56-1.49,12.66,1.12-1.12,0,10.42-.37,9.31v11.91c1.12,21.96,7.07,43.18,18.98,61.04,17.12,25.68,41.32,42.43,67,56.21-1.49-1.12,2.98,1.12,3.72,1.86h0c1.49,.74,2.61,1.49,4.09,2.23,.74,.74,1.86,1.12,2.61,1.49h0Z"/><path class="cls-3" d="M93.16,419.66c-.74-.37-1.49-.74-2.23-.74,0-1.49-.37-2.98-.37-4.47,.37,.37,.74,.37,1.12,.37-.37,.37-.37,.74-.37,1.12s.37,.74,.74,1.49c0,.37,.37,.74,.74,1.12l.37,.37h0v.74h0Z"/><path class="cls-3" d="M102.83,459.12c-1.12-.37-2.23-1.12-3.35-1.49-.74-1.49-1.12-2.98-1.49-4.47,1.12,.37,1.86,1.12,2.98,1.49,.37,1.49,1.12,2.98,1.86,4.47Z"/><path class="cls-3" d="M342.17,319.53c-.37,29.03,0,58.44-2.61,87.47s-9.68,57.32-29.41,78.54c-.37,.37-.74,.37-.74,.37-7.07,5.58-16.38,8.56-25.31,8.19-.74,2.23-1.86,4.09-3.35,5.96-2.61,3.35-8.93,9.31-12.28,3.72-.74-1.12,.74-2.61,1.49-1.86,4.09,2.98,8.56-4.47,10.42-7.82-3.35-.37-6.7-1.49-9.68-2.98-.74,1.49-1.49,2.61-2.61,3.72-1.49,2.23-5.96,7.07-7.82,2.23-.37-1.12,.74-1.86,1.49-1.49,1.86,.74,4.47-3.35,5.96-5.96-3.72-2.23-6.7-5.21-8.56-8.56l-.37,.37c-2.23,2.98-4.47,6.7-7.82,8.93-1.12,.74-2.61-.74-1.86-1.86,1.86-3.35,4.84-5.96,7.07-8.56,.37-.37,.74-1.12,1.12-1.49-2.23-4.84-3.35-10.42-2.98-16.01-2.23-.37-4.47-.74-6.33-1.12-4.47-1.12-8.56-2.23-12.66-3.35h0c2.61,7.07,3.35,14.14,1.12,20.84,0,0,0,.37,.37,.37,1.49,1.12,2.98,2.23,4.47,3.35,1.49,.74,2.98,1.49,4.09,2.61,.74,.74,.37,2.23-.74,2.23-2.98,0-6.7-3.35-9.31-5.58-1.12,2.23-2.61,4.47-4.84,6.7-.37,.37-.74,.74-1.49,1.12,2.23,2.61,4.47,6.33,7.82,7.07,.74,0,1.12,1.12,.74,1.49-2.23,4.09-7.07-1.12-11.17-6.7-2.98,1.86-5.58,3.35-8.93,4.09,.37,1.49,.74,2.61,1.12,4.09,1.12,4.09,2.98,8.56,2.98,12.66,0,1.49-1.86,2.23-2.61,1.12-2.23-4.09-2.98-8.93-3.72-13.77-.37-1.12-.37-2.23-.74-3.72-14.14,1.86-29.78-7.44-38.34-19.36-15.63-21.22-20.84-51.37-22.33-77.42-1.86-34.62,3.72-68.86,11.54-102.36,.37-2.23,4.09-1.49,3.35,.74-11.91,52.11-20.84,113.53,2.61,163.78,5.21,11.17,13.03,21.59,23.45,27.17,5.58,2.98,12.66,4.47,18.98,3.72-.37-2.23-.74-4.47-.74-6.7,0-1.12,1.12-1.49,1.86-.37,.74,2.23,1.49,4.09,1.86,6.33,2.61-.74,5.21-1.49,7.82-3.35-1.86-2.98-2.98-5.58-3.35-6.7,0-.74,.74-1.12,1.12-.74,1.86,1.49,3.35,3.72,4.84,5.58,.74-.74,1.49-1.49,2.23-2.23,1.86-1.86,2.98-3.72,3.72-5.58-1.86-2.23-3.35-4.84-3.72-7.44,0-.37,.37-.37,.74-.37,1.49,1.12,2.98,2.98,4.09,4.47,2.23-10.05-3.35-21.22-6.7-30.89-4.47-11.91-8.19-24.19-10.42-36.85-5.21-26.06-5.96-54.34,4.84-78.91,.37-.74,1.49-.37,1.12,.37-8.93,29.03-8.19,58.81-.74,87.84,2.98,12.28,7.82,23.82,11.91,35.73,4.84,1.49,9.68,2.98,14.89,4.47,1.86,.37,4.09,.74,5.96,1.12,.37-3.72,1.12-7.82,2.61-11.17,2.98-8.93,7.82-17.49,11.17-26.06,3.72-9.68,6.33-19.36,8.19-29.78,3.35-21.22,1.86-42.81-3.35-63.65-.37-2.23,2.23-2.98,2.98-1.12,9.31,32.38,6.7,68.12-5.96,98.64-.74,2.23-1.86,4.47-2.98,6.7,1.49-1.49-2.61,6.33-2.61,5.96-5.58,12.28-10.42,26.06-4.84,37.97,1.49-1.86,2.98-3.72,4.47-5.21,.37-.37,1.49,0,1.12,.74-1.12,2.61-2.61,4.84-4.09,7.07,.37,.74,.74,1.49,1.49,2.23,1.86,2.61,4.47,4.47,6.7,5.96,1.12-2.23,2.23-4.47,3.72-6.7,.37-.37,1.12,0,1.12,.37-.37,2.61-1.12,5.21-2.23,7.44,2.98,1.49,6.33,2.23,9.31,2.61,.37-1.49,1.12-2.98,1.49-4.47s.37-2.61,1.49-3.35h.74c1.86,1.86,.37,5.21-.37,7.44v.37h0c8.19,0,14.89-3.35,22.33-6.33,0-.37,0-1.12,.37-1.49,18.24-18.61,25.31-46.16,27.92-72.21,1.49-14.89,2.98-80.77,2.98-87.47,0,0-.37-50.62,0-49.88-.37-12.28-10.42-58.81-8.19-56.58-1.86-6.7-3.35-13.77-4.47-20.84-1.86-14.14-.37-28.66,0-42.81,0-4.47,0-8.93-.37-13.4-.74,1.12-2.23-11.91-.74-10.05-.74-7.44-1.86-14.52-2.98-21.59-.37,2.61-2.98-13.77-2.61-12.66-1.86-7.44-12.28-37.97-11.91-38.71,.37-.37,3.72-3.35,4.84-4.84-.74,.37,1.86-4.09,1.86-2.98v.37c3.35-4.47,6.33-8.93,8.19-14.89,2.61-8.56,1.86-18.61-3.72-25.68-1.49-1.49-2.98-2.98-4.47-3.72,.74,1.86-8.93-.74-7.07-1.12-4.84,0-9.68,1.86-13.4,5.58-7.44,6.7-10.79,16.75-13.77,26.06-.37,.74-1.12,1.49-1.86,1.12-.74-.37-1.49-.37-2.23-.74-.37-.37-.74-1.12-1.49-1.12-6.7-2.61-13.77-4.47-20.84-5.58-4.47-.37-8.56-.37-13.03-.37-4.09-.37-8.56-.74-12.66-.74-8.56,0-17.49,0-26.06,1.49-6.33,.74-13.03,4.09-19.36,3.72-.74-.37-1.49-.37-2.23,0-4.47,.74-8.19,2.23-12.28,3.35-2.23,.74-4.47,1.86-6.33,2.98s-3.35,1.86-5.21,2.23c-.74,0-1.12,.37-1.49,1.12h-1.49c-1.86,.74-2.98-1.86-1.49-3.35-3.35-6.7-7.44-13.03-14.14-16.75-6.7-3.72-15.63-4.47-22.33,.37-7.44,5.58-7.44,17.87-5.58,26.43,1.86,8.93,6.33,17.12,14.14,21.59,1.12,.74,.37,2.61-.74,2.23h-.74c-4.09,10.42-6.7,21.22-8.19,32.01,.74-1.49-1.86,37.97-1.86,45.41,.74-.74,1.86,33.13,2.23,38.34,.37,7.82,1.12,15.63,1.12,23.45,.74-1.12,0,17.87,0,17.49,0,5.96-.74,12.28-1.12,18.24-.37,1.86-.37,3.72-.74,5.96,1.12-1.86-5.21,29.03-6.7,36.11,1.86-2.61-2.23,12.28-2.61,11.54-.37,1.49-.74,2.61-.74,4.09-1.86,9.31-3.72,18.24-5.21,27.54,1.12-1.12-1.86,16.75-2.23,15.26-.74,6.7-1.49,13.03-1.86,19.73v1.86c-1.12,17.87-1.12,36.11,1.12,54.34v.74c.37-.74,1.86,10.79,1.49,10.42,2.98,15.26,7.82,29.78,16.75,41.69,8.19,11.17,27.54,28.29,41.69,18.61-.74-1.86-1.12-3.35-1.49-5.21,0-.74,1.12-1.49,1.49-.37,.74,1.49,1.12,2.61,1.86,4.09,1.49-1.49,2.61-3.72,3.35-5.96-1.12-1.12-1.86-1.86-2.98-2.98-.37-.74,.37-1.49,.74-1.12,.74,.37,1.86,.74,2.61,1.49,.74-2.98,.74-5.96,.37-8.93-.74-.74-1.49-1.49-1.86-2.23-.37-.37,0-1.12,.74-1.12,.37,0,.74,.37,1.12,.37-.37-3.35-1.12-6.33-2.23-8.93-2.98-8.56-8.93-15.26-15.26-21.22-9.68-9.31-21.22-18.24-23.08-32.76-.37-1.86,2.61-2.23,2.98-.74,4.09,16.01,17.49,24.57,27.92,35.73,7.44,8.19,13.4,18.98,14.14,30.15,1.12,.74,1.86,1.12,2.98,1.86,2.61,1.49,5.96,2.61,8.19,4.47,.74,.74,0,2.23-1.12,2.23-2.98-.37-6.33-2.61-8.93-4.47-.37-.37-.74-.37-1.12-.74,0,2.98-.37,5.58-1.12,8.56,1.12,.74,2.23,1.49,2.98,2.61,2.61,2.23,6.33,4.09,8.19,7.07,.74,1.12-.74,2.23-1.86,1.86-2.98-1.49-5.96-4.47-8.56-6.7-.74-.74-1.49-1.12-2.23-1.86-1.12,2.61-2.61,4.84-4.47,6.7,1.49,1.86,2.98,3.72,4.47,5.21,.74,1.12,0,2.98-1.49,2.23-1.86-1.49-3.72-3.35-5.21-5.58-6.33,4.09-15.26,3.72-23.08,.37-14.52-6.33-25.68-20.1-32.38-34.99-.74-2.23-1.86-4.09-2.61-6.33,1.12,.74,2.23,1.12,3.35,1.49-.74-1.49-1.49-2.98-2.23-4.84-1.12-.37-1.86-1.12-2.98-1.49-3.72-10.79-5.58-22.71-6.7-34.24,.74,.37,1.49,.74,2.23,.74v-.37h0l-.37-.37c-.37-.37-.37-.74-.74-1.12-.37-.37-.37-.74-.74-1.49-.37-.37,0-1.12,.37-1.12-.37,0-.74-.37-1.12-.37-.37-2.61-.37-5.21-.37-7.82-.37-10.79-.37-21.96,0-32.76l-.37,.37v-2.61c0-.74,0-1.86,.37-2.61v-.37h0c.37-8.56,1.49-16.75,2.61-24.94,1.12-7.82,2.61-15.26,4.09-22.71,.37,0,.37-.37,.37-.74,.37-1.86,.74-3.72,.74-5.58v-.37c2.23-11.54,5.21-23.08,7.44-34.99,4.47-22.33,7.07-45.04,6.7-68.12-1.12-45.78-11.17-94.92,8.19-138.09-7.82-3.35-12.66-16.38-14.14-24.19-1.49-8.93-1.12-21.22,6.33-27.17,13.77-11.17,37.22-.37,40.2,17.49,.74-.37,1.86-.74,2.61-1.12,2.61-4.09,5.96-5.58,9.31-4.47h.74c32.01-10.79,66.26-12.66,99.38-5.58h.37c1.49-.37,2.61,.37,3.35,1.12,2.98,.74,6.33,1.49,9.31,2.61,3.35-10.42,7.44-21.22,15.63-27.54,7.44-5.96,17.49-7.07,24.94-.74,16.01,14.14,7.82,40.57-6.33,52.48,5.21,13.77,8.56,29.03,11.54,43.55,2.98,14.14,5.21,28.66,5.58,43.18,.74,14.89-1.12,29.41-.37,44.29,.74,14.89,5.58,29.03,8.56,43.55,6.7,28.66,5.58,58.81,5.58,88.22h0Z"/><path class="cls-3" d="M259.17,87.64c1.49-1.12,3.72-.37,4.84,1.12h.37c.37,0,.74,.37,1.12,.74h0c2.23,.74,2.98,3.72,2.23,5.96-.74,1.86-1.86,2.61-3.35,2.98h0s0,.37-.37,.37c-1.86,2.61-4.47,.74-5.58-1.49q0-.37-.37-.74c-1.49-2.61-1.86-6.7,1.12-8.93h0Z"/><path class="cls-3" d="M159.04,90.24c.74-1.12,2.23-1.49,3.35-1.12h1.12c.74,0,1.49,.37,1.86,.37,2.23,.37,4.09,1.86,4.09,4.84,0,2.61-1.49,4.84-3.35,5.58,0,.37-.37,.37-.37,.37-2.98,2.61-8.19,.37-7.82-3.72v-.74c-.37-1.86,0-4.09,1.12-5.58Z"/><path class="cls-3" d="M194.4,149.43c0-.37,.37-.74,.74-.74h.37c2.23-1.12,4.47-6.7,5.21-8.93,1.12-2.98,1.49-5.58,1.86-8.56-.37,0-.74-.37-.74-.74-1.49-.37-2.98-1.49-3.72-3.35-1.86-3.35,1.86-4.84,4.09-5.21,2.23-.37,4.84,0,6.7,1.12,1.86,0,3.72,1.12,5.58,2.61,.37,.37,.37,1.12,0,1.86,0,2.61-4.09,4.47-5.96,4.84h-2.61c0,1.86,.37,3.72,.74,5.58,.74,3.35,2.98,6.7,3.72,10.05,0,.74-.74,1.49-1.49,1.12-2.98-2.61-4.84-7.82-5.58-13.03-.37,2.23-1.12,4.47-1.86,6.33-1.12,2.61-3.72,9.31-6.7,9.31-.74,0-1.12-.74-1.12-1.49v-.74h.74Z"/><path class="cls-3" d="M194.77,173.25c12.66,5.21,30.52,1.12,39.08-10.42,17.12-23.82-1.86-54.34-26.06-58.07h-3.72c-2.61,0-5.21,0-7.82,.74-.37,0-.37,.37-.37,.74-11.54,4.09-20.47,16.01-21.59,29.03-1.12,13.77,7.44,32.76,20.47,37.97h0Zm-10.42-55.83c5.96-7.07,13.4-9.31,21.96-10.05,13.4,2.98,24.94,10.05,29.41,25.68,5.21,17.87-5.58,36.11-22.71,38.34-8.56,1.12-17.49,.74-24.19-5.96-5.96-5.96-10.42-15.26-11.54-23.82-.74-8.56,1.86-17.49,7.07-24.19h0Z"/></g><path class="cls-3" d="M59.28,293.11c1.12-.74,1.86-1.86,2.61-2.61,1.86-1.86,3.35-3.35,5.21-4.84,1.49-1.12,2.61-2.23,4.09-2.98-21.96-.37-43.55-5.58-62.91-16.01-.37,1.12-.37,2.23-.74,3.35-.74,2.61-1.49,4.84-2.61,7.44,17.12,8.56,35.73,13.77,54.34,15.63h0Z"/><path class="cls-3" d="M38.81,322.51h0q0-.37,.37-.74c.37-1.12,.37-1.86,.74-2.98,.37-2.23,.74-4.09,1.86-5.96,.37-.37,.37-.74,.74-1.12-13.77,1.49-27.54-1.12-40.57-5.58,0,1.12,.37,2.61,.37,4.09,0,2.61,0,5.21-.74,7.44,12.28,3.72,24.94,5.96,37.22,4.84h0Z"/><path class="cls-3" d="M35.09,353.03c-10.05,2.98-21.22,2.23-31.64,.74,.37,1.12,.74,2.61,1.12,3.72,.74,2.61,1.49,5.21,1.86,7.82,10.79,1.12,21.59,1.12,31.64-1.49-1.12-3.72-2.23-7.07-2.98-10.79Z"/><path class="cls-3" d="M44.77,378.72c-7.07,7.07-15.63,12.66-24.57,15.63,.37,.37,.37,.74,.74,.74,0,.37,.37,.37,.37,.74v.37c1.49,1.49,2.98,2.98,4.47,4.47,1.12,.74,1.86,1.49,2.98,2.61,8.19-3.35,15.63-8.56,22.33-14.89-2.61-2.98-4.84-6.33-6.33-9.68h0Z"/><path class="cls-3" d="M64.49,400.31c-2.98,7.82-7.44,14.89-12.66,21.22-1.12,1.12-2.23,2.61-3.35,3.72,1.86,.74,3.35,1.86,5.21,2.98,1.49,1.12,2.61,2.23,4.09,3.72,.37-.37,.74-.74,1.49-1.49,5.96-6.7,11.17-14.52,14.89-22.71-4.09-1.49-7.07-4.47-9.68-7.44h0Z"/><path class="cls-3" d="M158.3,142.73h0c-2.98-4.47-23.08-4.47-31.27-4.84-6.33-.37-12.28-.74-18.24-1.12-.37,6.33-.37,12.28,.37,18.61,1.86-.37,4.09-.74,5.96-1.12,14.52-2.98,30.15-4.47,43.92-8.93,2.23-1.12,1.12-2.23-.74-2.61h0Z"/><path class="cls-3" d="M152.71,136.03h0c-2.61-5.58-29.41-14.89-40.57-18.98-.74-.37-1.49-.37-2.23-.74-.37,4.84-.74,9.31-1.12,14.14,14.89,2.98,29.78,6.33,43.92,8.19,3.72,.37,2.98-1.49,0-2.61Z"/><path class="cls-3" d="M327.66,129.7c-5.21,.37-10.42,.74-15.63,.74-10.05,.37-33.87,.74-37.59,4.84h0c-2.61,0-3.72,1.49-.74,2.23,16.01,4.09,34.99,5.96,52.48,8.93,1.12,0,2.23,.37,3.35,.74-.37-5.96-1.12-11.91-1.86-17.49Z"/><path class="cls-3" d="M324.68,111.09c-14.89,4.47-41.32,12.66-43.92,17.49h0c-3.35,1.12-4.47,2.98-.37,2.61,14.89-1.49,30.52-4.09,46.16-6.7-.74-4.47-1.49-8.93-1.86-13.4Z"/><path class="cls-3" d="M339.2,393.23c.37-.74,.74-1.49,1.49-1.86,0-1.49,.37-2.61,.37-4.09-14.52,3.72-31.27,8.56-33.87,11.91h0c-3.35,.74-4.47,2.61-.37,2.23,10.05-.37,20.84-1.49,31.27-2.98,.37-1.49,.74-3.35,1.12-5.21h0Z"/><path class="cls-3" d="M336.22,421.52c0-2.23,.37-4.47,1.12-6.7-14.14,.37-29.03,1.49-32.01,4.09h0c-3.35,.37-4.84,1.49-.74,2.23,10.05,1.86,20.84,2.98,31.64,4.09-.37-1.12-.37-2.23,0-3.72h0Z"/><path class="cls-3" d="M196.63,392.12h0c-2.98-4.47-26.8-10.42-42.06-14.14h0c0,4.09,.37,8.19,0,11.91,14.52,1.86,29.03,3.72,42.43,4.47,4.09,0,2.98-1.49-.37-2.23Z"/><path class="cls-3" d="M198.87,411.85h0c-3.72-3.35-27.92-4.09-43.92-4.47v.37c1.12,3.72,2.23,7.82,3.72,11.54,14.14-1.12,27.92-2.61,40.94-4.84,4.09-1.49,2.61-2.61-.74-2.61Z"/><path class="cls-3" d="M137.08,350.06h0c-3.35-2.98-22.71-7.07-43.18-10.42,0,3.35-.37,6.7-.74,10.42,15.26,1.12,30.15,2.23,44.29,2.61,7.07,0,4.84-1.86-.37-2.61Z"/><path class="cls-3" d="M140.8,370.53h0c-4.47-2.61-26.8-3.72-49.13-4.47,.37,2.61,.74,4.84,.74,7.44v3.35c17.12-1.12,33.87-2.23,49.51-4.09,7.07-.74,4.47-2.23-1.12-2.23h0Z"/><path class="cls-3" d="M207.43,25.85c-.74,0-1.86,0-2.61,.37v2.61c.37,16.38,.74,55.46,5.21,60.67h0c0,4.09,1.49,5.96,2.23,1.12,3.35-20.47,4.84-43.18,6.7-65.51-4.09,0-7.82,.37-11.54,.74Z"/><path class="cls-3" d="M186.58,28.08c-2.23,.74-4.09,1.49-6.33,2.23,2.61,14.14,5.96,29.78,9.31,32.38h0c.74,3.35,2.23,4.84,2.23,.37,.37-11.54,.37-23.45,0-35.36-1.86,0-3.35,.37-5.21,.37Z"/><path class="cls-3" d="M239.44,25.1c-1.86-.37-3.72-.37-5.58-.74-.37,13.03-.74,26.43-.37,38.71,0,4.09,1.86,2.98,2.23-.37h0c3.72-2.98,7.44-21.59,10.05-36.85-1.86,0-4.09-.37-6.33-.74Z"/><path class="cls-3" d="M172.44,461.72c-1.12-.74-1.49-2.23-1.49-3.35-4.09,1.12-7.82,2.23-11.91,3.35,1.12,.74,1.49,2.23,1.12,3.72,4.09-1.12,8.19-2.23,12.28-3.72h0Z"/></g></g></svg>