<svg xmlns="http://www.w3.org/2000/svg" width="188.593" height="196.17" viewBox="0 0 188.593 196.17">
  <path id="Tracé_478" data-name="Tracé 478" d="M95.29,1h0a30.918,30.918,0,0,1,6.41.75c5.91,1.27,9.61,3.34,10.99,6.18.96,1.97.81,4.31-.47,6.96a20.573,20.573,0,0,0-1.92,12.78A23.952,23.952,0,0,0,127.14,46.7a17.66,17.66,0,0,0,4.31.52c9.64,0,16.18-7.14,19.22-11.4a7.381,7.381,0,0,1,6.24-2.89c5.54,0,11.3,3.92,12.85,8.74,1.47,4.58-1.02,9.46-7,13.73-6.95,4.96-10.21,9.9-9.69,14.67.76,7.06,9.51,10.89,9.88,11.05l.06.02.06.02c9.21,2.63,10.86,5.35,11.02,6.73.25,2.13-2.47,4.19-3.65,4.87-5.53,1.69-15.12,7.2-12.55,16.19,1.59,5.56,7.04,8.62,15.35,8.62a32.657,32.657,0,0,0,5.14-.39c1.12.1,10.44,1.07,13.84,6.98,2.03,3.54,1.6,8.26-1.29,14.04s-6.14,8.72-9.64,8.72c-4.2,0-8.43-4.08-11.52-7.06-1.87-1.81-3.35-3.23-4.61-3.65a4.322,4.322,0,0,0-1.4-.22,7.389,7.389,0,0,0-3.11.8,10.927,10.927,0,0,0-5.67,6.39,11.9,11.9,0,0,0,.61,9.16l.87,1.74c1.8,3.6,2.39,6.44,1.72,8.22a3.476,3.476,0,0,1-2.13,2.02,5.658,5.658,0,0,1-2.08.4,6.31,6.31,0,0,1-5.02-2.59c-2.2-3.03-6.08-6.64-12.05-6.64a14.468,14.468,0,0,0-2.16.16,7.931,7.931,0,0,0-5.68,3.5c-3.93,5.84-1.26,16.76-1.15,17.22.02.1,2.4,9.91-1.8,15.28-1.83,2.34-4.7,3.52-8.54,3.52a25.687,25.687,0,0,1-4.98-.54c-6.67-1.33-11.09-3.72-13.15-7.08a10.064,10.064,0,0,1-.83-8.07,10.85,10.85,0,0,0-1.28-9.06c-1.79-2.65-4-3.99-6.58-3.99-5.08,0-9.99,5.24-12.63,8.05-.35.38-.66.7-.9.94a9.49,9.49,0,0,1-6.12,2.53c-3.11,0-5.07-2.24-5.68-6.46a55.036,55.036,0,0,0-3.55-12.99,10.992,10.992,0,0,0-9.97-6.94,9.923,9.923,0,0,0-2.03.21,9.3,9.3,0,0,0-7.08,6.42,31.4,31.4,0,0,1-1.3,3.39c-1.14,2.41-5.33,10.38-11.36,11.47a9.192,9.192,0,0,1-1.58.14c-5.38,0-11.06-4.39-14.14-10.93-2.55-7.81-2.63-12.99-.22-15.41a5.413,5.413,0,0,1,2.89-1.32,36.2,36.2,0,0,0,6.15-2.14c3.98-1.77,7.42-3.29,10.13-6.83,6.01-7.86,2.36-12.87-.34-15.16-1.47-1.25-3.09-1.96-8.77-2.89-3.09-.51-5.01-.7-6.41-.84a9.653,9.653,0,0,1-3.92-.89c-1.3-.63-4.33-2.1-5.49-5.42a8.74,8.74,0,0,1,1.33-8.04c1.31-1.63,3.72-2.48,8.54-4.18,1-.35,1.9-.64,2.71-.9,3.15-1.02,5.23-1.69,6.27-3.87a6.6,6.6,0,0,0,.44-3.81c-.72-5.6-6.14-7.94-6.37-8.03a8.047,8.047,0,0,0-3.2-.66,12.729,12.729,0,0,0-2.77.37,9.422,9.422,0,0,1-1.87.28,2.91,2.91,0,0,1-1.15-.22c-2.49-1.02-4.74-5.7-5.33-11.12-.78-7.08,1.26-13.04,5.44-15.96a11.886,11.886,0,0,1,5.06-1.95,14.735,14.735,0,0,1,2.1-.16,15.28,15.28,0,0,1,9.61,3.5c3.39,2.77,8.34,6.06,12.68,6.06,5.65,0,8.52-5.19,8.52-15.42,0-6.08,1.26-10.54,3.76-13.24,1.95-2.12,4.72-3.19,8.21-3.19a29.371,29.371,0,0,1,11,2.61,13.113,13.113,0,0,0,5.17,1.09,11.391,11.391,0,0,0,4.04-.73,7.764,7.764,0,0,0,4.73-4.5c1.67-4.33-.43-10.1-2.49-14.17a9.7,9.7,0,0,1,.26-9.49c1.94-3.07,5.35-4.62,10.14-4.62M95.29,0C89.24,0,86.01,2.38,84.3,5.09a10.688,10.688,0,0,0-.31,10.48c2.42,4.79,6.03,14.32-1.71,17.29a10.369,10.369,0,0,1-3.68.67,12.2,12.2,0,0,1-4.78-1.01,30.683,30.683,0,0,0-11.4-2.69c-6.57,0-12.97,3.56-12.97,17.43,0,11.04-3.38,14.42-7.52,14.42s-9.01-3.36-12.05-5.84a16.328,16.328,0,0,0-10.25-3.73,15.493,15.493,0,0,0-2.25.17A12.7,12.7,0,0,0,11.9,54.4c-9.77,6.8-6.12,26.28.08,28.83a4.025,4.025,0,0,0,1.53.29c1.44,0,2.86-.65,4.63-.65a7.056,7.056,0,0,1,2.81.59c.26.11,5.12,2.23,5.77,7.24a5.633,5.633,0,0,1-.35,3.25c-1.08,2.27-3.62,2.58-8.4,4.26-5,1.76-7.51,2.64-8.99,4.5a9.7,9.7,0,0,0-1.5,8.99c1.29,3.72,4.67,5.35,5.99,5.99,2.5,1.21,3.18.6,10.6,1.82,5.42.89,6.94,1.52,8.29,2.67,3.07,2.6,5.37,7.02.19,13.79-2.53,3.3-5.75,4.76-9.74,6.52-5.95,2.64-7.55,1.87-9.35,3.67-1.97,1.98-3.36,6.24,0,16.49,3.34,7.14,9.52,11.56,15.07,11.56a9.294,9.294,0,0,0,1.76-.16c6.3-1.14,10.57-8.81,12.09-12.03a33.023,33.023,0,0,0,1.35-3.51,8.359,8.359,0,0,1,6.33-5.76,8.75,8.75,0,0,1,1.83-.19,9.961,9.961,0,0,1,9.04,6.31,54.907,54.907,0,0,1,3.49,12.76c.79,5.55,3.68,7.32,6.67,7.32a10.449,10.449,0,0,0,6.82-2.83c1.91-1.91,7.48-8.7,12.82-8.7,2.02,0,4.01.97,5.75,3.55a9.852,9.852,0,0,1,1.15,8.23c-1.31,4.63-1.31,13.2,14.75,16.41a26.114,26.114,0,0,0,5.17.56c16.32,0,11.31-20.04,11.31-20.04s-4.5-17.98,5.99-19.48a14.253,14.253,0,0,1,2.02-.15c5.65,0,9.3,3.56,11.24,6.23a7.269,7.269,0,0,0,5.83,3,6.506,6.506,0,0,0,2.45-.47c2.81-1.12,4.68-4.12.94-11.61l-.87-1.74a10.5,10.5,0,0,1,4.6-14.2,6.388,6.388,0,0,1,2.68-.71,3.316,3.316,0,0,1,1.09.17c3.01,1,9.4,10.77,16.44,10.77,3.46,0,7.08-2.36,10.54-9.27,10.49-20.98-13.49-22.48-13.49-22.48a31.309,31.309,0,0,1-5.1.4c-5.11,0-12.48-1.21-14.38-7.89-3-10.49,11.99-14.99,11.99-14.99s13.49-7.49-7.49-13.49c0,0-20.98-8.99,0-23.98,16.37-11.69,3.55-24.29-6.43-24.29a8.315,8.315,0,0,0-7.06,3.31c-5.94,8.32-12.83,10.98-18.41,10.98a16.812,16.812,0,0,1-4.07-.49,23.024,23.024,0,0,1-16.1-18.25,19.578,19.578,0,0,1,1.83-12.16c2.08-4.31,3.02-11.5-11.22-14.55A30.709,30.709,0,0,0,95.29,0Z" transform="translate(-5.872)"/>
</svg>
