<svg xmlns="http://www.w3.org/2000/svg" xmlns:xlink="http://www.w3.org/1999/xlink" width="178.58" height="249.45" viewBox="0 0 178.58 249.45">
  <defs>
    <clipPath id="clip-path">
      <rect id="Rectangle_1" data-name="Rectangle 1" width="178.58" height="249.45" fill="none"/>
    </clipPath>
  </defs>
  <g id="fr0" transform="translate(-21 -27)">
    <g id="Groupe_1" data-name="Groupe 1" transform="translate(21 27)" clip-path="url(#clip-path)">
      <path id="Tracé_1" data-name="Tracé 1" d="M8.5,0H170.08a8.5,8.5,0,0,1,8.5,8.5V240.95a8.5,8.5,0,0,1-8.5,8.5H8.5a8.5,8.5,0,0,1-8.5-8.5V8.5A8.5,8.5,0,0,1,8.5,0" fill="#fff"/>
      <path id="Tracé_2" data-name="Tracé 2" d="M171.5,58.26V10.09a3.013,3.013,0,0,0-3.01-3.01H10.09a3,3,0,0,0-3,3.01V239.35a3,3,0,0,0,3,3.01h158.4a3.013,3.013,0,0,0,3.01-3.01V91.4m0-.01V58.29M29.01,44.95a.076.076,0,0,1,.02-.04.142.142,0,0,0-.02.06" fill="#fceef4"/>
    </g>
    <path id="_0" data-name="0" d="M130.875,38.992C122,29.2,110.856,23.814,99.506,23.814c-9.923,0-19.557,4.178-27.129,11.764C64.263,43.708,58.708,55.4,56.313,69.4c-1.6,9.349,1.983,29.176,12.873,42.088,6.634,7.867,14.8,11.856,24.271,11.857h0c.749,0,1.517-.026,2.282-.077,19.127-1.287,33.555-11.647,40.625-29.174C143.918,75.373,141.455,50.655,130.875,38.992ZM118.209,89.363c-1.989,8.195-11.512,16.862-18.525,16.862a7.391,7.391,0,0,1-1.74-.2,11.9,11.9,0,0,1-7.859-6.843A19.083,19.083,0,0,1,89.042,86.6c2.077-8.556,12.426-18.31,19.428-18.31a6.4,6.4,0,0,1,1.509.172c3.25.789,5.907,3.447,7.482,7.486A22.923,22.923,0,0,1,118.209,89.363Z" transform="translate(12.05 78.186)" fill="#ef9f5e"/>
    <path id="_0_-_Contour" data-name="0 - Contour" d="M99.506,24.492c-9.741,0-19.205,4.107-26.649,11.565-8.015,8.03-13.5,19.6-15.876,33.456a35.143,35.143,0,0,0-.188,8.534,63.8,63.8,0,0,0,1.927,10.885,65.217,65.217,0,0,0,4.245,11.551A50.154,50.154,0,0,0,69.7,111.049c6.5,7.707,14.491,11.615,23.755,11.616.733,0,1.485-.025,2.236-.075a51.44,51.44,0,0,0,13.248-2.6,43.392,43.392,0,0,0,11.236-5.77,42.784,42.784,0,0,0,9.008-8.767,49.6,49.6,0,0,0,6.55-11.613,59.91,59.91,0,0,0,3.772-14.7,66.708,66.708,0,0,0,.236-15.175,54.687,54.687,0,0,0-3.121-13.835,33.174,33.174,0,0,0-6.251-10.681c-8.748-9.644-19.71-14.956-30.867-14.956m.178,82.411a8.07,8.07,0,0,1-1.9-.218,12.568,12.568,0,0,1-8.312-7.213,19.759,19.759,0,0,1-1.088-13.036c1.005-4.141,4.019-8.887,8.061-12.7,4.134-3.9,8.517-6.131,12.026-6.131a7.08,7.08,0,0,1,1.669.191c3.471.843,6.3,3.648,7.954,7.9a23.614,23.614,0,0,1,.775,13.825c-.979,4.034-3.742,8.352-7.581,11.845-3.864,3.517-8.093,5.534-11.6,5.534m-.178-83.089c11.35,0,22.491,5.39,31.369,15.178,10.58,11.663,13.043,36.381,5.491,55.1-7.07,17.527-21.5,27.887-40.625,29.174-.765.051-1.533.077-2.282.077h0c-9.471,0-17.637-3.99-24.271-11.857C58.3,98.574,54.713,78.747,56.313,69.4c2.395-14,7.95-25.69,16.064-33.82C79.949,27.992,89.583,23.814,99.506,23.814Zm.178,82.411c7.013,0,16.536-8.667,18.525-16.862a22.923,22.923,0,0,0-.748-13.419c-1.575-4.039-4.232-6.7-7.482-7.486a6.4,6.4,0,0,0-1.509-.172c-7,0-17.351,9.754-19.428,18.31a19.083,19.083,0,0,0,1.043,12.587,11.9,11.9,0,0,0,7.859,6.843A7.391,7.391,0,0,0,99.684,106.225Z" transform="translate(12.05 78.186)" fill="#231f20"/>
  </g>
</svg>
