<svg xmlns="http://www.w3.org/2000/svg" xmlns:xlink="http://www.w3.org/1999/xlink" width="178.58" height="249.45" viewBox="0 0 178.58 249.45">
  <defs>
    <clipPath id="clip-path">
      <rect id="Rectangle_1" data-name="Rectangle 1" width="178.58" height="249.45" fill="none"/>
    </clipPath>
  </defs>
  <g id="fr2" transform="translate(-419 -27)">
    <g id="Groupe_1" data-name="Groupe 1" transform="translate(419 27)" clip-path="url(#clip-path)">
      <path id="Tracé_1" data-name="Tracé 1" d="M8.5,0H170.08a8.5,8.5,0,0,1,8.5,8.5V240.95a8.5,8.5,0,0,1-8.5,8.5H8.5a8.5,8.5,0,0,1-8.5-8.5V8.5A8.5,8.5,0,0,1,8.5,0" fill="#fff"/>
      <path id="Tracé_2" data-name="Tracé 2" d="M171.5,58.26V10.09a3.013,3.013,0,0,0-3.01-3.01H10.09a3,3,0,0,0-3,3.01V239.35a3,3,0,0,0,3,3.01h158.4a3.013,3.013,0,0,0,3.01-3.01V91.4m0-.01V58.29M29.01,44.95a.076.076,0,0,1,.02-.04.142.142,0,0,0-.02.06" fill="#fceef4"/>
    </g>
    <path id="_2" data-name="2" d="M335.855,107.023c-.679-4.593-3.8-9.69-8.442-10.548a39.914,39.914,0,0,0-8.517.13,69.825,69.825,0,0,1-7.978.341,1.37,1.37,0,0,1-.92-2.335c5.859-5.881,16.66-17.773,17.805-19.306,9.991-13.376,11.485-35.309-2.217-46.641-7.175-5.934-17.54-9.336-28.44-9.336-15.526,0-32.335,7.513-34.887,24.3a9.74,9.74,0,0,0,2.274,8.035,14.684,14.684,0,0,0,11.117,4.615,16.2,16.2,0,0,0,10.222-3.538c1.69-1.378,6.113-2.8,10.588-2.8,3.144,0,8.5.713,9.05,5.485.644,5.612-3.269,11.039-7.054,16.288q-.633.877-1.256,1.75c-.955,1.345-3.93,4.084-7.374,7.256-13.327,12.274-25.1,23.953-22.751,31.941.962,3.278,4.191,5.42,9.6,6.367a173.134,173.134,0,0,0,27.754,2.25c8.572,0,20.251-.753,27.2-4.339C334.94,115.224,336.521,111.52,335.855,107.023Z" transform="translate(210.457 78.596)" fill="#ef9f5e"/>
    <path id="_2_-_Contour" data-name="2 - Contour" d="M304.427,120.6c8.5,0,20.061-.74,26.89-4.263,3.043-1.571,4.489-5.014,3.867-9.21a14.662,14.662,0,0,0-2.608-6.371,8.781,8.781,0,0,0-5.286-3.61,14.345,14.345,0,0,0-2.51-.172c-1.7,0-3.809.149-5.83.311l-.042,0c-2.257.179-4.591.365-6.724.365-.453,0-.888-.009-1.294-.025a2.048,2.048,0,0,1-1.372-3.491c5.843-5.865,16.6-17.71,17.742-19.233a38.719,38.719,0,0,0,5.694-11.14A39.882,39.882,0,0,0,334.9,51.225a31.815,31.815,0,0,0-2.408-12.11,25.727,25.727,0,0,0-7.34-9.929c-7.054-5.834-17.263-9.181-28.008-9.181-15.236,0-31.725,7.335-34.217,23.723a9.081,9.081,0,0,0,2.118,7.491,14,14,0,0,0,10.6,4.379,15.516,15.516,0,0,0,9.794-3.386,13.066,13.066,0,0,1,4.494-2.045,24.447,24.447,0,0,1,6.522-.91,15.182,15.182,0,0,1,5.766,1.008,6.128,6.128,0,0,1,3.957,5.077c.674,5.873-3.318,11.409-7.178,16.762-.4.56-.834,1.156-1.253,1.746-.994,1.4-3.983,4.153-7.445,7.341l-.023.021c-7.374,6.791-13.117,12.366-17.18,17.5-4.622,5.84-6.382,10.339-5.38,13.752.883,3.01,3.933,4.991,9.065,5.89a172.388,172.388,0,0,0,27.637,2.24m0,.678a173.134,173.134,0,0,1-27.754-2.25c-5.407-.947-8.636-3.089-9.6-6.367-2.344-7.988,9.424-19.667,22.751-31.941,3.444-3.172,6.419-5.911,7.374-7.256q.621-.873,1.256-1.75c3.785-5.249,7.7-10.676,7.054-16.288-.549-4.772-5.906-5.485-9.05-5.485-4.475,0-8.9,1.425-10.588,2.8a16.2,16.2,0,0,1-10.222,3.538,14.684,14.684,0,0,1-11.117-4.615,9.74,9.74,0,0,1-2.274-8.035c2.552-16.786,19.361-24.3,34.887-24.3,10.9,0,21.265,3.4,28.44,9.336C339.288,40,337.794,61.929,327.8,75.305,326.658,76.838,315.857,88.73,310,94.611a1.37,1.37,0,0,0,.92,2.335,69.826,69.826,0,0,0,7.978-.341,39.914,39.914,0,0,1,8.517-.13c4.645.858,7.763,5.955,8.442,10.548.666,4.5-.915,8.2-4.227,9.911C324.678,120.52,313,121.273,304.427,121.273Z" transform="translate(210.457 78.596)" fill="#231f20"/>
  </g>
</svg>
