<svg xmlns="http://www.w3.org/2000/svg" xmlns:xlink="http://www.w3.org/1999/xlink" width="178.58" height="249.45" viewBox="0 0 178.58 249.45">
  <defs>
    <clipPath id="clip-path">
      <rect id="Rectangle_1" data-name="Rectangle 1" width="178.58" height="249.45" fill="none"/>
    </clipPath>
  </defs>
  <g id="fr3" transform="translate(-618 -27)">
    <g id="Groupe_1" data-name="Groupe 1" transform="translate(618 27)" clip-path="url(#clip-path)">
      <path id="Tracé_1" data-name="Tracé 1" d="M8.5,0H170.08a8.5,8.5,0,0,1,8.5,8.5V240.95a8.5,8.5,0,0,1-8.5,8.5H8.5a8.5,8.5,0,0,1-8.5-8.5V8.5A8.5,8.5,0,0,1,8.5,0" fill="#fff"/>
      <path id="Tracé_2" data-name="Tracé 2" d="M171.5,58.26V10.09a3.013,3.013,0,0,0-3.01-3.01H10.09a3,3,0,0,0-3,3.01V239.35a3,3,0,0,0,3,3.01h158.4a3.013,3.013,0,0,0,3.01-3.01V91.4m0-.01V58.29M29.01,44.95a.076.076,0,0,1,.02-.04.142.142,0,0,0-.02.06" fill="#fceef4"/>
    </g>
    <path id="_3" data-name="3" d="M425.977,72.653a2.364,2.364,0,0,1-1.042-1.983,2.142,2.142,0,0,1,.976-1.811,24.093,24.093,0,0,0,10.713-18.981,19.738,19.738,0,0,0-8.562-16.754c-6.673-4.869-13.489-9.3-23.444-10-.622-.044-1.274-.066-1.939-.066-12.035,0-28.728,6.876-33.438,16.743-1.708,3.577-2.632,9.216,2.668,15.77a9.3,9.3,0,0,0,7.57,3.556c4.923,0,11.136-3.017,18.466-8.966,2.684-2.179,5.186-3.283,7.437-3.283a6.355,6.355,0,0,1,5.351,3.04,10.785,10.785,0,0,1,1.052,9.554c-1.088,2.667-4.394,3.326-8.223,4.089-6.281,1.25-14.1,2.807-13.392,14.856.376,6.437,7.607,7.96,13.988,9.3,4.1.863,8.343,1.757,9.221,3.71.41.914.113,2.263-.884,4.011-2.7,4.74-5.243,5.288-6.918,5.288-3.566,0-7.7-2.914-12.076-6-5.037-3.551-10.246-7.222-15.681-7.222a11.819,11.819,0,0,0-7.386,2.657c-8.874,6.921-9.026,13.352-7.589,17.528,3.508,10.2,20.589,17.9,39.733,17.9h.006a65.478,65.478,0,0,0,24.31-4.54c14.025-5.664,17.68-13.593,18.278-19.246C446.186,92.213,439.19,81.587,425.977,72.653Z" transform="translate(303.832 76.938)" fill="#ef9f5e"/>
    <path id="_3_-_Contour" data-name="3 - Contour" d="M402.679,23.74a41.525,41.525,0,0,0-9.482,1.21,51.038,51.038,0,0,0-9.7,3.4c-6.689,3.152-11.537,7.325-13.649,11.751a12.406,12.406,0,0,0-1.23,6.422,15.881,15.881,0,0,0,3.814,8.63,8.648,8.648,0,0,0,7.043,3.3c4.763,0,10.832-2.966,18.039-8.814,2.807-2.279,5.453-3.435,7.864-3.435a7.006,7.006,0,0,1,5.914,3.34,11.5,11.5,0,0,1,1.117,10.188c-1.226,3-4.7,3.7-8.718,4.5-3.051.607-6.508,1.3-9.034,3.25-2.866,2.218-4.114,5.784-3.814,10.9.155,2.648,1.544,4.554,4.373,6a37.909,37.909,0,0,0,9.077,2.683c4.464.939,8.679,1.826,9.7,4.1.511,1.138.212,2.651-.914,4.624-2.878,5.046-5.662,5.63-7.507,5.63-3.778,0-7.993-2.97-12.456-6.115l-.01-.007c-4.95-3.49-10.069-7.1-15.29-7.1a11.155,11.155,0,0,0-6.969,2.514c-3.88,3.026-6.381,6.212-7.433,9.467a11.306,11.306,0,0,0,.068,7.306c1.635,4.756,6.479,9.151,13.64,12.376a63.373,63.373,0,0,0,25.452,5.062h.006a64.8,64.8,0,0,0,24.056-4.491c13.711-5.537,17.279-13.219,17.858-18.689.987-9.337-5.9-19.733-18.9-28.522a3.041,3.041,0,0,1-1.34-2.55,2.809,2.809,0,0,1,1.283-2.373A23.4,23.4,0,0,0,435.946,49.86a19.079,19.079,0,0,0-8.284-16.189c-6.59-4.808-13.314-9.181-23.092-9.867-.6-.043-1.24-.064-1.891-.064m0-.678c.665,0,1.317.022,1.939.066,9.955.7,16.771,5.127,23.444,10a19.738,19.738,0,0,1,8.562,16.754,24.093,24.093,0,0,1-10.713,18.981,2.142,2.142,0,0,0-.976,1.811,2.364,2.364,0,0,0,1.042,1.983c13.213,8.934,20.209,19.56,19.2,29.155-.6,5.653-4.253,13.582-18.278,19.246a65.478,65.478,0,0,1-24.31,4.54h-.006c-19.144,0-36.225-7.692-39.733-17.9-1.437-4.176-1.285-10.607,7.589-17.528a11.819,11.819,0,0,1,7.386-2.657c5.435,0,10.644,3.671,15.681,7.222,4.377,3.084,8.51,6,12.076,6,1.675,0,4.215-.548,6.918-5.288,1-1.748,1.294-3.1.884-4.011-.878-1.953-5.119-2.847-9.221-3.71-6.381-1.344-13.612-2.867-13.988-9.3-.706-12.049,7.111-13.606,13.392-14.856,3.829-.763,7.135-1.422,8.223-4.089a10.785,10.785,0,0,0-1.052-9.554,6.355,6.355,0,0,0-5.351-3.04c-2.251,0-4.753,1.1-7.437,3.283-7.33,5.949-13.543,8.966-18.466,8.966a9.3,9.3,0,0,1-7.57-3.556c-5.3-6.554-4.376-12.193-2.668-15.77C373.951,29.938,390.644,23.062,402.679,23.062Z" transform="translate(303.832 76.938)" fill="#231f20"/>
  </g>
</svg>
