<svg xmlns="http://www.w3.org/2000/svg" xmlns:xlink="http://www.w3.org/1999/xlink" width="178.58" height="249.45" viewBox="0 0 178.58 249.45">
  <defs>
    <clipPath id="clip-path">
      <rect id="Rectangle_1" data-name="Rectangle 1" width="178.58" height="249.45" fill="none"/>
    </clipPath>
  </defs>
  <g id="fr6" transform="translate(-1215 -27)">
    <g id="Groupe_1" data-name="Groupe 1" transform="translate(1215 27)" clip-path="url(#clip-path)">
      <path id="Tracé_1" data-name="Tracé 1" d="M8.5,0H170.08a8.5,8.5,0,0,1,8.5,8.5V240.95a8.5,8.5,0,0,1-8.5,8.5H8.5a8.5,8.5,0,0,1-8.5-8.5V8.5A8.5,8.5,0,0,1,8.5,0" fill="#fff"/>
      <path id="Tracé_2" data-name="Tracé 2" d="M171.5,58.26V10.09a3.013,3.013,0,0,0-3.01-3.01H10.09a3,3,0,0,0-3,3.01V239.35a3,3,0,0,0,3,3.01h158.4a3.013,3.013,0,0,0,3.01-3.01V91.4m0-.01V58.29M29.01,44.95a.076.076,0,0,1,.02-.04.142.142,0,0,0-.02.06" fill="#fceef4"/>
    </g>
    <path id="_6" data-name="6" d="M232.507,192.126c-5.346-8.913-16.287-10.056-25.221-10.056-.754,0-1.5.009-2.226.023l-.35,0c-4.6,0-8.264-1.516-8.5-2.539-.081-.358.582-1.705,4.572-3.607a63.068,63.068,0,0,1,7.578-2.271c11.46-3.047,27.155-7.22,25.8-14.927-1.27-7.243-12.924-8.764-22.477-8.764-2.32,0-4.248.092-5.457.169-18.484,1.178-32.357,9.541-37.111,22.372-10.551,28.483-10.881,50.182-.955,62.751,5.2,6.579,14.253,10.2,25.5,10.2h0c8.95,0,18.063-2.37,24.375-6.339C230.561,231.272,240.324,205.156,232.507,192.126Zm-20.071,29.035a17.267,17.267,0,0,1-13.685,8.627c-.439.03-.884.047-1.329.047-2.062,0-5.783-.379-7.547-2.919-1.511-2.175-1.417-5.587.281-10.143,2.121-5.694,9.865-10.279,14.863-10.279a6.554,6.554,0,0,1,2.086.31,9.857,9.857,0,0,1,5.724,5.88A10.017,10.017,0,0,1,212.436,221.161Z" transform="translate(1106.041 -45.988)" fill="#ef9f5e"/>
    <path id="_6_-_Contour" data-name="6 - Contour" d="M211.691,150.666c-2.3,0-4.213.091-5.414.168-18.209,1.16-31.86,9.359-36.519,21.931-5.224,14.1-7.954,26.591-8.114,37.118-.159,10.444,2.215,18.848,7.056,24.977,5.064,6.413,13.932,9.944,24.974,9.944,8.828,0,17.805-2.331,24.014-6.235,5.878-3.7,11.461-11.826,14.57-21.213a44.126,44.126,0,0,0,2.369-13.5,21.8,21.8,0,0,0-2.7-11.386c-5.171-8.621-15.884-9.727-24.64-9.727-.687,0-1.411.007-2.213.023h-.007l-.356,0a19.838,19.838,0,0,1-6.1-.921c-1.269-.423-2.83-1.139-3.059-2.147-.257-1.138,1.59-2.771,4.941-4.368a62.712,62.712,0,0,1,7.7-2.314c5.842-1.553,12.462-3.314,17.6-5.677a20.081,20.081,0,0,0,6.042-3.909,5.114,5.114,0,0,0,1.672-4.569,6.6,6.6,0,0,0-2.466-4.017,15.073,15.073,0,0,0-5.195-2.549,50.533,50.533,0,0,0-14.149-1.637m-14.269,79.847c-2.194,0-6.164-.417-8.1-3.21-1.645-2.369-1.577-5.991.2-10.766a16.545,16.545,0,0,1,6.615-7.6,17.413,17.413,0,0,1,8.883-3.116,7.224,7.224,0,0,1,2.3.345,10.538,10.538,0,0,1,6.139,6.276,10.693,10.693,0,0,1-.43,9.049,17.961,17.961,0,0,1-14.233,8.977c-.472.032-.935.049-1.375.049m14.269-80.525c9.553,0,21.207,1.521,22.477,8.764,1.351,7.707-14.344,11.88-25.8,14.927a63.068,63.068,0,0,0-7.578,2.271c-3.99,1.9-4.653,3.249-4.572,3.607.232,1.023,3.9,2.539,8.5,2.539l.35,0c.73-.014,1.472-.023,2.226-.023,8.934,0,19.875,1.143,25.221,10.056,7.817,13.03-1.946,39.146-14.458,47.017-6.312,3.969-15.425,6.339-24.375,6.339h0c-11.251,0-20.309-3.623-25.5-10.2-9.926-12.569-9.6-34.268.955-62.751,4.754-12.831,18.627-21.194,37.111-22.372C207.443,150.08,209.371,149.988,211.691,149.988Zm-14.269,79.847c.445,0,.89-.017,1.329-.047a17.267,17.267,0,0,0,13.685-8.627,10.017,10.017,0,0,0,.393-8.477,9.857,9.857,0,0,0-5.724-5.88,6.554,6.554,0,0,0-2.086-.31c-5,0-12.742,4.585-14.863,10.279-1.7,4.556-1.792,7.968-.281,10.143C191.639,229.456,195.36,229.835,197.422,229.835Z" transform="translate(1106.041 -45.988)" fill="#231f20"/>
  </g>
</svg>
