<svg xmlns="http://www.w3.org/2000/svg" xmlns:xlink="http://www.w3.org/1999/xlink" width="178.58" height="249.45" viewBox="0 0 178.58 249.45">
  <defs>
    <clipPath id="clip-path">
      <rect id="Rectangle_1" data-name="Rectangle 1" width="178.58" height="249.45" fill="none"/>
    </clipPath>
  </defs>
  <g id="fr7" transform="translate(-1414 -27)">
    <g id="Groupe_1" data-name="Groupe 1" transform="translate(1414 27)" clip-path="url(#clip-path)">
      <path id="Tracé_1" data-name="Tracé 1" d="M8.5,0H170.08a8.5,8.5,0,0,1,8.5,8.5V240.95a8.5,8.5,0,0,1-8.5,8.5H8.5a8.5,8.5,0,0,1-8.5-8.5V8.5A8.5,8.5,0,0,1,8.5,0" fill="#fff"/>
      <path id="Tracé_2" data-name="Tracé 2" d="M171.5,58.26V10.09a3.013,3.013,0,0,0-3.01-3.01H10.09a3,3,0,0,0-3,3.01V239.35a3,3,0,0,0,3,3.01h158.4a3.013,3.013,0,0,0,3.01-3.01V91.4m0-.01V58.29M29.01,44.95a.076.076,0,0,1,.02-.04.142.142,0,0,0-.02.06" fill="#fceef4"/>
    </g>
    <path id="_7" data-name="7" d="M331.326,152.941a7.342,7.342,0,0,0-5.046-4.165,60.316,60.316,0,0,0-14.428-1.56c-9.048,0-18.6,1.475-27.032,2.776-1.825.282-3.618.558-5.368.816-7.177,1.053-12.368,2.541-14.372,6.381-1.434,2.746-1,6.337,1.312,10.98a6.386,6.386,0,0,0,4.308,3.372,74.019,74.019,0,0,0,11.013.982c7.879.353,17.684.792,20.4,4.5a4.617,4.617,0,0,1,.486,4.124c-3.267,12.307-11.3,23.9-19.067,35.116-2.07,2.988-4.025,5.81-5.886,8.638-.291.442-.72,1.013-1.219,1.679-3.108,4.153-8.893,11.882-3.438,16.475a18.5,18.5,0,0,0,11.924,4.248,23.025,23.025,0,0,0,13.236-4.462c5.822-4.111,10.786-15.65,14.072-23.287.613-1.426,1.156-2.69,1.621-3.7l.771-1.664C329.883,181.346,335.348,161.313,331.326,152.941Z" transform="translate(1204.746 -45.216)" fill="#ef9f5e"/>
    <path id="_7_-_Contour" data-name="7 - Contour" d="M311.852,147.894c-8.995,0-18.52,1.47-26.928,2.768-1.83.283-3.617.558-5.373.817-6.972,1.023-12,2.439-13.87,6.024-1.326,2.539-.895,5.929,1.318,10.363a5.7,5.7,0,0,0,3.845,3.013,73.656,73.656,0,0,0,10.9.967,109.968,109.968,0,0,1,12.215,1c4.537.742,7.384,1.976,8.7,3.774a5.245,5.245,0,0,1,.595,4.7c-3.3,12.421-11.364,24.066-19.165,35.328l0,0c-2.067,2.983-4.019,5.8-5.874,8.621-.294.447-.715,1.008-1.2,1.657l-.042.056a34.927,34.927,0,0,0-4.839,7.907c-1.272,3.338-.848,5.837,1.3,7.642a17.82,17.82,0,0,0,11.488,4.089,22.355,22.355,0,0,0,12.845-4.338c5.665-4,10.583-15.431,13.838-23l.023-.054c.614-1.427,1.143-2.66,1.608-3.671L314,213.9c3.8-8.168,7.027-15.64,9.6-22.208a176.293,176.293,0,0,0,5.948-17.482,62.767,62.767,0,0,0,2.331-12.82,17.113,17.113,0,0,0-1.167-8.155,6.69,6.69,0,0,0-4.6-3.8,59.65,59.65,0,0,0-14.267-1.541m0-.678a60.316,60.316,0,0,1,14.428,1.56,7.342,7.342,0,0,1,5.046,4.165c4.022,8.372-1.443,28.4-16.708,61.244l-.771,1.664c-.465,1.013-1.008,2.277-1.621,3.7-3.286,7.637-8.25,19.176-14.072,23.287a23.025,23.025,0,0,1-13.236,4.462,18.5,18.5,0,0,1-11.924-4.248c-5.455-4.593.33-12.322,3.438-16.475.5-.666.928-1.237,1.219-1.679,1.861-2.828,3.816-5.65,5.886-8.638,7.768-11.214,15.8-22.809,19.067-35.116a4.617,4.617,0,0,0-.486-4.124c-2.721-3.706-12.526-4.145-20.4-4.5a74.019,74.019,0,0,1-11.013-.982,6.386,6.386,0,0,1-4.308-3.372c-2.316-4.643-2.746-8.234-1.312-10.98,2-3.84,7.2-5.328,14.372-6.381,1.75-.258,3.543-.534,5.368-.816C293.249,148.691,302.8,147.216,311.852,147.216Z" transform="translate(1204.746 -45.216)" fill="#231f20"/>
  </g>
</svg>
