<svg xmlns="http://www.w3.org/2000/svg" width="178.58" height="249.45" viewBox="0 0 178.58 249.45">
  <g id="fr-cheval" transform="translate(-1403 -106)">
    <g id="Groupe_248" data-name="Groupe 248" transform="translate(3.181 59.392)">
      <g id="Groupe_247" data-name="Groupe 247">
        <rect id="bg" width="178.58" height="249.45" rx="8.5" transform="translate(1399.819 46.608)" fill="#fff"/>
        <path id="Tracé_158" data-name="Tracé 158" d="M1571.319,104.868V56.7a3.012,3.012,0,0,0-3.01-3.01h-158.4a3,3,0,0,0-3,3.01v229.26a3,3,0,0,0,3,3.009h158.4a3.012,3.012,0,0,0,3.01-3.009V138.008m0-.01V104.9m-142.49-13.34a.072.072,0,0,1,.02-.04.138.138,0,0,0-.02.06" fill="#fceef4"/>
      </g>
    </g>
    <g id="Groupe_311" data-name="Groupe 311" transform="translate(3 60)">
      <path id="Tracé_403" data-name="Tracé 403" d="M1539.821,192.152a33.543,33.543,0,0,0-2-8.571,25.96,25.96,0,0,0-.77-3.087,1.178,1.178,0,0,0-.313-.526c-.134-.46-.275-.916-.432-1.365-1.355-3.88-3.644-7.292-6.953-9.049-2.3-1.219-6.176-2.26-8.824-1.117a9.267,9.267,0,0,0-1.5.165.545.545,0,0,0-.079.033,1,1,0,0,0-1.033.041c-1,.674-.913,1.912-.9,3.112a12.9,12.9,0,0,0-9.456-2.543c-6.4.774-12.506,2.352-18.621-1.094-2.623-1.478-4.046-3.951-6.282-5.847-1.992-1.69-4.463-1.823-6.388-3.925s-2.91-5.007-4.782-7.2c-1.819-2.131-3.486-4.928-5.935-5.971-.691-.294-1.165.567-1.072,1.263a9.89,9.89,0,0,0,1.893,4.361,2.875,2.875,0,0,0-.2.5,2.247,2.247,0,0,0-.281.235,5.579,5.579,0,0,0-1.528,3.161,2.516,2.516,0,0,0,.128,1.382,31.337,31.337,0,0,1-2.038,3.081,30.849,30.849,0,0,0-2.778,3.966,18.569,18.569,0,0,0-1.58-1.841c-.324-.326-.74-.087-.788.385-.008.073-.008.148-.013.221-.4-.164-.829.2-.738.777a49.655,49.655,0,0,0,2.1,7.861c.669,8.521,3.01,16.983,3.84,25.464.457,4.671.954,9.337,1.289,14.024.284,3.969.391,8.066.925,12.029a7.065,7.065,0,0,0-.168,3.056,1.956,1.956,0,0,0,2.011,1.511,11.524,11.524,0,0,0,3.551-.671,1.734,1.734,0,0,0,.969-1.81,38.059,38.059,0,0,0,1.008-4.809q.765-3.47,1.342-6.987c.688-4.209.672-9.034,1.773-13.1a13.245,13.245,0,0,1,1.9-3.895,16.8,16.8,0,0,1,1.4,3.672,40.458,40.458,0,0,1,.587,8.345c-.005,5.816.014,11.624.089,17.441a2.02,2.02,0,0,0,2.417,2.169l1.908-.4a2,2,0,0,0,1.807-1.62c.856-5.01,1.307-10.081,1.915-15.137.32-2.663.9-5.265,1.472-7.862,4.091,3.212,9.062,3.468,13.952,3.265,5.83-.241,12.383-.279,18.1-2.264.676,7.671,1.982,15.241,2.5,22.958.086,1.284.884,2.5,2.08,2.45.352-.015.665-.044.972-.086a1.917,1.917,0,0,0,2.943-1.809c-.068-8.719-1.736-16.856-.374-25.164.642,3.024,1.761,5.983,2.461,8.932,1.124,4.73,1.869,9.589,3.105,14.279.3,1.154,1.464,2.179,2.529,1.691,1.476-.675,2.029-1.645,2.205-3.5a33.78,33.78,0,0,0,.036-5.624,25.72,25.72,0,0,0,.039-3.32c-.008-.188-.012-.386-.016-.587a3.212,3.212,0,0,0,.482-1.618c.079-2.677.019-5.373-.119-8.066A37.079,37.079,0,0,0,1539.821,192.152Z" fill="#edd7c8"/>
      <path id="Tracé_404" data-name="Tracé 404" d="M1557.084,214.879a33.662,33.662,0,0,1-3.443-11.655,1.072,1.072,0,0,0,.148-.461c.562-7.192,1.569-15.954-1.1-22.729-1.787-4.53-5.534-8.717-9.845-9.319-2.488-1.015-5.116-1.252-6.909-.334a4.507,4.507,0,0,0-1.025.176.79.79,0,0,0-.273.15,2.376,2.376,0,0,0-1.482.409.93.93,0,0,0-.143,1.311,17.746,17.746,0,0,1,2.885,4.441v.008c.479,1.848,1.307,2.532,2.522,3.769a17.406,17.406,0,0,1,4.267,7.83,33.045,33.045,0,0,1,.834,4.144.5.5,0,0,0-.08.21,34.494,34.494,0,0,0,2.623,18.153c1.3,2.825,4.659,7.061,7.368,4.7a3.563,3.563,0,0,0,2.671,1.222C1556.953,216.951,1557.535,215.717,1557.084,214.879Z" fill="#c19676"/>
      <path id="Tracé_405" data-name="Tracé 405" d="M1462.772,128.823a13.385,13.385,0,0,0-2.817-1.571.911.911,0,0,0-.992.268c-1.209.186-2.361,1.344-3.271,2.171a13.136,13.136,0,0,0-3.045,4.172c-.287.579.292,1.283.788.928a3.6,3.6,0,0,1,2.527-.766,1.319,1.319,0,0,1,.214.064,1.511,1.511,0,0,0,.695.863c.075.253.133.541.222.849.206.721,1.1,1.191,1.587.493.279-.4.555-.808.832-1.212.021.031.038.06.061.091a.854.854,0,0,0,1.337,0,10.052,10.052,0,0,0,1.36-2.217c.292-.679.374-1.611.645-2.287A1.221,1.221,0,0,0,1462.772,128.823Z" fill="#c19676"/>
      <path id="Tracé_406" data-name="Tracé 406" d="M1514.88,165.879a9.39,9.39,0,0,0-2.518-1.672c-2.762-6.229-8.822-7.075-14.309-6.987a9.583,9.583,0,0,1-1.9-.833c-1.212-.819-2.381-2.119-3.709-2.731.023-2.9-1.846-6.085-3.044-8.472a23.49,23.49,0,0,0-5.311-7.478,13.238,13.238,0,0,0-7.8-2.759c-2.2-.181-5.869-.94-7.792.821a.973.973,0,0,0-1.552.887,33.341,33.341,0,0,0,.3,4.98c-.286,4.577,2.446,7.985,5.893,10.532-.076,2.6,1.6,4.971,3.273,6.5,1.844,1.689,4.175,2.223,6.207,3.38a11.7,11.7,0,0,0,2.112,2.468c.176.165.361.331.55.5a12.628,12.628,0,0,0,5.711,4.031,18.093,18.093,0,0,0,10.185.236c.488,0,.958,0,1.4-.005,2.59-.036,5.223-.847,7.783-.1.93.271,2.12.592,3.254,1.01a5.974,5.974,0,0,0,2.025,1.107,1.209,1.209,0,0,0,.283.024,5.335,5.335,0,0,1,.467.346c.41.356.824-.242.692-.709C1517.591,168.709,1516.323,167.086,1514.88,165.879Z" fill="#c19676"/>
      <path id="Tracé_407" data-name="Tracé 407" d="M1479.9,124.1c-3.485-.746-6.574.163-9.659,2.141a25.858,25.858,0,0,0-5.6,4.275c-.322-.74-1.309-.485-1.554.264-.362,1.106-.784,2.169-1.161,3.27-.127.369-.291.742-.447,1.12a1.754,1.754,0,0,0-.337.121,6.383,6.383,0,0,1-.579.425c-.063,0-.56-.449-.64-.483a1.167,1.167,0,0,0-.761-.065c-.516.122-.945.662-1.358,1.011-.113.094-.224.184-.334.272a3.07,3.07,0,0,0-1-2.044c-1.04-.724-2.227.514-3.185.923-.393.168-.88.318-1.335.528a10.739,10.739,0,0,1,1.745-4.065c.535-.729,1.181-1.322,1.687-2.081.18-.268.381-.8.632-1.267a1.909,1.909,0,0,0,1.819-1.148c.237-.43-.116-1.107-.546-1.033a2.254,2.254,0,0,0-1.257.2,3.731,3.731,0,0,1-.951-.581c.3-3.289-1.17-6.9-2.38-9.734-.314-.737-2.232-4.7-3.725-4.964a.963.963,0,0,0-.291-.2c-.519-.634-1.618-.476-1.668.737-.214,5.143-.108,11.6,1.738,16.659a19.192,19.192,0,0,0-1.793,1.683c-1.487,1.034-2.881,2.291-4.322,3.4-2.071,1.6-4.207,3.143-6.15,4.959a47.065,47.065,0,0,0-5.731,6.733,24.956,24.956,0,0,0-3.029,4.666c-.491.646-.979,1.294-1.479,1.931l.007,0c-.51.6.147,1.853.833,1.281.182-.151.361-.3.541-.457,2.41.729,4.933.772,7.34,1.684a42.217,42.217,0,0,1,8.226,4.444,27.494,27.494,0,0,1,6.786,5.714c1.3,1.685,4.638,6.136,4.516,8.568-.049.992,1.251.984,1.308,0a27.126,27.126,0,0,0,.039-2.741c.564-1.073,1.045-2.2,1.648-3.237.932-1.612,2.231-2.495,3.449-3.751a18.565,18.565,0,0,0,3.479-4.548c2.144-4.29,2.794-9.782,3.016-14.731.011-.051.026-.1.036-.15a17.489,17.489,0,0,0-.069-8c2.329.163,4.892-1.168,6.913-2.271a14.771,14.771,0,0,0,6.578-6.585C1481.378,125.964,1480.982,124.335,1479.9,124.1Z" fill="#edd7c8"/>
      <g id="Groupe_310" data-name="Groupe 310">
        <path id="Tracé_408" data-name="Tracé 408" d="M1443.4,159.074a10.85,10.85,0,0,0-2.574-1.625,12.986,12.986,0,0,0-6.408-3.082c-3.942-2.017-8.739-2.558-10.436,2.993a26.814,26.814,0,0,0-.976,7.828c0,.174.008.364.011.544-1.216,2.933.223,7.477,1.184,10.093,1.31,3.567,3.344,6.75,6.076,8.33a23.747,23.747,0,0,0,6.476,3.251,15.418,15.418,0,0,0,14.345-2.752C1459.751,176.89,1451.335,163.418,1443.4,159.074Z" fill="#ffe9ed"/>
        <g id="Groupe_309" data-name="Groupe 309">
          <path id="Tracé_409" data-name="Tracé 409" d="M1556.858,213.974a24.845,24.845,0,0,1-1.96-4.739c-1.191-4.916-.549-10-.177-14.988.533-7.151.008-14.682-4.732-19.852-4.318-4.709-12.255-6.994-17.5-3.107a.423.423,0,0,0-.145.208,14.633,14.633,0,0,0-1.94-1.573,14.4,14.4,0,0,0-13.038-1.58,6.583,6.583,0,0,0-4.648-3.9.535.535,0,0,0-.039-.217,12.878,12.878,0,0,0-5.453-6.219,12.684,12.684,0,0,0-6.914-1.06,16.712,16.712,0,0,1-7.672-3.9.446.446,0,0,0,.14-.337c.031-1.913-1.441-4.041-2.184-5.637-1.338-2.873-2.522-5.826-4.56-8.135a14.53,14.53,0,0,0-11.454-4.718,14.986,14.986,0,0,0,3.951-2.921c1.415-1.482,4.325-4.967,2.013-7.042-3.028-2.718-8.576.026-11.177,2.325a24.9,24.9,0,0,1-2.777,2.5c-1.864,1.189-2.848-.176-4.414-1.05a18.943,18.943,0,0,0-6.623-2.174c-.165-6.164-2.734-13.557-7.966-15.825-.212-.092-.4.107-.472.316-1.9,5.312-.141,10.861,1.163,16.03.383,1.517-.347,1.992-1.349,2.782-1.325,1.045-2.624,2.133-3.922,3.226-2.019,1.7-4.062,3.355-6.025,5.146-7.365,6.719-14.03,15.576-14.9,26.977-.739,9.646,3.541,19.3,11.5,22.623,8.378,3.493,19.325.4,21.934-10.688.637-2.709.592-5.977,1.816-8.435,1.512,3.048,1.633,7.043,2.231,10.43.732,4.151,1.223,8.321,1.741,12.514,1.119,9.046,1.989,18.087,2.484,27.212.1,1.869.249,3.755.238,5.628a18.511,18.511,0,0,0,.162,4.521c.571,2.288,2.3,2.3,4.037,2.3,1.558,0,2.339-.444,2.859-2.216a42.313,42.313,0,0,0,.922-5.622c.35-2.312.852-4.6,1.29-6.886.7-3.666,1.228-7.322,1.681-11.036.34-2.784.646-6.488,2.28-8.758,1.7,5.475,1.02,11.428,1.087,17.149.062,5.371-.369,11.19,1.055,16.367a.414.414,0,0,0,.37.332c1.636.111,3.729.467,4.944-1.176,1.476-2,1.609-5.725,1.89-8.194.451-3.96.729-7.946,1.2-11.9.246-2.084.694-4.132,1.008-6.2.578,1.348,4.185,2.18,4.915,2.379,5.323,1.448,10.789.916,16.182.495a42.1,42.1,0,0,0,7.009-1.026,17.717,17.717,0,0,1,2.042-.414c.778-.1.922-.215,1.369.463a8.949,8.949,0,0,1,.372,2.537q.179,1.259.347,2.518,1.131,8.463,1.661,17a.408.408,0,0,0,.005.078c.08,1.279.161,2.558.22,3.84a.408.408,0,0,0,.485.435c1.667-.341,4.326.8,5.668-.821,1.424-1.717.6-5.236.4-7.278-.385-4-.335-8.019-.463-12.037-.09-2.823-.712-6.143.043-8.934.814,4.608,1.632,9.268,2.788,13.764.582,2.26,1.277,4.473,1.718,6.781a63.265,63.265,0,0,0,1.408,6.683.393.393,0,0,0,.472.316c1.587-.369,3.071-1.085,4.708-1.123a.447.447,0,0,0,.37-.572c-1.04-3.265-.9-6.876-.744-10.3.161-3.621.342-7.241.457-10.865.235-7.381.2-14.915-1.511-22.081-.321-1.348-.7-2.673-1.144-3.959,5.733,4.252,5.38,15.05,5.836,21.974.241,3.662.747,7.562,2.744,10.522,1.575,2.335,4.489,5.2,7.048,3.408.045.041.086.088.132.128.936.807,3.638,2.232,4.139.079A4.319,4.319,0,0,0,1556.858,213.974ZM1459,127.557a16.1,16.1,0,0,1,3.366,1.58c.226.142.45.3.674.457-.533,1.444-1.976,6.925-3.369,5.171a.347.347,0,0,0-.542,0c-.2.244-.76,1.333-1.02,1.362-1.047.117-.549-.892-.72-1.328-.253-.649-.22-.9-.866-1.145-1.1-.425-2.606.418-3.74,1.2a10.462,10.462,0,0,1,6.149-7.251A.488.488,0,0,0,1459,127.557Zm-4.434,49.5a14.693,14.693,0,0,1-5.107,7.725c-4.185,3.226-9.657,3.458-14.377,1.949-8.913-2.85-13.483-13.606-12.043-23.956a33.132,33.132,0,0,1,2.491-8.738.336.336,0,0,0,.114-.039c2.535-1.546,5.888-.4,8.462.5a43.2,43.2,0,0,1,7.668,3.562,27.381,27.381,0,0,1,13.041,16.9.41.41,0,0,0,.174.26C1454.866,175.838,1454.731,176.45,1454.563,177.053Zm1.237-6.791c-.2,1.128-.358,2.27-.539,3.406a28.58,28.58,0,0,0-13.647-16.705A42.285,42.285,0,0,0,1433,153.2c-2.181-.663-4.72-1.264-6.919-.385,3.14-6.51,8.1-11.794,13.25-16.242q3.39-2.928,6.862-5.74c.931-.754,2.841-1.66,3.059-3.19a6.753,6.753,0,0,0-.554-2.61c-.366-1.252-.7-2.514-.968-3.8-.689-3.328-1.028-6.9-.012-10.165,4.712,2.317,6.977,9.349,7.083,14.978a.416.416,0,0,0,.262.411.4.4,0,0,0,.314.267,19.658,19.658,0,0,1,2.43.483,11.583,11.583,0,0,0-6.047,8.542c-.073.365.271.733.564.51.8-.6,2.63-2.118,3.591-1.764,1.223.451.428,1.663,1.047,2.453,1.079,1.376,2.086-1.167,2.466-1.189.36-.02.68.477,1.158.352.528-.139.917-.724,1.218-1.206a30.333,30.333,0,0,0,1.9-4.862,2.616,2.616,0,0,0,1.983.491c1.648-.361,3.008-2.289,4.3-3.384a12.868,12.868,0,0,1,5.88-2.805c1.956-.36,5.967.061,4.29,3.421a13.044,13.044,0,0,1-2.976,3.68,14.92,14.92,0,0,1-5.127,2.965c-1.307.443-2.774.3-4.025.96-.45.237-.06,1.016.388.78a11.4,11.4,0,0,1,2.958-.628,8.206,8.206,0,0,0,.939-.279.342.342,0,0,0,.231.049,14.114,14.114,0,0,1,13.374,4.792,33.986,33.986,0,0,1,3.927,7.255c.663,1.443,2.052,3.413,2.146,5.134a39.178,39.178,0,0,1-3.445-3.592c-3.61-4.221-7.544-8.461-12.74-9.49-.483-.1-.691.775-.2.871,6.211,1.23,10.078,6.961,14.508,11.629a20.285,20.285,0,0,0,7.477,5.233,21.16,21.16,0,0,1-7.492-.637c-2.591-.776-5.744-1.983-7.346-4.688-.28-.474-.946-.023-.662.456,2.379,4.02,7.808,5.587,11.727,5.872a49.635,49.635,0,0,0,6.48-.274c.176.032.357.053.534.081a6.239,6.239,0,0,1,2.239-.031c.008-.018.025-.029.031-.048.21.015.419.021.629.046a10.577,10.577,0,0,1,8.072,6.3c-.41-.087-.819-.155-1.221-.2-2.431-.295-4.823.2-7.256.175a25.341,25.341,0,0,1-11.694-3.051c-.447-.236-.838.543-.387.781,5.365,2.832,10.549,3.274,16.336,2.91,2.976-.187,7.846.3,9.075,3.9-.01.019-.011.042-.019.062a.425.425,0,0,1,.022.054c.014.064.022.13.033.2a.533.533,0,0,1,.079.282.519.519,0,0,0,.009.054.168.168,0,0,0,.054.042,6.434,6.434,0,0,1,.111,1.135,4.791,4.791,0,0,1-.165.992c-2.458-1.328-4.738-2.807-7.495-3.014-3.528-.264-6.981.651-10.471,1.058-6.12.712-12.116-2.241-16.022-7.75,1.574.136,3.306.275,4.474,1.439.375.373.921-.263.543-.639-1.523-1.517-3.687-1.553-5.657-1.764l-.027-.041c-.285-.025-.569-.046-.852-.1,0,.007-.008.01-.009.017-.1-.017-.214-.029-.316-.049a9.5,9.5,0,0,1-7.248-7.247,38.127,38.127,0,0,0,5.856,2.518.318.318,0,0,0,.43.175l.032.012c.464.2.665-.672.2-.871-2.369-1.022-4.925-1.556-7.056-3.227-2.247-1.762-3.824-4.394-5.392-6.927.047-1.171.066-2.339.068-3.493a.387.387,0,1,0-.767,0c0,1.084-.018,2.181-.057,3.281a.408.408,0,0,0-.02.484c-.213,5.024-.985,10.083-3.545,14.231C1461.073,163.484,1456.691,165.321,1455.8,170.262Zm83.065,18.889c1,7,.748,14.131.464,21.185-.168,4.176-.773,8.819-.365,13.146-.431-.192-.967.179-1.378.285a13.565,13.565,0,0,1-2.831.652c-.126-.687-.249-1.375-.377-2.063-.451-2.429-1.172-4.752-1.783-7.127-1.271-4.942-2.133-10.085-3.031-15.136a.368.368,0,0,0-.7-.108c-1.049,2.216-.93,4.859-.8,7.311.177,3.281.189,6.555.32,9.838.117,2.942.6,5.928.659,8.871-.013,0-.025,0-.037,0a7.4,7.4,0,0,1-2.786.242,9.534,9.534,0,0,1-2.77-.221c-.5-7.632-1.369-15.214-2.515-22.755a.405.405,0,0,0-.37-.332c-2.587-.159-5.061,1-7.617,1.277-3.275.354-6.6.573-9.893.672a30.877,30.877,0,0,1-9.225-.942,31.213,31.213,0,0,1-3.782-1.427.431.431,0,0,1-.312-.144c-.028-.028-.061-.066-.092-.1a.437.437,0,0,1-.119-.13,1.653,1.653,0,0,0-.613-.507c-.385-.114-.626.21-.849.535-.256,1.671-.6,3.328-.848,5.017-.475,3.306-.6,6.667-.989,9.986-.3,2.6-.521,5.248-1.062,7.8-.011,0-.019-.01-.032-.009a13.688,13.688,0,0,1-3.044.222c-.957-.066-1.872-.419-2.815-.508-.116-1.728-.07-3.511-.077-5.122-.013-2.825-.109-5.652-.078-8.477.06-5.358.431-10.916-1.356-15.978-.111-.313-.411-.45-.641-.2-2.693,2.925-2.738,8.592-3.21,12.562-.432,3.632-1.168,7.206-1.857,10.779-.378,1.96-.741,3.909-1,5.9-.036.277-.067.592-.1.92-.005,0-.01-.007-.015-.009a9.271,9.271,0,0,0-2.515.192,8.152,8.152,0,0,1-3.649-.579c0-.089.005-.179.006-.267.078-3.8-.287-7.653-.54-11.438-.518-7.756-1.357-15.435-2.305-23.132-.514-4.177-1.054-8.3-1.774-12.441-.592-3.406-.7-7.226-2.341-10.218.071-.1.139-.207.216-.306,1.771-2.256,4.07-3.74,5.706-6.205,2.7-4.071,3.651-9.081,3.96-14.128a25.45,25.45,0,0,0,4.542,5.853c.2.172.4.323.6.476a10.162,10.162,0,0,0,5.192,7.637,9.151,9.151,0,0,0,3.53,1.194c.056.008.117.013.174.02,3.292,4.992,8.192,8.268,13.581,8.812,3.488.353,6.942-.736,10.406-1.04a14.574,14.574,0,0,1,5.973.412,33.1,33.1,0,0,1,4.8,2.472.361.361,0,0,0,.1.028c.1.339.52.514.679.111a6.136,6.136,0,0,0,.4-1.541.538.538,0,0,0,.04-.193c0-.08-.006-.151-.006-.229,0-.025.005-.048.006-.073a.5.5,0,0,0-.009-.071,7.237,7.237,0,0,0-.116-1.195,13.807,13.807,0,0,1,13.7,2.456C1536.013,175.617,1537.94,182.705,1538.865,189.151Zm13.633,25.07a21.1,21.1,0,0,1-3.565-9.25,98.057,98.057,0,0,1-1.1-13.226c-.131-3.814-.407-7.494-2.159-10.806-.26-.492-.925-.039-.662.456,2.327,4.4,1.926,9.6,2.258,14.567.29,4.34.532,8.789,1.761,12.931a17.244,17.244,0,0,0,3.544,6.736c-1.946,1.028-4.068-1.068-5.353-2.719a13.851,13.851,0,0,1-2.463-5.861c-.8-4.006-.607-8.159-.967-12.227-.505-5.7-1.856-13.124-6.7-15.852l-.013,0a21.293,21.293,0,0,0-4.183-6.914c4.7-3.462,11.879-1.609,15.95,2.366,4.54,4.432,5.583,11.205,5.233,17.808-.227,4.279-.929,8.987-.583,13.43-2.56-6.711-.935-14.249-2.278-21.309-.867-4.557-3.8-9.457-7.887-10.393-.483-.111-.689.76-.2.871,5.62,1.288,7.555,8.757,7.834,14.555.292,6.077-.228,12.226,2.3,17.771a.313.313,0,0,0,.426.192,17.42,17.42,0,0,0,1.53,5.167c.38.777,1.543,2.372,1.475,3.31C1556.518,218.243,1553.095,215.008,1552.5,214.221Z" fill="#231f20"/>
          <path id="Tracé_410" data-name="Tracé 410" d="M1448.964,136.34c-.677.872-1.857,1.926-2.925,1.541-1.4-.5-1.292-3,.037-3.5.469-.174.269-1.047-.2-.871-1.592.592-2.184,3.209-.951,4.607,1.412,1.6,3.491.268,4.585-1.141C1449.839,136.551,1449.3,135.91,1448.964,136.34Z" fill="#231f20"/>
          <path id="Tracé_411" data-name="Tracé 411" d="M1464.694,146.055c-1.029,1.019-2.039,3.238-3.507,3.368-1.817.162-2.937-3.78-1.4-4.918.417-.308.032-1.09-.387-.78-1.784,1.319-1.157,5.051.471,6.181,2.292,1.592,3.886-1.747,5.365-3.212C1465.615,146.319,1465.07,145.683,1464.694,146.055Z" fill="#231f20"/>
          <path id="Tracé_412" data-name="Tracé 412" d="M1429.74,163.294a4.157,4.157,0,0,0-.267-.541.734.734,0,0,1-.021-.118.355.355,0,0,0-.223-.274c-.807-1.214-2.254-2.634-3.094-1.395-.305.45.235,1.094.543.639.374-.553,1.134.2,1.7.986a.423.423,0,0,0-.018.119,4.191,4.191,0,0,0,.114,1.124.37.37,0,0,0,.72.058C1429.513,164.162,1429.9,163.712,1429.74,163.294Z" fill="#231f20"/>
          <path id="Tracé_413" data-name="Tracé 413" d="M1446.177,172.023a.391.391,0,0,0-.469-.3c-.086.028-.167.069-.251.1a5.105,5.105,0,0,0-.97-.11c-.322,0-.519.5-.271.771a3.246,3.246,0,0,0,.337.312c.005.013.005.028.011.04a2.366,2.366,0,0,0,.833,1.041c.373.256.716-.309.511-.65a.365.365,0,0,0,.232-.269,3.069,3.069,0,0,1,2.136,2.788.387.387,0,1,0,.767,0A4.019,4.019,0,0,0,1446.177,172.023Z" fill="#231f20"/>
        </g>
      </g>
    </g>
  </g>
</svg>
