<svg xmlns="http://www.w3.org/2000/svg" width="178.58" height="249.45" viewBox="0 0 178.58 249.45">
  <g id="fr-cochon" transform="translate(-340 -416)">
    <g id="Groupe_254" data-name="Groupe 254" transform="translate(3.514 59.392)">
      <g id="Groupe_253" data-name="Groupe 253">
        <rect id="bg" width="178.58" height="249.45" rx="8.5" transform="translate(336.486 356.608)" fill="#fff"/>
        <path id="Tracé_161" data-name="Tracé 161" d="M507.986,414.868V366.7a3.012,3.012,0,0,0-3.01-3.01h-158.4a3,3,0,0,0-3,3.01v229.26a3,3,0,0,0,3,3.009h158.4a3.012,3.012,0,0,0,3.01-3.009V448.008m0-.01V414.9M365.5,401.558a.073.073,0,0,1,.02-.04.138.138,0,0,0-.02.06" fill="#fceef4"/>
      </g>
    </g>
    <g id="Groupe_313" data-name="Groupe 313" transform="translate(2 57)">
      <path id="Tracé_414" data-name="Tracé 414" d="M503.312,474.362a4.11,4.11,0,0,1-3.2-.454,8.118,8.118,0,0,0,.085-2c-.088-.953-.635-3.385-2.057-3.26-1.67.147-1.155,3.035-.667,3.97a5.429,5.429,0,0,0,1.484,1.735,5.366,5.366,0,0,1-.664,1.632,2.61,2.61,0,0,1-1.773,1.285c.012-.053.03-.1.04-.154.3-1.614-.1-3.929-1.427-5.035-.945-.786-2.507-.967-3.129.27-1.052,2.092.849,5,3.087,5.837-1.3,2.278-4.479,1.537-6.187-.093a.469.469,0,0,0-.484-.115,37.621,37.621,0,0,0-1.88-4.61c-5.97-12.228-19.148-17.681-31.967-19.6-8.611-1.291-17.22-.775-25.86-.065-5.024.413-10.039.925-15.056,1.411-2.329.226-4.931.635-7.25.127-1.568-.343-2.959-1.232-4.592-1.2a.538.538,0,0,0-.034-.622c-.648-.827.005-3.22.138-4.09.216-1.417.517-2.825.682-4.25a24.08,24.08,0,0,0-1.44-10.715.522.522,0,0,0-.94-.122c-1.429,2.056-3.612,2.977-5.747,4.109a18.736,18.736,0,0,0-4.811,3.664,21.854,21.854,0,0,0-4.11,5.721c-.866,1.824-.678,4.559-3.194,4.724-8.263.544-14.528,7.787-16.845,15.287-1.617,5.232-3.234,9.4-8.23,12.235-2.494,1.413-6.729,2.976-6.248,6.519.258,1.909,1.6,3.588,2.583,5.17,1,1.6,1.438,3.523,2.5,5.066a2.858,2.858,0,0,0,2.6,1.417,13.168,13.168,0,0,0,2.844-.938c1.216-.37,2.473-.652,3.709-.939,4.894-1.135,9.482-1.439,13.05,2.656a20.6,20.6,0,0,1,4.558,11.666c.486,6.021-1.066,12.168.144,18.161.448,2.216,1.339,3.123,3.558,3.572,1.995.4,5.711,1,7.367-.58,1.995-1.91,1.295-6.23,1.121-8.612a41.766,41.766,0,0,1-.221-4.65c.027-.718.068-1.45.141-2.165a4.852,4.852,0,0,1,.265-1.575c1.75-3.228,2.65-.457,2.946.468,1.016,3.184.665,6.587.815,9.9a.549.549,0,0,0,.046.791,14.928,14.928,0,0,0,.892,4.348c1.186,3.058,4.155,2.16,6.891,1.716,3.6-.585,4.576-2.638,4.664-6.153.1-4.009-.658-8.005-.778-12.018,5.221,3.83,12.677,3.008,18.8,2.946a101.9,101.9,0,0,0,14.181-1.375c3.941-.6,8.2-.718,11.951-2.208-.4,2.857.014,5.7-.009,8.592-.028,3.511-.538,6.8.3,10.265a.527.527,0,0,0,.632.359,21.122,21.122,0,0,1,7.878-.221.52.52,0,0,0,.632-.359c.6-4.026,1.1-8.063,1.438-12.12.151-1.817-.22-4.6.4-6.28.277-.755.1-.568.981-.791a6.871,6.871,0,0,1,3.221-.046c1.864.913.794,5.595.718,7.315a32.768,32.768,0,0,0,.317,7.856c.383,1.877,1.2,3.549,3.277,3.746a36.474,36.474,0,0,0,3.955-.226,7.126,7.126,0,0,0,2.685-.191c2.047-.892,1.85-4.01,1.919-5.821.167-4.4,1.956-8.858,3.112-13.083,2.973-10.874,4.836-22.062,1.709-32.8,2.427,1.77,5.966,1.8,7.3-.943a2.761,2.761,0,0,0,1.839-.528,5.546,5.546,0,0,0,1.9-2.944,4.928,4.928,0,0,0,3.706.409C504.215,475.157,503.946,474.164,503.312,474.362ZM353.4,489.425c1.777-.735,2.571,2.2,1.848,3.385a12.57,12.57,0,0,0-.936-1.963C354.014,490.379,353.7,489.9,353.4,489.425Zm10.051,6.243c-.986.248-1.979.483-2.94.817-1.507.524-2.684.556-3.8-.787a8.387,8.387,0,0,1-1.144-2.115.5.5,0,0,0,.553-.219c1.385-2.135-.5-5.986-3.235-4.828-.894-1.675-1.253-3.386.586-5.036a12.231,12.231,0,0,1,2.228-1.524c.245,5.314,3.971,10.824,8.532,13.5Zm30.556,33.482c-.508,2.363-2.261,2.54-4.4,2.482-1.287-.035-3.654-.024-4.712-.963-.872-.774-.971-2.61-1.078-3.66-.061-.59-.089-1.181-.114-1.773,3.485.545,7.109,1.934,10.269-.333a.509.509,0,0,0,.182-.247A16.423,16.423,0,0,1,394.007,529.15Zm16.1-.462c-.816,2.334-3.467,2.314-5.572,2.524a4.693,4.693,0,0,1-2.554-.088c-1.085-.509-1.317-1.855-1.543-2.985a17.641,17.641,0,0,1-.286-2.3c1.678-.248,3.521.439,5.207.43a16.365,16.365,0,0,0,5.157-.875A9.6,9.6,0,0,1,410.1,528.688Zm54.071,2.385a22.715,22.715,0,0,0-7.309.229,22.415,22.415,0,0,1-.327-5.535c2.781.138,5.55,1.007,8.3.322Q464.537,528.584,464.175,531.073Zm18.813-5.832c-.069,1.8.272,4.452-1.957,4.99a27.036,27.036,0,0,1-3.756.128c-2.325.185-3.589-.485-4.1-2.9a16.024,16.024,0,0,1-.3-2.952,45.134,45.134,0,0,0,10.014-.049.5.5,0,0,0,.158-.05C483.023,524.686,483,524.962,482.988,525.241Zm12.5-48.059a3.826,3.826,0,0,1-2.108-1.91,3.2,3.2,0,0,1-.45-1.229q-.534-1.4,1-.619,1.14-.3,1.272.642A4.331,4.331,0,0,1,495.491,477.182Zm3.015-4.813c-.1-.165-.736-2.527.085-2.285.4.12.532,1.606.558,1.9a7.783,7.783,0,0,1,0,1.193A3.944,3.944,0,0,1,498.506,472.369Z" fill="#f9d9e2"/>
      <g id="Groupe_312" data-name="Groupe 312">
        <path id="Tracé_415" data-name="Tracé 415" d="M361.53,492.58c-.021.012-.043.019-.063.032-.106-.138-.2-.286-.3-.427a22.827,22.827,0,0,1-4.448-7.5,1.054,1.054,0,0,1-.045-.558,4.039,4.039,0,0,1-.331-1.679,1.906,1.906,0,0,0-3.24.045,4.95,4.95,0,0,0-.28.731,1.986,1.986,0,0,0-.345.621c-1.07,3.176.647,4.955,2.3,7.117a1.53,1.53,0,0,0-.1.228c-1.357,5.151,6.648,8.054,9.477,3.908a2.03,2.03,0,0,0,.1-.18A16.334,16.334,0,0,1,361.53,492.58Z" fill="#ffe9ed"/>
        <path id="Tracé_416" data-name="Tracé 416" d="M398.34,445.537c.517-1.5-1.026-2.544-2.331-2.331-1.361.222-2.68,1.527-3.559,2.5-.976,1.085-2,2.515-1.88,4.036a1.9,1.9,0,0,0,2.328,2.749,2.873,2.873,0,0,0,2.145-.371,8.741,8.741,0,0,0,2.755-3.462,1.8,1.8,0,0,0,.02-1.747,1.713,1.713,0,0,0,.036-.226A10.234,10.234,0,0,0,398.34,445.537Z" fill="#ffe9ed"/>
        <path id="Tracé_417" data-name="Tracé 417" d="M394.078,525.252a2.166,2.166,0,0,0-.649-.6c-3.175,1.865-7.227.957-10.48-.383a1.932,1.932,0,0,0-.212.821,8.056,8.056,0,0,0,1.981,6,1.92,1.92,0,0,0,2.7-.024,5.135,5.135,0,0,0,5.183-.285C394.489,529.6,395.492,527.21,394.078,525.252Z" fill="#ffe9ed"/>
        <path id="Tracé_418" data-name="Tracé 418" d="M410.211,524.776a19.39,19.39,0,0,1-5.09.509c-1.785.1-3.658.5-5.268-.473a1.726,1.726,0,0,0-.432,2.344,3.234,3.234,0,0,0,1.143,1.093,1.937,1.937,0,0,0,.383,2.133,5.21,5.21,0,0,0,5.319.906,5.806,5.806,0,0,0,2.483-1.429c.666-.682,1.015-1.588,1.668-2.271A1.919,1.919,0,0,0,410.211,524.776Z" fill="#ffe9ed"/>
        <path id="Tracé_419" data-name="Tracé 419" d="M463.6,525.513a19.112,19.112,0,0,1-7.22-.726,1.513,1.513,0,0,0-.676,1.46c.017.16.048.329.083.5l-.015,0c.01.056.032.1.046.153a3.88,3.88,0,0,1,.119,1.918,1.918,1.918,0,0,0,1.828,2.4c2.643.2,7.624.781,7.425-3.3A2.763,2.763,0,0,0,463.6,525.513Z" fill="#ffe9ed"/>
        <path id="Tracé_420" data-name="Tracé 420" d="M483.532,525.4a1.945,1.945,0,0,0-1.828-1.391c-1.051-.038-2.1.045-3.15.078a9.772,9.772,0,0,1-2.38-.051c-.01-.04-.028-.074-.041-.112-1.063-.063-2.123-.2-3.217-.294a1.169,1.169,0,0,1-.136-.025,1.905,1.905,0,0,0-.335,1.011c-.09,1.727.412,4.023,2.085,4.869a3.4,3.4,0,0,0,1.407.352C479.2,531.263,484.777,529.785,483.532,525.4Z" fill="#ffe9ed"/>
      </g>
      <path id="Tracé_421" data-name="Tracé 421" d="M503.312,474.362a4.11,4.11,0,0,1-3.2-.454,8.118,8.118,0,0,0,.085-2c-.088-.953-.635-3.385-2.057-3.26-1.67.147-1.155,3.035-.667,3.97a5.429,5.429,0,0,0,1.484,1.735,5.366,5.366,0,0,1-.664,1.632,2.61,2.61,0,0,1-1.773,1.285c.012-.053.03-.1.04-.154.3-1.614-.1-3.929-1.427-5.035-.945-.786-2.507-.967-3.129.27-1.052,2.092.849,5,3.087,5.837-1.3,2.278-4.479,1.537-6.187-.093a.469.469,0,0,0-.484-.115,37.621,37.621,0,0,0-1.88-4.61c-5.97-12.228-19.148-17.681-31.967-19.6-8.611-1.291-17.22-.775-25.86-.065-5.024.413-10.039.925-15.056,1.411-2.329.226-4.931.635-7.25.127-1.568-.343-2.959-1.232-4.592-1.2a.538.538,0,0,0-.034-.622c-.648-.827.005-3.22.138-4.09.216-1.417.517-2.825.682-4.25a24.08,24.08,0,0,0-1.44-10.715.522.522,0,0,0-.94-.122c-1.429,2.056-3.612,2.977-5.747,4.109a18.736,18.736,0,0,0-4.811,3.664,21.854,21.854,0,0,0-4.11,5.721c-.866,1.824-.678,4.559-3.194,4.724-8.263.544-14.528,7.787-16.845,15.287-1.617,5.232-3.234,9.4-8.23,12.235-2.494,1.413-6.729,2.976-6.248,6.519.258,1.909,1.6,3.588,2.583,5.17,1,1.6,1.438,3.523,2.5,5.066a2.858,2.858,0,0,0,2.6,1.417,13.168,13.168,0,0,0,2.844-.938c1.216-.37,2.473-.652,3.709-.939,4.894-1.135,9.482-1.439,13.05,2.656a20.6,20.6,0,0,1,4.558,11.666c.486,6.021-1.066,12.168.144,18.161.448,2.216,1.339,3.123,3.558,3.572,1.995.4,5.711,1,7.367-.58,1.995-1.91,1.295-6.23,1.121-8.612a41.766,41.766,0,0,1-.221-4.65c.027-.718.068-1.45.141-2.165a4.852,4.852,0,0,1,.265-1.575c1.75-3.228,2.65-.457,2.946.468,1.016,3.184.665,6.587.815,9.9a.549.549,0,0,0,.046.791,14.928,14.928,0,0,0,.892,4.348c1.186,3.058,4.155,2.16,6.891,1.716,3.6-.585,4.576-2.638,4.664-6.153.1-4.009-.658-8.005-.778-12.018,5.221,3.83,12.677,3.008,18.8,2.946a101.9,101.9,0,0,0,14.181-1.375c3.941-.6,8.2-.718,11.951-2.208-.4,2.857.014,5.7-.009,8.592-.028,3.511-.538,6.8.3,10.265a.527.527,0,0,0,.632.359,21.122,21.122,0,0,1,7.878-.221.52.52,0,0,0,.632-.359c.6-4.026,1.1-8.063,1.438-12.12.151-1.817-.22-4.6.4-6.28.277-.755.1-.568.981-.791a6.871,6.871,0,0,1,3.221-.046c1.864.913.794,5.595.718,7.315a32.768,32.768,0,0,0,.317,7.856c.383,1.877,1.2,3.549,3.277,3.746a36.474,36.474,0,0,0,3.955-.226,7.126,7.126,0,0,0,2.685-.191c2.047-.892,1.85-4.01,1.919-5.821.167-4.4,1.956-8.858,3.112-13.083,2.973-10.874,4.836-22.062,1.709-32.8,2.427,1.77,5.966,1.8,7.3-.943a2.761,2.761,0,0,0,1.839-.528,5.546,5.546,0,0,0,1.9-2.944,4.928,4.928,0,0,0,3.706.409C504.215,475.157,503.946,474.164,503.312,474.362ZM353.4,489.425c1.777-.735,2.571,2.2,1.848,3.385a12.57,12.57,0,0,0-.936-1.963C354.014,490.379,353.7,489.9,353.4,489.425Zm10.051,6.243c-.986.248-1.979.483-2.94.817-1.507.524-2.684.556-3.8-.787a8.387,8.387,0,0,1-1.144-2.115.5.5,0,0,0,.553-.219c1.385-2.135-.5-5.986-3.235-4.828-.894-1.675-1.253-3.386.586-5.036a12.231,12.231,0,0,1,2.228-1.524c.245,5.314,3.971,10.824,8.532,13.5Zm30.556,33.482c-.508,2.363-2.261,2.54-4.4,2.482-1.287-.035-3.654-.024-4.712-.963-.872-.774-.971-2.61-1.078-3.66-.061-.59-.089-1.181-.114-1.773,3.485.545,7.109,1.934,10.269-.333a.509.509,0,0,0,.182-.247A16.423,16.423,0,0,1,394.007,529.15Zm16.1-.462c-.816,2.334-3.467,2.314-5.572,2.524a4.693,4.693,0,0,1-2.554-.088c-1.085-.509-1.317-1.855-1.543-2.985a17.641,17.641,0,0,1-.286-2.3c1.678-.248,3.521.439,5.207.43a16.365,16.365,0,0,0,5.157-.875A9.6,9.6,0,0,1,410.1,528.688Zm54.071,2.385a22.715,22.715,0,0,0-7.309.229,22.415,22.415,0,0,1-.327-5.535c2.781.138,5.55,1.007,8.3.322Q464.537,528.584,464.175,531.073Zm18.813-5.832c-.069,1.8.272,4.452-1.957,4.99a27.036,27.036,0,0,1-3.756.128c-2.325.185-3.589-.485-4.1-2.9a16.024,16.024,0,0,1-.3-2.952,45.134,45.134,0,0,0,10.014-.049.5.5,0,0,0,.158-.05C483.023,524.686,483,524.962,482.988,525.241Zm6.488-29.775c-.52,7.2-2.735,14.227-4.654,21.15a53.13,53.13,0,0,0-1.669,6.868.434.434,0,0,0-.264-.053,45.03,45.03,0,0,1-10.029.047c0-.368,0-.735,0-1.1,0-2.125.224-4.231.259-6.353.021-1.317.174-3.484-1.177-4.272-1.456-.849-4.125-.3-5.611.168a.532.532,0,0,0-.378.5c-.171,4.212-.52,8.4-1,12.587-2.755.841-5.578-.111-8.374-.264.046-.983.1-1.974.105-2.987.027-3.114-.514-6.186.129-9.274a.521.521,0,0,0-.755-.581c-3.6,1.7-7.769,1.734-11.656,2.332a108.3,108.3,0,0,1-13.9,1.471c-6.369.148-14.811,1.215-19.944-3.351a.521.521,0,0,0-.878.364c-.007,3.671.548,7.281.755,10.935q.02.33.037.671a15.063,15.063,0,0,1-6.414.864,20.08,20.08,0,0,0-3.962-.367c-.046-1.466-.009-2.939-.068-4.4-.085-2.079-.144-6.485-2.171-7.834s-3.461,1.059-3.766,2.732a34.385,34.385,0,0,0,0,8.463c.009.134.018.274.028.41a.436.436,0,0,0-.671-.179c-2.954,2.12-6.385.689-9.627.2a.509.509,0,0,0-.152.008c-.071-4.929.764-9.9.118-14.775-.741-5.593-3.581-12.419-9.308-14.495-2.817-1.022-5.938-.517-8.858.174a.489.489,0,0,0-.181-.158c-4.709-2.413-8.725-8.152-8.735-13.541.813-.425,1.629-.839,2.381-1.315a15.474,15.474,0,0,0,6.326-8.58c.721-2.088,1.226-4.248,2.038-6.3a18.187,18.187,0,0,1,5.087-6.931c2.166-1.957,4.741-4.064,7.687-4.666,1.313-.268,3.314.234,4.452-.676.953-.761.956-2.354,1.274-3.421.848-2.848,2.962-5.374,5.053-7.409,2.8-2.721,6.914-3.677,9.474-6.575a24.7,24.7,0,0,1,.741,11.754c-.3,1.809-1.438,5.211-.164,6.837a.432.432,0,0,0,.209.149.489.489,0,0,0,.412.773c1.607-.089,2.937.829,4.459,1.162a14.762,14.762,0,0,0,3.475.208c3.848-.089,7.719-.667,11.548-1.032,7.09-.677,14.236-1.413,21.363-1.463,12.376-.088,26.756,2.4,36.351,10.847C487.365,472.263,490.263,484.558,489.476,495.466Zm6.015-18.284a3.826,3.826,0,0,1-2.108-1.91,3.2,3.2,0,0,1-.45-1.229q-.534-1.4,1-.619,1.14-.3,1.272.642A4.331,4.331,0,0,1,495.491,477.182Zm3.015-4.813c-.1-.165-.736-2.527.085-2.285.4.12.532,1.606.558,1.9a7.783,7.783,0,0,1,0,1.193A3.944,3.944,0,0,1,498.506,472.369Z" fill="#231f20"/>
      <path id="Tracé_422" data-name="Tracé 422" d="M384.972,464.321c-.263,2.349-1.782,4.548-4.406,3.861a2.96,2.96,0,0,1-2.089-4.372c.317-.581-.571-1.1-.888-.519a4,4,0,0,0,2.7,5.882c3.329.884,5.371-1.849,5.707-4.852C386.073,463.665,385.045,463.67,384.972,464.321Z" fill="#231f20"/>
      <path id="Tracé_423" data-name="Tracé 423" d="M398.315,442.51a10.766,10.766,0,0,0-8.929,9.04.5.5,0,0,0-.284.572c.6,2.824,3.93,1.6,5.594.5,3.181-2.1,2.945-6.238,4.115-9.465A.517.517,0,0,0,398.315,442.51Zm-2.812,7.932c-.749,1.086-4.342,3.61-5.257,1.843a.491.491,0,0,0,.123-.3c.185-3.706,3.546-7.5,7.209-8.322C396.941,445.923,396.848,448.492,395.5,450.442Z" fill="#231f20"/>
      <path id="Tracé_424" data-name="Tracé 424" d="M418.746,458.93a13.865,13.865,0,0,0-4.017.027,14.911,14.911,0,0,0-4.2,1.791.484.484,0,0,0-.214-.12c-4.006-1.074-7.229,6.117-7.054,9.238.126,2.25.888,5.558,3.507,6.051,2.313.435,5.537-.7,7.509-1.862a5.972,5.972,0,0,0,3.169-5.5,27.071,27.071,0,0,1-.373-2.919c.17-2.01.994-2.088,2.244-2.7.611-.3,1.538-.564,1.865-1.234C421.937,460.157,419.98,459.144,418.746,458.93Z" fill="#231f20"/>
      <path id="Tracé_425" data-name="Tracé 425" d="M456.7,479.073c-.778-1.745-2.418-2.376-2.08-4.621.133-.888.779-1.624.679-2.555A3.672,3.672,0,0,0,451.848,469c-2.422.021-2.527,2.352-3.749,3.812a3.209,3.209,0,0,0-3.027,1.178c-1.553,1.748-.351,3.171.975,4.576a23.686,23.686,0,0,1,3.767,4.39,5.759,5.759,0,0,0,1.218,1.974c1.417,1.076,3.211-.075,4.279-1.116C456.614,482.547,457.487,480.847,456.7,479.073Z" fill="#231f20"/>
      <path id="Tracé_426" data-name="Tracé 426" d="M483.258,488.361c-.448-2.006-1.643-3.2-1.084-5.4.311-1.227.875-2.363.615-3.664a3.766,3.766,0,0,0-3.893-3.056c-1.784.249-3.065,1.825-3.754,3.426-.831-.447-1.808.094-2.294,1.187-1.1,2.47,1.227,5.39,1.309,7.873.068,2.04-1.088,4.656,1.056,6.02,1.792,1.14,4.358.327,5.876-.9A5.673,5.673,0,0,0,483.258,488.361Z" fill="#231f20"/>
      <path id="Tracé_427" data-name="Tracé 427" d="M472.466,462.883a7.713,7.713,0,0,0-2.667-3.107,7.064,7.064,0,0,0-2.532-1.36c-.967-.216-1.916.123-2.882-.006a.407.407,0,0,0-.484.423c-1.816.311-3.572,2.314-1.878,3.8.579.508,1.339.779,1.961,1.227a16.976,16.976,0,0,1,1.983,1.894c.928.929,2.028,1.95,3.426,1.952A3.31,3.31,0,0,0,472.466,462.883Z" fill="#231f20"/>
      <path id="Tracé_428" data-name="Tracé 428" d="M432.53,472.3a6.048,6.048,0,0,0-3.08.912,5.55,5.55,0,0,0-1.786,1.376c-.465.623-.527,1.411-.929,2.062a.319.319,0,0,0,.147.482c-.36,1.4.51,3.3,2.118,2.564.55-.252.988-.709,1.508-1.01a13.376,13.376,0,0,1,1.992-.812,4.068,4.068,0,0,0,2.5-1.826A2.6,2.6,0,0,0,432.53,472.3Z" fill="#231f20"/>
      <path id="Tracé_429" data-name="Tracé 429" d="M448.235,456.162a.524.524,0,0,0-.21-.423c-2.2-1.666-7.3.38-8.822,2.324-2.2,2.806,2.131,3.283,3.961,3.621,2.424.447,7.068,3.183,9.21.854C454.888,459.807,450.516,457.236,448.235,456.162Z" fill="#231f20"/>
      <path id="Tracé_430" data-name="Tracé 430" d="M432.433,489.663a.482.482,0,0,0-.715.267c-2.81-.149-6.875-.354-8.132,2.8-1.3,3.262,1.744,3.8,4.227,3.791,2.793-.013,6.618,2.214,8.468-.848C438.508,491.988,434.952,491.185,432.433,489.663Z" fill="#231f20"/>
      <path id="Tracé_431" data-name="Tracé 431" d="M462.693,495.03c-.646-2.526-3.326-3.921-4.868-1.45-1.868-.606-3.671-.487-4.5,1.713a2.49,2.49,0,0,0,1.126,3.2c2.05,1.054,4.38-.509,6.043,1.55.809,1,1.369,2.7,2.986,2.156,1.252-.423,2.131-2.4,2.573-3.507C467.139,495.947,465.242,494.049,462.693,495.03Z" fill="#231f20"/>
    </g>
  </g>
</svg>
