<svg xmlns="http://www.w3.org/2000/svg" width="178.58" height="249.45" viewBox="0 0 178.58 249.45">
  <g id="fr-lion" transform="translate(-606 -726)">
    <g id="Groupe_270" data-name="Groupe 270" transform="translate(3.681 59.392)">
      <g id="Groupe_269" data-name="Groupe 269">
        <rect id="bg" width="178.58" height="249.45" rx="8.5" transform="translate(602.319 666.607)" fill="#fff"/>
        <path id="Tracé_169" data-name="Tracé 169" d="M773.819,724.868V676.7a3.012,3.012,0,0,0-3.01-3.01h-158.4a3,3,0,0,0-3,3.01v229.26a3,3,0,0,0,3,3.009h158.4a3.012,3.012,0,0,0,3.01-3.009V758.008m0-.01V724.9m-142.49-13.34a.072.072,0,0,1,.02-.04.137.137,0,0,0-.02.06" fill="#fceef4"/>
      </g>
    </g>
    <g id="Groupe_298" data-name="Groupe 298" transform="translate(2 55)">
      <path id="Tracé_271" data-name="Tracé 271" d="M750.574,829.609a.367.367,0,0,0-.587.421c2.232,3.948,3.506,7.352,1.324,11.669a16.762,16.762,0,0,1-1.318,2.16q-.21.286-.41.579a1.243,1.243,0,0,0-.394.222c-1.2.994-5.886,3.283-7.6,1.482-.631-.661-2.129-.173-2,.771l-.345,1.808a1.239,1.239,0,0,0,.8,1.831,8.858,8.858,0,0,0,3.886.307,7.327,7.327,0,0,0,4.745-1.167c1.568-1.076,4.287-3.539,4.145-5.617.137-.236.271-.473.394-.711A10.986,10.986,0,0,0,750.574,829.609Z" fill="#dbb395"/>
      <path id="Tracé_272" data-name="Tracé 272" d="M734.484,830.266a.612.612,0,0,0-.309-.208c-.484-.931-.961-1.867-1.414-2.829-1.213-2.575-2.886-4.975-3.888-7.634-.932-2.473-.932-5.062-1.515-7.581a6.491,6.491,0,0,0,.334-1.007.312.312,0,0,0-.52-.282,33.851,33.851,0,0,0-2.861,3.3,24.063,24.063,0,0,1-3.667,3.032c-1.342.94-2.8,1.737-4.208,2.584-.084-.389-.175-.776-.235-1.154a11.976,11.976,0,0,0-.66-3.156c.052-.164.1-.328.137-.494a.427.427,0,0,0-.713-.386c-2.039,2.118-3.448,4.142-6.055,5.786-2.732,1.721-5.81,3.885-9.27,3.149a1.265,1.265,0,0,0-.368-.022,3.524,3.524,0,0,1-1.129-1.838.742.742,0,0,0-1.3-.158c-1.049,1.9-3.958,2.939-5.984,4.241a23.012,23.012,0,0,0-3.219-5.553.934.934,0,0,0-1.383-.166c-1.062,1.049-1.935,2.252-2.95,3.34-.645.691-1.379,1.337-1.974,2.069-.346-.18-.738-.338-1.178-.541-.693-.32-1.385-.628-2.056-.968-.474-.409-.973-.791-1.412-1.163-.76-.644-1.529-1.258-2.336-1.83-.18-.173-.361-.34-.537-.487a1.024,1.024,0,0,0-.942-1.358,1.7,1.7,0,0,0-.115-.175.36.36,0,0,0-.531-.063c-.8.784-.735,2.324-.768,3.345-.007.227-.023.483-.031.747-.149-.037-.3-.073-.44-.119a17.5,17.5,0,0,1-4.7-2.392,18.235,18.235,0,0,1-5.845-6.924.745.745,0,0,0-1.112-.133c-.221.207-.793.1-1.376-.087.339-.812-1.4-1.93-1.8-.553a66.094,66.094,0,0,0-2.2,18.906c.022,2.3.014,5.052.249,7.79a26.794,26.794,0,0,0,4.347,15.377c.637,4.567,9.081,8.42,13.153,7.841,5.92-.843,6.963-6.047,5.17-10.335,2.684,1.3,7.231,1.28,10.237.173-1.787,4.6.089,11.016,5.95,11.4,5.133.333,9.367-4.873,10.678-9.786a11.075,11.075,0,0,0,2.83.245,8.621,8.621,0,0,0,5.864,8.278,1.447,1.447,0,0,0,.843.059c2.812,1.2,5.7,1.3,9.48.795a19.575,19.575,0,0,0,12.2-6.963C741.68,848.582,740.772,838.112,734.484,830.266Z" fill="#dbb395"/>
      <path id="Tracé_273" data-name="Tracé 273" d="M722.266,762.845c-.818-3.214-1.79-8-4.132-11.1l-.411-.989c-.318-.768-.649-1.541-1.042-2.278a8.557,8.557,0,0,0,6.325-2.785c2.215-2.847-.143-5.727-2.7-7.492-4.561-3.155-11.351-.26-12,4.36a47.357,47.357,0,0,0-5.159-2.4c-5.6-2.161-11.7-2.449-17.687-2.083-.476.029-.951.069-1.427.107a16.518,16.518,0,0,0-4.428.517,38.469,38.469,0,0,0-10.4,3.029c-3.362,1.574-7.272,3.85-9.1,7.08a10.073,10.073,0,0,1-.911-.525c-.088-.062-.176-.128-.263-.2-.042-2.1-.193-4.423-1.662-6.028-1.745-1.909-4.574-1.926-6.883-.893-4.058,1.817-6.708,8.957-1.673,10.823a4.281,4.281,0,0,0,2.993.656c1.232-.027,2.457-.188,3.69-.207.1,0,.252-.007.416-.013a3.644,3.644,0,0,1,.483.462,2.323,2.323,0,0,1,.4.777c-2.319,3.309-2.389,7.968-2.615,11.756a43.373,43.373,0,0,0,.018,5.834,18.586,18.586,0,0,0,1.415,9.2,26.132,26.132,0,0,0,7.4,11.977,29.066,29.066,0,0,0,12.282,6.193,32.757,32.757,0,0,0,3.934,1.121,1.517,1.517,0,0,0,.655-.009c10.055,4.347,24.454.97,32.472-5.183a27.635,27.635,0,0,0,9.067-12.9c.518-1.478,2.05-5.537,1.669-8.19C723.866,770.045,723.039,765.88,722.266,762.845Zm-24.52,10.8c-4.707,4.048-14.252,3.427-18.784-.639-2.85-2.557-3.259-6.413-2.176-9.834a7.372,7.372,0,0,1,4.086-5.907,8.163,8.163,0,0,1,2.137-1.144c4.143-1.956,9.689-.431,13.517,2.408C701.594,762.289,702.791,769.307,697.746,773.646Z" fill="#dbb395"/>
      <path id="Tracé_274" data-name="Tracé 274" d="M747.274,771.785a43.333,43.333,0,0,0-4.407-11.975c-1.229-2.234-2.481-5.19-4.562-7.05a10.824,10.824,0,0,1,3.848.543.966.966,0,0,0,.448.045c.512.236,1.255-.3.872-.8a.984.984,0,0,0-.074-.75c-1.606-2.811-2.258-5.974-4.128-8.777a32.4,32.4,0,0,0-7.085-7.535c-1.394-1.087-7.1-5.41-10.773-6.151a9.736,9.736,0,0,1,2.152-1.025c.691-.283.469-1.113,0-1.444-4.554-3.213-10.349-3.936-15.919-4.123-6.033-.2-12.718-.479-18.332,1.895a23.178,23.178,0,0,0-10.167-1.144,18.964,18.964,0,0,0-4.692.312.374.374,0,0,0-.186.107,2.365,2.365,0,0,0-.326,0,.2.2,0,0,0-.2.241,6.766,6.766,0,0,0,1.194,1.81c.064.089.124.179.188.267a73.294,73.294,0,0,0-9.526-.329c-2.7.04-5.923.146-8.531,1.21-1.333.181-2.668.386-4.013.619a.989.989,0,0,0-.694.522c-.053-.008-.106-.021-.16-.027-.915-.108-1.005,1.056-.422,1.447A15.786,15.786,0,0,1,654.5,732.1c-3,.338-5.863,2.042-8.362,3.557-2.588.8-5.448,2.117-6.158,4.005a15.667,15.667,0,0,0-3.651,3.766,1.036,1.036,0,0,0-.542,1.745c1.446,1.249,3.334,1.554,5.005,2.309-.582.62-1.435,1.249-1.87,1.72-.906.984-1.783,1.994-2.594,3.047a22.789,22.789,0,0,0-3.773,6.478c-.8,1.363-1.54,2.76-2.351,4.123a.91.91,0,0,0,.837,1.355c1.327-.055,2.605-.079,3.905-.043-.435,1.267-.776,2.569-1.2,3.684-.768,2.02-1.865,4.571-1.74,6.886-.167.908-.3,1.82-.383,2.734-.227,2.59.4,5.136.306,7.692a.993.993,0,0,0-.016.335c-.007.106-.006.211-.015.316-.083.935,1.073,1.3,1.83.976l2.135-.782a7.5,7.5,0,0,1,2.612.885,4.659,4.659,0,0,1,1.228,1.066c-.453,2.568.186,5.191.5,7.818.4,3.314,1.59,5.1,3.737,7.62a1.227,1.227,0,0,0,1.829-.219,4.711,4.711,0,0,1,2.3-1.737,13.114,13.114,0,0,0,1.119,1.914c1.133,3.533,4.888,7.022,7.779,9.2,1.09.821,2.108,1.146,3.3.212.076-.06.153-.131.229-.2a14.053,14.053,0,0,0,2.323,3.608,19.242,19.242,0,0,0,3.339,3.454,9.161,9.161,0,0,0,3.863,2.575,1.266,1.266,0,0,0,1.609-1.139,4.554,4.554,0,0,1,1.089-2.761c1.538,2.677,4.783,4.359,7.2,6.281a1.316,1.316,0,0,0,1.73,0c1.727-1.712,3.829-3.18,5.749-4.769.722,1.726,1.682,3.417,2.468,5.076a1.088,1.088,0,0,0,1.424.347c2.2-1.447,4.4-2.808,6.505-4.294.452,2.016,3.514,3.068,6.164,2.153,2.769-.957,5.1-3.256,7.243-5.04,1.325-1.1,2.944-2.245,4.392-3.5.063,1.283.129,2.566.246,3.846a1.12,1.12,0,0,0,1.862.717c1.221-1.274,2.817-1.993,4.235-3.042a22.563,22.563,0,0,0,3.92-3.984,41.459,41.459,0,0,0,2.583-3.3,3.95,3.95,0,0,0,.875.534,1.032,1.032,0,0,0,1.735.57c1.522-1.79,3.721-2.264,5.035-4.328a17.6,17.6,0,0,0,2.215-6.173c1.777-4.012,2.453-8.284.648-12.047a14.039,14.039,0,0,1,3.67,2.668,1.014,1.014,0,0,0,1.636-.4c1.009-5.811,0-11.229-.909-16.933a15.492,15.492,0,0,0,2.061-.039c.122.068.247.13.363.21A1.012,1.012,0,0,0,747.274,771.785Zm-77.7-30.352a52.148,52.148,0,0,1,8.021-3.258c3.507-.376,7.017-.74,10.549-.781,7.123-.081,13.157,1.914,19.7,4.216a1.307,1.307,0,0,0,1.644-1.527c-.009-.053-.007-.1-.014-.149,2.955-2.546,6.894-4.755,10.74-2.133,3.643,2.482,4.763,11.688-2.125,10.334a.6.6,0,0,0-.493,1.087c.058.04.119.07.179.106,2.17,4.866,4.4,9.752,5.415,14.976a23.971,23.971,0,0,1,.228,9.62c-.495,2.34-1.43,4.561-1.7,6.92a99.216,99.216,0,0,1-5.376,10.49c-3.784,3.752-8.032,5.819-13.165,8.021a.4.4,0,0,0-.246.527,37.133,37.133,0,0,1-3.819.935c-3.428.624-6.927.75-10.382,1.142a55.933,55.933,0,0,1-12.533-2.193,38.982,38.982,0,0,1-11.363-5.952c-2.34-1.671-3.953-4.251-6.35-5.794-2.312-4.3-4.154-8.143-4.584-13.142-.372-4.325-.006-8.6-.005-12.9.609-2.767,1.124-5.986,2.672-8.111a.893.893,0,0,0-.824-1.334c-4.554.175-9.65.337-9.6-5.384.027-2.942,2.093-5.222,5.186-5.96,2.4-.574,3.8.243,5.784.851a8.041,8.041,0,0,1,1.765,5.384c-.06.874,1.4,1.258,1.81.455C662.335,744.705,666.358,743.014,669.574,741.433Z" fill="#efcdb4"/>
      <g id="Groupe_297" data-name="Groupe 297">
        <path id="Tracé_275" data-name="Tracé 275" d="M723.721,745.806c1.265-2.613.02-5.409-2.173-7.206-2.386-1.955-5.5-3.016-8.535-1.776-1.947.8-4.5,2.63-4.273,4.779-8.456-3.386-17.741-5.324-26.958-4.174-7.75.966-17.032,4.348-21.642,10.587-1.005-1.439-1.09-3.179-1.943-4.683a6.246,6.246,0,0,0-3.2-2.68,7.111,7.111,0,0,0-7.837,1.969,6.848,6.848,0,0,0-.217,8.56c2.214,3.007,5.762,2.424,9.1,1.609a.193.193,0,0,0,0-.377c-2.929-.566-5.58,1.324-7.947-1.317a5.939,5.939,0,0,1,8.065-8.678c1.957,1.633,1.693,4.295,3.174,6.2.334.43,1.054.128.97-.3,3.126-2.557,6.095-5,9.873-6.731a39.162,39.162,0,0,1,12.04-3.245c9.344-1.013,18.739,1.1,27.22,4.676.655.276,1.228-.626.569-.9-.223-.094-.449-.182-.672-.274.12-1.986,1.878-3.422,3.793-4.238,2.764-1.177,5.6-.165,7.735,1.63,1.614,1.356,2.8,3.375,2.168,5.442a5.055,5.055,0,0,1-6.235,3.2.49.49,0,0,0-.409.881c0,.007,0,.015.008.023,5.093,8.509,8.032,18.479,6.047,28.211a28.889,28.889,0,0,1-15.362,20.335c-8.215,4.051-18.157,4.415-27.093,2.534-9.5-2-18.17-6.687-22.489-15.1-5.1-9.934-4.007-21.647-.43-31.828.069-.2-.245-.264-.326-.083-4.1,9.2-4.8,20.409-1.121,29.842,3.436,8.81,11.118,14.466,20.585,17.189,9.194,2.644,19.631,2.934,28.634-.5a29.655,29.655,0,0,0,17.8-18.9c3.364-10.625.632-21.905-4.87-31.476A6.009,6.009,0,0,0,723.721,745.806Z" fill="#231f20"/>
        <path id="Tracé_276" data-name="Tracé 276" d="M668.048,756.706a2.252,2.252,0,0,0-.595-1.214.417.417,0,0,0-.62.074c-.037.053-.067.109-.1.163a1.728,1.728,0,0,0-1.5.058,1.53,1.53,0,0,0,.463,2.811,1.253,1.253,0,0,0,.351.267,1.3,1.3,0,0,0,.858.468,1.129,1.129,0,0,0,1.294-.982c.023-.039.051-.074.07-.115A1.469,1.469,0,0,0,668.048,756.706Z" fill="#231f20"/>
        <path id="Tracé_277" data-name="Tracé 277" d="M709.152,755.873a.983.983,0,0,0-.794-.477c-.014-.006-.028-.009-.042-.014a.143.143,0,0,0-.043-.1.924.924,0,0,0-1.279,0,1.379,1.379,0,0,0-1.1,1.963,1.282,1.282,0,0,0,1.272.756.426.426,0,0,0,.384.005,1.473,1.473,0,0,0,.179-.12A1.411,1.411,0,0,0,709.152,755.873Z" fill="#231f20"/>
        <path id="Tracé_278" data-name="Tracé 278" d="M692.111,769.186l-.138-.067a.271.271,0,0,0-.4.214c0-.207-.964-.719-1.126-.865a5.059,5.059,0,0,1-.956-1.184,6.3,6.3,0,0,1-.658-1.888,7.815,7.815,0,0,0-.076-2.077,2.406,2.406,0,0,0,1.084-.545,3.737,3.737,0,0,0,.8-.411c.034-.021.07-.036.1-.058.014-.009.017-.022.029-.032.055-.039.115-.07.168-.113a.375.375,0,0,0-.084-.609,4.32,4.32,0,0,0-.684-.268,1.269,1.269,0,0,0-.206-.3,1.559,1.559,0,0,0-.335-.322,2.885,2.885,0,0,0-2.417-.2,2.751,2.751,0,0,0-.491.09,2.6,2.6,0,0,0-.687.327c-.361.153-.7.314-.992.452a.368.368,0,0,0-.232.427c-.038.027-.079.047-.117.075a.374.374,0,0,0,.085.608,5.919,5.919,0,0,0,.869.355,3.148,3.148,0,0,0,1.3.423l.055.008a2.924,2.924,0,0,0,1.122.171,11.236,11.236,0,0,1-.2,2.74,13.324,13.324,0,0,1-1.726,3.8.344.344,0,0,0,.55.394,8.328,8.328,0,0,0,1.851-3.593,5.465,5.465,0,0,0,.654,1.324c.49.723,1.528,1.943,2.56,1.916a.388.388,0,0,0,.327-.174l.1-.168A.326.326,0,0,0,692.111,769.186Z" fill="#231f20"/>
        <path id="Tracé_279" data-name="Tracé 279" d="M701.255,764.67c-1.4-5.694-7.435-9.682-13.6-9.769a.378.378,0,0,0-.274.109c-4.2-.216-8.748,1.652-10.491,5.261-2.162,4.477-2.328,10.587,2.074,13.886a14.324,14.324,0,0,0,7.251,2.571c3,.294,6.595.261,9.4-.883A9.612,9.612,0,0,0,701.255,764.67Zm-3.514,8.818c-2.539,2.292-6.156,2.561-9.531,2.513-3.232-.046-6.56-.712-9.041-2.749-2.809-2.307-3.121-5.48-2.6-8.75.48-2.98,1.559-5.886,4.565-7.417a16.783,16.783,0,0,1,6.717-1.391,17.92,17.92,0,0,1,7.9,2.662,10.951,10.951,0,0,1,4.9,8.056A8.781,8.781,0,0,1,697.741,773.488Z" fill="#231f20"/>
        <path id="Tracé_280" data-name="Tracé 280" d="M751,829.257l-.134-.117a.456.456,0,0,0,.294-.068,14.922,14.922,0,0,0,3.594-2.925c.537-.61,1.438-1.423,1.215-2.274a.519.519,0,0,0-.486-.368.7.7,0,0,0-.69.345.464.464,0,0,0,.061.589l.036.036a9.5,9.5,0,0,1-1.813,1.983,13.2,13.2,0,0,1-1.439,1.139,46.636,46.636,0,0,0,.783-6.6c.028-.61-.992-.642-1.019-.032a13.718,13.718,0,0,1-1.467,5.631,33.707,33.707,0,0,0-1.478-7.657.529.529,0,0,0-1.025.1,18.21,18.21,0,0,0,1.038,7.052,47.312,47.312,0,0,1-5.054-5.276.529.529,0,0,0-.9.449c.754,2.881,3.011,4.764,5.328,6.606,1.039,1.882,2.556,3.521,3.542,5.43,1.117,2.165.754,4.959.062,7.2a8.627,8.627,0,0,1-4.181,5.274c-2.458,1.221-4.454.645-6.589-.481a18.644,18.644,0,0,0-1.309-7.851c-1.765-4.373-4.964-8.033-7.278-12.142a34.147,34.147,0,0,1-4.24-14.965.217.217,0,0,0-.066-.145c.244-.365.494-.727.722-1.1q.547.942,1.1,1.882a.5.5,0,0,0,.647.179,21.721,21.721,0,0,0,9.392-22.979,21.159,21.159,0,0,1,3.477,3.382.513.513,0,0,0,.83-.176,27.819,27.819,0,0,0-.134-18.275l3.5.822a.49.49,0,0,0,.632-.55,44.15,44.15,0,0,0-8.431-20.18,7.5,7.5,0,0,1,4.163,1.3.484.484,0,0,0,.73-.487c-2-11.224-10.609-20.9-22.117-24.748a6.446,6.446,0,0,1,2.474-.458c.371,0,.694-.391.475-.714-3.156-4.659-10.239-5.383-15.614-5.855a62.276,62.276,0,0,0-21.45,1.907,50.2,50.2,0,0,0-15.061-.719.372.372,0,0,0-.261.545l1.31,1.728a44.333,44.333,0,0,0-23.552,2.649.405.405,0,0,0-.026.719,11.649,11.649,0,0,1,3.05,2.721,34.668,34.668,0,0,0-19.11,12.977.388.388,0,0,0,.233.586,14.763,14.763,0,0,1,5.266,2.377,28.183,28.183,0,0,0-10.015,16.414.394.394,0,0,0,.48.477,8.367,8.367,0,0,1,3.816-.091,36.753,36.753,0,0,0-2.4,22.739.434.434,0,0,0,.515.293,17.251,17.251,0,0,1,4.093-.572c.329-.007.657,0,.985.017l1.727,1.6a5.318,5.318,0,0,1-.135,1.431,18.1,18.1,0,0,0,.333,5.3,19.515,19.515,0,0,0,5.264,9.6.475.475,0,0,0,.769-.164,6.763,6.763,0,0,1,1.964-3.038,35.711,35.711,0,0,0,8.506,10.588.19.19,0,0,0-.09.1c-2.416,6.786-2.781,14.279-2.492,21.368.264,6.493.65,13.531,3.41,19.588,2.264,4.971,6.871,9.5,12.905,10.1a8.78,8.78,0,0,0,3.237-.24,7.975,7.975,0,0,0,3.5,2.267c.429.126.734-.457.334-.675a13.838,13.838,0,0,1-2.9-1.92,6.693,6.693,0,0,0,1.629-1.011,7.953,7.953,0,0,0,3.266,1.62.358.358,0,1,0,.228-.678,15.6,15.6,0,0,1-2.6-1.267c-.107-.071-.2-.149-.3-.225a7.869,7.869,0,0,0,1.834-3.424c1.481,1.33,2.84,2.77,4.332,4.123.276.25.781-.046.568-.38a17.231,17.231,0,0,0-4.718-4.6,10.528,10.528,0,0,0-.117-4.029c-1.693-7.5-10.4-13.342-7.515-21.6.2-.582-.708-.815-.957-.277-2.364,5.106,1.024,10.421,3.778,14.715,1.6,2.492,3.189,5.052,3.693,7.957a9.819,9.819,0,0,1,.1,2.535c-.688-.455-1.385-.892-2.07-1.316-.29-.179-.576.246-.288.424a20.464,20.464,0,0,1,2.256,1.638,6.849,6.849,0,0,1-1.687,3.58c-.354-.322-.694-.657-1.059-.98a.219.219,0,0,0-.358.24,5.178,5.178,0,0,0,.866,1.243,5.565,5.565,0,0,1-1.617.9,20.647,20.647,0,0,1-1.36-2.071.259.259,0,0,0-.477.17,5.847,5.847,0,0,0,.944,2.158c-6.275,1.377-12.1-4.438-14.363-9.182-2.682-5.616-3.246-12.3-3.6-18.364a79.62,79.62,0,0,1,2.008-22.225c.692.577,1.4,1.141,2.139,1.675a.5.5,0,0,0,.572-.051l1.059-1.02a18.7,18.7,0,0,0,11.278,10.068.512.512,0,0,0,.665-.439,14.873,14.873,0,0,1,.5-3.766,32.213,32.213,0,0,0,8.76,6.893.559.559,0,0,0,.725-.153,28.483,28.483,0,0,1,5.11-6.044,33.72,33.72,0,0,1,3.1,6.25.547.547,0,0,0,.866.242c2.233-1.577,4.389-3.236,6.5-4.951.237,2.612,4.018,3.571,6.542,2.6a20.907,20.907,0,0,0,5.987-4.115c1.871-1.646,3.6-3.423,5.3-5.215q.25,2.622.495,5.244a.512.512,0,0,0,.746.429,30.668,30.668,0,0,0,10.793-9.417c0,7.233,2.728,13.549,6.761,19.661,2.083,3.158,4.174,6.372,4.976,10.05a18.376,18.376,0,0,1-.892,10.562c-2.581,6.6-9.194,11.312-16.649,12.217-3.771.458-7.945-.035-11.093-2.144a8.779,8.779,0,0,1-1.464-1.243,9,9,0,0,0,2.12-2.015c.143-.2-.117-.453-.341-.338a25.282,25.282,0,0,0-2.429,1.6,8.3,8.3,0,0,1-1.3-2.455,11.437,11.437,0,0,0,1.7-.145.262.262,0,0,0,.018-.51,12.4,12.4,0,0,0-1.959-.271,6.141,6.141,0,0,1,.165-2.962,3.42,3.42,0,0,0,1.674-.428.166.166,0,0,0-.032-.308,5.127,5.127,0,0,0-1.269-.149c.069-.136.134-.274.216-.407,3.33-5.474,15.313-2.821,16.037-10.525.061-.649-.976-.654-1.073-.033-.669,4.3-6.154,5.081-9.8,6.127-2.8.8-5.451,2.146-6.592,4.693a8.431,8.431,0,0,0-1.335-.283c.084-.415.165-.828.24-1.237a59.667,59.667,0,0,0,.484-19.356c-.076-.517-1.05-.433-.994.093A66.276,66.276,0,0,1,704,850.67c-.906,4.73-3.439,11.975-9.367,12.582a7.432,7.432,0,0,0-.317-2.746c-.093-.278-.558-.261-.567.054a26,26,0,0,1-.17,2.729,9.165,9.165,0,0,1-1.162-.1,6.809,6.809,0,0,1-2.457-.9,5.845,5.845,0,0,0,.976-1.845.289.289,0,0,0-.475-.277,15.642,15.642,0,0,0-1.324,1.528,6.55,6.55,0,0,1-1.833-2.416,5.024,5.024,0,0,0,1.332-1.892c.066-.2-.195-.337-.359-.21a15.918,15.918,0,0,0-1.288,1.2,5.807,5.807,0,0,1-.179-1.708c.135-3,1.879-5.893,2.48-8.836a26.8,26.8,0,0,0-1.587-15.9c-.093-.219-.5-.077-.417.148a27.8,27.8,0,0,1,.77,17.35c-.941,3.213-2.685,6.485-1.8,9.579a10.98,10.98,0,0,1-.958.682,5.87,5.87,0,0,0-1.117.713.442.442,0,0,0,.429.741,4.7,4.7,0,0,0,2-1.212,6.918,6.918,0,0,0,1.144,1.7,7.68,7.68,0,0,0,.808.76c-.177.206-.356.41-.551.6-.9.886-2.091,1.556-2.922,2.473-.369.407.038.937.573.741a9.146,9.146,0,0,0,3.215-2.622c.173-.191.348-.39.521-.594a7.857,7.857,0,0,0,4.03,1.147,8.511,8.511,0,0,1-.262.94,20.059,20.059,0,0,1-2.361,3.982c-.257.411.275.76.653.5a8.134,8.134,0,0,0,3.1-5.48,9.591,9.591,0,0,0,4.313-1.616c3.5-2.385,4.919-6.259,5.77-10.086a3.953,3.953,0,0,0,1.179.365,7.71,7.71,0,0,0-.242,2.939,4.577,4.577,0,0,0-1.519.081.4.4,0,0,0-.028.785,5.14,5.14,0,0,0,1.746.174,8.119,8.119,0,0,0,1.639,3.064c-1.33.819-2.737,1.4-4.077.911-.407-.149-.789.406-.46.682,1.173.98,2.611.565,3.873-.094.44-.23.9-.486,1.346-.762a15.161,15.161,0,0,0,8.718,3.939,22.677,22.677,0,0,0,19.372-7.642,19.15,19.15,0,0,0,3.4-5.988,10.3,10.3,0,0,0,10.253-1.581c3.254-2.518,4.759-6.553,5.091-10.372A10.935,10.935,0,0,0,751,829.257Zm-34.227-10.232c-.182-1.852-.368-3.7-.542-5.556-.033-.349-.516-.686-.835-.352a80.777,80.777,0,0,1-7.3,7.024,17.252,17.252,0,0,1-4.259,2.8c-2.061.833-6.081.241-5.183-2.674a.52.52,0,0,0-.854-.5c-2.236,1.849-4.546,3.613-6.913,5.314a35.573,35.573,0,0,0-3.277-6.36.547.547,0,0,0-.809-.122,29.369,29.369,0,0,0-5.48,6.253,31.235,31.235,0,0,1-8.743-7.128.523.523,0,0,0-.847.18,15.494,15.494,0,0,0-.776,4.2,17.584,17.584,0,0,1-10.321-9.821.493.493,0,0,0-.784-.218c-1,.968-1.065,1.424-2.325.439q-.708-.554-1.385-1.143a35.12,35.12,0,0,1-3.173-3.13,34.056,34.056,0,0,1-5.014-7.417.481.481,0,0,0-.713-.108,7.632,7.632,0,0,0-2.391,3.1,18.123,18.123,0,0,1-4.911-13.481c.1-1.357.564-3.147-1.076-3.877-1.684-.75-4.363-.225-6.2.225a36.124,36.124,0,0,1,2.587-22.318.376.376,0,0,0-.267-.472,9.407,9.407,0,0,0-4.069-.118,27.646,27.646,0,0,1,10.064-15.788.38.38,0,0,0-.063-.615,15.2,15.2,0,0,0-5.336-2.624,33.856,33.856,0,0,1,18.891-12.326.41.41,0,0,0,.287-.6,12.7,12.7,0,0,0-3.032-3,43.407,43.407,0,0,1,23.214-2.23c.3.054.711-.239.48-.542l-1.48-1.943a51.442,51.442,0,0,1,13.27.459.471.471,0,0,0,.556.67c.423-.117.851-.218,1.277-.327.085.018.172.031.257.049a.318.318,0,0,0,.378-.211,61.412,61.412,0,0,1,17.839-1.694c5.122.276,12.79.706,16.29,4.841a7.276,7.276,0,0,0-3.07,1.029.482.482,0,0,0,.094.9c11.316,3.377,20.135,12.528,22.416,23.366a8.344,8.344,0,0,0-4.641-.881.468.468,0,0,0-.38.778,43.412,43.412,0,0,1,8.638,19.787L743.2,772c-.33-.077-.77.194-.633.55a27.123,27.123,0,0,1,.7,17.725,22.348,22.348,0,0,0-4.178-3.658c-.339-.23-.848.119-.731.487a20.738,20.738,0,0,1-8.181,22.986q-.619-1.057-1.24-2.113a.5.5,0,0,0-.815-.025A28.7,28.7,0,0,1,716.769,819.025Zm33.677,9.753c-.135-.114-.272-.227-.409-.34.216-.338.415-.681.6-1.027-.07.367-.135.735-.214,1.1A.491.491,0,0,0,750.446,828.778ZM739.738,850.4a19.479,19.479,0,0,0,.9-4.477,6.294,6.294,0,0,0,4.837,1.107,8.44,8.44,0,0,0,5.809-4.279,12.931,12.931,0,0,0,1.551-7.708,8.537,8.537,0,0,0-1.543-3.52c-.388-.589-.771-1.189-1.163-1.784a10.877,10.877,0,0,1,3.525,4.826C756.081,842.258,749.412,853.5,739.738,850.4Z" fill="#231f20"/>
      </g>
    </g>
  </g>
</svg>
