<svg xmlns="http://www.w3.org/2000/svg" width="178.58" height="249.45" viewBox="0 0 178.58 249.45">
  <g id="fr-mouton" transform="translate(-606 -416)">
    <g id="Groupe_256" data-name="Groupe 256" transform="translate(3.681 59.392)">
      <g id="Groupe_255" data-name="Groupe 255">
        <rect id="bg" width="178.58" height="249.45" rx="8.5" transform="translate(602.319 356.608)" fill="#fff"/>
        <path id="Tracé_162" data-name="Tracé 162" d="M773.819,414.868V366.7a3.012,3.012,0,0,0-3.01-3.01h-158.4a3,3,0,0,0-3,3.01v229.26a3,3,0,0,0,3,3.009h158.4a3.012,3.012,0,0,0,3.01-3.009V448.008m0-.01V414.9m-142.49-13.34a.072.072,0,0,1,.02-.04.138.138,0,0,0-.02.06" fill="#fceef4"/>
      </g>
    </g>
    <g id="Groupe_280" data-name="Groupe 280" transform="translate(4 51)">
      <path id="Tracé_174" data-name="Tracé 174" d="M680.633,524.443a82.2,82.2,0,0,0-.289-13.087q.092-.586.215-1.163a.887.887,0,0,0-1.47-.856,3.726,3.726,0,0,1-.471.375,1.23,1.23,0,0,0-.341.212,11.686,11.686,0,0,1-4.827,1.181,1.1,1.1,0,0,0-.665.263.738.738,0,0,0-.694.875c1.444,5.527.48,11.549,1.409,17.2a1.123,1.123,0,0,0,1.377.782c1.552-.585,3.391-.156,4.988-.03a1.108,1.108,0,0,0,1.1-1.1C680.913,527.582,680.782,526.024,680.633,524.443Z" fill="#f2d3bd"/>
      <path id="Tracé_175" data-name="Tracé 175" d="M694.916,524.505c-.1-1.885-.524-3.683-.794-5.545a1.082,1.082,0,0,0-1.038-.791,34.2,34.2,0,0,1-4.715-.446,1.377,1.377,0,0,0-.81.128.652.652,0,0,0-.865.4c-.554,1.372.284,3.9.407,5.356a53.873,53.873,0,0,1,.115,7.016,1.187,1.187,0,0,0,1.492,1.137c1.583-.517,5.463.292,6.089-1.794C695.259,528.425,695.005,526.111,694.916,524.505Z" fill="#f2d3bd"/>
      <path id="Tracé_176" data-name="Tracé 176" d="M715.627,526.227c.071-2.111-.418-4.438.04-6.506a.936.936,0,0,0-.891-1.17,48.029,48.029,0,0,1-5.167-.353.759.759,0,0,0-.516.135.441.441,0,0,0-.666.284,29.583,29.583,0,0,0,.519,12.136,1.088,1.088,0,0,0,1.033.787c1.516.016,5.137.84,5.646-1.293A25.559,25.559,0,0,0,715.627,526.227Z" fill="#f2d3bd"/>
      <path id="Tracé_177" data-name="Tracé 177" d="M731.871,529.388c-.949-4.236.3-8.7-.935-12.939a32.3,32.3,0,0,0-.057-5.75c-.325-2.733-.406-2.811-2.515-3.4a.775.775,0,0,0-.933.913c-.035.033-.07.052-.1.09-.56.622-.777,2.2-1.148,2.923a17.687,17.687,0,0,1-3.329,4.447,1.135,1.135,0,0,0-.294,1.112,16.949,16.949,0,0,1,.659,3.413,18.861,18.861,0,0,0,.064,3.739,42.005,42.005,0,0,0,.857,6.243c.834,2.974,4.839.768,6.728.527A1.065,1.065,0,0,0,731.871,529.388Z" fill="#f2d3bd"/>
      <path id="Tracé_178" data-name="Tracé 178" d="M665.46,495.826c-2.634-3.755-6.19-6.229-10.927-8.29-6.162-2.68-13.216-5.272-20.036-5.342-.348-.134-.693-.269-1.025-.408a1,1,0,0,0-1.227.7c-1.964,8.7-2.658,17.468,5.045,23.556a19.9,19.9,0,0,0,14.384,4.05c5.334.709,12.175-3.222,14.962-6.954a7.965,7.965,0,0,0,.954-1.6,1.5,1.5,0,0,0,.327-.478C668.934,498.5,667.3,497.157,665.46,495.826Z" fill="#ffe9ed"/>
      <path id="Tracé_179" data-name="Tracé 179" d="M670.075,480.744c.373-4.395-.071-8.806.44-13.2a1.008,1.008,0,0,0-.732-.962,7.99,7.99,0,0,1-4.068-2.537.956.956,0,0,0-1.33,0,4.12,4.12,0,0,1-7.034-3.076.844.844,0,0,0-1.257-.722,7.983,7.983,0,0,1-1.071.617c-.068-.006-.132-.019-.2-.02a1.016,1.016,0,0,0-.8.378q-3.027.736-5.068-3.245a5.07,5.07,0,0,0,.346-.781.586.586,0,0,0-.263-1.1.55.55,0,0,0-.275.073.671.671,0,0,0-.148-.017c-1.218.027-2.432.136-3.652.116a12.258,12.258,0,0,0-3.082.074,6.306,6.306,0,0,0-4.785.906,3,3,0,0,0-.874,4.019,2.833,2.833,0,0,0,2.446,1.01,8.32,8.32,0,0,0,5.414-.41,12.354,12.354,0,0,0,2.857-1.573,5.1,5.1,0,0,0,1.171-1,4.425,4.425,0,0,0,.143.477.9.9,0,0,0-.5.505c-1.771,3.99-5.114,6.434-7.9,9.637-2.684,3.088-4.221,6.973-7.028,9.952a1.156,1.156,0,0,0,.808,1.949c6.381.258,13.2,2.5,19.123,4.824,5.985,2.346,11.352,5.889,14.621,11.552.715,1.237,2.316.326,2.1-.879a1.062,1.062,0,0,0,.05-.13A43.46,43.46,0,0,0,670.075,480.744Z" fill="#f2d3bd"/>
      <path id="Tracé_180" data-name="Tracé 180" d="M677.428,465.418c-1.308-1.15-4.347-1.967-5.476-.239a.91.91,0,0,0-.122.432c-.015,0-.027-.005-.042-.006a.6.6,0,0,0-.417,1c1.92,1.788,2.641,4.621,4.6,6.323,1.5,1.308,3.857.851,4.082-1.322A8.341,8.341,0,0,0,677.428,465.418Z" fill="#f2d3bd"/>
      <path id="Tracé_181" data-name="Tracé 181" d="M749.214,486.624a9.052,9.052,0,0,0-1.268-.384,3.2,3.2,0,0,0,1.022-1.252c1.139-2.372-2.087-4.475-3.535-2.572a13.668,13.668,0,0,1-2.055.989c1.91-3.485,2.486-7.8.995-11.191-1.634-3.711-5.626-5.38-9.835-5.669,1.91-4.134-.741-10.487-4.711-12.416-3.146-1.529-10.789-.795-13.515,2.51a13.6,13.6,0,0,0-13.371-7.284c-3.725.255-10.187,3.683-11.3,7.813a10.386,10.386,0,0,0-4.527-2.564c-5.176-1.368-8.481,2.182-12.218,5.22a1.828,1.828,0,0,0-.7,1.577c-.036.048-.068.1-.1.145a6.194,6.194,0,0,0-.076-1.271c2.389-1.179,4.018-4.6,2.553-6.837-.961-1.464-3.01-1.957-4.672-2.058a4.581,4.581,0,0,0-1.891.3c1-2.809.731-5.993-2.246-7.63a5.317,5.317,0,0,0-5.474.473,10.613,10.613,0,0,0-2.76,2.808,4.591,4.591,0,0,0-2.008-2.418,4.118,4.118,0,0,0-3.089-.526,3,3,0,0,0-3.309,2.453,4.4,4.4,0,0,0,.269,2.051,2.929,2.929,0,0,0,.571,1.286,3.474,3.474,0,0,0-3.143,1.181c-1.479,1.826-.434,3.512,1.219,4.542-.169.444-.312.913-.451,1.379a2.589,2.589,0,0,0,1.168,2.871,5.958,5.958,0,0,0,5.732.158c.313-.146.651-.321.994-.518-.023.316-.035.632-.027.944.044,1.923.737,3.746,2.8,4.264a5.339,5.339,0,0,0,4.746-1.239c.08-.069.152-.156.23-.231a3.67,3.67,0,0,0,.249.467,5.5,5.5,0,0,0,5.385,2.125,4.151,4.151,0,0,0,2.85-2.681,1.468,1.468,0,0,0,1.136,1.3c3.705.662,5.688,4.033,5.306,7.585a3.222,3.222,0,0,1-4.107.482,6.957,6.957,0,0,1-3.021-3.861c-.456-1.088-.5-1.478-1.46-2.109a.592.592,0,0,0-.861.35,3.166,3.166,0,0,0-.176,1.29,4.958,4.958,0,0,0-.041,1.838c-1.66,6.976.4,14.42.687,21.686a52.867,52.867,0,0,1-1.215,5.293,16.934,16.934,0,0,1-3.637,6.8,2.011,2.011,0,0,0,0,2.744c.07.084.137.172.206.256.482,5.023,8.122,4.894,11.5,3.45a16.428,16.428,0,0,0,3.761-2.367c-.139,6.719,5.726,10.95,12.236,9.376a22.92,22.92,0,0,0,9.463-5.233,7.523,7.523,0,0,0,3.559,4.9,9.368,9.368,0,0,0,5.911,1.01,14.69,14.69,0,0,0,6.528-1.564c4.26-2.2,7.045-5.12,7.834-9.4a5.259,5.259,0,0,0,1.125.353c3.232.61,7.059-1.295,9.416-3.413a10.446,10.446,0,0,0,2.9-5.9,1.524,1.524,0,0,0,1.973-.466c.106-.136.205-.265.3-.391h0l.005-.008a7.007,7.007,0,0,0,.662-1.037,1.937,1.937,0,0,0,.216-.794l0-.005a2.235,2.235,0,0,0,3.773,0,3.226,3.226,0,0,0,.2-3.835,2.269,2.269,0,0,0,1.719-.2,2.63,2.63,0,0,0-.414-4.942Z" fill="#d7e0e2"/>
      <g id="Groupe_279" data-name="Groupe 279">
        <path id="Tracé_182" data-name="Tracé 182" d="M748.715,486.221a2.872,2.872,0,0,0-3.442-4.558.468.468,0,0,0,.047-.285,11.7,11.7,0,0,0,.646-7.008,10.773,10.773,0,0,0-10.738-8.386,10.488,10.488,0,0,0-4.462-12.064c-4.609-2.807-10.616-1.357-14.293,2.287-2.129-5.143-7.559-7.811-13.073-7.491-4.953.289-10.53,2.783-12.136,7.763a9.465,9.465,0,0,0-13.713.382,4.94,4.94,0,0,0-.258-2.962,5.545,5.545,0,0,0-6.393-3.066,6.084,6.084,0,0,0-11.263-4.491c-1.537-2.566-4.742-4.044-7.446-1.989a4.12,4.12,0,0,0-1.146,5.168,3.576,3.576,0,0,0-2.319,6.286,31.093,31.093,0,0,1-5.449-.089,13.6,13.6,0,0,0-3.925-.156c-2.117.331-4.134,1.672-4.215,4-.076,2.171,1.642,3.169,3.589,3.408,2.967.366,5.783-.914,8.326-2.338-3.556,6.079-8.991,10.6-12.91,16.513a24.336,24.336,0,0,0-2,23.516c3.658,7.817,11.781,10.83,20.03,10.417a20.247,20.247,0,0,0,12.988-5.133c-.259,2.149,2.646,4.617,4.232,5.286a7.856,7.856,0,0,0,2.67.6c-.573,3.55.118,7.57.306,11.156q.313,5.98.631,11.959a.541.541,0,0,0,.526.526,59,59,0,0,0,7.366.21.562.562,0,0,0,.547-.547,140.2,140.2,0,0,0-.344-23.4,10.832,10.832,0,0,0,5.191,6.067,138.542,138.542,0,0,0,.35,13.909c.058.954-.263,3.037.5,3.812.746.76,2.954.42,3.891.466.988.049,3.159.65,4-.1.763-.68.386-2.539.383-3.414-.012-4.623-.194-9.252-.549-13.862a16.791,16.791,0,0,0,7.824-5.06,8.752,8.752,0,0,0,5.336,4.92c-1.012,5.354-.227,11.464.332,16.827a.523.523,0,0,0,.514.515,29.915,29.915,0,0,1,7.075.213.524.524,0,0,0,.653-.5c-.156-5.613-.233-11.224-.307-16.838a21.176,21.176,0,0,0,5.875-2.473c.429,6.312,1.246,12.53,1.237,18.882a.54.54,0,0,0,.529.529,28.017,28.017,0,0,0,4.881-.007,6.792,6.792,0,0,0,3.123-.649c1.588-1.118.794-4.168.7-5.673q-.691-10.737-1.652-21.452a11.782,11.782,0,0,0,9.247-5.121,10.7,10.7,0,0,0,1.608-4.07,3.05,3.05,0,0,0,2.416-2.041,3.019,3.019,0,0,0,3.937-.576,3.289,3.289,0,0,0,.212-3.792A2.814,2.814,0,0,0,751.7,489.7,3.169,3.169,0,0,0,748.715,486.221Zm-96.887-35.713a3.654,3.654,0,0,0,1.433.766c.359.1.607-.44.259-.616a3.842,3.842,0,0,1-.944-.678.413.413,0,0,0-.213-.215,3.133,3.133,0,0,1,.812-4.95c2.447-1.368,5.07.339,6.014,2.709a.48.48,0,0,0,.917,0c1.059-2.774,4.524-4.48,7.287-3.031a5.505,5.505,0,0,1,2.292,6.954c-.182.44.379.694.712.547a4.538,4.538,0,0,1,5.968,2.229,4.6,4.6,0,0,1-2.557,5.84.494.494,0,0,0-.335.589c1.278,5.084-5.882,7.558-7.868,2.563a.466.466,0,0,0-.84-.11,3.862,3.862,0,0,1-7.035-3.046c.076-.3-.218-.685-.552-.552a10.829,10.829,0,0,1-4.288,1.083c-1.982-.075-4.448-2.208-2.529-4.17a.457.457,0,0,0-.2-.752A2.711,2.711,0,0,1,651.828,450.508Zm26.914,16.84a7.421,7.421,0,0,1,.809,3.32,3.133,3.133,0,0,1-.043,1.076,2.129,2.129,0,0,1-2.921,1.061c-1.588-.773-2.43-2.452-3.157-3.967a4.449,4.449,0,0,0-1.978-2.428,5.094,5.094,0,0,0,2.2-1.7.513.513,0,0,0,.146.073C675.568,465.259,677.707,465.646,678.742,467.348ZM641.405,461.8c-1.107.21-3.255.44-4.2-.332-1.915-1.561-.658-3.835,1.215-4.561,3.5-1.357,7.37.9,10.877-.551a3.1,3.1,0,0,0-.459,1.369c-.1-.079-.249-.094-.311.047-.235.532-.488,1.049-.751,1.557a.45.45,0,0,0-.436.015A20.145,20.145,0,0,1,641.405,461.8Zm-5.881,15.066c4.26-6.173,11.112-11.222,13.308-18.643a3.236,3.236,0,0,0,1.1,2.2c1.925,1.707,4.6,1.043,6.8.221a4.752,4.752,0,0,0,8.353,3.569,4.9,4.9,0,0,0,5.051,2.557c-1.669,8.244.453,16.556-.22,24.854a28.047,28.047,0,0,1-1.257,6.5c-2.575-5.155-8.785-9.066-13.732-11.35a55.966,55.966,0,0,0-10.293-3.491c-3.593-.871-7.8-2.1-11.545-1.953A25.121,25.121,0,0,1,635.524,476.862Zm20.417,32.491c-8.316,1.784-18.123-.415-22.354-8.375a22.819,22.819,0,0,1-.7-19.163c3.306,1.287,7.227,1.491,10.677,2.339A56.207,56.207,0,0,1,654,487.676a35.914,35.914,0,0,1,8.04,5.067c2.414,2.049,4.008,4.554,6.026,6.921a15.764,15.764,0,0,1-12.129,9.689Zm24.682,20.066c-.232.083-.465.154-.7.226a1.652,1.652,0,0,0-.254-.052,14.352,14.352,0,0,0-4.72.107,2.377,2.377,0,0,0-1.2-.116q-.183-3.3-.368-6.594c-.2-3.583.059-7.679-.895-11.144a16.05,16.05,0,0,0,7.425-2.371C680.371,516.134,680.785,522.765,680.623,529.419Zm10.189.681a11.992,11.992,0,0,0-3.32-.129c-.013-.7-.019-1.391-.051-2.063-.155-3.244-.175-6.5-.351-9.739a10.722,10.722,0,0,0,1.818.625,11.7,11.7,0,0,0,4.986.051c.194,3.177.357,6.354.431,9.535.01.436.01.871.018,1.307A8.985,8.985,0,0,1,690.812,530.1Zm21.541.943a12.9,12.9,0,0,1-1.763-.141,1.269,1.269,0,0,0-1.123-.077c-.16,0-.321-.013-.481,0q-.144-1.993-.216-3.991c-.094-2.7.116-5.485-.154-8.17a14.079,14.079,0,0,0,6.687.255c0,3.892.064,7.786.15,11.679A29.62,29.62,0,0,1,712.353,531.043Zm18.878-6.861q.133,1.92.259,3.84c.034.518.118,1.1.194,1.7a.357.357,0,0,0-.045.006,14.53,14.53,0,0,1-4.265.857,25.725,25.725,0,0,0-2.965,0,66.412,66.412,0,0,0-1.7-14.727c2.859-1.942,4.994-4.7,4.947-8.294a11.921,11.921,0,0,0,2.283.291Q730.657,516.013,731.231,524.182ZM739.1,502.07a10.648,10.648,0,0,1-11.934,4.065.632.632,0,0,0-.795.606c1.075,10.411-19.849,16.525-22.849,5.406a.626.626,0,0,0-1.039-.275c-2.946,3.711-7.512,6.535-12.412,5.86-4.7-.647-8.607-4.876-8.2-9.708a.609.609,0,0,0-.908-.521c-2.6,1.495-5.451,3.174-8.554,3.127a6.836,6.836,0,0,1-3.474-1.021,5.776,5.776,0,0,1-1.768-1.67c-.248-.379-.455-1.444-.785-1.884.019,0,.037-.012.056-.016a1.567,1.567,0,0,1-.131-.685.894.894,0,0,1,0-.421.777.777,0,0,1,.112-.238l-.041-.013a17.585,17.585,0,0,0,3.307-5.688c3.709-10.417-.455-21.541,1.622-32.174,1.393,1.974,2.039,4.539,3.948,6.1,1.208.989,3.349,1.682,4.567.315s.616-4.343-.021-5.817c-.968-2.241-3.381-3.142-5.613-3.637a5.167,5.167,0,0,0,.294-2.991,6,6,0,0,0,2.465-2.356.23.23,0,0,0,.2-.093,8.868,8.868,0,0,1,14.015-.495.521.521,0,0,0,.865-.229c1.162-5.064,6.6-7.514,11.379-7.789,5.315-.306,10.646,2.419,12.216,7.74a.642.642,0,0,0,1.065.281c3.095-3.6,8.543-5.391,12.953-3.091a9.147,9.147,0,0,1,4.07,11.646.648.648,0,0,0,.722.938c5.037-.933,9.8,3.267,10.387,8.187.621,5.186-2.715,9.924-6.959,12.549a.645.645,0,0,0-.129,1A10.638,10.638,0,0,1,739.1,502.07Zm8.336-11.044c-.364-.251-.787.309-.469.608a2.467,2.467,0,0,1,.658,3.281c-.634,1.284-1.91,2.008-3.317.761a.4.4,0,0,0-.665.175,2.216,2.216,0,0,1-1.687,1.935,12.409,12.409,0,0,0-2.814-9.016,16.971,16.971,0,0,0,5.207-5.446c.012-.008.026-.007.036-.019a3.6,3.6,0,0,1,1.679-1.3q4.959,1,1.141,4.3a.4.4,0,0,0,.212.769c1.186-.285,3.2.061,3.414,1.662C751.095,490.7,749.275,492.294,747.432,491.026Z" fill="#231f20"/>
        <path id="Tracé_183" data-name="Tracé 183" d="M650.466,465.049a.867.867,0,0,0-.475-.134,1.2,1.2,0,0,0-1.036.81,2.169,2.169,0,0,0,.4,1.7.441.441,0,0,0,.6.156,1.891,1.891,0,0,0,.255-.207.99.99,0,0,0,.756-.476,1.027,1.027,0,0,0,.435-.637A.963.963,0,0,0,650.466,465.049Z" fill="#231f20"/>
        <path id="Tracé_184" data-name="Tracé 184" d="M666.882,470.877a.943.943,0,0,0-.249-1.247,1.516,1.516,0,0,0-1.85,2.163,1.143,1.143,0,0,0,.211.264c.707.667,1.488-.124,1.749-.8A1.074,1.074,0,0,0,666.882,470.877Z" fill="#231f20"/>
        <path id="Tracé_185" data-name="Tracé 185" d="M639.325,492.92c-.847-1.94-3.834-2.711-5.629-1.863-.216.1-.047.378.148.352a5.2,5.2,0,0,1,3.042.368.357.357,0,0,0-.061.219,2.213,2.213,0,0,0,1.766,2.128C639.312,494.182,639.589,493.524,639.325,492.92Z" fill="#231f20"/>
        <path id="Tracé_186" data-name="Tracé 186" d="M659.393,498.565a6.134,6.134,0,0,0-2.864-.449.486.486,0,0,0-.173.038,1.284,1.284,0,1,0,.9,2.349,1.16,1.16,0,0,0,.532-1.358,4.126,4.126,0,0,1,1.785.4,3.364,3.364,0,0,1,1.568,2.027.156.156,0,0,0,.3,0C661.878,500.2,660.545,499.02,659.393,498.565Z" fill="#231f20"/>
      </g>
    </g>
  </g>
</svg>
