<svg xmlns="http://www.w3.org/2000/svg" width="178.58" height="249.45" viewBox="0 0 178.58 249.45">
  <g id="fr-vache" transform="translate(-74 -416)">
    <g id="Groupe_252" data-name="Groupe 252" transform="translate(3.347 59.392)">
      <g id="Groupe_251" data-name="Groupe 251">
        <rect id="bg" width="178.58" height="249.45" rx="8.5" transform="translate(70.653 356.608)" fill="#fff"/>
        <path id="Tracé_160" data-name="Tracé 160" d="M242.153,414.868V366.7a3.012,3.012,0,0,0-3.01-3.01H80.743a3,3,0,0,0-3,3.01v229.26a3,3,0,0,0,3,3.009h158.4a3.012,3.012,0,0,0,3.01-3.009V448.008m0-.01V414.9m-142.49-13.34a.072.072,0,0,1,.02-.04.138.138,0,0,0-.02.06" fill="#fceef4"/>
      </g>
    </g>
    <g id="Groupe_292" data-name="Groupe 292" transform="translate(3 65)">
      <path id="Tracé_244" data-name="Tracé 244" d="M217.319,439.836a4.94,4.94,0,0,1,1.171,4.157,1,1,0,0,0,.716.944c7.777,2.787,16.115-.353,18.012-7.481,2.053-4.876.883-12.125-2.8-15.458-1.924-1.74-9.944-8.078-12.686-4.918-.348.006-.7.021-1.056.053a.7.7,0,0,0-.186,1.372c.294.086.582.177.872.265a1.039,1.039,0,0,0,.75.615c.386.073.751.149,1.109.23,1.9,1.964,3.774,3.919,5.489,6.011.893,3.051,1.243,6.271-.846,8.969-1.861,2.4-6.753,4-9.794,3.933A.875.875,0,0,0,217.319,439.836Z" fill="#f4d6be"/>
      <path id="Tracé_245" data-name="Tracé 245" d="M171.871,426.624c1.71-4.5,8.131-11.785,13.313-7.965.15.021.3.033.45.065a.592.592,0,0,1,.139,1.068c-1.738,1.1-3.6,1.813-5.011,3.387a11.17,11.17,0,0,0-2.48,9.223c.965,4.931,4.744,6.361,8.108,8.821a12.22,12.22,0,0,0,5.51-.567.573.573,0,0,1,.276,0,.641.641,0,0,1,.376-.156.673.673,0,0,1,1.01.554c-.022.524-.146,1.034-.156,1.562,0,.1,0,.2.007.3a.881.881,0,0,1,.007.972,1.807,1.807,0,0,1-.024.206.634.634,0,0,1-.227.374c.057.162.1.327.168.486a.812.812,0,0,1-.558.986c-2.374.712-6.164,1.508-9.03.7a13.311,13.311,0,0,1-7.535-3.764C171.63,439.7,170.041,431.437,171.871,426.624Z" fill="#f4d6be"/>
      <path id="Tracé_246" data-name="Tracé 246" d="M193.9,440.243c.671-2.714,3.311-4.151,5.7-5.163,5.085-2.158,11.539-2.207,15.488,1.818a10.189,10.189,0,0,1,3.47,8.347.839.839,0,0,1-1.641.223,4.54,4.54,0,0,0-.322-.765l-.014-.008a23.731,23.731,0,0,0-3.408-2.567,1.388,1.388,0,0,0-.245.162l-.027.061a41.488,41.488,0,0,1-.118,4.336l.006.038a.889.889,0,0,1-.037.453c-.009.1-.01.2-.019.3a.653.653,0,0,1-1.277.173,11.5,11.5,0,0,0-1.773-3.293c-.8-.81-1.563-1.647-2.293-2.521a53.96,53.96,0,0,1-1.453,5.341c.179.651.369,1.3.542,1.953a1.046,1.046,0,0,1-1.9.8c-.9-1.429-1.828-2.835-2.763-4.238.049,1.172.01,2.364.037,3.414a1.138,1.138,0,0,1-2.1.571,20.58,20.58,0,0,1-1.272-2.052,26.049,26.049,0,0,0-.741,3.079.862.862,0,0,1-.247.481c.043.206.085.414.13.612a.773.773,0,0,1-1.406.6c-1.139-2.072-3.1-4.878-2.355-7.432A11.237,11.237,0,0,1,193.9,440.243Z" fill="#dbad9a"/>
      <path id="Tracé_247" data-name="Tracé 247" d="M88.563,473.794c.193-.562.4-1.135.617-1.705a7.467,7.467,0,0,1,1.635-3.354,8.916,8.916,0,0,1,2.037-2.275,8.552,8.552,0,0,1,2.184-1.831c1.1-.788,1.961-.516,3.07-.31a6.563,6.563,0,0,1,.933-.4.724.724,0,0,1,.661.127q.236-.341.5-.659a11,11,0,0,1,1.338-2.351,6.154,6.154,0,0,1,2.362-2.4,19.27,19.27,0,0,1,8.459-6.553c4.478-1.808,10.544-2.811,15.557-1.452a6.479,6.479,0,0,1,3.666.416c.5.157,1,.342,1.5.545.166,0,.331-.012.5-.009a26.222,26.222,0,0,1,8.366,1.862c6.847.665,13.76,1.238,20.54-.3,6.369-1.443,12.492-3.874,18.731-5.784a1.4,1.4,0,0,1,1.831.066c1.584.263,3.789-.284,5.35-.031.729.118.531,1.077,0,1.292-1.651.668-4.189,1.515-6.158,1.268l-.308.129c-.011.009-.014.021-.026.03-2.471,1.942-1.432,7.239,1.962,7.058a9.41,9.41,0,0,0,4.1-1.382,1.364,1.364,0,0,1,1.641,2.135,10.571,10.571,0,0,0-.873,1.211.927.927,0,0,1,.069.494c-.656,5.487-1.389,10.845-2.584,16.25a36.434,36.434,0,0,0,.048,5.427c.2,2,.544,3.982.852,5.967a32.015,32.015,0,0,0,5.519,7.643c1.483,1.523,4.482,2.787,5.311,4.74.485,1.143-.112,3.026-.17,4.2-.1,2.051-.057,4.117-.076,6.17-.036,3.74.049,7.495-.827,11.151a1.572,1.572,0,0,1-.051.151c.058,2.279.1,4.558.051,6.843a1.609,1.609,0,0,1-1.575,1.581c-2.454.094-4.889.313-7.337.494a1.537,1.537,0,0,1-1.527-1.532,64.424,64.424,0,0,0-.55-11.76c-.521-4.331-.183-8.882-1.957-12.955a1.562,1.562,0,0,1-.128-.534c-.13-.152-.256-.307-.385-.459a2.576,2.576,0,0,0-1.638,1.65c-.458,3.512-.333,7.239-.787,10.776.106,3.258.375,6.53.274,9.788a6.057,6.057,0,0,1,.12.844,11.826,11.826,0,0,1-.156,2.6,1.016,1.016,0,0,1-1.524.705c-.046,0-.089.014-.137.014a58.929,58.929,0,0,0-7.773.243,1.484,1.484,0,0,1-1.84-1.406c-.261-6.754-.751-13.483-.613-20.247.022-1.08-.068-2.686-.052-4.382a27.276,27.276,0,0,1-7.567,2.032c-4.1,1.525-9,1.61-13.071,1.151a47.947,47.947,0,0,1-14.9-4.083,17.3,17.3,0,0,1-2.29-.494c.163,3.647-.622,7.41-.986,11.011-.114,1.122-.187,2.259-.256,3.4a1.214,1.214,0,0,1,.3.793,52.009,52.009,0,0,1-.482,8.629,23.968,23.968,0,0,1-.3,2.592c-.011.526-.032,1.052-.033,1.579a1.279,1.279,0,0,1-2.329.671,1.176,1.176,0,0,1-.677-.053c-2.48.177-5.807-.831-7.441-1.063a1.335,1.335,0,0,1-.92-1.625c1.318-4.935,2.387-9.738,2.083-14.879-.215-3.631-.542-7.315-1.006-10.947a9.313,9.313,0,0,0-1.663-2.107c-.752-.683-1.233-.983-2.241-.481a3.887,3.887,0,0,0-.805.6c-2.009,9.076.214,18.881-1.455,28.034a1.485,1.485,0,0,1-2.472.654c-1.3-1.574-4.226-1.462-6.03-1.394a1.216,1.216,0,0,1-1.037-.447,3.89,3.89,0,0,1-.794-.123.889.889,0,0,1-.63-.83,34.05,34.05,0,0,1,.368-7.338c.253-2.167.424-4.242.534-6.321-.254-6.226-1.585-12.384-2.81-18.481s-2.924-12.822-1.888-19.066c-.022-.145-.053-.288-.071-.435-.217-1.829-.221-3.656-.268-5.495a7.329,7.329,0,0,1,.03-.841,1.064,1.064,0,0,1-.681-.232c-.751.277-1.5.562-2.238.86a5.135,5.135,0,0,1-2.168.64c-.32.427-.633.9-.988,1.316a5.527,5.527,0,0,1-1.354,2.68c-1.616,5.388-1.223,11.628-2.142,17.02-.129.759-1.417.591-1.349-.183C87.735,484.974,86.8,478.938,88.563,473.794Z" fill="#ca8f70"/>
      <path id="Tracé_248" data-name="Tracé 248" d="M179.547,454.091c0,.022,0,.042,0,.064.187,2.208,1.43,2.845,3.03,2.739a7.751,7.751,0,0,0,6.821-1.264c-.919,3.532-1.813,7.075-2.479,10.662-.874,4.7-.621,9.3-.856,14.039a.99.99,0,0,0,1.67.694c5.9-5.149,13.18-7.645,20.626-9.592a41.379,41.379,0,0,1,11.94-1.353c4.117.124,9.065-.1,12.792,1.8a.966.966,0,0,0,1.309-1.313c-3.406-7.063-7.11-13.757-11.056-20.462a14.246,14.246,0,0,0,5.046,2.909,8.286,8.286,0,0,0,4.439.352,3.8,3.8,0,0,0,.316-7.541c-3.289-.564-6.6-.131-9.928-.369-.351-.1-.705-.2-1.07-.3a1.183,1.183,0,0,0-.873.071c-.161-.027-.323-.042-.484-.075a.83.83,0,0,0-.33,0c-.126-.078-.248-.163-.376-.238l-.009,0a.839.839,0,0,0-1.437.333,6.055,6.055,0,0,0-.306,1.747c-.382-.4-.761-.784-1.092-1.134-.879-.927-2.314-2.827-3.745-2.608a.281.281,0,0,0-.2.267,1.71,1.71,0,0,0,.158.715c-.311,1.164-.161,2.516-.389,3.7-.191.293-.4.584-.605.88-.611-1.019-1.435-1.99-2.072-2.9a12.747,12.747,0,0,0-2.929-3.463.336.336,0,0,0-.5.29,5,5,0,0,0,.155.776,39.791,39.791,0,0,0-.77,4.923c-.136.8-.316,1.589-.422,2.381a8.33,8.33,0,0,1-1.37-1.135,22.67,22.67,0,0,1-2.439-3.28c-.132-.2-.533-.151-.5.136a7.212,7.212,0,0,0,.257,1.194c-.143.949-.129,1.917-.29,2.866a1.21,1.21,0,0,1-.187.041,2.889,2.889,0,0,1-.93-.091c-.16-.231-.324-.454-.455-.671-.315-.52-.718-1.4-1.369-1.537a.243.243,0,0,0-.269.11,1.312,1.312,0,0,0-.04.942c-.333.951-.635,1.911-.953,2.868-.144.434-.316.877-.466,1.327a8.615,8.615,0,0,1-1.705-2.738c-.4-1.119-.4-2.569-1.314-3.4a.338.338,0,0,0-.058-.034c-.009-.128-.01-.256-.023-.384a.862.862,0,0,0-1.278-.735,6.278,6.278,0,0,0-2.225,1.525,1.131,1.131,0,0,0-.131.251c-.027.009-.052.013-.078.024-.544.224-1.1.421-1.651.606a39.373,39.373,0,0,0-4.7,1.11c-1.171.345-2.756.569-3.691,1.424A2.441,2.441,0,0,0,179.547,454.091Z" fill="#ca8f70"/>
      <path id="Tracé_249" data-name="Tracé 249" d="M133.491,506.641c-.346-.809-.518-1.741-.883-2.523a.729.729,0,0,1,1.139-.881c.05.046.092.108.139.159a1.447,1.447,0,0,1,.47,0c4.619.711,8.359,3.162,13.253,3.287,3.36.087,7.854-1.15,11,.1a.294.294,0,0,1,.107.071c.175-.094.353-.18.537-.257.283-.12.484.212.445.447a5.629,5.629,0,0,1-.705,1.881,8.429,8.429,0,0,1-3.8,5.55c.6,1.017,1.168,2.062,1.793,3.061A6.359,6.359,0,0,1,158,521.531a1.114,1.114,0,0,1-2.058.559,32.723,32.723,0,0,1-3.863-5.948,19.989,19.989,0,0,1-3.7,1.091c.473,1.892.592,3.852.95,5.788a1.147,1.147,0,0,1,.011.128c.007.05.021.1.026.148h-.015a1.081,1.081,0,0,1-.012.116,2.274,2.274,0,0,1-.2.98.953.953,0,0,1-.847.487c-1.581-.091-2.032-2.336-2.408-3.593a20.978,20.978,0,0,1-.856-3.777,10.722,10.722,0,0,1-2.873-.62c.058.548.094,1.1.153,1.648a15.685,15.685,0,0,1,.028,4.548c-.246,1.325-2.1,1.109-2.44,0l-.012,0c0-.019,0-.038,0-.058a1.213,1.213,0,0,1-.04-.281c0-.073-.007-.149-.01-.224-.023-.245-.043-.49-.048-.735-.183-1.983-.7-4.332-.331-6.275a13.651,13.651,0,0,1-1.41-1.1c-.025.028-.049.058-.075.085-.119.125-.245.245-.369.366a20.471,20.471,0,0,1-.835,2.325c-.46,1.089-1.242,2.76-2.691,2.317a1.307,1.307,0,0,1-.932-1.229A9.6,9.6,0,0,1,134.3,514.7a7.476,7.476,0,0,1,1.626-2.6,11.656,11.656,0,0,1-1.97-4.46C133.8,507.3,133.635,506.977,133.491,506.641Z" fill="#ffe9ed"/>
      <path id="Tracé_250" data-name="Tracé 250" d="M186.443,482.943c.392-2.058,3.275-3.281,4.859-4.268a50.692,50.692,0,0,1,16.636-6.443,40.947,40.947,0,0,1,25.979-.2.737.737,0,0,1,.492.911c1.3,1.744.411,4.8.021,6.765a29.99,29.99,0,0,1-2.889,8.137c-5.635,10.6-20.174,16.113-31.284,11.718a23.172,23.172,0,0,1-11.929-10.649C187.5,487.347,186.086,484.818,186.443,482.943Z" fill="#ffe9ed"/>
      <g id="Groupe_291" data-name="Groupe 291">
        <path id="Tracé_251" data-name="Tracé 251" d="M215.588,454.075a1.319,1.319,0,0,1,.1-.093,1.179,1.179,0,0,1,.607-.6c.467-.187.822.219,1.035.607a1.174,1.174,0,0,1,.427,1.128,1.187,1.187,0,0,1-.407.7.992.992,0,0,1-.352.282.97.97,0,0,1-.453.085.9.9,0,0,1-.773-.179,1.279,1.279,0,0,1-.307-.4.431.431,0,0,1-.506-.3A1.187,1.187,0,0,1,215.588,454.075Z" fill="#231f20"/>
        <path id="Tracé_252" data-name="Tracé 252" d="M194.775,456.6a1.077,1.077,0,0,1,.639-.682.4.4,0,0,1,.4-.129,1.106,1.106,0,0,1,.14.05l.057.009a.981.981,0,0,1,.17-.116c.967-.452,1.567.784,1.363,1.585a1.755,1.755,0,0,1-.729,1.018c-.006.046-.01.093-.017.14a.408.408,0,0,1-.488.289,1.5,1.5,0,0,1-.628-.269c-.029-.01-.058-.011-.087-.023A1.552,1.552,0,0,1,194.775,456.6Z" fill="#231f20"/>
        <path id="Tracé_253" data-name="Tracé 253" d="M221.946,482.9c0-.035-.01-.067-.013-.1a.463.463,0,0,1,.715-.382,3.835,3.835,0,0,1,.707-.235,9.953,9.953,0,0,1,2.1-.153,11.184,11.184,0,0,1,3.12.124.2.2,0,0,1,.006.375c-.75.257-3.159.064-4.754.4a.415.415,0,0,1-.008.206,1.777,1.777,0,0,1-1.913,1.37.456.456,0,0,1-.457-.444A1.767,1.767,0,0,1,221.946,482.9Z" fill="#231f20"/>
        <path id="Tracé_254" data-name="Tracé 254" d="M192.456,487.957a10.163,10.163,0,0,1,3.746-1.375c.52-.058,1.043-.076,1.565-.083a1.757,1.757,0,0,0-.44.52.47.47,0,0,0,.174.625c.809.509,1.959.807,2.578-.142a1.159,1.159,0,0,0-.648-1.828,9.6,9.6,0,0,0-4.221.2,4.308,4.308,0,0,0-2.984,1.855A.167.167,0,0,0,192.456,487.957Z" fill="#231f20"/>
        <path id="Tracé_255" data-name="Tracé 255" d="M81.893,499.844c.979-.941,1.966-1.873,2.95-2.81a29.462,29.462,0,0,0-1.347,3.45c-.165.519.6.8.859.347.363-.643.7-1.3,1.023-1.959-.126.794-.25,1.588-.351,2.386-.049.388.419.783.737.414a6.476,6.476,0,0,0,1.624-3.611c.069-.682.172-1.939-.393-2.485,2.493-3.825,2.471-8.407,2.467-12.877,0-5.519,1.3-14.2,8.436-14.021-.068.322-.133.645-.19.97-1.311,7.461.033,14.959,1.485,22.293,1.713,8.651,2.932,17.206,2.46,26.051q-.2,3.78-.74,7.531c-.24,1.665-.908,3.545-.8,5.234a2.417,2.417,0,0,0,1.754,2.261,35.92,35.92,0,0,0,5.539,1.264c2.7.524,4.813-.19,5.654-2.973,1.064-3.519.928-7.688,1.2-11.332q.481-6.484.682-12.985c.04-1.313.066-2.627.094-3.94a6.133,6.133,0,0,1,.017-1.327l0-.134a1.424,1.424,0,0,1,1.383-1.433,1.4,1.4,0,0,1,1.263.8l.032-.009q.2.456.4.912a27.908,27.908,0,0,1,1.081,6.356c.874,8.787-.366,17.6-1.6,26.294a.637.637,0,0,0,.613.78q3.109.233,6.217.465c1.4.1,3.225.546,4.561-.082,2.354-1.107,1.661-5.489,1.765-7.543q.59-11.733,1.211-23.464a28.982,28.982,0,0,0,3.126,7.751,7.724,7.724,0,0,0-2.348,4.314c-.176,1.062-.334,2.738.885,3.26,2.22.952,4.1-2.255,3.9-4.419a9.755,9.755,0,0,0,1.55,1.151,19.377,19.377,0,0,0,.112,5.313c.161,1.044.31,2.593,1.685,2.617,2.692.046,2.381-4.494,1.636-6.568a15.014,15.014,0,0,0,2.366.356,18.387,18.387,0,0,0,.963,4.737c.359.973,1.11,2.151,2.26,2.258,2.832.263,1.246-5.5.411-7.2a16.128,16.128,0,0,0,3.873-1.272c.34.846.763,1.662,1.149,2.486A20.248,20.248,0,0,0,155,522.376a2.061,2.061,0,0,0,2.794.88c2.586-1.756-.773-6.832-2.351-8.155a12.3,12.3,0,0,0,4.969-8.454c.474-.072.948-.139,1.421-.224,1.868-.336,5.622-.828,7.312-2.431q-.214,10.633-.189,21.27c.006,1.761-.022,3.527.035,5.287a5.836,5.836,0,0,0,.646,3.07c1.192,1.813,4.207,1.765,6.112,1.843,1.7.071,4.845.466,5.758-1.485a10.616,10.616,0,0,0,.42-3.591c.1-1.848.133-3.7.127-5.549-.024-7.164-.6-14.358.365-21.484,2.206,1.3,2.261,4.7,2.492,6.958q.406,3.966.631,7.947c.3,5.442.324,10.894.117,16.34a.54.54,0,0,0,.4.514,32.32,32.32,0,0,0,5.632.465c1.2-.014,2.92.138,3.9-.752s.965-2.561,1.12-3.775q.361-2.84.652-5.687a191.108,191.108,0,0,0,1.034-25.417,23.567,23.567,0,0,0,6.387,1.774c8.5,1.086,17.146-2.444,23.388-8.127a22.857,22.857,0,0,0,6.945-21.208.223.223,0,0,0,.012-.431l-.1-.034c-.053-.278-.1-.556-.162-.833-.971-4.334-3.14-8.146-5.514-11.848q-2.633-4.1-5.32-8.182a15.953,15.953,0,0,0,6.678,2.966,5.845,5.845,0,0,0,5.921-2.306,4.079,4.079,0,0,0-1.179-5.469A6.569,6.569,0,0,0,232.2,445a9.7,9.7,0,0,0,2-1.254c3.8-3.124,5.289-8.583,4.662-13.337a16.576,16.576,0,0,0-7.754-11.8c-3.431-2.147-8.925-4.026-12.421-1.119a.563.563,0,0,0,.127.877c4.787,2.047,9.746,5.632,9.757,11.4a7.321,7.321,0,0,1-4.144,6.749c-1.925.966-5.4,1.994-7.555.929a9.625,9.625,0,0,0-2.42-2.184.484.484,0,0,0-.264-.541c-5.9-3.241-14.088-2.592-19.16,1.98a5.826,5.826,0,0,0-1.707,2.726c-5.663,2.4-12.331.249-14.205-6.085-1.759-5.943,2.193-11.771,8.04-13.122a.581.581,0,0,0,.239-.968c-4.045-3.505-9.754-2.252-13.205,1.451a16.212,16.212,0,0,0-3.806,13.815,15.977,15.977,0,0,0,10.539,12.307c-4.147,1.166-8.263,2.442-12.386,3.69-4.815,1.457-9.6,2.776-14.671,2.828-9.428.1-18.5-3.034-27.876-3.538-6.436-.345-13.329.462-18.813,4.119A21.408,21.408,0,0,0,99.295,464c-5.524-1.4-10.136,4.016-11.441,8.884-1.912,7.132.34,14.583-1.777,21.663l-.052.049a.556.556,0,0,0-.921-.435,6.258,6.258,0,0,1-3.333,1.506.549.549,0,1,0,.163,1.082,9.263,9.263,0,0,0,1.08-.26,27.687,27.687,0,0,0-1.935,2.742C80.76,499.749,81.488,500.234,81.893,499.844ZM193.219,445.3a.6.6,0,0,0-.452.021c-8.224,3.73-18.362-.6-20.878-9.406a15.532,15.532,0,0,1,1.724-12.611c2.6-3.977,7.886-6.616,12.116-3.873a11.612,11.612,0,0,0-7.461,14.78c2.121,5.91,9.3,9.2,14.829,6.173A17.905,17.905,0,0,0,193.219,445.3Zm24.559.466a11.415,11.415,0,0,0-4.794-3.85.512.512,0,0,0-.733.584,8.683,8.683,0,0,1-.192,5.287,38.831,38.831,0,0,0-4.726-6.1.384.384,0,0,0-.636.179q-.591,3.924-1.2,7.845a15.709,15.709,0,0,1-3.464-4.858c-.175-.388-.715-.139-.731.212-.046.978.251,3.145-.2,4.02-.732,1.429-1.9-1.309-2.336-2.1a.412.412,0,0,0-.744.11c-.334,1.817-.691,3.631-1.042,5.446-1.931-1.956-2.6-4.619-2.848-7.345a30.582,30.582,0,0,1-.15-3.568,6.14,6.14,0,0,1,.379-2.079.281.281,0,0,0,.069-.172,6.183,6.183,0,0,1,2.252-2.577,16.761,16.761,0,0,1,16.911-1.155,10.589,10.589,0,0,1,1.823,1.562.47.47,0,0,0,.1.565,3.651,3.651,0,0,0,.845.64A9.526,9.526,0,0,1,217.778,445.77Zm5.051,2.973a.382.382,0,0,0-.41-.1c-.715-1.069-1.418-2.147-2.144-3.207a21.586,21.586,0,0,0,8.7.555c1.7-.089,3.361-.432,5.04.41,2.629,1.318,3.078,4.526.45,6.1C230.813,454.682,225.5,451.235,222.829,448.743ZM233.9,471.549c-7.585-2.377-16.335-2.135-24.019-.732a56.894,56.894,0,0,0-23.283,9.958c-.535-8.373,2.309-16.478,3.031-24.76a.448.448,0,0,0-.022-.194,9.257,9.257,0,0,0,4.159-7.155.466.466,0,0,0-.914-.109c-.975,3.008-2.1,5.584-5.1,7.067-2.279,1.124-8.1,1.988-8.162-1.991-.054-3.407,5.412-3.614,7.809-4.357a8.39,8.39,0,0,0,3.815-2.151,16.483,16.483,0,0,0,2.14-.789c.408,2.825,1.317,5.515,3.6,7.375a.435.435,0,0,0,.716-.2c.307-1.675.612-3.351.925-5.026.682,1.342,1.841,3.284,2.907,2.635.44-.267.386-.884.421-1.315.086-1.054.1-2.122.125-3.186a15.534,15.534,0,0,0,3.444,4.254c.213.184.644.139.692-.2q.561-3.92,1.138-7.838a34.426,34.426,0,0,1,4.414,6.269.489.489,0,0,0,.84-.013,9.666,9.666,0,0,0,.859-5.817,10.649,10.649,0,0,1,4.109,4.006.521.521,0,0,0,.938-.138,10.592,10.592,0,0,0-.676-8.239,12.205,12.205,0,0,0,5.968-.923,8.618,8.618,0,0,0,5.544-5.822c1.724-6.65-3.646-11.778-9.122-14.384,3.658-2.089,9.375.794,12.188,3.156a15.17,15.17,0,0,1,5.452,10.829c.222,4.426-1.492,9.408-5.377,11.846-3.845,2.414-8.421,1.28-12.63,1.036a1.053,1.053,0,0,0-.354.853c2.792,4.6,5.744,9.112,8.646,13.645C230.608,463.025,232.929,467,233.9,471.549ZM186.743,482.37c0-.044-.006-.087-.011-.131a.554.554,0,0,0,.093-.043,57.772,57.772,0,0,1,22.721-10.206,57.1,57.1,0,0,1,12.9-1.168,79.748,79.748,0,0,1,11.6,1.419,22.118,22.118,0,0,1-8.707,22.163c-6.582,5.031-15.339,7.671-23.484,5.409A20.387,20.387,0,0,1,186.743,482.37Zm-33.611,34.239a16.214,16.214,0,0,0,2.213-1.427c.737,2,3.065,4.379,2.34,6.64-.483,1.505-2.062.031-2.5-.865-.271-.551-.52-1.113-.78-1.668C153.987,518.4,153.6,517.476,153.132,516.609Zm-7.445,1.872c.036,0,.073.006.109.006a13.388,13.388,0,0,0,2.535-.211c.09,1.169.374,2.323.474,3.495.015.172.029.346.044.519a.714.714,0,0,1,.08.138,1.985,1.985,0,0,1-.119,1.687l-.005.007a1.176,1.176,0,0,1-.237.259,1.018,1.018,0,0,1-1.5-.337,4.178,4.178,0,0,1-.539-1.227A25.913,25.913,0,0,1,145.687,518.481Zm-5.9,3.613a.761.761,0,0,1,.061-.276,22.468,22.468,0,0,1-.1-2.371c-.024-.784.018-1.562.064-2.342a12.331,12.331,0,0,0,2.305.864,25.417,25.417,0,0,1,.194,2.677,5.66,5.66,0,0,1-.133,1.544,1.591,1.591,0,0,1-.7,1.211,1.033,1.033,0,0,1-1.188-.012A1.528,1.528,0,0,1,139.789,522.094Zm-4.206-8.947c.327.5.666.983,1.033,1.444.1.127.214.244.322.364a9.608,9.608,0,0,1-.535,2.577c-.455.973-2.312,2.952-2.9.7C133.047,516.505,134.339,514.358,135.583,513.147Zm-2.634-9.5a54.2,54.2,0,0,0,19.413,3.634,53.247,53.247,0,0,0,7.215-.5,16.684,16.684,0,0,1-4.333,7.053,13.8,13.8,0,0,1-9.8,3.457,10.531,10.531,0,0,1-9.2-5.41A30.027,30.027,0,0,1,132.949,503.642ZM99.491,467.869c1.8-7.26,6.511-12.984,13.687-15.341,6.96-2.287,14.462-1.544,21.545-.331,8,1.369,16.138,3.289,24.278,1.98a82.344,82.344,0,0,0,11.716-3.186c3.859-1.224,7.722-2.431,11.549-3.753a16.679,16.679,0,0,0,6.513.417,15.165,15.165,0,0,1-3.255,1.123c-1.758.407-3.762.664-5.289,1.7a3.869,3.869,0,0,0-.417,6c2.222,1.964,6.223,1.249,8.647.022a124.213,124.213,0,0,0-2.877,16.849c-.581,5.13-.586,10.49,1.408,15.337A21.248,21.248,0,0,0,197.623,499.6c-.09,6.753-.266,13.492-.809,20.227-.255,3.158-.587,6.31-.977,9.454-1.315-.295-2.772.083-4.127,0a28.22,28.22,0,0,1-4.866-1.036c0-1.343,0-2.686-.037-4.028q-.123-4.983-.542-9.952c-.3-3.635.115-10.406-4.106-12.034a.453.453,0,0,0-.553.327,107.6,107.6,0,0,0-.591,16.733c.059,2.911.118,5.823.031,8.735-.005.179-.015.359-.021.538a29.239,29.239,0,0,0-4.878.081,44.186,44.186,0,0,1-5.681-.253.417.417,0,0,0-.454.245q-.031-3.932-.031-7.864.009-8.8.192-17.594a1.47,1.47,0,0,1-.356-.092,2.851,2.851,0,0,1-.38-.216c-.053.016-.107.03-.159.048-.138.046-.1.031-.118.045,0,.037,0,.074,0,.11-.117.017-.234.044-.35.072l-.046.023a1.612,1.612,0,0,1-.6.174c-.83.3-1.644.757-2.466,1.006a34.513,34.513,0,0,1-4.189.958c-.316.054-.633.093-.95.139a1.34,1.34,0,0,1-.622.089,53.132,53.132,0,0,1-8.312.505,54.047,54.047,0,0,1-18.792-3.816.576.576,0,0,0-.224-.036.263.263,0,0,0-.03-.052c-.157-.012-.316-.032-.479-.052l-.051-.006-.025,0c-.1-.009-.2-.017-.306-.02a.31.31,0,0,0-.078.061.62.62,0,0,0-.749.572q-.548,10.506-1.094,21.013-.137,2.626-.278,5.253c-.009.172-.012.369-.012.58-1.381-.421-3.01-.144-4.444-.239-1.814-.12-3.577-.59-5.382-.694h-.006c.93-7.288,1.536-14.647.6-21.952-.306-2.4-.4-7.16-3.455-7.823-3.364-.731-3.008,3.821-3.056,5.821q-.15,6.3-.567,12.6c-.229,3.467-.31,7.117-.805,10.611-1.546-.462-3.355-.044-4.98-.352a33.277,33.277,0,0,1-4.805-1.682.322.322,0,0,0-.356.112,86.513,86.513,0,0,0,.892-10.29c.207-8.183-1.032-16.1-2.619-24.095C98.98,483.766,97.543,475.719,99.491,467.869ZM87.94,491.3c.624-4.36.038-8.912.227-13.307.279-6.483,3.542-13.883,10.966-13.557a27.942,27.942,0,0,0-1.036,3.371c-4.787-.322-8.139,4.121-9.032,8.474C88.078,481.089,89.251,486.56,87.94,491.3Zm-1.751,8.066c.126-.8.265-1.6.412-2.4,0,.126.007.233.006.287a6.09,6.09,0,0,1-.159,1.311A5.154,5.154,0,0,1,86.189,499.366Z" fill="#231f20"/>
      </g>
    </g>
  </g>
</svg>
