<?xml version="1.0" encoding="UTF-8"?><svg id="Layer_2" xmlns="http://www.w3.org/2000/svg" width="81.87" height="113.62" viewBox="0 0 81.87 113.62"><defs><style>.cls-1{fill:#f4c17d;}.cls-2{fill:#231f20;}</style></defs><g id="Layer_1-2"><g><path class="cls-1" d="M80.9,80.46c.02-.35,.04-.7,.06-1.05,.21-1.47,.25-2.98,.28-4.48,0-.1,0-.2,0-.29,.37-6.55,.63-13.26-.43-19.61-.32-1.91-.87-3.73-1.35-5.61-.44-1.72-.41-3.45-.76-5.17-.1-.48-.36-1.22-.74-1.95,.06-1.45,.04-2.91,.11-4.28,.17-3.17,.3-6.31-.1-9.47-.39-3.03-1.07-6.02-1.53-9.04-.34-2.21-.72-3.95-1.92-5.44-.02-.27-.04-.53-.04-.8-.01-.46-.03-.89-.06-1.31,2.05-1.96,3.49-4.28,3.09-7.31-.43-3.26-3.36-5.12-6.43-3.57-2.35,1.2-3.96,4.18-4.08,6.84-.67-.37-1.52-.54-2.55-.38-2.27,.37-4.59-.76-6.79-1.17-1.92-.36-3.91,0-5.83,0-.97-.11-1.93-.2-2.9-.3v.02c-.86,0-1.55,.3-2.05,.78-.42,.04-.84,.09-1.26,.14-.09,0-.17,0-.26,0-1.75,.15-3.47,.34-5.16,.86-.6,.19-1.04,.51-1.35,.91-.6,.22-1.19,.47-1.75,.76-.27-.78-.72-1.45-1.25-2.13-.14-.19-.36-.34-.6-.47-1.37-2.06-4.14-3.47-6.46-2.71-3.53,1.16-3.44,5.25-2.36,8.12,.48,1.27,1.32,2.53,2.39,3.39-1.75,5.76-3.09,12.43-2.5,18.37,.23,2.34,.48,5.01,1.04,7.59-.25,1.97-.03,4.14-.13,5.87-.15,2.6-.83,5.64-.14,8.19-.73,1.57-1.15,3.36-1.55,4.89-.94,3.66-1.64,7.41-2.4,11.11-1.07,5.15-2.13,10.75-.87,15.93-.52,1.33-.57,2.92-.39,4.49-.66-.32-1.34-.62-2.01-.91-.96-.43-2.1-.93-3.24-1.19-1.17-.97-1.77-2.27-3.11-3.32-2.9-2.25-4.51-5.91-5.12-9.55-.61-3.64,.46-7.45,2.82-10.28,2.71-3.25,7.1-4.65,10.6-6.86,.49-.31,.82-.71,1-1.13,.24-.26,.47-.52,.67-.8,.13-.14,.26-.28,.39-.42,.57-.66,.79-1.39,.77-2.09,.37-1.71-.03-3.51-1.55-4.98-3.4-3.28-8.41-1.91-12.2-.27-4.16,1.8-7.15,4.59-8.73,8.91C.93,62.7,0,67.28,.69,70.96c-.49,3.3,.58,7.28,1.59,10.02,1.01,2.74,3.12,8.24,6.32,9.58,2.18,2.54,4.86,4.64,7.9,6.17,1.22,1.14,2.75,2.06,4.13,2.78,1.31,.68,2.66,1.34,4,1.51,.09,.17,.17,.35,.26,.53,.34,1.25,.91,2.46,1.44,3.4,1.34,2.39,3.49,4.31,6.13,5.11,2.96,.89,6.03,.26,6.84-3.12,.35-1.45,.24-3.18-.25-4.75,.58,.04,1.15-.11,1.66-.39,2.31,4.33,6.58,9.41,11.82,7.37,1.03-.4,1.8-.93,2.36-1.55,.89-.47,1.56-1.23,1.96-2.18,.53-1.25,.63-2.87,.14-4.22,.53,.25,1.09,.46,1.7,.63,.8,.22,1.67,.35,2.56,.39-.2,2.2,.55,4.28,3.06,5.63,3.92,2.11,9.07,.39,11.6-3.02,2.69-3.62,4.3-8.94,4.82-13.38,.38-3.32,.55-7.18,.1-10.79,0-.08,.01-.15,.01-.23h.06Zm-24.01-46.1c-.05,.06-.1,.12-.14,.18-1.43,2.25-5.31,4.2-7.91,4.11-2.4-.08-4.64-1.72-5.82-3.78-1.31-3.16-1.68-6.72,.97-9.36,.13-.13,.23-.26,.33-.39,1.49-1.23,3.11-1.84,5.25-1.88,.28,0,.54,0,.8,.02,1.69,1.32,3.71,2.18,5.13,3.88,1.26,1.5,2.05,4.91,1.38,7.21Z"/><path class="cls-2" d="M24.07,100.52c-.56-.26-1.11-.52-1.67-.79,.41,.14,.83,.21,1.25,.21,.07,0,.13-.02,.19-.03-.35-1.04-.54-2.16-.58-3.2-.49-.26-1.03-.41-1.54-.31-.42,.08-.74,.21-.98,.58-.22,.33-.29,.74-.15,1.12,.19,.52,.55,.92,.99,1.22-6.15-3.06-11.97-6.72-16.03-12.44-2.83-3.99-4.27-8.66-4.53-13.53-.05-.88-.05-1.77-.02-2.65,.12,.19,.26,.37,.41,.54,.25,.29,.51,.52,.9,.6,.35,.07,.8,0,1.09-.22,.61-.45,.85-1.34,.38-2-.44-.6-.88-1.14-1.66-1.27-.38-.07-.73,.03-1.01,.27,.08-.94,.17-1.87,.31-2.8,.37-2.46,.83-5.03,1.9-7.29,1.95-4.12,6.23-7.31,10.47-8.78,2.27-.78,4.86-1.04,7.08,.02,1.94,.93,3.62,2.85,3.68,5.09,.12,5.36-6.98,6.77-10.47,9.06-3.09,2.03-5.3,5.33-6.05,8.95-.96,4.64,.65,9.49,3.63,13.08,.69,.83,1.45,1.58,2.25,2.27-.35,.08-.67,.32-.79,.69-.11,.33-.09,.66,.05,.95,.08,.54,.67,.99,1.2,.93,.67-.07,1.06-.57,1.08-1.22,0-.06,0-.12-.02-.17,1.24,.88,2.57,1.63,3.95,2.27h-.03c-.2-.03-.41-.07-.61-.04-.21,.03-.42,.09-.62,.15-.53,.15-.82,.91-.45,1.36,.27,.33,.52,.6,.91,.8,.34,.17,.72,.26,1.08,.36,.59,.16,1.21-.27,1.39-.81,.13-.37,.05-.87-.21-1.2,.48,.19,.97,.36,1.47,.53-.01-.03-.03-.05-.05-.08h0v-.02s-.04-.06-.06-.09c-.05-.1-.1-.19-.14-.29-.05-.1-.11-.21-.15-.31-.05-.11-.01-.21,.06-.28-4.22-1.5-8.13-4.01-10.65-7.78-2.87-4.29-3.6-9.77-1.15-14.42,1.12-2.12,2.79-3.91,4.84-5.16,2.24-1.36,4.81-2.12,6.94-3.67,3-2.18,4.68-5.89,2.36-9.22-5.34-7.67-17.01-.94-20.87,4.87C.83,60.31,.2,65.67,.03,70.29c-.18,4.83,.61,9.71,2.84,14.03,4.43,8.56,13.06,13.51,21.72,17.27-.19-.34-.37-.69-.52-1.06Z"/><path class="cls-2" d="M80.69,51.12c-.73-3.22-1.91-6.31-2.1-9.64-.18-3.25,.23-6.5,.09-9.76-.14-3.2-.65-6.38-1.34-9.51-.71-3.21-1.46-6.62-2.76-9.65,3.37-2.63,5.31-8.51,1.5-11.59-1.79-1.45-4.2-1.15-6,.14-2.02,1.45-2.96,3.84-3.77,6.1-.74-.2-1.49-.38-2.24-.55-.23-.17-.51-.26-.83-.22-.04,0-.08,.01-.13,.02-7.9-1.6-16.11-1.19-23.81,1.21-.05,0-.11-.02-.17-.04-.73-.22-1.53,.12-1.94,.75-.21,.08-.43,.15-.64,.23-.71-3.95-6.33-6.39-9.58-3.88-1.75,1.35-1.87,3.99-1.49,6,.33,1.76,1.42,4.63,3.34,5.36-4.61,9.53-2.22,20.39-1.93,30.52,.15,5.1-.49,10.06-1.58,15.03-.56,2.58-1.2,5.14-1.78,7.72,0,.03,.01,.05,.01,.09-.03,.41-.12,.81-.21,1.21-.02,.08-.06,.13-.12,.16-.37,1.68-.7,3.36-.97,5.05-.29,1.84-.5,3.69-.63,5.55h0s0,.06,0,.08c-.04,.19-.06,.38-.08,.57-.01,.14-.02,.29-.03,.43,0,.03,.01,.05,.01,.08,0,.04-.01,.08-.02,.11l.05-.04c-.13,2.41-.13,4.82,.01,7.23,.25,4.35,.89,8.79,2.85,12.73,1.63,3.29,4.3,6.35,7.76,7.76,1.8,.74,3.95,.85,5.48-.1,.35,.5,.78,.93,1.26,1.24,.29,.19,.54-.25,.33-.47-.37-.38-.74-.75-1.05-1.17,.43-.38,.78-.86,1.03-1.47,.17,.13,.34,.26,.5,.39,.64,.5,1.29,1.19,2.04,1.5,.25,.1,.6-.17,.4-.44-.5-.64-1.32-1.09-1.98-1.56-.24-.18-.49-.36-.74-.54,.17-.63,.26-1.26,.27-1.89,.09,.05,.18,.11,.26,.16,.61,.38,1.37,.92,2.1,.98,.25,.02,.46-.26,.24-.46-.52-.47-1.31-.7-1.93-1.02-.23-.12-.46-.26-.69-.4-.19-2.52-1.56-4.9-3.36-6.69-2.47-2.45-5.63-4.33-6.64-7.87-.11-.38-.75-.27-.69,.13,.51,3.23,3.26,5.23,5.55,7.28,1.5,1.34,2.92,2.77,3.67,4.67,.23,.57,.41,1.26,.52,1.99-.09-.04-.18-.08-.27-.11-.12-.04-.22,.12-.15,.22,.14,.19,.31,.35,.49,.5,.05,.68,.02,1.37-.12,2.02-.2-.12-.41-.23-.63-.32-.13-.05-.32,.09-.21,.23,.2,.25,.43,.47,.67,.68-.18,.5-.44,.95-.8,1.32-.15-.29-.29-.58-.45-.87-.1-.18-.4-.08-.38,.12,.04,.39,.16,.78,.33,1.16-3.34,2.19-7.98-1.62-9.96-4.09-2.14-2.68-3.37-5.91-4.05-9.24,.11,.15,.23,.3,.36,.45,.49,.56,1.36,.6,2.02,.43l.08-.02c.85-.21,1.32-1.12,1.33-1.93,0-.41-.13-.69-.3-1.01,0-.02,0-.03,.01-.06,.29-.62,.12-1.41,.06-2.07-.1-1.14-1.46-1.63-2.26-.82-.31,.32-.65,.63-.92,.99-.31,.42-.47,.92-.64,1.4-.03,.08-.08,.21-.13,.36,0-.06-.02-.11-.02-.17-.53-4.03-.57-8.03-.27-12,.07-.12,.07-.25,.03-.38,.12-1.46,.29-2.92,.49-4.37,.1,.3,.22,.59,.35,.83,.71,1.35,3.06,.89,3.28-.59,.14-.97,.41-1.99,.29-2.97-.11-.83-.87-1.2-1.54-.91-.26-.11-.54-.16-.8-.15-.41,.02-.75,.17-1.03,.4,.36-2.04,.79-4.08,1.26-6.11,.07-.3,.14-.59,.21-.89,.06,.16,.15,.32,.26,.45,.01,.27,.02,.55,.06,.82,.18,1.32,1.93,1.87,2.62,.58,.24-.45,.38-.92,.43-1.4,.43-.03,.81-.19,1.18-.38,.03-.01,.16-.09,.26-.15,1.74-.11,1.95-3.06,.15-3.28-.55-.07-1.31-.04-1.83,.29-.18-.08-.37-.15-.56-.19-.79-.16-1.49,.15-1.98,.69,.36-1.55,.7-3.1,1-4.66,.54,.66,1.69,.87,2.33,.23,.2,.02,.4,0,.62-.07,.47-.17,.88-.42,1.21-.79h0c.42,.24,.91,.34,1.39,.31,1.31-.08,2.18-1.08,2.2-2.35,.02-1.26-1.13-1.81-2.16-1.62-.14-.11-.29-.21-.45-.27-.58-.21-1.19-.15-1.74,.1h-.01c-.42-.17-.89-.15-1.24,.14-.18-.17-.44-.22-.68-.06-.38,.25-.67,.64-.91,1.07,.06-.43,.12-.86,.18-1.3,.16-1.34,.26-2.69,.31-4.03,.05,.1,.1,.2,.16,.29,.81,1.21,2.9,.95,3.18-.57,.08-.45,.11-.52,.45-.85-.09,.08-.06,.08,.06,0,.03,0,.07-.03,.15-.06,.07-.02,.11-.03,.14-.04,.1,0,.19-.01,.29-.03,1.02-.14,1.86-.88,1.81-1.99-.05-1.02-.96-1.86-1.99-1.81-.73,.04-1.44,.3-2.08,.71-.01-.03-.03-.06-.04-.09-.31-.61-1.11-.49-1.52-.12-.24,.21-.43,.46-.59,.73-.04-1.73-.14-3.46-.27-5.2-.09-1.14-.18-2.28-.26-3.42,.61,.37,1.56,.2,1.68-.66,.03-.19,.05-.41,.07-.65,.77,.56,2.1,.35,2.32-.76,.75-.16,1.32-.94,1.11-1.86l-.03-.14c-.13-.59-.9-1.13-1.5-1.03-.22,.03-.44,.11-.65,.2-.36-1.09-1.93-1.14-2.5-.22-.25-.16-.58-.1-.81,.1-.07-1.65-.09-3.3-.04-4.93,.8,.5,2.23,.12,2.14-1.05,.01-.12,.03-.24,.04-.35,.25,.15,.64,.11,.82-.11,.52-.65,.35-1.39,.27-2.17-.06-.58-.22-1.21-.79-1.41-.04-.15-.1-.3-.2-.44-.18-.29-.6-.45-.92-.33-.43,.17-.7,.45-.91,.79,.37-2.41,.97-4.78,1.93-7.1,.07,.01,.14,.04,.21,.04,.31,.04,.49-.37,.19-.53-1.83-.99-2.89-2.8-3.35-4.79-.45-1.94-.44-4.61,1.38-5.84,1.57-1.06,3.67-.93,5.3-.11,1.62,.82,2.58,2.19,3.31,3.78-.29,.27-.05,.87,.39,.7,.09-.04,.18-.07,.27-.1,.02,.76,.56,1.4,1.33,1.64,.31,.1,.61,.14,.91,.14,.36,.38,.93,.55,1.44,.38h.04c.3,.03,.64-.1,.87-.33,.48-.17,.95-.33,1.46-.42,.81-.15,1.17-1.08,.99-1.84,.08-.55-.15-1.14-.57-1.5,1.46-.33,2.94-.58,4.42-.77-.48,.67-.42,1.72,.46,2.13,.34,.16,.73,.28,.98,.59,.81,1.01,2.09,.77,2.57-.19,0,0,.01,0,.02,0,.17,.03,.49-.07,.69-.12,.56-.14,.98-.39,1.39-.79,.66-.65,.5-1.46,0-1.98,.75,0,1.51,.02,2.26,.06l-.13,.17c-.37,.49-.47,1.08-.13,1.63l.15,.25c.31,.51,.96,.84,1.55,.8,.12,0,.3-.04,.5-.06,.12,.31,.31,.62,.59,.91,.56,.59,1.45,.5,2.11,.17,.41-.21,.61-.44,.73-.69,.29,.04,.58,.08,.72,.07,.61-.05,1.11-.26,1.64-.52,.07,0,.13,0,.2,.01,.87,.05,1.02-.91,.65-1.49,.57,.14,1.13,.28,1.7,.44,.22,.06,.39-.1,.45-.29,.74-2.08,1.53-4.33,3.29-5.78,.96-.79,2.12-1.23,3.25-1.2-.43,.08-.81,.3-1.07,.66-.24,.34-.06,.77,.37,.78,.47,.02,.86,.26,1.2,.46,.31,.18,.66,.31,1.02,.19,.41-.14,.62-.57,.54-.99-.05-.25-.18-.47-.36-.64,.37,.21,.72,.49,1.03,.86,1.36,1.58,1.56,3.73,.91,5.66-.42,1.25-1.15,2.26-1.92,3.27,0-.04,.02-.08,.01-.12,0-.25-.11-.5-.31-.65-.27-.21-.61-.26-.91-.07l-.04,.03c-.41,.26-.39,.79-.09,1.12,.08,.09,.18,.14,.28,.18,.05,.02,.21,.11,.08,.03,.19,.12,.39,.11,.56,.03-.25,.32-.49,.64-.72,.98-.13-.07-.31-.05-.4,.06-.15,.2-.27,.4-.37,.61-.97,1.27-.63,3.09,.88,3.83,.11,.05,.22,.04,.32,0,.2,.12,.52,0,.48-.27,0-.02-.01-.05-.01-.07,.13,.03,.25-.06,.3-.19,.4,1.57,.84,3.13,1.23,4.7-.22-.59-.44-1.14-1.02-1.46-.24-.13-.47-.14-.69-.08-.75-.35-1.68-.08-2.08,.68-.84,1.61-.17,3.66,1.32,4.61,.33,.21,.73,.2,1.08,.06,.25,.09,.53,.13,.8,.08,.68-.12,1.07-.6,1.18-1.17,.31,1.58,.55,3.17,.72,4.77-.34-.41-.84-.63-1.36-.67-.66-.41-1.61-.47-2.22,.03-.07,0-.13,.03-.19,.05-.17-.2-.35-.4-.56-.59-.29-.26-.86-.14-.92,.29-.19,1.52-.01,2.98,.05,4.5,.09,2.12,2.97,1.92,3.35,.31,.33-.13,.61-.36,.8-.66,.19-.09,.35-.21,.48-.36,.32-.14,.57-.38,.74-.67,.06,.98,.08,1.95,.07,2.93-.04,3.16-.43,6.33,0,9.47,.22,1.57,.62,3.1,1.04,4.63-.54-.49-1.49-.55-1.97,.29-.19,.33-.27,.67-.27,1.01-.38,.21-.66,.59-.58,1.05,.11,.62,.22,1.24,.3,1.86,0,.18,.02,.35,.07,.5l.03,.08c.17,.47,.46,.76,.8,.91,.04,.04,.07,.07,.12,.11,.66,.55,1.97,.54,2.33-.41,.15-.39,.22-.74,.25-1.09,.53,2.7,.77,5.45,.88,8.2-.07-.14-.14-.29-.23-.42-.04-.07-.1-.12-.16-.17-.25-.86-1.6-.96-2.06-.14-.02,.03-.04,.06-.06,.09-.5-.01-.99,.2-1.17,.69,.17-.24,.14-.19-.11,.16-.08,.15-.13,.3-.15,.46-.18,1,.72,1.88,1.65,1.7,0,.01,0,.02,0,.03h.02c.05,.72,.55,1.33,1.33,1.4,.39,.03,.73-.08,1-.28,0,1.22,0,2.43-.02,3.64-.4-.55-1.23-.85-1.89-.62-.69-.92-2.09-.52-2.4,.53-.21,.71-.36,1.5-.1,2.22,.06,.17,.15,.33,.25,.47-.05,.77,.68,1.43,1.36,1.61,.36,.1,.73,.04,1.06-.1,.12,.04,.25,.07,.39,.08,.44,.04,.92-.12,1.29-.4v.09c-.01,1.49-.02,2.98-.03,4.48-.5-.97-2.29-.99-2.44,.29-.08,.68-.15,1.37-.23,2.06-.06,.1-.1,.21-.13,.33-.06,.24-.05,.48,0,.71-.02,.12-.03,.24-.05,.36-.29,1.8,1.87,2.45,2.79,1.23-.08,3.31-.23,6.62-.59,9.9-.63,5.83-2.29,11.88-6.69,16.01-.11,.1-.12,.21-.09,.32-1.76,.63-3.41,1.41-5.36,1.41h-.01s.03-.07,.04-.1c.16-.5,.49-1.26,.05-1.67-.04-.04-.1-.04-.14-.01-.33,.19-.3,.43-.39,.78-.08,.33-.19,.65-.32,.96-.78-.08-1.55-.28-2.26-.59,.28-.54,.49-1.11,.53-1.68,0-.12-.18-.19-.26-.09-.34,.45-.57,.99-.86,1.48-.62-.35-1.18-.79-1.65-1.35-.13-.16-.25-.33-.36-.49,.38-.49,.74-1.01,1.01-1.56,.08-.16-.13-.29-.25-.17-.39,.37-.74,.78-1.09,1.19-1.35-2.62-.17-5.66,1.13-8.38-.06,.2-.11,.39-.15,.59-.11,.61-.04,1.11,.21,1.67,.2,.46,.54,.78,1.06,.83,.43,.04,1.02-.19,1.19-.64,.16-.41,.35-.77,.4-1.22,.05-.37,.13-.74,.25-1.09,.22-.68-.29-1.43-.91-1.65-.44-.16-1.04-.08-1.43,.23,.25-.5,.49-.99,.7-1.46,3.07-6.78,3.64-14.74,1.43-21.86-.14-.45-.82-.22-.7,.23,1.29,4.6,1.65,9.34,.83,14.07-.39,2.26-1.04,4.48-1.93,6.59-.83,1.96-1.93,3.79-2.66,5.79-.83,2.3-.94,4.83,.11,6.84-.1,.11-.2,.23-.3,.34-.57,.63-1.25,1.2-1.72,1.91-.17,.26,.2,.57,.44,.4,.73-.51,1.29-1.3,1.84-1.99l.07-.09c.5,.74,1.18,1.39,2.07,1.9-.37,.59-1.04,1.55-1.45,1.36-.19-.09-.46,.09-.37,.31,.4,1.04,1.47-.03,1.83-.52,.19-.27,.4-.56,.59-.86,.72,.32,1.5,.54,2.3,.64-.42,.74-1.49,2.38-2.48,1.75-.27-.17-.56,.2-.4,.44,.81,1.24,2.32-.09,2.91-.85,.31-.4,.57-.83,.78-1.28,2.16,.08,4.41-.58,6.08-1.84,.07,0,.15-.03,.21-.1,4.66-4.64,6.42-10.98,7.01-17.36,.59-6.41,.56-12.9,.62-19.33,.05-6.52,.32-13.16-1.13-19.57Z"/><path class="cls-2" d="M39.71,65.59c.13-.53,.96-.35,.83,.19-2.81,11.52-4.98,25.12,.62,36.19,1.26,2.5,3.09,4.78,5.66,6.01,1.37,.66,2.99,.99,4.52,.84-.09-.49-.15-.98-.15-1.47,0-.24,.31-.28,.4-.07,.2,.46,.35,.94,.49,1.43,.65-.14,1.27-.37,1.84-.71-.43-.65-.75-1.23-.81-1.46-.04-.16,.13-.27,.27-.17,.43,.33,.78,.79,1.12,1.24,.18-.14,.35-.29,.51-.45,.39-.4,.67-.82,.87-1.24-.43-.48-.82-1.04-.89-1.64,0-.08,.09-.1,.14-.07,.38,.28,.68,.65,1,1.01,.56-2.2-.8-4.65-1.65-6.8-1.04-2.64-1.91-5.35-2.52-8.13-1.25-5.77-1.44-12.03,1.13-17.47,.07-.14,.32-.06,.27,.1-2.15,6.39-1.92,12.99-.13,19.44,.85,3.09,2.15,5.95,3.27,8.94,.59,1.57,.76,3.16,.26,4.57,.02,.02,.04,.04,.06,.06,.33,.28,.68,.53,1.05,.75,.33,.19,.71,.31,.96,.6,.15,.17,.09,.48-.18,.49-.75,.02-1.63-.73-2.18-1.26-.27,.51-.65,1-1.15,1.44-.1,.09-.21,.18-.32,.27,.51,.57,1.11,1.37,1.88,1.53,.16,.03,.25,.23,.17,.37-.51,.92-1.72-.22-2.67-1.46-.67,.43-1.38,.7-2.1,.87,.07,.3,.15,.6,.23,.89,.27,.94,.67,1.87,.76,2.84,.03,.34-.47,.51-.64,.21-.52-.91-.69-2-.93-3.01-.06-.26-.13-.53-.19-.79-3.4,.38-7.08-1.64-9.2-4.28-3.76-4.67-5.01-11.34-5.35-17.16-.44-7.63,.93-15.25,2.74-22.63Z"/><path class="cls-2" d="M61.13,18.62c.39-.23,.85-.12,1.12,.22h.02s.05,0,.08-.01c.11-.01,.22,.06,.28,.14v.02s.03,.02,.04,.02c.51,.2,.73,.79,.55,1.31-.13,.38-.45,.61-.8,.67-.01,.01-.02,.02-.03,.03-.02,.03-.03,.05-.05,.08-.45,.57-1.06,.18-1.3-.36-.02-.05-.04-.1-.05-.15-.5-.57-.59-1.53,.14-1.96Z"/><path class="cls-2" d="M37.17,19.16c.21-.27,.53-.35,.82-.25,.09-.02,.18-.03,.28-.03,.16,0,.32,.05,.46,.12,.52,.08,.97,.44,.99,1.06,.02,.55-.32,1.05-.77,1.25-.03,.05-.07,.09-.12,.13-.67,.58-1.93,.09-1.9-.84,0-.06,.02-.12,.04-.18-.14-.41-.06-.94,.2-1.26Z"/><path class="cls-2" d="M46.51,33.05c0-.09,.12-.18,.21-.18h.08c.53-.28,1.03-1.53,1.22-2,.24-.61,.35-1.25,.44-1.89-.08-.04-.15-.09-.21-.15-.37-.11-.7-.34-.92-.72-.44-.76,.4-1.05,1.01-1.12,.57-.07,1.12,.02,1.63,.22,.47,.02,.93,.21,1.31,.55,.12,.1,.11,.27,.02,.38,.01,.6-.94,1.02-1.43,1.08-.16,.02-.37,.02-.59,0,.04,.42,.1,.84,.22,1.26,.22,.77,.74,1.44,.92,2.2,.05,.2-.16,.33-.32,.21-.75-.57-1.17-1.75-1.3-2.92-.08,.49-.23,.97-.42,1.43-.24,.56-.86,2.04-1.59,2.06-.19,0-.29-.15-.27-.33v-.08Z"/><path class="cls-2" d="M46.57,38.37c3.06,1.15,7.31,.29,9.34-2.33,4.07-5.26-.46-12.02-6.21-12.84-.03-.02-.07-.04-.12-.04-.26-.03-.51-.04-.76-.04-.63-.02-1.26,.03-1.9,.16-.09,.02-.09,.1-.06,.16-2.74,.89-4.86,3.52-5.14,6.44-.3,3.17,1.76,7.32,4.85,8.49Zm-2.43-12.33c1.43-1.54,3.24-2.07,5.26-2.24,3.17,.62,5.99,2.24,7.05,5.66,1.22,3.97-1.33,7.95-5.43,8.49-2.05,.27-4.21,.18-5.8-1.3-1.39-1.3-2.53-3.35-2.76-5.24-.23-1.91,.37-3.95,1.68-5.37Z"/><path class="cls-2" d="M71.07,40.21c.09-.12,.18-.24,.27-.37,.23-.38,.4-.81,.52-1.23,.18-.6,.89-.96,1.47-.86,.22-.11,.45-.21,.7-.24,.16-.03,.33-.02,.49,0,.16-.09,.33-.15,.5-.19,.57-.23,1.24-.19,1.79,.11,.75,.42,1.08,1.37,.67,2.15-.19,.36-.42,.68-.68,.99-.24,.29-.54,.44-.85,.5-.4,.39-.93,.61-1.47,.54-.15,.22-.31,.45-.46,.67-.61,.89-1.67,1.32-2.64,.63-.89-.62-1.04-1.89-.31-2.7Z"/><path class="cls-2" d="M63.82,34.7c.41-.02,.84,0,1.25-.06,.02,0,.14-.03,.23-.05,.32-1.08,1.6-1.22,2.38-.62,.33-.1,.72,.03,.85,.43,.15,.44,.24,.86,.18,1.26,.04,.22,.06,.46,.03,.72-.04,.42-.25,.71-.53,.89-.02,.26-.09,.51-.2,.72-.43,.82-1.28,1.08-2.14,.99-.64-.07-1.23-.42-1.89-.47-1.02-.07-1.93-.7-1.99-1.81-.05-1.03,.78-1.94,1.81-1.99Z"/><path class="cls-2" d="M70.31,51.08c.05-.41,.14-.79,.28-1.18,.17-.47,.33-.98,.67-1.36,.42-.46,1.01-.69,1.62-.58,.57,.09,1.15,.56,1.27,1.14,.14,.66-.04,1.12-.55,1.55-.03,.02-.05,.04-.08,.06-.07,.34-.23,.62-.49,.91-.36,.38-.76,.62-1.23,.83-.37,.16-.86,.01-1.14-.25-.33-.3-.4-.69-.35-1.12Z"/><path class="cls-2" d="M63.73,48.72c-.06-.1-.11-.2-.16-.31-.35-.83,.27-1.84,1.07-2.1,.45-.15,.91-.13,1.36,0,.02,0,.14,.04,.23,.06,.06,0,.12,0,.18,0,.75-.03,1.57,.48,1.78,1.23,.21,.74-.03,1.63-.72,2.05-.31,.18-.58,.26-.87,.28h-.01s0,0-.01,0c-.03,0-.06,.01-.08,.02-.13,.07-.28,.13-.41,.19-.02,0-.1,.05-.17,.08-.05,.03-.13,.07-.15,.08-.07,.04-.21,.21-.12,.07,.02-.01,.02-.01,.03-.02l.03-.05s-.07,.07-.11,.12c-.04,.09-.1,.17-.17,.24,0,0-.01,.02-.02,.03h0c-.55,.54-1.67,.5-1.95-.42-.18-.57-.04-1.09,.28-1.53Z"/><path class="cls-2" d="M54.55,45.29c.17-.3,.44-.57,.78-.66,.25-.07,.48-.06,.72-.01v-.02c.45,.11,.86,.32,1.28,.5,.66,.28,.92,1.23,.57,1.83-.17,.3-.44,.57-.78,.66-.38,.1-.69,.05-1.05-.09-.32-.12-.65-.22-.94-.38-.62-.35-.95-1.19-.57-1.83Z"/><path class="cls-2" d="M40.15,45.05c.25-.17,.56-.25,.86-.24,.24,0,.46,.06,.65,.16,.08,.01,.17,.04,.24,.07,.11,.04,.2,.09,.31,.14,.55,.26,.65,.91,.44,1.42-.18,.44-.54,.67-.96,.78-.39,.2-.84,.25-1.25,.02-.35-.2-.7-.48-.79-.9-.13-.57,.02-1.1,.51-1.45Z"/><path class="cls-2" d="M30.49,40.19c.79-.14,1.57,.23,1.98,.88,.38-.2,.84-.22,1.33-.03,.38,.14,.72,.24,.99,.56,.21,.25,.38,.52,.59,.77,.31,.36,.35,1.15-.27,1.26-.28,.05-.56,.13-.83,.2-.29,.55-.84,.9-1.43,.88-.46,.33-1.01,.48-1.73,.31-1.19-.28-1.74-1.29-2.13-2.34-.42-1.1,.41-2.29,1.49-2.49Z"/><path class="cls-2" d="M71.96,57.75c.11-.2,.25-.4,.4-.58h0c.17-.26,.35-.5,.63-.64,.51-.25,1.14-.3,1.63-.05,.1-.03,.22-.04,.34-.03,.49,.05,.88,.43,.91,.94,.03,.66-.04,1.35-.48,1.88-.25,.3-.57,.51-.93,.63l-.28,.33c-.38,.45-1.06,.57-1.59,.38-.58-.21-.88-.7-.97-1.3-.07-.52,.08-1.1,.33-1.56Z"/><path class="cls-2" d="M64.62,58.76c.35-.47,.99-.74,1.56-.77,.9-.05,2.06,.64,1.98,1.68-.03,.33-.07,.61-.25,.89-.11,.44-.44,.81-.93,.98-.59,.21-1.29,0-1.77-.42-.29-.11-.54-.3-.74-.62-.37-.58-.25-1.23,.14-1.74Z"/><path class="cls-2" d="M69.91,77.51c.2-.55,.6-.98,1.13-1.24,.64-.88,2.03-1.18,2.85-.33,.91,.93,1,2.5-.05,3.4-.09,.08-.19,.15-.3,.21-.24,.7-1.01,1.31-1.78,1.05-.34-.11-.6-.22-.86-.39-.96-.44-1.38-1.62-.99-2.69Z"/><path class="cls-2" d="M67.45,68.28c0,.76,.72,1.33,1.44,1.31,.02,0,.16,0,.24,0h.02c.07,.04,.13,.09,.2,.12,.03,.02,.06,.05,.09,.07,.67,.56,1.65,.48,2.16-.25,.24-.34,.3-.82,.2-1.26,.03-.37-.05-.75-.26-1.07-.36-.55-.91-.76-1.54-.79-.47-.02-.9,.14-1.25,.43-.77,.05-1.31,.69-1.31,1.44Z"/><path class="cls-2" d="M57.91,70.37c.16-.42,.4-.69,.77-.94,.07-.05,.48-.37,.31-.18,.47-.51,1.14-.64,1.73-.48,.2-.04,.4-.04,.6,0,.81,.18,1.27,.99,1.13,1.79,0,.27-.03,.31-.1,.12l.08,.42c.03,.34-.05,.7-.08,1.04-.05,.53-.1,1.05-.15,1.58-.08,.89-1.14,1.48-1.93,1.39-.94-.1-1.54-.79-1.66-1.71-.04-.31-.05-.62-.06-.94-.06-.05-.12-.1-.17-.15-.51-.58-.75-1.18-.46-1.95Z"/><path class="cls-2" d="M60.38,80.31c.21-.15,.43-.28,.67-.37,.08-.13,.19-.24,.33-.33,.49-.29,1.24-.22,1.54,.33,.01,.02,.02,.04,.03,.06,.45,.22,.78,.61,.96,1.09h-.03c.15,.42,.13,.87-.08,1.3-.49,1.01-1.86,1.25-2.8,.76-.57-.3-.94-.76-1.14-1.36-.18-.56,.05-1.15,.52-1.47Z"/><path class="cls-2" d="M55.55,81.95c.43,.16,.86,.16,1.3,.04,.01,0,.02,0,.03-.01,.55-.08,1.13-.47,1.34-.96,.19-.45,.26-.87,.11-1.35-.03-.11-.08-.2-.12-.28-.19-.68-.73-1.23-1.47-1.43-1.05-.29-2.17,.49-2.4,1.52l-.04,.19c-.22,.98,.34,1.96,1.26,2.29Z"/><path class="cls-2" d="M57.13,91.48c.46,.62,1.16,1.03,1.95,.96,.69-.07,1.25-.36,1.65-.93,.36-.52,.57-1.28,.3-1.9-.27-.62-.6-.98-1.08-1.27v-.22c-.08-1.31-2.11-1.21-2.04,.1v.17c-.63,.36-1.09,1.12-1.09,1.84-.06,.43,.03,.88,.31,1.25Z"/><path class="cls-2" d="M55.67,59.65c.8,.47,1.76,.05,2.22-.67h0c.13-.13,.23-.28,.29-.46,0-.02,.02-.04,.03-.06,.02-.01,.05-.03,.07-.04l.06-.02h.05c.07-.02,.13-.03,.2-.03,1.24-.09,1.71-1.56,.87-2.42-.69-.71-2.02-1.13-2.75-.25-.1,.13-.17,.26-.22,.41-.11,.05-.32,.13-.05,.03-.18,.06-.46,.19-.59,.27-.4,.25-.65,.6-.89,.99-.49,.79-.03,1.82,.7,2.25Z"/><path class="cls-2" d="M50.69,55.24c.35-.21,.71-.2,1.11-.21,.47,0,.94,.36,.94,.86,0,.5-.35,.9-.86,.94-.39,.03-.75,.08-1.12-.1-.57-.28-.61-1.15-.07-1.49Z"/><path class="cls-2" d="M45.81,58.54c.21-.03,.41-.05,.62,.03,.16,.06,.33,.13,.49,.19,.38,.15,.52,.66,.38,1.01-.14,.36-.55,.64-.95,.52-.17-.05-.34-.1-.5-.16-.2-.07-.34-.21-.49-.36-.45-.46-.17-1.15,.44-1.23Z"/><path class="cls-2" d="M42.85,52.5c.08-.29,.25-.62,.53-.76,.23-.12,.45-.23,.71-.28,.2-.04,.38-.02,.58-.01,.54,.03,1.08,.2,1.37,.7,.21,.36,.31,.77,.21,1.19-.09,.38-.34,.75-.67,.96-.43,.28-1.12,.37-1.56,.07-.39-.26-.79-.5-1-.94-.14-.29-.26-.6-.17-.94Z"/><path class="cls-2" d="M38.72,52.31c1.6-.08,1.72,2.41,.12,2.49-1.6,.07-1.72-2.41-.12-2.49Z"/><path class="cls-2" d="M54.03,61.99c1.9-.09,2.04,2.86,.14,2.95-1.9,.09-2.04-2.86-.14-2.95Z"/><path class="cls-2" d="M48.18,65.27c2.41-.11,2.59,3.64,.18,3.75-2.41,.11-2.59-3.64-.18-3.75Z"/><g><path class="cls-2" d="M34.62,61.61h-.06s.05,0,.07,0c.03,0,.05,.01,.08,.02-.02,0-.03-.01-.04-.02,.18,.01,.37,.03,.55,.08-.11-.03,.25,.1,.48,.19,0,0,.03,0,.09,.02h.04c.38,0,.76,.09,1.06,.38,.29,.29,.48,.65,.5,1.06,.05,1.03-.89,1.73-1.87,1.57,.51,.08-.2-.01-.3-.02s-.2-.02-.3-.05c-.37-.09-.79-.24-1.07-.52-.46-.46-.71-1.05-.7-1.7,0-.84,.74-1.25,1.48-1.02Z"/><path class="cls-2" d="M34.62,61.61h0Z"/><path class="cls-2" d="M34.66,61.61c-.18-.08,.34,.01,0,0h0Z"/></g><path class="cls-2" d="M28.43,71.42c.11-.76,.77-1.35,1.46-1.59,.29-.1,.59-.11,.88-.11,.04-.1,.08-.19,.12-.29,.21-.55,1.01-.86,1.55-.72,.62,.17,1.01,.66,1.09,1.3,.11,.93-.03,1.94-.73,2.62-.38,.38-.82,.59-1.32,.77-.06,.02-.13,.07-.19,.07,.36-.17,.37-.18,.05-.03-.09,.05-.18,.09-.27,.13-.4,.14-.81,.14-1.22,.08-1.06-.16-1.55-1.3-1.42-2.24Z"/><path class="cls-2" d="M22.64,84.6c.23-.7,.47-1.39,.66-2.1,.2-.73,.84-1.23,1.61-1.16,.69,.06,1.41,.67,1.38,1.42-.01,.26-.03,.52-.05,.78,.87,.59,.96,2.05-.02,2.61-.43,.25-.87,.33-1.32,.51-1.18,.47-2.68-.81-2.26-2.06Z"/><g><path class="cls-2" d="M29.55,83.3c.83,.31,1.52-.13,1.87-.83l.03-.03s.06,0,.08-.02c.01,0,.02,0,.04,0h-.02c.17,0,.33,.03,.5,0,.21-.04,.41-.11,.58-.23,.49-.34,.78-1,.56-1.58-.41-1.11-1.7-1.31-2.71-.95-.74,.26-1.43,.82-1.73,1.56-.33,.83-.08,1.75,.81,2.08Z"/><polygon class="cls-2" points="31.45 82.41 31.44 82.41 31.44 82.41 31.45 82.41 31.45 82.41"/></g><path class="cls-2" d="M29.77,97.29c.29-.5,.98-.8,1.52-.48,.07,.04,.15,.08,.22,.12,.21,.01,.42,.05,.62,.18,.53,.37,.73,.79,.66,1.43-.03,.33-.3,.62-.56,.8-.38,.26-.9,.27-1.31,.06-.12-.06-.26-.14-.36-.24l-.22-.25-.03-.07s-.05-.03-.07-.05c-.51-.3-.8-.98-.48-1.52Z"/><path class="cls-2" d="M34.11,102.57c-.06,.24-.11,.49-.07,.75,.11,.84,.6,1.49,1.44,1.71,.74,.2,1.74-.23,2.04-.94,.33-.78,.29-1.45-.12-2.18-.15-.27-.37-.52-.6-.73-.46-.41-1.32-.62-1.94-.56-.44,.04-.81,.3-.96,.72-.13,.37-.06,.84,.23,1.12,0,.02,0,.05,0,.07,0,.02,0,.02-.01,.05Z"/><path class="cls-2" d="M31.74,107.37c0,.37,.17,.72,.4,.99,.13,.18,.29,.31,.49,.41l.41,.15c.7,.06,1.31,.01,1.82-.54,.43-.47,.57-1.13,.37-1.74-.2-.6-.69-.98-1.28-1.14-.19-.05-.38,0-.54,.09-.27,.03-.54,.12-.8,.28l.39-.19s-.07,.03-.11,.04c-.72,.19-1.15,.95-1.15,1.66Z"/><path class="cls-2" d="M26.94,103.47c.02-.48,.15-.86,.53-1.18,.34-.29,.82-.44,1.27-.32,.27,.07,.56,.18,.77,.38,.13,.12,.24,.27,.34,.42,.11,.14,.22,.28,.33,.43,.23,.3,.29,.83,.21,1.19-.08,.36-.34,.77-.67,.96-.74,.44-1.65,.26-2.15-.46-.3-.43-.66-.86-.63-1.41Z"/><path class="cls-2" d="M32.14,88.84c.02-.52,.05-.96,.36-1.32,.08-.39,.24-.72,.5-1.08,.36-.48,1.16-.45,1.57-.07,.44,.4,.49,1.13,.07,1.57-.06,.07-.13,.13-.2,.19,.41,.44,.59,1.02,.48,1.62-.11,.61-.87,1.14-1.48,.93-.82-.28-1.34-.94-1.31-1.84Z"/><path class="cls-2" d="M33.22,77.35c.12-.47,.31-.85,.66-1.17,.55-.5,1.22-.54,1.81-.09,.39,.29,.61,.65,.77,1.1,.38,1.04-.46,2.16-1.52,2.21-1.06,.05-2-.99-1.72-2.05Z"/><path class="cls-2" d="M42.17,62.01c.55-.03,1.1,.43,1.1,1,0,.57-.41,1.07-1,1.1-.55,.03-1.1-.43-1.1-1,0-.57,.41-1.07,1-1.1Z"/><path class="cls-2" d="M61.66,63.15c.12,.04,.23,.07,.34,.14,.48,.28,.51,.92,.06,1.24-.1,.07-.21,.12-.32,.17-.49,.21-1.03-.24-1.05-.73-.02-.49,.48-.99,.98-.82Z"/><path class="cls-2" d="M54.35,48.58c1.94-.09,2.09,2.93,.14,3.02-1.94,.09-2.09-2.93-.14-3.02Z"/><path class="cls-2" d="M77.4,87.78c.06-.55,.7-1.03,1.23-1.03,.53,0,1.2,.33,1.32,.91,.05,.24,.13,.51,.13,.75,0,.24-.05,.47-.1,.7-.11,.53-.57,1.15-1.19,1.15-.6,0-1.09-.43-1.27-.99-.08-.23-.17-.5-.18-.74-.01-.25,.04-.51,.06-.76Z"/><path class="cls-2" d="M75.44,95.88c.09-.26,.16-.52,.26-.79,.03-.08,.07-.16,.1-.25l.02-.04c.13-.38,.24-.77,.34-1.16,.19-.79,1.04-1.39,1.85-1.17,.84,.23,1.33,1,1.17,1.85-.17,.97-.38,2.2-1.09,2.93-.46,.48-1.25,.68-1.85,.33-.54-.31-1.02-1.05-.79-1.7Z"/><path class="cls-2" d="M71.15,90.63c.22-.36,.51-.61,.94-.69,.44-.08,.75,.09,1.09,.33,.36,.25,.48,.85,.39,1.25-.11,.51-.53,.89-1.04,.98-.46,.08-.91-.08-1.22-.43-.32-.37-.44-1-.17-1.44Z"/><path class="cls-2" d="M71.07,85.24c.22-.38,.56-.72,.99-.84,.42-.12,.96-.14,1.33,.11l.56,.38c.39,.26,.69,.53,.84,.99,.13,.41,.11,.96-.11,1.33-.22,.38-.56,.72-.99,.84-.42,.12-.96,.14-1.33-.11l-.56-.38c-.39-.26-.69-.53-.84-.99-.13-.41-.11-.96,.11-1.33Z"/><path class="cls-2" d="M66.27,90.23c.19-.42,.48-.82,.8-1.16,.53-.56,1.51-.66,2.08-.1,.51,.51,.72,1.54,.1,2.08-.12,.1-.23,.21-.34,.33-.02,.02-.07,.09-.1,.13l-.02,.04c-.22,.36-.55,.74-.93,.97-.49,.3-1.2,.2-1.51-.32-.36-.59-.36-1.34-.08-1.96Z"/><path class="cls-2" d="M68,100.21c.29-.54,.64-1.06,1.3-1.19,.37-.07,.74-.11,1.08,.09,.3,.17,.6,.45,.68,.8,.1,.44,.12,.79-.03,1.21-.11,.31-.33,.56-.54,.82-.47,.6-1.42,.62-2,.21-.61-.43-.85-1.28-.49-1.96Z"/><path class="cls-2" d="M73.63,100.91c.3-.27,.6-.44,1.01-.47,.45-.04,.88,.18,1.17,.52,.54,.64,.45,1.7-.31,2.15-.34,.2-.66,.35-1.08,.31-.24-.02-.44-.1-.66-.19-.39-.16-.6-.6-.64-1-.05-.52,.11-.98,.51-1.33Z"/><path class="cls-2" d="M66.69,102.46c2.19-.1,2.35,3.3,.16,3.4-2.19,.1-2.35-3.3-.16-3.4Z"/><path class="cls-2" d="M58.85,95.15c1.72-.08,1.85,2.6,.13,2.68-1.72,.08-1.85-2.6-.13-2.68Z"/><path class="cls-2" d="M48.69,73.64c.08-.42,.28-.74,.56-1.05,.52-.57,1.52-.66,2.08-.1,.57,.56,.65,1.47,.1,2.08-.28,.31-.58,.54-.99,.66-1.02,.29-1.94-.55-1.75-1.59Z"/><path class="cls-2" d="M41.41,70.29c.34-.48,1.15-.54,1.64-.29,.49,.26,.89,.95,.7,1.5-.16,.45-.3,.91-.4,1.38-.17,.73-.38,1.36-1.05,1.79-.85,.54-1.77,.08-2.15-.76-.56-1.25,.58-2.64,1.27-3.62Z"/><path class="cls-2" d="M40.13,77.78c.41-.71,1.27-1,2.02-.63,.39,.19,.82,.36,1.18,.61,.59,.41,.98,1.33,.58,2-.37,.63-1.09,.85-1.79,.73-.47-.08-.95-.47-1.36-.7-.68-.38-1.05-1.3-.63-2.02Z"/><path class="cls-2" d="M44.89,76.65c.16-.28,.39-.53,.67-.7,.35-.35,.83-.54,1.36-.49,.45,.04,.89,.23,1.23,.55,.61,.58,.91,1.43,.72,2.27-.19,.81-.99,1.65-1.88,1.45-.6-.13-.93-.62-1.19-1.13h0v0c-.17-.04-.32-.11-.46-.2-.54-.37-.77-1.14-.43-1.74Z"/><path class="cls-2" d="M46.46,83.18c.12-.75,.92-1.24,1.63-1.17,.74,.06,1.37,.67,1.4,1.44,0,.2,.02,.4,.05,.6,0,0,.09,.33,.1,.38,.09,.28,.17,.56,.19,.85,0,.2,0,.4-.04,.6-.16,.44-.19,.53-.1,.27-.29,.84-1.16,1.42-2.04,.94-1.44-.78-1.42-2.47-1.19-3.9Z"/><g><path class="cls-2" d="M45.94,88.56s-.03,.02-.04,.02c-.09,.04-.13,.06,.04-.02Z"/><path class="cls-2" d="M45.9,88.59c.09-.04,.25-.1,.31-.11,.22-.04,.44-.02,.65,.07,.47-.06,.98,.21,1.11,.68,.15,.52-.11,1.11-.65,1.28-.14,.04-.28,.07-.43,.09-.13,.05-.27,.09-.43,.1-.37,.03-.81-.18-1-.51-.06-.12-.12-.23-.17-.35-.23-.52,.17-1.02,.6-1.24Z"/></g><path class="cls-2" d="M40.95,86.26c.3-.38,.81-.37,1.22-.22,.54,.2,.85,.79,.95,1.4,.01,.07,.01,.08,0,.03-.02-.08-.01-.04,.02,.12,.03,.17,.03,.33,0,.5,.06,.09,.11,.18,.17,.26,.27,.36,.11,.91-.24,1.14-.4,.26-.87,.11-1.14-.24-.07-.1-.13-.2-.2-.3-.37-.13-.68-.45-.89-.77-.37-.58-.31-1.38,.11-1.92Z"/><path class="cls-2" d="M39.8,85.34c-.18-.18-.31-.43-.34-.74-.04-.45,.2-.97,.54-1.26,.32-.27,.68-.37,1.1-.39,.45-.02,.87,.24,1.06,.65,.21,.43,.11,.87-.18,1.24,.19-.25,.06-.07,.01,0-.1,.17-.22,.3-.37,.43-.18,.16-.44,.32-.67,.37-.2,.05-.4,.05-.58,0,0,.19-.11,.38-.35,.39-.41,.02-.5-.51-.23-.7Z"/><path class="cls-2" d="M39.62,92.46c.38-.7,1.37-1.1,2.1-.66,1.33,.81,2.49,3.02,2.01,4.59-.25,.82-.95,1.28-1.81,1.14-2.05-.33-3.24-3.34-2.3-5.08Z"/><path class="cls-2" d="M47.28,95.97l.21-.65c.09-.29,.16-.64,.33-.88,.18-.26,.35-.47,.64-.61,.27-.13,.61-.2,.91-.11,.56,.15,1.13,.68,1.09,1.31-.02,.36-.08,.6-.2,.93-.08,.21-.15,.43-.23,.64-.13,.36-.28,.66-.61,.88-.3,.19-.74,.29-1.08,.19-.69-.19-1.31-.94-1.07-1.69Z"/><path class="cls-2" d="M50.51,98.43c-.13-.51,.19-1.12,.71-1.26,.53-.15,1.05,.08,1.29,.56,.35,.21,.61,.52,.75,.94,.17,.54,.13,1.06-.17,1.55-.34,.58-.93,.7-1.53,.48-.53-.2-.87-.61-1.06-1.13-.14-.4-.13-.78,0-1.13Z"/><path class="cls-2" d="M48.89,102.95c.21-.29,.57-.46,.91-.59,.1-.04,.21-.07,.31-.1l.12-.05,.04-.02c.14-.09,.28-.14,.45-.14l.09-.02c.06-.02,.16-.06,.19-.07,.11-.03,.23-.05,.34-.06,.49-.27,1.16-.19,1.56,.18,.47,.43,.53,1.06,.27,1.59-.03,.28-.12,.55-.31,.81-.3,.42-.77,.86-1.27,1.02-.91,.29-2.37,.21-2.85-.76-.33-.65-.28-1.21,.15-1.8Z"/><path class="cls-2" d="M43.3,100.7c.01-.66,.5-1.38,1.24-1.36,.33,0,.65,0,.97,.11,.35,.13,.63,.38,.94,.6l-.35-.25c.31,.21,.52,.39,.76,.65,.55,.57,.69,1.4,.22,2.08-.19,.27-.47,.52-.8,.61-.44,.12-.81,.06-1.23-.1-.41-.16-.76-.39-1.07-.71-.31-.31-.55-.63-.63-1.06-.04-.2-.05-.37-.05-.57Z"/><path class="cls-2" d="M16.08,95.81c.49,.04,.92-.04,1.26-.43,.3-.35,.4-.85,.25-1.29-.3-.88-1.37-1.13-2.06-.6-.1,.01-.19,.03-.29,.06-.41,.1-.6,.53-.61,.91-.02,.71,.79,1.32,1.44,1.36Z"/><path class="cls-2" d="M11.05,92.26c.49,.17,1.11,.04,1.44-.38,.29-.37,.41-.86,.25-1.31-.21-.61-.75-.87-1.35-.9l-.27-.02c-.57-.03-1.04,.61-1.01,1.14l.02,.3c.04,.54,.4,1,.91,1.18Z"/><path class="cls-2" d="M7.12,86.28c.1,.21,.23,.41,.37,.6,.05,.07,.11,.13,.16,.19l.1,.11s.16,.19,.15,.19c.32,.42,.85,.63,1.36,.45,.53-.18,.78-.67,.8-1.19,.02-.61-.08-1.31-.46-1.81-.45-.6-1.04-.86-1.79-.86-.4,0-.84,.37-.9,.78-.08,.57-.07,1.01,.19,1.54Z"/><path class="cls-2" d="M5.64,80.42c.9,.14,1.66-.39,1.9-1.26,.25-.93,.19-2-.57-2.68-.71-.63-1.95-.4-2.35,.48-.19,.41-.22,.8-.2,1.23,0,.02,0,.04,0,.07-.01,.09-.02,.18-.04,.26-.19,.82,.41,1.76,1.26,1.9Z"/><path class="cls-2" d="M2.21,78.86l.04,.07c.41,.76,1.55,.54,1.9-.14l.04-.07c.12-.24,.15-.59,.06-.85h0c.02-.05,.03-.1,.06-.14,.23-.49,.05-1.16-.47-1.38-.5-.22-1.14-.05-1.38,.47-.09,.19-.16,.38-.21,.58-.02,.06-.03,.11-.04,.17h0c-.23,.38-.19,.91,.02,1.29Z"/><path class="cls-2" d="M3.25,82.86c.12,.31,.27,.47,.5,.71,.23,.24,.54,.38,.83,.54,.47,.26,1.18,.11,1.51-.31,.36-.46,.39-1.04,.09-1.54-.18-.29-.34-.57-.61-.8-.32-.27-.68-.38-1.07-.5-.88-.27-1.64,.76-1.36,1.55,.04,.11,.08,.23,.12,.34Z"/><path class="cls-2" d="M5.2,73.18c.18,.27,.52,.51,.84,.56,.77,.12,1.37-.33,1.58-1.05l.23-.81c.13-.46,.04-.86-.05-1.31-.19-.9-1.67-1.2-2.18-.42-.25,.38-.49,.71-.53,1.17l-.08,.84c-.04,.37,0,.7,.21,1.02Z"/><path class="cls-2" d="M1.8,64.78c.1,.3,.36,.61,.65,.74,.57,.25,1.48,.09,1.72-.59,.05-.14,.2-.4,.19-.55,.04-.08,.03-.08-.05,0l.07-.1c.08-.16,.22-.29,.3-.45,.27-.58,.33-1.18,.08-1.78-.3-.72-1.04-.94-1.71-.57-.4,.22-.66,.51-.83,.93-.08,.19-.16,.38-.2,.58-.03,.14-.03,.29-.03,.44l-.13,.38c-.12,.34-.18,.63-.06,.98Z"/><path class="cls-2" d="M8.88,65.93c.4,.08,.84-.01,1.18-.24,.17-.11,.33-.3,.49-.44,.42-.39,.49-1.14,.32-1.65-.19-.56-.68-.99-1.26-1.11-.59-.12-1.22,.09-1.61,.55-.4,.47-.48,1.07-.32,1.65,.17,.6,.56,1.11,1.2,1.24Z"/><path class="cls-2" d="M12.79,62.14c.31,.61,1.09,1,1.76,.73,.48-.19,.97-.36,1.32-.76,.18-.2,.34-.43,.43-.69,.05-.16,.1-.31,.13-.47,.14-.61-.3-1.13-.85-1.29-.34-.1-.65-.13-1-.06-.37,.07-.66,.17-.96,.4-.12,.09-.24,.19-.36,.29-.57,.46-.81,1.17-.47,1.85Z"/><path class="cls-2" d="M18.08,58.83c.46,.36,1,.33,1.43,.02,.46-.17,.85-.56,.94-1.06,.11-.6-.04-1.13-.49-1.54-.35-.32-.85-.31-1.25-.1l.1-.05s-.09,.04-.13,.07c0,0-.01,0-.02,0h-.02c-.14,.08-.27,.17-.38,.3-.11,.13-.25,.32-.32,.47-.08,.17-.12,.34-.13,.5-.24,.44-.12,1.09,.27,1.39Z"/><path class="cls-2" d="M17.58,54.08c.86,.4,2.02,.82,2.91,.3,.28-.16,.52-.61,.46-.94-.08-.44-.24-.69-.55-1-.21-.21-.46-.35-.74-.44-.35-.12-.72-.28-1.1-.26-.28,.01-.57,.09-.85,.15-.45,.1-.76,.62-.79,1.04-.03,.46,.22,.95,.65,1.15Z"/><path class="cls-2" d="M13.01,53.74c.47-.02,.91-.12,1.34-.3,.32-.14,.64-.29,.99-.35,1.13-.2,1.24-1.61,.14-1.97-1.23-.4-2.53-.38-3.47,.6-.75,.78,0,2.07,1,2.02Z"/><path class="cls-2" d="M11.48,58.69c.96,.6,2.01,.48,3.06,.19,.96-.27,1.34-1.46,.93-2.29-.45-.9-1.54-1.16-2.39-.63-.04,.02-.37,.22-.37,.22-.19,.1-.38,.19-.56,.3-.28,.18-.56,.41-.78,.62-.54,.48-.52,1.19,.11,1.58Z"/><path class="cls-2" d="M7.16,58.19c.12-.09,.24-.16,.36-.24,.1-.07,.2-.19,.31-.28,0,.01,.03,0,.12-.07,.14-.11,.27-.22,.41-.32,.03-.02,.08-.04,.12-.07,.03-.01,.07-.03,.1-.04,.85-.29,1.41-1.32,1.07-2.19-.32-.82-1.3-1.45-2.19-1.07-.77,.32-1.49,.79-1.91,1.54-.39,.69-.44,1.39-.19,2.14,.23,.68,1.18,1.09,1.79,.6Z"/><path class="cls-2" d="M9.58,61.79c2.08-.71,.98-3.94-1.1-3.22-2.08,.71-.98,3.93,1.1,3.22Z"/><path class="cls-2" d="M33.81,6.04c-.27-.25-.63-.38-.98-.48-.38-.11-.73-.15-1.12-.04-.46,.13-.59,.77-.23,1.08,.3,.26,.63,.37,1.02,.43,.36,.05,.75,.09,1.1-.02,.41-.13,.52-.67,.21-.96Z"/><path class="cls-2" d="M28.74,6.1c-.42-.15-.83-.1-1.15,.23-.3,.31-.36,.65-.27,1.06,.07,.33,.55,.39,.75,.16,.23-.28,.54-.47,.8-.71,.21-.19,.15-.64-.13-.74Z"/><path class="cls-2" d="M28.76,11.55c-.11-.25-.2-.52-.36-.74-.16-.23-.37-.44-.56-.65-.22-.25-.66-.21-.9-.01-.24,.21-.34,.61-.13,.89,.17,.23,.33,.47,.53,.68,.19,.2,.43,.34,.65,.49,.38,.27,.95-.24,.77-.65Z"/><path class="cls-2" d="M69.33,3.6c-.83,.56-1.34,1.67-.87,2.62,.09,.18,.41,.25,.57,.12,.58-.47,.99-1.15,1.36-1.79,.36-.64-.45-1.36-1.05-.95Z"/><path class="cls-2" d="M77.13,6.01c-.06-.16-.13-.34-.23-.48-.1-.15-.26-.24-.38-.38-.19-.22-.49-.03-.56,.18-.04,.11-.15,.19-.2,.3-.07,.14-.13,.31-.18,.46-.08,.2-.13,.38-.13,.6,0,.24,.11,.43,.21,.63,.23,.47,.87,.39,1.18,.1,.41-.37,.46-.89,.28-1.4Z"/></g></g></svg>