<?xml version="1.0" encoding="UTF-8"?><svg id="Layer_2" xmlns="http://www.w3.org/2000/svg" width="135.73" height="129.79" viewBox="0 0 135.73 129.79"><defs><style>.cls-1{fill:#EF9F5E;}</style></defs><g id="Layer_1-2"><g><path class="cls-1" d="M11.47,38.02c2.68,9.29,18.1,11.41,17.44,15.59-.34,2.14-4.48,2.17-4.89,4.81-.53,3.44,6.4,6.02,5.42,8.65-1,2.69-4.42,3.34-7.27,3.73-2.84,.39-6.28,1.51-6.72,4.35-.4,2.6,2.34,4.81,4.96,4.91,2.63,.1,5.06-1.25,7.36-2.53s4.79-2.56,7.41-2.32c2.25,.21,4.35,1.63,5.39,3.64,2.18,4.24-.74,9.53-4.72,12.16-3.98,2.62-8.82,3.55-13.14,5.56-4.32,2.02-8.45,5.88-8.28,10.64,.19,5.33,6.06,9.12,11.38,8.68,5.32-.44,9.89-3.97,13.44-7.96,4.44-4.98,8.14-15.02,16.02-15.15,.85-.01,1.79,.53,1.79,.53,.42,.17,3.9,1.62,4.39,3.79,.63,2.82-4.31,4.31-7.71,12.25-.12,.29-.24,.58-.4,.99-1.63,4.33-1.99,9.35,.1,13.47,2.08,4.13,7.01,6.95,11.46,5.68,4.97-1.42,7.32-6.93,8.18-9.08,3.15-7.97-.71-12.39,3.14-18.07,1.62-2.38,4.73-5.2,7.38-4.58,3.84,.89,5.04,8.59,5.2,9.67,.68,4.73-.1,5.73,.39,8.73,.69,4.2,5.91,6.61,9.93,5.21,4.02-1.4,6.56-5.65,6.96-9.89,.4-4.24-.99-8.45-2.82-12.3-1.83-3.85-4.12-7.47-5.7-11.43-1.56-3.88-1.99-9.17,1.51-11.45,2.12-1.38,4.97-1.05,7.27,.02s4.22,2.77,6.34,4.15c3.14,2.06,6.86,3.45,10.6,3.11s7.42-2.68,8.62-6.23c1.54-4.54-1.32-9.61-5.33-12.24-4.01-2.63-8.9-3.41-13.61-4.3-2.24-.42-4.54-.9-6.42-2.19-1.88-1.28-3.26-3.58-2.8-5.81,.53-2.56,3.11-4.07,5.44-5.26,5.37-2.74,10.74-5.49,16.11-8.23,4.68-2.39,9.97-5.65,10.41-10.89,.27-3.26-1.6-6.44-4.2-8.42-3.05-2.32-6.46-3.47-9.08-3.48-12.35-.05-19.26,19.83-25.23,17.94-3.89-1.24-3.03-10.33-6.95-10.99-3.01-.51-4.42,4.22-10.1,6.28-3.74,1.36-8.52,.97-10.92-2.21-2.49-3.3-1.52-8.16-3.51-11.78-2.17-3.93-7.65-5.29-11.77-3.5-4.53,1.97-7.46,6.48-7.4,10.56,.08,5.57,5.4,7.48,4.39,11.34-.94,3.56-6.3,5.17-9.25,5.5-5.01,.57-8.97-1.76-9.85-2.58-2.65-2.45-4.56-5.62-7.28-7.98-2.72-2.36-6.82-3.79-9.93-1.95-3.04,1.8-4.28,6.88-3.14,10.84Z"/><path class="cls-1" d="M88.73,9.36c.36,1.94,1.93,5.43,2.63,6.93,.16,.33,.6,.37,.83,.08,1.16-1.49,2.55-2.8,3.81-4.21,1.44-1.62,2.74-3.45,3.17-5.57C99.78,3.59,98.28-.07,94.38,0c-.95,.02-1.89,.31-2.68,.83-2.85,1.85-3.54,5.4-2.96,8.53Z"/><path class="cls-1" d="M28.68,20.98c-.2,.68,.1,1.4,.46,2.02,1.84,3.2,5.25,5.44,8.91,5.9,.24,.03,.43-.21,.34-.44-.73-1.81-3.43-7.99-6.5-8.65-.61-.13-1.26-.2-1.86-.03-.61,.17-1.16,.6-1.34,1.2Z"/><path class="cls-1" d="M6.1,52.23c-1.22-.13-2.47-.23-3.64,.13-1.17,.36-2.24,1.28-2.43,2.49-.23,1.5,.93,2.86,2.2,3.7,2.85,1.87,6.51,2.17,9.85,1.49,1.69-.34,3.31-.92,4.89-1.62,1.71-.76,1.49-3.26-.3-3.78-3.33-.96-7.66-2.09-10.56-2.4Z"/><path class="cls-1" d="M36.02,124.09c.27,.12,.56,.2,.86,.23,.27,.03,.55,.03,.82-.01,1.08-.17,1.99-.86,2.61-1.74,.45-.63,.76-1.37,.91-2.13,.16-.8,.08-1.59,0-2.4-.01-.13-.03-.26-.04-.4-.08-.78-.99-1.17-1.62-.7-1.12,.84-2.25,1.68-3.37,2.51-.61,.46-1.26,.95-1.54,1.66-.27,.69-.11,1.47,.29,2.07,.27,.4,.64,.7,1.07,.89Z"/><path class="cls-1" d="M124.85,106.21c.7-.05,1.23-.3,1.5-.43,1.87-.92,3.5-3.32,2.85-5.16-.57-1.62-2.19-2.59-3.73-3.36-1.69-.85-5.17-2.05-7.22-2.73-.68-.22-1.32,.42-1.08,1.1,1.15,3.37,4.11,10.81,7.68,10.58Z"/><path class="cls-1" d="M126.08,55.12c.53-.14,1.44-.39,1.81-1.21,.31-.7,.12-1.54-.29-2.08-.82-1.07-2.49-.9-3.24-.83-1.95,.2-3.37,1.31-4.16,2.09-.2,.2-.15,.55,.1,.69,1.53,.84,2.84,1.19,3.69,1.35,.72,.13,1.37,.19,2.1-.01Z"/></g></g></svg>