<svg xmlns="http://www.w3.org/2000/svg" xmlns:xlink="http://www.w3.org/1999/xlink" width="178.58" height="249.45" viewBox="0 0 178.58 249.45">
  <defs>
    <clipPath id="clip-path">
      <rect id="Rectangle_1" data-name="Rectangle 1" width="178.58" height="249.45" fill="none"/>
    </clipPath>
  </defs>
  <g id="fr1" transform="translate(-220 -27)">
    <g id="Groupe_1" data-name="Groupe 1" transform="translate(220 27)" clip-path="url(#clip-path)">
      <path id="Tracé_1" data-name="Tracé 1" d="M8.5,0H170.08a8.5,8.5,0,0,1,8.5,8.5V240.95a8.5,8.5,0,0,1-8.5,8.5H8.5a8.5,8.5,0,0,1-8.5-8.5V8.5A8.5,8.5,0,0,1,8.5,0" fill="#fff"/>
      <path id="Tracé_2" data-name="Tracé 2" d="M171.5,58.26V10.09a3.013,3.013,0,0,0-3.01-3.01H10.09a3,3,0,0,0-3,3.01V239.35a3,3,0,0,0,3,3.01h158.4a3.013,3.013,0,0,0,3.01-3.01V91.4m0-.01V58.29M29.01,44.95a.076.076,0,0,1,.02-.04.142.142,0,0,0-.02.06" fill="#fceef4"/>
    </g>
    <path id="_1" data-name="1" d="M220.571,101.819c-3.963-.205-6.355-.329-6.275-7.23.074-6.4-.555-14.423-1.221-22.921-.728-9.283-1.48-18.883-1.208-25.947.32-8.319-1.027-13.926-4.119-17.138a9.611,9.611,0,0,0-7.219-2.906c-10.989,0-26.205,13.6-33.464,21.639l-.182.2-.1.253c-1.719,4.356-1.891,7.656-.526,10.087,2,3.566,6.617,4.365,11.5,5.211A48.625,48.625,0,0,1,183.9,64.4c1.414.446,2.565,1.762,3.419,3.913,3.322,8.36.887,26.111-1.632,30.62-.82,1.469-3.449,1.978-6.233,2.516-5.376,1.04-12.741,2.464-11.746,12.726.6,6.217,6.409,9.369,17.256,9.369a89.3,89.3,0,0,0,10.679-.772c.806-.1,1.412-.171,1.753-.19,2.059-.114,5.055-.04,8.21.06,2.161.068,4.4.139,6.61.139,5.46,0,18.245,0,18.245-9.29C230.464,102.333,224.746,102.036,220.571,101.819Z" transform="translate(114.786 76.323)" fill="#ef9f5e"/>
    <path id="_1_-_Contour" data-name="1 - Contour" d="M184.967,122.868a88.6,88.6,0,0,0,10.6-.767l.251-.03c.707-.085,1.218-.146,1.545-.164.713-.039,1.556-.059,2.578-.059,1.732,0,3.758.057,5.691.118l.064,0c2.135.067,4.342.137,6.525.137,2.69,0,7.191,0,10.976-1.133a10.864,10.864,0,0,0,4.7-2.584,6.636,6.636,0,0,0,1.889-4.9c0-4.719-1.019-7.8-3.115-9.4-1.784-1.368-4.1-1.488-6.135-1.594s-3.8-.2-5.057-1.264c-1.327-1.126-1.9-3.177-1.861-6.651.074-6.367-.554-14.378-1.219-22.86-.729-9.3-1.483-18.915-1.21-26.026.313-8.126-.973-13.57-3.93-16.642a8.958,8.958,0,0,0-6.73-2.7,21.244,21.244,0,0,0-8.564,2.19,54.189,54.189,0,0,0-9.17,5.487A104.093,104.093,0,0,0,167.569,47.77l-.1.111-.055.139c-1.64,4.155-1.824,7.264-.566,9.506,1.845,3.285,6.3,4.057,11.027,4.875h.007a49.058,49.058,0,0,1,6.225,1.353c1.619.511,2.913,1.96,3.845,4.309,2.05,5.159,1.769,12.9,1.42,17.061-.51,6.061-1.751,11.743-3.09,14.139-.974,1.745-3.754,2.282-6.7,2.851-2.682.519-5.722,1.107-7.987,2.784-2.577,1.909-3.628,4.921-3.212,9.211a7.961,7.961,0,0,0,1.311,3.77,8.77,8.77,0,0,0,3.125,2.716c2.775,1.507,6.862,2.271,12.146,2.271m0,.678c-10.847,0-16.652-3.152-17.256-9.369-.995-10.262,6.37-11.686,11.746-12.726,2.784-.538,5.413-1.047,6.233-2.516,2.519-4.509,4.954-22.26,1.632-30.62-.854-2.151-2.005-3.467-3.419-3.913a48.626,48.626,0,0,0-6.144-1.333c-4.885-.846-9.5-1.645-11.5-5.211-1.365-2.431-1.193-5.731.526-10.087l.1-.253.182-.2c7.259-8.037,22.475-21.639,33.464-21.639a9.611,9.611,0,0,1,7.219,2.906c3.092,3.212,4.439,8.819,4.119,17.138-.272,7.064.48,16.664,1.208,25.947.666,8.5,1.295,16.524,1.221,22.921-.08,6.9,2.312,7.025,6.275,7.23,4.175.217,9.893.514,9.893,11.674,0,9.289-12.785,9.29-18.245,9.29-2.215,0-4.449-.071-6.61-.139-3.155-.1-6.151-.174-8.21-.06-.341.019-.947.094-1.753.19A89.3,89.3,0,0,1,184.967,123.546Z" transform="translate(114.786 76.323)" fill="#231f20"/>
  </g>
</svg>
