<svg xmlns="http://www.w3.org/2000/svg" xmlns:xlink="http://www.w3.org/1999/xlink" width="178.58" height="249.45" viewBox="0 0 178.58 249.45">
  <defs>
    <clipPath id="clip-path">
      <rect id="Rectangle_1" data-name="Rectangle 1" width="178.58" height="249.45" fill="none"/>
    </clipPath>
  </defs>
  <g id="fr4" transform="translate(-817 -27)">
    <g id="Groupe_1" data-name="Groupe 1" transform="translate(817 27)" clip-path="url(#clip-path)">
      <path id="Tracé_1" data-name="Tracé 1" d="M8.5,0H170.08a8.5,8.5,0,0,1,8.5,8.5V240.95a8.5,8.5,0,0,1-8.5,8.5H8.5a8.5,8.5,0,0,1-8.5-8.5V8.5A8.5,8.5,0,0,1,8.5,0" fill="#fff"/>
      <path id="Tracé_2" data-name="Tracé 2" d="M171.5,58.26V10.09a3.013,3.013,0,0,0-3.01-3.01H10.09a3,3,0,0,0-3,3.01V239.35a3,3,0,0,0,3,3.01h158.4a3.013,3.013,0,0,0,3.01-3.01V91.4m0-.01V58.29M29.01,44.95a.076.076,0,0,1,.02-.04.142.142,0,0,0-.02.06" fill="#fceef4"/>
    </g>
    <path id="_4" data-name="4" d="M546.314,75.79a3.031,3.031,0,0,1-2.4-1.259c-1.484-2.3.178-7.977,1.939-13.987,3.07-10.487,6.892-23.538-.7-32.777a7.032,7.032,0,0,0-5.742-2.361c-10.4,0-29.681,14.19-33.451,17.851-10.866,10.554-14.331,16.118-21.46,29.326-4.335,8.032-5.2,14.021-2.64,18.309,2.663,4.463,8.887,6.632,19.029,6.631a124.446,124.446,0,0,0,13.969-.942,1.993,1.993,0,0,1,1.772.71,2.037,2.037,0,0,1,.438,1.7c-.809,4.384-2.1,15.29,3.366,21.859,2.619,3.147,6.357,4.743,11.111,4.743h.137c4.575-.029,7.849-1.176,10.008-3.506,3.491-3.766,3.077-9.686,2.712-14.909-.462-6.623-.34-9.576,2.767-10.065,7.371-1.161,11.747-4.839,11.707-9.838C558.827,81.731,553.429,76.793,546.314,75.79ZM505.1,73.072c1.315-4.685,15.023-17.9,18.566-17.9.319,0,.6.419.786.772,1.623,3.14,1.069,12.238-2.677,17.521-1.442,2.035-8.687,6.177-13.686,6.177h0a3.515,3.515,0,0,1-2.943-1.051C504.386,77.581,504.369,75.675,505.1,73.072Z" transform="translate(386.577 76.594)" fill="#ef9f5e"/>
    <path id="_4_-_Contour" data-name="4 - Contour" d="M531.537,124.917h.136c4.378-.028,7.49-1.1,9.515-3.289,3.291-3.55,2.888-9.314,2.533-14.4-.439-6.29-.512-10.176,3.338-10.782a17.055,17.055,0,0,0,8.3-3.329,8.159,8.159,0,0,0,2.125-2.654,7.059,7.059,0,0,0,.707-3.18,9.645,9.645,0,0,0-3.406-6.951,16.072,16.072,0,0,0-8.567-3.869,3.65,3.65,0,0,1-2.878-1.563c-1.653-2.563-.026-8.115,1.859-14.549,1.517-5.182,3.237-11.056,3.621-16.71.437-6.423-.936-11.474-4.2-15.442a6.391,6.391,0,0,0-5.219-2.114c-5.447,0-13.262,4.054-18.859,7.454a98.561,98.561,0,0,0-14.12,10.205c-10.8,10.489-14.244,16.022-21.336,29.162-4.212,7.8-5.08,13.574-2.654,17.64,2.53,4.24,8.561,6.3,18.44,6.3h.007a123.814,123.814,0,0,0,13.894-.938,2.779,2.779,0,0,1,.309-.017,2.675,2.675,0,0,1,2.06.967,2.7,2.7,0,0,1,.584,2.259c-.792,4.29-2.063,14.954,3.22,21.3,2.484,2.985,6.046,4.5,10.587,4.5m-7.87-70.428c.532,0,1,.383,1.388,1.139.879,1.7,1.164,4.9.746,8.35a22.469,22.469,0,0,1-3.472,9.874c-1.548,2.184-8.953,6.463-14.24,6.463a4.129,4.129,0,0,1-3.484-1.32c-.906-1.2-.959-3.253-.157-6.106.764-2.721,4.959-7.474,8.63-11.014,1.8-1.733,7.87-7.386,10.589-7.386M531.54,125.6c-4.754,0-8.492-1.6-11.111-4.743-5.467-6.569-4.175-17.475-3.366-21.859a2.037,2.037,0,0,0-.438-1.7,1.993,1.993,0,0,0-1.772-.71,124.444,124.444,0,0,1-13.969.942h-.007c-10.138,0-16.36-2.169-19.022-6.631-2.558-4.288-1.7-10.277,2.64-18.309,7.129-13.208,10.594-18.772,21.46-29.326,3.77-3.661,23.054-17.851,33.451-17.851a7.032,7.032,0,0,1,5.742,2.361c7.594,9.239,3.772,22.29.7,32.777-1.761,6.01-3.423,11.686-1.939,13.987a3.031,3.031,0,0,0,2.4,1.259c7.115,1,12.513,5.941,12.557,11.486.04,5-4.336,8.677-11.707,9.838-3.107.489-3.229,3.442-2.767,10.065.365,5.223.779,11.143-2.712,14.909-2.159,2.33-5.433,3.477-10.008,3.506Zm-7.873-70.428c-3.543,0-17.251,13.22-18.566,17.905-.732,2.6-.715,4.509.045,5.514a3.515,3.515,0,0,0,2.943,1.051h0c5,0,12.244-4.142,13.686-6.177,3.746-5.283,4.3-14.381,2.677-17.521C524.271,55.586,523.986,55.167,523.667,55.167Z" transform="translate(386.577 76.594)" fill="#231f20"/>
  </g>
</svg>
