<svg xmlns="http://www.w3.org/2000/svg" xmlns:xlink="http://www.w3.org/1999/xlink" width="178.58" height="249.45" viewBox="0 0 178.58 249.45">
  <defs>
    <clipPath id="clip-path">
      <rect id="Rectangle_1" data-name="Rectangle 1" width="178.58" height="249.45" fill="none"/>
    </clipPath>
  </defs>
  <g id="fr5" transform="translate(-1016 -27)">
    <g id="Groupe_1" data-name="Groupe 1" transform="translate(1016 27)" clip-path="url(#clip-path)">
      <path id="Tracé_1" data-name="Tracé 1" d="M8.5,0H170.08a8.5,8.5,0,0,1,8.5,8.5V240.95a8.5,8.5,0,0,1-8.5,8.5H8.5a8.5,8.5,0,0,1-8.5-8.5V8.5A8.5,8.5,0,0,1,8.5,0" fill="#fff"/>
      <path id="Tracé_2" data-name="Tracé 2" d="M171.5,58.26V10.09a3.013,3.013,0,0,0-3.01-3.01H10.09a3,3,0,0,0-3,3.01V239.35a3,3,0,0,0,3,3.01h158.4a3.013,3.013,0,0,0,3.01-3.01V91.4m0-.01V58.29M29.01,44.95a.076.076,0,0,1,.02-.04.142.142,0,0,0-.02.06" fill="#fceef4"/>
    </g>
    <path id="_5" data-name="5" d="M101.605,184.719c-4.665-1.5-9.952-3.193-10.326-4.7-.637-2.568-.475-4.42.5-5.662,1.817-2.323,6.543-2.621,10.457-2.621,2.07,0,4.311.1,6.479.194,2.207.1,4.489.2,6.637.2,6.23,0,12.8-.765,14.263-6.435.973-3.762.414-7.029-1.661-9.711-4.187-5.408-14.453-8.149-30.513-8.149a174.014,174.014,0,0,0-19.15,1.144c-6.455.746-11.719,5.806-14.442,13.881-2.979,8.832-2.518,21.114,4.125,27.5,2.276,2.187,7.5,3.759,13.539,5.579,9.195,2.769,20.638,6.215,22.909,12.455.932,2.561.279,5.494-2,8.965-1.406,2.145-3.479,3.143-6.524,3.144h0c-4.055,0-9.241-1.813-14.256-3.565-5.286-1.849-10.751-3.759-15.374-3.759-7.239,0-11.146,4.571-11.946,13.974a13.125,13.125,0,0,0,3.521,10.374c8.062,8.777,27.311,9.459,33.018,9.459h0a65.243,65.243,0,0,0,9.269-.584c15.3-2.31,32.686-15.532,33.18-30.81C133.975,195.1,114.5,188.855,101.605,184.719Z" transform="translate(1011.735 -45.831)" fill="#ef9f5e"/>
    <path id="_5_-_Contour" data-name="5 - Contour" d="M97.438,148.509a173.345,173.345,0,0,0-19.072,1.14c-6.183.715-11.242,5.608-13.878,13.424a34.277,34.277,0,0,0-1.515,14.373c.608,5.272,2.5,9.567,5.467,12.421,2.159,2.074,7.305,3.624,13.265,5.419,9.34,2.813,20.963,6.313,23.35,12.872,1.01,2.776.334,5.906-2.066,9.568-1.542,2.353-3.8,3.449-7.093,3.45-4.166,0-9.4-1.829-14.466-3.6l-.014,0c-5.23-1.829-10.638-3.721-15.15-3.721-3.443,0-6.018,1.054-7.872,3.223-1.869,2.186-3.012,5.595-3.4,10.13a12.472,12.472,0,0,0,3.345,9.858,21.708,21.708,0,0,0,7.526,5.016,46.99,46.99,0,0,0,9.5,2.8,84.743,84.743,0,0,0,15.5,1.426,64.56,64.56,0,0,0,9.168-.576,41.316,41.316,0,0,0,11.378-3.582,46.5,46.5,0,0,0,10.419-6.8c6.746-5.874,10.584-12.9,10.807-19.779a26.694,26.694,0,0,0-.626-6.863,22.2,22.2,0,0,0-2.152-5.672,25.659,25.659,0,0,0-7.711-8.458c-6.31-4.576-14.313-7.144-20.746-9.208-6.416-2.057-10.343-3.433-10.777-5.184-.691-2.784-.488-4.826.621-6.243.928-1.186,2.514-1.981,4.848-2.43a34.237,34.237,0,0,1,6.143-.452c2.067,0,4.3.1,6.452.192l.106,0c2.183.1,4.441.2,6.558.2a28.013,28.013,0,0,0,8.7-1.054c2.7-.932,4.3-2.526,4.91-4.873.918-3.548.4-6.619-1.541-9.126-1.991-2.571-5.5-4.544-10.443-5.863-5.028-1.343-11.6-2.024-19.534-2.024m0-.678c16.06,0,26.326,2.741,30.513,8.149,2.075,2.682,2.634,5.949,1.661,9.711-1.466,5.67-8.033,6.435-14.263,6.435-2.148,0-4.43-.1-6.637-.2-2.168-.1-4.409-.194-6.479-.194-3.914,0-8.64.3-10.457,2.621-.972,1.242-1.134,3.094-.5,5.662.374,1.509,5.661,3.206,10.326,4.7,12.89,4.136,32.37,10.385,31.706,30.868-.494,15.278-17.883,28.5-33.18,30.81a65.243,65.243,0,0,1-9.269.584h0c-5.707,0-24.956-.682-33.018-9.459a13.125,13.125,0,0,1-3.521-10.374c.8-9.4,4.707-13.974,11.946-13.974,4.623,0,10.088,1.91,15.374,3.759,5.015,1.752,10.2,3.565,14.256,3.565h0c3.045,0,5.118-1,6.524-3.144,2.275-3.471,2.928-6.4,2-8.965-2.271-6.24-13.714-9.686-22.909-12.455-6.044-1.82-11.263-3.392-13.539-5.579-6.643-6.385-7.1-18.667-4.125-27.5,2.723-8.075,7.987-13.135,14.442-13.881A174.014,174.014,0,0,1,97.438,147.831Z" transform="translate(1011.735 -45.831)" fill="#231f20"/>
  </g>
</svg>
