<svg xmlns="http://www.w3.org/2000/svg" xmlns:xlink="http://www.w3.org/1999/xlink" width="178.58" height="249.45" viewBox="0 0 178.58 249.45">
  <defs>
    <clipPath id="clip-path">
      <rect id="Rectangle_1" data-name="Rectangle 1" width="178.58" height="249.45" fill="none"/>
    </clipPath>
  </defs>
  <g id="fr8" transform="translate(-1613 -27)">
    <g id="Groupe_1" data-name="Groupe 1" transform="translate(1613 27)" clip-path="url(#clip-path)">
      <path id="Tracé_1" data-name="Tracé 1" d="M8.5,0H170.08a8.5,8.5,0,0,1,8.5,8.5V240.95a8.5,8.5,0,0,1-8.5,8.5H8.5a8.5,8.5,0,0,1-8.5-8.5V8.5A8.5,8.5,0,0,1,8.5,0" fill="#fff"/>
      <path id="Tracé_2" data-name="Tracé 2" d="M171.5,58.26V10.09a3.013,3.013,0,0,0-3.01-3.01H10.09a3,3,0,0,0-3,3.01V239.35a3,3,0,0,0,3,3.01h158.4a3.013,3.013,0,0,0,3.01-3.01V91.4m0-.01V58.29M29.01,44.95a.076.076,0,0,1,.02-.04.142.142,0,0,0-.02.06" fill="#fceef4"/>
    </g>
    <path id="_8" data-name="8" d="M430.494,198.561a1.51,1.51,0,0,1-.066-2.566c8.273-5.436,12.188-12.1,12.322-20.972.086-5.735-2.818-11.89-8.179-17.332-7.377-7.488-18.144-12.327-27.43-12.327l-.356,0c-14.8.191-24.724,4.2-29.488,11.9-6.945,11.232-1.009,27.327,3.147,35.921a4.654,4.654,0,0,1-2.046,6.165c-6.533,3.437-20.738,13.537-11.563,33.048,6.216,13.219,20.63,21.43,37.616,21.43a52.961,52.961,0,0,0,11.9-1.372c13.788-3.189,26.139-15.723,28.121-28.537C446.031,213.82,441.068,204.813,430.494,198.561Zm-40.246,26.51c.226-4.737,3.918-11.03,11.493-13.654a14.131,14.131,0,0,1,4.56-.709c6.417,0,13.311,3.53,13.449,10.073a13.549,13.549,0,0,1-3.736,10.03c-2.828,2.887-6.977,4.414-12,4.414l-.274,0a15.617,15.617,0,0,1-11.068-4.505A7.88,7.88,0,0,1,390.248,225.071Zm27.032-43.49a9.824,9.824,0,0,1-7.148,3.835c-.6.058-1.21.087-1.82.087-5.471,0-10.5-2.352-11.445-5.355-1.138-3.613.544-8.253,5.961-10.129a14.029,14.029,0,0,1,4.54-.729c2.142,0,9.267.561,11.006,7.782A5.647,5.647,0,0,1,417.28,181.581Z" transform="translate(1298.163 -48.364)" fill="#ef9f5e"/>
    <path id="_8_-_Contour" data-name="8 - Contour" d="M407.145,146.042l-.351,0c-14.556.188-24.286,4.085-28.92,11.583-6.774,10.956-.915,26.8,3.181,35.269a5.328,5.328,0,0,1-2.34,7.06,33.763,33.763,0,0,0-5.738,3.793,25.122,25.122,0,0,0-5.668,6.451c-3.774,6.319-3.727,13.693.14,21.916,6.1,12.978,20.281,21.041,37,21.041A52.282,52.282,0,0,0,416.2,251.8a38.1,38.1,0,0,0,18.158-10.475c5.154-5.231,8.509-11.448,9.446-17.506a21.079,21.079,0,0,0-2.361-13.7,29.763,29.763,0,0,0-11.29-10.981,2.188,2.188,0,0,1-.093-3.716,27.642,27.642,0,0,0,9-8.974,22.66,22.66,0,0,0,3.016-11.441c.083-5.552-2.752-11.535-7.984-16.846-7.256-7.365-17.831-12.124-26.944-12.125m1.167,40.139a18.559,18.559,0,0,1-7.707-1.615c-2.312-1.082-3.87-2.578-4.385-4.214-1.237-3.926.56-8.956,6.385-10.973a14.713,14.713,0,0,1,4.762-.766c2.268,0,9.81.6,11.665,8.3a6.317,6.317,0,0,1-1.2,5.061,10.5,10.5,0,0,1-7.635,4.117c-.617.06-1.251.09-1.885.09m-4.3,49.722-.282,0a16.3,16.3,0,0,1-11.553-4.718,8.543,8.543,0,0,1-2.607-6.144c.237-4.958,4.076-11.535,11.948-14.262a14.813,14.813,0,0,1,4.782-.746c6.738,0,13.98,3.763,14.127,10.736a14.212,14.212,0,0,1-3.929,10.519c-2.959,3.021-7.276,4.617-12.485,4.617m3.128-90.539c9.286,0,20.053,4.839,27.43,12.327,5.361,5.442,8.265,11.6,8.179,17.332-.134,8.872-4.049,15.536-12.322,20.972a1.51,1.51,0,0,0,.066,2.566c10.574,6.252,15.537,15.259,13.976,25.364-1.982,12.814-14.333,25.348-28.121,28.537a52.961,52.961,0,0,1-11.9,1.372c-16.986,0-31.4-8.211-37.616-21.43-9.175-19.511,5.03-29.611,11.563-33.048a4.654,4.654,0,0,0,2.046-6.165c-4.156-8.594-10.092-24.689-3.147-35.921,4.764-7.708,14.686-11.713,29.488-11.9Zm1.171,40.139c.61,0,1.222-.029,1.82-.087a9.824,9.824,0,0,0,7.148-3.835,5.647,5.647,0,0,0,1.094-4.509c-1.739-7.221-8.864-7.782-11.006-7.782a14.029,14.029,0,0,0-4.54.729c-5.417,1.876-7.1,6.516-5.961,10.129C397.813,183.151,402.841,185.5,408.312,185.5Zm-4.3,49.722c5.024,0,9.173-1.527,12-4.414a13.549,13.549,0,0,0,3.736-10.03c-.138-6.543-7.032-10.073-13.449-10.073a14.131,14.131,0,0,0-4.56.709c-7.575,2.624-11.267,8.917-11.493,13.654a7.88,7.88,0,0,0,2.423,5.647,15.617,15.617,0,0,0,11.068,4.5Z" transform="translate(1298.163 -48.364)" fill="#231f20"/>
  </g>
</svg>
