<svg xmlns="http://www.w3.org/2000/svg" xmlns:xlink="http://www.w3.org/1999/xlink" width="178.58" height="249.45" viewBox="0 0 178.58 249.45">
  <defs>
    <clipPath id="clip-path">
      <rect id="Rectangle_1" data-name="Rectangle 1" width="178.58" height="249.45" fill="none"/>
    </clipPath>
  </defs>
  <g id="fr9" transform="translate(-1812 -27)">
    <g id="Groupe_1" data-name="Groupe 1" transform="translate(1812 27)" clip-path="url(#clip-path)">
      <path id="Tracé_1" data-name="Tracé 1" d="M8.5,0H170.08a8.5,8.5,0,0,1,8.5,8.5V240.95a8.5,8.5,0,0,1-8.5,8.5H8.5a8.5,8.5,0,0,1-8.5-8.5V8.5A8.5,8.5,0,0,1,8.5,0" fill="#fff"/>
      <path id="Tracé_2" data-name="Tracé 2" d="M171.5,58.26V10.09a3.013,3.013,0,0,0-3.01-3.01H10.09a3,3,0,0,0-3,3.01V239.35a3,3,0,0,0,3,3.01h158.4a3.013,3.013,0,0,0,3.01-3.01V91.4m0-.01V58.29M29.01,44.95a.076.076,0,0,1,.02-.04.142.142,0,0,0-.02.06" fill="#fceef4"/>
    </g>
    <path id="_9" data-name="9" d="M549.193,159.713c-5.2-6.579-14.253-10.2-25.5-10.2-8.951,0-18.064,2.37-24.377,6.341-12.511,7.869-22.275,33.985-14.458,47.015,5.347,8.913,16.286,10.056,25.218,10.056q1.134,0,2.229-.022l.351,0c4.6,0,8.264,1.517,8.494,2.539.081.359-.582,1.707-4.571,3.608A63.033,63.033,0,0,1,509,221.315c-11.46,3.046-27.155,7.219-25.8,14.925,1.27,7.245,12.925,8.766,22.48,8.766,2.319,0,4.247-.092,5.455-.169,18.484-1.178,32.356-9.541,37.109-22.371C558.79,193.982,559.12,172.283,549.193,159.713ZM523.251,179.73c-1.758,5.218-6.088,8.862-10.529,8.862a7.7,7.7,0,0,1-2.466-.4c-5.267-1.774-9.655-6.316-7.584-12.461,1.884-5.593,8.455-10.88,13.52-10.88a5.763,5.763,0,0,1,1.834.281C523.05,166.823,525.394,173.373,523.251,179.73Z" transform="translate(1381.944 -45.511)" fill="#ef9f5e"/>
    <path id="_9_-_Contour" data-name="9 - Contour" d="M523.689,150.189c-8.83,0-17.807,2.332-24.016,6.237-5.878,3.7-11.46,11.825-14.569,21.211a44.124,44.124,0,0,0-2.37,13.5,21.8,21.8,0,0,0,2.7,11.386c5.172,8.621,15.883,9.727,24.637,9.727.713,0,1.458-.007,2.216-.022h.005l.359,0a19.829,19.829,0,0,1,6.1.921c1.269.423,2.83,1.139,3.057,2.147.257,1.139-1.59,2.772-4.94,4.369a62.669,62.669,0,0,1-7.695,2.314c-5.841,1.552-12.461,3.312-17.6,5.676a20.085,20.085,0,0,0-6.042,3.909,5.114,5.114,0,0,0-1.672,4.568,6.605,6.605,0,0,0,2.466,4.018,15.073,15.073,0,0,0,5.2,2.549,50.538,50.538,0,0,0,14.151,1.637c2.3,0,4.212-.091,5.412-.168,18.208-1.16,31.859-9.359,36.517-21.93,5.225-14.1,7.956-26.592,8.116-37.119.159-10.444-2.215-18.848-7.056-24.978-5.064-6.413-13.932-9.944-24.972-9.944M512.722,189.27a8.379,8.379,0,0,1-2.682-.437,13.705,13.705,0,0,1-6.882-4.843,9.129,9.129,0,0,1-1.128-8.476,17.964,17.964,0,0,1,5.785-7.849c2.758-2.219,5.812-3.492,8.378-3.492a6.434,6.434,0,0,1,2.05.316,9.334,9.334,0,0,1,5.722,5.965,14.55,14.55,0,0,1-.071,9.494c-1.849,5.489-6.443,9.323-11.171,9.323m10.967-39.759c11.251,0,20.309,3.623,25.5,10.2,9.927,12.57,9.6,34.269-.956,62.753-4.753,12.83-18.625,21.193-37.109,22.371-1.208.077-3.136.169-5.455.169-9.555,0-21.21-1.521-22.48-8.766-1.35-7.706,14.345-11.879,25.8-14.925a63.033,63.033,0,0,0,7.577-2.271c3.989-1.9,4.652-3.249,4.571-3.608-.23-1.022-3.9-2.539-8.494-2.539l-.351,0q-1.095.021-2.229.022c-8.932,0-19.871-1.143-25.218-10.056-7.817-13.03,1.947-39.146,14.458-47.015C505.625,151.881,514.738,149.511,523.689,149.511Zm-10.967,39.081c4.441,0,8.771-3.644,10.529-8.862,2.143-6.357-.2-12.907-5.225-14.6a5.763,5.763,0,0,0-1.834-.281c-5.065,0-11.636,5.287-13.52,10.88-2.071,6.145,2.317,10.687,7.584,12.461A7.7,7.7,0,0,0,512.722,188.592Z" transform="translate(1381.944 -45.511)" fill="#231f20"/>
  </g>
</svg>
